<svg width="16" height="14" viewBox="0 0 16 14" fill="none" xmlns="http://www.w3.org/2000/svg">
<path d="M8.4259 1.03281L14.9228 6.54531C15.1689 6.79141 15.1853 7.07031 14.972 7.38203C14.7259 7.62812 14.4552 7.64453 14.1599 7.43125L13.5447 6.93906V11.5164C13.5282 12.0742 13.3396 12.5418 12.9786 12.9191C12.6013 13.2801 12.1337 13.4688 11.5759 13.4852H4.4884C3.93059 13.4688 3.46301 13.2801 3.08567 12.9191C2.72473 12.5418 2.53606 12.0742 2.51965 11.5164V6.93906L1.90442 7.43125C1.60911 7.64453 1.3384 7.62812 1.09231 7.38203C0.879029 7.07031 0.895436 6.79141 1.14153 6.54531L7.6384 1.03281C7.9009 0.835937 8.1634 0.835937 8.4259 1.03281ZM12.3634 5.93008L8.03215 2.26328L3.7009 5.93008V11.5164C3.7009 11.7461 3.77473 11.9348 3.92239 12.0824C4.07005 12.2301 4.25872 12.3039 4.4884 12.3039H11.5759C11.8056 12.3039 11.9943 12.2301 12.1419 12.0824C12.2896 11.9348 12.3634 11.7461 12.3634 11.5164V5.93008V11.5164V5.93008ZM9.60715 6.39766C9.59075 6.98828 9.32825 7.43945 8.81965 7.75117C8.29465 8.04648 7.76965 8.04648 7.24465 7.75117C6.73606 7.43945 6.47356 6.98828 6.45715 6.39766C6.47356 5.80703 6.73606 5.35586 7.24465 5.04414C7.76965 4.74883 8.29465 4.74883 8.81965 5.04414C9.32825 5.35586 9.59075 5.80703 9.60715 6.39766ZM7.24465 8.76016H8.81965C9.37747 8.77656 9.84505 8.96523 10.2224 9.32617C10.5833 9.70352 10.772 10.1711 10.7884 10.7289C10.772 10.975 10.6407 11.1062 10.3947 11.1227H5.66965C5.42356 11.1062 5.29231 10.975 5.2759 10.7289C5.29231 10.1711 5.48098 9.70352 5.84192 9.32617C6.21926 8.96523 6.68684 8.77656 7.24465 8.76016Z" fill="#BBBBBB"/>
</svg>
