<svg width="16" height="14" viewBox="0 0 16 14" fill="none" xmlns="http://www.w3.org/2000/svg">
<path d="M3.71062 3.875C3.72703 4.61328 4.05516 5.1793 4.695 5.57305C5.35125 5.93398 6.0075 5.93398 6.66375 5.57305C7.30359 5.1793 7.63172 4.61328 7.64813 3.875C7.63172 3.13672 7.30359 2.5707 6.66375 2.17695C6.0075 1.81602 5.35125 1.81602 4.695 2.17695C4.05516 2.5707 3.72703 3.13672 3.71062 3.875ZM8.82938 3.875C8.82938 4.44922 8.68992 4.97422 8.41102 5.45C8.13211 5.92578 7.74656 6.31133 7.25438 6.60664C6.76219 6.88555 6.23719 7.025 5.67938 7.025C5.12156 7.025 4.59656 6.88555 4.10438 6.60664C3.61219 6.31133 3.22664 5.92578 2.94773 5.45C2.66883 4.97422 2.52937 4.44922 2.52937 3.875C2.52937 3.30078 2.66883 2.77578 2.94773 2.3C3.22664 1.82422 3.61219 1.43867 4.10438 1.14336C4.59656 0.864453 5.12156 0.725 5.67938 0.725C6.23719 0.725 6.76219 0.864453 7.25438 1.14336C7.74656 1.43867 8.13211 1.82422 8.41102 2.3C8.68992 2.77578 8.82938 3.30078 8.82938 3.875ZM1.37273 12.1438H9.39539C9.70711 12.5703 10.1091 12.9641 10.6013 13.325C10.552 13.325 10.5028 13.325 10.4536 13.325H0.905156C0.691875 13.325 0.519609 13.2512 0.388359 13.1035C0.240703 12.9723 0.166875 12.8 0.166875 12.5867C0.199687 11.3562 0.62625 10.3227 1.44656 9.48594C2.28328 8.66562 3.31687 8.23906 4.54734 8.20625H6.81141C7.23797 8.20625 7.64813 8.26367 8.04188 8.37852C8.07469 8.80508 8.14852 9.25625 8.26336 9.73203C7.82039 9.50234 7.33641 9.3875 6.81141 9.3875H4.54734C3.72703 9.40391 3.02156 9.66641 2.43094 10.175C1.85672 10.6836 1.50398 11.3398 1.37273 12.1438ZM12.1516 6.28672C12.2993 6.22109 12.447 6.22109 12.5946 6.28672L15.5477 7.46797C15.7774 7.56641 15.9005 7.74687 15.9169 8.00937C15.9333 8.55078 15.843 9.15781 15.6462 9.83047C15.4657 10.5031 15.1376 11.1512 14.6618 11.7746C14.1696 12.398 13.4805 12.8984 12.5946 13.2758C12.447 13.3414 12.2993 13.3414 12.1516 13.2758C11.2657 12.8984 10.5766 12.398 10.0845 11.7746C9.60867 11.1512 9.28055 10.5031 9.10008 9.83047C8.9032 9.15781 8.81297 8.55078 8.82938 8.00937C8.84578 7.74687 8.96883 7.56641 9.19852 7.46797L12.1516 6.28672L9.19852 7.46797L12.1516 6.28672ZM14.711 8.40312L12.3731 7.46797V12.0945C13.1934 11.6516 13.7841 11.0855 14.145 10.3965C14.4895 9.72383 14.6782 9.05937 14.711 8.40312Z" fill="#BBBBBB"/>
</svg>
