<svg width="13" height="16" viewBox="0 0 13 16" fill="none" xmlns="http://www.w3.org/2000/svg">
<g id="Icon" clip-path="url(#clip0_40_4886)">
<path id="Vector" d="M9.09779 0.998989C9.35996 1.01772 9.57532 1.12071 9.74386 1.30798C9.89367 1.51397 9.93112 1.75742 9.85622 2.03831L8.36745 7.29112H10.7551C11.036 7.29112 11.2701 7.38476 11.4573 7.57202C11.6446 7.75929 11.7382 7.99337 11.7382 8.27427C11.7382 8.5739 11.6259 8.8267 11.4012 9.0327L4.12588 15.1844C3.97607 15.3155 3.79816 15.381 3.59217 15.381C3.33 15.3623 3.11464 15.2593 2.9461 15.072C2.79629 14.866 2.75884 14.6226 2.83374 14.3417L4.32251 9.08888H1.90678C1.62588 9.08888 1.40116 8.99524 1.23262 8.80798C1.04535 8.63944 0.951721 8.41472 0.951721 8.13382C0.951721 7.85292 1.06408 7.61884 1.2888 7.43157L8.56408 1.19562C8.71389 1.06453 8.8918 0.998989 9.09779 0.998989ZM8.08655 3.38663L2.97419 7.74056H5.22138C5.4461 7.74056 5.62401 7.8342 5.75509 8.02146C5.88618 8.19 5.92363 8.38663 5.86745 8.61135L4.60341 13.0215L9.77195 8.63944H7.46858C7.24386 8.63944 7.06595 8.55517 6.93487 8.38663C6.80378 8.19936 6.76633 8.00273 6.82251 7.79674L8.08655 3.38663Z" fill="#2583D5"/>
</g>
<defs>
<clipPath id="clip0_40_4886">
<rect width="12.69" height="15" fill="white" transform="matrix(1 0 0 -1 0 15.69)"/>
</clipPath>
</defs>
</svg>
