<svg width="14" height="14" viewBox="0 0 14 14" fill="none" xmlns="http://www.w3.org/2000/svg">
<path d="M2.68682 2.32812C2.40362 2.34701 2.25258 2.49805 2.2337 2.78125V11.8438C2.25258 12.127 2.40362 12.278 2.68682 12.2969H9.03057V10.0312C9.03057 9.76693 9.11554 9.5498 9.28546 9.37988C9.45538 9.20996 9.6725 9.125 9.93682 9.125H12.2024V2.78125C12.1836 2.49805 12.0325 2.34701 11.7493 2.32812H2.68682ZM9.03057 13.6562H2.68682H9.03057H2.68682C2.17706 13.6374 1.75225 13.458 1.41241 13.1182C1.07257 12.7783 0.893205 12.3535 0.874325 11.8438V2.78125C0.893205 2.27148 1.07257 1.84668 1.41241 1.50684C1.75225 1.16699 2.17706 0.98763 2.68682 0.96875H11.7493C12.2591 0.98763 12.6839 1.16699 13.0237 1.50684C13.3636 1.84668 13.5429 2.27148 13.5618 2.78125V9.125V9.29492C13.5618 9.78581 13.3825 10.2106 13.0237 10.5693L10.4749 13.1182C10.1162 13.4769 9.69138 13.6562 9.2005 13.6562H9.03057Z" fill="#BBBBBB"/>
</svg>
