<svg width="16" height="12" viewBox="0 0 16 12" fill="none" xmlns="http://www.w3.org/2000/svg">
<path d="M5.92547 0.604297H14.8833C15.1786 0.604297 15.4247 0.702734 15.6216 0.899609C15.8184 1.09648 15.9169 1.34258 15.9169 1.63789C15.9169 1.86758 15.843 2.08086 15.6954 2.27773L12.3731 6.51055V10.0297C12.3567 10.3742 12.2091 10.6121 11.9302 10.7434C11.6513 10.8746 11.3723 10.85 11.0934 10.6695L8.80477 8.87305C8.55867 8.65977 8.43563 8.39727 8.43563 8.08555V6.51055L5.11336 2.27773C4.9657 2.08086 4.89188 1.86758 4.89188 1.63789C4.89188 1.34258 4.99031 1.09648 5.18719 0.899609C5.38406 0.702734 5.63016 0.604297 5.92547 0.604297ZM9.49383 5.94453C9.57586 6.05937 9.61688 6.18242 9.61688 6.31367V7.98711L11.1919 9.24219V6.31367C11.1919 6.18242 11.2329 6.05937 11.3149 5.94453L14.588 1.78555H6.24539L9.49383 5.94453L6.24539 1.78555L9.49383 5.94453ZM4.1782 2.1793C4.24383 2.39258 4.35047 2.58125 4.49813 2.74531L4.9657 3.36055H1.52039L4.76883 7.51953C4.85086 7.63437 4.89188 7.75742 4.89188 7.88867V8.77461L6.46688 10.0297V7.88867C6.46688 7.75742 6.50789 7.63437 6.58992 7.51953L7.40203 6.48594L7.64813 6.78125V8.08555V10.8172C7.63172 11.1617 7.48406 11.3996 7.20516 11.5309C6.92625 11.6621 6.64734 11.6375 6.36844 11.457L4.07977 9.66055C3.83367 9.44727 3.71062 9.18477 3.71062 8.87305V8.08555L0.388359 3.85273C0.240703 3.65586 0.166875 3.44258 0.166875 3.21289C0.166875 2.91758 0.265312 2.67148 0.462187 2.47461C0.659062 2.27773 0.905156 2.1793 1.20047 2.1793H4.1782H1.20047H4.1782Z" fill="#BBBBBB"/>
</svg>
