<svg width="14" height="14" viewBox="0 0 14 14" fill="none" xmlns="http://www.w3.org/2000/svg">
<path d="M5.83106 5.02695C5.83106 5.28945 5.86387 5.53555 5.9295 5.76523C5.96231 5.97852 5.90489 6.16719 5.75723 6.33125L1.89356 10.1949V12.1145H3.46856V11.1301C3.50137 10.7691 3.69825 10.5723 4.05918 10.5395H5.04356V9.55508C5.07637 9.19414 5.27325 8.99727 5.63418 8.96445H6.96309L7.67676 8.25078C7.84082 8.10312 8.0295 8.0457 8.24278 8.07852C8.47246 8.14414 8.71856 8.17695 8.98106 8.17695C9.867 8.16055 10.6135 7.85703 11.2205 7.26641C11.8111 6.65937 12.1147 5.91289 12.1311 5.02695C12.1147 4.14102 11.8111 3.39453 11.2205 2.7875C10.6135 2.19687 9.867 1.89336 8.98106 1.87695C8.09512 1.89336 7.34864 2.19687 6.74161 2.7875C6.15098 3.39453 5.84746 4.14102 5.83106 5.02695ZM8.98106 0.695703C10.2115 0.728515 11.2369 1.15508 12.0572 1.97539C12.8611 2.7793 13.2795 3.79648 13.3123 5.02695C13.2795 6.25742 12.8611 7.27461 12.0572 8.07852C11.2369 8.89883 10.2115 9.32539 8.98106 9.3582C8.75137 9.3582 8.52168 9.3418 8.292 9.30898L7.62754 9.97344C7.5127 10.0883 7.37325 10.1457 7.20918 10.1457H6.22481V11.1301C6.192 11.491 5.99512 11.6879 5.63418 11.7207H4.64981V12.7051C4.617 13.066 4.42012 13.2629 4.05918 13.2957H1.30293C0.941996 13.2629 0.745121 13.066 0.712308 12.7051V9.94883C0.712308 9.78477 0.76973 9.64531 0.884574 9.53047L4.69903 5.71602C4.66621 5.48633 4.64981 5.25664 4.64981 5.02695C4.68262 3.79648 5.10918 2.7793 5.9295 1.97539C6.7334 1.15508 7.75059 0.728515 8.98106 0.695703ZM9.76856 5.02695C9.53887 5.02695 9.3502 4.95312 9.20254 4.80547C9.05489 4.65781 8.98106 4.46914 8.98106 4.23945C8.98106 4.00977 9.05489 3.82109 9.20254 3.67344C9.3502 3.52578 9.53887 3.45195 9.76856 3.45195C9.99825 3.45195 10.1869 3.52578 10.3346 3.67344C10.4822 3.82109 10.5561 4.00977 10.5561 4.23945C10.5561 4.46914 10.4822 4.65781 10.3346 4.80547C10.1869 4.95312 9.99825 5.02695 9.76856 5.02695Z" fill="#BBBBBB"/>
</svg>
