<svg width="14" height="13" viewBox="0 0 14 13" fill="none" xmlns="http://www.w3.org/2000/svg">
<path d="M7.48797 1.37891H6.58172V11.3477H7.48797V1.37891V11.3477V1.37891ZM6.58172 0.0195312H7.48797C7.86557 0.0384115 8.18654 0.170573 8.45086 0.416016C8.6963 0.680339 8.82846 1.0013 8.84734 1.37891V11.3477C8.82846 11.7253 8.6963 12.0462 8.45086 12.3105C8.18654 12.556 7.86557 12.6882 7.48797 12.707H6.58172C6.20411 12.6882 5.88315 12.556 5.61883 12.3105C5.37339 12.0462 5.24122 11.7253 5.22234 11.3477V1.37891C5.24122 1.0013 5.37339 0.680339 5.61883 0.416016C5.88315 0.170573 6.20411 0.0384115 6.58172 0.0195312ZM2.95672 6.81641H2.05047V11.3477H2.95672V6.81641V11.3477V6.81641ZM2.05047 5.45703H2.95672C3.33432 5.47591 3.65529 5.60807 3.91961 5.85352C4.16505 6.11784 4.29721 6.4388 4.31609 6.81641V11.3477C4.29721 11.7253 4.16505 12.0462 3.91961 12.3105C3.65529 12.556 3.33432 12.6882 2.95672 12.707H2.05047C1.67286 12.6882 1.3519 12.556 1.08758 12.3105C0.842136 12.0462 0.709974 11.7253 0.691094 11.3477V6.81641C0.709974 6.4388 0.842136 6.11784 1.08758 5.85352C1.3519 5.60807 1.67286 5.47591 2.05047 5.45703ZM11.113 3.19141V11.3477H12.0192V3.19141H11.113H12.0192H11.113ZM9.75359 3.19141C9.77247 2.8138 9.90464 2.49284 10.1501 2.22852C10.4144 1.98307 10.7354 1.85091 11.113 1.83203H12.0192C12.3968 1.85091 12.7178 1.98307 12.9821 2.22852C13.2276 2.49284 13.3597 2.8138 13.3786 3.19141V11.3477C13.3597 11.7253 13.2276 12.0462 12.9821 12.3105C12.7178 12.556 12.3968 12.6882 12.0192 12.707H11.113C10.7354 12.6882 10.4144 12.556 10.1501 12.3105C9.90464 12.0462 9.77247 11.7253 9.75359 11.3477V3.19141V11.3477V3.19141Z" fill="white"/>
</svg>
