<svg width="25" height="25" viewBox="0 0 25 25" fill="none" xmlns="http://www.w3.org/2000/svg">
<rect x="0.279999" y="0.279999" width="24" height="24" rx="12" fill="#00A186" fill-opacity="0.1"/>
<rect x="0.779999" y="0.779999" width="23" height="23" rx="11.5" stroke="#00A186" stroke-opacity="0.25"/>
<g clip-path="url(#clip0_40_3107)">
<path d="M16.9329 12.5183C17.1077 12.3061 17.1077 12.0939 16.9329 11.8816L14.3861 9.33483C14.1739 9.16005 13.9617 9.16005 13.7494 9.33483C13.5746 9.54706 13.5746 9.7593 13.7494 9.97153L15.5284 11.7506H7.92545C7.65079 11.7755 7.50098 11.9253 7.47601 12.2C7.50098 12.4747 7.65079 12.6245 7.92545 12.6494H15.5284L13.7494 14.4285C13.5746 14.6407 13.5746 14.8529 13.7494 15.0652C13.9617 15.2399 14.1739 15.2399 14.3861 15.0652L16.9329 12.5183Z" fill="#00A186"/>
</g>
<defs>
<clipPath id="clip0_40_3107">
<rect width="10.14" height="10" fill="white" transform="matrix(1 0 0 -1 7.20001 17.2)"/>
</clipPath>
</defs>
</svg>
