<svg width="319" height="107" viewBox="0 0 319 107" fill="none" xmlns="http://www.w3.org/2000/svg">
<g opacity="0.5" clip-path="url(#clip0_190_25453)">
<g clip-path="url(#clip1_190_25453)">
<g clip-path="url(#clip2_190_25453)">
<path d="M1.19141 105.857H1.3072H1.423H1.53879H1.65458H1.77038H1.88617H2.00196L2.11776 105.831L2.23355 105.847L2.34934 105.852H2.46514L2.58093 105.857L2.69672 105.847H2.81252L2.92831 105.852H3.0441L3.1599 105.857H3.27569L3.39148 105.852H3.50728L3.62307 105.857H3.73886L3.85466 105.847L3.97045 105.857H4.08624H4.20204H4.31783H4.43362H4.54942H4.66521H4.781H4.8968H5.01259H5.12838H5.24418H5.35997H5.47576H5.59156H5.70735H5.82314H5.93894H6.05473H6.17052H6.28632H6.40211H6.5179H6.6337H6.74949H6.86528H6.98108H7.09687H7.21266H7.32846H7.44425H7.56004H7.67584H7.79163H7.90742H8.02322H8.13901H8.2548H8.3706H8.48639H8.60218H8.71798H8.83377H8.94956H9.06536H9.18115H9.29694H9.41274H9.52853H9.64432H9.76012H9.87591H9.9917H10.1075H10.2233H10.3391H10.4549H10.5707H10.6865H10.8022H10.918H11.0338H11.1496H11.2654H11.3812H11.497H11.6128H11.7286H11.8444H11.9602H12.076H12.1918H12.3076H12.4234H12.5391H12.6549H12.7707H12.8865H13.0023H13.1181H13.2339H13.3497H13.4655H13.5813H13.6971H13.8129H13.9287H14.0445H14.1603H14.276H14.3918H14.5076H14.6234H14.7392H14.855H14.9708H15.0866H15.2024H15.3182H15.434H15.5498H15.6656H15.7814H15.8972H16.0129H16.1287H16.2445H16.3603H16.4761H16.5919H16.7077H16.8235H16.9393H17.0551L17.1709 105.852L17.2867 105.857H17.4025H17.5183H17.6341H17.7498H17.8656H17.9814H18.0972H18.213H18.3288H18.4446H18.5604H18.6762H18.792H18.9078H19.0236H19.1394H19.2552H19.371H19.4867H19.6025H19.7183H19.8341H19.9499H20.0657H20.1815H20.2973H20.4131H20.5289H20.6447H20.7605H20.8763H20.9921H21.1079H21.2236H21.3394H21.4552H21.571H21.6868H21.8026L21.9184 105.852H22.0342H22.15H22.2658H22.3816H22.4974H22.6132L22.729 105.857L22.8448 105.852L22.9605 105.857L23.0763 105.852H23.1921L23.3079 105.847L23.4237 105.852H23.5395H23.6553H23.7711H23.8869H24.0027H24.1185H24.2343H24.3501H24.4659H24.5817H24.6974H24.8132H24.929H25.0448H25.1606L25.2764 105.841L25.3922 105.847L25.508 105.852H25.6238H25.7396H25.8554H25.9712H26.087H26.2028H26.3186H26.4343H26.5501H26.6659H26.7817H26.8975H27.0133H27.1291H27.2449H27.3607H27.4765H27.5923H27.7081H27.8239H27.9397H28.0555H28.1712H28.287H28.4028H28.5186H28.6344H28.7502H28.866H28.9818H29.0976H29.2134H29.3292H29.445H29.5608H29.6766H29.7924H29.9081H30.0239H30.1397H30.2555H30.3713H30.4871H30.6029H30.7187H30.8345L30.9503 105.857L31.0661 105.852H31.1819H31.2977L31.4135 105.857L31.5293 105.852H31.645H31.7608H31.8766H31.9924H32.1082H32.224H32.3398H32.4556L32.5714 105.857H32.6872H32.803H32.9188L33.0346 105.852H33.1504H33.2662H33.3819H33.4977H33.6135H33.7293H33.8451H33.9609H34.0767H34.1925H34.3083H34.4241H34.5399H34.6557H34.7715H34.8873H35.0031H35.1188H35.2346H35.3504H35.4662H35.582H35.6978H35.8136H35.9294H36.0452H36.161H36.2768H36.3926H36.5084H36.6242H36.74H36.8557H36.9715H37.0873H37.2031H37.3189L37.4347 105.847L37.5505 105.852H37.6663H37.7821H37.8979H38.0137H38.1295H38.2453H38.3611L38.4769 105.847L38.5926 105.831H38.7084L38.8242 105.852H38.94L39.0558 105.847L39.1716 105.852H39.2874H39.4032H39.519H39.6348H39.7506H39.8664H39.9822L40.098 105.847L40.2138 105.852H40.3295H40.4453H40.5611H40.6769H40.7927H40.9085H41.0243H41.1401H41.2559H41.3717H41.4875H41.6033H41.7191H41.8349H41.9507H42.0664H42.1822H42.298L42.4138 105.847L42.5296 105.852H42.6454H42.7612H42.877H42.9928H43.1086H43.2244L43.3402 105.847L43.456 105.852H43.5718H43.6875H43.8033H43.9191H44.0349H44.1507H44.2665H44.3823H44.4981H44.6139H44.7297H44.8455H44.9613H45.0771H45.1929H45.3087H45.4245H45.5402H45.656H45.7718H45.8876H46.0034H46.1192H46.235L46.3508 105.847L46.4666 105.852H46.5824H46.6982H46.814H46.9298H47.0456H47.1614H47.2771H47.3929H47.5087H47.6245H47.7403H47.8561H47.9719H48.0877H48.2035H48.3193H48.4351H48.5509H48.6667H48.7825H48.8982H49.014H49.1298H49.2456H49.3614H49.4772H49.593H49.7088L49.8246 105.847H49.9404H50.0562H50.172L50.2878 105.841H50.4036L50.5194 105.847L50.6352 105.852H50.7509L50.8667 105.847H50.9825H51.0983H51.2141H51.3299H51.4457H51.5615H51.6773H51.7931L51.9089 105.852H52.0247L52.1405 105.847L52.2563 105.836L52.3721 105.847H52.4878H52.6036H52.7194H52.8352L52.951 105.841L53.0668 105.847L53.1826 105.852H53.2984H53.4142H53.53H53.6458H53.7616H53.8774H53.9932H54.1089H54.2247H54.3405H54.4563H54.5721H54.6879H54.8037H54.9195H55.0353H55.1511H55.2669H55.3827H55.4985H55.6143H55.7301H55.8459H55.9616H56.0774H56.1932H56.309H56.4248H56.5406H56.6564H56.7722H56.888H57.0038H57.1196H57.2354L57.3512 105.847H57.467H57.5828H57.6985L57.8143 105.852H57.9301H58.0459L58.1617 105.857H58.2775L58.3933 105.852H58.5091H58.6249L58.7407 105.769L58.8565 105.852H58.9723H59.0881H59.2039H59.3196H59.4354H59.5512H59.667H59.7828H59.8986H60.0144H60.1302H60.246H60.3618L60.4776 105.857H60.5934H60.7092H60.825L60.9408 105.852H61.0566H61.1723H61.2881H61.4039H61.5197H61.6355H61.7513H61.8671H61.9829H62.0987H62.2145H62.3303H62.4461H62.5619H62.6777H62.7935H62.9092H63.025H63.1408H63.2566H63.3724H63.4882H63.604H63.7198H63.8356H63.9514H64.0672H64.183H64.2988H64.4146H64.5303H64.6461H64.7619H64.8777H64.9935H65.1093H65.2251H65.3409H65.4567H65.5725H65.6883H65.8041H65.9199H66.0357H66.1515H66.2673H66.383H66.4988H66.6146L66.7304 105.847L66.8462 105.852H66.962H67.0778H67.1936H67.3094H67.4252H67.541H67.6568H67.7726H67.8884H68.0042H68.1199H68.2357L68.3515 105.847L68.4673 105.852H68.5831H68.6989H68.8147H68.9305H69.0463H69.1621H69.2779L69.3937 105.847H69.5095H69.6253L69.741 105.841H69.8568H69.9726L70.0884 105.836H70.2042L70.32 105.847L70.4358 105.841H70.5516H70.6674H70.7832H70.899L71.0148 105.836L71.1306 105.841L71.2464 105.836H71.3622H71.478H71.5937H71.7095H71.8253H71.9411H72.0569L72.1727 105.841H72.2885L72.4043 105.836L72.5201 105.841H72.6359H72.7517H72.8675L72.9833 105.836L73.0991 105.841L73.2149 105.831L73.3306 105.836H73.4464H73.5622H73.678H73.7938H73.9096H74.0254H74.1412L74.257 105.831H74.3728L74.4886 105.836L74.6044 105.831L74.7202 105.836H74.836L74.9517 105.831H75.0675H75.1833L75.2991 105.821H75.4149L75.5307 105.815L75.6465 105.826L75.7623 105.815L75.8781 105.821L75.9939 105.815L76.1097 105.81L76.2255 105.821L76.3413 105.815H76.4571H76.5729L76.6887 105.81H76.8044H76.9202L77.036 105.805H77.1518L77.2676 105.784L77.3834 105.8L77.4992 105.789L77.615 105.779L77.7308 105.774L77.8466 105.769L77.9624 105.737L78.0782 105.711L78.194 105.748L78.3098 105.753L78.4256 105.758L78.5413 105.748L78.6571 105.732L78.7729 105.659L78.8887 105.504L79.0045 105.711L79.1203 105.685L79.2361 105.706L79.3519 105.675L79.4677 105.706L79.5835 105.675L79.6993 105.68L79.8151 105.685L79.9309 105.691L80.0467 105.68L80.1624 105.628L80.2782 105.498L80.394 105.644L80.5098 105.675L80.6256 105.665H80.7414L80.8572 105.67H80.973L81.0888 105.675L81.2046 105.431L81.3204 105.16L81.4362 105.457L81.552 105.566L81.6678 105.452L81.7836 105.597L81.8993 105.493L82.0151 105.659L82.1309 105.394L82.2467 105.587L82.3625 105.654L82.4783 105.68L82.5941 105.67L82.7099 105.654L82.8257 105.67L82.9415 105.649L83.0573 105.696L83.1731 105.706L83.2889 105.67L83.4047 105.717L83.5205 105.763L83.6363 105.758L83.752 105.722H83.8678L83.9836 105.743L84.0994 105.748L84.2152 105.769L84.331 105.743L84.4468 105.675L84.5626 105.737H84.6784L84.7942 105.706L84.91 105.727H85.0258L85.1416 105.717L85.2574 105.701L85.3731 105.717L85.4889 105.732L85.6047 105.743L85.7205 105.748L85.8363 105.753L85.9521 105.758L86.0679 105.717L86.1837 105.743H86.2995L86.4153 105.758L86.5311 105.737L86.6469 105.732L86.7627 105.696L86.8785 105.691L86.9943 105.711H87.11L87.2258 105.696H87.3416L87.4574 105.717L87.5732 105.727L87.689 105.717L87.8048 105.415L87.9206 105.607L88.0364 105.509L88.1522 105.665L88.268 105.711L88.3838 105.717L88.4996 105.711L88.6154 105.717L88.7312 105.701L88.847 105.706L88.9627 105.691L89.0785 105.701L89.1943 105.696L89.3101 105.602L89.4259 105.639L89.5417 105.467L89.6575 105.587L89.7733 105.519L89.8891 105.675L90.0049 105.685L90.1207 105.628L90.2365 105.581L90.3523 105.571L90.4681 105.597L90.5838 105.675L90.6996 105.659L90.8154 105.691L90.9312 105.659L91.047 105.675L91.1628 105.732L91.2786 105.665L91.3944 105.623L91.5102 105.685H91.626L91.7418 105.691L91.8576 105.561L91.9734 105.722L92.0892 105.701L92.205 105.675L92.3207 105.628L92.4365 105.665L92.5523 105.67L92.6681 105.639L92.7839 105.68L92.8997 105.701L93.0155 105.659H93.1313L93.2471 105.675L93.3629 105.68L93.4787 105.665L93.5945 105.654L93.7103 105.639L93.8261 105.68L93.9419 105.665L94.0577 105.68L94.1734 105.67L94.2892 105.426L94.405 105.675L94.5208 105.639L94.6366 105.644L94.7524 105.649L94.8682 105.711L94.984 105.753H95.0998L95.2156 105.763L95.3314 105.717L95.4472 105.779L95.563 105.789L95.6788 105.774L95.7945 105.743L95.9103 105.758L96.0261 105.769L96.1419 105.763L96.2577 105.779H96.3735L96.4893 105.769L96.6051 105.758L96.7209 105.753H96.8367L96.9525 105.769L97.0683 105.774L97.1841 105.784L97.2999 105.774L97.4157 105.753L97.5314 105.732L97.6472 105.743L97.763 105.758H97.8788L97.9946 105.748L98.1104 105.743L98.2262 105.732L98.342 105.727L98.4578 105.732H98.5736L98.6894 105.758L98.8052 105.743L98.921 105.722L99.0368 105.727H99.1526L99.2684 105.717L99.3841 105.711L99.4999 105.732L99.6157 105.696L99.7315 105.706L99.8473 105.696L99.9631 105.706L100.079 105.711L100.194 105.696L100.31 105.727L100.426 105.717L100.542 105.581L100.657 105.452L100.773 105.431L100.889 105.114L101.005 105.15L101.121 105.119L101.236 105.249L101.352 105.363L101.468 105.249L101.584 105.28L101.7 105.202L101.815 105.285L101.931 105.27L102.047 105.358L102.163 105.374L102.279 105.28L102.394 105.129L102.51 105.181L102.626 105.348L102.742 105.379L102.858 105.384L102.973 105.478L103.089 105.498L103.205 105.509L103.321 105.53L103.437 105.504L103.552 105.55L103.668 105.504L103.784 105.524L103.9 105.446L104.015 105.368L104.131 105.316L104.247 104.599L104.363 104.303L104.479 104.391L104.594 104.427L104.71 104.209L104.826 103.819L104.942 104.277L105.058 104.495L105.173 104.386L105.289 104.396L105.405 104.63L105.521 104.906L105.637 104.994L105.752 104.916L105.868 104.89L105.984 104.776L106.1 105.14L106.216 105.218L106.331 105.062L106.447 105.077L106.563 105.129L106.679 105.311L106.795 105.29L106.91 105.218L107.026 105.03L107.142 105.207L107.258 105.155L107.373 105.036L107.489 105.275L107.605 105.306L107.721 105.405L107.837 105.498L107.952 105.431L108.068 105.452H108.184H108.3L108.416 105.462L108.531 105.504L108.647 105.509L108.763 105.488L108.879 105.446L108.995 105.462L109.11 105.441L109.226 105.41L109.342 105.374L109.458 105.462L109.574 105.472L109.689 105.478L109.805 105.519L109.921 105.478L110.037 105.488L110.153 105.509L110.268 105.524L110.384 105.488L110.5 105.394L110.616 105.478L110.731 105.42L110.847 105.519L110.963 105.472L111.079 105.483L111.195 105.55L111.31 105.556L111.426 105.571L111.542 105.566L111.658 105.618L111.774 105.633L111.889 105.581L112.005 105.654H112.121L112.237 105.665L112.353 105.654L112.468 105.706H112.584L112.7 105.701L112.816 105.691L112.932 105.67L113.047 105.665L113.163 105.67L113.279 105.691L113.395 105.685L113.511 105.68L113.626 105.711H113.742L113.858 105.722L113.974 105.743L114.089 105.758L114.205 105.769L114.321 105.753L114.437 105.748L114.553 105.769L114.668 105.717L114.784 105.753L114.9 105.769L115.016 105.758L115.132 105.753L115.247 105.748L115.363 105.737L115.479 105.717L115.595 105.701L115.711 105.722L115.826 105.727L115.942 105.722L116.058 105.732L116.174 105.691L116.29 105.696L116.405 105.685L116.521 105.711L116.637 105.701L116.753 105.696L116.869 105.644L116.984 105.675L117.1 105.654L117.216 105.644L117.332 105.618L117.447 105.597L117.563 105.602L117.679 105.639H117.795L117.911 105.581L118.026 105.633L118.142 105.628H118.258L118.374 105.639L118.49 105.623L118.605 105.613L118.721 105.535L118.837 105.55L118.953 105.633L119.069 105.597L119.184 105.54H119.3L119.416 105.53H119.532L119.648 105.535L119.763 105.571L119.879 105.566L119.995 105.55L120.111 105.545L120.227 105.576L120.342 105.581L120.458 105.597L120.574 105.618L120.69 105.649L120.806 105.592L120.921 105.556L121.037 105.55L121.153 105.472L121.269 105.509L121.384 105.618L121.5 105.623L121.616 105.576L121.732 105.602L121.848 105.519L121.963 105.602L122.079 105.618L122.195 105.68L122.311 105.701L122.427 105.685L122.542 105.701L122.658 105.706L122.774 105.67L122.89 105.659L123.006 105.623L123.121 105.732L123.237 105.727L123.353 105.691L123.469 105.706H123.585L123.7 105.581L123.816 105.732L123.932 105.675L124.048 105.706L124.164 105.737L124.279 105.743L124.395 105.748L124.511 105.737L124.627 105.114L124.742 104.635L124.858 102.889L124.974 104.173L125.09 104.256L125.206 104.677L125.321 104.069L125.437 104.282L125.553 105.306L125.669 105.446L125.785 105.618L125.9 105.556L126.016 105.316L126.132 105.244L126.248 104.557L126.364 104.022L126.479 105.649L126.595 105.67L126.711 105.696L126.827 105.711L126.943 105.665L127.058 105.628L127.174 105.727L127.29 105.685L127.406 105.706L127.522 105.717L127.637 105.727L127.753 105.743L127.869 105.68L127.985 105.753L128.1 105.748H128.216L128.332 105.644L128.448 105.763L128.564 105.758L128.679 105.737L128.795 105.779L128.911 105.727L129.027 105.441L129.143 104.916L129.258 104.984L129.374 105.431L129.49 105.727L129.606 105.763L129.722 105.743L129.837 105.732L129.953 105.722L130.069 105.748L130.185 105.332L130.301 105.748L130.416 105.753L130.532 105.769L130.648 105.763L130.764 105.644L130.88 105.711L130.995 105.597L131.111 105.774L131.227 105.623L131.343 105.769L131.458 105.763L131.574 105.711L131.69 105.748L131.806 105.743L131.922 105.774H132.037L132.153 105.769L132.269 105.743L132.385 105.789L132.501 105.753L132.616 105.758L132.732 105.779H132.848L132.964 105.774L133.08 105.769H133.195L133.311 105.753L133.427 105.774L133.543 105.763H133.659L133.774 105.774L133.89 105.737L134.006 105.706L134.122 105.743L134.238 105.696L134.353 105.748L134.469 105.758L134.585 105.691L134.701 105.743L134.817 105.737L134.932 105.722L135.048 105.717L135.164 105.675L135.28 105.727L135.395 105.701H135.511L135.627 105.763L135.743 105.769L135.859 105.774L135.974 105.8L136.09 105.784L136.206 105.763L136.322 105.774L136.438 105.753L136.553 105.774L136.669 105.743L136.785 105.789L136.901 105.8L137.017 105.779L137.132 105.789L137.248 105.784L137.364 105.789L137.48 105.784H137.596L137.711 105.789L137.827 105.784L137.943 105.779L138.059 105.763L138.175 105.753L138.29 105.763L138.406 105.784L138.522 105.789L138.638 105.784H138.753H138.869H138.985L139.101 105.774H139.217L139.332 105.779L139.448 105.763L139.564 105.758L139.68 105.763L139.796 105.748L139.911 105.774L140.027 105.789L140.143 105.8L140.259 105.774L140.375 105.763H140.49L140.606 105.753L140.722 105.769L140.838 105.784L140.954 105.769L141.069 105.779L141.185 105.784L141.301 105.795L141.417 105.8L141.533 105.795L141.648 105.805L141.764 105.795L141.88 105.805L141.996 105.81L142.111 105.789L142.227 105.774L142.343 105.769L142.459 105.789L142.575 105.795H142.69H142.806L142.922 105.8L143.038 105.815H143.154L143.269 105.826H143.385L143.501 105.821L143.617 105.826H143.733L143.848 105.821L143.964 105.81L144.08 105.831H144.196L144.312 105.821L144.427 105.795L144.543 105.815L144.659 105.81L144.775 105.815H144.891L145.006 105.81L145.122 105.805L145.238 105.8L145.354 105.795L145.469 105.821L145.585 105.81L145.701 105.815L145.817 105.769L145.933 105.815L146.048 105.805L146.164 105.81L146.28 105.815L146.396 105.805L146.512 105.779L146.627 105.805L146.743 105.81H146.859L146.975 105.815H147.091H147.206L147.322 105.821L147.438 105.826L147.554 105.8L147.67 105.81L147.785 105.805L147.901 105.815H148.017H148.133L148.249 105.821H148.364L148.48 105.805L148.596 105.815H148.712L148.827 105.821H148.943L149.059 105.826L149.175 105.821L149.291 105.826L149.406 105.821L149.522 105.815H149.638L149.754 105.821L149.87 105.826L149.985 105.821H150.101H150.217H150.333L150.449 105.815H150.564L150.68 105.81H150.796H150.912H151.028L151.143 105.805L151.259 105.8L151.375 105.805L151.491 105.8L151.607 105.784L151.722 105.228L151.838 105.789L151.954 105.795H152.07L152.186 105.789L152.301 105.8L152.417 105.789H152.533L152.649 105.795L152.764 105.784L152.88 105.805L152.996 105.81H153.112H153.228L153.343 105.805H153.459H153.575H153.691L153.807 105.81H153.922H154.038L154.154 105.815H154.27L154.386 105.821L154.501 105.815H154.617L154.733 105.81L154.849 105.535L154.965 105.81H155.08L155.196 105.795L155.312 105.805L155.428 105.81H155.544H155.659L155.775 105.805L155.891 105.8L156.007 105.81L156.122 105.8L156.238 105.815L156.354 105.81L156.47 105.805L156.586 105.795L156.701 105.784L156.817 105.795L156.933 105.8L157.049 105.805L157.165 105.8L157.28 105.795L157.396 105.8L157.512 105.784L157.628 105.8L157.744 105.805L157.859 105.81L157.975 105.805L158.091 105.81L158.207 105.805L158.323 105.8H158.438L158.554 105.81L158.67 105.821L158.786 105.815L158.902 105.81H159.017H159.133L159.249 105.821L159.365 105.805L159.48 105.821H159.596L159.712 105.815H159.828H159.944L160.059 105.753L160.175 105.81L160.291 105.815H160.407L160.523 105.805L160.638 105.795L160.754 105.805L160.87 105.81L160.986 105.805L161.102 105.81L161.217 105.805L161.333 105.795L161.449 105.784L161.565 105.758L161.681 105.722L161.796 105.743L161.912 105.763L162.028 105.769H162.144L162.26 105.779L162.375 105.763L162.491 105.774H162.607L162.723 105.789H162.838L162.954 105.763H163.07L163.186 105.758L163.302 105.753L163.417 105.758L163.533 105.769L163.649 105.789L163.765 105.779H163.881L163.996 105.774L164.112 105.779H164.228L164.344 105.763L164.46 105.8L164.575 105.753L164.691 105.774L164.807 105.795L164.923 105.789L165.039 105.774L165.154 105.758L165.27 105.795L165.386 105.748L165.502 105.779L165.618 105.769L165.733 105.748L165.849 105.774H165.965H166.081L166.197 105.763L166.312 105.732L166.428 105.711H166.544L166.66 105.737L166.775 105.748L166.891 105.753L167.007 105.732L167.123 105.758L167.239 105.769L167.354 105.784L167.47 105.763H167.586L167.702 105.779L167.818 105.748L167.933 105.763L168.049 105.779L168.165 105.753L168.281 105.774L168.397 105.784L168.512 105.779H168.628L168.744 105.753L168.86 105.758L168.976 105.789L169.091 105.774L169.207 105.8L169.323 105.795L169.439 105.8L169.554 105.795L169.67 105.763L169.786 105.769L169.902 105.795L170.018 105.789L170.133 105.805L170.249 105.8H170.365L170.481 105.789L170.597 105.763L170.712 105.784L170.828 105.774L170.944 105.805L171.06 105.795H171.176L171.291 105.8L171.407 105.795H171.523L171.639 105.8H171.755H171.87L171.986 105.789L172.102 105.8L172.218 105.784L172.334 105.805L172.449 105.815L172.565 105.81L172.681 105.789H172.797L172.913 105.784L173.028 105.789L173.144 105.795L173.26 105.8L173.376 105.784L173.491 105.774L173.607 105.795H173.723H173.839H173.955L174.07 105.8H174.186L174.302 105.789H174.418H174.534L174.649 105.779L174.765 105.774L174.881 105.763L174.997 105.753H175.113L175.228 105.732L175.344 105.743L175.46 105.732L175.576 105.727L175.692 105.706H175.807L175.923 105.717L176.039 105.665L176.155 105.659L176.271 105.613L176.386 105.623L176.502 105.639L176.618 105.685L176.734 105.644L176.849 105.67L176.965 105.644L177.081 105.696L177.197 105.675H177.313L177.428 105.691L177.544 105.717L177.66 105.784H177.776L177.892 105.763L178.007 105.779L178.123 105.789L178.239 105.795L178.355 105.789L178.471 105.795L178.586 105.779L178.702 105.784L178.818 105.795L178.934 105.8L179.05 105.795L179.165 105.789L179.281 105.795L179.397 105.8H179.513H179.629H179.744L179.86 105.789L179.976 105.795L180.092 105.789L180.207 105.779L180.323 105.795L180.439 105.784H180.555L180.671 105.789H180.786L180.902 105.779L181.018 105.784L181.134 105.789H181.25L181.365 105.795L181.481 105.789H181.597H181.713H181.829L181.944 105.784L182.06 105.789H182.176H182.292H182.408H182.523H182.639L182.755 105.784L182.871 105.789L182.987 105.795H183.102L183.218 105.779L183.334 105.795L183.45 105.789L183.565 105.774L183.681 105.732L183.797 105.805H183.913L184.029 105.758L184.144 105.779L184.26 105.795L184.376 105.789L184.492 105.8H184.608L184.723 105.795L184.839 105.8H184.955H185.071L185.187 105.805H185.302L185.418 105.81H185.534H185.65L185.766 105.805H185.881H185.997L186.113 105.81H186.229L186.345 105.805L186.46 105.8L186.576 105.789L186.692 105.8L186.808 105.81H186.924L187.039 105.815H187.155L187.271 105.81L187.387 105.815H187.502H187.618H187.734H187.85H187.966H188.081L188.197 105.81L188.313 105.815L188.429 105.821L188.545 105.815L188.66 105.821H188.776L188.892 105.815H189.008L189.124 105.81L189.239 105.815L189.355 105.805L189.471 105.815H189.587L189.703 105.81L189.818 105.795L189.934 105.805L190.05 105.815L190.166 105.81L190.282 105.805L190.397 105.81L190.513 105.815H190.629H190.745H190.86H190.976L191.092 105.821L191.208 105.815H191.324L191.439 105.81L191.555 105.815L191.671 105.805L191.787 105.81H191.903L192.018 105.805H192.134L192.25 105.789L192.366 105.779L192.482 105.769H192.597L192.713 105.789H192.829H192.945L193.061 105.784L193.176 105.753L193.292 105.758H193.408H193.524L193.64 105.737L193.755 105.758L193.871 105.769L193.987 105.763L194.103 105.758L194.218 105.784L194.334 105.789L194.45 105.774H194.566L194.682 105.763L194.797 105.717L194.913 105.769L195.029 105.779L195.145 105.8L195.261 105.795H195.376L195.492 105.789H195.608L195.724 105.784L195.84 105.779L195.955 105.784L196.071 105.748L196.187 105.758L196.303 105.795L196.419 105.774L196.534 105.472L196.65 105.452L196.766 105.8L196.882 105.805L196.998 105.748L197.113 105.795L197.229 105.81L197.345 105.784L197.461 105.795L197.576 105.815H197.692L197.808 105.805H197.924H198.04L198.155 105.81H198.271L198.387 105.815L198.503 105.821L198.619 105.815L198.734 105.81H198.85L198.966 105.805H199.082L199.198 105.815H199.313L199.429 105.784L199.545 105.795L199.661 105.8H199.777H199.892L200.008 105.81H200.124L200.24 105.805H200.356H200.471L200.587 105.779L200.703 105.8L200.819 105.784L200.934 105.795L201.05 105.784L201.166 105.779H201.282L201.398 105.774L201.513 105.779L201.629 105.784L201.745 105.774L201.861 105.779L201.977 105.784L202.092 105.737L202.208 105.706L202.324 105.769L202.44 105.779L202.556 105.774L202.671 105.753H202.787L202.903 105.737L203.019 105.711L203.135 105.717L203.25 105.743L203.366 105.67L203.482 105.717L203.598 105.691L203.714 105.633L203.829 105.566L203.945 105.665L204.061 105.691L204.177 105.659L204.292 105.597L204.408 105.623L204.524 105.592L204.64 105.524L204.756 105.628L204.871 105.706L204.987 105.654L205.103 105.602L205.219 105.613L205.335 105.576L205.45 105.571L205.566 105.618L205.682 105.587L205.798 105.633L205.914 105.607L206.029 105.592L206.145 105.628L206.261 105.623L206.377 105.607L206.493 105.581L206.608 105.556H206.724L206.84 105.561L206.956 104.069L207.072 103.866L207.187 105.571L207.303 105.623L207.419 105.649L207.535 105.524L207.651 105.545L207.766 105.524L207.882 105.566L207.998 105.545L208.114 105.613L208.229 105.618L208.345 105.53L208.461 105.498L208.577 105.478L208.693 105.514L208.808 105.54L208.924 105.571H209.04L209.156 105.556L209.272 105.478L209.387 105.488L209.503 105.53L209.619 105.509L209.735 105.571H209.851L209.966 105.519L210.082 105.535L210.198 105.436L210.314 105.472L210.43 105.545L210.545 105.571L210.661 105.592L210.777 105.467L210.893 105.519L211.009 105.457L211.124 105.415L211.24 105.41L211.356 105.441L211.472 105.405L211.587 105.311L211.703 105.249L211.819 105.228L211.935 105.108L212.051 105.145L212.166 105.025L212.282 105.077L212.398 104.874L212.514 105.129L212.63 105.056L212.745 105.072L212.861 104.978L212.977 105.036L213.093 104.849L213.209 104.963L213.324 105.098L213.44 105.14L213.556 105.103L213.672 104.958H213.788L213.903 104.854L214.019 104.37L214.135 104.292L214.251 102.951L214.367 102.156L214.482 102.743L214.598 104.006L214.714 104.313L214.83 104.225L214.945 104.017L215.061 103.98L215.177 104.188L215.293 103.845L215.409 104.365L215.524 104.672L215.64 104.443L215.756 104.391L215.872 104.62L215.988 104.568L216.103 104.547L216.219 104.417L216.335 102.618L216.451 102.405L216.567 98.8031L216.682 98.5068L216.798 100.498L216.914 102.691L217.03 102.203L217.146 104.064L217.261 104.344L217.377 104.49L217.493 104.256L217.609 103.487L217.725 103.767L217.84 104.256L217.956 104.157L218.072 103.034L218.188 103.294L218.303 103.72L218.419 99.6973L218.535 101.885L218.651 103.367L218.767 104.069L218.882 103.741L218.998 103.845L219.114 104.313L219.23 104.443L219.346 104.5L219.461 104.682L219.577 104.63L219.693 104.313L219.809 103.918L219.925 104.323L220.04 104.516L220.156 104.635L220.272 104.812L220.388 104.76L220.504 104.698L220.619 104.495L220.735 104.807L220.851 104.786L220.967 104.817L221.083 105.02L221.198 105.16L221.314 104.843L221.43 104.854L221.546 104.786L221.661 104.942L221.777 105.082L221.893 105.384L222.009 105.316L222.125 105.124L222.24 105.072L222.356 104.849L222.472 104.978L222.588 105.03L222.704 105.379L222.819 105.342L222.935 105.025L223.051 105.244L223.167 104.999L223.283 104.932L223.398 105.03L223.514 105.306L223.63 105.384L223.746 105.098L223.862 105.254L223.977 105.348L224.093 105.134L224.209 104.942L224.325 104.999L224.441 105.363L224.556 105.218L224.672 105.093L224.788 105.03L224.904 104.942L225.02 104.978L225.135 105.228L225.251 105.29L225.367 105.088L225.483 104.599L225.598 104.443L225.714 105.01L225.83 104.693L225.946 104.615L226.062 104.625L226.177 104.339L226.293 104.038L226.409 104.734L226.525 103.279L226.641 105.093L226.756 105.223L226.872 105.264L226.988 104.23L227.104 104.157L227.22 104.942L227.335 104.854L227.451 104.833L227.567 105.072L227.683 105.056L227.799 104.859L227.914 104.641L228.03 104.557L228.146 104.729L228.262 104.641L228.378 105.015L228.493 104.963L228.609 104.693L228.725 104.214L228.841 104.173L228.956 103.112L229.072 104.271L229.188 104.417L229.304 104.802L229.42 104.152L229.535 104.349L229.651 103.679L229.767 103.996L229.883 103.83L229.999 104.349L230.114 103.575L230.23 103.18L230.346 103.518L230.462 102.993L230.578 103.299L230.693 104.126L230.809 103.102L230.925 100.493L231.041 97.3008L231.157 100.861L231.272 101.059L231.388 100.638L231.504 100.363L231.62 101.969L231.736 102.088L231.851 97.1292L231.967 102.681L232.083 103.055L232.199 102.343L232.314 102.182L232.43 102.483L232.546 103.097L232.662 102.743L232.778 101.34L232.893 101.927L233.009 101.08L233.125 100.222L233.241 102.291L233.357 101.714L233.472 100.965L233.588 101.875L233.704 101.485L233.82 101.594L233.936 99.8168L234.051 100.768L234.167 100.228L234.283 99.193L234.399 97.5399L234.515 96.8225L234.63 93.9426L234.746 92.4402L234.862 95.8556L234.978 97.2748L235.094 94.0621L235.209 93.1212L235.325 94.2285L235.441 95.9076L235.557 95.4345L235.672 94.8991L235.788 96.7861L235.904 94.9511L236.02 95.6165L236.136 95.2682L236.251 94.6704L236.367 94.3637L236.483 94.005L236.599 96.6094L236.715 90.1009L236.83 85.8954L236.946 95.1434L237.062 97.6491L237.178 98.1221L237.294 99.874L237.409 99.848L237.525 99.4685L237.641 99.6609L237.757 99.1306L237.873 100.072L237.988 98.616L238.104 100.056L238.22 97.9038L238.336 97.3424L238.452 97.4567L238.567 97.883L238.683 98.0078L238.799 96.4326L238.915 95.8192L239.031 96.8849L239.146 95.2526L239.262 95.1486L239.378 94.3117L239.494 95.6633L239.609 96.6718L239.725 97.4879L239.841 97.5399L239.957 95.8348L240.073 97.1344L240.188 97.0409L240.304 96.9577L240.42 97.7218L240.536 99.0578L240.652 98.7615L240.767 97.0149L240.883 96.0843L240.999 93.4643L241.115 94.2389L241.231 93.9166L241.346 96.3547L241.462 97.8726L241.578 95.9544L241.694 95.8036L241.81 96.3495L241.925 97.7582L242.041 98.1481L242.157 99.1202L242.273 99.9052L242.389 98.7408L242.504 97.5347L242.62 95.9596L242.736 97.2436L242.852 93.1628L242.967 96.1571L243.083 94.1921L243.199 94.1297L243.315 88.9989L243.431 94.2025L243.546 95.393L243.662 96.651L243.778 100.586L243.894 101.366L244.01 100.68L244.125 100.072L244.241 99.0371L244.357 99.6245L244.473 100.638L244.589 100.586L244.704 101.672L244.82 98.4704L244.936 98.8343L245.052 99.1306L245.168 98.5796L245.283 98.3353L245.399 90.2413L245.515 91.4161L245.631 78.9607L245.747 70.1337L245.862 72.9929L245.978 85.8018L246.094 88.9053L246.21 94.3844L246.325 95.7464L246.441 95.315L246.557 95.6893L246.673 79.0906L246.789 93.6619L246.904 95.6945L247.02 100.924L247.136 94.0933L247.252 99.193L247.368 100.643L247.483 100.659L247.599 101.849L247.715 102.239L247.831 103.024L247.947 103.294L248.062 102.52L248.178 102.811L248.294 102.681L248.41 102.462L248.526 103.055L248.641 103.72L248.757 103.918L248.873 103.544L248.989 102.811L249.105 103.159L249.22 103.694L249.336 103.497L249.452 103.778L249.568 104.157L249.683 103.679L249.799 103.658L249.915 103.871L250.031 103.72L250.147 103.788L250.262 104.261L250.378 103.97L250.494 102.504L250.61 100.887L250.726 104.027L250.841 104.22L250.957 103.97L251.073 104.625L251.189 103.539L251.305 104.121L251.42 103.861L251.536 102.873L251.652 103.913L251.768 104.261L251.884 104.287L251.999 104.459L252.115 104.11L252.231 101.563L252.347 102.426L252.463 102.847L252.578 103.461L252.694 104.292L252.81 104.594L252.926 103.481L253.041 103.362L253.157 102.171L253.273 102.546L253.389 102.66L253.505 103.596L253.62 103.7L253.736 103.679L253.852 103.419L253.968 103.7L254.084 103.097L254.199 102.457L254.315 103.804L254.431 103.845L254.547 102.291L254.663 101.454L254.778 101.106L254.894 102.894L255.01 102.203L255.126 100.591L255.242 101.735L255.357 101.475L255.473 100.597L255.589 101.007L255.705 97.9246L255.821 99.2658L255.936 98.4704L256.052 98.616L256.168 97.1552L256.284 95.5593L256.399 96.8121L256.515 97.2124L256.631 95.9388L256.747 96.9681L256.863 94.1765L256.978 97.9246L257.094 98.6628L257.21 98.9747L257.326 97.6699L257.442 99.4633L257.557 100.181L257.673 100.165L257.789 96.6354L257.905 94.2233L258.021 91.5149L258.136 92.2115L258.252 85.282L258.368 90.9067L258.484 89.7474L258.6 88.5414L258.715 85.7966L258.831 81.2896L258.947 87.6785L259.063 78.5084L259.179 84.6686L259.294 84.8557L259.41 85.1624L259.526 77.0217L259.642 80.3123L259.758 81.2792L259.873 91.229L259.989 96.6146L260.105 96.1883L260.221 93.9842L260.336 93.2668L260.452 94.4156L260.568 91.6397L260.684 94.0881L260.8 96.9889L260.915 94.8107L261.031 93.6047L261.147 92.9601L261.263 95.9856L261.379 92.7937L261.494 95.7568L261.61 99.0475L261.726 94.9095L261.842 82.8959L261.958 93.4539L262.073 94.7171L262.189 89.3991L262.305 92.8977L262.421 95.2786L262.537 95.9076L262.652 89.4771L262.768 85.5211L262.884 84.9597L263 85.3963L263.116 87.0131L263.231 93.2876L263.347 92.3519L263.463 88.3906L263.579 91.8736L263.694 89.789L263.81 84.0188L263.926 81.721L264.042 91.1042L264.158 92.3571L264.273 84.3827L264.389 93.3136L264.505 91.7332L264.621 89.2484L264.737 90.9847L264.852 93.9322L264.968 92.9965L265.084 88.6142L265.2 85.4015L265.316 80.3071L265.431 77.5623L265.547 77.9938L265.663 79.1842L265.779 80.2655L265.895 78.9347L266.01 75.6493L266.126 78.0665L266.242 80.6294L266.358 82.0486L266.474 83.946L266.589 86.8415L266.705 81.5911L266.821 73.5699L266.937 76.3978L267.052 76.3511L267.168 78.6748L267.284 81.3884L267.4 84.3774L267.516 77.5103L267.631 81.3831L267.747 83.6133L267.863 82.4436L267.979 84.2527L268.095 85.204L268.21 87.1014L268.326 79.8652L268.442 81.4299L268.558 84.2527L268.674 83.4313L268.789 87.4237L268.905 84.523L269.021 83.3326L269.137 83.2494L269.253 77.843L269.368 79.2362L269.484 84.2111L269.6 86.2333L269.716 80.9413L269.832 89.763L269.947 86.2957L270.063 88.583L270.179 91.5045L270.295 91.3746L270.41 90.2881L270.526 92.1595L270.642 93.9166L270.758 91.7956L270.874 92.6534L270.989 90.678L271.105 87.299L271.221 89.8358L271.337 93.8594L271.453 94.3065L271.568 93.4175L271.684 93.7814L271.8 92.513L271.916 91.1198L272.032 93.849L272.147 93.927L272.263 95.8504L272.379 92.3882L272.495 89.3108L272.611 86.7843L272.726 88.9677L272.842 91.203L272.958 92.3051L273.074 88.1671L273.19 88.8013L273.305 84.5178L273.421 84.2631L273.537 86.3477L273.653 84.8973L273.768 89.789L273.884 83.2962L274 78.7164L274.116 81.6067L274.232 79.2206L274.347 84.2319L274.463 79.5013L274.579 86.0929L274.695 86.2749L274.811 85.7602L274.926 88.7026L275.042 89.29L275.158 86.3373L275.274 85.4431L275.39 88.9001L275.505 90.8911L275.621 90.3453L275.737 90.7611L275.853 90.3037L275.969 88.8585L276.084 89.8462L276.2 92.2219L276.316 91.1978L276.432 91.7436L276.548 86.9299L276.663 87.7408L276.779 90.652L276.895 91.5461L277.011 88.5622L277.126 95.6633L277.242 89.7734L277.358 93.5579L277.474 92.6066L277.59 91.3122L277.705 96.0895L277.821 96.7913L277.937 98.1377L278.053 97.4619L278.169 95.1226L278.284 94.66L278.4 95.6477L278.516 94.7847L278.632 97.0201L278.748 98.2469L278.863 95.1538L278.979 95.1434L279.095 94.2441L279.211 95.6321L279.327 97.7167L279.442 99.115L279.558 100.311L279.674 95.6841L279.79 97.727L279.906 98.6264L280.021 99.3386L280.137 100.035L280.253 101.022L280.369 99.9988L280.485 100.965L280.6 100.477L280.716 101.033L280.832 101.953L280.948 101.937L281.063 102.764L281.179 101.418L281.295 101.563L281.411 101.397L281.527 100.82L281.642 96.8589L281.758 97.6907L281.874 101.449L281.99 102.067L282.106 101.288L282.221 100.259L282.337 100.43L282.453 98.5432L282.569 99.0682L282.685 100.97L282.8 96.4326L282.916 92.3519L283.032 98.4548L283.148 97.5711L283.264 97.9818L283.379 95.4189L283.495 95.5437L283.611 95.5853L283.727 95.0135L283.843 83.8368L283.958 96.9577L284.074 95.0083L284.19 97.2176L284.306 100.004L284.421 99.219L284.537 99.0735L284.653 98.8967L284.769 98.4912L284.885 98.616L285 99.9156L285.116 100.191L285.232 101.381L285.348 100.248L285.464 100.03L285.579 96.2143L285.695 97.2228L285.811 98.1169L285.927 100.861L286.043 100.882L286.158 98.2469L286.274 99.5777L286.39 98.8187L286.506 98.6576L286.622 99.1722L286.737 100.087L286.853 1.85742L286.969 96.6354L287.085 97.5243L287.201 98.8551L287.316 98.0597L287.432 99.0578L287.548 101.563L287.664 102.473L287.779 99.5205L287.895 99.6817L288.011 92.9393L288.127 89.6851L288.243 99.7752L288.358 102.166L288.474 103.149L288.59 103.294L288.706 102.369L288.822 103.383L288.937 103.128L289.053 103.071L289.169 103.637L289.285 103.461L289.401 103.258L289.516 103.039L289.632 102.577L289.748 101.703L289.864 102.306L289.98 103.918L290.095 103.876L290.211 102.494L290.327 101.251L290.443 101.069L290.559 100.617L290.674 100.701L290.79 100.882L290.906 101.002L291.022 101.236L291.138 100.861L291.253 99.8272L291.369 99.9208L291.485 101.511L291.601 102.982L291.716 103.367L291.832 100.867L291.948 102.416L292.064 102.041L292.18 103.83L292.295 103.856L292.411 103.393L292.527 104.142L292.643 104.287L292.759 103.793L292.874 104.105L292.99 103.18L293.106 103.476L293.222 103.705L293.338 103.679L293.453 103.143L293.569 103.388L293.685 103.029L293.801 103.346L293.917 104.188L294.032 104.978L294.148 104.843L294.264 104.495L294.38 104.235L294.496 104.053L294.611 103.71L294.727 104.261L294.843 104.287L294.959 104.745L295.074 104.251L295.19 104.542L295.306 104.225L295.422 103.876L295.538 104.043L295.653 104.339L295.769 104.464L295.885 103.497L296.001 103.466L296.117 103.642L296.232 104.199L296.348 104.594L296.464 104.745L296.58 104.89L296.696 104.526L296.811 104.682L296.927 104.142L297.043 103.783L297.159 104.412L297.275 104.978L297.39 105.015L297.506 104.36L297.622 104.641L297.738 104.823L297.854 104.932L297.969 104.568L298.085 105.004L298.201 104.958L298.317 104.235L298.432 104.168L298.548 103.227L298.664 103.559L298.78 104.053L298.896 104.651L299.011 104.599L299.127 103.83L299.243 104.537H299.359L299.475 104.583L299.59 104.303L299.706 104.843L299.822 105.088L299.938 104.521L300.054 104.583L300.169 104.635L300.285 104.417L300.401 104.609L300.517 105.062L300.633 105.082L300.748 104.469L300.864 104.183L300.98 103.939L301.096 104.162L301.212 104.641L301.327 105.103L301.443 105.072L301.559 104.843L301.675 104.464L301.79 104.027L301.906 103.908L302.022 103.96L302.138 104.583L302.254 104.776L302.369 104.245L302.485 104.24L302.601 104.672L302.717 104.469L302.833 105.041L302.948 105.306L303.064 105.15L303.18 104.942L303.296 104.88L303.412 104.755L303.527 104.968L303.643 105.036L303.759 105.296L303.875 105.181L303.991 104.838L304.106 104.547L304.222 104.573L304.338 104.677L304.454 104.708L304.57 105.15L304.685 105.353L304.801 104.854L304.917 104.734L305.033 104.62L305.148 104.89L305.264 104.989L305.38 104.526L305.496 103.694L305.612 103.429L305.727 103.996L305.843 104.355L305.959 104.157L306.075 104.453L306.191 104.542L306.306 104.583L306.422 104.053L306.538 103.918L306.654 103.819L306.77 103.632L306.885 103.59L307.001 104.23L307.117 104.578L307.233 104.235L307.349 103.928L307.464 104.058L307.58 104.407L307.696 104.22L307.812 104.438L307.928 104.88L308.043 103.892L308.159 104.417L308.275 104.178L308.391 103.549L308.506 103.824L308.622 104.427L308.738 104.521L308.854 104.183L308.97 102.306L309.085 102.691L309.201 103.091L309.317 103.98L309.433 104.526L309.549 104.693L309.664 104.495L309.78 104.433L309.896 104.578L310.012 104.625L310.128 104.672L310.243 104.776L310.359 104.817L310.475 104.786L310.591 104.62L310.707 104.76L310.822 104.849L310.938 104.963L311.054 104.937L311.17 104.921L311.286 104.838L311.401 104.932L311.517 104.734L311.633 104.724L311.749 104.797L311.865 104.849L311.98 104.838L312.096 104.698L312.212 104.635L312.328 104.427L312.443 104.438L312.559 104.615L312.675 104.729L312.791 104.677L312.907 104.682L313.022 104.459L313.138 104.583L313.254 104.521L313.37 104.568L313.486 104.797L313.601 104.693L313.717 104.724L313.833 104.557L313.949 104.677L314.065 104.661L314.18 104.802L314.296 104.869L314.412 104.802L314.528 104.828L314.644 104.682L314.759 104.568L314.875 104.5L314.991 104.453L315.107 104.438L315.223 104.334L315.338 104.438L315.454 104.334L315.57 103.866L315.686 104.386L315.801 104.23L315.917 104.531L316.033 104.568L316.149 104.105L316.265 104.157L316.38 104.053L316.496 104.012L316.612 103.71L316.728 103.668L316.844 103.923L316.959 103.627L317.075 103.622L317.191 103.518" stroke="#CED4DA" stroke-width="0.657692" stroke-linecap="round" stroke-linejoin="round"/>
</g>
</g>
</g>
<defs>
<clipPath id="clip0_190_25453">
<rect width="318" height="106" fill="white" transform="translate(0.191406 0.857422)"/>
</clipPath>
<clipPath id="clip1_190_25453">
<rect width="318" height="106" fill="white" transform="translate(0.191406 0.857422)"/>
</clipPath>
<clipPath id="clip2_190_25453">
<rect width="318" height="106" fill="white" transform="translate(0.191406 0.857422)"/>
</clipPath>
</defs>
</svg>
