<svg width="53" height="52" viewBox="0 0 53 52" fill="none" xmlns="http://www.w3.org/2000/svg">
<rect x="0.09375" y="0.00976562" width="52" height="52" rx="26" fill="#2583D5"/>
<path d="M29.5693 14.1162C30.1553 14.3799 30.3896 14.8193 30.2725 15.4346L23.9443 35.8252C23.71 36.4111 23.2705 36.6455 22.626 36.5283C22.04 36.2939 21.8057 35.8545 21.9229 35.21L28.251 14.8193C28.5146 14.2334 28.9541 13.999 29.5693 14.1162ZM32.7334 19.3457C33.2021 18.9062 33.6855 18.8916 34.1836 19.3018L39.8086 24.5752C40.043 24.7803 40.1602 25.0293 40.1602 25.3223C40.1602 25.6152 40.043 25.8789 39.8086 26.1133L34.1836 31.3867C33.6855 31.7676 33.2021 31.7383 32.7334 31.2988C32.3232 30.8008 32.3379 30.3174 32.7773 29.8486L37.5674 25.3223L32.7773 20.8398C32.3379 20.3418 32.3232 19.8438 32.7334 19.3457ZM19.5059 19.3457C19.8867 19.8438 19.8574 20.3418 19.418 20.8398L14.6279 25.3223L19.418 29.8486C19.8574 30.3174 19.8867 30.8008 19.5059 31.2988C19.0078 31.7383 18.5098 31.7676 18.0117 31.3867L12.3867 26.1133C12.1523 25.8789 12.0352 25.6152 12.0352 25.3223C12.0352 25.0293 12.1523 24.7803 12.3867 24.5752L18.0117 19.3018C18.5098 18.8916 19.0078 18.9062 19.5059 19.3457Z" fill="#FAFAFA"/>
</svg>
