<svg width="629" height="451" viewBox="0 0 629 451" fill="none" xmlns="http://www.w3.org/2000/svg">
<rect x="0.421875" y="0.707031" width="628" height="450" rx="12" fill="#050505"/>
<path d="M241.439 133.844H254.468V173.865C254.468 178.359 253.395 182.291 251.249 185.661C249.122 189.031 246.143 191.659 242.311 193.545C238.48 195.411 234.016 196.343 228.921 196.343C223.805 196.343 219.332 195.411 215.5 193.545C211.669 191.659 208.689 189.031 206.563 185.661C204.437 182.291 203.373 178.359 203.373 173.865V133.844H216.403V172.752C216.403 175.099 216.914 177.185 217.938 179.011C218.981 180.836 220.445 182.271 222.331 183.314C224.217 184.357 226.413 184.879 228.921 184.879C231.448 184.879 233.645 184.357 235.511 183.314C237.397 182.271 238.851 180.836 239.874 179.011C240.917 177.185 241.439 175.099 241.439 172.752V133.844ZM298.62 151.568C298.379 149.14 297.346 147.255 295.52 145.91C293.695 144.566 291.217 143.894 288.088 143.894C285.961 143.894 284.166 144.195 282.701 144.797C281.237 145.379 280.114 146.191 279.331 147.234C278.569 148.278 278.188 149.461 278.188 150.785C278.148 151.889 278.378 152.851 278.88 153.674C279.401 154.496 280.114 155.209 281.016 155.81C281.919 156.392 282.962 156.904 284.146 157.345C285.329 157.766 286.593 158.127 287.937 158.428L293.474 159.752C296.162 160.354 298.63 161.157 300.876 162.16C303.123 163.163 305.069 164.396 306.714 165.861C308.359 167.325 309.633 169.051 310.536 171.037C311.459 173.023 311.93 175.3 311.95 177.867C311.93 181.639 310.967 184.909 309.061 187.677C307.176 190.425 304.447 192.562 300.876 194.087C297.326 195.591 293.043 196.343 288.028 196.343C283.052 196.343 278.719 195.581 275.028 194.056C271.357 192.532 268.488 190.275 266.422 187.286C264.376 184.277 263.303 180.555 263.202 176.122H275.81C275.951 178.188 276.543 179.914 277.586 181.298C278.649 182.662 280.063 183.695 281.829 184.397C283.614 185.079 285.63 185.42 287.877 185.42C290.084 185.42 292 185.099 293.624 184.457C295.269 183.815 296.543 182.923 297.446 181.779C298.349 180.636 298.8 179.322 298.8 177.837C298.8 176.453 298.389 175.29 297.566 174.347C296.764 173.404 295.58 172.601 294.016 171.939C292.471 171.277 290.575 170.676 288.328 170.134L281.618 168.449C276.422 167.185 272.32 165.209 269.311 162.521C266.302 159.833 264.807 156.212 264.827 151.658C264.807 147.927 265.8 144.667 267.806 141.878C269.832 139.09 272.611 136.913 276.141 135.348C279.672 133.784 283.684 133.001 288.178 133.001C292.752 133.001 296.744 133.784 300.154 135.348C303.585 136.913 306.253 139.09 308.159 141.878C310.064 144.667 311.047 147.896 311.107 151.568H298.62ZM342.56 195.471H320.714V133.844H342.741C348.94 133.844 354.276 135.078 358.749 137.545C363.223 139.993 366.663 143.513 369.071 148.107C371.498 152.701 372.712 158.198 372.712 164.597C372.712 171.017 371.498 176.533 369.071 181.147C366.663 185.761 363.203 189.302 358.689 191.769C354.196 194.237 348.819 195.471 342.56 195.471ZM333.744 184.307H342.019C345.87 184.307 349.11 183.625 351.738 182.261C354.386 180.876 356.372 178.74 357.696 175.851C359.04 172.942 359.712 169.191 359.712 164.597C359.712 160.043 359.04 156.322 357.696 153.433C356.372 150.544 354.396 148.418 351.768 147.054C349.14 145.69 345.9 145.008 342.049 145.008H333.744V184.307ZM377.203 144.586V133.844H427.816V144.586H408.949V195.471H396.07V144.586H377.203Z" fill="#2CAFFE"/>
<path d="M392.613 310.34L376.743 254.876H389.553L398.734 293.414H399.194L409.323 254.876H420.291L430.393 293.495H430.88L440.061 254.876H452.871L437.001 310.34H425.572L415.01 274.077H414.577L404.042 310.34H392.613ZM459.147 310.34V254.876H496.521V264.544H470.874V277.76H494.598V287.428H470.874V300.672H496.629V310.34H459.147ZM503.731 264.544V254.876H549.283V264.544H532.303V310.34H520.712V264.544H503.731ZM556.785 310.34V254.876H568.512V277.76H592.317V254.876H604.016V310.34H592.317V287.428H568.512V310.34H556.785Z" fill="#544FC5"/>
<path d="M190.302 257.275H200.726V289.292C200.726 292.887 199.867 296.032 198.15 298.728C196.449 301.425 194.066 303.527 191.001 305.036C187.935 306.528 184.364 307.274 180.288 307.274C176.196 307.274 172.617 306.528 169.552 305.036C166.486 303.527 164.103 301.425 162.402 298.728C160.701 296.032 159.85 292.887 159.85 289.292V257.275H170.274V288.401C170.274 290.279 170.683 291.948 171.501 293.408C172.336 294.869 173.508 296.016 175.016 296.851C176.525 297.685 178.282 298.102 180.288 298.102C182.31 298.102 184.068 297.685 185.56 296.851C187.069 296.016 188.232 294.869 189.051 293.408C189.885 291.948 190.302 290.279 190.302 288.401V257.275ZM236.047 271.454C235.855 269.512 235.028 268.003 233.568 266.928C232.107 265.853 230.125 265.315 227.622 265.315C225.92 265.315 224.484 265.556 223.313 266.037C222.141 266.503 221.242 267.153 220.616 267.987C220.006 268.822 219.702 269.769 219.702 270.828C219.669 271.71 219.854 272.481 220.255 273.139C220.673 273.797 221.242 274.367 221.964 274.848C222.687 275.313 223.521 275.723 224.468 276.076C225.415 276.413 226.426 276.702 227.501 276.942L231.931 278.002C234.081 278.483 236.055 279.125 237.853 279.927C239.65 280.73 241.207 281.717 242.523 282.888C243.839 284.06 244.858 285.44 245.58 287.029C246.318 288.618 246.695 290.439 246.711 292.493C246.695 295.511 245.925 298.127 244.4 300.341C242.892 302.54 240.709 304.249 237.853 305.469C235.012 306.672 231.586 307.274 227.573 307.274C223.593 307.274 220.127 306.664 217.174 305.445C214.237 304.225 211.942 302.42 210.289 300.028C208.652 297.621 207.793 294.644 207.713 291.097H217.8C217.912 292.75 218.386 294.13 219.22 295.238C220.071 296.329 221.202 297.156 222.614 297.717C224.043 298.263 225.656 298.536 227.453 298.536C229.218 298.536 230.751 298.279 232.051 297.765C233.367 297.252 234.386 296.538 235.108 295.623C235.83 294.708 236.192 293.657 236.192 292.469C236.192 291.362 235.863 290.431 235.205 289.677C234.563 288.923 233.616 288.281 232.364 287.751C231.128 287.221 229.612 286.74 227.814 286.307L222.446 284.959C218.289 283.948 215.007 282.367 212.6 280.216C210.193 278.066 208.997 275.169 209.013 271.526C208.997 268.541 209.792 265.933 211.396 263.702C213.017 261.471 215.24 259.73 218.065 258.478C220.889 257.227 224.099 256.601 227.694 256.601C231.353 256.601 234.547 257.227 237.275 258.478C240.019 259.73 242.154 261.471 243.678 263.702C245.203 265.933 245.989 268.517 246.037 271.454H236.047ZM271.2 306.576H253.723V257.275H271.344C276.303 257.275 280.572 258.262 284.151 260.236C287.73 262.194 290.482 265.01 292.408 268.685C294.35 272.36 295.321 276.758 295.321 281.877C295.321 287.013 294.35 291.426 292.408 295.117C290.482 298.809 287.714 301.641 284.103 303.615C280.508 305.589 276.207 306.576 271.2 306.576ZM264.146 297.645H270.766C273.848 297.645 276.44 297.099 278.542 296.008C280.66 294.901 282.249 293.192 283.308 290.881C284.384 288.554 284.921 285.552 284.921 281.877C284.921 278.234 284.384 275.257 283.308 272.946C282.249 270.635 280.668 268.934 278.566 267.843C276.464 266.751 273.872 266.206 270.79 266.206H264.146V297.645ZM346.542 274.535H335.998C335.806 273.171 335.412 271.959 334.819 270.9C334.225 269.825 333.462 268.91 332.532 268.156C331.601 267.401 330.526 266.824 329.306 266.422C328.102 266.021 326.794 265.821 325.382 265.821C322.83 265.821 320.607 266.455 318.714 267.722C316.82 268.974 315.352 270.804 314.308 273.211C313.265 275.602 312.744 278.507 312.744 281.925C312.744 285.44 313.265 288.393 314.308 290.784C315.368 293.176 316.844 294.981 318.738 296.201C320.632 297.42 322.822 298.03 325.31 298.03C326.706 298.03 327.998 297.846 329.185 297.477C330.389 297.107 331.456 296.57 332.387 295.864C333.318 295.142 334.088 294.267 334.698 293.24C335.324 292.213 335.757 291.041 335.998 289.725L346.542 289.773C346.269 292.036 345.587 294.219 344.496 296.321C343.421 298.407 341.968 300.277 340.139 301.93C338.325 303.567 336.159 304.867 333.639 305.83C331.135 306.777 328.303 307.25 325.141 307.25C320.744 307.25 316.812 306.255 313.345 304.265C309.895 302.275 307.167 299.394 305.161 295.623C303.171 291.852 302.176 287.286 302.176 281.925C302.176 276.549 303.187 271.975 305.209 268.204C307.231 264.432 309.975 261.56 313.442 259.586C316.908 257.596 320.808 256.601 325.141 256.601C327.998 256.601 330.646 257.002 333.085 257.804C335.541 258.607 337.715 259.778 339.609 261.319C341.503 262.844 343.043 264.713 344.231 266.928C345.435 269.143 346.205 271.678 346.542 274.535Z" fill="#00E272"/>
<path d="M97.3755 47.8319H106.496V75.8469C106.496 78.9924 105.745 81.7447 104.242 84.1039C102.754 86.463 100.669 88.3026 97.9864 89.6226C95.3043 90.9286 92.1798 91.5816 88.613 91.5816C85.0321 91.5816 81.9006 90.9286 79.2185 89.6226C76.5364 88.3026 74.451 86.463 72.9625 84.1039C71.474 81.7447 70.7298 78.9924 70.7298 75.8469V47.8319H79.8504V75.0675C79.8504 76.7105 80.2085 78.1709 80.9247 79.4488C81.6549 80.7266 82.68 81.7307 84 82.4609C85.32 83.1911 86.8576 83.5562 88.613 83.5562C90.3823 83.5562 91.92 83.1911 93.226 82.4609C94.546 81.7307 95.564 80.7266 96.2802 79.4488C97.0104 78.1709 97.3755 76.7105 97.3755 75.0675V47.8319ZM137.402 60.2385C137.234 58.5394 136.51 57.2194 135.233 56.2785C133.955 55.3377 132.22 54.8672 130.03 54.8672C128.541 54.8672 127.284 55.0779 126.259 55.4992C125.234 55.9064 124.448 56.4751 123.9 57.2053C123.367 57.9355 123.1 58.7641 123.1 59.6909C123.072 60.4632 123.233 61.1373 123.584 61.713C123.949 62.2887 124.448 62.7873 125.08 63.2085C125.712 63.6158 126.442 63.9739 127.27 64.2828C128.099 64.5777 128.984 64.8305 129.924 65.0411L133.8 65.9679C135.682 66.3892 137.409 66.9509 138.982 67.653C140.555 68.3551 141.917 69.2188 143.068 70.2439C144.22 71.269 145.112 72.4766 145.743 73.8668C146.389 75.2571 146.719 76.8509 146.733 78.6483C146.719 81.2883 146.045 83.5773 144.711 85.5152C143.391 87.439 141.482 88.9345 138.982 90.0018C136.496 91.055 133.498 91.5816 129.988 91.5816C126.505 91.5816 123.472 91.0479 120.888 89.9807C118.318 88.9135 116.31 87.3337 114.864 85.2413C113.431 83.1349 112.68 80.53 112.61 77.4266H121.436C121.534 78.873 121.948 80.0807 122.678 81.0496C123.423 82.0045 124.413 82.7277 125.649 83.2192C126.898 83.6966 128.31 83.9354 129.882 83.9354C131.427 83.9354 132.768 83.7107 133.906 83.2613C135.057 82.812 135.949 82.1871 136.581 81.3866C137.213 80.5862 137.529 79.6664 137.529 78.6273C137.529 77.6583 137.241 76.8439 136.665 76.1839C136.103 75.5239 135.275 74.9622 134.179 74.4988C133.098 74.0354 131.771 73.6141 130.198 73.2349L125.501 72.0554C121.864 71.1707 118.992 69.7875 116.886 67.9058C114.78 66.0241 113.733 63.4894 113.747 60.3017C113.733 57.6898 114.428 55.4079 115.833 53.456C117.251 51.5041 119.196 49.9804 121.667 48.8851C124.139 47.7898 126.947 47.2421 130.093 47.2421C133.295 47.2421 136.089 47.7898 138.476 48.8851C140.878 49.9804 142.745 51.5041 144.079 53.456C145.413 55.4079 146.102 57.6687 146.144 60.2385H137.402ZM168.161 90.9707H152.868V47.8319H168.287C172.626 47.8319 176.361 48.6955 179.493 50.4228C182.624 52.136 185.033 54.6004 186.718 57.8162C188.417 61.0319 189.267 64.8796 189.267 69.3592C189.267 73.8528 188.417 77.7145 186.718 80.9443C185.033 84.1741 182.61 86.6526 179.451 88.3798C176.305 90.1071 172.542 90.9707 168.161 90.9707ZM161.989 83.156H167.781C170.478 83.156 172.746 82.6786 174.585 81.7237C176.439 80.7547 177.829 79.2592 178.756 77.2371C179.697 75.2009 180.167 72.5749 180.167 69.3592C180.167 66.1715 179.697 63.5666 178.756 61.5445C177.829 59.5224 176.446 58.0338 174.606 57.079C172.767 56.1241 170.499 55.6466 167.803 55.6466H161.989V83.156ZM194.38 55.3517V47.8319H229.809V55.3517H216.602V90.9707H207.587V55.3517H194.38Z" fill="#FE6A35"/>
<path d="M282.778 61.9419H290.596V85.9547C290.596 88.6508 289.952 91.01 288.664 93.0321C287.388 95.0543 285.6 96.631 283.301 97.7625C281.002 98.8819 278.324 99.4416 275.267 99.4416C272.198 99.4416 269.514 98.8819 267.215 97.7625C264.916 96.631 263.128 95.0543 261.852 93.0321C260.577 91.01 259.939 88.6508 259.939 85.9547V61.9419H267.756V85.2866C267.756 86.6949 268.063 87.9467 268.677 89.042C269.303 90.1373 270.182 90.998 271.313 91.6239C272.444 92.2498 273.762 92.5627 275.267 92.5627C276.784 92.5627 278.102 92.2498 279.221 91.6239C280.352 90.998 281.225 90.1373 281.839 89.042C282.465 87.9467 282.778 86.6949 282.778 85.2866V61.9419ZM317.086 72.5761C316.942 71.1197 316.322 69.9883 315.227 69.1818C314.131 68.3754 312.645 67.9721 310.767 67.9721C309.491 67.9721 308.414 68.1527 307.535 68.5138C306.657 68.8628 305.983 69.3503 305.513 69.9762C305.056 70.6021 304.827 71.3123 304.827 72.1067C304.803 72.7687 304.942 73.3464 305.242 73.8399C305.555 74.3334 305.983 74.7607 306.524 75.1218C307.066 75.4709 307.692 75.7778 308.402 76.0426C309.112 76.2954 309.87 76.512 310.677 76.6926L313.999 77.487C315.612 77.8481 317.092 78.3295 318.44 78.9314C319.789 79.5332 320.956 80.2734 321.943 81.1521C322.93 82.0308 323.694 83.0659 324.236 84.2575C324.79 85.4491 325.073 86.8153 325.085 88.3559C325.073 90.6188 324.495 92.5808 323.351 94.2418C322.22 95.8908 320.583 97.1727 318.44 98.0875C316.31 98.9902 313.74 99.4416 310.731 99.4416C307.746 99.4416 305.146 98.9842 302.931 98.0694C300.729 97.1546 299.008 95.8005 297.768 94.0071C296.54 92.2016 295.896 89.9688 295.836 87.3088H303.401C303.485 88.5485 303.84 89.5837 304.466 90.4142C305.104 91.2327 305.953 91.8525 307.012 92.2738C308.083 92.6831 309.293 92.8877 310.641 92.8877C311.965 92.8877 313.114 92.6951 314.089 92.3099C315.076 91.9248 315.841 91.3891 316.382 90.7031C316.924 90.017 317.195 89.2286 317.195 88.3379C317.195 87.5074 316.948 86.8093 316.454 86.2435C315.973 85.6778 315.263 85.1964 314.324 84.7992C313.397 84.402 312.26 84.0409 310.912 83.7159L306.885 82.7048C303.768 81.9465 301.306 80.7609 299.501 79.148C297.696 77.5351 296.799 75.3626 296.811 72.6303C296.799 70.3915 297.395 68.4356 298.598 66.7625C299.814 65.0894 301.481 63.7834 303.599 62.8446C305.718 61.9058 308.125 61.4363 310.821 61.4363C313.566 61.4363 315.961 61.9058 318.007 62.8446C320.065 63.7834 321.666 65.0894 322.81 66.7625C323.953 68.4356 324.543 70.3734 324.579 72.5761H317.086ZM343.451 98.918H330.343V61.9419H343.559C347.278 61.9419 350.48 62.6821 353.164 64.1626C355.848 65.631 357.913 67.7435 359.357 70.4998C360.813 73.2562 361.542 76.5542 361.542 80.3938C361.542 84.2455 360.813 87.5555 359.357 90.3239C357.913 93.0923 355.836 95.2167 353.128 96.6972C350.432 98.1777 347.206 98.918 343.451 98.918ZM338.161 92.2197H343.126C345.437 92.2197 347.381 91.8104 348.957 90.9919C350.546 90.1614 351.738 88.8795 352.532 87.1463C353.339 85.401 353.742 83.1502 353.742 80.3938C353.742 77.6615 353.339 75.4288 352.532 73.6955C351.738 71.9622 350.552 70.6864 348.976 69.8679C347.399 69.0494 345.455 68.6402 343.144 68.6402H338.161V92.2197ZM365.924 68.3874V61.9419H396.292V68.3874H384.972V98.918H377.245V68.3874H365.924Z" fill="#6B8ABC"/>
<path d="M433.44 64.3409H439.955V84.3515C439.955 86.5984 439.418 88.5643 438.345 90.2494C437.282 91.9345 435.792 93.2485 433.876 94.1914C431.961 95.1242 429.729 95.5906 427.181 95.5906C424.623 95.5906 422.386 95.1242 420.471 94.1914C418.555 93.2485 417.065 91.9345 416.002 90.2494C414.939 88.5643 414.407 86.5984 414.407 84.3515V64.3409H420.922V83.7949C420.922 84.9684 421.178 86.0116 421.689 86.9243C422.211 87.8371 422.943 88.5543 423.886 89.0759C424.829 89.5974 425.927 89.8582 427.181 89.8582C428.445 89.8582 429.543 89.5974 430.476 89.0759C431.419 88.5543 432.146 87.8371 432.658 86.9243C433.179 86.0116 433.44 84.9684 433.44 83.7949V64.3409ZM462.03 73.2027C461.91 71.9891 461.393 71.0462 460.481 70.3742C459.568 69.7021 458.329 69.3661 456.764 69.3661C455.701 69.3661 454.804 69.5166 454.071 69.8175C453.339 70.1084 452.777 70.5146 452.386 71.0362C452.005 71.5578 451.814 72.1496 451.814 72.8116C451.794 73.3632 451.91 73.8447 452.16 74.2559C452.421 74.6672 452.777 75.0233 453.229 75.3242C453.68 75.6151 454.202 75.8708 454.793 76.0915C455.385 76.3021 456.017 76.4827 456.689 76.6331L459.458 77.2952C460.802 77.5961 462.035 77.9973 463.159 78.4988C464.282 79.0003 465.255 79.6172 466.078 80.3494C466.9 81.0816 467.537 81.9442 467.988 82.9373C468.45 83.9303 468.686 85.0687 468.696 86.3526C468.686 88.2383 468.204 89.8733 467.251 91.2575C466.308 92.6316 464.944 93.6999 463.159 94.4622C461.383 95.2145 459.242 95.5906 456.734 95.5906C454.247 95.5906 452.08 95.2095 450.235 94.4472C448.399 93.6848 446.965 92.5564 445.932 91.0619C444.909 89.5573 444.372 87.6967 444.322 85.48H450.626C450.696 86.5131 450.992 87.3757 451.514 88.0678C452.045 88.7499 452.752 89.2664 453.635 89.6175C454.528 89.9585 455.536 90.1291 456.659 90.1291C457.762 90.1291 458.72 89.9686 459.533 89.6476C460.355 89.3266 460.992 88.8803 461.444 88.3085C461.895 87.7368 462.121 87.0798 462.121 86.3376C462.121 85.6455 461.915 85.0637 461.504 84.5923C461.103 84.1208 460.511 83.7196 459.728 83.3886C458.956 83.0576 458.008 82.7567 456.885 82.4859L453.53 81.6433C450.932 81.0114 448.881 80.0234 447.376 78.6793C445.871 77.3353 445.124 75.5248 445.134 73.2479C445.124 71.3822 445.621 69.7523 446.624 68.3581C447.637 66.9638 449.026 65.8755 450.791 65.0932C452.557 64.3108 454.563 63.9196 456.81 63.9196C459.097 63.9196 461.093 64.3108 462.798 65.0932C464.513 65.8755 465.847 66.9638 466.8 68.3581C467.753 69.7523 468.244 71.3672 468.274 73.2027H462.03ZM484.001 95.1543H473.078V64.3409H484.091C487.19 64.3409 489.859 64.9577 492.095 66.1915C494.332 67.4152 496.052 69.1755 497.256 71.4725C498.47 73.7695 499.076 76.5178 499.076 79.7175C499.076 82.9272 498.47 85.6856 497.256 87.9926C496.052 90.2996 494.322 92.0699 492.065 93.3037C489.818 94.5374 487.13 95.1543 484.001 95.1543ZM479.592 89.5724H483.73C485.656 89.5724 487.276 89.2313 488.59 88.5493C489.914 87.8572 490.907 86.7889 491.569 85.3446C492.241 83.8901 492.577 82.0145 492.577 79.7175C492.577 77.4406 492.241 75.58 491.569 74.1356C490.907 72.6912 489.919 71.628 488.605 70.9459C487.291 70.2638 485.671 69.9228 483.745 69.9228H479.592V89.5724ZM531.09 75.1286H524.5C524.379 74.276 524.134 73.5187 523.763 72.8567C523.391 72.1847 522.915 71.6129 522.333 71.1415C521.751 70.6701 521.079 70.309 520.317 70.0582C519.565 69.8075 518.747 69.6821 517.865 69.6821C516.27 69.6821 514.881 70.0783 513.697 70.8707C512.513 71.653 511.596 72.7965 510.944 74.3011C510.292 75.7956 509.966 77.6111 509.966 79.7476C509.966 81.9442 510.292 83.7898 510.944 85.2844C511.606 86.7789 512.529 87.9073 513.712 88.6696C514.896 89.4319 516.265 89.8131 517.82 89.8131C518.692 89.8131 519.5 89.6978 520.242 89.4671C520.994 89.2364 521.661 88.9003 522.243 88.459C522.825 88.0076 523.306 87.461 523.687 86.819C524.079 86.1771 524.349 85.4449 524.5 84.6224L531.09 84.6525C530.919 86.0667 530.493 87.4309 529.811 88.7449C529.139 90.0488 528.231 91.2174 527.088 92.2505C525.954 93.2736 524.6 94.0861 523.025 94.6879C521.461 95.2797 519.69 95.5756 517.714 95.5756C514.966 95.5756 512.508 94.9537 510.342 93.7099C508.185 92.4661 506.48 90.6657 505.226 88.3085C503.983 85.9514 503.361 83.0977 503.361 79.7476C503.361 76.3874 503.993 73.5287 505.256 71.1716C506.52 68.8144 508.235 67.019 510.402 65.7853C512.569 64.5415 515.006 63.9196 517.714 63.9196C519.5 63.9196 521.155 64.1704 522.679 64.6719C524.214 65.1734 525.573 65.9056 526.757 66.8685C527.94 67.8214 528.903 68.99 529.645 70.3742C530.398 71.7584 530.879 73.3432 531.09 75.1286Z" fill="#D568FB"/>
<path d="M470.192 138.767H475.404V154.776C475.404 156.573 474.974 158.146 474.116 159.494C473.265 160.842 472.073 161.893 470.541 162.648C469.008 163.394 467.223 163.767 465.185 163.767C463.138 163.767 461.349 163.394 459.816 162.648C458.284 161.893 457.092 160.842 456.241 159.494C455.391 158.146 454.966 156.573 454.966 154.776V138.767H460.177V154.33C460.177 155.269 460.382 156.104 460.791 156.834C461.208 157.564 461.794 158.138 462.549 158.555C463.303 158.972 464.181 159.181 465.185 159.181C466.196 159.181 467.074 158.972 467.821 158.555C468.575 158.138 469.157 157.564 469.566 156.834C469.983 156.104 470.192 155.269 470.192 154.33V138.767ZM493.064 145.857C492.968 144.886 492.555 144.131 491.824 143.594C491.094 143.056 490.103 142.787 488.851 142.787C488.001 142.787 487.283 142.908 486.697 143.149C486.111 143.381 485.662 143.706 485.349 144.123C485.044 144.541 484.891 145.014 484.891 145.544C484.875 145.985 484.968 146.37 485.168 146.699C485.377 147.028 485.662 147.313 486.023 147.554C486.384 147.787 486.801 147.991 487.275 148.168C487.748 148.336 488.253 148.481 488.791 148.601L491.006 149.131C492.081 149.371 493.068 149.692 493.967 150.094C494.866 150.495 495.644 150.988 496.302 151.574C496.96 152.16 497.469 152.85 497.831 153.644C498.2 154.439 498.388 155.35 498.396 156.377C498.388 157.885 498.003 159.193 497.241 160.301C496.486 161.4 495.395 162.254 493.967 162.864C492.546 163.466 490.833 163.767 488.827 163.767C486.837 163.767 485.104 163.462 483.627 162.852C482.159 162.242 481.012 161.34 480.185 160.144C479.367 158.94 478.937 157.452 478.897 155.679H483.94C483.997 156.505 484.233 157.195 484.651 157.749C485.076 158.294 485.642 158.708 486.348 158.989C487.062 159.261 487.868 159.398 488.767 159.398C489.65 159.398 490.416 159.269 491.066 159.013C491.724 158.756 492.234 158.399 492.595 157.941C492.956 157.484 493.136 156.958 493.136 156.365C493.136 155.811 492.972 155.345 492.643 154.968C492.322 154.591 491.848 154.27 491.222 154.005C490.605 153.741 489.846 153.5 488.948 153.283L486.263 152.609C484.185 152.104 482.544 151.313 481.341 150.238C480.137 149.163 479.539 147.714 479.547 145.893C479.539 144.4 479.936 143.096 480.739 141.981C481.549 140.866 482.661 139.995 484.073 139.369C485.485 138.743 487.09 138.43 488.887 138.43C490.717 138.43 492.314 138.743 493.678 139.369C495.05 139.995 496.117 140.866 496.88 141.981C497.642 143.096 498.035 144.388 498.059 145.857H493.064ZM510.64 163.418H501.902V138.767H510.713C513.192 138.767 515.327 139.261 517.116 140.248C518.905 141.227 520.282 142.635 521.244 144.473C522.215 146.31 522.701 148.509 522.701 151.069C522.701 153.636 522.215 155.843 521.244 157.689C520.282 159.534 518.897 160.95 517.092 161.937C515.294 162.924 513.144 163.418 510.64 163.418ZM507.114 158.952H510.424C511.964 158.952 513.26 158.68 514.311 158.134C515.371 157.58 516.165 156.726 516.695 155.57C517.232 154.407 517.501 152.906 517.501 151.069C517.501 149.247 517.232 147.758 516.695 146.603C516.165 145.447 515.375 144.597 514.324 144.051C513.272 143.506 511.976 143.233 510.436 143.233H507.114V158.952ZM525.623 143.064V138.767H545.868V143.064H538.321V163.418H533.17V143.064H525.623Z" fill="#2EE0CA"/>
<path d="M462.835 187.772H466.744V199.778C466.744 201.126 466.422 202.306 465.778 203.317C465.14 204.328 464.246 205.116 463.097 205.682C461.947 206.242 460.608 206.522 459.08 206.522C457.545 206.522 456.203 206.242 455.053 205.682C453.904 205.116 453.01 204.328 452.372 203.317C451.734 202.306 451.415 201.126 451.415 199.778V187.772H455.324V199.444C455.324 200.148 455.478 200.774 455.785 201.322C456.098 201.869 456.537 202.3 457.103 202.613C457.668 202.926 458.327 203.082 459.08 203.082C459.838 203.082 460.497 202.926 461.057 202.613C461.622 202.3 462.059 201.869 462.366 201.322C462.679 200.774 462.835 200.148 462.835 199.444V187.772ZM479.989 193.089C479.917 192.361 479.607 191.795 479.06 191.392C478.512 190.988 477.769 190.787 476.83 190.787C476.192 190.787 475.653 190.877 475.214 191.058C474.775 191.232 474.438 191.476 474.203 191.789C473.974 192.102 473.86 192.457 473.86 192.854C473.848 193.185 473.917 193.474 474.067 193.721C474.224 193.967 474.438 194.181 474.708 194.362C474.979 194.536 475.292 194.69 475.647 194.822C476.002 194.948 476.381 195.057 476.785 195.147L478.446 195.544C479.252 195.725 479.992 195.966 480.666 196.266C481.34 196.567 481.924 196.938 482.418 197.377C482.911 197.816 483.293 198.334 483.564 198.93C483.841 199.525 483.982 200.208 483.988 200.979C483.982 202.11 483.694 203.091 483.122 203.922C482.556 204.746 481.738 205.387 480.666 205.845C479.601 206.296 478.316 206.522 476.812 206.522C475.319 206.522 474.019 206.293 472.912 205.835C471.811 205.378 470.95 204.701 470.33 203.804C469.716 202.902 469.394 201.785 469.364 200.455H473.147C473.189 201.075 473.366 201.593 473.679 202.008C473.998 202.417 474.422 202.727 474.952 202.938C475.488 203.142 476.093 203.245 476.767 203.245C477.429 203.245 478.003 203.148 478.491 202.956C478.984 202.763 479.366 202.495 479.637 202.152C479.908 201.809 480.044 201.415 480.044 200.97C480.044 200.554 479.92 200.205 479.673 199.923C479.433 199.64 479.078 199.399 478.608 199.2C478.145 199.002 477.576 198.821 476.902 198.659L474.889 198.153C473.33 197.774 472.099 197.181 471.197 196.375C470.294 195.568 469.846 194.482 469.852 193.116C469.846 191.997 470.143 191.019 470.745 190.182C471.353 189.345 472.187 188.693 473.246 188.223C474.305 187.754 475.509 187.519 476.857 187.519C478.229 187.519 479.427 187.754 480.45 188.223C481.479 188.693 482.279 189.345 482.851 190.182C483.423 191.019 483.718 191.987 483.736 193.089H479.989ZM493.172 206.26H486.618V187.772H493.226C495.085 187.772 496.686 188.142 498.028 188.882C499.37 189.616 500.402 190.673 501.125 192.051C501.853 193.429 502.217 195.078 502.217 196.998C502.217 198.924 501.853 200.579 501.125 201.963C500.402 203.347 499.364 204.409 498.01 205.149C496.662 205.89 495.049 206.26 493.172 206.26ZM490.527 202.911H493.009C494.165 202.911 495.137 202.706 495.925 202.297C496.719 201.881 497.315 201.241 497.712 200.374C498.116 199.501 498.317 198.376 498.317 196.998C498.317 195.632 498.116 194.515 497.712 193.649C497.315 192.782 496.722 192.144 495.934 191.735C495.146 191.325 494.174 191.121 493.018 191.121H490.527V202.911ZM521.425 194.244H517.471C517.399 193.733 517.251 193.278 517.029 192.881C516.806 192.478 516.52 192.135 516.171 191.852C515.822 191.569 515.419 191.353 514.961 191.202C514.51 191.052 514.02 190.976 513.49 190.976C512.533 190.976 511.699 191.214 510.989 191.69C510.279 192.159 509.729 192.845 509.337 193.748C508.946 194.645 508.751 195.734 508.751 197.016C508.751 198.334 508.946 199.441 509.337 200.338C509.735 201.235 510.288 201.912 510.998 202.369C511.709 202.826 512.53 203.055 513.463 203.055C513.986 203.055 514.471 202.986 514.916 202.847C515.368 202.709 515.768 202.507 516.117 202.243C516.466 201.972 516.755 201.644 516.984 201.259C517.218 200.873 517.381 200.434 517.471 199.941L521.425 199.959C521.323 200.807 521.067 201.626 520.658 202.414C520.254 203.196 519.71 203.898 519.024 204.517C518.344 205.131 517.531 205.619 516.586 205.98C515.647 206.335 514.585 206.513 513.4 206.513C511.751 206.513 510.276 206.139 508.976 205.393C507.682 204.647 506.659 203.567 505.907 202.152C505.161 200.738 504.788 199.026 504.788 197.016C504.788 195 505.167 193.284 505.925 191.87C506.683 190.456 507.712 189.379 509.012 188.638C510.312 187.892 511.775 187.519 513.4 187.519C514.471 187.519 515.464 187.669 516.379 187.97C517.299 188.271 518.115 188.711 518.825 189.288C519.535 189.86 520.113 190.561 520.558 191.392C521.01 192.222 521.299 193.173 521.425 194.244Z" fill="#FA4B42"/>
<path d="M111.317 240.154H107.128L113.51 221.666H118.548L124.921 240.154H120.732L116.101 225.891H115.957L111.317 240.154ZM111.055 232.887H120.949V235.939H111.055V232.887ZM127.146 240.154V221.666H139.604V224.889H131.055V229.294H138.963V232.517H131.055V236.932H139.64V240.154H127.146ZM142.712 240.154V221.666H150.006C151.402 221.666 152.593 221.916 153.58 222.416C154.573 222.909 155.329 223.61 155.846 224.519C156.37 225.422 156.632 226.484 156.632 227.706C156.632 228.933 156.367 229.989 155.837 230.874C155.308 231.753 154.54 232.427 153.535 232.896C152.536 233.366 151.327 233.6 149.906 233.6H145.023V230.459H149.274C150.021 230.459 150.641 230.357 151.134 230.152C151.628 229.947 151.995 229.64 152.235 229.231C152.482 228.822 152.606 228.313 152.606 227.706C152.606 227.092 152.482 226.574 152.235 226.153C151.995 225.732 151.625 225.413 151.125 225.196C150.632 224.973 150.009 224.862 149.256 224.862H146.62V240.154H142.712ZM152.696 231.741L157.291 240.154H152.976L148.48 231.741H152.696ZM176.384 230.91C176.384 232.926 176.001 234.642 175.237 236.056C174.479 237.47 173.444 238.55 172.132 239.297C170.826 240.037 169.357 240.407 167.726 240.407C166.083 240.407 164.609 240.034 163.303 239.288C161.997 238.541 160.965 237.461 160.207 236.047C159.448 234.633 159.069 232.92 159.069 230.91C159.069 228.894 159.448 227.179 160.207 225.765C160.965 224.35 161.997 223.273 163.303 222.533C164.609 221.787 166.083 221.413 167.726 221.413C169.357 221.413 170.826 221.787 172.132 222.533C173.444 223.273 174.479 224.35 175.237 225.765C176.001 227.179 176.384 228.894 176.384 230.91ZM172.421 230.91C172.421 229.604 172.225 228.503 171.834 227.606C171.449 226.71 170.904 226.029 170.2 225.566C169.496 225.103 168.671 224.871 167.726 224.871C166.781 224.871 165.957 225.103 165.253 225.566C164.549 226.029 164.001 226.71 163.61 227.606C163.225 228.503 163.032 229.604 163.032 230.91C163.032 232.216 163.225 233.318 163.61 234.214C164.001 235.111 164.549 235.791 165.253 236.254C165.957 236.718 166.781 236.95 167.726 236.95C168.671 236.95 169.496 236.718 170.2 236.254C170.904 235.791 171.449 235.111 171.834 234.214C172.225 233.318 172.421 232.216 172.421 230.91Z" fill="#FEB56A"/>
<path d="M125.872 202.023V183.535H133.166C134.563 183.535 135.754 183.785 136.741 184.285C137.734 184.778 138.489 185.479 139.007 186.388C139.531 187.291 139.792 188.353 139.792 189.575C139.792 190.802 139.528 191.859 138.998 192.743C138.468 193.622 137.701 194.296 136.696 194.765C135.697 195.235 134.487 195.47 133.067 195.47H128.183V192.328H132.435C133.181 192.328 133.801 192.226 134.295 192.021C134.788 191.816 135.155 191.51 135.396 191.1C135.643 190.691 135.766 190.183 135.766 189.575C135.766 188.961 135.643 188.443 135.396 188.022C135.155 187.601 134.785 187.282 134.286 187.065C133.792 186.842 133.169 186.731 132.417 186.731H129.781V202.023H125.872ZM135.856 193.61L140.451 202.023H136.136L131.641 193.61H135.856ZM142.555 202.023V183.535H155.013V186.758H146.464V191.164H154.372V194.386H146.464V198.801H155.049V202.023H142.555ZM164.674 202.023H158.12V183.535H164.728C166.588 183.535 168.189 183.906 169.531 184.646C170.873 185.38 171.905 186.436 172.627 187.814C173.355 189.193 173.719 190.842 173.719 192.761C173.719 194.687 173.355 196.342 172.627 197.726C171.905 199.111 170.867 200.173 169.513 200.913C168.165 201.653 166.552 202.023 164.674 202.023ZM162.029 198.674H164.512C165.667 198.674 166.639 198.47 167.427 198.06C168.222 197.645 168.818 197.004 169.215 196.138C169.618 195.265 169.82 194.14 169.82 192.761C169.82 191.395 169.618 190.279 169.215 189.412C168.818 188.546 168.225 187.908 167.436 187.498C166.648 187.089 165.676 186.885 164.521 186.885H162.029V198.674Z" fill="#91E8E1"/>
</svg>
