<svg width="41" height="41" viewBox="0 0 41 41" fill="none" xmlns="http://www.w3.org/2000/svg">
<rect x="0.810547" y="1.10938" width="39" height="39" rx="7.5" fill="#151515"/>
<rect x="0.810547" y="1.10938" width="39" height="39" rx="7.5" stroke="#222222"/>
<g clip-path="url(#clip0_162_27743)">
<g clip-path="url(#clip1_162_27743)">
<g clip-path="url(#clip2_162_27743)">
<path d="M21.4833 9.80745L29.0786 14.1926C29.8044 14.6116 30.2515 15.3861 30.2515 16.2242V24.9945C30.2515 25.8326 29.8044 26.607 29.0786 27.0261L21.4833 31.4112C20.7574 31.8303 19.8632 31.8303 19.1374 31.4112L11.5421 27.0261C10.8163 26.607 10.3691 25.8326 10.3691 24.9945V16.2242C10.3691 15.3861 10.8163 14.6116 11.5421 14.1926L19.1374 9.80745C19.8632 9.3884 20.7574 9.3884 21.4833 9.80745Z" stroke="#96A0AB" stroke-width="0.902256"/>
<path d="M12.9386 25.3909C12.6501 25.3909 12.5059 25.2917 12.5059 25.0934V16.1695C12.5059 15.9712 12.6501 15.8721 12.9386 15.8721H13.2119C13.3257 15.8721 13.4169 15.8946 13.4852 15.9397C13.5535 15.9757 13.6104 16.0433 13.656 16.1425L16.2979 22.1864C16.4041 22.4207 16.5028 22.7047 16.5939 23.0382L16.6509 23.0112C16.5901 22.6957 16.5597 22.3982 16.5597 22.1188V16.1695C16.5597 15.9712 16.704 15.8721 16.9925 15.8721H17.1291C17.4176 15.8721 17.5618 15.9712 17.5618 16.1695V25.0934C17.5618 25.2917 17.4176 25.3909 17.1291 25.3909H16.89C16.6774 25.3909 16.5408 25.3232 16.48 25.188L13.7699 18.9414C13.6636 18.707 13.5649 18.423 13.4738 18.0895L13.4169 18.1166C13.4776 18.432 13.5079 18.7295 13.5079 19.0089V25.0934C13.5079 25.2917 13.3637 25.3909 13.0752 25.3909H12.9386Z" fill="#96A0AB"/>
<path d="M19.712 25.3912C19.4236 25.3912 19.2793 25.292 19.2793 25.0937V16.3051C19.2793 16.1608 19.3021 16.0572 19.3476 15.9941C19.4008 15.931 19.4805 15.8994 19.5868 15.8994H22.5475C22.6917 15.8994 22.7639 16.0347 22.7639 16.3051V16.5214C22.7639 16.7918 22.6917 16.927 22.5475 16.927H20.3042V20.2802H22.3539C22.4981 20.2802 22.5702 20.4155 22.5702 20.6859V20.9022C22.5702 21.1726 22.4981 21.3078 22.3539 21.3078H20.3042V25.0937C20.3042 25.292 20.1599 25.3912 19.8714 25.3912H19.712Z" fill="#96A0AB"/>
<path d="M25.7224 25.3912C25.434 25.3912 25.2897 25.292 25.2897 25.0937V16.927H23.65C23.5057 16.927 23.4336 16.7918 23.4336 16.5214V16.3051C23.4336 16.0347 23.5057 15.8994 23.65 15.8994H27.9316C28.0151 15.8994 28.072 15.931 28.1024 15.9941C28.1403 16.0572 28.1593 16.1608 28.1593 16.3051V16.5214C28.1593 16.6656 28.1403 16.7693 28.1024 16.8324C28.072 16.8955 28.0151 16.927 27.9316 16.927H26.3146V25.0937C26.3146 25.292 26.1704 25.3912 25.8819 25.3912H25.7224Z" fill="#96A0AB"/>
</g>
</g>
</g>
<defs>
<clipPath id="clip0_162_27743">
<rect width="24" height="24" fill="white" transform="translate(8.31055 8.60938)"/>
</clipPath>
<clipPath id="clip1_162_27743">
<rect width="24" height="24" fill="white" transform="translate(8.31055 8.60938)"/>
</clipPath>
<clipPath id="clip2_162_27743">
<rect width="24" height="24" fill="white" transform="translate(8.31055 8.60938)"/>
</clipPath>
</defs>
</svg>
