<svg width="12" height="16" viewBox="0 0 12 16" fill="none" xmlns="http://www.w3.org/2000/svg">
<path d="M9.83686 2.6543C10.3466 2.67318 10.7714 2.85254 11.1113 3.19238C11.4511 3.53223 11.6305 3.95703 11.6494 4.4668V13.5293C11.6305 14.0391 11.4511 14.4639 11.1113 14.8037C10.7714 15.1436 10.3466 15.3229 9.83686 15.3418H2.58686C2.07709 15.3229 1.65229 15.1436 1.31244 14.8037C0.9726 14.4639 0.793238 14.0391 0.774357 13.5293V4.4668C0.793238 3.95703 0.9726 3.53223 1.31244 3.19238C1.65229 2.85254 2.07709 2.67318 2.58686 2.6543H3.71967H4.00287C4.11615 2.12565 4.37104 1.69141 4.76752 1.35156C5.16401 1.0306 5.64545 0.860677 6.21186 0.841797C6.77826 0.860677 7.25971 1.0306 7.65619 1.35156C8.05268 1.69141 8.30756 2.12565 8.42084 2.6543H9.83686H8.70404H9.83686ZM3.03998 4.01367H2.58686C2.30365 4.03255 2.15261 4.18359 2.13373 4.4668V13.5293C2.15261 13.8125 2.30365 13.9635 2.58686 13.9824H9.83686C10.1201 13.9635 10.2711 13.8125 10.29 13.5293V4.4668C10.2711 4.18359 10.1201 4.03255 9.83686 4.01367H9.38373V4.69336C9.34597 5.10872 9.11941 5.33529 8.70404 5.37305H6.21186H3.71967C3.30431 5.33529 3.07774 5.10872 3.03998 4.69336V4.01367V4.69336V4.01367ZM5.53217 3.10742C5.56993 3.52279 5.79649 3.74935 6.21186 3.78711C6.62722 3.74935 6.85378 3.52279 6.89154 3.10742C6.85378 2.69206 6.62722 2.46549 6.21186 2.42773C5.79649 2.46549 5.56993 2.69206 5.53217 3.10742ZM4.62592 8.54492C4.58816 8.96029 4.3616 9.18685 3.94623 9.22461C3.53087 9.18685 3.30431 8.96029 3.26654 8.54492C3.30431 8.12956 3.53087 7.90299 3.94623 7.86523C4.3616 7.90299 4.58816 8.12956 4.62592 8.54492ZM5.75873 8.0918H8.47748C8.76069 8.11068 8.91173 8.26172 8.93061 8.54492C8.91173 8.82812 8.76069 8.97917 8.47748 8.99805H5.75873C5.47553 8.97917 5.32449 8.82812 5.30561 8.54492C5.32449 8.26172 5.47553 8.11068 5.75873 8.0918ZM5.75873 10.8105H8.47748C8.76069 10.8294 8.91173 10.9805 8.93061 11.2637C8.91173 11.5469 8.76069 11.6979 8.47748 11.7168H5.75873C5.47553 11.6979 5.32449 11.5469 5.30561 11.2637C5.32449 10.9805 5.47553 10.8294 5.75873 10.8105ZM3.94623 11.9434C3.53087 11.9056 3.30431 11.679 3.26654 11.2637C3.30431 10.8483 3.53087 10.6217 3.94623 10.584C4.3616 10.6217 4.58816 10.8483 4.62592 11.2637C4.58816 11.679 4.3616 11.9056 3.94623 11.9434Z" fill="#BBBBBB"/>
</svg>
