<svg width="10" height="13" viewBox="0 0 10 13" fill="none" xmlns="http://www.w3.org/2000/svg">
<g id="Icon" clip-path="url(#clip0_40_8926)">
<path id="Vector" d="M0 2.74V5.9275C0 6.29583 0.134583 6.61458 0.40375 6.88375L4.14375 10.6237C4.41292 10.8929 4.73167 11.0275 5.1 11.0275C5.45417 11.0275 5.77292 10.8929 6.05625 10.6237L8.90375 7.77625C9.15875 7.50708 9.28625 7.18833 9.28625 6.82C9.28625 6.46583 9.15875 6.14708 8.90375 5.86375L5.16375 2.12375C4.89458 1.85458 4.56875 1.72 4.18625 1.72H1.02C0.736667 1.73416 0.495833 1.83333 0.2975 2.0175C0.113333 2.21583 0.0141667 2.45666 0 2.74ZM2.38 3.42C2.57833 3.42 2.74125 3.48375 2.86875 3.61125C2.99625 3.73875 3.06 3.90166 3.06 4.1C3.06 4.29833 2.99625 4.46125 2.86875 4.58875C2.74125 4.71625 2.57833 4.78 2.38 4.78C2.18167 4.78 2.01875 4.71625 1.89125 4.58875C1.76375 4.46125 1.7 4.29833 1.7 4.1C1.7 3.90166 1.76375 3.73875 1.89125 3.61125C2.01875 3.48375 2.18167 3.42 2.38 3.42Z" fill="#BBBBBB"/>
</g>
<defs>
<clipPath id="clip0_40_8926">
<rect width="9.52" height="12" fill="white" transform="matrix(1 0 0 -1 0 12.48)"/>
</clipPath>
</defs>
</svg>
