<svg width="25" height="25" viewBox="0 0 25 25" fill="none" xmlns="http://www.w3.org/2000/svg">
<path fill-rule="evenodd" clip-rule="evenodd" d="M12.3008 0.839355C18.9277 0.839355 24.3008 6.2124 24.3008 12.8394C24.3008 19.4663 18.9277 24.8394 12.3008 24.8394C5.67383 24.8394 0.300781 19.4663 0.300781 12.8394C0.300781 6.2124 5.67383 0.839355 12.3008 0.839355Z" fill="#F0B90B"/>
<path d="M6.89453 12.8394L6.90332 16.0122L9.59863 17.6001V19.4575L5.32715 16.9497V11.9106L6.89453 12.8394ZM6.89453 9.6665V11.5151L5.32422 10.5864V8.73779L6.89453 7.80908L8.47363 8.73779L6.89453 9.6665ZM10.7266 8.73779L12.2969 7.80908L13.873 8.73779L12.2969 9.6665L10.7266 8.73779Z" fill="white"/>
<path d="M8.03125 15.356V13.4956L9.60156 14.4272V16.2759L8.03125 15.356ZM10.7295 18.2651L12.2998 19.1938L13.876 18.2651V20.1138L12.2998 21.0425L10.7295 20.1138V18.2651ZM16.1289 8.73779L17.6992 7.80908L19.2754 8.73779V10.5864L17.6992 11.5151V9.6665L16.1289 8.73779ZM17.6992 16.0122L17.708 12.8394L19.2783 11.9106V16.9497L15.0039 19.4546V17.5972L17.6992 16.0122Z" fill="white"/>
<path d="M16.5703 15.356L15 16.2759V14.4272L16.5703 13.4956V15.356Z" fill="white"/>
<path d="M16.5742 10.3228L16.583 12.1831L13.8789 13.7681V16.9497L12.3086 17.8696L10.7383 16.9497V13.7681L8.03418 12.1831V10.3228L9.61035 9.39404L12.2969 10.9907L15.001 9.39404L16.5801 10.3228H16.5742ZM8.03125 7.15283L12.2998 4.63623L16.5742 7.15283L15.0039 8.08154L12.2998 6.48779L9.60156 8.08154L8.03125 7.15283Z" fill="white"/>
</svg>
