<svg width="48" height="32" viewBox="0 0 48 32" fill="none" xmlns="http://www.w3.org/2000/svg">
<path d="M5.41198 4.14062C4.67956 4.18945 4.28893 4.58008 4.24011 5.3125V6.92383L16.911 17.3242C17.6923 17.9102 18.5467 18.2031 19.4745 18.2031C20.451 18.2031 21.33 17.9102 22.1112 17.3242L25.8466 14.248C24.8212 16.0059 24.2596 17.959 24.162 20.1074C22.6971 21.2305 21.1102 21.7676 19.4012 21.7188C17.6434 21.7188 16.0565 21.1572 14.6405 20.0342L4.24011 11.4648V24.0625C4.28893 24.7949 4.67956 25.1855 5.41198 25.2344H25.0409C25.5292 26.5039 26.2128 27.6758 27.0917 28.75H5.41198C4.09362 28.7012 2.99499 28.2373 2.11608 27.3584C1.23718 26.4795 0.77331 25.3809 0.724482 24.0625V5.3125C0.77331 3.99414 1.23718 2.89551 2.11608 2.0166C2.99499 1.1377 4.09362 0.673828 5.41198 0.625H33.537C34.8553 0.673828 35.954 1.1377 36.8329 2.0166C37.7118 2.89551 38.1757 3.99414 38.2245 5.3125V7.72949C37.8339 7.68066 37.4432 7.65625 37.0526 7.65625C35.6366 7.65625 34.2938 7.87598 33.0243 8.31543L34.7089 6.92383V5.3125C34.66 4.58008 34.2694 4.18945 33.537 4.14062H5.41198H33.537H5.41198ZM47.5995 20.5469C47.5995 22.4512 47.1356 24.209 46.2079 25.8203C45.2801 27.4316 43.9862 28.7256 42.326 29.7021C40.6659 30.6299 38.9081 31.0938 37.0526 31.0938C35.1971 31.0938 33.4393 30.6299 31.7792 29.7021C30.119 28.7256 28.8251 27.4316 27.8973 25.8203C26.9696 24.209 26.5057 22.4512 26.5057 20.5469C26.5057 18.6426 26.9696 16.8848 27.8973 15.2734C28.8251 13.6621 30.119 12.3682 31.7792 11.3916C33.4393 10.4639 35.1971 10 37.0526 10C38.9081 10 40.6659 10.4639 42.326 11.3916C43.9862 12.3682 45.2801 13.6621 46.2079 15.2734C47.1356 16.8848 47.5995 18.6426 47.5995 20.5469ZM41.9598 17.3975C41.4227 16.9092 40.8856 16.9092 40.3485 17.3975L35.8807 21.792L33.7567 19.7412C33.2196 19.2529 32.6825 19.2529 32.1454 19.7412C31.6571 20.2783 31.6571 20.8154 32.1454 21.3525L35.0751 24.2822C35.6122 24.7705 36.1493 24.7705 36.6864 24.2822L41.9598 19.0088C42.4481 18.4717 42.4481 17.9346 41.9598 17.3975Z" fill="#F5F5F5"/>
</svg>
