<svg width="16" height="13" viewBox="0 0 16 13" fill="none" xmlns="http://www.w3.org/2000/svg">
<g clip-path="url(#clip0_62_9143)">
<path d="M4.1001 0.97998H12.0603V12.23H4.1001V0.97998Z" fill="white"/>
<path d="M0.119873 0.97998H4.09996V12.23H0.119873V0.97998ZM12.0601 0.97998H16.0402V12.23H12.0601L12.0601 0.97998ZM5.29026 6.41624L4.98117 6.52188L6.41941 7.78412C6.52818 8.10853 6.38162 8.20415 6.28823 8.37431L7.84961 8.17611L7.80896 9.74742L8.13236 9.73813L8.06182 8.17987L9.62474 8.36514C9.52802 8.16086 9.44193 8.05241 9.53142 7.72578L10.9687 6.5299L10.7172 6.43885C10.5116 6.28016 10.8061 5.67455 10.8505 5.29236C10.8505 5.29236 10.0113 5.58097 9.95626 5.42995L9.74253 5.01939L8.97905 5.85809C8.89564 5.87808 8.86011 5.8449 8.84053 5.77441L9.19326 4.02174L8.63472 4.33589C8.58796 4.35588 8.5412 4.33863 8.5104 4.28414L7.97316 3.20616L7.41923 4.32567C7.37749 4.36579 7.33567 4.37043 7.30098 4.34316L6.76915 4.04481L7.08841 5.7838C7.06301 5.85279 7.00219 5.87224 6.93065 5.83486L6.20081 5.00568C6.10533 5.15865 6.04062 5.40857 5.91444 5.46458C5.78822 5.51703 5.36556 5.3586 5.08227 5.29677C5.17903 5.64603 5.48164 6.22626 5.29013 6.41643L5.29026 6.41624Z" fill="#BF0A30"/>
</g>
<defs>
<clipPath id="clip0_62_9143">
<rect width="15" height="11.25" fill="white" transform="translate(0.580078 0.97998)"/>
</clipPath>
</defs>
</svg>
