<svg width="17" height="10" viewBox="0 0 17 10" fill="none" xmlns="http://www.w3.org/2000/svg">
<path fill-rule="evenodd" clip-rule="evenodd" d="M0.812524 0.755882C0.870581 0.697678 0.93955 0.6515 1.01548 0.619992C1.09141 0.588484 1.17281 0.572266 1.25502 0.572266C1.33723 0.572266 1.41863 0.588484 1.49457 0.619992C1.5705 0.6515 1.63947 0.697678 1.69752 0.755882L8.75502 7.81463L15.8125 0.755882C15.8706 0.697773 15.9396 0.651677 16.0155 0.620228C16.0915 0.588779 16.1728 0.572593 16.255 0.572593C16.3372 0.572593 16.4186 0.588779 16.4945 0.620228C16.5704 0.651677 16.6394 0.697773 16.6975 0.755882C16.7556 0.813992 16.8017 0.882979 16.8332 0.958903C16.8646 1.03483 16.8808 1.1162 16.8808 1.19838C16.8808 1.28056 16.8646 1.36194 16.8332 1.43786C16.8017 1.51379 16.7556 1.58277 16.6975 1.64088L9.19752 9.14088C9.13947 9.19909 9.0705 9.24526 8.99457 9.27677C8.91863 9.30828 8.83723 9.3245 8.75502 9.3245C8.67281 9.3245 8.59141 9.30828 8.51548 9.27677C8.43955 9.24526 8.37058 9.19909 8.31252 9.14088L0.812524 1.64088C0.75432 1.58283 0.708141 1.51386 0.676633 1.43792C0.645125 1.36199 0.628906 1.28059 0.628906 1.19838C0.628906 1.11617 0.645125 1.03477 0.676633 0.95884C0.708141 0.882909 0.75432 0.81394 0.812524 0.755882Z" fill="#6AB5DB"/>
</svg>
