<svg width="23" height="23" viewBox="0 0 23 23" fill="none" xmlns="http://www.w3.org/2000/svg">
<g id="Group 18">
<path id="Vector" d="M11.25 0C9.02496 0 6.84989 0.659801 4.99984 1.89597C3.14979 3.13213 1.70785 4.88914 0.85636 6.94481C0.00487449 9.00048 -0.217913 11.2625 0.216171 13.4448C0.650254 15.627 1.72171 17.6316 3.29505 19.2049C4.86839 20.7783 6.87295 21.8497 9.05524 22.2838C11.2375 22.7179 13.4995 22.4951 15.5552 21.6436C17.6109 20.7922 19.3679 19.3502 20.604 17.5002C21.8402 15.6501 22.5 13.475 22.5 11.25C22.4965 8.26739 21.3101 5.40796 19.2011 3.29893C17.092 1.18991 14.2326 0.00351866 11.25 0ZM15.0413 15.0412C14.8495 15.233 14.5894 15.3407 14.3182 15.3407C14.047 15.3407 13.7869 15.233 13.5951 15.0412L10.5269 11.9731C10.3351 11.7813 10.2273 11.5212 10.2273 11.25V5.11364C10.2273 4.84239 10.335 4.58226 10.5268 4.39046C10.7186 4.19866 10.9788 4.09091 11.25 4.09091C11.5212 4.09091 11.7814 4.19866 11.9732 4.39046C12.165 4.58226 12.2727 4.84239 12.2727 5.11364V10.8266L15.0413 13.5951C15.233 13.7869 15.3407 14.047 15.3407 14.3182C15.3407 14.5894 15.233 14.8495 15.0413 15.0412Z" fill="#EBEBEB"/>
</g>
</svg>
