<svg width="121" height="33" viewBox="0 0 121 33" fill="none" xmlns="http://www.w3.org/2000/svg">
<g clip-path="url(#clip0_190_33546)">
<g clip-path="url(#clip1_190_33546)">
<g clip-path="url(#clip2_190_33546)">
<path d="M20.5519 10.2776C20.5163 10.1743 20.4763 10.0766 20.4297 9.98438C20.4919 10.0888 20.5319 10.1877 20.5519 10.2776Z" fill="white"/>
<path d="M50.1529 13.4418C49.8275 12.1721 49.0077 11.2434 47.3969 11.2434C45.0286 11.2434 44.0378 13.3329 44.0378 15.4546C44.0378 17.5763 45.0286 19.6658 47.3969 19.6658C49.1154 19.6658 50.0596 18.3805 50.214 16.7709H52.1024C51.948 19.4181 50.0741 21.2454 47.3958 21.2454C44.0833 21.2454 42.1016 18.6138 42.1016 15.4557C42.1016 12.2976 44.0833 9.66602 47.3958 9.66602C49.8885 9.68157 51.8547 11.059 52.0869 13.4429H50.1529V13.4418Z" fill="white"/>
<path d="M53.25 16.971C53.25 14.5249 54.7208 12.7598 57.2901 12.7598C59.8595 12.7598 61.3302 14.5249 61.3302 16.971C61.3302 19.4326 59.8595 21.1977 57.2901 21.1977C54.7208 21.1977 53.25 19.4326 53.25 16.971ZM59.5662 16.971C59.5662 15.5935 58.8697 14.1539 57.2901 14.1539C55.7105 14.1539 55.014 15.5935 55.014 16.971C55.014 18.3639 55.7105 19.8036 57.2901 19.8036C58.8697 19.8047 59.5662 18.3639 59.5662 16.971Z" fill="white"/>
<path d="M62.8477 9.92578H64.6128V11.5976H62.8477V9.92578ZM62.8477 12.9761H64.6128V20.9797H62.8477V12.9761Z" fill="white"/>
<path d="M66.5352 12.9764H68.207V14.1528L68.2381 14.1839C68.7646 13.3019 69.6777 12.7598 70.7308 12.7598C72.4648 12.7598 73.5634 13.6884 73.5634 15.4847V20.98H71.7983V15.949C71.7672 14.6948 71.2718 14.1528 70.2342 14.1528C69.0579 14.1528 68.2992 15.0814 68.2992 16.2578V20.98H66.5352V12.9764Z" fill="white"/>
<path d="M85.3115 20.9802H84.073L83.7786 19.6794C82.7411 20.8558 81.7968 21.2434 80.4505 21.2434C77.138 21.2434 75.1562 18.6119 75.1562 15.4538C75.1562 12.2956 77.138 9.66406 80.4505 9.66406C82.8655 9.66406 84.8939 10.9493 85.1882 13.4409H83.2998C83.1143 11.9857 81.8446 11.2426 80.4516 11.2426C78.0833 11.2426 77.0924 13.3321 77.0924 15.4538C77.0924 17.5755 78.0833 19.6649 80.4516 19.6649C82.4334 19.696 83.5164 18.5041 83.5475 16.6301H80.606V15.1594H85.3127V20.9802H85.3115Z" fill="white"/>
<path d="M88.5464 17.4344C88.5464 18.6886 89.2273 19.8028 90.6981 19.8028C91.72 19.8028 92.3388 19.354 92.6487 18.4709H94.3205C93.9339 20.2204 92.4476 21.1957 90.6981 21.1957C88.1898 21.1957 86.7812 19.4462 86.7812 16.9846C86.7812 14.7084 88.2676 12.7578 90.6514 12.7578C93.1752 12.7578 94.7226 15.0339 94.4283 17.4333H88.5464V17.4344ZM92.6643 16.2736C92.602 15.1594 91.8433 14.153 90.6514 14.153C89.4284 14.153 88.5919 15.0817 88.5464 16.2736H92.6643Z" fill="white"/>
<path d="M101.18 15.6546C101.041 14.6793 100.328 14.1528 99.3541 14.1528C98.441 14.1528 97.1557 14.6326 97.1557 17.0632C97.1557 18.3951 97.7445 19.8036 99.2763 19.8036C100.298 19.8036 101.01 19.1227 101.18 17.9763H102.945C102.62 20.0513 101.336 21.1966 99.2763 21.1966C96.7681 21.1966 95.3906 19.4159 95.3906 17.0632C95.3906 14.6482 96.707 12.7598 99.3385 12.7598C101.196 12.7598 102.775 13.6884 102.945 15.6546H101.18Z" fill="white"/>
<path d="M104.434 9.92578H106.199V16.2109L109.388 12.975H111.555L108.49 15.9165L111.85 20.9786H109.698L107.252 17.0929L106.199 18.1149V20.9786H104.434V9.92578Z" fill="white"/>
<path d="M112.328 16.971C112.328 14.5249 113.799 12.7598 116.369 12.7598C118.939 12.7598 120.409 14.5249 120.409 16.971C120.409 19.4326 118.939 21.1977 116.369 21.1977C113.799 21.1977 112.328 19.4326 112.328 16.971ZM118.644 16.971C118.644 15.5935 117.948 14.1539 116.368 14.1539C114.789 14.1539 114.092 15.5935 114.092 16.971C114.092 18.3639 114.789 19.8036 116.368 19.8036C117.948 19.8047 118.644 18.3639 118.644 16.971Z" fill="white"/>
<path d="M16.306 0.804846C7.5026 0.844837 0.398779 8.01197 0.437659 16.8165C0.477649 25.6199 7.64701 32.7237 16.4493 32.6848C25.2527 32.6448 32.3565 25.4766 32.3176 16.6743C32.2776 7.86978 25.1094 0.765967 16.306 0.804846ZM14.2876 15.9622C12.7135 15.9622 11.4372 14.687 11.4372 13.1129C11.4372 11.54 12.7135 10.2636 14.2876 10.2636C15.8605 10.2636 17.1369 11.54 17.1369 13.1129C17.138 14.687 15.8617 15.9622 14.2876 15.9622ZM16.5604 19.0437L16.5748 19.0259L16.5904 19.0082C17.4035 19.5325 18.3322 19.718 19.2597 19.7447C20.1884 19.7691 21.1348 19.6991 22.0657 19.5114C22.9955 19.3181 23.9097 19.0326 24.7928 18.6683C25.2882 18.4639 25.7815 18.2406 26.2513 17.9784C26.2547 17.9762 26.2569 17.9751 26.2602 17.9729C26.5524 17.7974 26.8379 17.6118 27.1189 17.4208C27.18 17.3775 27.2389 17.3319 27.2966 17.2853L27.3033 17.293L27.3277 17.3219C26.6113 17.974 25.7581 18.4583 24.8895 18.886C24.0119 19.2992 23.0966 19.638 22.1512 19.8824C21.2092 20.1257 20.2261 20.3101 19.2308 20.219C18.2522 20.1312 17.2202 19.788 16.5604 19.0437ZM23.8741 15.9622C23.873 15.6201 24.1485 15.3446 24.4884 15.3413C24.8306 15.3402 25.1061 15.6146 25.1094 15.9556C25.1105 16.2966 24.835 16.5754 24.4951 16.5765C24.1541 16.5788 23.8764 16.3033 23.8741 15.9622ZM18.992 31.2507C18.3766 26.9373 22.1435 22.7128 24.2674 20.5511C24.7495 20.0612 25.4949 19.3859 26.188 18.6683C28.9451 16.09 29.4939 13.0096 23.8508 11.47C22.7811 11.1601 21.6725 10.7213 20.5494 10.2781C20.5139 10.1748 20.4739 10.077 20.4272 9.98482C20.2984 9.76265 20.0729 9.50716 19.7318 9.21723C18.9987 8.58072 17.6201 8.59738 16.4304 8.87954C15.1152 8.56961 13.8177 8.45964 12.5702 8.75846C7.1138 10.2614 6.23624 12.923 6.02407 16.13C5.73525 19.5958 5.5664 22.1785 4.2545 25.1289C2.61713 22.7672 1.65181 19.9024 1.63848 16.8109C1.60182 8.6707 8.17132 2.04232 16.3116 2.00566C24.4518 1.96901 31.0802 8.5374 31.1168 16.6776C31.1501 23.9481 25.9103 30.0144 18.992 31.2507Z" fill="white"/>
<path d="M16.2903 13.1387C16.2903 14.2462 15.3927 15.1427 14.2863 15.1427C13.1788 15.1427 12.2812 14.2462 12.2812 13.1387C12.2812 12.0312 13.1788 11.1348 14.2863 11.1348C15.3927 11.1337 16.2903 12.0312 16.2903 13.1387Z" fill="white"/>
</g>
</g>
</g>
<defs>
<clipPath id="clip0_190_33546">
<rect width="120" height="31.77" fill="white" transform="translate(0.421875 0.859375)"/>
</clipPath>
<clipPath id="clip1_190_33546">
<rect width="120" height="31.77" fill="white" transform="translate(0.421875 0.859375)"/>
</clipPath>
<clipPath id="clip2_190_33546">
<rect width="119.971" height="31.77" fill="white" transform="translate(0.4375 0.859375)"/>
</clipPath>
</defs>
</svg>
