<svg width="14" height="16" viewBox="0 0 14 16" fill="none" xmlns="http://www.w3.org/2000/svg">
<g id="Icon" clip-path="url(#clip0_40_4881)">
<path id="Vector" d="M4.93779 1.92315C4.97524 1.51116 5.19996 1.28644 5.61195 1.24899H8.75802C9.17 1.28644 9.39472 1.51116 9.43217 1.92315C9.39472 2.33513 9.17 2.55985 8.75802 2.5973H7.85914V3.97371C9.09509 4.14225 10.1625 4.61978 11.0614 5.40629L11.876 4.59169C12.1943 4.32951 12.5127 4.32951 12.831 4.59169C13.0932 4.91004 13.0932 5.22839 12.831 5.54674L11.9603 6.41753C12.6531 7.39131 13.009 8.51491 13.0277 9.78832C12.9902 11.4363 12.4191 12.8127 11.3142 13.9175C10.2093 15.0224 8.83292 15.5936 7.18498 15.631C5.53704 15.5936 4.16064 15.0224 3.05577 13.9175C1.9509 12.8127 1.37974 11.4363 1.34229 9.78832C1.37974 8.25273 1.87599 6.95124 2.83105 5.88382C3.80483 4.81641 5.03142 4.1797 6.51082 3.97371V2.5973H5.61195C5.19996 2.55985 4.97524 2.33513 4.93779 1.92315ZM7.18498 14.2827C7.99023 14.2827 8.73929 14.0861 9.43217 13.6928C10.1251 13.2808 10.6775 12.7284 11.0895 12.0355C11.4827 11.3239 11.6794 10.5748 11.6794 9.78832C11.6794 9.0018 11.4827 8.25273 11.0895 7.54112C10.6775 6.84824 10.1251 6.29581 9.43217 5.88382C8.73929 5.49056 7.99023 5.29393 7.18498 5.29393C6.37974 5.29393 5.63067 5.49056 4.93779 5.88382C4.24491 6.29581 3.69247 6.84824 3.28049 7.54112C2.88723 8.25273 2.6906 9.0018 2.6906 9.78832C2.6906 10.5748 2.88723 11.3239 3.28049 12.0355C3.69247 12.7284 4.24491 13.2808 4.93779 13.6928C5.63067 14.0861 6.37974 14.2827 7.18498 14.2827ZM7.85914 7.31641V10.2378C7.82169 10.6497 7.59697 10.8745 7.18498 10.9119C6.773 10.8745 6.54828 10.6497 6.51082 10.2378V7.31641C6.54828 6.90442 6.773 6.6797 7.18498 6.64225C7.59697 6.6797 7.82169 6.90442 7.85914 7.31641Z" fill="#BBBBBB"/>
</g>
<defs>
<clipPath id="clip0_40_4881">
<rect width="12.69" height="15" fill="white" transform="matrix(1 0 0 -1 0.839966 15.94)"/>
</clipPath>
</defs>
</svg>
