<svg width="25" height="25" viewBox="0 0 25 25" fill="none" xmlns="http://www.w3.org/2000/svg">
<rect x="1.37891" y="1.39001" width="23" height="23" rx="11.5" fill="#151515"/>
<rect x="1.37891" y="1.39001" width="23" height="23" rx="11.5" stroke="#222222"/>
<g clip-path="url(#clip0_46_11315)">
<path d="M14.9106 13.81C15.8731 13.7817 16.6728 13.4488 17.3097 12.8113C17.9466 12.1738 18.2792 11.3733 18.3075 10.41C18.3075 10.0842 18.265 9.77251 18.1801 9.47501C18.1377 9.36168 18.0598 9.29085 17.9466 9.26251C17.8475 9.24835 17.7555 9.28376 17.6706 9.36876L16.0358 10.9838C15.9651 11.0546 15.8801 11.09 15.7811 11.09H14.5709C14.3586 11.0758 14.2454 10.9625 14.2312 10.75V9.53876C14.2312 9.4396 14.2666 9.3546 14.3374 9.28376L15.9721 7.64751C16.0429 7.56251 16.0712 7.47043 16.0571 7.37126C16.0288 7.25793 15.958 7.18001 15.8448 7.13751C15.5475 7.05251 15.2362 7.01001 14.9106 7.01001C13.9482 7.03835 13.1485 7.37126 12.5116 8.00876C11.8747 8.64626 11.5421 9.44668 11.5138 10.41C11.5138 10.8208 11.5845 11.2104 11.7261 11.5788L7.86211 15.425C7.57904 15.7083 7.4375 16.0483 7.4375 16.445C7.45165 16.8558 7.59319 17.1958 7.86211 17.465C8.13103 17.7342 8.47072 17.8758 8.88117 17.89C9.27747 17.89 9.61716 17.7483 9.90023 17.465L13.7642 13.6188C14.118 13.7463 14.5002 13.81 14.9106 13.81ZM9.13594 15.68C9.44732 15.7083 9.61716 15.8783 9.64547 16.19C9.61716 16.5017 9.44732 16.6717 9.13594 16.7C8.82456 16.6717 8.65471 16.5017 8.62641 16.19C8.65471 15.8783 8.82456 15.7083 9.13594 15.68Z" fill="#BBBBBB"/>
</g>
<defs>
<clipPath id="clip0_46_11315">
<rect width="10.87" height="12" fill="white" transform="matrix(1 0 0 -1 7.4375 18.45)"/>
</clipPath>
</defs>
</svg>
