<svg width="14" height="16" viewBox="0 0 14 16" fill="none" xmlns="http://www.w3.org/2000/svg">
<g id="Icon" clip-path="url(#clip0_40_8717)">
<path id="Vector" d="M11.5394 10.4972H6.14619C5.86529 10.4785 5.71548 10.3286 5.69675 10.0478V2.85674C5.71548 2.57584 5.86529 2.42603 6.14619 2.4073H10.0788L11.9889 4.31741V10.0478C11.9702 10.3286 11.8203 10.4785 11.5394 10.4972ZM6.14619 11.8455H11.5394C12.0451 11.8268 12.4664 11.6489 12.8035 11.3118C13.1406 10.9747 13.3185 10.5534 13.3372 10.0478V4.31741C13.3372 3.94288 13.2061 3.62453 12.9439 3.36236L11.0338 1.45224C10.7717 1.19007 10.4533 1.05899 10.0788 1.05899H6.14619C5.64057 1.07771 5.21922 1.25562 4.88214 1.59269C4.54506 1.92977 4.36716 2.35112 4.34844 2.85674V10.0478C4.36716 10.5534 4.54506 10.9747 4.88214 11.3118C5.21922 11.6489 5.64057 11.8268 6.14619 11.8455ZM2.55068 4.65449C2.04506 4.67322 1.62372 4.85112 1.28664 5.1882C0.949559 5.52528 0.771656 5.94663 0.75293 6.45225V13.6433C0.771656 14.1489 0.949559 14.5702 1.28664 14.9073C1.62372 15.2444 2.04506 15.4223 2.55068 15.441H7.94394C8.44956 15.4223 8.87091 15.2444 9.20799 14.9073C9.54506 14.5702 9.72297 14.1489 9.74169 13.6433V12.7444H8.39338V13.6433C8.37465 13.9242 8.22484 14.074 7.94394 14.0927H2.55068C2.26978 14.074 2.11997 13.9242 2.10124 13.6433V6.45225C2.11997 6.17135 2.26978 6.02153 2.55068 6.00281H3.44956V4.65449H2.55068Z" fill="#888888"/>
</g>
<defs>
<clipPath id="clip0_40_8717">
<rect width="12.69" height="15" fill="white" transform="matrix(1 0 0 -1 0.700195 15.75)"/>
</clipPath>
</defs>
</svg>
