<svg width="74" height="26" viewBox="0 0 74 26" fill="none" xmlns="http://www.w3.org/2000/svg">
<g id="Link &#226;&#134;&#146; Img - Cloudflare">
<path id="Vector" d="M62.8649 16.2841L63.0433 15.6578C63.2559 14.9126 63.1768 14.2239 62.8202 13.7178C62.4919 13.2517 61.945 12.9773 61.2808 12.9453L48.7002 12.7836C48.6612 12.7829 48.6229 12.7728 48.5884 12.7542C48.5539 12.7356 48.5243 12.709 48.5018 12.6766C48.4797 12.6431 48.4657 12.6049 48.4608 12.5649C48.4559 12.525 48.4602 12.4844 48.4734 12.4465C48.495 12.3839 48.5342 12.3291 48.5862 12.2888C48.6381 12.2486 48.7005 12.2247 48.7657 12.22L61.4628 12.0566C62.969 11.9864 64.5997 10.7462 65.1706 9.23372L65.8947 7.31361C65.9244 7.23242 65.9311 7.14444 65.9142 7.05957C65.0921 3.30652 61.7916 0.5 57.8453 0.5C54.2094 0.5 51.1222 2.88158 50.0148 6.19186C49.2665 5.62186 48.3336 5.35982 47.4029 5.45823C45.6586 5.63401 44.2561 7.05928 44.0835 8.82979C44.0391 9.27189 44.0716 9.71845 44.1793 10.1492C41.3298 10.2335 39.0446 12.6027 39.0446 15.5151C39.045 15.7751 39.0639 16.0347 39.1013 16.2919C39.1095 16.3513 39.1385 16.4057 39.183 16.4452C39.2275 16.4847 39.2845 16.5067 39.3436 16.5071L62.5695 16.5099C62.5717 16.5101 62.5739 16.5101 62.5761 16.5099C62.6417 16.5088 62.7053 16.4862 62.7573 16.4455C62.8094 16.4049 62.8471 16.3483 62.8649 16.2841Z" fill="#F6821F"/>
<path id="Vector_2" d="M67.0558 7.45264C66.9392 7.45264 66.823 7.45561 66.7074 7.46156C66.6887 7.46291 66.6704 7.46698 66.6529 7.47364C66.6226 7.48416 66.5952 7.50198 66.5731 7.52558C66.5511 7.54918 66.535 7.57785 66.5262 7.60915L66.0315 9.34312C65.8189 10.0883 65.898 10.7764 66.2549 11.2825C66.5829 11.7492 67.1298 12.0231 67.794 12.055L70.4759 12.2184C70.5136 12.2197 70.5505 12.2298 70.5837 12.2481C70.6169 12.2664 70.6454 12.2923 70.667 12.3237C70.6892 12.3574 70.7034 12.3958 70.7083 12.4361C70.7132 12.4763 70.7088 12.5171 70.6953 12.5553C70.6737 12.6178 70.6346 12.6725 70.5828 12.7127C70.5309 12.7529 70.4687 12.7769 70.4036 12.7817L67.6171 12.9451C66.1041 13.0159 64.4737 14.2556 63.9033 15.768L63.702 16.302C63.6936 16.3243 63.6905 16.3484 63.693 16.3722C63.6955 16.3959 63.7036 16.4187 63.7165 16.4387C63.7295 16.4587 63.7469 16.4753 63.7674 16.4871C63.7879 16.4989 63.8109 16.5056 63.8344 16.5066C63.8369 16.5066 63.8392 16.5066 63.8418 16.5066H73.4302C73.486 16.5071 73.5404 16.4891 73.5851 16.4552C73.6298 16.4214 73.6623 16.3737 73.6777 16.3193C73.8477 15.7041 73.9335 15.0682 73.9329 14.4294C73.9317 10.5765 70.8532 7.45264 67.0558 7.45264Z" fill="#FBAD41"/>
<path id="Vector_3" d="M9.09967 19.3906H10.7355V23.9256H13.5939V25.38H9.09967V19.3906Z" fill="white"/>
<path id="Vector_4" d="M15.2881 22.4024V22.3854C15.2881 20.6656 16.654 19.2705 18.4752 19.2705C20.2964 19.2705 21.6453 20.6483 21.6453 22.3682V22.3854C21.6453 24.1053 20.2791 25.4995 18.4585 25.4995C16.6378 25.4995 15.2881 24.1223 15.2881 22.4024ZM19.9758 22.4024V22.3854C19.9758 21.5223 19.3606 20.768 18.4585 20.768C17.5646 20.768 16.9658 21.5039 16.9658 22.3682V22.3854C16.9658 23.2485 17.5813 24.0026 18.4752 24.0026C19.3773 24.0026 19.9758 23.2667 19.9758 22.4024Z" fill="white"/>
<path id="Vector_5" d="M23.6474 22.753V19.3901H25.3084V22.7191C25.3084 23.5822 25.7384 23.9939 26.3959 23.9939C27.0533 23.9939 27.4834 23.6003 27.4834 22.7617V19.3901H29.1447V22.7093C29.1447 24.6432 28.0572 25.4899 26.3791 25.4899C24.7011 25.4899 23.6474 24.6276 23.6474 22.753Z" fill="white"/>
<path id="Vector_6" d="M31.648 19.3906H33.9245C36.0326 19.3906 37.255 20.6225 37.255 22.3507V22.3683C37.255 24.0962 36.0155 25.3799 33.891 25.3799H31.648V19.3906ZM33.95 23.9075C34.9283 23.9075 35.577 23.3608 35.577 22.3927V22.3758C35.577 21.4177 34.9283 20.8613 33.95 20.8613H33.2838V23.9081L33.95 23.9075Z" fill="white"/>
<path id="Vector_7" d="M39.6325 19.3906H44.3538V20.8455H41.2683V21.8634H44.059V23.2409H41.2683V25.38H39.6325V19.3906Z" fill="white"/>
<path id="Vector_8" d="M46.63 19.3906H48.2658V23.9256H51.1243V25.38H46.63V19.3906Z" fill="white"/>
<path id="Vector_9" d="M55.3987 19.3477H56.9749L59.4879 25.3799H57.7341L57.3038 24.3103H55.027L54.6057 25.3799H52.8858L55.3987 19.3477ZM56.8318 23.0185L56.1741 21.3156L55.5078 23.0185H56.8318Z" fill="white"/>
<path id="Vector_10" d="M61.5949 19.3901H64.3856C65.2883 19.3901 65.9117 19.63 66.308 20.0406C66.6542 20.383 66.8311 20.8462 66.8311 21.4357V21.4526C66.8311 22.3678 66.3491 22.9754 65.6169 23.2919L67.025 25.38H65.1358L63.9471 23.5658H63.2307V25.38H61.5949V19.3901ZM64.3099 22.2654C64.8664 22.2654 65.1871 21.9915 65.1871 21.5551V21.5381C65.1871 21.0674 64.8497 20.828 64.3011 20.828H63.2307V22.2665L64.3099 22.2654Z" fill="white"/>
<path id="Vector_11" d="M69.1912 19.3906H73.9378V20.8026H70.8102V21.7092H73.6432V23.0185H70.8102V23.9685H73.98V25.38H69.1912V19.3906Z" fill="white"/>
<path id="Vector_12" d="M5.51828 23.1041C5.28922 23.6298 4.80727 24.002 4.16685 24.002C3.27269 24.002 2.6575 23.2491 2.6575 22.3849V22.3676C2.6575 21.5045 3.25597 20.7674 4.14984 20.7674C4.82371 20.7674 5.33685 21.188 5.55344 21.7603H7.27768C7.00155 20.3347 5.7672 19.2705 4.16685 19.2705C2.34537 19.2705 0.980042 20.6664 0.980042 22.3849V22.4019C0.980042 24.1217 2.32864 25.4998 4.14984 25.4998C5.70766 25.4998 6.92529 24.4762 7.24649 23.1044L5.51828 23.1041Z" fill="white"/>
</g>
</svg>
