<svg width="15" height="16" viewBox="0 0 15 16" fill="none" xmlns="http://www.w3.org/2000/svg">
<path d="M0.660831 0.872355C0.830768 0.702469 1.06122 0.607032 1.30151 0.607032C1.54181 0.607032 1.77226 0.702469 1.9422 0.872355L7.64491 6.57507L13.3476 0.872355C13.4312 0.785804 13.5312 0.716768 13.6418 0.669275C13.7523 0.621782 13.8713 0.596783 13.9916 0.595737C14.1119 0.594692 14.2312 0.61762 14.3426 0.663185C14.454 0.708749 14.5551 0.776037 14.6402 0.861123C14.7253 0.946209 14.7926 1.04739 14.8382 1.15876C14.8837 1.27012 14.9067 1.38945 14.9056 1.50978C14.9046 1.6301 14.8796 1.74901 14.8321 1.85957C14.7846 1.97013 14.7155 2.07013 14.629 2.15372L8.92628 7.85644L14.629 13.5592C14.7941 13.7301 14.8854 13.959 14.8833 14.1966C14.8813 14.4342 14.786 14.6615 14.618 14.8295C14.4499 14.9975 14.2227 15.0928 13.9851 15.0949C13.7474 15.0969 13.5185 15.0056 13.3476 14.8405L7.64491 9.1378L1.9422 14.8405C1.77129 15.0056 1.54238 15.0969 1.30478 15.0949C1.06717 15.0928 0.839887 14.9975 0.67187 14.8295C0.503853 14.6615 0.408549 14.4342 0.406484 14.1966C0.404419 13.959 0.495759 13.7301 0.660831 13.5592L6.36355 7.85644L0.660831 2.15372C0.490945 1.98378 0.395508 1.75333 0.395508 1.51304C0.395508 1.27275 0.490945 1.04229 0.660831 0.872355Z" fill="white"/>
</svg>
