<svg width="12" height="12" viewBox="0 0 12 12" fill="none" xmlns="http://www.w3.org/2000/svg">
<path d="M9.84687 1.89536H2.0334C1.78923 1.91164 1.659 2.04186 1.64272 2.28604V10.0995C1.659 10.3437 1.78923 10.4739 2.0334 10.4902H9.84687C10.091 10.4739 10.2213 10.3437 10.2375 10.0995V2.28604C10.2213 2.04186 10.091 1.91164 9.84687 1.89536ZM2.0334 0.72334H9.84687C10.2864 0.739618 10.6526 0.89426 10.9456 1.18727C11.2387 1.48027 11.3933 1.84653 11.4096 2.28604V10.0995C11.3933 10.539 11.2387 10.9053 10.9456 11.1983C10.6526 11.4913 10.2864 11.6459 9.84687 11.6622H2.0334C1.59389 11.6459 1.22763 11.4913 0.934628 11.1983C0.641623 10.9053 0.486981 10.539 0.470703 10.0995V2.28604C0.486981 1.84653 0.641623 1.48027 0.934628 1.18727C1.22763 0.89426 1.59389 0.739618 2.0334 0.72334Z" fill="#D7D7D8"/>
</svg>
