<svg width="35" height="31" viewBox="0 0 35 31" fill="none" xmlns="http://www.w3.org/2000/svg">
<path d="M11.0219 3.04102C11.2563 7.68945 11.8031 11.2051 12.6625 13.5879C13.5219 15.9707 14.3813 17.5723 15.2406 18.3926C16.0609 19.2129 16.7055 19.6816 17.1742 19.7988C17.2914 19.8379 17.3891 19.8574 17.4672 19.8574C17.4672 19.8965 17.4867 19.916 17.5258 19.916C17.6039 19.877 17.7211 19.8379 17.8773 19.7988C18.3461 19.6816 18.9906 19.2129 19.8109 18.3926C20.6703 17.5723 21.5297 15.9707 22.3891 13.5879C23.2484 11.2051 23.7953 7.68945 24.0297 3.04102H11.0219ZM10.9633 0.228516H24.0883H10.9633H24.0883C24.8695 0.267578 25.5336 0.541016 26.0805 1.04883C26.5883 1.5957 26.8422 2.25977 26.8422 3.04102C26.8422 3.35352 26.8227 3.66602 26.7836 3.97852H32.9945C33.8539 4.05664 34.3227 4.52539 34.4008 5.38477C34.3617 8.54883 33.7758 11.1855 32.643 13.2949C31.5102 15.4043 30.1234 17.084 28.4828 18.334C26.8422 19.5059 25.2211 20.3848 23.6195 20.9707C22.057 21.5176 20.7484 21.8691 19.6938 22.0254C19.4203 22.1816 19.1664 22.2988 18.932 22.377V27.416H23.6195C24.4789 27.4941 24.9477 27.9629 25.0258 28.8223C24.9477 29.6816 24.4789 30.1504 23.6195 30.2285H17.5258H11.432C10.5727 30.1504 10.1039 29.6816 10.0258 28.8223C10.1039 27.9629 10.5727 27.4941 11.432 27.416H16.1195V22.377C15.8852 22.2988 15.6313 22.1816 15.3578 22.0254C14.3031 21.8691 12.9945 21.5176 11.432 20.9707C9.83047 20.3848 8.20938 19.5059 6.56875 18.334C4.92813 17.084 3.54141 15.4043 2.40859 13.2949C1.27578 11.1855 0.689844 8.54883 0.650782 5.38477C0.728907 4.52539 1.19766 4.05664 2.05703 3.97852H8.26797C8.22891 3.66602 8.20938 3.35352 8.20938 3.04102C8.20938 2.25977 8.46328 1.5957 8.97109 1.04883C9.51797 0.541016 10.182 0.267578 10.9633 0.228516ZM23.5609 17.9824C24.6156 17.5137 25.6703 16.8887 26.725 16.1074C27.9359 15.1699 28.9906 13.959 29.8891 12.4746C30.7875 10.9512 31.3344 9.05664 31.5297 6.79102H26.6078C26.3344 9.4082 25.9242 11.6348 25.3773 13.4707C24.8305 15.3066 24.225 16.8105 23.5609 17.9824ZM8.32656 16.1074C9.38125 16.8887 10.4359 17.5137 11.4906 17.9824C10.8266 16.8105 10.2211 15.3066 9.67422 13.4707C9.12734 11.6348 8.71719 9.4082 8.44375 6.79102H3.52188C3.71719 9.05664 4.26406 10.9512 5.1625 12.4746C6.06094 13.959 7.11563 15.1699 8.32656 16.1074ZM17.9359 6.26367L18.8148 7.96289L17.9359 6.26367L18.8148 7.96289C18.893 8.11914 19.0102 8.19727 19.1664 8.19727L21.0414 8.49023C21.4711 8.64648 21.5688 8.91992 21.3344 9.31055L19.9281 10.5996C19.8109 10.7168 19.7719 10.8535 19.8109 11.0098L20.1039 12.9434C20.1039 13.373 19.8891 13.5293 19.4594 13.4121L17.7602 12.5332C17.6039 12.4551 17.4477 12.4551 17.2914 12.5332L15.5922 13.4121C15.1625 13.5293 14.9477 13.373 14.9477 12.9434L15.2406 11.0098C15.2797 10.8535 15.2406 10.7168 15.1234 10.5996L13.7758 9.31055C13.5023 8.91992 13.5805 8.64648 14.0102 8.49023L15.8852 8.19727C16.0414 8.19727 16.1586 8.11914 16.2367 7.96289L17.1156 6.26367C17.3891 5.91211 17.6625 5.91211 17.9359 6.26367Z" fill="#2583D5"/>
</svg>
