<svg width="14" height="11" viewBox="0 0 14 11" fill="none" xmlns="http://www.w3.org/2000/svg">
<path d="M4.50215 1.15703L2.73028 3.12578C2.61543 3.24062 2.47598 3.30625 2.31192 3.32266C2.13145 3.32266 1.98379 3.26523 1.86895 3.15039L0.884574 2.16602C0.654887 1.88711 0.654887 1.6082 0.884574 1.3293C1.16348 1.09961 1.44239 1.09961 1.72129 1.3293L2.2627 1.8707L3.61621 0.369531C3.87871 0.123437 4.15762 0.107031 4.45293 0.320312C4.69903 0.582812 4.71543 0.861718 4.50215 1.15703ZM4.50215 5.09453L2.73028 7.06328C2.61543 7.17812 2.47598 7.24375 2.31192 7.26016C2.13145 7.26016 1.98379 7.20273 1.86895 7.08789L0.884574 6.10352C0.654887 5.82461 0.654887 5.5457 0.884574 5.2668C1.16348 5.03711 1.44239 5.03711 1.72129 5.2668L2.2627 5.8082L3.61621 4.30703C3.87871 4.06094 4.15762 4.04453 4.45293 4.25781C4.69903 4.52031 4.71543 4.79922 4.50215 5.09453ZM6.02793 2.33828C5.667 2.30547 5.47012 2.10859 5.43731 1.74766C5.47012 1.38672 5.667 1.18984 6.02793 1.15703H12.7217C13.0826 1.18984 13.2795 1.38672 13.3123 1.74766C13.2795 2.10859 13.0826 2.30547 12.7217 2.33828H6.02793H12.7217H6.02793ZM5.43731 5.68516C5.47012 5.32422 5.667 5.12734 6.02793 5.09453H12.7217C13.0826 5.12734 13.2795 5.32422 13.3123 5.68516C13.2795 6.04609 13.0826 6.24297 12.7217 6.27578H6.02793C5.667 6.24297 5.47012 6.04609 5.43731 5.68516ZM4.64981 9.62266C4.68262 9.26172 4.8795 9.06484 5.24043 9.03203H12.7217C13.0826 9.06484 13.2795 9.26172 13.3123 9.62266C13.2795 9.98359 13.0826 10.1805 12.7217 10.2133H5.24043C4.8795 10.1805 4.68262 9.98359 4.64981 9.62266ZM3.07481 9.62266C3.07481 9.85234 3.00098 10.041 2.85332 10.1887C2.70567 10.3363 2.517 10.4102 2.28731 10.4102C2.05762 10.4102 1.86895 10.3363 1.72129 10.1887C1.57364 10.041 1.49981 9.85234 1.49981 9.62266C1.49981 9.39297 1.57364 9.2043 1.72129 9.05664C1.86895 8.90898 2.05762 8.83516 2.28731 8.83516C2.517 8.83516 2.70567 8.90898 2.85332 9.05664C3.00098 9.2043 3.07481 9.39297 3.07481 9.62266Z" fill="#BBBBBB"/>
</svg>
