<svg width="319" height="111" viewBox="0 0 319 111" fill="none" xmlns="http://www.w3.org/2000/svg">
<g opacity="0.5" clip-path="url(#clip0_190_25446)">
<g clip-path="url(#clip1_190_25446)">
<g clip-path="url(#clip2_190_25446)">
<path d="M1.94141 109.459H2.0572H2.173H2.28879H2.40458H2.52038H2.63617H2.75196H2.86776H2.98355H3.09934H3.21514H3.33093H3.44672H3.56252H3.67831H3.7941H3.9099H4.02569H4.14148H4.25728H4.37307H4.48886H4.60466H4.72045H4.83624H4.95204H5.06783H5.18362H5.29942H5.41521H5.531H5.6468H5.76259H5.87838H5.99418H6.10997H6.22576H6.34156H6.45735H6.57314H6.68894H6.80473H6.92052H7.03632H7.15211H7.2679H7.3837H7.49949H7.61528H7.73108H7.84687H7.96266H8.07846H8.19425H8.31004H8.42584H8.54163H8.65742H8.77322H8.88901H9.0048H9.1206H9.23639H9.35218H9.46798H9.58377H9.69956H9.81536H9.93115H10.0469H10.1627H10.2785H10.3943H10.5101H10.6259H10.7417H10.8575H10.9733H11.0891H11.2049H11.3207H11.4365H11.5522H11.668H11.7838H11.8996H12.0154H12.1312H12.247H12.3628H12.4786H12.5944H12.7102H12.826H12.9418L13.0576 109.457L13.1734 109.458H13.2891L13.4049 109.459H13.5207L13.6365 109.458L13.7523 109.456H13.8681L13.9839 109.457L14.0997 109.459H14.2155H14.3313H14.4471H14.5629H14.6787H14.7945H14.9103H15.026H15.1418H15.2576H15.3734H15.4892H15.605H15.7208H15.8366H15.9524H16.0682H16.184H16.2998H16.4156H16.5314L16.6472 109.458H16.7629L16.8787 109.459H16.9945H17.1103H17.2261L17.3419 109.458L17.4577 109.459H17.5735H17.6893H17.8051H17.9209H18.0367H18.1525H18.2683H18.3841H18.4998H18.6156H18.7314H18.8472H18.963H19.0788H19.1946H19.3104H19.4262H19.542H19.6578H19.7736H19.8894H20.0052H20.121H20.2367H20.3525H20.4683H20.5841H20.6999L20.8157 109.458L20.9315 109.459H21.0473H21.1631H21.2789H21.3947L21.5105 109.458L21.6263 109.459H21.7421H21.8579H21.9736H22.0894H22.2052H22.321H22.4368H22.5526H22.6684H22.7842H22.9L23.0158 109.382L23.1316 109.442L23.2474 109.458L23.3632 109.459L23.479 109.458L23.5948 109.447L23.7105 109.457L23.8263 109.458H23.9421H24.0579L24.1737 109.457H24.2895L24.4053 109.459L24.5211 109.458L24.6369 109.455L24.7527 109.458L24.8685 109.459H24.9843L25.1001 109.457L25.2159 109.458L25.3317 109.457L25.4474 109.458L25.5632 109.459H25.679H25.7948L25.9106 109.457L26.0264 109.456L26.1422 109.457H26.258L26.3738 109.456L26.4896 109.458H26.6054L26.7212 109.456H26.837H26.9528L27.0686 109.457L27.1843 109.449L27.3001 109.458L27.4159 109.457H27.5317L27.6475 109.454L27.7633 109.456H27.8791L27.9949 109.454L28.1107 109.455L28.2265 109.457L28.3423 109.456L28.4581 109.457H28.5739H28.6897H28.8055H28.9212L29.037 109.454L29.1528 109.435L29.2686 109.234L29.3844 109.393L29.5002 109.1L29.616 109.301L29.7318 109.056L29.8476 109.422L29.9634 109.15L30.0792 109.409L30.195 109.258L30.3108 109.417L30.4266 109.221L30.5424 109.425L30.6581 109.421L30.7739 109.209L30.8897 109.007L31.0055 109.375L31.1213 109.301L31.2371 109.159L31.3529 109.371L31.4687 109.421L31.5845 109.425L31.7003 109.293L31.8161 109.344L31.9319 109.368L32.0477 109.113L32.1635 109.441L32.2793 109.443L32.395 109.36L32.5108 109.379H32.6266L32.7424 109.395L32.8582 109.442L32.974 109.447L33.0898 109.304L33.2056 109.242L33.3214 109.402L33.4372 109.437L33.553 109.355L33.6688 109.365L33.7846 109.431L33.9004 109.358L34.0162 109.441L34.1319 109.436L34.2477 109.368L34.3635 109.429L34.4793 109.163L34.5951 109.435L34.7109 109.357L34.8267 109.434L34.9425 109.428L35.0583 109.434L35.1741 109.34L35.2899 109.439L35.4057 109.35L35.5215 109.442L35.6373 109.371L35.7531 109.437L35.8688 109.383L35.9846 109.415L36.1004 109.443L36.2162 109.381L36.332 109.448L36.4478 109.447L36.5636 109.44L36.6794 109.441L36.7952 109.439L36.911 109.434L37.0268 108.646L37.1426 109.173L37.2584 109.288L37.3742 109.332L37.49 109.355L37.6057 109.384L37.7215 109.387L37.8373 109.398L37.9531 109.39L38.0689 109.388L38.1847 109.376L38.3005 109.338L38.4163 109.37L38.5321 109.376H38.6479L38.7637 109.383L38.8795 109.334L38.9953 109.295L39.1111 109.34L39.2269 109.361L39.3426 108.066L39.4584 109.16L39.5742 109.311L39.69 109.337L39.8058 109.107L39.9216 109.222L40.0374 109.4L40.1532 109.393L40.269 109.411L40.3848 109.384L40.5006 109.4L40.6164 109.387L40.7322 109.392L40.848 109.407L40.9638 109.419L41.0795 109.414L41.1953 109.417L41.3111 109.413L41.4269 109.398L41.5427 109.419L41.6585 109.422L41.7743 109.42L41.8901 109.397L42.0059 109.43L42.1217 109.394L42.2375 109.42L42.3533 109.419L42.4691 109.265L42.5849 109.392L42.7007 109.394L42.8164 109.421L42.9322 109.337L43.048 109.402L43.1638 109.257L43.2796 109.301L43.3954 109.348L43.5112 109.361L43.627 109.319L43.7428 109.354L43.8586 109.369L43.9744 109.382L44.0902 109.037L44.206 109.265L44.3218 109.313L44.4376 109.418L44.5533 109.399L44.6691 109.397L44.7849 109.422L44.9007 109.421L45.0165 109.428L45.1323 109.436L45.2481 109.387L45.3639 108.478L45.4797 109.336L45.5955 109.418L45.7113 109.429L45.8271 109.415L45.9429 109.436L46.0587 109.439L46.1745 109.421L46.2902 109.366L46.406 109.435L46.5218 109.442L46.6376 109.435L46.7534 109.439L46.8692 109.423L46.985 109.41L47.1008 109.406L47.2166 109.417L47.3324 109.423L47.4482 109.421L47.564 109.43L47.6798 109.42L47.7956 109.431L47.9114 109.434L48.0271 109.431L48.1429 109.433L48.2587 109.414L48.3745 109.439L48.4903 109.435L48.6061 109.433L48.7219 109.407L48.8377 109.43L48.9535 109.427L49.0693 109.439H49.1851L49.3009 109.438L49.4167 109.422L49.5325 109.428L49.6483 109.422L49.764 109.424L49.8798 109.414L49.9956 109.387L50.1114 109.437L50.2272 109.438L50.343 109.383L50.4588 109.362L50.5746 109.436L50.6904 109.444L50.8062 109.441L50.922 109.43L51.0378 109.445L51.1536 109.438L51.2694 109.436L51.3852 109.432L51.5009 109.438L51.6167 109.443L51.7325 109.427L51.8483 109.406L51.9641 109.029L52.0799 109.298L52.1957 109.353L52.3115 109.382L52.4273 109.399L52.5431 109.406L52.6589 109.393L52.7747 109.391L52.8905 109.413L53.0063 109.444L53.1221 109.44L53.2378 109.451L53.3536 109.449L53.4694 109.426L53.5852 109.421L53.701 109.327L53.8168 109.423L53.9326 109.238L54.0484 109.406L54.1642 109.416L54.28 109.295L54.3958 109.276L54.5116 109.332L54.6274 109.31L54.7432 109.237L54.859 109.191L54.9747 109.248L55.0905 109.385L55.2063 109.056L55.3221 109.402L55.4379 109.412L55.5537 109.428L55.6695 109.425L55.7853 109.43L55.9011 109.425L56.0169 109.42L56.1327 109.418L56.2485 109.424L56.3643 109.36L56.4801 109.387L56.5959 109.35L56.7116 109.332L56.8274 109.358L56.9432 109.382L57.059 109.403L57.1748 109.406L57.2906 109.414L57.4064 109.408L57.5222 109.405L57.638 109.262L57.7538 109.427L57.8696 109.436L57.9854 109.434L58.1012 109.384L58.217 109.436L58.3328 109.413L58.4485 109.344L58.5643 109.417L58.6801 109.416L58.7959 109.335L58.9117 109.429L59.0275 109.425L59.1433 109.4L59.2591 109.382L59.3749 109.126L59.4907 109.404L59.6065 109.409L59.7223 109.318L59.8381 109.4L59.9539 109.407L60.0697 109.374L60.1854 109.283L60.3012 109.339L60.417 109.414L60.5328 109.424L60.6486 109.418L60.7644 109.296L60.8802 109.386L60.996 109.065L61.1118 109.185L61.2276 109.318L61.3434 109.419L61.4592 109.418L61.575 109.412L61.6908 109.249L61.8066 109.352L61.9224 109.319L62.0381 109.31L62.1539 109.417L62.2697 109.423L62.3855 109.409L62.5013 109.233L62.6171 109.33L62.7329 109.269L62.8487 109.311L62.9645 109.323L63.0803 109.332L63.1961 109.356L63.3119 109.251L63.4277 109.373L63.5435 109.295L63.6592 109.27L63.775 109.365L63.8908 109.352L64.0066 109.393L64.1224 109.247L64.2382 109.373L64.354 109.29L64.4698 109.273L64.5856 109.356L64.7014 109.33L64.8172 109.358L64.933 109.184L65.0488 109.269L65.1646 109.247L65.2804 109.248L65.3961 109.342L65.5119 109.35L65.6277 109.39L65.7435 109.23L65.8593 109.21L65.9751 109.28L66.0909 109.249L66.2067 109.344L66.3225 109.323L66.4383 109.38L66.5541 109.226L66.6699 109.282L66.7857 109.269L66.9015 109.278L67.0173 109.338L67.133 109.323L67.2488 109.364L67.3646 109.224L67.4804 109.293L67.5962 109.373L67.712 109.391L67.8278 109.231L67.9436 109.378L68.0594 109.363L68.1752 108.526L68.291 109.128L68.4068 109.26L68.5226 109.237L68.6384 109.182L68.7542 109.308L68.8699 109.313L68.9857 109.171L69.1015 109.287L69.2173 109.197L69.3331 109.202L69.4489 109.324L69.5647 109.327L69.6805 109.368L69.7963 109.239L69.9121 109.303L70.0279 109.189L70.1437 109.226L70.2595 109.275L70.3753 109.287L70.4911 109.284L70.6068 109.186L70.7226 109.189L70.8384 109.099L70.9542 109.137L71.07 109.139L71.1858 109.258L71.3016 109.28L71.4174 109.097L71.5332 109.223L71.649 109.139L71.7648 109.141L71.8806 109.195L71.9964 109.227L72.1122 109.161L72.228 109.098L72.3437 108.554L72.4595 108.769L72.5753 109.008L72.6911 109.176L72.8069 109.208L72.9227 109.24L73.0385 109.115L73.1543 109.176L73.2701 109.073L73.3859 109.113L73.5017 109.161L73.6175 109.209L73.7333 109.257L73.8491 109.102L73.9649 109.215L74.0807 108.84L74.1964 109.117L74.3122 109.172L74.428 109.203L74.5438 109.233L74.6596 108.87L74.7754 108.659L74.8912 109.006L75.007 108.964L75.1228 109.1L75.2386 109.133L75.3544 109.102L75.4702 108.873L75.586 108.955L75.7018 108.377L75.8175 108.126L75.9333 108.82L76.0491 108.649L76.1649 108L76.2807 108.222L76.3965 108.435L76.5123 108.447L76.6281 108.766L76.7439 108.664L76.8597 108.836L76.9755 108.686L77.0913 108.698L77.2071 108.734L77.3229 108.692L77.4387 108.81L77.5544 108.584L77.6702 108.949L77.786 108.619L77.9018 108.874L78.0176 108.308L78.1334 108.524L78.2492 108.596L78.365 108.609L78.4808 108.555L78.5966 108.721L78.7124 108.394L78.8282 108.267L78.944 108.493L79.0598 108.697L79.1756 108.802L79.2913 108.613L79.4071 108.698L79.5229 108.51L79.6387 108.593L79.7545 108.486L79.8703 107.709L79.9861 108.408L80.1019 108.29L80.2177 108.247L80.3335 108.249L80.4493 107.764L80.5651 108.142L80.6809 107.355L80.7967 108.176L80.9125 108.299L81.0282 106.075L81.144 107.848L81.2598 107.981L81.3756 107.706L81.4914 107.646L81.6072 107.65L81.723 108.169L81.8388 106.849L81.9546 106.842L82.0704 107.406L82.1862 107.644L82.302 107.274L82.4178 107.926L82.5336 107.741L82.6494 107.822L82.7651 107.537L82.8809 106.734L82.9967 106.34L83.1125 107.489L83.2283 107.298L83.3441 106.538L83.4599 105.699L83.5757 106.52L83.6915 105.934L83.8073 105.693L83.9231 104.92L84.0389 106.074L84.1547 106.317L84.2705 105.568L84.3863 105.822L84.502 105.612L84.6178 106.499L84.7336 106.792L84.8494 106.638L84.9652 106.347L85.081 106.488L85.1968 106.873L85.3126 106.11L85.4284 106.702L85.5442 106.864L85.66 106.652L85.7758 106.155L85.8916 105.829L86.0074 106.21L86.1232 106.787L86.2389 106.808L86.3547 106.137L86.4705 107.535L86.5863 107.268L86.7021 106.243L86.8179 107.245L86.9337 106.664L87.0495 106.569L87.1653 106.508L87.2811 105.661L87.3969 104.919L87.5127 105.761L87.6285 105.465L87.7443 106.338L87.8601 104.512L87.9758 103.662L88.0916 103.679L88.2074 104.652L88.3232 103.469L88.439 102.214L88.5548 102.823L88.6706 103.418L88.7864 103.991L88.9022 104.124L89.018 105.139L89.1338 103.629L89.2496 103.18L89.3654 104.701L89.4812 103.709L89.597 103.827L89.7127 104.347L89.8285 104.026L89.9443 103.813L90.0601 102.652L90.1759 102.452L90.2917 104.12L90.4075 103.35L90.5233 103.944L90.6391 104.289L90.7549 102.044L90.8707 101.041L90.9865 99.1343L91.1023 100.073L91.2181 99.0515L91.3339 101.259L91.4496 103.265L91.5654 102.962L91.6812 101.685L91.797 101.549L91.9128 100.925L92.0286 100.042L92.1444 101.342L92.2602 99.0459L92.376 98.9602L92.4918 99.5682L92.6076 102.286L92.7234 99.9834L92.8392 101.211L92.955 102.589L93.0708 104.616L93.1865 102.988L93.3023 102.085L93.4181 102.218L93.5339 102.241L93.6497 103.901L93.7655 104.386L93.8813 104.31L93.9971 104.095L94.1129 103.853L94.2287 104.892L94.3445 104.814L94.4603 104.566L94.5761 104.115L94.6919 103.734L94.8077 103.68L94.9234 102.497L95.0392 103.758L95.155 102.604L95.2708 102.442L95.3866 102.885L95.5024 103.554L95.6182 98.8005L95.734 97.6242L95.8498 100.388L95.9656 100.024L96.0814 99.4432L96.1972 102.786L96.313 104.574L96.4288 98.1266L96.5446 98.9046L96.6604 97.9933L96.7761 95.7489L96.8919 93.7684L97.0077 91.6115L97.1235 90.8888L97.2393 90.6847L97.3551 91.8592L97.4709 93.0817L97.5867 90.9273L97.7025 87.8824L97.8183 92.2584L97.9341 98.1948L98.0499 98.586L98.1657 98.1102L98.2815 99.2468L98.3973 101.27L98.513 100.022L98.6288 93.4685L98.7446 94.3672L98.8604 94.3982L98.9762 95.634L99.092 99.0261L99.2078 98.6122L99.3236 98.9373L99.4394 92.5282L99.5552 94.3193L99.671 95.2952L99.7868 96.0839L99.9026 97.9054L100.018 98.4908L100.134 97.3435L100.25 93.9844L100.366 98.3837L100.482 30.8701L100.597 92.0561L100.713 96.1893L100.829 98.9694L100.944 98.3811L101.06 97.0169L101.176 99.1169L101.292 102.139L101.407 103.01L101.523 104.168L101.639 104.473L101.755 101.379L101.871 100.653L101.986 101.545L102.102 101.03L102.218 98.628L102.334 97.914L102.45 98.4552L102.565 99.5247L102.681 96.7809L102.797 96.8378L102.913 95.4286L103.029 94.2968L103.144 97.4173L103.26 92.4199L103.376 93.7822L103.492 91.9559L103.608 98.3956L103.723 96.7673L103.839 92.9332L103.955 89.3853L104.071 90.8914L104.187 94.0956L104.302 97.9423L104.418 96.677L104.534 96.6301L104.65 94.5546L104.765 95.547L104.881 98.1108L104.997 96.7393L105.113 96.0252L105.229 94.7272L105.344 94.7894L105.46 95.6021L105.576 96.0577L105.692 95.5076L105.808 94.1271L105.923 95.2894L106.039 94.3229L106.155 94.5645L106.271 94.2677L106.387 94.7121L106.502 93.6161L106.618 94.1471L106.734 91.4551L106.85 93.8815L106.966 93.5782L107.081 92.3435L107.197 90.9597L107.313 89.1483L107.429 88.7448L107.545 94.0348L107.66 93.8253L107.776 95.5518L107.892 93.8798L108.008 91.6295L108.123 93.0211L108.239 92.9565L108.355 95.2155L108.471 91.6897L108.587 93.607L108.702 92.1109L108.818 93.9607L108.934 95.4465L109.05 93.363L109.166 90.9835L109.281 89.4743L109.397 90.1951L109.513 91.8277L109.629 93.3523L109.745 91.2501L109.86 91.2889L109.976 89.9085L110.092 88.8415L110.208 88.2972L110.324 83.8338L110.439 85.7651L110.555 83.8271L110.671 83.0991L110.787 81.9814L110.903 86.0764L111.018 89.5011L111.134 89.9386L111.25 84.6671L111.366 87.7529L111.481 83.5535L111.597 86.4884L111.713 87.6792L111.829 85.7342L111.945 89.0656L112.06 88.4452L112.176 85.6525L112.292 83.8433L112.408 90.7359L112.524 87.7903L112.639 80.8436L112.755 83.5609L112.871 86.3271L112.987 80.5103L113.103 84.4171L113.218 85.6128L113.334 84.2588L113.45 84.7584L113.566 86.6588L113.682 88.8497L113.797 92.644L113.913 90.0897L114.029 90.8002L114.145 91.9184L114.261 90.3076L114.376 89.6403L114.492 88.6156L114.608 89.2548L114.724 88.1141L114.839 90.0586L114.955 87.8697L115.071 87.9287L115.187 87.7575L115.303 92.2548L115.418 88.3373L115.534 90.771L115.65 86.0932L115.766 87.5675L115.882 86.3649L115.997 83.216L116.113 79.9244L116.229 83.2513L116.345 84.4944L116.461 89.9925L116.576 88.8547L116.692 86.1008L116.808 84.5514L116.924 81.3514L117.04 75.4222L117.155 74.1553L117.271 86.9362L117.387 82.0063L117.503 87.0052L117.619 83.8011L117.734 82.4778L117.85 77.5974L117.966 81.1906L118.082 83.0372L118.198 86.5088L118.313 83.7753L118.429 79.8734L118.545 74.1786L118.661 74.9576L118.776 85.3984L118.892 70.5237L119.008 70.1414L119.124 81.9783L119.24 83.6141L119.355 79.6528L119.471 81.4307L119.587 79.3016L119.703 76.856L119.819 77.0242L119.934 84.2668L120.05 79.1537L120.166 79.0643L120.282 81.2709L120.398 81.0488L120.513 81.1359L120.629 78.1083L120.745 78.8222L120.861 82.0515L120.977 79.5215L121.092 80.1854L121.208 79.3474L121.324 78.0049L121.44 79.8578L121.556 82.3826L121.671 79.8377L121.787 82.8292L121.903 83.4794L122.019 76.8121L122.134 75.4142L122.25 76.5205L122.366 77.934L122.482 78.6891L122.598 81.1591L122.713 82.0005L122.829 72.723L122.945 75.6879L123.061 76.3035L123.177 82.2904L123.292 81.1363L123.408 69.6142L123.524 76.9836L123.64 83.6183L123.756 1.45898L123.871 82.752L123.987 80.403L124.103 76.9916L124.219 76.6473L124.335 80.0933L124.45 77.1912L124.566 80.623L124.682 80.8597L124.798 77.3072L124.914 73.7284L125.029 70.9256L125.145 72.3534L125.261 78.0054L125.377 55.7812L125.492 47.9577L125.608 44.2296L125.724 48.6538L125.84 45.5976L125.956 48.4183L126.071 39.3928L126.187 40.5859L126.303 61.0685L126.419 60.924L126.535 63.5356L126.65 54.6009L126.766 48.5664L126.882 44.579L126.998 34.828L127.114 38.4037L127.229 71.5403L127.345 71.4907L127.461 75.9387L127.577 76.6805L127.693 85.0334L127.808 86.6295L127.924 76.4449L128.04 79.2448L128.156 78.4385L128.272 78.0683L128.387 76.886L128.503 79.2177L128.619 85.2718L128.735 78.5836L128.85 75.1747L128.966 77.3472L129.082 76.7996L129.198 76.9862L129.314 76.1018L129.429 74.1863L129.545 74.4008L129.661 75.6948L129.777 90.0684L129.893 100.175L130.008 100.397L130.124 94.4364L130.24 81.4627L130.356 80.4138L130.472 80.6466L130.587 81.5877L130.703 81.5894L130.819 80.9578L130.935 89.9236L131.051 77.0596L131.166 81.7326L131.282 79.8883L131.398 75.6451L131.514 81.9521L131.63 79.7924L131.745 80.1351L131.861 77.2707L131.977 82.1483L132.093 66.9865L132.209 71.1377L132.324 77.2201L132.44 78.5801L132.556 81.927L132.672 82.2639L132.787 81.2642L132.903 82.245L133.019 84.9944L133.135 84.8096L133.251 78.373L133.366 65.5143L133.482 83.2644L133.598 85.7333L133.714 85.1659L133.83 84.3756L133.945 84.3593L134.061 83.056L134.177 78.3768L134.293 78.8521L134.409 78.4035L134.524 78.6191L134.64 79.9761L134.756 93.0258L134.872 80.5151L134.988 83.2532L135.103 82.0359L135.219 81.2945L135.335 80.1311L135.451 77.9722L135.567 77.0035L135.682 78.5511L135.798 82.2136L135.914 90.8196L136.03 82.3802L136.145 81.2488L136.261 84.2057L136.377 82.5647L136.493 80.3328L136.609 80.7778L136.724 83.9319L136.84 88.5996L136.956 87.612L137.072 83.3962L137.188 91.3832L137.303 88.8912L137.419 63.2216L137.535 86.1016L137.651 86.2986L137.767 88.0646L137.882 87.2979L137.998 88.1395L138.114 81.2957L138.23 85.1253L138.346 81.4053L138.461 85.3787L138.577 82.3198L138.693 85.2413L138.809 89.1985L138.925 86.9296L139.04 87.2784L139.156 85.1484L139.272 82.82L139.388 84.1848L139.503 83.3L139.619 83.1285L139.735 83.7134L139.851 85.8438L139.967 85.5998L140.082 89.6116L140.198 90.8094L140.314 84.6363L140.43 87.1689L140.546 86.385L140.661 87.3822L140.777 85.5239L140.893 80.2329L141.009 86.2789L141.125 88.867L141.24 88.0541L141.356 92.3892L141.472 90.1369L141.588 90.2405L141.704 91.6203L141.819 90.5342L141.935 89.2081L142.051 86.2362L142.167 86.7601L142.283 89.0202L142.398 90.0575L142.514 89.0302L142.63 87.546L142.746 85.0643L142.861 86.8438L142.977 88.9644L143.093 82.8836L143.209 91.5082L143.325 90.9204L143.44 88.7473L143.556 89.2064L143.672 86.9127L143.788 85.8543L143.904 88.8786L144.019 87.5383L144.135 87.0974L144.251 81.2865L144.367 83.0195L144.483 82.4042L144.598 85.363L144.714 86.5026L144.83 85.9748L144.946 82.6095L145.062 85.0222L145.177 85.5883L145.293 86.2364L145.409 84.8292L145.525 86.159L145.641 86.1114L145.756 89.1557L145.872 85.0712L145.988 88.5961L146.104 83.9534L146.22 81.0724L146.335 79.9741L146.451 84.175L146.567 87.4974L146.683 81.09L146.798 88.7837L146.914 83.7704L147.03 84.6158L147.146 86.7433L147.262 87.1351L147.377 88.4121L147.493 86.0032L147.609 87.2248L147.725 87.4076L147.841 85.856L147.956 86.8198L148.072 91.0872L148.188 89.8646L148.304 90.9049L148.42 91.1266L148.535 90.5479L148.651 88.0589L148.767 86.4584L148.883 85.6374L148.999 83.6436L149.114 82.9516L149.23 79.4621L149.346 89.1496L149.462 87.1306L149.578 87.116L149.693 86.0703L149.809 88.5608L149.925 88.0785L150.041 84.4824L150.156 86.2542L150.272 86.8421L150.388 88.2499L150.504 89.2163L150.62 91.7595L150.735 90.2276L150.851 93.6137L150.967 92.7988L151.083 92.5664L151.199 90.9399L151.314 90.9474L151.43 94.4719L151.546 93.0464L151.662 90.7664L151.778 88.5218L151.893 87.8689L152.009 86.6946L152.125 90.346L152.241 90.087L152.357 88.2945L152.472 85.8652L152.588 84.2364L152.704 85.255L152.82 83.1471L152.936 84.1191L153.051 85.1951L153.167 85.916L153.283 88.2363L153.399 87.5359L153.514 82.7271L153.63 79.0425L153.746 84.2126L153.862 85.571L153.978 76.8469L154.093 79.8388L154.209 81.9753L154.325 83.9681L154.441 82.4876L154.557 86.0769L154.672 89.2766L154.788 84.9131L154.904 87.4184L155.02 81.1207L155.136 83.2106L155.251 83.7696L155.367 88.4132L155.483 91.2075L155.599 81.8704L155.715 75.836L155.83 81.8405L155.946 77.5903L156.062 79.7151L156.178 83.311L156.294 86.67L156.409 85.6295L156.525 84.3514L156.641 77.4188L156.757 83.9586L156.872 85.2704L156.988 78.4725L157.104 78.4931L157.22 79.4703L157.336 80.7456L157.451 81.959L157.567 80.8231L157.683 85.7551L157.799 89.6345L157.915 89.4184L158.03 84.6292L158.146 84.2913L158.262 84.6183L158.378 83.3841L158.494 83.0083L158.609 86.1642L158.725 86.1358L158.841 87.8295L158.957 84.0627L159.073 83.0154L159.188 78.58L159.304 81.8199L159.42 83.5586L159.536 80.5578L159.652 75.6701L159.767 77.4327L159.883 77.3231L159.999 84.6644L160.115 82.6719L160.23 88.7692L160.346 83.185L160.462 82.7274L160.578 78.487L160.694 81.0983L160.809 86.7454L160.925 82.004L161.041 84.8146L161.157 85.1165L161.273 82.7757L161.388 84.1444L161.504 84.5273L161.62 79.6321L161.736 72.8934L161.852 79.513L161.967 81.6486L162.083 77.2966L162.199 76.8329L162.315 75.7831L162.431 77.4117L162.546 79.4148L162.662 78.8094L162.778 76.3153L162.894 75.1964L163.01 78.4996L163.125 71.6874L163.241 75.319L163.357 72.7275L163.473 74.6326L163.588 80.0272L163.704 69.9055L163.82 73.8314L163.936 69.6433L164.052 73.6641L164.167 70.8647L164.283 68.4249L164.399 74.2709L164.515 74.0022L164.631 73.1793L164.746 74.2894L164.862 71.439L164.978 79.9752L165.094 67.6023L165.21 82.5098L165.325 64.8461L165.441 71.8711L165.557 82.4211L165.673 82.9799L165.789 76.1836L165.904 67.2487L166.02 77.5802L166.136 65.833L166.252 72.7719L166.368 72.4488L166.483 62.0702L166.599 79.1402L166.715 81.9595L166.831 79.0337L166.947 76.9873L167.062 67.441L167.178 79.9302L167.294 80.8769L167.41 62.3104L167.525 80.8493L167.641 77.3513L167.757 63.4493L167.873 64.7781L167.989 72.3499L168.104 75.4022L168.22 67.7031L168.336 71.0529L168.452 80.0569L168.568 72.8307L168.683 78.5765L168.799 80.7869L168.915 62.9998L169.031 79.1022L169.147 85.6118L169.262 82.0195L169.378 77.3186L169.494 57.4763L169.61 70.8508L169.726 80.6035L169.841 66.4192L169.957 74.5877L170.073 81.4819L170.189 77.2616L170.305 80.1027L170.42 61.952L170.536 55.3761L170.652 76.3544L170.768 82.3649L170.883 78.6557L170.999 81.0557L171.115 80.4227L171.231 75.0651L171.347 63.4206L171.462 70.9695L171.578 69.7845L171.694 79.6939L171.81 77.5941L171.926 78.7779L172.041 74.9222L172.157 70.5197L172.273 76.2358L172.389 82.8111L172.505 85.6007L172.62 78.7682L172.736 78.7816L172.852 79.0491L172.968 80.4151L173.084 77.8894L173.199 81.0212L173.315 81.8977L173.431 77.8234L173.547 77.4576L173.663 75.7175L173.778 76.6834L173.894 76.6431L174.01 79.382L174.126 77.9916L174.241 76.8058L174.357 74.9965L174.473 77.8987L174.589 77.5908L174.705 76.4862L174.82 78.5466L174.936 77.611L175.052 75.8536L175.168 76.045L175.284 75.8407L175.399 74.8525L175.515 75.4964L175.631 79.0137L175.747 78.4995L175.863 74.8094L175.978 79.0037L176.094 79.0126L176.21 76.972L176.326 81.6863L176.442 81.3068L176.557 82.524L176.673 77.8785L176.789 79.598L176.905 79.6043L177.021 79.3612L177.136 78.3573L177.252 84.8976L177.368 85.1804L177.484 81.0849L177.599 79.0662L177.715 81.0845L177.831 81.9975L177.947 81.437L178.063 83.1893L178.178 84.7732L178.294 80.5332L178.41 76.4713L178.526 71.3225L178.642 70.8245L178.757 69.7668L178.873 82.9258L178.989 68.8514L179.105 77.4745L179.221 75.4498L179.336 72.7011L179.452 76.5455L179.568 75.7784L179.684 77.9614L179.8 83.151L179.915 76.2551L180.031 76.9561L180.147 74.9962L180.263 75.2372L180.379 74.4067L180.494 79.0337L180.61 79.8005L180.726 75.7542L180.842 73.3076L180.957 72.8393L181.073 73.8996L181.189 75.5159L181.305 76.5197L181.421 78.6211L181.536 75.4808L181.652 77.0075L181.768 74.9698L181.884 71.8566L182 74.9897L182.115 83.0716L182.231 83.3561L182.347 78.3316L182.463 76.5033L182.579 76.8777L182.694 72.3589L182.81 77.8583L182.926 83.1928L183.042 81.9839L183.158 75.5064L183.273 77.2908L183.389 75.7077L183.505 76.5661L183.621 76.1038L183.737 81.7164L183.852 81.632L183.968 74.4953L184.084 73.1293L184.2 77.0548L184.315 72.7171L184.431 73.9001L184.547 80.333L184.663 80.6829L184.779 74.1527L184.894 76.9718L185.01 66.4469L185.126 55.9272L185.242 73.6013L185.358 72.7803L185.473 72.4441L185.589 71.0653L185.705 72.7085L185.821 69.9612L185.937 75.4627L186.052 81.4108L186.168 83.3608L186.284 72.8741L186.4 71.3495L186.516 71.5118L186.631 78.8794L186.747 77.4358L186.863 79.4126L186.979 82.621L187.095 83.6861L187.21 78.7589L187.326 79.0125L187.442 77.7265L187.558 79.719L187.674 80.4249L187.789 84.5391L187.905 84.2866L188.021 79.5824L188.137 80.5387L188.252 82.5219L188.368 82.261L188.484 81.1113L188.6 86.2676L188.716 88.108L188.831 82.1982L188.947 83.5387L189.063 86.4782L189.179 85.7727L189.295 80.9773L189.41 81.2614L189.526 82.8475L189.642 80.5067L189.758 78.9546L189.874 73.3301L189.989 81.6461L190.105 80.0312L190.221 84.9856L190.337 87.536L190.453 69.7379L190.568 77.3941L190.684 78.1146L190.8 77.2526L190.916 78.5906L191.032 75.5276L191.147 80.5949L191.263 82.0901L191.379 83.8289L191.495 84.8011L191.61 83.854L191.726 82.5679L191.842 87.6781L191.958 89.0805L192.074 85.4798L192.189 83.5627L192.305 83.9809L192.421 80.7003L192.537 76.9197L192.653 82.7986L192.768 84.4736L192.884 81.6515L193 86.4489L193.116 83.9608L193.232 83.8095L193.347 82.1669L193.463 78.329L193.579 79.6715L193.695 74.7841L193.811 78.508L193.926 71.5179L194.042 68.7529L194.158 65.5367L194.274 77.6071L194.39 80.5817L194.505 76.5193L194.621 77.0036L194.737 78.4164L194.853 78.2238L194.968 77.9593L195.084 82.3921L195.2 86.3026L195.316 80.5825L195.432 81.3558L195.547 77.9652L195.663 79.2797L195.779 79.6108L195.895 81.8236L196.011 82.3224L196.126 79.8928L196.242 81.4644L196.358 80.5509L196.474 75.542L196.59 80.1322L196.705 81.9097L196.821 80.6326L196.937 75.4983L197.053 73.6915L197.169 75.9445L197.284 76.4947L197.4 73.7259L197.516 76.367L197.632 79.6645L197.748 75.1089L197.863 74.369L197.979 72.7728L198.095 65.8657L198.211 69.9502L198.327 66.9834L198.442 71.7255L198.558 70.7546L198.674 68.8435L198.79 72.8448L198.905 73.8274L199.021 75.8002L199.137 79.6411L199.253 82.2621L199.369 77.1546L199.484 75.5699L199.6 74.1453L199.716 76.2742L199.832 77.6964L199.948 81.9774L200.063 82.0027L200.179 76.6357L200.295 76.1403L200.411 75.9559L200.527 76.1226L200.642 71.6821L200.758 52.2076L200.874 56.0503L200.99 67.6727L201.106 67.1644L201.221 63.629L201.337 65.1457L201.453 64.7672L201.569 78.1752L201.685 76.3591L201.8 70.4276L201.916 73.4525L202.032 72.7818L202.148 75.3213L202.263 73.4479L202.379 76.3329L202.495 77.5553L202.611 74.7086L202.727 72.9568L202.842 73.7793L202.958 76.0523L203.074 78.0255L203.19 77.518L203.306 79.6937L203.421 60.7623L203.537 74.56L203.653 46.9989L203.769 9.17109L203.885 73.6384L204 74.1196L204.116 76.9482L204.232 74.9134L204.348 75.2023L204.464 76.464L204.579 74.6932L204.695 71.4713L204.811 73.3586L204.927 76.1292L205.043 72.5949L205.158 74.1008L205.274 73.2786L205.39 75.7966L205.506 72.5178L205.621 74.6981L205.737 77.3696L205.853 73.3738L205.969 73.8496L206.085 74.1628L206.2 73.4458L206.316 72.9006L206.432 75.7239L206.548 75.5528L206.664 72.8793L206.779 70.6731L206.895 73.9823L207.011 72.2681L207.127 73.8739L207.243 68.6583L207.358 67.5057L207.474 70.2783L207.59 71.6173L207.706 71.8105L207.822 73.5031L207.937 71.7189L208.053 74.9401L208.169 75.5681L208.285 71.7922L208.401 71.7988L208.516 70.6793L208.632 70.6803L208.748 67.5295L208.864 69.369L208.979 68.5152L209.095 62.9962L209.211 61.2024L209.327 66.6769L209.443 69.632L209.558 67.6831L209.674 69.4243L209.79 70.2342L209.906 68.4797L210.022 67.6717L210.137 67.8581L210.253 65.8248L210.369 66.2159L210.485 69.6136L210.601 73.4014L210.716 66.5669L210.832 65.9314L210.948 63.3524L211.064 64.5657L211.18 67.4695L211.295 70.7648L211.411 68.5397L211.527 61.1605L211.643 63.5693L211.759 67.649L211.874 69.7037L211.99 66.8494L212.106 65.3317L212.222 63.0985L212.337 60.1779L212.453 61.1307L212.569 61.711L212.685 62.1277L212.801 60.3733L212.916 59.87L213.032 61.8737L213.148 57.5836L213.264 59.8619L213.38 60.531L213.495 58.7125L213.611 56.2604L213.727 57.8858L213.843 61.5587L213.959 58.1217L214.074 59.9713L214.19 59.4617L214.306 59.1149L214.422 55.3937L214.538 56.9334L214.653 52.9132L214.769 49.054L214.885 51.3291L215.001 51.8534L215.117 52.5311L215.232 53.9152L215.348 56.8983L215.464 56.3729L215.58 53.0676L215.695 49.1988L215.811 51.0489L215.927 50.6474L216.043 47.692L216.159 54.0439L216.274 51.2735L216.39 46.5098L216.506 50.4622L216.622 48.9876L216.738 50.1232L216.853 48.2999L216.969 46.2321L217.085 45.2904L217.201 39.9916L217.317 37.8302L217.432 36.3616L217.548 37.2638L217.664 42.5309L217.78 43.7546L217.896 48.2688L218.011 47.5752L218.127 47.502L218.243 44.87L218.359 38.5627L218.475 38.202L218.59 40.4284L218.706 38.9488L218.822 37.1929L218.938 37.5976L219.054 38.9147L219.169 38.4792L219.285 36.3165L219.401 37.8206L219.517 38.3978L219.632 40.6255L219.748 40.2431L219.864 41.139L219.98 43.4221L220.096 44.465L220.211 45.2633L220.327 47.4739L220.443 44.0313L220.559 41.4329L220.675 39.2775L220.79 45.6196L220.906 46.6901L221.022 47.0961L221.138 46.3003L221.254 41.4511L221.369 40.1966L221.485 42.1319L221.601 43.4988L221.717 42.1056L221.833 44.2012L221.948 44.5361L222.064 40.4686L222.18 40.2241L222.296 41.7334L222.412 40.7451L222.527 43.7392L222.643 44.7514L222.759 45.1573L222.875 37.5632L222.99 39.2268L223.106 37.0109L223.222 38.4838L223.338 41.6577L223.454 46.0181L223.569 46.8282L223.685 41.7939L223.801 40.6563L223.917 39.6982L224.033 38.6794L224.148 41.2554L224.264 40.7893L224.38 42.6122L224.496 41.0456L224.612 38.6565L224.727 44.4335L224.843 43.1966L224.959 41.6548L225.075 43.8379L225.191 47.384L225.306 41.8926L225.422 39.9597L225.538 45.3526L225.654 42.9006L225.77 41.3942L225.885 47.0031L226.001 45.5406L226.117 42.4722L226.233 40.5677L226.348 46.8866L226.464 43.94L226.58 44.0385L226.696 42.5807L226.812 44.5385L226.927 41.8764L227.043 43.2081L227.159 44.7721L227.275 46.9575L227.391 48.6981L227.506 53.6546L227.622 54.7018L227.738 45.4405L227.854 46.4118L227.97 45.8666L228.085 44.3262L228.201 43.5612L228.317 47.701L228.433 45.5993L228.549 42.5751L228.664 42.7351L228.78 41.4917L228.896 43.5018L229.012 44.3441L229.128 46.2655L229.243 46.4355L229.359 40.3059L229.475 39.3105L229.591 39.4033L229.706 42.0099L229.822 42.0666L229.938 44.2408L230.054 42.5916L230.17 41.3815L230.285 41.5896L230.401 41.325L230.517 44.9395L230.633 43.2739L230.749 43.759L230.864 45.4261L230.98 41.0305L231.096 42.4975L231.212 41.7896L231.328 42.4619L231.443 43.4337L231.559 41.7813L231.675 47.169L231.791 52.5482L231.907 48.0845L232.022 47.3509L232.138 50.2749L232.254 49.8424L232.37 48.5063L232.486 49.4409L232.601 54.0479L232.717 50.3699L232.833 50.68L232.949 46.9241L233.064 47.781L233.18 47.4207L233.296 47.1537L233.412 43.3814L233.528 47.6614L233.643 48.609L233.759 50.0584L233.875 50.8481L233.991 47.6175L234.107 47.3216L234.222 44.7636L234.338 46.8485L234.454 46.0747L234.57 45.0946L234.686 46.6383L234.801 48.0835L234.917 44.3268L235.033 45.0635L235.149 46.207L235.265 46.6151L235.38 47.9964L235.496 47.4386L235.612 48.7479L235.728 47.9793L235.844 48.4568L235.959 47.3183L236.075 48.0736L236.191 48.0263L236.307 46.5267L236.423 47.2626L236.538 46.9763L236.654 48.2283L236.77 50.5275L236.886 47.9348L237.001 46.5155L237.117 47.819L237.233 48.1954L237.349 49.6164L237.465 50.8712L237.58 55.404L237.696 50.7967L237.812 51.1206L237.928 52.2041L238.044 53.471L238.159 52.822L238.275 50.9275L238.391 51.318L238.507 49.1819L238.623 49.1677L238.738 49.5805L238.854 52.9228L238.97 48.9054L239.086 47.7136L239.202 46.8208L239.317 47.181L239.433 48.3512L239.549 47.8004L239.665 49.3105L239.781 47.993L239.896 47.1584L240.012 47.4093L240.128 50.1895L240.244 50.7093L240.359 47.1015L240.475 49.1313L240.591 51.8967L240.707 46.6444L240.823 46.5084L240.938 46.5822L241.054 48.0399L241.17 49.0127L241.286 48.6286L241.402 50.1938L241.517 46.5273L241.633 46.11L241.749 45.6348L241.865 44.5289L241.981 45.5688L242.096 47.5135L242.212 48.7983L242.328 46.6492L242.444 44.1338L242.56 44.5064L242.675 45.9316L242.791 46.0419L242.907 47.0606L243.023 47.5036L243.139 44.1308L243.254 43.4792L243.37 42.1451L243.486 44.9131L243.602 44.3968L243.717 42.9717L243.833 42.4838L243.949 43.2971L244.065 41.7695L244.181 37.1652L244.296 32.5694L244.412 32.2676L244.528 42.5494L244.644 40.7476L244.76 35.9171L244.875 36.2019L244.991 34.1504L245.107 32.0276L245.223 31.8225L245.339 34.9508L245.454 35.1153L245.57 34.5802L245.686 31.6223L245.802 32.2597L245.918 32.4689L246.033 32.001L246.149 31.0508L246.265 31.2234L246.381 30.6873L246.497 35.8427L246.612 34.915L246.728 32.6734L246.844 34.3443L246.96 32.1913L247.075 35.3004L247.191 31.6216L247.307 31.7027L247.423 33.8142L247.539 34.1186L247.654 35.5762L247.77 39.0127L247.886 36.3187L248.002 34.325L248.118 35.2191L248.233 35.2518L248.349 40.5773L248.465 13.7745L248.581 34.4587L248.697 33.9767L248.812 37.219L248.928 39.2197L249.044 36.7113L249.16 36.2985L249.276 36.9372L249.391 43.8668L249.507 44.7829L249.623 36.3168L249.739 35.9449L249.855 39.0859L249.97 38.6688L250.086 37.7404L250.202 40.2097L250.318 44.7021L250.434 40.5425L250.549 36.213L250.665 37.3086L250.781 35.517L250.897 37.9003L251.012 43.8889L251.128 43.3524L251.244 37.7451L251.36 33.8532L251.476 36.3808L251.591 39.6641L251.707 37.7966L251.823 40.1628L251.939 48.327L252.055 40.6651L252.17 37.4996L252.286 41.1112L252.402 40.6281L252.518 39.9099L252.634 41.8265L252.749 42.2454L252.865 41.0923L252.981 29.2678L253.097 31.9031L253.213 33.1302L253.328 31.2908L253.444 34.4516L253.56 39.2996L253.676 36.0301L253.792 38.1533L253.907 38.7001L254.023 37.1688L254.139 43.7373L254.255 41.5383L254.37 41.0168L254.486 41.3229L254.602 39.6474L254.718 39.6432L254.834 44.3457L254.949 43.3L255.065 40.2666L255.181 46.4689L255.297 37.1057L255.413 47.9876L255.528 49.8103L255.644 42.9686L255.76 42.2377L255.876 44.7856L255.992 47.6486L256.107 46.3366L256.223 50.7554L256.339 47.2302L256.455 52.9892L256.571 51.7855L256.686 51.2969L256.802 51.5556L256.918 52.7801L257.034 54.8634L257.15 50.1389L257.265 50.8826L257.381 54.7869L257.497 54.542L257.613 58.1929L257.728 52.1338L257.844 48.3758L257.96 49.0141L258.076 45.9913L258.192 45.0115L258.307 50.7133L258.423 50.8607L258.539 52.3267L258.655 57.2653L258.771 61.3064L258.886 59.9839L259.002 65.9364L259.118 66.3243L259.234 66.5181L259.35 62.721L259.465 62.7882L259.581 63.2917L259.697 60.8697L259.813 68.1773L259.929 69.5461L260.044 67.9311L260.16 63.6573L260.276 56.0308L260.392 59.3916L260.508 61.1272L260.623 56.2586L260.739 55.2114L260.855 57.6544L260.971 58.5479L261.086 54.21L261.202 56.062L261.318 51.4642L261.434 51.2414L261.55 60.4134L261.665 58.7481L261.781 56.5923L261.897 58.896L262.013 55.9036L262.129 61.6809L262.244 60.2078L262.36 62.3454L262.476 63.6022L262.592 65.6241L262.708 66.6392L262.823 63.6158L262.939 65.2525L263.055 62.4355L263.171 63.1407L263.287 64.7854L263.402 65.6564L263.518 60.7651L263.634 61.2819L263.75 53.2946L263.866 59.1425L263.981 59.1815L264.097 60.0826L264.213 57.3365L264.329 53.4532L264.444 56.797L264.56 55.3931L264.676 52.3591L264.792 57.5443L264.908 58.5742L265.023 55.496L265.139 51.8546L265.255 49.4265L265.371 52.6167L265.487 52.4481L265.602 54.2702L265.718 48.7166L265.834 47.1704L265.95 42.5106L266.066 40.8158L266.181 36.9873L266.297 38.2321L266.413 37.9921L266.529 41.0423L266.645 43.4149L266.76 39.396L266.876 36.6862L266.992 37.5242L267.108 43.2595L267.224 45.6411L267.339 42.9643L267.455 41.9375L267.571 44.1559L267.687 42.3707L267.802 42.6601L267.918 39.9208L268.034 47.2225L268.15 47.4813L268.266 49.0697L268.381 45.804L268.497 49.1582L268.613 46.1284L268.729 50.3285L268.845 52.2849L268.96 45.7291L269.076 54.6789L269.192 50.2047L269.308 43.6718L269.424 42.9846L269.539 42.8289L269.655 52.0754L269.771 57.7788L269.887 54.9496L270.003 51.3005L270.118 55.6569L270.234 47.5831L270.35 48.6272L270.466 47.0737L270.582 58.9236L270.697 51.4027L270.813 53.9307L270.929 53.6475L271.045 53.3407L271.161 52.877L271.276 57.6607L271.392 60.523L271.508 56.7128L271.624 56.7552L271.739 53.7572L271.855 62.499L271.971 59.5747L272.087 60.4943L272.203 57.4604L272.318 55.4798L272.434 56.2673L272.55 56.9166L272.666 54.7658L272.782 48.6803L272.897 43.8135L273.013 54.4446L273.129 56.0163L273.245 56.7625L273.361 53.3682L273.476 57.6608L273.592 56.24L273.708 65.0677L273.824 65.561L273.94 61.1298L274.055 63.1647L274.171 59.3892L274.287 59.6293L274.403 62.2525L274.519 66.7261L274.634 76.3206L274.75 61.7574L274.866 60.1056L274.982 61.9208L275.097 65.0666L275.213 65.4569L275.329 69.3792L275.445 70.153L275.561 64.8433L275.676 65.4641L275.792 64.1677L275.908 63.077L276.024 56.8053L276.14 53.633L276.255 64.5303L276.371 60.3015L276.487 66.8902L276.603 65.4399L276.719 69.2413L276.834 67.8817L276.95 71.6218L277.066 71.4185L277.182 69.8824L277.298 70.3568L277.413 70.7561L277.529 71.2586L277.645 66.7651L277.761 67.1665L277.877 66.0734L277.992 63.4974L278.108 62.1701L278.224 59.2193L278.34 61.4195L278.455 57.992L278.571 60.5329L278.687 63.2148L278.803 64.3482L278.919 62.0354L279.034 64.6235L279.15 63.8744L279.266 66.7933L279.382 69.463L279.498 67.9779L279.613 70.7032L279.729 65.6407L279.845 67.8982L279.961 52.3539L280.077 66.8189L280.192 67.3458L280.308 66.1829L280.424 63.2172L280.54 59.6443L280.656 61.6646L280.771 61.6179L280.887 60.2812L281.003 63.3316L281.119 63.6966L281.235 59.1891L281.35 55.8743L281.466 54.5116L281.582 51.4373L281.698 60.7835L281.813 62.6017L281.929 63.1023L282.045 58.8745L282.161 57.1176L282.277 52.8394L282.392 55.4994L282.508 57.1927L282.624 53.6543L282.74 59.7404L282.856 58.4514L282.971 59.289L283.087 57.3415L283.203 57.9657L283.319 59.1971L283.435 57.8041L283.55 59.0096L283.666 48.527L283.782 48.1997L283.898 51.171L284.014 54.057L284.129 53.905L284.245 51.9216L284.361 57.48L284.477 58.851L284.593 59.8023L284.708 58.7732L284.824 65.2393L284.94 66.0603L285.056 63.4448L285.172 68.4318L285.287 59.6432L285.403 63.3764L285.519 64.9125L285.635 65.1843L285.75 63.4381L285.866 67.9422L285.982 63.7864L286.098 60.1272L286.214 65.5594L286.329 66.6024L286.445 65.7865L286.561 63.5908L286.677 66.4858L286.793 67.1825L286.908 62.5394L287.024 62.9196L287.14 65.8094L287.256 62.6797L287.372 57.8632L287.487 58.0322L287.603 70.6627L287.719 68.8641L287.835 72.6094L287.951 65.5818L288.066 63.9469L288.182 68.1994L288.298 66.9374L288.414 57.152L288.53 55.8144L288.645 54.9365L288.761 45.0053L288.877 45.2881L288.993 51.2101L289.108 52.7177L289.224 58.4425L289.34 61.2547L289.456 69.2L289.572 64.6322L289.687 65.4804L289.803 70.6543L289.919 76.5399L290.035 76.4706L290.151 68.2395L290.266 72.1166L290.382 72.0297L290.498 72.9909L290.614 72.0357L290.73 72.2497L290.845 76.3245L290.961 74.4009L291.077 75.8848L291.193 74.1502L291.309 82.9835L291.424 82.0239L291.54 85.1534L291.656 85.7L291.772 79.012L291.888 76.7178L292.003 81.6408L292.119 81.6751L292.235 76.3646L292.351 73.7732L292.466 69.9219L292.582 55.1599L292.698 61.7215L292.814 59.9297L292.93 68.2542L293.045 72.7668L293.161 65.6623L293.277 67.9375L293.393 67.2532L293.509 71.4636L293.624 72.5764L293.74 73.9839L293.856 72.5217L293.972 78.0673L294.088 80.8401L294.203 78.4632L294.319 74.2567L294.435 73.9182L294.551 71.1953L294.667 65.2408L294.782 68.6306L294.898 75.2351L295.014 70.4037L295.13 68.3377L295.246 68.8701L295.361 68.2883L295.477 69.3856L295.593 70.4585L295.709 74.9639L295.824 66.1206L295.94 66.6428L296.056 63.269L296.172 65.9212L296.288 68.8605L296.403 56.7546L296.519 73.659L296.635 60.3127L296.751 55.1697L296.867 59.5563L296.982 62.7248L297.098 61.1181L297.214 67.5071L297.33 63.2653L297.446 63.4768L297.561 62.7379L297.677 57.7771L297.793 58.8674L297.909 57.6818L298.025 59.5268L298.14 61.628L298.256 58.2412L298.372 57.6403L298.488 59.4225L298.604 65.0879L298.719 62.3277L298.835 64.8988L298.951 66.274L299.067 60.1741L299.182 62.1562L299.298 62.4316L299.414 61.1807L299.53 63.0326L299.646 60.4104L299.761 59.7844L299.877 60.1578L299.993 63.3868L300.109 61.7238L300.225 65.8905L300.34 59.0042L300.456 67.1375L300.572 54.1021L300.688 64.6359L300.804 63.6158L300.919 58.1617L301.035 49.2458L301.151 59.0778L301.267 58.1849L301.383 67.214L301.498 62.8181L301.614 60.837L301.73 65.5663L301.846 62.2556L301.962 63.6712L302.077 54.2412L302.193 71.1358L302.309 51.0084L302.425 55.4966L302.541 62.2013L302.656 53.3909L302.772 64.5854L302.888 68.0262L303.004 65.6519L303.119 64.2963L303.235 53.8653L303.351 62.7715L303.467 56.2843L303.583 55.1869L303.698 58.3834L303.814 52.5004L303.93 43.5389L304.046 34.724L304.162 46.0741L304.277 49.3531L304.393 47.7773L304.509 38.6005L304.625 47.6449L304.741 28.4925L304.856 42.3615L304.972 37.3984L305.088 38.9718L305.204 56.3855L305.32 54.7718L305.435 54.3085L305.551 61.427L305.667 51.4136L305.783 50.3367L305.899 50.5591L306.014 55.8727L306.13 63.4165L306.246 76.5879L306.362 57.0547L306.477 51.7685L306.593 59.5532L306.709 52.3811L306.825 55.8653L306.941 59.5581L307.056 55.9763L307.172 45.62L307.288 50.8612L307.404 52.7797L307.52 45.7898L307.635 48.6598L307.751 60.6872L307.867 55.4591L307.983 51.5066L308.099 48.82L308.214 48.705L308.33 48.5183L308.446 53.0393L308.562 46.1256L308.678 51.8551L308.793 54.2111L308.909 50.867L309.025 51.6471L309.141 51.9909L309.257 52.1533L309.372 46.7568L309.488 59.606L309.604 42.409L309.72 38.2832L309.835 30.0069L309.951 30.9296L310.067 37.6397L310.183 51.8231L310.299 40.6063L310.414 38.2922L310.53 45.4327L310.646 50.5103L310.762 49.8207L310.878 54.6709L310.993 61.9057L311.109 48.508L311.225 46.9572L311.341 47.557L311.457 27.6382L311.572 46.5455L311.688 53.6495L311.804 51.3794L311.92 57.1369L312.036 48.5516L312.151 48.723L312.267 45.923L312.383 51.2331L312.499 54.1458L312.615 60.0755L312.73 58.0719L312.846 53.3977L312.962 51.3455L313.078 54.6628L313.193 55.0689L313.309 51.4907L313.425 50.9925L313.541 55.898L313.657 42.9898L313.772 37.7533L313.888 46.5421L314.004 44.3783L314.12 43.1789L314.236 50.8124L314.351 53.4758L314.467 48.5263L314.583 47.4101L314.699 50.0793L314.815 51.1225L314.93 53.5995L315.046 55.4529L315.162 60.7121L315.278 51.582L315.394 53.7766L315.509 54.3592L315.625 56.0948L315.741 55.8098L315.857 58.7307L315.973 61.0239L316.088 53.9133L316.204 52.5556L316.32 44.7521L316.436 48.3228L316.551 45.0684L316.667 49.1162L316.783 57.1313L316.899 39.3163L317.015 40.668L317.13 44.0866L317.246 40.1236L317.362 45.7878L317.478 36.8063L317.594 43.1259L317.709 37.6869L317.825 40.7947L317.941 30.5308" stroke="#CED4DA" stroke-width="0.6" stroke-linecap="round" stroke-linejoin="round"/>
</g>
</g>
</g>
<defs>
<clipPath id="clip0_190_25446">
<rect width="318" height="110" fill="white" transform="translate(0.941406 0.458984)"/>
</clipPath>
<clipPath id="clip1_190_25446">
<rect width="318" height="110" fill="white" transform="translate(0.941406 0.458984)"/>
</clipPath>
<clipPath id="clip2_190_25446">
<rect width="318" height="110" fill="white" transform="translate(0.941406 0.458984)"/>
</clipPath>
</defs>
</svg>
