<svg width="319" height="107" viewBox="0 0 319 107" fill="none" xmlns="http://www.w3.org/2000/svg">
<g opacity="0.5" clip-path="url(#clip0_190_25460)">
<g clip-path="url(#clip1_190_25460)">
<g clip-path="url(#clip2_190_25460)">
<path d="M1.0625 100.588L1.65873 100.425L2.25495 100.465L2.85118 100.383L3.44741 98.8255L4.04363 98.9523L4.63986 99.3522L5.23608 99.6479L5.83231 100.422L6.42854 98.8788L7.02476 99.6199L7.62099 100.256L8.21722 100.934L8.81344 101.384L9.40967 101.498L10.0059 102.111L10.6021 102.062L11.1983 98.7176L11.7946 96.0831L12.3908 94.3123L12.987 94.4821L13.5833 90.3357L14.1795 95.2817L14.7757 94.3983L15.3719 91.8911L15.9682 90.62L16.5644 89.853L17.1606 91.7952L17.7568 86.3772L18.3531 91.0214L18.9493 92.0857L19.5455 91.2541L20.1417 86.0171L20.738 85.7709L21.3342 87.1975L21.9304 93.9342L22.5267 98.0801L23.1229 98.1762L23.7191 96.4841L24.3153 96.9736L24.9116 97.4834L25.5078 95.3033L26.104 96.5095L26.7002 99.3874L27.2965 99.3368L27.8927 95.0577L28.4889 93.1943L29.0851 97.5592L29.6814 96.944L30.2776 96.9879L30.8738 100.273L31.47 97.9375L32.0663 95.4006L32.6625 94.9387L33.2587 95.6809L33.855 91.6318L34.4512 94.9238L35.0474 98.4656L35.6436 98.5325L36.2399 93.1686L36.8361 89.8696L37.4323 87.1386L38.0285 88.0881L38.6248 89.7622L39.221 96.0724L39.8172 95.9056L40.4134 92.307L41.0097 94.8756L41.6059 93.7787L42.2021 89.2132L42.7983 89.4456L43.3946 95.1819L43.9908 96.6298L44.587 94.141L45.1833 96.8548L45.7795 96.0955L46.3757 94.0247L46.9719 95.0803L47.5682 98.0576L48.1644 97.0014L48.7606 93.66L49.3568 90.1435L49.9531 84.946L50.5493 81.9763L51.1455 83.7758L51.7417 85.6404L52.338 87.273L52.9342 85.6703L53.5304 83.8141L54.1266 85.4303L54.7229 87.9621L55.3191 88.9772L55.9153 91.6842L56.5116 93.5349L57.1078 90.4083L57.704 83.7048L58.3002 84.6292L58.8965 85.7259L59.4927 86.9742L60.0889 89.4201L60.6851 91.8046L61.2814 86.7287L61.8776 87.9599L62.4738 88.9314L63.07 87.8379L63.6663 90.7825L64.2625 92.9388L64.8587 92.7404L65.455 87.0667L66.0512 89.0401L66.6474 89.8273L67.2436 90.6228L67.8399 92.2517L68.4361 91.9703L69.0323 91.7984L69.6285 90.8037L70.2248 88.1093L70.821 88.6605L71.4172 91.8886L72.0134 92.528L72.6097 88.3315L73.2059 93.5131L73.8021 92.8209L74.3983 94.455L74.9946 96.306L75.5908 95.8412L76.187 94.8407L76.7833 96.582L77.3795 98.2102L77.9757 95.8033L78.5719 96.571L79.1682 94.8301L79.7644 92.8295L80.3606 94.9339L80.9568 97.7966L81.5531 99.4095L82.1493 97.679L82.7455 97.6509L83.3417 96.3465L83.938 96.0865L84.5342 97.3531L85.1304 97.135L85.7267 99.1595L86.3229 96.1394L86.9191 93.0231L87.5153 89.9611L88.1116 92.1248L88.7078 94.2677L89.304 95.7403L89.9002 92.8744L90.4965 92.5096L91.0927 89.0653L91.6889 87.323L92.2851 88.7289L92.8814 86.9166L93.4776 90.8489L94.0738 86.0242L94.6701 78.2195L95.2663 81.675L95.8625 81.8545L96.4587 84.2357L97.055 81.47L97.6512 89.0282L98.2474 88.8324L98.8436 88.4707L99.4399 90.7177L100.036 90.1068L100.632 87.791L101.229 82.5337L101.825 85.0682L102.421 90.0303L103.018 88.4796L103.614 88.475L104.21 87.9573L104.805 85.9768L105.402 88.0893L105.998 91.4341L106.594 91.7081L107.19 90.6717L107.787 86.3478L108.383 87.0202L108.979 90.6272L109.576 92.2839L110.172 96.4282L110.769 96.7378L111.365 91.389L111.961 94.7843L112.557 94.2778L113.154 94.4934L113.749 96.8179L114.345 97.9453L114.941 99.2509L115.537 98.6649L116.134 97.9238L116.73 96.2472L117.326 96.6116L117.923 93.6446L118.52 97.9574L119.116 97.831L119.712 94.4616L120.308 95.0791L120.905 95.6772L121.501 94.9296L122.096 98.8937L122.692 100.542L123.288 100.861L123.885 97.0137L124.481 98.7365L125.077 99.4075L125.674 100.116L126.271 100.273L126.867 101.942L127.463 100.252L128.059 101.391L128.654 101.676L129.251 101.616L129.848 102.35L130.443 102.668L131.04 103.537L131.637 103.032L132.232 102.418L132.829 101.771L133.424 101.282L134.02 98.4337L134.617 99.3219L135.214 102.644L135.809 103.304L136.406 102.311L137.003 101.23L137.598 101.573L138.195 99.9815L138.79 100.408L139.387 102.399L139.984 100.734L140.579 96.1534L141.176 100.518L141.771 99.6602L142.368 99.7574L142.964 97.8558L143.561 99.5075L144.156 99.4615L144.753 98.1726L145.35 91.4524L145.945 98.7831L146.542 98.1095L147.137 99.1473L147.734 101.834L148.331 101.932L148.926 100.427L149.523 100.322L150.12 100.414L150.715 100.13L151.311 101.218L151.908 102.608L152.505 103.243L153.1 101.818L153.697 101.176L154.292 96.9497L154.889 98.4618L155.486 99.7653L156.081 102.233L156.678 102.229L157.273 99.4994L157.87 100.34L158.467 99.9913L159.062 99.9671L159.658 99.9779L160.255 100.331L160.852 1.85742L161.447 97.5246L162.044 98.3247L162.639 100.132L163.236 99.0882L163.833 100.838L164.428 102.358L165.025 103.207L165.62 98.7573L166.217 99.1885L166.814 88.5237L167.41 79.6273L168.005 96.5165L168.602 102.032L169.199 103.512L169.794 103.483L170.391 102.109L170.988 103.098L171.583 103.333L172.18 102.914L172.775 104.02L173.372 103.708L173.969 103.3L174.564 102.944L175.161 102.157L175.757 100.598L176.354 101.201L176.949 103.937L177.546 103.904L178.141 102.344L178.738 100.277L179.335 99.365L179.93 98.5176L180.527 98.6356L181.122 99.6594L181.719 99.7169L182.316 100.197L182.911 99.4869L183.508 97.6709L184.105 98.1552L184.701 99.7525L185.296 102.1L185.893 102.497L186.488 96.1937L187.085 99.5666L187.682 98.733L188.277 101.678L188.874 101.945L189.471 100.725L190.066 103.488L190.663 103.386L191.258 102.326L191.855 102.757L192.452 101.17L193.048 102.046L193.643 102.678L194.24 102.549L194.837 101.065L195.432 101.661L196.029 100.723L196.624 100.837L197.221 102.346L197.818 104.522L198.413 104.237L199.01 103.553L199.605 102.731L200.202 102.531L200.798 101.617L201.395 102.998L201.99 104.14L202.587 104.205L203.184 102.813L203.779 103.463L204.376 102.994L204.971 101.953L205.568 102.433L206.165 103.791L206.76 103.832L207.357 102.525L207.954 102.557L208.549 102.67L209.145 103.909L209.742 104.574L210.337 104.929L210.934 105.331L211.531 104.121L212.126 103.618L212.723 104.032L213.32 103.629L213.915 104.604L214.512 105.517L215.107 105.574L215.704 104.819L216.301 104.84L216.896 105.067L217.492 104.869L218.089 104.724L218.686 105.49L219.281 105.433L219.878 104.374L220.473 104.237L221.07 103.084L221.667 103.597L222.262 104.342L222.859 105.293L223.454 105.194L224.051 104.221L224.648 105.034L225.243 105.024L225.839 104.992L226.436 104.439L227.033 105.18L227.628 105.704L228.225 104.844L228.82 104.906L229.417 105.08L230.014 104.789L230.609 104.895L231.206 105.548L231.803 105.558L232.398 104.538L232.995 104.169L233.59 103.783L234.188 103.977L234.783 104.852L235.38 105.641L235.975 105.539L236.572 105.258L237.169 104.593L237.764 104.042L238.361 103.82L238.956 103.913L239.553 105.282L240.15 105.422L240.745 104.519L241.342 104.518L241.938 105.01L242.535 104.318L243.13 105.263L243.727 105.737L244.322 105.528L244.919 105.229L245.516 104.968L246.111 104.929L246.708 105.196L247.305 105.389L247.9 105.818L248.497 105.588L249.092 104.937L249.689 103.979L250.286 104.441L250.882 104.551L251.477 104.355L252.074 105.379L252.671 105.857L253.266 104.437L253.863 104.507L254.458 104.425L255.055 104.844L255.652 105.255L256.247 103.757L256.844 102.225L257.44 101.356L258.036 102.575L258.633 103.736L259.228 103.294L259.824 103.984L260.421 104.128L261.017 104.508L261.613 103.439L262.21 103.034L262.806 102.713L263.402 101.882L263.999 102.052L264.595 103.886L265.19 104.595L265.788 103.769L266.384 103.522L266.979 103.849L267.576 104.292L268.172 104.183L268.768 104.747L269.365 105.344L269.961 103.682L270.556 104.586L271.154 104.277L271.75 103.727L272.345 103.912L272.941 104.761L273.538 104.848L274.134 103.953L274.73 99.834L275.327 98.9296L275.922 101.272L276.52 103.236L277.116 104.412L277.711 104.408L278.307 103.857L278.905 103.761L279.5 104.088L280.096 104.241L280.693 104.527L281.289 104.776L281.885 104.803L282.482 104.687L283.078 104.388L283.673 104.621L284.271 104.807L284.866 104.967L285.462 105.041L286.059 105.076L286.655 104.508L287.251 104.886L287.848 104.727L288.444 104.678L289.039 104.737L289.637 104.829L290.233 104.854L290.828 104.519L291.424 104.323L292.021 104.243L292.617 104.273L293.214 101.812L293.81 104.252L294.405 104.238L295.003 104.058L295.599 103.828L296.194 104.187L296.79 103.917L297.388 103.816L297.983 104.488L298.579 104.474L299.176 104.388L299.772 104.18L300.368 104.282L300.965 104.376L301.56 104.506L302.156 104.842L302.754 104.939L303.349 104.821L303.945 104.298L304.542 104.123L305.138 104.052L305.734 103.941L306.331 104.121L306.927 104.379L307.522 104.129L308.12 103.794L308.716 103.554L309.311 103.385L309.908 103.485L310.504 104.221L311.1 103.79L311.697 103.118L312.293 103.346L312.888 103.308L313.486 103.33L314.082 102.798L314.677 103.01L315.273 103.676L315.871 103.228L316.466 103.119L317.062 102.606" stroke="#CED4DA" stroke-width="0.6" stroke-linecap="round" stroke-linejoin="round"/>
</g>
</g>
</g>
<defs>
<clipPath id="clip0_190_25460">
<rect width="318" height="106" fill="white" transform="translate(0.0625 0.857422)"/>
</clipPath>
<clipPath id="clip1_190_25460">
<rect width="318" height="106" fill="white" transform="translate(0.0625 0.857422)"/>
</clipPath>
<clipPath id="clip2_190_25460">
<rect width="318" height="106" fill="white" transform="translate(0.0625 0.857422)"/>
</clipPath>
</defs>
</svg>
