<svg width="321" height="112" viewBox="0 0 321 112" fill="none" xmlns="http://www.w3.org/2000/svg">
<g opacity="0.5" clip-path="url(#clip0_190_25440)">
<g clip-path="url(#clip1_190_25440)">
<g clip-path="url(#clip2_190_25440)">
<path d="M0.730469 109.957L0.847362 110.459H0.964254H1.08115H1.19804H1.31493H1.43182H1.54872L1.66561 110.343L1.7825 110.297L1.89939 110.384L2.01629 110.344L2.13318 110.179L2.25007 110.344L2.36697 110.299L2.48386 110.28L2.60075 110.33L2.71764 110.321L2.83454 110.317L2.95143 110.318L3.06832 110.276L3.18521 110.329L3.30211 110.238L3.419 110.257L3.53589 110.223L3.65278 110.209L3.76968 110.206L3.88657 110.225L4.00346 110.144L4.12035 110.191L4.23725 110.226L4.35414 110.201L4.47103 110.166L4.58793 110.168L4.70482 110.166L4.82171 110.19L4.9386 110.141L5.0555 110.148H5.17239L5.28928 110.137L5.40617 110.142L5.52307 110.143L5.63996 110.158L5.75685 110.095L5.87374 110.143L5.99064 110.117L6.10753 110.145L6.22442 110.154L6.34131 110.128L6.45821 110.156L6.5751 110.132L6.69199 110.165L6.80888 110.098L6.92578 110.103L7.04267 110.075L7.15956 110.041L7.27646 110.108L7.39335 110.129L7.51024 110.126L7.62713 110.134L7.74403 110.114L7.86092 110.135L7.97781 110.128L8.0947 110.097L8.2116 110.117L8.32849 110.114L8.44538 110.085L8.56227 110.105L8.67917 110.095L8.79606 110.057L8.91295 110.068L9.02985 110.078L9.14674 110.091L9.26363 110.119L9.38052 110.087L9.49742 110.074H9.61431L9.7312 110.092L9.84809 110.076L9.96499 110.089L10.0819 110.093L10.1988 110.087L10.3156 110.126L10.4325 110.11L10.5494 110.122L10.6663 110.071L10.7832 110.1L10.9001 110.13L11.017 110.124L11.1339 110.076L11.2508 110.045L11.3677 110.017L11.4846 110.011L11.6015 110.033L11.7184 110.069L11.8352 110.089L11.9521 110.042L12.069 110.062L12.1859 110.036L12.3028 110.014L12.4197 109.839L12.5366 109.759L12.6535 110.025L12.7704 109.999L12.8873 109.883L13.0042 109.921L13.1211 110.014L13.238 110.052L13.3549 110.055L13.4717 110.039L13.5886 110.056L13.7055 110.043L13.8224 109.958L13.9393 110.101L14.0562 110.074L14.1731 110.06L14.29 109.993L14.4069 110.056L14.5238 110.059L14.6407 110.049L14.7576 110.085L14.8745 110.075L14.9913 110.073L15.1082 109.952L15.2251 110.076L15.342 110.092L15.4589 110.066L15.5758 110.07L15.6927 110.076L15.8096 109.946L15.9265 110.056L16.0434 110.081L16.1603 110.064L16.2772 110.039L16.3941 110.002L16.511 109.996L16.6278 110.04L16.7447 109.582L16.8616 109.269L16.9785 109.878L17.0954 109.917L17.2123 109.95L17.3292 109.934L17.4461 109.902L17.563 109.779L17.6799 109.273L17.7968 109.177L17.9137 109.698L18.0306 109.922L18.1475 109.854L18.2643 109.226L18.3812 109.761L18.4981 109.818L18.615 109.231L18.7319 109.878L18.8488 109.995L18.9657 109.942L19.0826 109.937L19.1995 109.925L19.3164 109.532L19.4333 109.496L19.5502 109.214L19.6671 109.843L19.7839 109.794L19.9008 109.877L20.0177 109.845L20.1346 109.846L20.2515 109.463L20.3684 109.858L20.4853 109.902L20.6022 109.858L20.7191 109.909L20.836 109.731L20.9529 109.702L21.0698 109.861L21.1867 109.854L21.3036 109.678L21.4204 109.837L21.5373 109.737L21.6542 109.493L21.7711 109.528L21.888 109.402L22.0049 109.513L22.1218 109.534L22.2387 109.632L22.3556 109.66L22.4725 109.658L22.5894 109.653L22.7063 109.654L22.8232 109.649L22.94 109.599L23.0569 108.687L23.1738 109.655L23.2907 109.629L23.4076 109.584L23.5245 109.492L23.6414 109.25L23.7583 109.438L23.8752 109.369L23.9921 109.521L24.109 109.491L24.2259 109.469L24.3428 109.332L24.4597 109.502L24.5765 109.421L24.6934 109.516L24.8103 109.494L24.9272 109.433L25.0441 109.417L25.161 109.357L25.2779 109.359L25.3948 109.271L25.5117 109.389L25.6286 109.384L25.7455 109.311L25.8624 109.231L25.9793 109.13L26.0961 109.058L26.213 109.089L26.3299 108.93L26.4468 108.899L26.5637 109.147L26.6806 109.1L26.7975 109.074L26.9144 109.06L27.0313 109.155L27.1482 108.886L27.2651 108.873L27.382 108.85L27.4989 108.808L27.6158 108.903L27.7326 108.568L27.8495 108.664L27.9664 108.498L28.0833 108.629L28.2002 108.625L28.3171 108.604L28.434 108.666L28.5509 108.375L28.6678 108.386L28.7847 108.392L28.9016 108.769L29.0185 108.563L29.1354 108.546L29.2523 108.385L29.3691 108.64L29.486 108.58L29.6029 108.803L29.7198 108.79L29.8367 108.49L29.9536 108.25L30.0705 108.65L30.1874 108.66L30.3043 108.541L30.4212 108.659L30.5381 108.641L30.655 108.749L30.7719 108.504L30.8887 108.426L31.0056 108.497L31.1225 108.487L31.2394 108.74L31.3563 108.192L31.4732 108.569L31.5901 108.619L31.707 108.601L31.8239 108.362L31.9408 108.672L32.0577 108.663L32.1746 108.539L32.2915 108.461L32.4084 108.621L32.5252 108.55L32.6421 108.522L32.759 108.354L32.8759 107.878L32.9928 108.227L33.1097 108.105L33.2266 108.326L33.3435 108.345L33.4604 108.276L33.5773 108.131L33.6942 108.436L33.8111 108.2L33.928 108.284L34.0449 108.165L34.1617 108.157L34.2786 107.921L34.3955 107.767L34.5124 107.879L34.6293 108.03L34.7462 108.348L34.8631 108.186L34.98 107.863L35.0969 107.948L35.2138 107.911L35.3307 107.999L35.4476 108.265L35.5645 107.988L35.6813 108.039L35.7982 107.84L35.9151 107.574L36.032 107.695L36.1489 106.503L36.2658 107.871L36.3827 108.038L36.4996 107.956L36.6165 108.078L36.7334 108.222L36.8503 108.212L36.9672 108.323L37.0841 108.322L37.201 108.262L37.3178 107.857L37.4347 108.179L37.5516 108.211L37.6685 108.195L37.7854 108.378L37.9023 108.058L38.0192 107.854L38.1361 107.62L38.253 108.02L38.3699 108.012L38.4868 106.705L38.6037 106.901L38.7206 107.581L38.8374 107.802L38.9543 107.79L39.0712 107.717L39.1881 108.095L39.305 107.902L39.4219 108.39L39.5388 108.112L39.6557 108.222L39.7726 108.029L39.8895 107.645L40.0064 106.852L40.1233 108.198L40.2402 108.245L40.3571 108.217L40.4739 108.206L40.5908 108.244L40.7077 108.322L40.8246 108.179L40.9415 108.062L41.0584 108.18L41.1753 108.239L41.2922 108.283L41.4091 108.157L41.526 108.443L41.6429 108.045L41.7598 108.14L41.8767 108.312L41.9935 108.546L42.1104 108.248L42.2273 107.967L42.3442 107.604L42.4611 107.928L42.578 107.726L42.6949 107.921L42.8118 107.176L42.9287 107.365L43.0456 106.966L43.1625 107.468L43.2794 107.721L43.3963 107.795L43.5132 108.09L43.63 107.71L43.7469 107.866L43.8638 107.693L43.9807 107.669L44.0976 107.822L44.2145 108.022L44.3314 108.119L44.4483 108.036L44.5652 108.035L44.6821 107.805L44.799 107.848L44.9159 107.742L45.0328 107.955L45.1497 108.142L45.2665 108.171L45.3834 108.073L45.5003 107.698L45.6172 107.929L45.7341 107.763L45.851 108.037L45.9679 108.129L46.0848 108.06L46.2017 107.963L46.3186 107.728L46.4355 107.818L46.5524 107.647L46.6693 107.792L46.7861 107.755L46.903 108.056L47.0199 107.892L47.1368 107.81L47.2537 107.873L47.3706 107.781L47.4875 107.334L47.6044 107.933L47.7213 107.745L47.8382 108.053L47.9551 107.69L48.072 107.712L48.1889 107.302L48.3058 107.418L48.4226 108.041L48.5395 108.014L48.6564 107.914L48.7733 108.057L48.8902 107.421L49.0071 107.491L49.124 107.214L49.2409 107.815L49.3578 108.322L49.4747 108.175L49.5916 107.41L49.7085 107.947L49.8254 107.489L49.9422 108.473L50.0591 108.01L50.176 108.276L50.2929 108.005L50.4098 107.819L50.5267 108.045L50.6436 108.18L50.7605 108.438L50.8774 107.466L50.9943 107.577L51.1112 107.77L51.2281 107.263L51.345 108.106L51.4619 108.382L51.5787 107.994L51.6956 108.333L51.8125 107.981L51.9294 107.924L52.0463 108.144L52.1632 108.767L52.2801 108.641L52.397 108.09L52.5139 108.561L52.6308 108.486L52.7477 108.308L52.8646 107.532L52.9815 108.288L53.0984 108.009L53.2152 107.2L53.3321 108.329L53.449 108.465L53.5659 107.495L53.6828 107.774L53.7997 107.912L53.9166 107.958L54.0335 108.117L54.1504 108.202L54.2673 108.235L54.3842 107.919L54.5011 107.694L54.618 108.005L54.7348 108.071L54.8517 108.622L54.9686 108.333L55.0855 108.519L55.2024 108.094L55.3193 108.115L55.4362 108.174L55.5531 108.194L55.67 108.143L55.7869 108.153L55.9038 107.996L56.0207 107.985L56.1376 107.902L56.2544 108.108L56.3713 108.161L56.4882 107.99L56.6051 108.243L56.722 108.083L56.8389 108.049L56.9558 107.437L57.0727 106.833L57.1896 108.38L57.3065 107.184L57.4234 108.158L57.5403 107.952L57.6572 107.73L57.7741 107.806L57.8909 108.249L58.0078 108.365L58.1247 108.11L58.2416 108.127L58.3585 108.223L58.4754 108.112L58.5923 107.741L58.7092 108.104L58.8261 108.226L58.943 108.122L59.0599 108.171L59.1768 108.25L59.2937 108.274L59.4106 107.94L59.5274 107.792L59.6443 107.859L59.7612 107.98L59.8781 108.235L59.995 108.393L60.1119 107.887L60.2288 107.964L60.3457 107.594L60.4626 107.347L60.5795 107.955L60.6964 108.33L60.8133 108.395L60.9302 108.51L61.047 108.069L61.1639 108.012L61.2808 107.834L61.3977 107.946L61.5146 108.134L61.6315 108.275L61.7484 108.223L61.8653 107.871L61.9822 107.601L62.0991 107.662L62.216 107.989L62.3329 107.999L62.4498 108.049L62.5667 107.854L62.6835 107.742L62.8004 107.909L62.9173 107.606L63.0342 107.592L63.1511 108.088L63.268 108.105L63.3849 107.9L63.5018 107.827L63.6187 107.921L63.7356 107.998L63.8525 107.877L63.9694 108.017L64.0863 107.784L64.2032 107.86L64.32 107.616L64.4369 107.85L64.5538 107.816L64.6707 107.826L64.7876 107.91L64.9045 108.062L65.0214 107.9L65.1383 107.997L65.2552 107.947L65.3721 107.994L65.489 108.046L65.6059 107.898L65.7228 107.834L65.8396 107.791L65.9565 107.534L66.0734 107.578L66.1903 107.759L66.3072 107.514L66.4241 107.833L66.541 107.903L66.6579 107.301L66.7748 107.171L66.8917 107.339L67.0086 107.658L67.1255 107.673H67.2424L67.3593 107.739L67.4761 107.631L67.593 107.163L67.7099 107.618L67.8268 107.774L67.9437 107.409L68.0606 107.456L68.1775 107.542L68.2944 107.49L68.4113 107.06L68.5282 107.088L68.6451 106.467L68.762 106.833L68.8789 107.145L68.9957 107.243H69.1126L69.2295 106.929L69.3464 107.335L69.4633 106.835L69.5802 106.786L69.6971 106.804L69.814 106.7L69.9309 105.85L70.0478 106.108L70.1647 105.879L70.2816 104.258L70.3985 104.445L70.5153 105.388L70.6322 105.688L70.7491 105.932L70.866 105.705L70.9829 106.014L71.0998 105.81L71.2167 105.509L71.3336 105.699L71.4505 105.973L71.5674 105.125L71.6843 105.702L71.8012 105.21L71.9181 105.033L72.035 104.644L72.1519 105.915L72.2687 105.443L72.3856 104.807L72.5025 105.593L72.6194 105.529L72.7363 105.091L72.8532 105.223L72.9701 106.39L73.087 106.254L73.2039 106.202L73.3208 106.179L73.4377 105.928L73.5546 105.715L73.6715 105.882L73.7883 106.239L73.9052 106.475L74.0221 106.368L74.139 105.761L74.2559 105.624L74.3728 105.64L74.4897 105.875L74.6066 106.312L74.7235 106.112L74.8404 105.917L74.9573 105.212L75.0742 105.403L75.1911 104.566L75.3079 104.47L75.4248 105.308L75.5417 105.09L75.6586 104.131L75.7755 104.235L75.8924 104.97L76.0093 103.98L76.1262 104.339L76.2431 105.1L76.36 104.445L76.4769 103.832L76.5938 104.09L76.7107 104.274L76.8276 103.85L76.9444 104.411L77.0613 104.744L77.1782 104.743L77.2951 103.534L77.412 103.898L77.5289 102.556L77.6458 102.709L77.7627 101.347L77.8796 103.076L77.9965 102.016L78.1134 100.519L78.2303 99.9058L78.3472 99.8961L78.4641 100.138L78.5809 100.882L78.6978 102.03L78.8147 101.702L78.9316 101.517L79.0485 99.5394L79.1654 98.3828L79.2823 99.2269L79.3992 99.4665L79.5161 100.552L79.633 100.3L79.7499 99.7263L79.8668 99.15L79.9837 98.7746L80.1005 99.8732L80.2174 98.2867L80.3343 98.4263L80.4512 96.896L80.5681 93.9379L80.685 94.6647L80.8019 96.3365L80.9188 95.7045L81.0357 96.4723L81.1526 96.8096L81.2695 96.5876L81.3864 94.3175L81.5033 93.0611L81.6202 97.9789L81.737 94.4294L81.8539 94.8926L81.9708 96.3275L82.0877 97.4236L82.2046 92.593L82.3215 96.1907L82.4384 94.9925L82.5553 95.5819L82.6722 96.2101L82.7891 96.8974L82.906 96.4376L83.0229 93.4252L83.1398 94.5851L83.2566 95.1411L83.3735 95.8638L83.4904 93.7998L83.6073 96.4644L83.7242 97.7589L83.8411 93.3913L83.958 94.0092L84.0749 94.4518L84.1918 95.7536L84.3087 96.3945L84.4256 97.377L84.5425 96.4082L84.6594 96.4458L84.7763 95.1722L84.8931 95.2248L85.01 96.356L85.1269 97.3432L85.2438 98.8651L85.3607 95.768L85.4776 95.6211L85.5945 96.7569L85.7114 97.8818L85.8283 97.745L85.9452 96.5574L86.0621 99.2487L86.179 98.8059L86.2959 96.3546L86.4128 98.1315L86.5296 97.4273L86.6465 97.1303L86.7634 95.9558L86.8803 95.7167L86.9972 95.5065L87.1141 94.6016L87.231 92.4758L87.3479 94.6503L87.4648 91.3831L87.5817 90.343L87.6986 91.3598L87.8155 91.678L87.9324 87.3326L88.0493 87.153L88.1661 87.1317L88.283 86.3205L88.3999 85.4548L88.5168 89.1736L88.6337 92.98L88.7506 88.3016L88.8675 89.8893L88.9844 89.3262L89.1013 90.5809L89.2182 90.5721L89.3351 93.1863L89.452 92.1765L89.5689 89.9417L89.6857 88.2018L89.8026 87.8876L89.9195 88.7786L90.0364 88.4078L90.1533 91.7465L90.2702 93.3974L90.3871 85.4979L90.504 85.3863L90.6209 82.4646L90.7378 85.1734L90.8547 84.3092L90.9716 88.8219L91.0885 92.1226L91.2053 89.8523L91.3222 87.6238L91.4391 89.8356L91.556 89.0138L91.6729 85.5445L91.7898 89.3797L91.9067 94.131L92.0236 90L92.1405 91.4106L92.2574 92.1307L92.3743 92.5768L92.4912 95.1488L92.6081 95.7896L92.725 94.6153L92.8418 93.1667L92.9587 93.1971L93.0756 93.0295L93.1925 91.8925L93.3094 92.0451L93.4263 93.7767L93.5432 94.4494L93.6601 93.196L93.777 91.9659L93.8939 93.1225L94.0108 92.7046L94.1277 92.4185L94.2446 94.0422L94.3614 93.7186L94.4783 91.9509L94.5952 90.7422L94.7121 91.0411L94.829 89.9635L94.9459 89.0767L95.0628 91.7255L95.1797 91.9087L95.2966 87.4321L95.4135 81.9438L95.5304 83.9269L95.6473 82.5883L95.7642 79.6188L95.8811 84.3525L95.9979 85.8983L96.1148 84.0555L96.2317 82.6952L96.3486 84.4925L96.4655 84.1549L96.5824 83.0415L96.6993 83.1314L96.8162 82.5887L96.9331 80.4202L97.05 81.1376L97.1669 80.6934L97.2838 80.6091L97.4007 83.0617L97.5175 87.9701L97.6344 86.9355L97.7513 81.6025L97.8682 83.9286L97.9851 83.3649L98.102 84.1117L98.2189 84.6613L98.3358 88.2171L98.4527 85.9611L98.5696 85.465L98.6865 83.6147L98.8034 79.9709L98.9203 82.7407L99.0372 81.7758L99.1541 84.5343L99.2709 84.2588L99.3878 80.5604L99.5047 80.9042L99.6216 79.6384L99.7385 80.1697L99.8554 80.8205L99.9723 78.8107L100.089 79.8643L100.206 76.1301L100.323 74.4216L100.44 73.0348L100.557 73.4929L100.674 75.3392L100.791 75.0535L100.908 71.33L101.025 70.8773L101.142 71.3705L101.258 65.8065L101.375 73.2892L101.492 67.2354L101.609 70.5734L101.726 70.046L101.843 63.7112L101.96 61.2612L102.077 59.1581L102.194 57.3011L102.31 59.4562L102.427 59.7093L102.544 61.0224L102.661 54.9627L102.778 48.8598L102.895 54.8452L103.012 49.9634L103.129 48.2231L103.246 58.6364L103.362 67.6965L103.479 68.0277L103.596 64.5791L103.713 58.9821L103.83 56.9094L103.947 48.975L104.064 46.3543L104.181 57.0517L104.298 59.1968L104.415 45.3799L104.531 40.6372L104.648 34.3286L104.765 38.7453L104.882 41.2922L104.999 45.4484L105.116 41.9094L105.233 39.6102L105.35 44.0406L105.467 44.2504L105.583 47.3639L105.7 43.9483L105.817 49.4599L105.934 42.42L106.051 38.3866L106.168 38.4348L106.285 42.4897L106.402 51.6219L106.519 54.9363L106.635 53.6933L106.752 55.5893L106.869 58.0943L106.986 58.9304L107.103 65.9887L107.22 56.688L107.337 63.5368L107.454 60.3158L107.571 57.6233L107.688 59.3303L107.804 60.9824L107.921 53.5675L108.038 55.1256L108.155 64.5241L108.272 65.2916L108.389 61.0683L108.506 60.3657L108.623 64.2906L108.74 72.0329L108.856 65.9159L108.973 62.612L109.09 66.8358L109.207 63.7044L109.324 68.3965L109.441 68.3648L109.558 66.6202L109.675 70.7124L109.792 66.9157L109.908 67.8173L110.025 64.699L110.142 60.4403L110.259 62.4927L110.376 67.4902L110.493 69.1149L110.61 69.1275L110.727 71.5119L110.844 68.8685L110.961 71.2863L111.077 69.8321L111.194 71.8604L111.311 68.4617L111.428 72.4773L111.545 74.1818L111.662 68.0055L111.779 70.2707L111.896 66.2571L112.013 71.5369L112.129 73.7974L112.246 77.1068L112.363 76.1186L112.48 72.2267L112.597 71.0319L112.714 72.6051L112.831 73.5451L112.948 73.5421L113.065 77.0039L113.181 71.8778L113.298 70.7613L113.415 73.1357L113.532 71.1008L113.649 75.5234L113.766 72.2721L113.883 75.8759L114 80.7729L114.117 75.1195L114.233 77.5198L114.35 77.7565L114.467 77.5413L114.584 74.7247L114.701 77.5005L114.818 79.7144L114.935 76.7048L115.052 74.0275L115.169 75.0165L115.286 71.2136L115.402 73.9145L115.519 80.2376L115.636 76.8612L115.753 76.0679L115.87 78.2342L115.987 76.1072L116.104 71.3978L116.221 69.2695L116.338 75.9895L116.454 75.4934L116.571 72.9884L116.688 68.5657L116.805 70.7951L116.922 64.5335L117.039 63.5239L117.156 68.3806L117.273 68.2253L117.39 65.1792L117.506 64.4185L117.623 65.3966L117.74 65.6866L117.857 67.3443L117.974 66.7329L118.091 67.7858L118.208 66.5743L118.325 70.2003L118.442 66.0335L118.559 63.1085L118.675 54.0319L118.792 65.9467L118.909 71.473L119.026 65.9127L119.143 64.2075L119.26 63.5855L119.377 62.2489L119.494 63.8691L119.611 65.9903L119.727 67.4594L119.844 65.2402L119.961 66.5135L120.078 64.9318L120.195 63.3242L120.312 63.5458L120.429 62.7305L120.546 66.6222L120.663 65.2163L120.779 64.0772L120.896 63.4586L121.013 64.7112L121.13 65.2938L121.247 67.488L121.364 66.6932L121.481 61.9007L121.598 64.6539L121.715 64.3729L121.832 63.4888L121.948 67.6961L122.065 67.1448L122.182 64.7772L122.299 64.9369L122.416 66.4321L122.533 67.9314L122.65 66.7043L122.767 69.8519L122.884 67.0653L123 66.9608L123.117 67.0902L123.234 67.0217L123.351 65.4743L123.468 67.2633L123.585 67.3824L123.702 74.3773L123.819 73.8825L123.936 71.2203L124.052 66.5386L124.169 65.1675L124.286 68.0461L124.403 67.0072L124.52 72.3389L124.637 72.5602L124.754 63.2394L124.871 69.1665L124.988 66.9237L125.105 68.4551L125.221 69.0017L125.338 74.7605L125.455 75.3441L125.572 82.8491L125.689 78.1132L125.806 85.243L125.923 80.7045L126.04 84.5683L126.157 83.1567L126.273 74.8437L126.39 73.692L126.507 71.4449L126.624 74.1435L126.741 78.5348L126.858 78.6893L126.975 81.7555L127.092 84.8711L127.209 70.7552L127.325 70.9079L127.442 68.3783L127.559 69.0237L127.676 72.582L127.793 75.4568L127.91 72.3706L128.027 67.6727L128.144 66.1921L128.261 66.0445L128.378 69.5353L128.494 65.9775L128.611 70.7567L128.728 70.0585L128.845 67.726L128.962 68.4393L129.079 67.7234L129.196 66.473L129.313 67.981L129.43 69.8219L129.546 70.7411L129.663 71.0069L129.78 74.5709L129.897 78.557L130.014 80.0873L130.131 75.837L130.248 73.3883L130.365 74.2559L130.482 71.2661L130.598 71.5251L130.715 73.8816L130.832 70.0371L130.949 76.2105L131.066 75.0684L131.183 76.6397L131.3 73.0241L131.417 76.3025L131.534 76.9071L131.65 76.6455L131.767 76.8333L131.884 77.9042L132.001 78.0828L132.118 74.0299L132.235 75.8397L132.352 79.6185L132.469 77.0239L132.586 77.9031L132.703 73.4479L132.819 75.4775L132.936 74.848L133.053 77.2115L133.17 75.1002L133.287 77.2432L133.404 77.6253L133.521 79.8162L133.638 78.5588L133.755 78.7856L133.871 79.0277L133.988 78.2745L134.105 79.1159L134.222 81.4485L134.339 83.4054L134.456 84.6046L134.573 79.2306L134.69 82.2313L134.807 81.8511L134.923 82.3648L135.04 79.7401L135.157 83.9348L135.274 84.0296L135.391 83.3692L135.508 81.1826L135.625 82.6265L135.742 82.032L135.859 82.2373L135.976 85.9647L136.092 83.4248L136.209 83.5964L136.326 82.8095L136.443 78.9325L136.56 78.9226L136.677 76.8821L136.794 76.7973L136.911 82.3862L137.028 79.8441L137.144 80.172L137.261 81.3144L137.378 78.2828L137.495 78.7557L137.612 79.903L137.729 81.5993L137.846 78.763L137.963 78.0051L138.08 77.7285L138.196 78.5498L138.313 76.5574L138.43 80.3382L138.547 81.8083L138.664 77.9L138.781 79.089L138.898 80.4156L139.015 80.1602L139.132 79.3717L139.249 82.3074L139.365 81.7041L139.482 75.7918L139.599 76.1469L139.716 77.4266L139.833 77.2355L139.95 79.5231L140.067 81.9774L140.184 81.6485L140.301 77.6157L140.417 76.7803L140.534 78.6169L140.651 79.1363L140.768 79.5618L140.885 82.8739L141.002 80.6925L141.119 78.2469L141.236 79.2379L141.353 77.6255L141.469 78.7043L141.586 79.3216L141.703 81.9455L141.82 83.1174L141.937 75.3266L142.054 75.1682L142.171 77.7749L142.288 78.3748L142.405 78.8769L142.522 82.4243L142.638 80.6226L142.755 79.0237L142.872 78.5479L142.989 75.3471L143.106 79.1251L143.223 76.6747L143.34 80.8076L143.457 82.6883L143.574 79.5475L143.69 78.583L143.807 76.8497L143.924 77.1324L144.041 78.1761L144.158 79.2909L144.275 81.8342L144.392 79.137L144.509 80.2296L144.626 80.3473L144.742 78.5556L144.859 78.4644L144.976 79.3323L145.093 81.3186L145.21 78.3096L145.327 79.084L145.444 76.7432L145.561 76.4835L145.678 76.2525L145.795 82.5112L145.911 79.7982L146.028 75.7435L146.145 80.2863L146.262 78.8738L146.379 79.53L146.496 78.189L146.613 79.7931L146.73 84.4939L146.847 81.0173L146.963 85.1835L147.08 77.1868L147.197 76.8111L147.314 79.4743L147.431 81.6292L147.548 82.9725L147.665 79.386L147.782 79.2505L147.899 78.9414L148.015 77.5884L148.132 79.9007L148.249 84.9275L148.366 83.3122L148.483 77.9042L148.6 80.0102L148.717 81.8267L148.834 81.2969L148.951 80.0665L149.068 80.0537L149.184 80.1338L149.301 77.5933L149.418 76.3071L149.535 80.353L149.652 81.125L149.769 81.9837L149.886 84.2691L150.003 82.8911L150.12 78.3934L150.236 78.5366L150.353 79.1388L150.47 81.2983L150.587 82.3248L150.704 85.0624L150.821 86.5252L150.938 86.9754L151.055 87.0645L151.172 86.2608L151.288 86.2828L151.405 83.8421L151.522 86.934L151.639 88.963L151.756 86.2641L151.873 85.7506L151.99 82.7479L152.107 83.6825L152.224 84.0312L152.34 84.8371L152.457 85.196L152.574 81.5578L152.691 80.3652L152.808 80.5532L152.925 79.7327L153.042 80.521L153.159 83.6011L153.276 79.993L153.393 78.1006L153.509 79.219L153.626 80.0317L153.743 79.9221L153.86 79.5745L153.977 80.7425L154.094 82.6899L154.211 75.4807L154.328 76.7285L154.445 77.8087L154.561 78.161L154.678 78.7433L154.795 79.1102L154.912 83.1605L155.029 80.2067L155.146 78.6336L155.263 78.1274L155.38 78.0966L155.497 79.2705L155.613 82.0244L155.73 82.5495L155.847 78.0902L155.964 74.5936L156.081 74.9109L156.198 75.5874L156.315 75.0019L156.432 78.7761L156.549 79.4927L156.666 73.8757L156.782 74.9844L156.899 75.1571L157.016 74.6823L157.133 74.3448L157.25 72.7873L157.367 74.0133L157.484 71.6816L157.601 67.659L157.718 68.3524L157.834 72.4742L157.951 75.3841L158.068 78.9306L158.185 78.1497L158.302 72.7855L158.419 73.4107L158.536 72.4432L158.653 69.3434L158.77 71.2744L158.886 75.8145L159.003 79.3809L159.12 75.3765L159.237 73.4363L159.354 72.0018L159.471 71.1133L159.588 71.3652L159.705 71.7239L159.822 74.8615L159.939 69.892L160.055 69.3301L160.172 72.7338L160.289 72.0629L160.406 73.1768L160.523 78.7249L160.64 76.9881L160.757 74.9856L160.874 70.5425L160.991 70.767L161.107 75.1368L161.224 72.623L161.341 75.3011L161.458 74.5076L161.575 70.6348L161.692 73.3412L161.809 71.7142L161.926 69.9408L162.043 68.9075L162.159 68.5931L162.276 70.0882L162.393 67.6705L162.51 63.6048L162.627 62.6562L162.744 59.2384L162.861 64.759L162.978 68.9832L163.095 68.0238L163.212 61.9481L163.328 64.6192L163.445 61.2024L163.562 62.7059L163.679 59.4725L163.796 63.088L163.913 67.4224L164.03 57.3476L164.147 59.1071L164.264 57.0219L164.38 60.1577L164.497 61.3551L164.614 56.5007L164.731 60.2148L164.848 60.3179L164.965 60.155L165.082 65.3753L165.199 63.9414L165.316 67.6841L165.432 54.4759L165.549 70.093L165.666 56.1091L165.783 58.0072L165.9 61.9187L166.017 68.1746L166.134 63.9106L166.251 57.5045L166.368 60.3228L166.485 57.2145L166.601 62.5202L166.718 60.4878L166.835 54.9061L166.952 66.6028L167.069 67.7022L167.186 66.8356L167.303 64.7975L167.42 57.8856L167.537 62.6001L167.653 64.5448L167.77 53.8264L167.887 69.1006L168.004 71.7727L168.121 56.7695L168.238 59.9802L168.355 67.9789L168.472 68.3011L168.589 62.573L168.705 67.9331L168.822 77.6319L168.939 64.7886L169.056 66.9227L169.173 68.945L169.29 55.4552L169.407 69.4923L169.524 77.3377L169.641 75.8597L169.758 68.5391L169.874 53.8767L169.991 63.6475L170.108 72.7926L170.225 64.4642L170.342 77.5181L170.459 80.9961L170.576 74.3271L170.693 76.2373L170.81 59.2945L170.926 56.8891L171.043 74.35L171.16 77.8784L171.277 78.1603L171.394 72.2785L171.511 70.0907L171.628 71.8671L171.745 60.9622L171.862 67.1281L171.978 66.272L172.095 78.3613L172.212 69.9409L172.329 69.1731L172.446 68.5852L172.563 71.3904L172.68 69.7534L172.797 74.8762L172.914 77.6071L173.03 70.2505L173.147 71.0557L173.264 68.914L173.381 71.5969L173.498 69.9163L173.615 74.3022L173.732 75.0831L173.849 69.6012L173.966 69.0903L174.083 69.2043L174.199 68.8859L174.316 69.1038L174.433 71.8699L174.55 72.2633L174.667 68.1132L174.784 68.2648L174.901 69.7253L175.018 69.6166L175.135 70.2367L175.251 72.1215L175.368 71.5315L175.485 67.7357L175.602 68.0919L175.719 70.1668L175.836 67.0402L175.953 67.1175L176.07 72.2528L176.187 72.383L176.303 67.7939L176.42 71.4536L176.537 70.6823L176.654 69.6427L176.771 75.2969L176.888 75.015L177.005 74.7052L177.122 69.1191L177.239 72.0064L177.356 70.4877L177.472 71.4047L177.589 70.0148L177.706 76.7912L177.823 77.9423L177.94 74.3988L178.057 70.4438L178.174 72.2398L178.291 73.3677L178.408 75.2877L178.524 76.1774L178.641 77.0725L178.758 71.8874L178.875 74.0785L178.992 75.0901L179.109 75.7639L179.226 77.1734L179.343 76.8958L179.46 78.2127L179.576 74.9634L179.693 70.3958L179.81 68.0845L179.927 70.6352L180.044 70.83L180.161 74.6776L180.278 78.4904L180.395 73.7667L180.512 71.5051L180.629 71.2859L180.745 70.7719L180.862 69.0832L180.979 72.9451L181.096 75.9245L181.213 72.1917L181.33 69.5015L181.447 68.9286L181.564 69.5755L181.681 68.6315L181.797 70.0321L181.914 74.198L182.031 69.7775L182.148 70.5509L182.265 69.9872L182.382 68.4926L182.499 70.6977L182.616 77.1294L182.733 78.2497L182.849 72.6285L182.966 68.7669L183.083 70.5446L183.2 62.1054L183.317 71.0294L183.434 76.3945L183.551 76.0924L183.668 70.4081L183.785 70.4924L183.902 70.2165L184.018 72.1366L184.135 71.9368L184.252 76.8088L184.369 76.611L184.486 69.0366L184.603 68.9769L184.72 71.5577L184.837 67.4336L184.954 65.6372L185.07 74.8344L185.187 76.7965L185.304 67.434L185.421 72.1238L185.538 72.3931L185.655 75.3189L185.772 72.6407L185.889 77.4738L186.006 75.7707L186.122 72.0405L186.239 76.0268L186.356 73.18L186.473 75.6253L186.59 78.1057L186.707 82.93L186.824 85.6062L186.941 74.6206L187.058 74.8382L187.175 75.1909L187.291 74.6106L187.408 75.4074L187.525 79.3759L187.642 80.7378L187.759 74.6645L187.876 73.9699L187.993 73.0508L188.11 75.4847L188.227 75.8119L188.343 79.7011L188.46 80.572L188.577 74.8364L188.694 76.4618L188.811 78.5892L188.928 77.3737L189.045 77.7468L189.162 81.3332L189.279 83.3808L189.395 77.4989L189.512 79.2027L189.629 84.1481L189.746 81.9422L189.863 77.6559L189.98 78.9286L190.097 80.8693L190.214 75.1246L190.331 73.9993L190.447 73.5846L190.564 75.4137L190.681 76.3332L190.798 79.4623L190.915 80.9095L191.032 78.5725L191.149 72.5741L191.266 71.0711L191.383 71.339L191.5 72.303L191.616 75.0295L191.733 75.7538L191.85 76.6619L191.967 78.935L192.084 81.4838L192.201 79.2975L192.318 82.4218L192.435 85.8971L192.552 86.2736L192.668 83.5833L192.785 80.7779L192.902 79.3542L193.019 78.5351L193.136 77.5591L193.253 79.6795L193.37 80.563L193.487 75.4254L193.604 80.8799L193.72 76.0126L193.837 76.2537L193.954 75.14L194.071 73.1437L194.188 75.0058L194.305 72.7426L194.422 70.4574L194.539 65.4447L194.656 67.3283L194.773 66.9299L194.889 71.0287L195.006 73.1526L195.123 71.2421L195.24 69.0642L195.357 71.2156L195.474 71.5673L195.591 72.6421L195.708 76.2901L195.825 76.2658L195.941 71.6743L196.058 72.6582L196.175 70.7028L196.292 70.164L196.409 71.6184L196.526 75.4663L196.643 75.0132L196.76 72.0254L196.877 73.1566L196.993 73.013L197.11 69.8464L197.227 72.2892L197.344 74.8727L197.461 73.092L197.578 66.2386L197.695 67.5638L197.812 70.2439L197.929 67.5529L198.046 62.6369L198.162 72.0055L198.279 73.369L198.396 66.2381L198.513 67.4221L198.63 67.1211L198.747 61.7306L198.864 64.0914L198.981 62.098L199.098 68.3755L199.214 65.2712L199.331 65.7979L199.448 67.293L199.565 66.8836L199.682 68.2299L199.799 72.8009L199.916 76.1702L200.033 69.627L200.15 69.1902L200.266 71.9391L200.383 69.8216L200.5 69.7012L200.617 75.1569L200.734 75.8309L200.851 66.9596L200.968 66.2732L201.085 63.6365L201.202 69.4297L201.319 68.4066L201.435 72.0792L201.552 72.1916L201.669 68.482L201.786 64.553L201.903 65.7836L202.02 65.8862L202.137 66.1509L202.254 66.2935L202.371 68.6304L202.487 63.712L202.604 64.6099L202.721 65.8757L202.838 63.8523L202.955 62.7012L203.072 65.7753L203.189 65.2311L203.306 63.0178L203.423 63.1724L203.539 59.8208L203.656 59.7318L203.773 63.8105L203.89 67.2591L204.007 65.9225L204.124 66.8054L204.241 66.1578L204.358 63.4514L204.475 60.9911L204.592 60.3918L204.708 60.0181L204.825 60.877L204.942 60.4032L205.059 60.791L205.176 62.1285L205.293 64.1962L205.41 60.3391L205.527 61.1095L205.644 64.8637L205.76 62.09L205.877 62.6318L205.994 62.2179L206.111 61.5227L206.228 58.783L206.345 61.482L206.462 63.8885L206.579 61.077L206.696 58.7439L206.812 59.9146L206.929 59.2916L207.046 56.9226L207.163 60.7193L207.28 62.5153L207.397 58.0165L207.514 55.1386L207.631 59.7935L207.748 57.9864L207.864 59.5888L207.981 57.0959L208.098 57.2319L208.215 55.9674L208.332 58.3999L208.449 57.4516L208.566 58.2727L208.683 60.3037L208.8 63.4649L208.917 66.186L209.033 59.0087L209.15 59.4234L209.267 60.8441L209.384 58.9205L209.501 57.1103L209.618 57.3656L209.735 54.7914L209.852 48.8683L209.969 47.3253L210.085 50.0651L210.202 51.7074L210.319 53.0743L210.436 53.095L210.553 54.1895L210.67 50.8926L210.787 47.7835L210.904 51.5553L211.021 51.8553L211.137 52.8153L211.254 57.0908L211.371 60.825L211.488 52.9329L211.605 50.4236L211.722 48.8611L211.839 50.0944L211.956 52.0986L212.073 55.0242L212.19 54.1766L212.306 45.4985L212.423 48.4973L212.54 47.7811L212.657 50.1915L212.774 49.6568L212.891 50.0286L213.008 49.4117L213.125 45.9572L213.242 47.2885L213.358 46.2764L213.475 45.763L213.592 45.8116L213.709 44.1634L213.826 46.2847L213.943 39.3161L214.06 41.5214L214.177 44.8208L214.294 44.7853L214.41 41.7196L214.527 44.3856L214.644 46.9619L214.761 44.0909L214.878 44.8006L214.995 43.7578L215.112 41.8862L215.229 39.9794L215.346 43.7743L215.463 41.138L215.579 37.7074L215.696 39.7228L215.813 41.1344L215.93 42.2666L216.047 42.6949L216.164 47.98L216.281 45.4683L216.398 43.7985L216.515 41.1321L216.631 41.8294L216.748 43.7411L216.865 39.5814L216.982 48.282L217.099 47.1515L217.216 44.9149L217.333 46.2675L217.45 44.6873L217.567 46.359L217.683 46.622L217.8 46.6739L217.917 46.0297L218.034 40.7599L218.151 40.2046L218.268 43.8416L218.385 45.6224L218.502 46.0978L218.619 51.7545L218.736 52.5576L218.852 51.1582L218.969 52.5557L219.086 51.0949L219.203 47.2395L219.32 49.8648L219.437 52.1111L219.554 51.6902L219.671 49.5673L219.788 48.995L219.904 52.0869L220.021 31.1633L220.138 40.255L220.255 48.9857L220.372 48.6863L220.489 46.5233L220.606 49.4653L220.723 49.3185L220.84 49.1247L220.956 52.0995L221.073 54.9324L221.19 55.952L221.307 49.5392L221.424 49.0854L221.541 49.6039L221.658 53.0046L221.775 53.941L221.892 56.5132L222.009 54.882L222.125 52.4999L222.242 49.3522L222.359 52.066L222.476 52.9648L222.593 51.2659L222.71 52.0114L222.827 53.7964L222.944 48.8638L223.061 46.8767L223.177 48.7643L223.294 39.9861L223.411 44.9739L223.528 51.1417L223.645 54.3034L223.762 46.7902L223.879 48.1016L223.996 45.0744L224.113 43.4L224.229 46.5699L224.346 53.376L224.463 56.0238L224.58 49.2035L224.697 49.6363L224.814 46.188L224.931 47.9791L225.048 47.8007L225.165 49.0091L225.281 51.1992L225.398 45.2145L225.515 47.33L225.632 46.3168L225.749 46.8184L225.866 44.3628L225.983 46.6327L226.1 53.1329L226.217 45.7319L226.334 45.1815L226.45 48.6146L226.567 48.4639L226.684 45.2423L226.801 50.2794L226.918 51.9507L227.035 48.1109L227.152 44.3041L227.269 47.2488L227.386 47.1389L227.502 44.876L227.619 44.3508L227.736 45.7144L227.853 42.0132L227.97 40.5221L228.087 42.4479L228.204 44.2862L228.321 48.2589L228.438 54.4938L228.555 54.4039L228.671 43.6892L228.788 44.3408L228.905 50.0354L229.022 47.6222L229.139 46.4853L229.256 50.919L229.373 52.115L229.49 48.2807L229.607 45.6123L229.723 45.5556L229.84 48.8488L229.957 47.172L230.074 48.8694L230.191 46.0134L230.308 40.4363L230.425 41.92L230.542 39.2985L230.659 34.7578L230.775 43.1232L230.892 44.876L231.009 49.8709L231.126 45.774L231.243 45.7654L231.36 39.7192L231.477 46.0112L231.594 46.1424L231.711 46.1906L231.827 44.0582L231.944 39.5796L232.061 42.404L232.178 41.2225L232.295 44.8193L232.412 46.3513L232.529 44.4266L232.646 40.8409L232.763 38.5427L232.88 39.4861L232.996 38.2458L233.113 37.2231L233.23 37.7653L233.347 40.9909L233.464 42.1841L233.581 38.2542L233.698 44.7273L233.815 46.9254L233.932 43.6503L234.048 41.2488L234.165 43.1577L234.282 46.5553L234.399 41.7695L234.516 39.8361L234.633 41.9964L234.75 44.0121L234.867 43.7524L234.984 46.1283L235.1 47.4211L235.217 42.3724L235.334 43.0869L235.451 46.1106L235.568 43.299L235.685 37.4828L235.802 41.7533L235.919 40.2484L236.036 37.1169L236.153 36.9792L236.269 36.3016L236.386 36.586L236.503 36.189L236.62 41.2126L236.737 41.0541L236.854 38.5106L236.971 35.5889L237.088 35.9942L237.205 38.8048L237.321 37.6893L237.438 39.8288L237.555 42.4062L237.672 42.1899L237.789 41.7716L237.906 39.4826L238.023 37.2311L238.14 35.8103L238.257 35.027L238.373 40.8917L238.49 36.4555L238.607 36.9798L238.724 37.9765L238.841 40.9346L238.958 40.7381L239.075 42.6449L239.192 43.9179L239.309 43.5758L239.426 40.5159L239.542 40.8054L239.659 40.8136L239.776 42.2948L239.893 45.0087L240.01 43.9041L240.127 41.8562L240.244 38.5327L240.361 39.6201L240.478 38.0014L240.594 35.6941L240.711 37.5172L240.828 38.3892L240.945 35.9361L241.062 36.6352L241.179 38.7046L241.296 37.1558L241.413 37.6368L241.53 39.268L241.646 42.44L241.763 36.7216L241.88 37.201L241.997 36.6083L242.114 34.3414L242.231 39.0691L242.348 41.047L242.465 42.1099L242.582 38.8398L242.699 37.0874L242.815 34.0628L242.932 33.3069L243.049 33.8363L243.166 37.5183L243.283 42.9019L243.4 37.3145L243.517 35.1233L243.634 37.5227L243.751 38.0193L243.867 37.0926L243.984 36.2954L244.101 39.5728L244.218 34.4362L244.335 34.2961L244.452 32.2729L244.569 42.9321L244.686 29.9811L244.803 28.5135L244.919 31.6849L245.036 27.1689L245.153 22.7294L245.27 22.1769L245.387 21.5052L245.504 23.7705L245.621 32.1171L245.738 32.1032L245.855 28.7692L245.972 28.7789L246.088 24.87L246.205 24.1304L246.322 29.1773L246.439 29.9478L246.556 30.518L246.673 26.4942L246.79 23.8258L246.907 24.7982L247.024 24.047L247.14 24.2899L247.257 13.9696L247.374 13.6471L247.491 13.6534L247.608 13.6781L247.725 18.8652L247.842 20.8682L247.959 24.0756L248.076 27.4036L248.192 30.0861L248.309 28.8729L248.426 30.0896L248.543 28.0525L248.66 28.1669L248.777 33.3414L248.894 38.0637L249.011 39.1583L249.128 36.4238L249.244 37.7375L249.361 35.6516L249.478 37.6282L249.595 36.8559L249.712 37.5131L249.829 38.2543L249.946 37.2614L250.063 38.5887L250.18 36.3427L250.297 35.0155L250.413 37.0406L250.53 44.0975L250.647 46.4746L250.764 41.3411L250.881 41.5941L250.998 43.1049L251.115 43.4275L251.232 43.7247L251.349 46.6296L251.465 47.0267L251.582 43.4275L251.699 41.4228L251.816 42.7195L251.933 41.713L252.05 44.4637L252.167 51.231L252.284 50.8306L252.401 42.2425L252.517 37.2752L252.634 42.6707L252.751 42.3866L252.868 41.2406L252.985 45.576L253.102 48.1566L253.219 31.2713L253.336 39.1546L253.453 42.0932L253.57 42.1216L253.686 43.8212L253.803 47.1504L253.92 48.1205L254.037 45.7206L254.154 34.0167L254.271 37.6511L254.388 39.25L254.505 41.4459L254.622 46.2073L254.738 48.3222L254.855 43.2634L254.972 43.7176L255.089 41.4776L255.206 39.3998L255.323 42.8374L255.44 44.7772L255.557 44.5392L255.674 43.0517L255.79 43.1909L255.907 43.0544L256.024 42.6216L256.141 42.5905L256.258 41.3434L256.375 46.7948L256.492 39.3633L256.609 36.1201L256.726 37.1263L256.843 39.4474L256.959 40.3943L257.076 42.0871L257.193 43.3112L257.31 38.8641L257.427 41.6731L257.544 41.4375L257.661 45.0569L257.778 42.1041L257.895 42.8704L258.011 43.6687L258.128 41.7334L258.245 42.089L258.362 40.8415L258.479 43.0481L258.596 42.9484L258.713 45.0412L258.83 46.9952L258.947 39.7384L259.063 39.8402L259.18 42.695L259.297 39.6546L259.414 39.3951L259.531 43.5289L259.648 43.6904L259.765 40.209L259.882 40.1285L259.999 43.6404L260.116 44.1884L260.232 47.3462L260.349 46.6328L260.466 45.7626L260.583 42.8388L260.7 42.4259L260.817 41.3662L260.934 39.3272L261.051 42.851L261.168 43.3976L261.284 46.3651L261.401 42.4159L261.518 36.6871L261.635 43.9975L261.752 41.6626L261.869 40.2607L261.986 39.9939L262.103 42.1432L262.22 38.9757L262.336 41.0202L262.453 42.354L262.57 41.4083L262.687 43.4826L262.804 45.9867L262.921 46.8299L263.038 44.2168L263.155 43.1602L263.272 44.2467L263.389 43.1738L263.505 45.4505L263.622 47.233L263.739 49.0683L263.856 46.5097L263.973 47.9637L264.09 46.3989L264.207 47.5106L264.324 42.3724L264.441 47.4123L264.557 46.7172L264.674 47.2085L264.791 40.7701L264.908 35.0086L265.025 34.6442L265.142 37.8735L265.259 43.2413L265.376 46.2843L265.493 43.7134L265.609 42.5809L265.726 43.3542L265.843 41.2538L265.96 36.9735L266.077 43.8518L266.194 45.9299L266.311 42.9133L266.428 40.3286L266.545 39.4047L266.661 38.4239L266.778 39.6213L266.895 40.7986L267.012 39.3242L267.129 37.1708L267.246 34.6173L267.363 33.166L267.48 25.2705L267.597 28.3255L267.714 32.6815L267.83 36.9063L267.947 34.7887L268.064 31.7475L268.181 30.5313L268.298 34.1991L268.415 34.9055L268.532 39.6282L268.649 38.4395L268.766 35.5058L268.882 35.2166L268.999 32.0244L269.116 34.4553L269.233 34.597L269.35 37.1161L269.467 38.5103L269.584 37.7268L269.701 36.5697L269.818 34.1409L269.934 38.0306L270.051 39.6357L270.168 45.0307L270.285 39.3452L270.402 41.569L270.519 39.1165L270.636 34.7459L270.753 37.0533L270.87 37.2819L270.987 42.0329L271.103 46.4111L271.22 40.0926L271.337 38.218L271.454 41.5614L271.571 39.1001L271.688 42.1341L271.805 40.7688L271.922 32.2644L272.039 40.257L272.155 41.385L272.272 37.3506L272.389 39.8867L272.506 40.6539L272.623 42.8168L272.74 43.8029L272.857 40.3582L272.974 41.9417L273.091 39.4849L273.207 45.2942L273.324 38.8142L273.441 45.0451L273.558 46.3023L273.675 42.7122L273.792 42.5769L273.909 40.9032L274.026 40.2305L274.143 37.2365L274.26 37.1694L274.376 42.3905L274.493 39.8473L274.61 40.4679L274.727 39.823L274.844 39.6414L274.961 41.9595L275.078 43.8542L275.195 45.1L275.312 42.2647L275.428 41.5799L275.545 39.9831L275.662 42.0774L275.779 43.4312L275.896 43.6916L276.013 47.9524L276.13 40.9099L276.247 38.4028L276.364 38.0815L276.48 38.1055L276.597 41.7409L276.714 44.2005L276.831 44.8713L276.948 42.8543L277.065 44.5007L277.182 41.4768L277.299 43.345L277.416 43.3518L277.533 42.5046L277.649 49.6691L277.766 45.765L277.883 44.0431L278 45.821L278.117 46.5221L278.234 46.3036L278.351 45.7623L278.468 43.6929L278.585 44.0597L278.701 44.2935L278.818 45.4516L278.935 47.7893L279.052 44.5307L279.169 40.8068L279.286 44.2549L279.403 44.8497L279.52 43.866L279.637 42.4499L279.753 42.4619L279.87 43.6863L279.987 47.5957L280.104 47.5591L280.221 45.7417L280.338 43.1975L280.455 43.0813L280.572 46.0533L280.689 39.8069L280.806 45.5928L280.922 34.6682L281.039 46.4846L281.156 46.7742L281.273 45.7355L281.39 43.8433L281.507 46.2844L281.624 44.5979L281.741 47.0082L281.858 47.9643L281.974 44.9497L282.091 43.2688L282.208 44.6326L282.325 44.6178L282.442 49.6636L282.559 47.1108L282.676 44.2163L282.793 43.0287L282.91 44.0046L283.026 41.1132L283.143 47.3314L283.26 47.2585L283.377 51.7026L283.494 48.5395L283.611 43.3343L283.728 40.7511L283.845 44.2184L283.962 39.063L284.078 46.8648L284.195 47.3465L284.312 44.8784L284.429 41.6219L284.546 44.7877L284.663 45.4909L284.78 45.7816L284.897 47.0751L285.014 47.143L285.131 41.7656L285.247 42.7877L285.364 45.4778L285.481 44.6363L285.598 45.0665L285.715 48.7225L285.832 50.6338L285.949 48.1302L286.066 49.1477L286.183 46.8892L286.299 46.8543L286.416 48.1726L286.533 49.2452L286.65 48.1827L286.767 47.6737L286.884 47.7155L287.001 50.2275L287.118 47.447L287.235 47.8018L287.351 50.718L287.468 51.6223L287.585 48.2278L287.702 41.9645L287.819 40.4396L287.936 47.2981L288.053 45.8939L288.17 51.1583L288.287 50.0134L288.404 45.6455L288.52 46.9977L288.637 44.9531L288.754 45.2909L288.871 44.5822L288.988 42.1238L289.105 45.3319L289.222 47.7414L289.339 49.6904L289.456 48.2947L289.572 43.4699L289.689 47.4877L289.806 51.1577L289.923 49.1438L290.04 45.1316L290.157 42.6166L290.274 42.1781L290.391 35.577L290.508 34.7508L290.624 46.178L290.741 49.0173L290.858 47.0484L290.975 46.4074L291.092 44.0277L291.209 48.7959L291.326 47.6993L291.443 48.7298L291.56 50.9234L291.677 49.2191L291.793 48.3815L291.91 48.7241L292.027 50.0472L292.144 48.7901L292.261 50.1249L292.378 50.3727L292.495 50.0957L292.612 45.6503L292.729 48.9147L292.845 48.8292L292.962 50.2556L293.079 52.4192L293.196 53.6606L293.313 51.5621L293.43 51.1862L293.547 51.6506L293.664 52.7947L293.781 49.5809L293.897 52.2784L294.014 52.8414L294.131 47.8897L294.248 49.1687L294.365 48.591L294.482 48.4042L294.599 47.8252L294.716 50.7715L294.833 53.0084L294.95 51.6507L295.066 53.3361L295.183 54.6998L295.3 55.8682L295.417 52.9634L295.534 57.4854L295.651 58.5891L295.768 54.3942L295.885 55.3825L296.002 53.7481L296.118 50.9916L296.235 43.9878L296.352 43.3809L296.469 45.2042L296.586 45.4892L296.703 43.7688L296.82 44.9572L296.937 43.1018L297.054 43.187L297.17 44.4318L297.287 45.6755L297.404 45.8067L297.521 46.3973L297.638 44.1986L297.755 43.3704L297.872 41.7897L297.989 40.4414L298.106 40.2134L298.223 42.017L298.339 44.1623L298.456 43.2641L298.573 42.5341L298.69 42.6862L298.807 45.9139L298.924 47.164L299.041 38.5037L299.158 15.7638L299.275 42.926L299.391 45.1405L299.508 43.2146L299.625 43.9241L299.742 45.1157L299.859 34.7622L299.976 42.4332L300.093 39.9121L300.21 28.197L300.327 42.3767L300.443 45.702L300.56 44.647L300.677 44.6367L300.794 47.004L300.911 45.0165L301.028 48.4947L301.145 46.682L301.262 48.0701L301.379 48.2883L301.495 48.1732L301.612 49.1938L301.729 48.4635L301.846 47.4141L301.963 48.7991L302.08 48.6424L302.197 49.7048L302.314 50.6811L302.431 49.7912L302.548 51.5902L302.664 49.8564L302.781 50.8036L302.898 51.3573L303.015 52.6491L303.132 49.3692L303.249 51.1309L303.366 52.08L303.483 49.2587L303.6 49.3681L303.716 52.0546L303.833 47.6819L303.95 48.9096L304.067 49.7229L304.184 50.2098L304.301 49.6237L304.418 48.7621L304.535 54.1654L304.652 52.6808L304.768 50.1719L304.885 48.805L305.002 47.9045L305.119 39.0801L305.236 36.474L305.353 35.8972L305.47 45.2132L305.587 46.2668L305.704 45.6566L305.821 48.4145L305.937 47.3899L306.054 47.2998L306.171 47.9026L306.288 48.0148L306.405 46.0972L306.522 41.9759L306.639 47.8744L306.756 46.7548L306.873 41.3221L306.989 45.1486L307.106 44.8193L307.223 36.7395L307.34 43.6128L307.457 44.5103L307.574 42.6316L307.691 43.8898L307.808 43.9053L307.925 50.1966L308.041 47.1027L308.158 46.7124L308.275 49.8766L308.392 47.061L308.509 50.0068L308.626 51.9258L308.743 55.1512L308.86 49.941L308.977 50.5332L309.094 49.0646L309.21 45.2867L309.327 47.4731L309.444 56.3503L309.561 53.5105L309.678 51.8485L309.795 51.3543L309.912 48.1554L310.029 47.7571L310.146 50.6984L310.262 51.8733L310.379 52.1736L310.496 50.4945L310.613 50.0017L310.73 53.1623L310.847 48.7615L310.964 53.2644L311.081 56.7648L311.198 56.157L311.314 48.0433L311.431 46.6144L311.548 41.6739L311.665 43.6488L311.782 47.3521L311.899 52.1757L312.016 46.5357L312.133 43.1868L312.25 46.3401L312.367 49.3357L312.483 48.23L312.6 53.583L312.717 59.0307L312.834 58.1654L312.951 56.0944L313.068 56.1525L313.185 55.6087L313.302 54.6141L313.419 54.111L313.535 57.728L313.652 60.7539L313.769 49.1143L313.886 51.389L314.003 52.5665L314.12 54.9561L314.237 52.2031L314.354 56.1053L314.471 56.1949L314.587 53.5988L314.704 51.2943L314.821 55.6338L314.938 58.3541L315.055 1.45898L315.172 48.2414L315.289 50.2213L315.406 43.7971L315.523 45.5434L315.64 48.697L315.756 49.5398L315.873 45.4174L315.99 51.7708L316.107 58.7528L316.224 54.3578L316.341 54.4862L316.458 52.4216L316.575 54.65L316.692 51.5365L316.808 59.0523L316.925 63.2868L317.042 57.5777L317.159 52.6361L317.276 55.3367L317.393 57.128L317.51 57.1763L317.627 61.6297L317.744 68.5678L317.86 58.5578L317.977 56.9877L318.094 51.4453L318.211 46.007L318.328 52.475L318.445 56.4524L318.562 43.678L318.679 48.7785L318.796 50.6182L318.912 49.3705L319.029 49.236L319.146 49.7568L319.263 47.9817L319.38 54.0177L319.497 50.8309L319.614 53.0265L319.731 47.3939" stroke="#CED4DA" stroke-width="0.6" stroke-linecap="round" stroke-linejoin="round"/>
</g>
</g>
</g>
<defs>
<clipPath id="clip0_190_25440">
<rect width="320" height="111" fill="white" transform="translate(0.0625 0.458984)"/>
</clipPath>
<clipPath id="clip1_190_25440">
<rect width="320" height="111" fill="white" transform="translate(0.0625 0.458984)"/>
</clipPath>
<clipPath id="clip2_190_25440">
<rect width="320" height="111" fill="white" transform="translate(0.0625 0.458984)"/>
</clipPath>
</defs>
</svg>
