<svg width="317" height="190" viewBox="0 0 317 190" fill="none" xmlns="http://www.w3.org/2000/svg">
<g opacity="0.5" clip-path="url(#clip0_190_25523)">
<g clip-path="url(#clip1_190_25523)">
<g clip-path="url(#clip2_190_25523)">
<path d="M60.5625 121.25C93.9757 121.25 121.062 94.1632 121.062 60.75C121.062 27.3368 93.9757 0.25 60.5625 0.25C27.1493 0.25 0.0625 27.3368 0.0625 60.75C0.0625 94.1632 27.1493 121.25 60.5625 121.25Z" fill="#F8F9FA"/>
<path d="M60.5625 0.25C73.3388 0.25 85.7872 4.29473 96.1235 11.8045C106.459 19.3142 114.154 29.9034 118.102 42.0545L60.5625 60.75V0.25Z" fill="#495057"/>
<path d="M118.102 42.0547C121.55 52.6661 121.996 64.0244 119.391 74.8736C116.787 85.7229 111.233 95.6406 103.343 103.53C95.4531 111.42 85.5354 116.974 74.6862 119.578C63.8369 122.183 52.4787 121.737 41.8672 118.289L60.5627 60.7502L118.102 42.0547Z" fill="#ADB5BD"/>
<path d="M41.8672 118.289C29.7161 114.341 19.1269 106.647 11.6172 96.311L60.5627 60.75L41.8672 118.289Z" fill="#CED4DA"/>
<path d="M11.6172 96.3117C2.57233 83.8626 -1.38888 68.4347 0.539748 53.168L60.5627 60.7507L11.6172 96.3117Z" fill="#DEE2E6"/>
<path d="M0.511719 53.3776C1.91085 41.9826 6.52332 31.2209 13.8104 22.3495C21.0975 13.4781 30.7583 6.86312 41.6645 3.27734L60.5608 60.7507L0.511719 53.3776Z" fill="#E9ECEF"/>
<path d="M41.3672 3.37641C47.6901 1.2608 54.3192 0.204924 60.9865 0.251475L60.5641 60.75L41.3672 3.37641Z" fill="#F8F9FA"/>
<mask id="mask0_190_25523" style="mask-type:luminance" maskUnits="userSpaceOnUse" x="160" y="3" width="157" height="52">
<path d="M316.062 3.25H160.062V54.5918H316.062V3.25Z" fill="white"/>
</mask>
<g mask="url(#mask0_190_25523)">
<mask id="mask1_190_25523" style="mask-type:luminance" maskUnits="userSpaceOnUse" x="160" y="3" width="157" height="52">
<path d="M316.062 3.25H160.062V54.5918H316.062V3.25Z" fill="white"/>
</mask>
<g mask="url(#mask1_190_25523)">
<mask id="mask2_190_25523" style="mask-type:luminance" maskUnits="userSpaceOnUse" x="165" y="26" width="5" height="29">
<path d="M169.938 26.9453H165.988V54.5909H169.938V26.9453Z" fill="white"/>
</mask>
<g mask="url(#mask2_190_25523)">
<path d="M165.988 26.9453H169.938V54.5909H165.988V26.9453Z" fill="#ADB5BD" fill-opacity="0.9"/>
<path d="M165.988 35.0098H169.938V54.592H165.988V35.0098Z" fill="#ADB5BD"/>
</g>
<mask id="mask3_190_25523" style="mask-type:luminance" maskUnits="userSpaceOnUse" x="175" y="11" width="5" height="44">
<path d="M179.285 11.1484H175.336V54.5914H179.285V11.1484Z" fill="white"/>
</mask>
<g mask="url(#mask3_190_25523)">
<path d="M175.336 11.1484H179.285V54.5914H175.336V11.1484Z" fill="#ADB5BD" fill-opacity="0.9"/>
<path d="M175.336 23.8203H179.285V54.5925H175.336V23.8203Z" fill="#ADB5BD"/>
</g>
<mask id="mask4_190_25523" style="mask-type:luminance" maskUnits="userSpaceOnUse" x="184" y="42" width="5" height="13">
<path d="M188.629 42.7441H184.68V54.5922H188.629V42.7441Z" fill="white"/>
</mask>
<g mask="url(#mask4_190_25523)">
<path d="M184.68 42.7441H188.629V54.5922H184.68V42.7441Z" fill="#ADB5BD" fill-opacity="0.9"/>
<path d="M184.68 46.1992H188.629V54.5916H184.68V46.1992Z" fill="#ADB5BD"/>
</g>
<mask id="mask5_190_25523" style="mask-type:luminance" maskUnits="userSpaceOnUse" x="194" y="15" width="4" height="40">
<path d="M197.977 15.0977H194.027V54.5914H197.977V15.0977Z" fill="white"/>
</mask>
<g mask="url(#mask5_190_25523)">
<path d="M194.027 15.0977H197.976V54.5914H194.027V15.0977Z" fill="#ADB5BD" fill-opacity="0.9"/>
<path d="M194.027 26.6172H197.976V54.5919H194.027V26.6172Z" fill="#ADB5BD"/>
</g>
<mask id="mask6_190_25523" style="mask-type:luminance" maskUnits="userSpaceOnUse" x="203" y="22" width="5" height="33">
<path d="M207.324 22.9961H203.375V54.591H207.324V22.9961Z" fill="white"/>
</mask>
<g mask="url(#mask6_190_25523)">
<path d="M203.375 22.9961H207.324V54.591H203.375V22.9961Z" fill="#ADB5BD" fill-opacity="0.9"/>
<path d="M203.375 32.2109H207.324V54.5906H203.375V32.2109Z" fill="#ADB5BD"/>
</g>
<mask id="mask7_190_25523" style="mask-type:luminance" maskUnits="userSpaceOnUse" x="212" y="42" width="5" height="13">
<path d="M216.672 42.7441H212.723V54.5922H216.672V42.7441Z" fill="white"/>
</mask>
<g mask="url(#mask7_190_25523)">
<path d="M212.723 42.7441H216.673V54.5922H212.723V42.7441Z" fill="#ADB5BD" fill-opacity="0.9"/>
<path d="M212.723 46.1992H216.673V54.5916H212.723V46.1992Z" fill="#ADB5BD"/>
</g>
<mask id="mask8_190_25523" style="mask-type:luminance" maskUnits="userSpaceOnUse" x="222" y="26" width="5" height="29">
<path d="M226.02 26.9453H222.07V54.5909H226.02V26.9453Z" fill="white"/>
</mask>
<g mask="url(#mask8_190_25523)">
<path d="M222.07 26.9453H226.019V54.5909H222.07V26.9453Z" fill="#ADB5BD" fill-opacity="0.9"/>
<path d="M222.07 35.0098H226.019V54.592H222.07V35.0098Z" fill="#ADB5BD"/>
</g>
<mask id="mask9_190_25523" style="mask-type:luminance" maskUnits="userSpaceOnUse" x="231" y="15" width="5" height="40">
<path d="M235.367 15.0977H231.418V54.5914H235.367V15.0977Z" fill="white"/>
</mask>
<g mask="url(#mask9_190_25523)">
<path d="M231.418 15.0977H235.368V54.5914H231.418V15.0977Z" fill="#ADB5BD" fill-opacity="0.9"/>
<path d="M231.418 26.6172H235.368V54.5919H231.418V26.6172Z" fill="#ADB5BD"/>
</g>
<mask id="mask10_190_25523" style="mask-type:luminance" maskUnits="userSpaceOnUse" x="240" y="26" width="5" height="29">
<path d="M244.711 26.9453H240.762V54.5909H244.711V26.9453Z" fill="white"/>
</mask>
<g mask="url(#mask10_190_25523)">
<path d="M240.762 26.9453H244.711V54.5909H240.762V26.9453Z" fill="#ADB5BD" fill-opacity="0.9"/>
<path d="M240.762 35.0098H244.711V54.592H240.762V35.0098Z" fill="#ADB5BD"/>
</g>
<mask id="mask11_190_25523" style="mask-type:luminance" maskUnits="userSpaceOnUse" x="250" y="22" width="5" height="33">
<path d="M254.059 22.9961H250.109V54.591H254.059V22.9961Z" fill="white"/>
</mask>
<g mask="url(#mask11_190_25523)">
<path d="M250.109 22.9961H254.058V54.591H250.109V22.9961Z" fill="#ADB5BD" fill-opacity="0.9"/>
<path d="M250.109 32.2109H254.058V54.5906H250.109V32.2109Z" fill="#ADB5BD"/>
</g>
<mask id="mask12_190_25523" style="mask-type:luminance" maskUnits="userSpaceOnUse" x="259" y="30" width="5" height="25">
<path d="M263.406 30.8945H259.457V54.5907H263.406V30.8945Z" fill="white"/>
</mask>
<g mask="url(#mask12_190_25523)">
<path d="M259.457 30.8945H263.406V54.5907H259.457V30.8945Z" fill="#ADB5BD" fill-opacity="0.9"/>
<path d="M259.457 37.8066H263.406V54.5914H259.457V37.8066Z" fill="#ADB5BD"/>
</g>
<mask id="mask13_190_25523" style="mask-type:luminance" maskUnits="userSpaceOnUse" x="268" y="30" width="5" height="25">
<path d="M272.754 30.8945H268.805V54.5907H272.754V30.8945Z" fill="white"/>
</mask>
<g mask="url(#mask13_190_25523)">
<path d="M268.805 30.8945H272.754V54.5907H268.805V30.8945Z" fill="#ADB5BD" fill-opacity="0.9"/>
<path d="M268.805 37.8066H272.754V54.5914H268.805V37.8066Z" fill="#ADB5BD"/>
</g>
<mask id="mask14_190_25523" style="mask-type:luminance" maskUnits="userSpaceOnUse" x="278" y="26" width="5" height="29">
<path d="M282.098 26.9453H278.148V54.5909H282.098V26.9453Z" fill="white"/>
</mask>
<g mask="url(#mask14_190_25523)">
<path d="M278.148 26.9453H282.097V54.5909H278.148V26.9453Z" fill="#ADB5BD" fill-opacity="0.9"/>
<path d="M278.148 35.0098H282.097V54.592H278.148V35.0098Z" fill="#ADB5BD"/>
</g>
<mask id="mask15_190_25523" style="mask-type:luminance" maskUnits="userSpaceOnUse" x="287" y="19" width="5" height="36">
<path d="M291.445 19.0469H287.496V54.5912H291.445V19.0469Z" fill="white"/>
</mask>
<g mask="url(#mask15_190_25523)">
<path d="M287.496 19.0469H291.446V54.5912H287.496V19.0469Z" fill="#ADB5BD" fill-opacity="0.9"/>
<path d="M287.496 29.4141H291.446V54.5913H287.496V29.4141Z" fill="#ADB5BD"/>
</g>
<mask id="mask16_190_25523" style="mask-type:luminance" maskUnits="userSpaceOnUse" x="296" y="11" width="5" height="44">
<path d="M300.793 11.1484H296.844V54.5914H300.793V11.1484Z" fill="white"/>
</mask>
<g mask="url(#mask16_190_25523)">
<path d="M296.844 11.1484H300.793V54.5914H296.844V11.1484Z" fill="#ADB5BD" fill-opacity="0.9"/>
<path d="M296.844 23.8203H300.793V54.5925H296.844V23.8203Z" fill="#ADB5BD"/>
</g>
<mask id="mask17_190_25523" style="mask-type:luminance" maskUnits="userSpaceOnUse" x="306" y="30" width="5" height="25">
<path d="M310.141 30.8945H306.191V54.5907H310.141V30.8945Z" fill="white"/>
</mask>
<g mask="url(#mask17_190_25523)">
<path d="M306.191 30.8945H310.14V54.5907H306.191V30.8945Z" fill="#ADB5BD" fill-opacity="0.9"/>
<path d="M306.191 37.8066H310.14V54.5914H306.191V37.8066Z" fill="#ADB5BD"/>
</g>
</g>
</g>
<mask id="mask18_190_25523" style="mask-type:luminance" maskUnits="userSpaceOnUse" x="166" y="71" width="148" height="119">
<path d="M309.062 71.25H170.062C167.853 71.25 166.062 73.0409 166.062 75.25V185.25C166.062 187.459 167.853 189.25 170.062 189.25H309.062C311.272 189.25 313.062 187.459 313.062 185.25V75.25C313.062 73.0409 311.272 71.25 309.062 71.25Z" fill="white"/>
</mask>
<g mask="url(#mask18_190_25523)">
<path d="M309.062 71.25H170.062C167.853 71.25 166.062 73.0409 166.062 75.25V185.25C166.062 187.459 167.853 189.25 170.062 189.25H309.062C311.272 189.25 313.062 187.459 313.062 185.25V75.25C313.062 73.0409 311.272 71.25 309.062 71.25Z" fill="white"/>
<path d="M308.062 90.25H172.062C171.51 90.25 171.062 90.6977 171.062 91.25V95.25C171.062 95.8023 171.51 96.25 172.062 96.25H308.062C308.615 96.25 309.062 95.8023 309.062 95.25V91.25C309.062 90.6977 308.615 90.25 308.062 90.25Z" fill="#F4F6F8"/>
<path d="M180.016 94.3848L179.23 93.5996C179.4 93.3945 179.495 93.1309 179.495 92.8438C179.495 92.1758 178.943 91.625 178.275 91.625C177.601 91.625 177.062 92.1758 177.062 92.8438C177.062 93.5176 177.607 94.0625 178.275 94.0625C178.556 94.0625 178.82 93.9688 179.031 93.7988L179.816 94.584C179.845 94.6133 179.88 94.625 179.921 94.625C179.957 94.625 179.993 94.6133 180.016 94.584C180.075 94.5312 180.075 94.4434 180.016 94.3848ZM177.344 92.8438C177.344 92.3281 177.759 91.9062 178.281 91.9062C178.796 91.9062 179.219 92.3281 179.219 92.8438C179.219 93.3652 178.796 93.7812 178.281 93.7812C177.759 93.7812 177.344 93.3652 177.344 92.8438Z" fill="#ADB5BD"/>
<path d="M273.562 78.25H171.562C171.286 78.25 171.062 78.4739 171.062 78.75V81.75C171.062 82.0261 171.286 82.25 171.562 82.25H273.562C273.839 82.25 274.062 82.0261 274.062 81.75V78.75C274.062 78.4739 273.839 78.25 273.562 78.25Z" fill="#ADB5BD"/>
<g filter="url(#filter0_d_190_25523)">
<path d="M307.062 98.25H173.062C171.958 98.25 171.062 99.1454 171.062 100.25V224.25C171.062 225.355 171.958 226.25 173.062 226.25H307.062C308.167 226.25 309.062 225.355 309.062 224.25V100.25C309.062 99.1454 308.167 98.25 307.062 98.25Z" fill="white"/>
<path d="M309.062 98.25H171.062V108.25H309.062V98.25Z" fill="#E9ECEF"/>
<path d="M187.562 103.25H176.562C176.286 103.25 176.062 103.474 176.062 103.75V104.75C176.062 105.026 176.286 105.25 176.562 105.25H187.562C187.839 105.25 188.062 105.026 188.062 104.75V103.75C188.062 103.474 187.839 103.25 187.562 103.25Z" fill="#ADB5BD"/>
<path d="M245.562 103.25H228.562C228.286 103.25 228.062 103.474 228.062 103.75V104.75C228.062 105.026 228.286 105.25 228.562 105.25H245.562C245.839 105.25 246.062 105.026 246.062 104.75V103.75C246.062 103.474 245.839 103.25 245.562 103.25Z" fill="#ADB5BD"/>
<path d="M303.562 103.25H286.562C286.286 103.25 286.062 103.474 286.062 103.75V104.75C286.062 105.026 286.286 105.25 286.562 105.25H303.562C303.839 105.25 304.062 105.026 304.062 104.75V103.75C304.062 103.474 303.839 103.25 303.562 103.25Z" fill="#ADB5BD"/>
<path d="M187.562 111.25H176.562C176.286 111.25 176.062 111.474 176.062 111.75V113.75C176.062 114.026 176.286 114.25 176.562 114.25H187.562C187.839 114.25 188.062 114.026 188.062 113.75V111.75C188.062 111.474 187.839 111.25 187.562 111.25Z" fill="#E9ECEF"/>
<path d="M245.562 111.25H228.562C228.286 111.25 228.062 111.474 228.062 111.75V113.75C228.062 114.026 228.286 114.25 228.562 114.25H245.562C245.839 114.25 246.062 114.026 246.062 113.75V111.75C246.062 111.474 245.839 111.25 245.562 111.25Z" fill="#E9ECEF"/>
<path d="M303.562 111.25H286.562C286.286 111.25 286.062 111.474 286.062 111.75V113.75C286.062 114.026 286.286 114.25 286.562 114.25H303.562C303.839 114.25 304.062 114.026 304.062 113.75V111.75C304.062 111.474 303.839 111.25 303.562 111.25Z" fill="#E9ECEF"/>
<path d="M309.062 117H171.062V117.5H309.062V117Z" fill="#E9ECEF"/>
<path d="M187.562 120.25H176.562C176.286 120.25 176.062 120.474 176.062 120.75V122.75C176.062 123.026 176.286 123.25 176.562 123.25H187.562C187.839 123.25 188.062 123.026 188.062 122.75V120.75C188.062 120.474 187.839 120.25 187.562 120.25Z" fill="#E9ECEF"/>
<path d="M245.562 120.25H228.562C228.286 120.25 228.062 120.474 228.062 120.75V122.75C228.062 123.026 228.286 123.25 228.562 123.25H245.562C245.839 123.25 246.062 123.026 246.062 122.75V120.75C246.062 120.474 245.839 120.25 245.562 120.25Z" fill="#E9ECEF"/>
<path d="M303.562 120.25H286.562C286.286 120.25 286.062 120.474 286.062 120.75V122.75C286.062 123.026 286.286 123.25 286.562 123.25H303.562C303.839 123.25 304.062 123.026 304.062 122.75V120.75C304.062 120.474 303.839 120.25 303.562 120.25Z" fill="#E9ECEF"/>
<path d="M309.062 126H171.062V126.5H309.062V126Z" fill="#E9ECEF"/>
<path d="M187.562 129.25H176.562C176.286 129.25 176.062 129.474 176.062 129.75V131.75C176.062 132.026 176.286 132.25 176.562 132.25H187.562C187.839 132.25 188.062 132.026 188.062 131.75V129.75C188.062 129.474 187.839 129.25 187.562 129.25Z" fill="#E9ECEF"/>
<path d="M245.562 129.25H228.562C228.286 129.25 228.062 129.474 228.062 129.75V131.75C228.062 132.026 228.286 132.25 228.562 132.25H245.562C245.839 132.25 246.062 132.026 246.062 131.75V129.75C246.062 129.474 245.839 129.25 245.562 129.25Z" fill="#E9ECEF"/>
<path d="M303.562 129.25H286.562C286.286 129.25 286.062 129.474 286.062 129.75V131.75C286.062 132.026 286.286 132.25 286.562 132.25H303.562C303.839 132.25 304.062 132.026 304.062 131.75V129.75C304.062 129.474 303.839 129.25 303.562 129.25Z" fill="#E9ECEF"/>
<path d="M309.062 135H171.062V135.5H309.062V135Z" fill="#E9ECEF"/>
<path d="M187.562 138.25H176.562C176.286 138.25 176.062 138.474 176.062 138.75V140.75C176.062 141.026 176.286 141.25 176.562 141.25H187.562C187.839 141.25 188.062 141.026 188.062 140.75V138.75C188.062 138.474 187.839 138.25 187.562 138.25Z" fill="#E9ECEF"/>
<path d="M245.562 138.25H228.562C228.286 138.25 228.062 138.474 228.062 138.75V140.75C228.062 141.026 228.286 141.25 228.562 141.25H245.562C245.839 141.25 246.062 141.026 246.062 140.75V138.75C246.062 138.474 245.839 138.25 245.562 138.25Z" fill="#E9ECEF"/>
<path d="M303.562 138.25H286.562C286.286 138.25 286.062 138.474 286.062 138.75V140.75C286.062 141.026 286.286 141.25 286.562 141.25H303.562C303.839 141.25 304.062 141.026 304.062 140.75V138.75C304.062 138.474 303.839 138.25 303.562 138.25Z" fill="#E9ECEF"/>
<path d="M309.062 144H171.062V144.5H309.062V144Z" fill="#E9ECEF"/>
<path d="M187.562 147.25H176.562C176.286 147.25 176.062 147.474 176.062 147.75V149.75C176.062 150.026 176.286 150.25 176.562 150.25H187.562C187.839 150.25 188.062 150.026 188.062 149.75V147.75C188.062 147.474 187.839 147.25 187.562 147.25Z" fill="#E9ECEF"/>
<path d="M245.562 147.25H228.562C228.286 147.25 228.062 147.474 228.062 147.75V149.75C228.062 150.026 228.286 150.25 228.562 150.25H245.562C245.839 150.25 246.062 150.026 246.062 149.75V147.75C246.062 147.474 245.839 147.25 245.562 147.25Z" fill="#E9ECEF"/>
<path d="M303.562 147.25H286.562C286.286 147.25 286.062 147.474 286.062 147.75V149.75C286.062 150.026 286.286 150.25 286.562 150.25H303.562C303.839 150.25 304.062 150.026 304.062 149.75V147.75C304.062 147.474 303.839 147.25 303.562 147.25Z" fill="#E9ECEF"/>
<path d="M309.062 153H171.062V153.5H309.062V153Z" fill="#E9ECEF"/>
<path d="M187.562 156.25H176.562C176.286 156.25 176.062 156.474 176.062 156.75V158.75C176.062 159.026 176.286 159.25 176.562 159.25H187.562C187.839 159.25 188.062 159.026 188.062 158.75V156.75C188.062 156.474 187.839 156.25 187.562 156.25Z" fill="#E9ECEF"/>
<path d="M245.562 156.25H228.562C228.286 156.25 228.062 156.474 228.062 156.75V158.75C228.062 159.026 228.286 159.25 228.562 159.25H245.562C245.839 159.25 246.062 159.026 246.062 158.75V156.75C246.062 156.474 245.839 156.25 245.562 156.25Z" fill="#E9ECEF"/>
<path d="M303.562 156.25H286.562C286.286 156.25 286.062 156.474 286.062 156.75V158.75C286.062 159.026 286.286 159.25 286.562 159.25H303.562C303.839 159.25 304.062 159.026 304.062 158.75V156.75C304.062 156.474 303.839 156.25 303.562 156.25Z" fill="#E9ECEF"/>
<path d="M309.062 162H171.062V162.5H309.062V162Z" fill="#E9ECEF"/>
<path d="M187.562 165.25H176.562C176.286 165.25 176.062 165.474 176.062 165.75V167.75C176.062 168.026 176.286 168.25 176.562 168.25H187.562C187.839 168.25 188.062 168.026 188.062 167.75V165.75C188.062 165.474 187.839 165.25 187.562 165.25Z" fill="#E9ECEF"/>
<path d="M245.562 165.25H228.562C228.286 165.25 228.062 165.474 228.062 165.75V167.75C228.062 168.026 228.286 168.25 228.562 168.25H245.562C245.839 168.25 246.062 168.026 246.062 167.75V165.75C246.062 165.474 245.839 165.25 245.562 165.25Z" fill="#E9ECEF"/>
<path d="M303.562 165.25H286.562C286.286 165.25 286.062 165.474 286.062 165.75V167.75C286.062 168.026 286.286 168.25 286.562 168.25H303.562C303.839 168.25 304.062 168.026 304.062 167.75V165.75C304.062 165.474 303.839 165.25 303.562 165.25Z" fill="#E9ECEF"/>
<path d="M309.062 171H171.062V171.5H309.062V171Z" fill="#E9ECEF"/>
<path d="M187.562 174.25H176.562C176.286 174.25 176.062 174.474 176.062 174.75V176.75C176.062 177.026 176.286 177.25 176.562 177.25H187.562C187.839 177.25 188.062 177.026 188.062 176.75V174.75C188.062 174.474 187.839 174.25 187.562 174.25Z" fill="#E9ECEF"/>
<path d="M245.562 174.25H228.562C228.286 174.25 228.062 174.474 228.062 174.75V176.75C228.062 177.026 228.286 177.25 228.562 177.25H245.562C245.839 177.25 246.062 177.026 246.062 176.75V174.75C246.062 174.474 245.839 174.25 245.562 174.25Z" fill="#E9ECEF"/>
<path d="M303.562 174.25H286.562C286.286 174.25 286.062 174.474 286.062 174.75V176.75C286.062 177.026 286.286 177.25 286.562 177.25H303.562C303.839 177.25 304.062 177.026 304.062 176.75V174.75C304.062 174.474 303.839 174.25 303.562 174.25Z" fill="#E9ECEF"/>
<path d="M309.062 180H171.062V180.5H309.062V180Z" fill="#E9ECEF"/>
<path d="M187.562 183.25H176.562C176.286 183.25 176.062 183.474 176.062 183.75V185.75C176.062 186.026 176.286 186.25 176.562 186.25H187.562C187.839 186.25 188.062 186.026 188.062 185.75V183.75C188.062 183.474 187.839 183.25 187.562 183.25Z" fill="#E9ECEF"/>
<path d="M245.562 183.25H228.562C228.286 183.25 228.062 183.474 228.062 183.75V185.75C228.062 186.026 228.286 186.25 228.562 186.25H245.562C245.839 186.25 246.062 186.026 246.062 185.75V183.75C246.062 183.474 245.839 183.25 245.562 183.25Z" fill="#E9ECEF"/>
<path d="M303.562 183.25H286.562C286.286 183.25 286.062 183.474 286.062 183.75V185.75C286.062 186.026 286.286 186.25 286.562 186.25H303.562C303.839 186.25 304.062 186.026 304.062 185.75V183.75C304.062 183.474 303.839 183.25 303.562 183.25Z" fill="#E9ECEF"/>
<path d="M309.062 189H171.062V189.5H309.062V189Z" fill="#E9ECEF"/>
</g>
</g>
<path d="M309.062 71.5H170.062C167.991 71.5 166.312 73.1789 166.312 75.25V185.25C166.312 187.321 167.991 189 170.062 189H309.062C311.134 189 312.812 187.321 312.812 185.25V75.25C312.812 73.1789 311.134 71.5 309.062 71.5Z" stroke="#F4F6F8" stroke-width="0.5"/>
</g>
</g>
</g>
<defs>
<filter id="filter0_d_190_25523" x="169.062" y="97.25" width="142" height="132" filterUnits="userSpaceOnUse" color-interpolation-filters="sRGB">
<feFlood flood-opacity="0" result="BackgroundImageFix"/>
<feColorMatrix in="SourceAlpha" type="matrix" values="0 0 0 0 0 0 0 0 0 0 0 0 0 0 0 0 0 0 127 0" result="hardAlpha"/>
<feOffset dy="1"/>
<feGaussianBlur stdDeviation="1"/>
<feComposite in2="hardAlpha" operator="out"/>
<feColorMatrix type="matrix" values="0 0 0 0 0 0 0 0 0 0 0 0 0 0 0 0 0 0 0.05 0"/>
<feBlend mode="normal" in2="BackgroundImageFix" result="effect1_dropShadow_190_25523"/>
<feBlend mode="normal" in="SourceGraphic" in2="effect1_dropShadow_190_25523" result="shape"/>
</filter>
<clipPath id="clip0_190_25523">
<rect width="316" height="189" fill="white" transform="translate(0.0625 0.25)"/>
</clipPath>
<clipPath id="clip1_190_25523">
<rect width="316" height="189" fill="white" transform="translate(0.0625 0.25)"/>
</clipPath>
<clipPath id="clip2_190_25523">
<rect width="316" height="189" fill="white" transform="translate(0.0625 0.25)"/>
</clipPath>
</defs>
</svg>
