<svg width="318" height="119" viewBox="0 0 318 119" fill="none" xmlns="http://www.w3.org/2000/svg">
<g opacity="0.5" clip-path="url(#clip0_190_25857)">
<g clip-path="url(#clip1_190_25857)">
<g clip-path="url(#clip2_190_25857)">
<path d="M1.69141 95.584C6.25227 90.0163 14.9179 80.6485 22.5573 62.1778C34.3016 33.7826 40.2079 5.05326 45.5897 30.442C50.0365 49.929 53.8221 89.1255 61.2107 74.4268C67.1398 64.405 79.2261 47.0579 86.1814 69.9727C95.6452 101.152 97.1275 96.1408 103.398 81.6648C106.249 75.0848 110.519 73.2491 116.967 86.6758C126.431 106.384 129.047 92.934 132.018 79.9945C137.719 55.1603 143.762 69.9727 149.691 27.8786" stroke="#ADB5BD" stroke-width="0.765217" stroke-linecap="round"/>
<path d="M1.69141 95.584C6.25227 90.0163 14.9179 80.6485 22.5573 62.1778C34.3016 33.7826 40.2079 5.05326 45.5897 30.442C50.0365 49.929 53.8221 89.1255 61.2107 74.4268C67.1398 64.405 79.2261 47.0579 86.1814 69.9727C95.6452 101.152 97.1275 96.1408 103.398 81.6648C106.249 75.0848 110.519 73.2491 116.967 86.6758C119.229 91.3861 121.1 94.2023 122.678 95.584H126.922C129.133 93.0724 130.531 86.4696 132.018 79.9945C137.719 55.1603 143.762 69.9727 149.691 27.8786V95.584H126.922C125.77 96.8918 124.398 97.0903 122.678 95.584H1.69141Z" fill="url(#paint0_linear_190_25857)"/>
<mask id="mask0_190_25857" style="mask-type:luminance" maskUnits="userSpaceOnUse" x="170" y="0" width="148" height="119">
<path d="M313.691 0.640625H174.691C172.482 0.640625 170.691 2.43149 170.691 4.64062V114.641C170.691 116.85 172.482 118.641 174.691 118.641H313.691C315.901 118.641 317.691 116.85 317.691 114.641V4.64062C317.691 2.43149 315.901 0.640625 313.691 0.640625Z" fill="white"/>
</mask>
<g mask="url(#mask0_190_25857)">
<path d="M313.691 0.640625H174.691C172.482 0.640625 170.691 2.43149 170.691 4.64062V114.641C170.691 116.85 172.482 118.641 174.691 118.641H313.691C315.901 118.641 317.691 116.85 317.691 114.641V4.64062C317.691 2.43149 315.901 0.640625 313.691 0.640625Z" fill="white"/>
<path d="M312.691 17.6406H176.691C176.139 17.6406 175.691 18.0883 175.691 18.6406V23.6406C175.691 24.1929 176.139 24.6406 176.691 24.6406H312.691C313.244 24.6406 313.691 24.1929 313.691 23.6406V18.6406C313.691 18.0883 313.244 17.6406 312.691 17.6406Z" fill="#F4F6F8"/>
<path d="M183.644 22.7754L182.859 21.9902C183.029 21.7851 183.123 21.5215 183.123 21.2344C183.123 20.5664 182.572 20.0156 181.904 20.0156C181.23 20.0156 180.691 20.5664 180.691 21.2344C180.691 21.9082 181.236 22.4531 181.904 22.4531C182.185 22.4531 182.449 22.3594 182.66 22.1894L183.445 22.9746C183.474 23.0039 183.509 23.0156 183.55 23.0156C183.586 23.0156 183.621 23.0039 183.644 22.9746C183.703 22.9218 183.703 22.834 183.644 22.7754ZM180.972 21.2344C180.972 20.7187 181.388 20.2968 181.91 20.2968C182.425 20.2968 182.847 20.7187 182.847 21.2344C182.847 21.7558 182.425 22.1718 181.91 22.1718C181.388 22.1718 180.972 21.7558 180.972 21.2344Z" fill="#ADB5BD"/>
<path d="M278.191 6.64062H176.191C175.915 6.64062 175.691 6.86448 175.691 7.14062V10.1406C175.691 10.4168 175.915 10.6406 176.191 10.6406H278.191C278.468 10.6406 278.691 10.4168 278.691 10.1406V7.14062C278.691 6.86448 278.468 6.64062 278.191 6.64062Z" fill="#ADB5BD"/>
<g filter="url(#filter0_d_190_25857)">
<path d="M311.691 27.6406H177.691C176.587 27.6406 175.691 28.5361 175.691 29.6406V162.641C175.691 163.745 176.587 164.641 177.691 164.641H311.691C312.796 164.641 313.691 163.745 313.691 162.641V29.6406C313.691 28.5361 312.796 27.6406 311.691 27.6406Z" fill="white"/>
<path d="M313.691 27.6406H175.691V37.6406H313.691V27.6406Z" fill="#E9ECEF"/>
<path d="M192.191 31.6406H181.191C180.915 31.6406 180.691 31.8645 180.691 32.1406V33.1406C180.691 33.4168 180.915 33.6406 181.191 33.6406H192.191C192.468 33.6406 192.691 33.4168 192.691 33.1406V32.1406C192.691 31.8645 192.468 31.6406 192.191 31.6406Z" fill="#ADB5BD"/>
<path d="M221.191 31.6406H201.191C200.915 31.6406 200.691 31.8645 200.691 32.1406V33.1406C200.691 33.4168 200.915 33.6406 201.191 33.6406H221.191C221.468 33.6406 221.691 33.4168 221.691 33.1406V32.1406C221.691 31.8645 221.468 31.6406 221.191 31.6406Z" fill="#ADB5BD"/>
<path d="M268.191 31.6406H234.191C233.915 31.6406 233.691 31.8645 233.691 32.1406V33.1406C233.691 33.4168 233.915 33.6406 234.191 33.6406H268.191C268.468 33.6406 268.691 33.4168 268.691 33.1406V32.1406C268.691 31.8645 268.468 31.6406 268.191 31.6406Z" fill="#ADB5BD"/>
<path d="M306.191 31.6406H280.191C279.915 31.6406 279.691 31.8645 279.691 32.1406V33.1406C279.691 33.4168 279.915 33.6406 280.191 33.6406H306.191C306.468 33.6406 306.691 33.4168 306.691 33.1406V32.1406C306.691 31.8645 306.468 31.6406 306.191 31.6406Z" fill="#ADB5BD"/>
<path d="M192.191 40.6406H181.191C180.915 40.6406 180.691 40.8645 180.691 41.1406V43.1406C180.691 43.4168 180.915 43.6406 181.191 43.6406H192.191C192.468 43.6406 192.691 43.4168 192.691 43.1406V41.1406C192.691 40.8645 192.468 40.6406 192.191 40.6406Z" fill="#E9ECEF"/>
<path d="M221.191 40.6406H201.191C200.915 40.6406 200.691 40.8645 200.691 41.1406V43.1406C200.691 43.4168 200.915 43.6406 201.191 43.6406H221.191C221.468 43.6406 221.691 43.4168 221.691 43.1406V41.1406C221.691 40.8645 221.468 40.6406 221.191 40.6406Z" fill="#E9ECEF"/>
<path d="M268.191 40.6406H235.191C234.915 40.6406 234.691 40.8645 234.691 41.1406V43.1406C234.691 43.4168 234.915 43.6406 235.191 43.6406H268.191C268.468 43.6406 268.691 43.4168 268.691 43.1406V41.1406C268.691 40.8645 268.468 40.6406 268.191 40.6406Z" fill="#E9ECEF"/>
<path d="M306.191 40.6406H280.191C279.915 40.6406 279.691 40.8645 279.691 41.1406V43.1406C279.691 43.4168 279.915 43.6406 280.191 43.6406H306.191C306.468 43.6406 306.691 43.4168 306.691 43.1406V41.1406C306.691 40.8645 306.468 40.6406 306.191 40.6406Z" fill="#E9ECEF"/>
<path d="M313.691 46.3906H175.691V46.8906H313.691V46.3906Z" fill="#E9ECEF"/>
<path d="M192.191 49.6406H181.191C180.915 49.6406 180.691 49.8645 180.691 50.1406V52.1406C180.691 52.4168 180.915 52.6406 181.191 52.6406H192.191C192.468 52.6406 192.691 52.4168 192.691 52.1406V50.1406C192.691 49.8645 192.468 49.6406 192.191 49.6406Z" fill="#E9ECEF"/>
<path d="M221.191 49.6406H201.191C200.915 49.6406 200.691 49.8645 200.691 50.1406V52.1406C200.691 52.4168 200.915 52.6406 201.191 52.6406H221.191C221.468 52.6406 221.691 52.4168 221.691 52.1406V50.1406C221.691 49.8645 221.468 49.6406 221.191 49.6406Z" fill="#E9ECEF"/>
<path d="M268.191 49.6406H235.191C234.915 49.6406 234.691 49.8645 234.691 50.1406V52.1406C234.691 52.4168 234.915 52.6406 235.191 52.6406H268.191C268.468 52.6406 268.691 52.4168 268.691 52.1406V50.1406C268.691 49.8645 268.468 49.6406 268.191 49.6406Z" fill="#E9ECEF"/>
<path d="M306.191 49.6406H280.191C279.915 49.6406 279.691 49.8645 279.691 50.1406V52.1406C279.691 52.4168 279.915 52.6406 280.191 52.6406H306.191C306.468 52.6406 306.691 52.4168 306.691 52.1406V50.1406C306.691 49.8645 306.468 49.6406 306.191 49.6406Z" fill="#E9ECEF"/>
<path d="M313.691 55.3906H175.691V55.8906H313.691V55.3906Z" fill="#E9ECEF"/>
<path d="M192.191 58.6406H181.191C180.915 58.6406 180.691 58.8645 180.691 59.1406V61.1406C180.691 61.4168 180.915 61.6406 181.191 61.6406H192.191C192.468 61.6406 192.691 61.4168 192.691 61.1406V59.1406C192.691 58.8645 192.468 58.6406 192.191 58.6406Z" fill="#E9ECEF"/>
<path d="M221.191 58.6406H201.191C200.915 58.6406 200.691 58.8645 200.691 59.1406V61.1406C200.691 61.4168 200.915 61.6406 201.191 61.6406H221.191C221.468 61.6406 221.691 61.4168 221.691 61.1406V59.1406C221.691 58.8645 221.468 58.6406 221.191 58.6406Z" fill="#E9ECEF"/>
<path d="M268.191 58.6406H235.191C234.915 58.6406 234.691 58.8645 234.691 59.1406V61.1406C234.691 61.4168 234.915 61.6406 235.191 61.6406H268.191C268.468 61.6406 268.691 61.4168 268.691 61.1406V59.1406C268.691 58.8645 268.468 58.6406 268.191 58.6406Z" fill="#E9ECEF"/>
<path d="M306.191 58.6406H280.191C279.915 58.6406 279.691 58.8645 279.691 59.1406V61.1406C279.691 61.4168 279.915 61.6406 280.191 61.6406H306.191C306.468 61.6406 306.691 61.4168 306.691 61.1406V59.1406C306.691 58.8645 306.468 58.6406 306.191 58.6406Z" fill="#E9ECEF"/>
<path d="M313.691 64.3906H175.691V64.8906H313.691V64.3906Z" fill="#E9ECEF"/>
<path d="M192.191 67.6406H181.191C180.915 67.6406 180.691 67.8645 180.691 68.1406V70.1406C180.691 70.4168 180.915 70.6406 181.191 70.6406H192.191C192.468 70.6406 192.691 70.4168 192.691 70.1406V68.1406C192.691 67.8645 192.468 67.6406 192.191 67.6406Z" fill="#E9ECEF"/>
<path d="M221.191 67.6406H201.191C200.915 67.6406 200.691 67.8645 200.691 68.1406V70.1406C200.691 70.4168 200.915 70.6406 201.191 70.6406H221.191C221.468 70.6406 221.691 70.4168 221.691 70.1406V68.1406C221.691 67.8645 221.468 67.6406 221.191 67.6406Z" fill="#E9ECEF"/>
<path d="M268.191 67.6406H235.191C234.915 67.6406 234.691 67.8645 234.691 68.1406V70.1406C234.691 70.4168 234.915 70.6406 235.191 70.6406H268.191C268.468 70.6406 268.691 70.4168 268.691 70.1406V68.1406C268.691 67.8645 268.468 67.6406 268.191 67.6406Z" fill="#E9ECEF"/>
<path d="M306.191 67.6406H280.191C279.915 67.6406 279.691 67.8645 279.691 68.1406V70.1406C279.691 70.4168 279.915 70.6406 280.191 70.6406H306.191C306.468 70.6406 306.691 70.4168 306.691 70.1406V68.1406C306.691 67.8645 306.468 67.6406 306.191 67.6406Z" fill="#E9ECEF"/>
<path d="M313.691 73.3906H175.691V73.8906H313.691V73.3906Z" fill="#E9ECEF"/>
<path d="M192.191 76.6406H181.191C180.915 76.6406 180.691 76.8645 180.691 77.1406V79.1406C180.691 79.4168 180.915 79.6406 181.191 79.6406H192.191C192.468 79.6406 192.691 79.4168 192.691 79.1406V77.1406C192.691 76.8645 192.468 76.6406 192.191 76.6406Z" fill="#E9ECEF"/>
<path d="M221.191 76.6406H201.191C200.915 76.6406 200.691 76.8645 200.691 77.1406V79.1406C200.691 79.4168 200.915 79.6406 201.191 79.6406H221.191C221.468 79.6406 221.691 79.4168 221.691 79.1406V77.1406C221.691 76.8645 221.468 76.6406 221.191 76.6406Z" fill="#E9ECEF"/>
<path d="M268.191 76.6406H235.191C234.915 76.6406 234.691 76.8645 234.691 77.1406V79.1406C234.691 79.4168 234.915 79.6406 235.191 79.6406H268.191C268.468 79.6406 268.691 79.4168 268.691 79.1406V77.1406C268.691 76.8645 268.468 76.6406 268.191 76.6406Z" fill="#E9ECEF"/>
<path d="M306.191 76.6406H280.191C279.915 76.6406 279.691 76.8645 279.691 77.1406V79.1406C279.691 79.4168 279.915 79.6406 280.191 79.6406H306.191C306.468 79.6406 306.691 79.4168 306.691 79.1406V77.1406C306.691 76.8645 306.468 76.6406 306.191 76.6406Z" fill="#E9ECEF"/>
<path d="M313.691 82.3906H175.691V82.8906H313.691V82.3906Z" fill="#E9ECEF"/>
<path d="M192.191 85.6406H181.191C180.915 85.6406 180.691 85.8645 180.691 86.1406V88.1406C180.691 88.4168 180.915 88.6406 181.191 88.6406H192.191C192.468 88.6406 192.691 88.4168 192.691 88.1406V86.1406C192.691 85.8645 192.468 85.6406 192.191 85.6406Z" fill="#E9ECEF"/>
<path d="M221.191 85.6406H201.191C200.915 85.6406 200.691 85.8645 200.691 86.1406V88.1406C200.691 88.4168 200.915 88.6406 201.191 88.6406H221.191C221.468 88.6406 221.691 88.4168 221.691 88.1406V86.1406C221.691 85.8645 221.468 85.6406 221.191 85.6406Z" fill="#E9ECEF"/>
<path d="M268.191 85.6406H235.191C234.915 85.6406 234.691 85.8645 234.691 86.1406V88.1406C234.691 88.4168 234.915 88.6406 235.191 88.6406H268.191C268.468 88.6406 268.691 88.4168 268.691 88.1406V86.1406C268.691 85.8645 268.468 85.6406 268.191 85.6406Z" fill="#E9ECEF"/>
<path d="M306.191 85.6406H280.191C279.915 85.6406 279.691 85.8645 279.691 86.1406V88.1406C279.691 88.4168 279.915 88.6406 280.191 88.6406H306.191C306.468 88.6406 306.691 88.4168 306.691 88.1406V86.1406C306.691 85.8645 306.468 85.6406 306.191 85.6406Z" fill="#E9ECEF"/>
<path d="M313.691 91.3906H175.691V91.8906H313.691V91.3906Z" fill="#E9ECEF"/>
<path d="M192.191 94.6406H181.191C180.915 94.6406 180.691 94.8645 180.691 95.1406V97.1406C180.691 97.4168 180.915 97.6406 181.191 97.6406H192.191C192.468 97.6406 192.691 97.4168 192.691 97.1406V95.1406C192.691 94.8645 192.468 94.6406 192.191 94.6406Z" fill="#E9ECEF"/>
<path d="M221.191 94.6406H201.191C200.915 94.6406 200.691 94.8645 200.691 95.1406V97.1406C200.691 97.4168 200.915 97.6406 201.191 97.6406H221.191C221.468 97.6406 221.691 97.4168 221.691 97.1406V95.1406C221.691 94.8645 221.468 94.6406 221.191 94.6406Z" fill="#E9ECEF"/>
<path d="M268.191 94.6406H235.191C234.915 94.6406 234.691 94.8645 234.691 95.1406V97.1406C234.691 97.4168 234.915 97.6406 235.191 97.6406H268.191C268.468 97.6406 268.691 97.4168 268.691 97.1406V95.1406C268.691 94.8645 268.468 94.6406 268.191 94.6406Z" fill="#E9ECEF"/>
<path d="M306.191 94.6406H280.191C279.915 94.6406 279.691 94.8645 279.691 95.1406V97.1406C279.691 97.4168 279.915 97.6406 280.191 97.6406H306.191C306.468 97.6406 306.691 97.4168 306.691 97.1406V95.1406C306.691 94.8645 306.468 94.6406 306.191 94.6406Z" fill="#E9ECEF"/>
<path d="M313.691 100.391H175.691V100.891H313.691V100.391Z" fill="#E9ECEF"/>
<path d="M192.191 103.641H181.191C180.915 103.641 180.691 103.864 180.691 104.141V106.141C180.691 106.417 180.915 106.641 181.191 106.641H192.191C192.468 106.641 192.691 106.417 192.691 106.141V104.141C192.691 103.864 192.468 103.641 192.191 103.641Z" fill="#E9ECEF"/>
<path d="M221.191 103.641H201.191C200.915 103.641 200.691 103.864 200.691 104.141V106.141C200.691 106.417 200.915 106.641 201.191 106.641H221.191C221.468 106.641 221.691 106.417 221.691 106.141V104.141C221.691 103.864 221.468 103.641 221.191 103.641Z" fill="#E9ECEF"/>
<path d="M268.191 103.641H235.191C234.915 103.641 234.691 103.864 234.691 104.141V106.141C234.691 106.417 234.915 106.641 235.191 106.641H268.191C268.468 106.641 268.691 106.417 268.691 106.141V104.141C268.691 103.864 268.468 103.641 268.191 103.641Z" fill="#E9ECEF"/>
<path d="M306.191 103.641H280.191C279.915 103.641 279.691 103.864 279.691 104.141V106.141C279.691 106.417 279.915 106.641 280.191 106.641H306.191C306.468 106.641 306.691 106.417 306.691 106.141V104.141C306.691 103.864 306.468 103.641 306.191 103.641Z" fill="#E9ECEF"/>
<path d="M313.691 109.391H175.691V109.891H313.691V109.391Z" fill="#E9ECEF"/>
<path d="M192.191 112.641H181.191C180.915 112.641 180.691 112.864 180.691 113.141V115.141C180.691 115.417 180.915 115.641 181.191 115.641H192.191C192.468 115.641 192.691 115.417 192.691 115.141V113.141C192.691 112.864 192.468 112.641 192.191 112.641Z" fill="#E9ECEF"/>
<path d="M221.191 112.641H201.191C200.915 112.641 200.691 112.864 200.691 113.141V115.141C200.691 115.417 200.915 115.641 201.191 115.641H221.191C221.468 115.641 221.691 115.417 221.691 115.141V113.141C221.691 112.864 221.468 112.641 221.191 112.641Z" fill="#E9ECEF"/>
<path d="M268.191 112.641H235.191C234.915 112.641 234.691 112.864 234.691 113.141V115.141C234.691 115.417 234.915 115.641 235.191 115.641H268.191C268.468 115.641 268.691 115.417 268.691 115.141V113.141C268.691 112.864 268.468 112.641 268.191 112.641Z" fill="#E9ECEF"/>
<path d="M306.191 112.641H280.191C279.915 112.641 279.691 112.864 279.691 113.141V115.141C279.691 115.417 279.915 115.641 280.191 115.641H306.191C306.468 115.641 306.691 115.417 306.691 115.141V113.141C306.691 112.864 306.468 112.641 306.191 112.641Z" fill="#E9ECEF"/>
<path d="M313.691 118.391H175.691V118.891H313.691V118.391Z" fill="#E9ECEF"/>
</g>
</g>
<path d="M313.691 0.890625H174.691C172.62 0.890625 170.941 2.56956 170.941 4.64062V114.641C170.941 116.712 172.62 118.391 174.691 118.391H313.691C315.762 118.391 317.441 116.712 317.441 114.641V4.64062C317.441 2.56956 315.762 0.890625 313.691 0.890625Z" stroke="#F4F6F8" stroke-width="0.5"/>
</g>
</g>
</g>
<defs>
<filter id="filter0_d_190_25857" x="173.691" y="26.6406" width="142" height="141" filterUnits="userSpaceOnUse" color-interpolation-filters="sRGB">
<feFlood flood-opacity="0" result="BackgroundImageFix"/>
<feColorMatrix in="SourceAlpha" type="matrix" values="0 0 0 0 0 0 0 0 0 0 0 0 0 0 0 0 0 0 127 0" result="hardAlpha"/>
<feOffset dy="1"/>
<feGaussianBlur stdDeviation="1"/>
<feComposite in2="hardAlpha" operator="out"/>
<feColorMatrix type="matrix" values="0 0 0 0 0 0 0 0 0 0 0 0 0 0 0 0 0 0 0.05 0"/>
<feBlend mode="normal" in2="BackgroundImageFix" result="effect1_dropShadow_190_25857"/>
<feBlend mode="normal" in="SourceGraphic" in2="effect1_dropShadow_190_25857" result="shape"/>
</filter>
<linearGradient id="paint0_linear_190_25857" x1="73.5006" y1="49.9323" x2="65.9627" y2="95.5148" gradientUnits="userSpaceOnUse">
<stop stop-color="#F4F6F8"/>
<stop offset="1" stop-color="#F4F6F8" stop-opacity="0"/>
</linearGradient>
<clipPath id="clip0_190_25857">
<rect width="317" height="118" fill="white" transform="translate(0.691406 0.640625)"/>
</clipPath>
<clipPath id="clip1_190_25857">
<rect width="317" height="118" fill="white" transform="translate(0.691406 0.640625)"/>
</clipPath>
<clipPath id="clip2_190_25857">
<rect width="317" height="118" fill="white" transform="translate(0.691406 0.640625)"/>
</clipPath>
</defs>
</svg>
