<svg width="12" height="11" viewBox="0 0 12 11" fill="none" xmlns="http://www.w3.org/2000/svg">
<path d="M2.02791 1.23536V3.57244H4.36499V1.23536H2.02791ZM0.859375 1.23536C0.875605 0.910769 0.989213 0.634863 1.2002 0.407647C1.42741 0.196661 1.70332 0.0830526 2.02791 0.066823H4.36499C4.68959 0.0830526 4.96549 0.196661 5.19271 0.407647C5.40369 0.634863 5.5173 0.910769 5.53353 1.23536V3.57244C5.5173 3.89704 5.40369 4.17294 5.19271 4.40016C4.96549 4.61114 4.68959 4.72475 4.36499 4.74098H2.02791C1.70332 4.72475 1.42741 4.61114 1.2002 4.40016C0.989213 4.17294 0.875605 3.89704 0.859375 3.57244V1.23536ZM2.02791 7.46757V9.80465H4.36499V7.46757H2.02791ZM0.859375 7.46757C0.875605 7.14298 0.989213 6.86707 1.2002 6.63986C1.42741 6.42887 1.70332 6.31526 2.02791 6.29903H4.36499C4.68959 6.31526 4.96549 6.42887 5.19271 6.63986C5.40369 6.86707 5.5173 7.14298 5.53353 7.46757V9.80465C5.5173 10.1292 5.40369 10.4052 5.19271 10.6324C4.96549 10.8434 4.68959 10.957 4.36499 10.9732H2.02791C1.70332 10.957 1.42741 10.8434 1.2002 10.6324C0.989213 10.4052 0.875605 10.1292 0.859375 9.80465V7.46757ZM10.5972 1.23536H8.26012V3.57244H10.5972V1.23536ZM8.26012 0.066823H10.5972C10.9218 0.0830526 11.1977 0.196661 11.4249 0.407647C11.6359 0.634863 11.7495 0.910769 11.7657 1.23536V3.57244C11.7495 3.89704 11.6359 4.17294 11.4249 4.40016C11.1977 4.61114 10.9218 4.72475 10.5972 4.74098H8.26012C7.93553 4.72475 7.65962 4.61114 7.43241 4.40016C7.22142 4.17294 7.10781 3.89704 7.09158 3.57244V1.23536C7.10781 0.910769 7.22142 0.634863 7.43241 0.407647C7.65962 0.196661 7.93553 0.0830526 8.26012 0.066823ZM8.26012 7.46757V9.80465H10.5972V7.46757H8.26012ZM7.09158 7.46757C7.10781 7.14298 7.22142 6.86707 7.43241 6.63986C7.65962 6.42887 7.93553 6.31526 8.26012 6.29903H10.5972C10.9218 6.31526 11.1977 6.42887 11.4249 6.63986C11.6359 6.86707 11.7495 7.14298 11.7657 7.46757V9.80465C11.7495 10.1292 11.6359 10.4052 11.4249 10.6324C11.1977 10.8434 10.9218 10.957 10.5972 10.9732H8.26012C7.93553 10.957 7.65962 10.8434 7.43241 10.6324C7.22142 10.4052 7.10781 10.1292 7.09158 9.80465V7.46757Z" fill="#F5F5F5"/>
</svg>
