<svg width="316" height="119" viewBox="0 0 316 119" fill="none" xmlns="http://www.w3.org/2000/svg">
<g opacity="0.5" clip-path="url(#clip0_190_25468)">
<g clip-path="url(#clip1_190_25468)">
<g clip-path="url(#clip2_190_25468)">
<path d="M0.992188 24.3828H222.692" stroke="#F4F6F8" stroke-width="0.699367" stroke-dasharray="1.4 1.4"/>
<path d="M0.992188 38.9297H222.692" stroke="#F4F6F8" stroke-width="0.699367" stroke-dasharray="1.4 1.4"/>
<path d="M0.992188 53.4766H222.692" stroke="#F4F6F8" stroke-width="0.699367" stroke-dasharray="1.4 1.4"/>
<path d="M0.992188 68.0234H222.692" stroke="#F4F6F8" stroke-width="0.699367" stroke-dasharray="1.4 1.4"/>
<path d="M0.992188 82.5703H222.692" stroke="#F4F6F8" stroke-width="0.699367" stroke-dasharray="1.4 1.4"/>
<path d="M222.992 97.4668H0.992188V96.7674H222.992V97.4668Z" fill="#F4F6F8"/>
<path opacity="0.2" d="M2.61516 25.9754L1.69141 26.3736V104.81H223.391V78.1337L222.467 78.93L221.544 79.7263L220.62 76.541L219.696 79.3281L218.773 76.9392L217.849 86.4949L216.925 83.3097L216.001 83.7078L215.078 76.1429L214.154 77.7355L213.23 74.5503L212.306 75.7447H211.383L210.459 71.365L209.535 75.7447L208.611 73.754L207.688 68.9761L206.764 74.9484H205.84L204.916 80.5226L203.993 48.6702L203.069 45.485L202.145 45.0868L201.221 50.661L200.298 49.4665L199.374 54.2444L198.45 45.0868L197.526 46.2813L196.603 50.2628L195.679 50.661L194.755 50.2628L193.831 47.8739L192.908 49.8647L191.984 47.4758L191.06 47.0776L190.136 50.2628L189.213 49.8647L188.289 47.4758L187.365 47.0776L186.441 45.8831L185.518 47.0776L184.594 47.4758L183.67 45.8831L182.746 46.6794H181.823L180.899 49.0684L179.975 48.6702L179.051 49.0684L178.128 49.8647L177.204 50.2628L176.28 56.2352L175.356 56.6333L174.433 56.2352L173.509 56.6333L172.585 50.2628L171.661 50.661L170.738 50.2628L169.814 46.6794L168.89 46.2813L167.966 47.0776L167.043 51.8555L166.119 53.0499L165.195 48.2721L164.271 48.6702L163.348 46.2813L162.424 50.2628L161.5 49.8647L160.576 46.2813L159.653 49.0684L158.729 49.8647L157.805 49.0684L156.881 46.6794L155.958 46.2813L155.034 47.8739L154.11 47.4758L153.186 39.1145L152.263 36.7256L151.339 33.1422L150.415 41.9016L149.491 42.2997L148.568 41.9016L147.644 47.0776L146.72 46.6794L145.796 47.0776L144.873 53.0499L143.949 51.4573L143.025 66.189L142.101 62.2075L141.178 61.8093L140.254 65.7909L139.33 63.0038L138.406 62.2075L137.483 61.8093L136.559 62.2075L135.635 49.0684L134.712 49.4665L133.788 49.0684L132.864 53.4481L131.94 53.0499L131.017 53.4481L130.093 53.0499L129.169 48.6702L128.245 49.4665L127.322 48.6702L126.398 48.2721H125.474L124.55 47.4758L123.627 53.4481L122.703 53.0499L121.779 53.4481L120.855 53.0499L119.932 53.4481L119.008 53.0499L118.084 53.4481L117.16 53.0499L116.237 47.4758L115.313 47.0776L114.389 47.4758L113.465 47.0776H112.542L111.618 46.6794L110.694 47.0776L109.77 55.0407L108.847 55.837L107.923 51.8555L106.999 52.2536L106.075 55.0407L105.152 50.661L104.228 50.2628L103.304 47.0776L102.38 46.6794L101.457 47.0776H100.532L99.6086 50.2628L98.6848 49.8647L97.7611 48.2721L96.8374 47.8739L95.9136 49.4665L94.9899 31.1514L94.0661 35.133L93.1424 41.9016L92.2186 49.4665L91.2949 49.0684L90.3711 49.4665L89.4474 49.0684L88.5236 44.6887L87.5999 37.92L86.6761 38.7164L85.7524 38.3182L84.8286 45.0868L83.9049 52.2536L82.9811 46.2813L82.0574 50.661L81.1337 53.4481L80.2099 53.0499L79.2862 53.4481L78.3624 53.0499L77.4387 53.4481L76.5149 48.6702L75.5912 49.0684L74.6674 48.6702L73.7437 56.6333L72.8199 49.0684L71.8962 51.0591L70.9724 50.661L70.0487 49.4665H69.1249L68.2012 49.8647L67.2774 53.0499L66.3537 53.4481L65.4299 53.0499L64.5062 51.4573L63.5824 51.0591L62.6587 51.4573L61.735 47.0776L60.8112 45.485L59.8875 51.0591L58.9637 51.4573L58.04 51.0591L57.1162 48.6702L56.1925 48.2721L55.2687 46.2813L54.345 39.1145L53.4212 39.5127L52.4975 36.7256L51.5737 38.3182H50.65L49.7262 37.5219L48.8025 41.5034L47.8787 40.309L46.955 42.2997L46.0313 47.0776L45.1075 49.8647L44.1838 50.2628L43.26 50.661L42.3363 55.4388L41.4125 55.0407L40.4888 49.4665L39.565 43.4942L38.6413 49.8647L37.7175 47.4758L36.7938 47.8739L35.87 44.2905L34.9463 44.6887L34.0225 44.2905L33.0988 43.0961L32.175 33.9385L31.2513 28.3643L30.3275 27.9662L29.4038 24.781L28.4801 24.3828L27.5563 28.3643L26.6326 24.3828L25.7088 31.1514L24.7851 26.3736L23.8613 28.3643L22.9376 27.9662L22.0138 32.744L21.0901 41.5034L20.1663 43.8924L19.2426 39.1145L18.3188 41.5034L17.3951 51.0591L16.4713 46.2813L15.5476 41.1053L14.6238 41.5034L13.7001 40.7071L12.7763 36.3274L11.8526 37.5219L10.9289 37.1237L10.0051 36.7256L9.08139 37.1237L8.15764 36.7256L7.23389 35.5311L6.31014 24.3828L5.3864 24.781L4.46265 28.3643L3.5389 28.7625L2.61516 25.9754Z" fill="url(#paint0_linear_190_25468)"/>
<path d="M1.69141 26.3736L2.61516 25.9754L3.5389 28.7625L4.46265 28.3643L5.3864 24.781L6.31014 24.3828L7.23389 35.5311L8.15764 36.7256L9.08139 37.1237L10.0051 36.7256L10.9289 37.1237L11.8526 37.5219L12.7763 36.3274L13.7001 40.7071L14.6238 41.5034L15.5476 41.1053L16.4713 46.2813L17.3951 51.0591L18.3188 41.5034L19.2426 39.1145L20.1663 43.8924L21.0901 41.5034L22.0138 32.744L22.9376 27.9662L23.8613 28.3643L24.7851 26.3736L25.7088 31.1514L26.6326 24.3828L27.5563 28.3643L28.4801 24.3828L29.4038 24.781L30.3275 27.9662L31.2513 28.3643L32.175 33.9385L33.0988 43.0961L34.0225 44.2905L34.9463 44.6887L35.87 44.2905L36.7938 47.8739L37.7175 47.4758L38.6413 49.8647L39.565 43.4942L40.4888 49.4665L41.4125 55.0407L42.3363 55.4388L43.26 50.661L44.1838 50.2628L45.1075 49.8647L46.0313 47.0776L46.955 42.2997L47.8787 40.309L48.8025 41.5034L49.7262 37.5219L50.65 38.3182H51.5737L52.4975 36.7256L53.4212 39.5127L54.345 39.1145L55.2687 46.2813L56.1925 48.2721L57.1162 48.6702L58.04 51.0591L58.9637 51.4573L59.8875 51.0591L60.8112 45.485L61.735 47.0776L62.6587 51.4573L63.5825 51.0591L64.5062 51.4573L65.4299 53.0499L66.3537 53.4481L67.2774 53.0499L68.2012 49.8647L69.1249 49.4665H70.0487L70.9724 50.661L71.8962 51.0591L72.8199 49.0684L73.7437 56.6333L74.6674 48.6702L75.5912 49.0684L76.5149 48.6702L77.4387 53.4481L78.3624 53.0499L79.2862 53.4481L80.2099 53.0499L81.1337 53.4481L82.0574 50.661L82.9811 46.2813L83.9049 52.2536L84.8286 45.0868L85.7524 38.3182L86.6761 38.7164L87.5999 37.92L88.5236 44.6887L89.4474 49.0684L90.3711 49.4665L91.2949 49.0684L92.2186 49.4665L93.1424 41.9016L94.0661 35.133L94.9899 31.1514L95.9136 49.4665L96.8374 47.8739L97.7611 48.2721L98.6849 49.8647L99.6086 50.2628L100.532 47.0776H101.457L102.38 46.6794L103.304 47.0776L104.228 50.2628L105.152 50.661L106.075 55.0407L106.999 52.2536L107.923 51.8555L108.847 55.837L109.77 55.0407L110.694 47.0776L111.618 46.6794L112.542 47.0776H113.465L114.389 47.4758L115.313 47.0776L116.237 47.4758L117.16 53.0499L118.084 53.4481L119.008 53.0499L119.932 53.4481L120.855 53.0499L121.779 53.4481L122.703 53.0499L123.627 53.4481L124.55 47.4758L125.474 48.2721H126.398L127.322 48.6702L128.245 49.4665L129.169 48.6702L130.093 53.0499L131.017 53.4481L131.94 53.0499L132.864 53.4481L133.788 49.0684L134.711 49.4665L135.635 49.0684L136.559 62.2075L137.483 61.8093L138.406 62.2075L139.33 63.0038L140.254 65.7909L141.178 61.8093L142.101 62.2075L143.025 66.189L143.949 51.4573L144.873 53.0499L145.796 47.0776L146.72 46.6794L147.644 47.0776L148.568 41.9016L149.491 42.2997L150.415 41.9016L151.339 33.1422L152.263 36.7256L153.186 39.1145L154.11 47.4758L155.034 47.8739L155.958 46.2813L156.881 46.6794L157.805 49.0684L158.729 49.8647L159.653 49.0684L160.576 46.2813L161.5 49.8647L162.424 50.2628L163.348 46.2813L164.271 48.6702L165.195 48.2721L166.119 53.0499L167.043 51.8555L167.966 47.0776L168.89 46.2813L169.814 46.6794L170.738 50.2628L171.661 50.661L172.585 50.2628L173.509 56.6333L174.433 56.2352L175.356 56.6333L176.28 56.2352L177.204 50.2628L178.128 49.8647L179.051 49.0684L179.975 48.6702L180.899 49.0684L181.823 46.6794H182.746L183.67 45.8831L184.594 47.4758L185.518 47.0776L186.441 45.8831L187.365 47.0776L188.289 47.4758L189.213 49.8647L190.136 50.2628L191.06 47.0776L191.984 47.4758L192.908 49.8647L193.831 47.8739L194.755 50.2628L195.679 50.661L196.603 50.2628L197.526 46.2813L198.45 45.0868L199.374 54.2444L200.298 49.4665L201.221 50.661L202.145 45.0868L203.069 45.485L203.993 48.6702L204.916 80.5226L205.84 74.9484H206.764L207.688 68.9761L208.611 73.754L209.535 75.7447L210.459 71.365L211.383 75.7447H212.306L213.23 74.5503L214.154 77.7355L215.078 76.1429L216.001 83.7078L216.925 83.3097L217.849 86.4949L218.773 76.9392L219.696 79.3281L220.62 76.541L221.544 79.7263L222.467 78.93L223.391 78.1337" stroke="#ADB5BD" stroke-width="0.699367" stroke-linejoin="round"/>
<mask id="mask0_190_25468" style="mask-type:luminance" maskUnits="userSpaceOnUse" x="245" y="0" width="71" height="119">
<path d="M311.691 0.25H249.691C247.482 0.25 245.691 2.04086 245.691 4.25V114.25C245.691 116.459 247.482 118.25 249.691 118.25H311.691C313.901 118.25 315.691 116.459 315.691 114.25V4.25C315.691 2.04086 313.901 0.25 311.691 0.25Z" fill="white"/>
</mask>
<g mask="url(#mask0_190_25468)">
<path d="M311.691 0.25H249.691C247.482 0.25 245.691 2.04086 245.691 4.25V114.25C245.691 116.459 247.482 118.25 249.691 118.25H311.691C313.901 118.25 315.691 116.459 315.691 114.25V4.25C315.691 2.04086 313.901 0.25 311.691 0.25Z" fill="white"/>
<path d="M304.691 19.25H254.691C254.139 19.25 253.691 19.6977 253.691 20.25V24.25C253.691 24.8023 254.139 25.25 254.691 25.25H304.691C305.244 25.25 305.691 24.8023 305.691 24.25V20.25C305.691 19.6977 305.244 19.25 304.691 19.25Z" fill="#F4F6F8"/>
<path d="M259.644 23.3848L258.859 22.5996C259.029 22.3945 259.123 22.1309 259.123 21.8438C259.123 21.1758 258.572 20.625 257.904 20.625C257.23 20.625 256.691 21.1758 256.691 21.8438C256.691 22.5176 257.236 23.0625 257.904 23.0625C258.185 23.0625 258.449 22.9688 258.66 22.7988L259.445 23.584C259.474 23.6133 259.509 23.625 259.55 23.625C259.586 23.625 259.621 23.6133 259.644 23.584C259.703 23.5312 259.703 23.4434 259.644 23.3848ZM256.972 21.8438C256.972 21.3281 257.388 20.9062 257.91 20.9062C258.425 20.9062 258.847 21.3281 258.847 21.8438C258.847 22.3652 258.425 22.7812 257.91 22.7812C257.388 22.7812 256.972 22.3652 256.972 21.8438Z" fill="#ADB5BD"/>
<g filter="url(#filter0_d_190_25468)">
<path d="M303.691 27.25H255.691C254.587 27.25 253.691 28.1454 253.691 29.25V153.25C253.691 154.355 254.587 155.25 255.691 155.25H303.691C304.796 155.25 305.691 154.355 305.691 153.25V29.25C305.691 28.1454 304.796 27.25 303.691 27.25Z" fill="white"/>
<path d="M305.691 27.25H253.691V37.25H305.691V27.25Z" fill="#E9ECEF"/>
<path d="M270.191 32.25H259.191C258.915 32.25 258.691 32.4739 258.691 32.75V33.75C258.691 34.0261 258.915 34.25 259.191 34.25H270.191C270.468 34.25 270.691 34.0261 270.691 33.75V32.75C270.691 32.4739 270.468 32.25 270.191 32.25Z" fill="#ADB5BD"/>
<path d="M300.191 32.25H283.191C282.915 32.25 282.691 32.4739 282.691 32.75V33.75C282.691 34.0261 282.915 34.25 283.191 34.25H300.191C300.468 34.25 300.691 34.0261 300.691 33.75V32.75C300.691 32.4739 300.468 32.25 300.191 32.25Z" fill="#ADB5BD"/>
<path d="M270.191 40.25H259.191C258.915 40.25 258.691 40.4739 258.691 40.75V42.75C258.691 43.0261 258.915 43.25 259.191 43.25H270.191C270.468 43.25 270.691 43.0261 270.691 42.75V40.75C270.691 40.4739 270.468 40.25 270.191 40.25Z" fill="#E9ECEF"/>
<path d="M300.191 40.25H283.191C282.915 40.25 282.691 40.4739 282.691 40.75V42.75C282.691 43.0261 282.915 43.25 283.191 43.25H300.191C300.468 43.25 300.691 43.0261 300.691 42.75V40.75C300.691 40.4739 300.468 40.25 300.191 40.25Z" fill="#E9ECEF"/>
<path d="M305.691 46H253.691V46.5H305.691V46Z" fill="#E9ECEF"/>
<path d="M270.191 49.25H259.191C258.915 49.25 258.691 49.4739 258.691 49.75V51.75C258.691 52.0261 258.915 52.25 259.191 52.25H270.191C270.468 52.25 270.691 52.0261 270.691 51.75V49.75C270.691 49.4739 270.468 49.25 270.191 49.25Z" fill="#E9ECEF"/>
<path d="M300.191 49.25H283.191C282.915 49.25 282.691 49.4739 282.691 49.75V51.75C282.691 52.0261 282.915 52.25 283.191 52.25H300.191C300.468 52.25 300.691 52.0261 300.691 51.75V49.75C300.691 49.4739 300.468 49.25 300.191 49.25Z" fill="#E9ECEF"/>
<path d="M305.691 55H253.691V55.5H305.691V55Z" fill="#E9ECEF"/>
<path d="M270.191 58.25H259.191C258.915 58.25 258.691 58.4739 258.691 58.75V60.75C258.691 61.0261 258.915 61.25 259.191 61.25H270.191C270.468 61.25 270.691 61.0261 270.691 60.75V58.75C270.691 58.4739 270.468 58.25 270.191 58.25Z" fill="#E9ECEF"/>
<path d="M300.191 58.25H283.191C282.915 58.25 282.691 58.4739 282.691 58.75V60.75C282.691 61.0261 282.915 61.25 283.191 61.25H300.191C300.468 61.25 300.691 61.0261 300.691 60.75V58.75C300.691 58.4739 300.468 58.25 300.191 58.25Z" fill="#E9ECEF"/>
<path d="M305.691 64H253.691V64.5H305.691V64Z" fill="#E9ECEF"/>
<path d="M270.191 67.25H259.191C258.915 67.25 258.691 67.4739 258.691 67.75V69.75C258.691 70.0261 258.915 70.25 259.191 70.25H270.191C270.468 70.25 270.691 70.0261 270.691 69.75V67.75C270.691 67.4739 270.468 67.25 270.191 67.25Z" fill="#E9ECEF"/>
<path d="M300.191 67.25H283.191C282.915 67.25 282.691 67.4739 282.691 67.75V69.75C282.691 70.0261 282.915 70.25 283.191 70.25H300.191C300.468 70.25 300.691 70.0261 300.691 69.75V67.75C300.691 67.4739 300.468 67.25 300.191 67.25Z" fill="#E9ECEF"/>
<path d="M305.691 73H253.691V73.5H305.691V73Z" fill="#E9ECEF"/>
<path d="M270.191 76.25H259.191C258.915 76.25 258.691 76.4739 258.691 76.75V78.75C258.691 79.0261 258.915 79.25 259.191 79.25H270.191C270.468 79.25 270.691 79.0261 270.691 78.75V76.75C270.691 76.4739 270.468 76.25 270.191 76.25Z" fill="#E9ECEF"/>
<path d="M300.191 76.25H283.191C282.915 76.25 282.691 76.4739 282.691 76.75V78.75C282.691 79.0261 282.915 79.25 283.191 79.25H300.191C300.468 79.25 300.691 79.0261 300.691 78.75V76.75C300.691 76.4739 300.468 76.25 300.191 76.25Z" fill="#E9ECEF"/>
<path d="M305.691 82H253.691V82.5H305.691V82Z" fill="#E9ECEF"/>
<path d="M270.191 85.25H259.191C258.915 85.25 258.691 85.4739 258.691 85.75V87.75C258.691 88.0261 258.915 88.25 259.191 88.25H270.191C270.468 88.25 270.691 88.0261 270.691 87.75V85.75C270.691 85.4739 270.468 85.25 270.191 85.25Z" fill="#E9ECEF"/>
<path d="M300.191 85.25H283.191C282.915 85.25 282.691 85.4739 282.691 85.75V87.75C282.691 88.0261 282.915 88.25 283.191 88.25H300.191C300.468 88.25 300.691 88.0261 300.691 87.75V85.75C300.691 85.4739 300.468 85.25 300.191 85.25Z" fill="#E9ECEF"/>
<path d="M305.691 91H253.691V91.5H305.691V91Z" fill="#E9ECEF"/>
<path d="M270.191 94.25H259.191C258.915 94.25 258.691 94.4739 258.691 94.75V96.75C258.691 97.0261 258.915 97.25 259.191 97.25H270.191C270.468 97.25 270.691 97.0261 270.691 96.75V94.75C270.691 94.4739 270.468 94.25 270.191 94.25Z" fill="#E9ECEF"/>
<path d="M300.191 94.25H283.191C282.915 94.25 282.691 94.4739 282.691 94.75V96.75C282.691 97.0261 282.915 97.25 283.191 97.25H300.191C300.468 97.25 300.691 97.0261 300.691 96.75V94.75C300.691 94.4739 300.468 94.25 300.191 94.25Z" fill="#E9ECEF"/>
<path d="M305.691 100H253.691V100.5H305.691V100Z" fill="#E9ECEF"/>
<path d="M270.191 103.25H259.191C258.915 103.25 258.691 103.474 258.691 103.75V105.75C258.691 106.026 258.915 106.25 259.191 106.25H270.191C270.468 106.25 270.691 106.026 270.691 105.75V103.75C270.691 103.474 270.468 103.25 270.191 103.25Z" fill="#E9ECEF"/>
<path d="M300.191 103.25H283.191C282.915 103.25 282.691 103.474 282.691 103.75V105.75C282.691 106.026 282.915 106.25 283.191 106.25H300.191C300.468 106.25 300.691 106.026 300.691 105.75V103.75C300.691 103.474 300.468 103.25 300.191 103.25Z" fill="#E9ECEF"/>
<path d="M305.691 109H253.691V109.5H305.691V109Z" fill="#E9ECEF"/>
<path d="M270.191 112.25H259.191C258.915 112.25 258.691 112.474 258.691 112.75V114.75C258.691 115.026 258.915 115.25 259.191 115.25H270.191C270.468 115.25 270.691 115.026 270.691 114.75V112.75C270.691 112.474 270.468 112.25 270.191 112.25Z" fill="#E9ECEF"/>
<path d="M300.191 112.25H283.191C282.915 112.25 282.691 112.474 282.691 112.75V114.75C282.691 115.026 282.915 115.25 283.191 115.25H300.191C300.468 115.25 300.691 115.026 300.691 114.75V112.75C300.691 112.474 300.468 112.25 300.191 112.25Z" fill="#E9ECEF"/>
<path d="M305.691 118H253.691V118.5H305.691V118Z" fill="#E9ECEF"/>
</g>
<path d="M305.191 9.25H254.191C253.915 9.25 253.691 9.47386 253.691 9.75V10.75C253.691 11.0261 253.915 11.25 254.191 11.25H305.191C305.468 11.25 305.691 11.0261 305.691 10.75V9.75C305.691 9.47386 305.468 9.25 305.191 9.25Z" fill="#ADB5BD"/>
<path d="M281.191 12.25H254.191C253.915 12.25 253.691 12.4739 253.691 12.75V13.75C253.691 14.0261 253.915 14.25 254.191 14.25H281.191C281.468 14.25 281.691 14.0261 281.691 13.75V12.75C281.691 12.4739 281.468 12.25 281.191 12.25Z" fill="#ADB5BD"/>
</g>
<path d="M311.691 0.5H249.691C247.62 0.5 245.941 2.17893 245.941 4.25V114.25C245.941 116.321 247.62 118 249.691 118H311.691C313.762 118 315.441 116.321 315.441 114.25V4.25C315.441 2.17893 313.762 0.5 311.691 0.5Z" stroke="#F4F6F8" stroke-width="0.5"/>
</g>
</g>
</g>
<defs>
<filter id="filter0_d_190_25468" x="251.691" y="26.25" width="56" height="132" filterUnits="userSpaceOnUse" color-interpolation-filters="sRGB">
<feFlood flood-opacity="0" result="BackgroundImageFix"/>
<feColorMatrix in="SourceAlpha" type="matrix" values="0 0 0 0 0 0 0 0 0 0 0 0 0 0 0 0 0 0 127 0" result="hardAlpha"/>
<feOffset dy="1"/>
<feGaussianBlur stdDeviation="1"/>
<feComposite in2="hardAlpha" operator="out"/>
<feColorMatrix type="matrix" values="0 0 0 0 0 0 0 0 0 0 0 0 0 0 0 0 0 0 0.05 0"/>
<feBlend mode="normal" in2="BackgroundImageFix" result="effect1_dropShadow_190_25468"/>
<feBlend mode="normal" in="SourceGraphic" in2="effect1_dropShadow_190_25468" result="shape"/>
</filter>
<linearGradient id="paint0_linear_190_25468" x1="109.26" y1="55.3808" x2="105.767" y2="97.4865" gradientUnits="userSpaceOnUse">
<stop stop-color="#B1BFCD"/>
<stop offset="1" stop-color="#F4F6F8" stop-opacity="0"/>
</linearGradient>
<clipPath id="clip0_190_25468">
<rect width="315" height="118" fill="white" transform="translate(0.691406 0.25)"/>
</clipPath>
<clipPath id="clip1_190_25468">
<rect width="315" height="118" fill="white" transform="translate(0.691406 0.25)"/>
</clipPath>
<clipPath id="clip2_190_25468">
<rect width="315" height="118" fill="white" transform="translate(0.691406 0.25)"/>
</clipPath>
</defs>
</svg>
