<svg width="317" height="119" viewBox="0 0 317 119" fill="none" xmlns="http://www.w3.org/2000/svg">
<g opacity="0.5" clip-path="url(#clip0_190_28914)">
<g clip-path="url(#clip1_190_28914)">
<g clip-path="url(#clip2_190_28914)">
<path d="M158.895 0.203125C174.368 0.387321 189.148 6.64242 200.053 17.6206C210.957 28.5989 217.112 43.4215 217.192 58.8948L200.672 58.9799C200.615 47.8392 196.183 37.1669 188.332 29.2625C180.481 21.3582 169.839 16.8545 158.699 16.7219L158.895 0.203125Z" fill="#ADB5BD"/>
<path d="M216.935 64.7056C216.168 72.8843 213.702 80.8128 209.695 87.9835C205.687 95.1542 200.226 101.409 193.662 106.347L183.73 93.1462C188.457 89.5905 192.388 85.087 195.274 79.9241C198.159 74.7613 199.935 69.0527 200.487 63.1641L216.935 64.7056Z" fill="#CED4DA"/>
<path d="M188.527 109.802C181.446 114.047 173.553 116.759 165.358 117.762C157.163 118.765 148.849 118.037 140.953 115.625C133.057 113.213 125.755 109.171 119.52 103.759C113.284 98.3475 108.254 91.6878 104.754 84.2102L119.716 77.207C122.236 82.5908 125.858 87.3858 130.347 91.282C134.837 95.1781 140.094 98.0886 145.779 99.8253C151.464 101.562 157.451 102.087 163.351 101.364C169.251 100.642 174.935 98.6892 180.033 95.6326L188.527 109.802Z" fill="#E9ECEF"/>
<path d="M102.718 79.2935C99.6401 70.7949 98.5555 61.7026 99.5485 52.7184C100.541 43.7342 103.585 35.0982 108.445 27.477C113.305 19.8558 119.851 13.4532 127.578 8.76319C135.305 4.07324 144.007 1.22139 153.011 0.427734L154.461 16.884C147.978 17.4554 141.713 19.5087 136.15 22.8855C130.586 26.2623 125.873 30.8722 122.374 36.3594C118.875 41.8467 116.683 48.0646 115.968 54.5332C115.253 61.0019 116.034 67.5483 118.25 73.6673L102.718 79.2935Z" fill="#E5E7EB"/>
<path d="M92.6289 43.1992H63.7539C61.7864 43.1992 60.1914 44.7942 60.1914 46.7617V59.1367C60.1914 61.1042 61.7864 62.6992 63.7539 62.6992H92.6289C94.5964 62.6992 96.1914 61.1042 96.1914 59.1367V46.7617C96.1914 44.7942 94.5964 43.1992 92.6289 43.1992Z" fill="#495057"/>
<path d="M68.5039 55.3242C69.8156 55.3242 70.8789 54.2609 70.8789 52.9492C70.8789 51.6375 69.8156 50.5742 68.5039 50.5742C67.1922 50.5742 66.1289 51.6375 66.1289 52.9492C66.1289 54.2609 67.1922 55.3242 68.5039 55.3242Z" fill="#CED4DA"/>
<path d="M76.0623 49.7682V54.95H75.2779V50.5525H75.2475L74.0078 51.3622V50.6133L75.3007 49.7682H76.0623ZM77.4996 54.95V54.3832L79.253 52.5666C79.4403 52.3692 79.5946 52.1963 79.7161 52.0479C79.8392 51.8978 79.9311 51.7552 79.9918 51.6203C80.0526 51.4853 80.0829 51.342 80.0829 51.1901C80.0829 51.0181 80.0424 50.8697 79.9615 50.7448C79.8805 50.6183 79.77 50.5213 79.63 50.4539C79.49 50.3847 79.3323 50.3501 79.1569 50.3501C78.9713 50.3501 78.8094 50.3881 78.6711 50.464C78.5328 50.5399 78.4265 50.647 78.3523 50.7853C78.2781 50.9236 78.241 51.0856 78.241 51.2711H77.4945C77.4945 50.9557 77.5671 50.6799 77.7121 50.4437C77.8572 50.2076 78.0563 50.0246 78.3093 49.8947C78.5623 49.7631 78.8499 49.6973 79.1721 49.6973C79.4976 49.6973 79.7844 49.7623 80.0323 49.8922C80.282 50.0204 80.4768 50.1958 80.6168 50.4184C80.7568 50.6394 80.8268 50.8891 80.8268 51.1674C80.8268 51.3597 80.7905 51.5477 80.718 51.7316C80.6472 51.9155 80.5232 52.1204 80.3461 52.3464C80.169 52.5708 79.9227 52.8432 79.6073 53.1637L78.5775 54.2415V54.2795H80.9103V54.95H77.4996ZM83.6558 55.0208C83.2931 55.0208 82.9726 54.9584 82.6943 54.8336C82.4176 54.7088 82.2009 54.5367 82.044 54.3175C81.8872 54.0982 81.8096 53.8485 81.8112 53.5685C81.8096 53.3492 81.8543 53.1477 81.9453 52.9638C82.0381 52.7783 82.1638 52.6239 82.3223 52.5008C82.4809 52.376 82.658 52.2967 82.8537 52.2629V52.2326C82.5956 52.1702 82.389 52.0319 82.2338 51.8176C82.0786 51.6034 82.0019 51.3571 82.0035 51.0788C82.0019 50.814 82.0719 50.5778 82.2135 50.3704C82.3569 50.1612 82.5534 49.9967 82.8031 49.877C83.0527 49.7572 83.3369 49.6973 83.6558 49.6973C83.9712 49.6973 84.2529 49.7581 84.5008 49.8795C84.7505 49.9993 84.947 50.1637 85.0904 50.3729C85.2337 50.5804 85.3063 50.8157 85.308 51.0788C85.3063 51.3571 85.227 51.6034 85.0701 51.8176C84.9133 52.0319 84.7092 52.1702 84.4578 52.2326V52.2629C84.6518 52.2967 84.8264 52.376 84.9816 52.5008C85.1384 52.6239 85.2633 52.7783 85.356 52.9638C85.4505 53.1477 85.4986 53.3492 85.5003 53.5685C85.4986 53.8485 85.4193 54.0982 85.2624 54.3175C85.1055 54.5367 84.888 54.7088 84.6096 54.8336C84.333 54.9584 84.015 55.0208 83.6558 55.0208ZM83.6558 54.3807C83.87 54.3807 84.0555 54.3453 84.2124 54.2744C84.3693 54.2019 84.4907 54.1015 84.5767 53.9733C84.6628 53.8435 84.7066 53.6917 84.7083 53.5179C84.7066 53.3374 84.6594 53.178 84.5666 53.0397C84.4755 52.9014 84.3516 52.7926 84.1947 52.7133C84.0378 52.634 83.8582 52.5944 83.6558 52.5944C83.4516 52.5944 83.2703 52.634 83.1118 52.7133C82.9532 52.7926 82.8284 52.9014 82.7373 53.0397C82.6462 53.178 82.6015 53.3374 82.6032 53.5179C82.6015 53.6917 82.6428 53.8435 82.7272 53.9733C82.8132 54.1015 82.9355 54.2019 83.0941 54.2744C83.2526 54.3453 83.4398 54.3807 83.6558 54.3807ZM83.6558 51.9694C83.8278 51.9694 83.9805 51.9349 84.1137 51.8657C84.247 51.7965 84.3516 51.7004 84.4275 51.5773C84.5051 51.4541 84.5447 51.3099 84.5464 51.1446C84.5447 50.9827 84.5059 50.841 84.43 50.7195C84.3558 50.5981 84.252 50.5045 84.1188 50.4387C83.9855 50.3712 83.8312 50.3375 83.6558 50.3375C83.477 50.3375 83.3201 50.3712 83.1851 50.4387C83.0519 50.5045 82.9481 50.5981 82.8739 50.7195C82.7997 50.841 82.7634 50.9827 82.7651 51.1446C82.7634 51.3099 82.8005 51.4541 82.8765 51.5773C82.9524 51.7004 83.0569 51.7965 83.1902 51.8657C83.3251 51.9349 83.4803 51.9694 83.6558 51.9694ZM87.1482 53.6318L87.1432 52.7083H87.2748L88.8232 51.0636H89.729L87.963 52.936H87.844L87.1482 53.6318ZM86.4524 54.95V49.7682H87.209V54.95H86.4524ZM88.9067 54.95L87.5151 53.103L88.0363 52.5742L89.8353 54.95H88.9067Z" fill="#F8F9FA"/>
<path d="M102.517 52.229C102.826 52.4667 102.826 52.9324 102.517 53.1701L96.0692 58.1342C95.6788 58.4347 95.1133 58.1563 95.1133 57.6636V47.7354C95.1133 47.2427 95.6788 46.9644 96.0692 47.2649L102.517 52.229Z" fill="#495057"/>
<path d="M234.117 11.1992H210.636C208.734 11.1992 207.191 12.7413 207.191 14.6437V26.94C207.191 28.8423 208.734 30.3844 210.636 30.3844H234.117C236.02 30.3844 237.562 28.8423 237.562 26.94V14.6437C237.562 12.7413 236.02 11.1992 234.117 11.1992Z" fill="#495057"/>
<path d="M215.23 23.0887C216.498 23.0887 217.526 22.0606 217.526 20.7924C217.526 19.5242 216.498 18.4961 215.23 18.4961C213.962 18.4961 212.934 19.5242 212.934 20.7924C212.934 22.0606 213.962 23.0887 215.23 23.0887Z" fill="#CED4DA"/>
<path d="M222.513 17.7814V22.7915H221.755V18.5398H221.725L220.527 19.3226V18.5985L221.777 17.7814H222.513ZM223.903 22.7915V22.2435L225.598 20.487C225.779 20.2962 225.928 20.1291 226.046 19.9855C226.165 19.8404 226.254 19.7026 226.313 19.5721C226.371 19.4416 226.401 19.303 226.401 19.1562C226.401 18.9899 226.361 18.8464 226.283 18.7257C226.205 18.6034 226.098 18.5096 225.963 18.4443C225.827 18.3775 225.675 18.344 225.505 18.344C225.326 18.344 225.169 18.3807 225.036 18.4541C224.902 18.5275 224.799 18.6311 224.727 18.7648C224.656 18.8986 224.62 19.0551 224.62 19.2345H223.898C223.898 18.9295 223.968 18.6629 224.108 18.4346C224.249 18.2062 224.441 18.0293 224.686 17.9037C224.93 17.7765 225.208 17.7129 225.52 17.7129C225.835 17.7129 226.112 17.7757 226.352 17.9013C226.593 18.0252 226.781 18.1948 226.917 18.4101C227.052 18.6237 227.12 18.8651 227.12 19.1342C227.12 19.3201 227.085 19.502 227.015 19.6797C226.946 19.8575 226.826 20.0557 226.655 20.2742C226.484 20.4911 226.246 20.7545 225.941 21.0644L224.945 22.1065V22.1432H227.201V22.7915H223.903ZM228.845 21.5169L228.84 20.624H228.967L230.464 19.0339H231.34L229.632 20.8442H229.517L228.845 21.5169ZM228.172 22.7915V17.7814H228.903V22.7915H228.172ZM230.545 22.7915L229.199 21.0057L229.703 20.4944L231.443 22.7915H230.545Z" fill="#F8F9FA"/>
<path d="M201.907 20.9619C201.661 21.1892 201.661 21.578 201.907 21.8053L206.945 26.4594C207.313 26.799 207.909 26.5383 207.909 26.0377V16.7295C207.909 16.2289 207.313 15.9681 206.945 16.3078L201.907 20.9619Z" fill="#495057"/>
</g>
</g>
</g>
<defs>
<clipPath id="clip0_190_28914">
<rect width="316" height="118" fill="white" transform="translate(0.191406 0.199219)"/>
</clipPath>
<clipPath id="clip1_190_28914">
<rect width="316" height="118" fill="white" transform="translate(0.191406 0.199219)"/>
</clipPath>
<clipPath id="clip2_190_28914">
<rect width="316" height="118" fill="white" transform="translate(0.191406 0.199219)"/>
</clipPath>
</defs>
</svg>
