<svg width="13" height="14" viewBox="0 0 13 14" fill="none" xmlns="http://www.w3.org/2000/svg">
<g id="Icon" clip-path="url(#clip0_40_3040)">
<path id="Vector" d="M7.16426 1.69205C7.1318 1.335 6.93704 1.14024 6.57999 1.10779C6.22293 1.14024 6.02818 1.335 5.99572 1.69205V8.26509L3.68298 5.95235C3.40708 5.72514 3.13117 5.72514 2.85527 5.95235C2.62805 6.22826 2.62805 6.50416 2.85527 6.78007L6.16613 10.0909C6.44204 10.3181 6.71794 10.3181 6.99385 10.0909L10.3047 6.78007C10.5319 6.50416 10.5319 6.22826 10.3047 5.95235C10.0288 5.72514 9.7529 5.72514 9.47699 5.95235L7.16426 8.26509V1.69205ZM3.48823 8.50853H1.90583C1.46763 8.52476 1.10246 8.67895 0.810325 8.97108C0.51819 9.26322 0.364008 9.62838 0.347778 10.0666V12.0142C0.364008 12.4524 0.51819 12.8175 0.810325 13.1097C1.10246 13.4018 1.46763 13.556 1.90583 13.5722H11.2541C11.6923 13.556 12.0575 13.4018 12.3497 13.1097C12.6418 12.8175 12.796 12.4524 12.8122 12.0142V10.0666C12.796 9.62838 12.6418 9.26322 12.3497 8.97108C12.0575 8.67895 11.6923 8.52476 11.2541 8.50853H9.67175L8.50321 9.67707H11.2541C11.4976 9.6933 11.6274 9.82314 11.6437 10.0666V12.0142C11.6274 12.2576 11.4976 12.3874 11.2541 12.4037H1.90583C1.66239 12.3874 1.53255 12.2576 1.51632 12.0142V10.0666C1.53255 9.82314 1.66239 9.6933 1.90583 9.67707H4.65677L3.48823 8.50853ZM10.8646 11.0404C10.8322 10.6833 10.6374 10.4886 10.2804 10.4561C9.92331 10.4886 9.72855 10.6833 9.69609 11.0404C9.72855 11.3974 9.92331 11.5922 10.2804 11.6246C10.6374 11.5922 10.8322 11.3974 10.8646 11.0404Z" fill="#BBBBBB"/>
</g>
<defs>
<clipPath id="clip0_40_3040">
<rect width="12.56" height="13" fill="white" transform="matrix(1 0 0 -1 0.299988 13.84)"/>
</clipPath>
</defs>
</svg>
