<svg width="12" height="13" viewBox="0 0 12 13" fill="none" xmlns="http://www.w3.org/2000/svg">
<g id="Icon" clip-path="url(#clip0_40_8883)">
<path id="Vector" d="M6.33413 0.846513C6.30416 0.516925 6.12439 0.33715 5.7948 0.307187C5.46521 0.33715 5.28544 0.516925 5.25548 0.846513V6.91393L3.12064 4.7791C2.86596 4.56936 2.61128 4.56936 2.3566 4.7791C2.14686 5.03378 2.14686 5.28846 2.3566 5.54314L5.41278 8.59932C5.66746 8.80906 5.92214 8.80906 6.17682 8.59932L9.233 5.54314C9.44274 5.28846 9.44274 5.03378 9.233 4.7791C8.97832 4.56936 8.72364 4.56936 8.46896 4.7791L6.33413 6.91393V0.846513ZM2.94087 7.13865H1.48019C1.0757 7.15363 0.738621 7.29595 0.468958 7.56561C0.199296 7.83528 0.0569735 8.17236 0.0419922 8.57685V10.3746C0.0569735 10.7791 0.199296 11.1162 0.468958 11.3858C0.738621 11.6555 1.0757 11.7978 1.48019 11.8128H10.1094C10.5139 11.7978 10.851 11.6555 11.1206 11.3858C11.3903 11.1162 11.5326 10.7791 11.5476 10.3746V8.57685C11.5326 8.17236 11.3903 7.83528 11.1206 7.56561C10.851 7.29595 10.5139 7.15363 10.1094 7.13865H8.64873L7.57008 8.2173H10.1094C10.3341 8.23228 10.454 8.35213 10.469 8.57685V10.3746C10.454 10.5993 10.3341 10.7192 10.1094 10.7342H1.48019C1.25548 10.7192 1.13563 10.5993 1.12064 10.3746V8.57685C1.13563 8.35213 1.25548 8.23228 1.48019 8.2173H4.01952L2.94087 7.13865ZM9.74986 9.47573C9.7199 9.14614 9.54012 8.96636 9.21053 8.9364C8.88094 8.96636 8.70117 9.14614 8.67121 9.47573C8.70117 9.80531 8.88094 9.98509 9.21053 10.0151C9.54012 9.98509 9.7199 9.80531 9.74986 9.47573Z" fill="#BBBBBB"/>
</g>
<defs>
<clipPath id="clip0_40_8883">
<rect width="11.59" height="12" fill="white" transform="matrix(1 0 0 -1 0 12.06)"/>
</clipPath>
</defs>
</svg>
