<svg width="14" height="14" viewBox="0 0 14 14" fill="none" xmlns="http://www.w3.org/2000/svg">
<path d="M1.53817 9.8082C1.65301 9.44727 1.84168 9.14375 2.10418 8.89766L9.58543 1.3918C9.91356 1.09648 10.2827 0.948828 10.6929 0.948828C11.1194 0.948828 11.4886 1.09648 11.8003 1.3918L12.7847 2.37617C12.8503 2.4582 12.9159 2.54023 12.9815 2.62227C13.1784 2.93398 13.2604 3.27031 13.2276 3.63125C13.1948 3.99219 13.0472 4.31211 12.7847 4.59102L5.3034 12.0723C5.27059 12.1051 5.23778 12.1379 5.20497 12.1707C4.95887 12.384 4.67997 12.5398 4.36825 12.6383L2.44872 13.2043L1.41512 13.4996C1.18543 13.5652 0.988559 13.516 0.824496 13.352C0.660434 13.1879 0.611215 12.991 0.67684 12.7613L0.972153 11.7277L1.53817 9.8082L0.972153 11.7277L1.53817 9.8082ZM2.6702 10.1281L2.52254 10.7187L2.10418 12.0723L3.4577 11.6785L4.04832 11.5062C4.19598 11.457 4.33543 11.375 4.46668 11.2602L10.0776 5.62461L8.55184 4.09883L2.9409 9.70977C2.9245 9.72617 2.91629 9.73437 2.91629 9.73437C2.89989 9.75078 2.89168 9.75898 2.89168 9.75898C2.79325 9.87383 2.71942 9.99687 2.6702 10.1281Z" fill="#FAFAFA"/>
</svg>
