<svg width="16" height="12" viewBox="0 0 16 12" fill="none" xmlns="http://www.w3.org/2000/svg">
<path d="M2.79686 1.98438C2.51366 2.00326 2.36262 2.1543 2.34374 2.4375V3.06055L7.24315 7.08203C7.54523 7.30859 7.87564 7.42188 8.23436 7.42188C8.61197 7.42188 8.95181 7.30859 9.25389 7.08203L14.125 3.06055V2.4375C14.1061 2.1543 13.9551 2.00326 13.6719 1.98438H2.79686ZM2.34374 4.81641V9.6875V4.81641V9.6875C2.36262 9.9707 2.51366 10.1217 2.79686 10.1406H13.6719C13.9551 10.1217 14.1061 9.9707 14.125 9.6875V4.81641L10.1035 8.12988C9.5371 8.56413 8.91405 8.78125 8.23436 8.78125C7.55468 8.78125 6.93163 8.56413 6.36522 8.12988L2.34374 4.81641ZM0.984363 2.4375C1.00324 1.92773 1.1826 1.50293 1.52245 1.16309C1.86229 0.823242 2.2871 0.64388 2.79686 0.625H13.6719C14.1816 0.64388 14.6064 0.823242 14.9463 1.16309C15.2861 1.50293 15.4655 1.92773 15.4844 2.4375V9.6875C15.4655 10.1973 15.2861 10.6221 14.9463 10.9619C14.6064 11.3018 14.1816 11.4811 13.6719 11.5H2.79686C2.2871 11.4811 1.86229 11.3018 1.52245 10.9619C1.1826 10.6221 1.00324 10.1973 0.984363 9.6875V2.4375Z" fill="#BBBBBB"/>
</svg>
