<svg width="14" height="14" viewBox="0 0 14 14" fill="none" xmlns="http://www.w3.org/2000/svg">
<g id="ens-new.svg" clip-path="url(#clip0_40_11507)">
<path id="Vector" d="M2.89107 6.1559C3.01981 6.42977 3.33843 6.9712 3.33843 6.9712L7.02189 0.909996L3.42693 3.4088C3.21273 3.55104 3.03698 3.74358 2.91521 3.96942C2.75148 4.31014 2.66449 4.68234 2.66031 5.06C2.65614 5.43766 2.7349 5.81167 2.89107 6.1559Z" fill="#2C99E0"/>
<path id="Vector_2" d="M1.43165 8.15175C1.47224 8.73147 1.63681 9.29596 1.91433 9.80727C2.19186 10.3186 2.57594 10.7651 3.04085 11.1166L7.01719 13.8765C7.01719 13.8765 4.52935 10.3077 2.43096 6.75654C2.21852 6.38137 2.0757 5.97117 2.00935 5.54559C1.97998 5.35287 1.97998 5.15685 2.00935 4.96413C1.95464 5.06505 1.84843 5.27168 1.84843 5.27168C1.63566 5.70363 1.49076 6.1655 1.41878 6.64122C1.37735 7.14405 1.38165 7.64963 1.43165 8.15175Z" fill="#2C99E0"/>
<path id="Vector_3" d="M11.5761 8.63073C11.4474 8.35676 11.1287 7.81538 11.1287 7.81538L7.44531 13.8766L11.0402 11.3793C11.2545 11.2371 11.4302 11.0446 11.552 10.8187C11.7159 10.4778 11.8031 10.1054 11.8072 9.72735C11.8114 9.34938 11.7325 8.97508 11.5761 8.63073Z" fill="#2C99E0"/>
<path id="Vector_4" d="M13.0347 6.63482C12.9942 6.05505 12.8296 5.49058 12.552 4.97924C12.2746 4.4679 11.8904 4.02149 11.4256 3.66989L7.44922 0.909996C7.44922 0.909996 9.93547 4.4788 12.0354 8.02998C12.2473 8.40526 12.3896 8.81552 12.4554 9.24091C12.4848 9.43368 12.4848 9.62964 12.4554 9.82236C12.5101 9.72151 12.6164 9.51488 12.6164 9.51488C12.8291 9.08288 12.9741 8.62098 13.046 8.14531C13.088 7.64252 13.0842 7.13694 13.0347 6.63482Z" fill="#2C99E0"/>
<g id="Vector_5" style="mix-blend-mode:color">
<path d="M2.91533 3.96942C3.0371 3.74358 3.21284 3.55104 3.42705 3.4088L7.02201 0.909996L3.33855 6.97282C3.33855 6.97282 3.01671 6.43139 2.89119 6.15748C2.73477 5.81306 2.65589 5.43876 2.66006 5.0608C2.66423 4.68284 2.75135 4.31036 2.91533 3.96942ZM1.43165 8.15176C1.47224 8.73148 1.63681 9.29596 1.91433 9.80728C2.19186 10.3186 2.57594 10.7651 3.04085 11.1167L7.01719 13.8765C7.01719 13.8765 4.52935 10.3077 2.43096 6.75654C2.21852 6.38137 2.0757 5.97118 2.00935 5.5456C1.97998 5.35288 1.97998 5.15686 2.00935 4.96414C1.95464 5.06506 1.84843 5.27169 1.84843 5.27169C1.63566 5.70363 1.49076 6.1655 1.41878 6.64122C1.37735 7.14411 1.38165 7.64963 1.43165 8.15176ZM11.5696 8.63225C11.4408 8.35834 11.1222 7.81696 11.1222 7.81696L7.44522 13.8765L11.0402 11.3793C11.2543 11.2371 11.4301 11.0446 11.5519 10.8187C11.7159 10.4778 11.803 10.1053 11.8071 9.7273C11.8113 9.34938 11.7325 8.97507 11.5761 8.63068L11.5696 8.63225ZM13.0291 6.63645C12.9885 6.05662 12.824 5.49219 12.5464 4.98084C12.2689 4.4695 11.8849 4.02309 11.4199 3.6715L7.45005 0.909996C7.45005 0.909996 9.93625 4.4788 12.0362 8.02998C12.2481 8.40526 12.3904 8.81552 12.4563 9.24091C12.4856 9.43368 12.4856 9.62964 12.4563 9.82236C12.511 9.72151 12.6172 9.51488 12.6172 9.51488C12.8299 9.08288 12.9748 8.62098 13.0468 8.14531C13.0887 7.64252 13.085 7.13695 13.0355 6.63482L13.0291 6.63645Z" fill="#4A73F7"/>
</g>
</g>
<defs>
<clipPath id="clip0_40_11507">
<rect width="13" height="13" fill="white" transform="translate(0.730469 0.909996)"/>
</clipPath>
</defs>
</svg>
