<svg width="13" height="14" viewBox="0 0 13 14" fill="none" xmlns="http://www.w3.org/2000/svg">
<g clip-path="url(#clip0_162_29153)">
<path d="M2.31196 5.64666C2.44898 5.93878 2.78665 6.51433 2.78665 6.51433L6.69118 0.0595703L2.88137 2.72043C2.58347 2.94314 2.43488 3.12426 2.33907 3.3166C1.82028 4.3625 2.17675 5.35418 2.31196 5.64666Z" fill="#77838F"/>
<path d="M0.945923 7.53808C1.04643 8.80561 1.68995 9.94551 2.59667 10.5995L6.68703 13.4491C6.68703 13.4491 4.13101 9.76402 1.97303 6.09702C1.75533 5.70936 1.60842 5.28603 1.53919 4.84685C1.51063 4.64782 1.51221 4.44563 1.54389 4.24707C1.48786 4.35083 1.38627 4.56522 1.38627 4.56522C1.1914 5.00267 0.992561 5.5023 0.944116 5.9788C0.911939 6.31466 0.891332 6.71488 0.945923 7.53808Z" fill="#77838F"/>
<path d="M11.5042 7.86279C11.3672 7.57067 11.0295 6.99512 11.0295 6.99512L7.125 13.4499L10.9352 10.7894C11.2331 10.5667 11.3817 10.3855 11.4775 10.1932C11.9977 9.14695 11.6394 8.15527 11.5042 7.86279Z" fill="#77838F"/>
<path d="M12.872 5.97059C12.7715 4.70307 12.1279 3.56316 11.2212 2.90915L7.13086 0.0595703C7.13086 0.0595703 9.68688 3.74465 11.8449 7.41201C12.0626 7.79967 12.2095 8.22301 12.2787 8.66219C12.3073 8.86121 12.3057 9.06341 12.274 9.26196C12.33 9.15821 12.4316 8.94382 12.4316 8.94382C12.6265 8.50637 12.8253 8.00673 12.8738 7.53023C12.9045 7.19401 12.9269 6.7938 12.872 5.97059Z" fill="#77838F"/>
</g>
<defs>
<clipPath id="clip0_162_29153">
<rect width="11.9942" height="13.39" fill="white" transform="translate(0.912109 0.0595703)"/>
</clipPath>
</defs>
</svg>
