<svg width="319" height="111" viewBox="0 0 319 111" fill="none" xmlns="http://www.w3.org/2000/svg">
<g opacity="0.5" clip-path="url(#clip0_190_6429)">
<g clip-path="url(#clip1_190_6429)">
<g clip-path="url(#clip2_190_6429)">
<path d="M1.0625 109.898H1.17829H1.29409H1.40988H1.52567H1.64147H1.75726H1.87305H1.98885H2.10464H2.22043H2.33623H2.45202H2.56781H2.68361H2.7994H2.91519H3.03099H3.14678H3.26257H3.37837H3.49416H3.60995H3.72575H3.84154H3.95733H4.07313H4.18892H4.30471H4.42051H4.5363H4.65209H4.76789H4.88368H4.99947H5.11527H5.23106H5.34685H5.46265H5.57844H5.69423H5.81003H5.92582H6.04161H6.15741H6.2732H6.38899H6.50479H6.62058H6.73637H6.85217H6.96796H7.08375H7.19955H7.31534H7.43113H7.54693H7.66272H7.77851H7.89431H8.0101H8.12589H8.24169H8.35748H8.47327H8.58907H8.70486H8.82065H8.93645H9.05224H9.16803H9.28383H9.39962H9.51541H9.63121H9.747H9.86279H9.97859H10.0944H10.2102H10.326H10.4418H10.5576H10.6733H10.7891H10.9049H11.0207H11.1365H11.2523H11.3681H11.4839H11.5997H11.7155H11.8313H11.9471H12.0629L12.1787 109.896L12.2945 109.897H12.4102L12.526 109.898H12.6418L12.7576 109.897L12.8734 109.895H12.9892L13.105 109.896L13.2208 109.898H13.3366H13.4524H13.5682H13.684H13.7998H13.9156H14.0314H14.1471H14.2629H14.3787H14.4945H14.6103H14.7261H14.8419H14.9577H15.0735H15.1893H15.3051H15.4209H15.5367H15.6525L15.7683 109.897H15.884L15.9998 109.898H16.1156H16.2314H16.3472L16.463 109.897L16.5788 109.898H16.6946H16.8104H16.9262H17.042H17.1578H17.2736H17.3894H17.5052H17.6209H17.7367H17.8525H17.9683H18.0841H18.1999H18.3157H18.4315H18.5473H18.6631H18.7789H18.8947H19.0105H19.1263H19.2421H19.3578H19.4736H19.5894H19.7052H19.821L19.9368 109.897L20.0526 109.898H20.1684H20.2842H20.4H20.5158L20.6316 109.897L20.7474 109.898H20.8632H20.979H21.0947H21.2105H21.3263H21.4421H21.5579H21.6737H21.7895H21.9053H22.0211L22.1369 109.821L22.2527 109.881L22.3685 109.897L22.4843 109.898L22.6001 109.897L22.7159 109.886L22.8316 109.896L22.9474 109.897H23.0632H23.179L23.2948 109.896H23.4106L23.5264 109.898L23.6422 109.897L23.758 109.894L23.8738 109.897L23.9896 109.898H24.1054L24.2212 109.896L24.337 109.897L24.4528 109.896L24.5685 109.897L24.6843 109.898H24.8001H24.9159L25.0317 109.896L25.1475 109.895L25.2633 109.896H25.3791L25.4949 109.895L25.6107 109.897H25.7265L25.8423 109.895H25.9581H26.0739L26.1897 109.896L26.3054 109.888L26.4212 109.897L26.537 109.896H26.6528L26.7686 109.893L26.8844 109.895H27.0002L27.116 109.893L27.2318 109.894L27.3476 109.896L27.4634 109.895L27.5792 109.896H27.695H27.8108H27.9266H28.0423L28.1581 109.893L28.2739 109.874L28.3897 109.673L28.5055 109.832L28.6213 109.539L28.7371 109.74L28.8529 109.495L28.9687 109.861L29.0845 109.589L29.2003 109.848L29.3161 109.697L29.4319 109.856L29.5477 109.66L29.6635 109.864L29.7792 109.86L29.895 109.648L30.0108 109.446L30.1266 109.814L30.2424 109.74L30.3582 109.598L30.474 109.81L30.5898 109.86L30.7056 109.864L30.8214 109.732L30.9372 109.783L31.053 109.807L31.1688 109.552L31.2846 109.88L31.4004 109.882L31.5161 109.799L31.6319 109.818H31.7477L31.8635 109.834L31.9793 109.881L32.0951 109.886L32.2109 109.743L32.3267 109.681L32.4425 109.841L32.5583 109.876L32.6741 109.794L32.7899 109.804L32.9057 109.87L33.0215 109.797L33.1373 109.88L33.253 109.875L33.3688 109.807L33.4846 109.868L33.6004 109.602L33.7162 109.874L33.832 109.796L33.9478 109.873L34.0636 109.867L34.1794 109.873L34.2952 109.779L34.411 109.878L34.5268 109.789L34.6426 109.881L34.7584 109.81L34.8742 109.876L34.9899 109.822L35.1057 109.854L35.2215 109.882L35.3373 109.82L35.4531 109.887L35.5689 109.886L35.6847 109.879L35.8005 109.88L35.9163 109.878L36.0321 109.873L36.1479 109.085L36.2637 109.612L36.3795 109.727L36.4953 109.771L36.6111 109.794L36.7268 109.823L36.8426 109.826L36.9584 109.837L37.0742 109.829L37.19 109.827L37.3058 109.815L37.4216 109.777L37.5374 109.809L37.6532 109.815H37.769L37.8848 109.822L38.0006 109.773L38.1164 109.734L38.2322 109.779L38.348 109.8L38.4637 108.505L38.5795 109.599L38.6953 109.75L38.8111 109.776L38.9269 109.546L39.0427 109.661L39.1585 109.839L39.2743 109.832L39.3901 109.85L39.5059 109.823L39.6217 109.839L39.7375 109.826L39.8533 109.831L39.9691 109.846L40.0849 109.858L40.2006 109.853L40.3164 109.856L40.4322 109.852L40.548 109.837L40.6638 109.858L40.7796 109.861L40.8954 109.859L41.0112 109.836L41.127 109.869L41.2428 109.833L41.3586 109.859L41.4744 109.858L41.5902 109.704L41.706 109.831L41.8218 109.833L41.9375 109.86L42.0533 109.776L42.1691 109.841L42.2849 109.696L42.4007 109.74L42.5165 109.787L42.6323 109.8L42.7481 109.758L42.8639 109.793L42.9797 109.808L43.0955 109.821L43.2113 109.476L43.3271 109.704L43.4429 109.752L43.5587 109.857L43.6744 109.838L43.7902 109.836L43.906 109.861L44.0218 109.86L44.1376 109.867L44.2534 109.875L44.3692 109.826L44.485 108.917L44.6008 109.775L44.7166 109.857L44.8324 109.868L44.9482 109.854L45.064 109.875L45.1798 109.878L45.2956 109.86L45.4113 109.805L45.5271 109.874L45.6429 109.881L45.7587 109.874L45.8745 109.878L45.9903 109.862L46.1061 109.849L46.2219 109.845L46.3377 109.856L46.4535 109.862L46.5693 109.86L46.6851 109.869L46.8009 109.859L46.9167 109.87L47.0325 109.873L47.1482 109.87L47.264 109.872L47.3798 109.853L47.4956 109.878L47.6114 109.874L47.7272 109.872L47.843 109.846L47.9588 109.869L48.0746 109.866L48.1904 109.878H48.3062L48.422 109.877L48.5378 109.861L48.6536 109.867L48.7694 109.861L48.8851 109.863L49.0009 109.853L49.1167 109.826L49.2325 109.876L49.3483 109.877L49.4641 109.822L49.5799 109.801L49.6957 109.875L49.8115 109.883L49.9273 109.88L50.0431 109.869L50.1589 109.884L50.2747 109.877L50.3905 109.875L50.5063 109.871L50.622 109.877L50.7378 109.882L50.8536 109.866L50.9694 109.845L51.0852 109.468L51.201 109.737L51.3168 109.792L51.4326 109.821L51.5484 109.838L51.6642 109.845L51.78 109.832L51.8958 109.83L52.0116 109.852L52.1274 109.883L52.2432 109.879L52.3589 109.89L52.4747 109.888L52.5905 109.865L52.7063 109.86L52.8221 109.766L52.9379 109.862L53.0537 109.677L53.1695 109.845L53.2853 109.855L53.4011 109.734L53.5169 109.715L53.6327 109.771L53.7485 109.749L53.8643 109.676L53.9801 109.63L54.0958 109.687L54.2116 109.824L54.3274 109.495L54.4432 109.841L54.559 109.851L54.6748 109.867L54.7906 109.864L54.9064 109.869L55.0222 109.864L55.138 109.859L55.2538 109.857L55.3696 109.863L55.4854 109.799L55.6012 109.826L55.717 109.789L55.8327 109.771L55.9485 109.797L56.0643 109.821L56.1801 109.842L56.2959 109.845L56.4117 109.853L56.5275 109.847L56.6433 109.844L56.7591 109.701L56.8749 109.866L56.9907 109.875L57.1065 109.873L57.2223 109.823L57.3381 109.875L57.4539 109.852L57.5696 109.783L57.6854 109.856L57.8012 109.855L57.917 109.774L58.0328 109.868L58.1486 109.864L58.2644 109.839L58.3802 109.821L58.496 109.565L58.6118 109.843L58.7276 109.848L58.8434 109.757L58.9592 109.839L59.075 109.846L59.1908 109.813L59.3065 109.722L59.4223 109.778L59.5381 109.853L59.6539 109.863L59.7697 109.857L59.8855 109.735L60.0013 109.825L60.1171 109.504L60.2329 109.624L60.3487 109.757L60.4645 109.858L60.5803 109.857L60.6961 109.851L60.8119 109.688L60.9277 109.791L61.0435 109.758L61.1592 109.749L61.275 109.856L61.3908 109.862L61.5066 109.848L61.6224 109.672L61.7382 109.769L61.854 109.708L61.9698 109.75L62.0856 109.762L62.2014 109.771L62.3172 109.795L62.433 109.69L62.5488 109.812L62.6646 109.734L62.7803 109.709L62.8961 109.804L63.0119 109.791L63.1277 109.832L63.2435 109.686L63.3593 109.812L63.4751 109.729L63.5909 109.712L63.7067 109.795L63.8225 109.769L63.9383 109.797L64.0541 109.623L64.1699 109.708L64.2857 109.686L64.4015 109.687L64.5172 109.781L64.633 109.789L64.7488 109.829L64.8646 109.669L64.9804 109.649L65.0962 109.719L65.212 109.688L65.3278 109.783L65.4436 109.762L65.5594 109.819L65.6752 109.665L65.791 109.721L65.9068 109.708L66.0226 109.717L66.1384 109.777L66.2541 109.762L66.3699 109.803L66.4857 109.663L66.6015 109.732L66.7173 109.812L66.8331 109.83L66.9489 109.67L67.0647 109.817L67.1805 109.802L67.2963 108.965L67.4121 109.567L67.5279 109.699L67.6437 109.676L67.7595 109.621L67.8753 109.747L67.991 109.752L68.1068 109.61L68.2226 109.726L68.3384 109.636L68.4542 109.641L68.57 109.763L68.6858 109.766L68.8016 109.807L68.9174 109.678L69.0332 109.742L69.149 109.628L69.2648 109.665L69.3806 109.714L69.4964 109.726L69.6122 109.723L69.7279 109.625L69.8437 109.628L69.9595 109.538L70.0753 109.576L70.1911 109.578L70.3069 109.697L70.4227 109.719L70.5385 109.536L70.6543 109.662L70.7701 109.578L70.8859 109.58L71.0017 109.634L71.1175 109.666L71.2333 109.6L71.3491 109.537L71.4648 108.993L71.5806 109.208L71.6964 109.447L71.8122 109.615L71.928 109.647L72.0438 109.679L72.1596 109.554L72.2754 109.615L72.3912 109.512L72.507 109.552L72.6228 109.6L72.7386 109.648L72.8544 109.696L72.9702 109.541L73.086 109.654L73.2018 109.279L73.3175 109.556L73.4333 109.611L73.5491 109.642L73.6649 109.672L73.7807 109.309L73.8965 109.098L74.0123 109.445L74.1281 109.403L74.2439 109.539L74.3597 109.572L74.4755 109.541L74.5913 109.312L74.7071 109.394L74.8229 108.816L74.9386 108.565L75.0544 109.259L75.1702 109.088L75.286 108.439L75.4018 108.661L75.5176 108.874L75.6334 108.886L75.7492 109.205L75.865 109.103L75.9808 109.275L76.0966 109.125L76.2124 109.137L76.3282 109.173L76.444 109.131L76.5598 109.249L76.6755 109.023L76.7913 109.388L76.9071 109.058L77.0229 109.313L77.1387 108.747L77.2545 108.963L77.3703 109.035L77.4861 109.048L77.6019 108.994L77.7177 109.16L77.8335 108.833L77.9493 108.706L78.0651 108.932L78.1809 109.136L78.2967 109.241L78.4124 109.052L78.5282 109.137L78.644 108.949L78.7598 109.032L78.8756 108.925L78.9914 108.148L79.1072 108.847L79.223 108.729L79.3388 108.686L79.4546 108.688L79.5704 108.203L79.6862 108.581L79.802 107.794L79.9178 108.615L80.0336 108.738L80.1493 106.514L80.2651 108.287L80.3809 108.42L80.4967 108.145L80.6125 108.085L80.7283 108.089L80.8441 108.608L80.9599 107.288L81.0757 107.281L81.1915 107.845L81.3073 108.083L81.4231 107.713L81.5389 108.365L81.6547 108.18L81.7705 108.261L81.8862 107.976L82.002 107.173L82.1178 106.779L82.2336 107.928L82.3494 107.737L82.4652 106.977L82.581 106.138L82.6968 106.959L82.8126 106.373L82.9284 106.132L83.0442 105.359L83.16 106.513L83.2758 106.756L83.3916 106.007L83.5074 106.261L83.6231 106.051L83.7389 106.938L83.8547 107.231L83.9705 107.077L84.0863 106.786L84.2021 106.927L84.3179 107.312L84.4337 106.549L84.5495 107.141L84.6653 107.303L84.7811 107.091L84.8969 106.594L85.0127 106.268L85.1285 106.649L85.2443 107.226L85.36 107.247L85.4758 106.576L85.5916 107.974L85.7074 107.707L85.8232 106.682L85.939 107.684L86.0548 107.103L86.1706 107.008L86.2864 106.947L86.4022 106.1L86.518 105.358L86.6338 106.2L86.7496 105.904L86.8654 106.777L86.9812 104.951L87.0969 104.101L87.2127 104.118L87.3285 105.091L87.4443 103.908L87.5601 102.653L87.6759 103.262L87.7917 103.857L87.9075 104.43L88.0233 104.563L88.1391 105.578L88.2549 104.068L88.3707 103.619L88.4865 105.14L88.6023 104.148L88.7181 104.266L88.8338 104.786L88.9496 104.465L89.0654 104.252L89.1812 103.091L89.297 102.891L89.4128 104.559L89.5286 103.789L89.6444 104.383L89.7602 104.728L89.876 102.483L89.9918 101.48L90.1076 99.5737L90.2234 100.512L90.3392 99.4909L90.455 101.698L90.5707 103.704L90.6865 103.401L90.8023 102.124L90.9181 101.988L91.0339 101.364L91.1497 100.481L91.2655 101.781L91.3813 99.4853L91.4971 99.3996L91.6129 100.008L91.7287 102.725L91.8445 100.423L91.9603 101.65L92.0761 103.028L92.1919 105.055L92.3076 103.427L92.4234 102.524L92.5392 102.657L92.655 102.68L92.7708 104.34L92.8866 104.825L93.0024 104.749L93.1182 104.534L93.234 104.292L93.3498 105.331L93.4656 105.253L93.5814 105.005L93.6972 104.554L93.813 104.173L93.9288 104.119L94.0445 102.936L94.1603 104.197L94.2761 103.043L94.3919 102.881L94.5077 103.324L94.6235 103.993L94.7393 99.2399L94.8551 98.0636L94.9709 100.828L95.0867 100.463L95.2025 99.8826L95.3183 103.225L95.4341 105.013L95.5499 98.566L95.6657 99.344L95.7815 98.4327L95.8972 96.1883L96.013 94.2078L96.1288 92.0509L96.2446 91.3282L96.3604 91.1241L96.4762 92.2986L96.592 93.5211L96.7078 91.3667L96.8236 88.3218L96.9394 92.6978L97.0552 98.6342L97.171 99.0254L97.2868 98.5496L97.4026 99.6862L97.5184 101.709L97.6341 100.461L97.7499 93.9079L97.8657 94.8066L97.9815 94.8376L98.0973 96.0734L98.2131 99.4655L98.3289 99.0516L98.4447 99.3767L98.5605 92.9676L98.6763 94.7587L98.7921 95.7346L98.9079 96.5233L99.0237 98.3448L99.1395 98.9302L99.2553 97.7829L99.371 94.4238L99.4868 98.8231L99.6026 31.3095L99.7184 92.4955L99.8342 96.6287L99.95 99.4088L100.065 98.8205L100.182 97.4563L100.298 99.5563L100.413 102.578L100.529 103.449L100.645 104.607L100.76 104.912L100.877 101.818L100.993 101.092L101.107 101.984L101.224 101.469L101.34 99.0674L101.455 98.3534L101.572 98.8946L101.687 99.9641L101.802 97.2203L101.919 97.2772L102.035 95.868L102.15 94.7362L102.266 97.8567L102.382 92.8593L102.497 94.2216L102.614 92.3953L102.729 98.835L102.844 97.2067L102.961 93.3726L103.076 89.8247L103.192 91.3308L103.309 94.535L103.424 98.3817L103.539 97.1164L103.656 97.0695L103.771 94.994L103.886 95.9864L104.003 98.5502L104.118 97.1787L104.234 96.4646L104.351 95.1666L104.465 95.2288L104.581 96.0415L104.698 96.4971L104.813 95.947L104.929 94.5665L105.045 95.7288L105.16 94.7623L105.276 95.0039L105.393 94.7071L105.508 95.1515L105.623 94.0555L105.74 94.5865L105.855 91.8945L105.971 94.3209L106.088 94.0176L106.202 92.7829L106.318 91.3991L106.435 89.5877L106.55 89.1842L106.666 94.4742L106.782 94.2647L106.897 95.9912L107.013 94.3192L107.13 92.0689L107.244 93.4605L107.36 93.3959L107.477 95.6549L107.592 92.1291L107.709 94.0464L107.824 92.5503L107.939 94.4001L108.055 95.8859L108.172 93.8024L108.287 91.4229L108.402 89.9137L108.519 90.6345L108.634 92.2671L108.751 93.7917L108.867 91.6895L108.981 91.7283L109.098 90.3479L109.214 89.2809L109.329 88.7366L109.446 84.2732L109.561 86.2045L109.676 84.2665L109.793 83.5385L109.909 82.4208L110.024 86.5158L110.14 89.9405L110.256 90.378L110.371 85.1065L110.488 88.1923L110.603 83.9929L110.718 86.9278L110.835 88.1186L110.951 86.1736L111.066 89.505L111.182 88.8846L111.298 86.0919L111.413 84.2827L111.53 91.1753L111.646 88.2297L111.76 81.283L111.877 84.0003L111.993 86.7665L112.108 80.9497L112.225 84.8565L112.34 86.0522L112.455 84.6982L112.572 85.1978L112.688 87.0982L112.803 89.2891L112.919 93.0834L113.035 90.5291L113.15 91.2396L113.267 92.3578L113.382 90.747L113.497 90.0797L113.614 89.055L113.729 89.6942L113.845 88.5535L113.961 90.498L114.076 88.3091L114.192 88.3681L114.309 88.1969L114.424 92.6942L114.539 88.7767L114.656 91.2104L114.771 86.5326L114.887 88.0069L115.004 86.8043L115.118 83.6554L115.234 80.3638L115.351 83.6907L115.466 84.9338L115.582 90.4319L115.698 89.2941L115.813 86.5402L115.929 84.9908L116.046 81.7908L116.161 75.8616L116.276 74.5947L116.393 87.3756L116.508 82.4457L116.624 87.4446L116.741 84.2405L116.855 82.9172L116.971 78.0368L117.088 81.63L117.203 83.4766L117.32 86.9482L117.435 84.2147L117.55 80.3128L117.666 74.618L117.783 75.397L117.897 85.8378L118.013 70.9631L118.13 70.5808L118.245 82.4177L118.362 84.0535L118.477 80.0922L118.592 81.8701L118.709 79.741L118.825 77.2954L118.94 77.4636L119.055 84.7062L119.172 79.5931L119.287 79.5037L119.404 81.7103L119.52 81.4882L119.634 81.5753L119.751 78.5477L119.867 79.2616L119.982 82.4909L120.099 79.9609L120.214 80.6248L120.329 79.7868L120.446 78.4443L120.562 80.2972L120.677 82.822L120.793 80.2771L120.909 83.2686L121.024 83.9188L121.141 77.2515L121.256 75.8536L121.371 76.9599L121.488 78.3734L121.604 79.1285L121.719 81.5985L121.835 82.4399L121.951 73.1624L122.066 76.1273L122.183 76.7429L122.299 82.7298L122.413 81.5757L122.53 70.0536L122.646 77.423L122.761 84.0577L122.878 1.89844L122.993 83.1914L123.108 80.8424L123.225 77.431L123.34 77.0867L123.456 80.5327L123.572 77.6306L123.688 81.0624L123.803 81.2991L123.92 77.7466L124.035 74.1678L124.15 71.365L124.267 72.7928L124.382 78.4448L124.498 56.2206L124.614 48.3971L124.729 44.669L124.845 49.0932L124.962 46.037L125.077 48.8577L125.192 39.8322L125.309 41.0253L125.424 61.5079L125.54 61.3634L125.657 63.975L125.771 55.0403L125.887 49.0058L126.004 45.0184L126.119 35.2674L126.235 38.8431L126.351 71.9797L126.466 71.9301L126.582 76.3781L126.699 77.1199L126.814 85.4728L126.929 87.0689L127.046 76.8843L127.161 79.6842L127.277 78.8779L127.394 78.5077L127.508 77.3254L127.624 79.6571L127.741 85.7112L127.856 79.023L127.971 75.6141L128.087 77.7866L128.204 77.239L128.32 77.4256L128.436 76.5412L128.551 74.6257L128.667 74.8402L128.783 76.1342L128.898 90.5078L129.014 100.615L129.13 100.836L129.245 94.8758L129.361 81.9021L129.477 80.8532L129.594 81.086L129.708 82.0271L129.824 82.0288L129.941 81.3972L130.057 90.363L130.173 77.499L130.288 82.172L130.404 80.3277L130.52 76.0845L130.635 82.3915L130.751 80.2318L130.867 80.5745L130.982 77.7101L131.098 82.5877L131.214 67.4259L131.331 71.5771L131.445 77.6595L131.561 79.0195L131.678 82.3664L131.794 82.7033L131.908 81.7036L132.025 82.6844L132.141 85.4338L132.257 85.249L132.372 78.8124L132.488 65.9537L132.604 83.7038L132.719 86.1727L132.835 85.6053L132.952 84.815L133.066 84.7987L133.182 83.4954L133.298 78.8162L133.415 79.2915L133.531 78.8429L133.645 79.0585L133.762 80.4155L133.878 93.4652L133.993 80.9545L134.109 83.6926L134.225 82.4753L134.34 81.7339L134.456 80.5705L134.572 78.4116L134.689 77.4429L134.803 78.9905L134.919 82.653L135.036 91.259L135.152 82.8196L135.266 81.6882L135.383 84.6451L135.499 83.0041L135.615 80.7722L135.73 81.2172L135.846 84.3713L135.962 89.039L136.077 88.0514L136.193 83.8356L136.309 91.8226L136.424 89.3306L136.54 63.661L136.656 86.541L136.773 86.738L136.889 88.504L137.003 87.7373L137.12 88.5789L137.236 81.7351L137.352 85.5647L137.467 81.8447L137.583 85.8181L137.699 82.7592L137.814 85.6807L137.93 89.6379L138.046 87.369L138.161 87.7178L138.277 85.5878L138.393 83.2594L138.51 84.6242L138.624 83.7394L138.74 83.5679L138.857 84.1528L138.973 86.2832L139.089 86.0392L139.204 90.051L139.32 91.2488L139.436 85.0757L139.551 87.6083L139.667 86.8244L139.783 87.8216L139.898 85.9633L140.014 80.6723L140.13 86.7183L140.247 89.3064L140.361 88.4935L140.477 92.8286L140.594 90.5763L140.71 90.6799L140.826 92.0597L140.941 90.9736L141.057 89.6475L141.173 86.6756L141.288 87.1995L141.404 89.4596L141.52 90.4969L141.635 89.4696L141.751 87.9854L141.867 85.5037L141.982 87.2832L142.098 89.4038L142.214 83.323L142.331 91.9476L142.447 91.3598L142.561 89.1867L142.678 89.6458L142.794 87.3521L142.91 86.2937L143.025 89.318L143.141 87.9777L143.257 87.5368L143.372 81.7259L143.488 83.4589L143.605 82.8436L143.719 85.8024L143.835 86.942L143.952 86.4142L144.068 83.0489L144.184 85.4616L144.298 86.0277L144.415 86.6758L144.531 85.2686L144.646 86.5984L144.762 86.5508L144.878 89.5951L144.993 85.5106L145.109 89.0355L145.225 84.3928L145.342 81.5118L145.456 80.4135L145.572 84.6144L145.689 87.9368L145.805 81.5294L145.919 89.2231L146.036 84.2098L146.152 85.0552L146.268 87.1827L146.383 87.5745L146.499 88.8515L146.615 86.4426L146.73 87.6642L146.846 87.847L146.962 86.2954L147.077 87.2592L147.193 91.5266L147.309 90.304L147.426 91.3443L147.542 91.566L147.656 90.9873L147.773 88.4983L147.889 86.8978L148.005 86.0768L148.12 84.083L148.236 83.391L148.352 79.9015L148.467 89.589L148.583 87.57L148.699 87.5554L148.814 86.5097L148.93 89.0002L149.046 88.5179L149.163 84.9218L149.277 86.6936L149.393 87.2815L149.51 88.6893L149.626 89.6557L149.742 92.1989L149.857 90.667L149.973 94.0531L150.089 93.2382L150.204 93.0058L150.32 91.3793L150.436 91.3868L150.551 94.9113L150.667 93.4858L150.783 91.2058L150.9 88.9612L151.014 88.3083L151.13 87.134L151.247 90.7854L151.363 90.5264L151.479 88.7339L151.594 86.3046L151.71 84.6758L151.826 85.6944L151.941 83.5865L152.057 84.5585L152.173 85.6345L152.288 86.3554L152.404 88.6757L152.52 87.9753L152.635 83.1665L152.751 79.4819L152.867 84.652L152.984 86.0104L153.1 77.2863L153.214 80.2782L153.331 82.4147L153.447 84.4075L153.562 82.927L153.678 86.5163L153.794 89.716L153.91 85.3525L154.025 87.8578L154.141 81.5601L154.258 83.65L154.372 84.209L154.488 88.8526L154.605 91.6469L154.721 82.3098L154.837 76.2754L154.952 82.2799L155.068 78.0297L155.184 80.1545L155.299 83.7504L155.415 87.1094L155.531 86.0689L155.646 84.7908L155.762 77.8582L155.878 84.398L155.993 85.7098L156.109 78.9119L156.225 78.9325L156.342 79.9097L156.458 81.185L156.572 82.3984L156.689 81.2625L156.805 86.1945L156.921 90.0739L157.036 89.8578L157.152 85.0686L157.268 84.7307L157.383 85.0577L157.499 83.8235L157.615 83.4477L157.73 86.6036L157.846 86.5752L157.962 88.2689L158.079 84.5021L158.195 83.4548L158.309 79.0194L158.426 82.2593L158.542 83.998L158.658 80.9972L158.773 76.1095L158.889 77.8721L159.005 77.7625L159.12 85.1038L159.236 83.1113L159.352 89.2086L159.467 83.6244L159.583 83.1668L159.699 78.9264L159.816 81.5377L159.93 87.1848L160.046 82.4434L160.163 85.254L160.279 85.5559L160.395 83.2151L160.51 84.5838L160.626 84.9667L160.742 80.0715L160.857 73.3328L160.973 79.9524L161.089 82.088L161.204 77.736L161.32 77.2723L161.436 76.2225L161.553 77.8511L161.667 79.8542L161.783 79.2488L161.9 76.7547L162.016 75.6358L162.132 78.939L162.247 72.1268L162.363 75.7584L162.479 73.1669L162.594 75.072L162.71 80.4666L162.826 70.3449L162.941 74.2708L163.057 70.0827L163.173 74.1035L163.288 71.3041L163.404 68.8643L163.52 74.7103L163.637 74.4416L163.753 73.6187L163.867 74.7288L163.984 71.8784L164.1 80.4146L164.215 68.0417L164.331 82.9492L164.447 65.2855L164.562 72.3105L164.678 82.8605L164.794 83.4193L164.911 76.623L165.025 67.6881L165.141 78.0196L165.258 66.2724L165.374 73.2113L165.49 72.8882L165.605 62.5096L165.721 79.5796L165.837 82.3989L165.952 79.4731L166.068 77.4267L166.184 67.8804L166.299 80.3696L166.415 81.3163L166.531 62.7498L166.646 81.2887L166.762 77.7907L166.878 63.8887L166.995 65.2175L167.111 72.7893L167.225 75.8416L167.342 68.1425L167.458 71.4923L167.574 80.4963L167.689 73.2701L167.805 79.0159L167.921 81.2263L168.036 63.4392L168.152 79.5416L168.268 86.0512L168.383 82.4589L168.499 77.758L168.615 57.9157L168.732 71.2902L168.848 81.0429L168.962 66.8586L169.079 75.0271L169.195 81.9213L169.311 77.701L169.426 80.5421L169.542 62.3914L169.658 55.8155L169.773 76.7938L169.889 82.8043L170.005 79.0951L170.12 81.4951L170.236 80.8621L170.352 75.5045L170.469 63.86L170.583 71.4089L170.699 70.2239L170.816 80.1333L170.932 78.0335L171.048 79.2173L171.163 75.3616L171.279 70.9591L171.395 76.6752L171.51 83.2505L171.626 86.0401L171.742 79.2076L171.857 79.221L171.973 79.4885L172.089 80.8545L172.206 78.3288L172.32 81.4606L172.436 82.3371L172.553 78.2628L172.669 77.897L172.785 76.1569L172.9 77.1228L173.016 77.0825L173.132 79.8214L173.247 78.431L173.363 77.2452L173.479 75.4359L173.594 78.3381L173.71 78.0302L173.827 76.9256L173.941 78.986L174.057 78.0504L174.173 76.293L174.29 76.4844L174.406 76.2801L174.52 75.2919L174.637 75.9358L174.753 79.4531L174.868 78.9389L174.984 75.2488L175.1 79.4431L175.215 79.452L175.331 77.4114L175.447 82.1257L175.564 81.7462L175.678 82.9634L175.794 78.3179L175.911 80.0374L176.027 80.0437L176.143 79.8006L176.258 78.7967L176.374 85.337L176.49 85.6198L176.605 81.5243L176.721 79.5056L176.837 81.5239L176.952 82.4369L177.068 81.8764L177.184 83.6287L177.299 85.2126L177.415 80.9726L177.531 76.9107L177.648 71.7619L177.764 71.2639L177.878 70.2062L177.995 83.3652L178.111 69.2908L178.227 77.9139L178.342 75.8892L178.458 73.1405L178.574 76.9849L178.689 76.2178L178.805 78.4008L178.921 83.5904L179.036 76.6945L179.152 77.3955L179.268 75.4356L179.385 75.6766L179.501 74.8461L179.615 79.4731L179.732 80.2399L179.848 76.1936L179.964 73.747L180.079 73.2787L180.195 74.339L180.311 75.9553L180.426 76.9591L180.542 79.0605L180.658 75.9202L180.773 77.4469L180.889 75.4092L181.005 72.296L181.122 75.4291L181.236 83.511L181.352 83.7955L181.469 78.771L181.585 76.9427L181.701 77.3171L181.816 72.7983L181.932 78.2977L182.048 83.6322L182.163 82.4233L182.279 75.9458L182.395 77.7302L182.51 76.1471L182.626 77.0055L182.742 76.5432L182.859 82.1558L182.973 82.0714L183.089 74.9347L183.206 73.5687L183.322 77.4942L183.436 73.1565L183.553 74.3395L183.669 80.7724L183.785 81.1223L183.9 74.5921L184.016 77.4112L184.132 66.8863L184.247 56.3666L184.363 74.0407L184.48 73.2197L184.594 72.8835L184.71 71.5047L184.827 73.1479L184.943 70.4006L185.059 75.9021L185.173 81.8502L185.29 83.8002L185.406 73.3135L185.521 71.7889L185.637 71.9512L185.753 79.3188L185.868 77.8752L185.984 79.852L186.1 83.0604L186.217 84.1255L186.331 79.1983L186.447 79.4519L186.564 78.1659L186.68 80.1584L186.796 80.8643L186.911 84.9785L187.027 84.726L187.143 80.0218L187.258 80.9781L187.374 82.9613L187.49 82.7004L187.605 81.5507L187.721 86.707L187.837 88.5474L187.952 82.6376L188.068 83.9781L188.184 86.9176L188.301 86.2121L188.417 81.4167L188.531 81.7008L188.648 83.2869L188.764 80.9461L188.88 79.394L188.995 73.7695L189.111 82.0855L189.227 80.4706L189.342 85.425L189.458 87.9754L189.574 70.1773L189.689 77.8335L189.805 78.554L189.921 77.692L190.038 79.03L190.154 75.967L190.268 81.0343L190.385 82.5295L190.501 84.2683L190.617 85.2405L190.732 84.2934L190.848 83.0073L190.964 88.1175L191.079 89.5199L191.195 85.9192L191.311 84.0021L191.426 84.4203L191.542 81.1397L191.658 77.3591L191.775 83.238L191.889 84.913L192.005 82.0909L192.122 86.8883L192.238 84.4002L192.354 84.2489L192.469 82.6063L192.585 78.7684L192.701 80.1109L192.816 75.2235L192.932 78.9474L193.048 71.9573L193.163 69.1923L193.279 65.9761L193.395 78.0465L193.512 81.0211L193.626 76.9587L193.742 77.443L193.859 78.8558L193.975 78.6632L194.089 78.3987L194.206 82.8315L194.322 86.742L194.438 81.0219L194.553 81.7952L194.669 78.4046L194.785 79.7191L194.9 80.0502L195.016 82.263L195.133 82.7618L195.247 80.3322L195.363 81.9038L195.48 80.9903L195.596 75.9814L195.712 80.5716L195.827 82.3491L195.943 81.072L196.059 75.9377L196.174 74.1309L196.29 76.3839L196.406 76.9341L196.521 74.1653L196.637 76.8064L196.753 80.1039L196.87 75.5483L196.984 74.8084L197.1 73.2122L197.217 66.3051L197.333 70.3896L197.449 67.4228L197.564 72.1649L197.68 71.194L197.796 69.2829L197.911 73.2842L198.027 74.2668L198.143 76.2396L198.258 80.0805L198.374 82.7015L198.49 77.594L198.605 76.0093L198.721 74.5847L198.837 76.7136L198.954 78.1358L199.07 82.4168L199.184 82.4421L199.301 77.0751L199.417 76.5797L199.533 76.3953L199.648 76.562L199.764 72.1215L199.88 52.647L199.995 56.4897L200.111 68.1121L200.227 67.6038L200.342 64.0684L200.458 65.5851L200.574 65.2066L200.691 78.6146L200.807 76.7985L200.921 70.867L201.038 73.8919L201.154 73.2212L201.27 75.7607L201.385 73.8873L201.501 76.7723L201.617 77.9947L201.732 75.148L201.848 73.3962L201.964 74.2187L202.079 76.4917L202.195 78.4649L202.311 77.9574L202.428 80.1331L202.542 61.2017L202.658 74.9994L202.775 47.4383L202.891 9.61055L203.007 74.0778L203.122 74.559L203.238 77.3876L203.354 75.3528L203.469 75.6417L203.585 76.9034L203.701 75.1326L203.816 71.9107L203.932 73.798L204.048 76.5686L204.165 73.0343L204.279 74.5402L204.395 73.718L204.512 76.236L204.628 72.9572L204.742 75.1375L204.859 77.809L204.975 73.8132L205.09 74.289L205.206 74.6022L205.322 73.8852L205.438 73.34L205.553 76.1633L205.669 75.9922L205.786 73.3187L205.9 71.1125L206.016 74.4217L206.133 72.7075L206.249 74.3133L206.365 69.0977L206.48 67.9451L206.596 70.7177L206.712 72.0567L206.827 72.2499L206.943 73.9425L207.059 72.1583L207.174 75.3795L207.29 76.0075L207.406 72.2316L207.523 72.2382L207.637 71.1187L207.753 71.1197L207.87 67.9689L207.986 69.8084L208.1 68.9546L208.217 63.4356L208.333 61.6418L208.449 67.1163L208.564 70.0714L208.68 68.1225L208.796 69.8637L208.911 70.6736L209.027 68.9191L209.143 68.1111L209.258 68.2975L209.374 66.2642L209.49 66.6553L209.607 70.053L209.723 73.8408L209.837 67.0063L209.954 66.3708L210.07 63.7918L210.186 65.0051L210.301 67.9089L210.417 71.2042L210.533 68.9791L210.648 61.5999L210.764 64.0087L210.88 68.0884L210.995 70.1431L211.111 67.2888L211.227 65.7711L211.344 63.5379L211.458 60.6173L211.574 61.5701L211.691 62.1504L211.807 62.5671L211.923 60.8127L212.038 60.3094L212.154 62.3131L212.27 58.023L212.385 60.3013L212.501 60.9704L212.617 59.1519L212.732 56.6998L212.848 58.3252L212.964 61.9981L213.081 58.5611L213.195 60.4107L213.311 59.9011L213.428 59.5543L213.544 55.8331L213.66 57.3728L213.775 53.3526L213.891 49.4934L214.007 51.7685L214.122 52.2928L214.238 52.9705L214.354 54.3546L214.469 57.3377L214.585 56.8123L214.702 53.507L214.816 49.6382L214.932 51.4883L215.048 51.0868L215.165 48.1314L215.281 54.4833L215.395 51.7129L215.512 46.9492L215.628 50.9016L215.743 49.427L215.859 50.5626L215.975 48.7393L216.09 46.6715L216.206 45.7298L216.322 40.431L216.439 38.2696L216.553 36.801L216.669 37.7032L216.786 42.9703L216.902 44.194L217.018 48.7082L217.133 48.0146L217.249 47.9414L217.365 45.3094L217.48 39.0021L217.596 38.6414L217.712 40.8678L217.827 39.3882L217.943 37.6323L218.059 38.037L218.176 39.3541L218.29 38.9186L218.406 36.7559L218.523 38.26L218.639 38.8372L218.753 41.0649L218.87 40.6825L218.986 41.5784L219.102 43.8615L219.217 44.9044L219.333 45.7027L219.449 47.9133L219.564 44.4707L219.68 41.8723L219.796 39.7169L219.911 46.059L220.027 47.1295L220.143 47.5355L220.26 46.7397L220.376 41.8905L220.49 40.636L220.607 42.5713L220.723 43.9382L220.839 42.545L220.954 44.6406L221.07 44.9755L221.186 40.908L221.301 40.6635L221.417 42.1728L221.533 41.1845L221.648 44.1786L221.764 45.1908L221.88 45.5967L221.997 38.0026L222.111 39.6662L222.227 37.4503L222.344 38.9232L222.46 42.0971L222.576 46.4575L222.691 47.2676L222.807 42.2333L222.923 41.0957L223.038 40.1376L223.154 39.1188L223.27 41.6948L223.385 41.2287L223.501 43.0516L223.617 41.485L223.734 39.0959L223.848 44.8729L223.964 43.636L224.081 42.0942L224.197 44.2773L224.312 47.8234L224.428 42.332L224.544 40.3991L224.66 45.792L224.775 43.34L224.891 41.8336L225.007 47.4425L225.122 45.98L225.238 42.9116L225.355 41.0071L225.469 47.326L225.585 44.3794L225.702 44.4779L225.818 43.0201L225.934 44.9779L226.048 42.3158L226.165 43.6475L226.281 45.2115L226.396 47.3969L226.512 49.1375L226.628 54.094L226.743 55.1412L226.859 45.8799L226.975 46.8512L227.092 46.306L227.206 44.7656L227.322 44.0006L227.439 48.1404L227.555 46.0387L227.671 43.0145L227.786 43.1745L227.902 41.9311L228.018 43.9412L228.133 44.7835L228.249 46.7049L228.365 46.8749L228.48 40.7453L228.596 39.7499L228.712 39.8427L228.827 42.4493L228.943 42.506L229.059 44.6802L229.176 43.031L229.292 41.8209L229.406 42.029L229.523 41.7644L229.639 45.3789L229.755 43.7133L229.87 44.1984L229.986 45.8655L230.102 41.4699L230.217 42.9369L230.333 42.229L230.449 42.9013L230.564 43.8731L230.68 42.2207L230.796 47.6084L230.913 52.9876L231.029 48.5239L231.143 47.7903L231.26 50.7143L231.376 50.2818L231.492 48.9457L231.607 49.8803L231.723 54.4873L231.839 50.8093L231.954 51.1194L232.07 47.3635L232.186 48.2204L232.301 47.8601L232.417 47.5931L232.533 43.8208L232.65 48.1008L232.764 49.0484L232.88 50.4978L232.997 51.2875L233.113 48.0569L233.229 47.761L233.344 45.203L233.46 47.2879L233.576 46.5141L233.691 45.534L233.807 47.0777L233.923 48.5229L234.038 44.7662L234.154 45.5029L234.27 46.6464L234.387 47.0545L234.501 48.4358L234.617 47.878L234.734 49.1873L234.85 48.4187L234.965 48.8962L235.081 47.7577L235.197 48.513L235.312 48.4657L235.428 46.9661L235.544 47.702L235.66 47.4157L235.775 48.6677L235.891 50.9669L236.008 48.3742L236.122 46.9549L236.238 48.2584L236.355 48.6348L236.471 50.0558L236.587 51.3106L236.702 55.8434L236.818 51.2361L236.934 51.56L237.049 52.6435L237.165 53.9104L237.281 53.2614L237.396 51.3669L237.512 51.7574L237.628 49.6213L237.745 49.6071L237.859 50.0199L237.975 53.3622L238.092 49.3448L238.208 48.153L238.324 47.2602L238.439 47.6204L238.555 48.7906L238.671 48.2398L238.786 49.7499L238.902 48.4324L239.018 47.5978L239.133 47.8487L239.249 50.6289L239.365 51.1487L239.48 47.5409L239.596 49.5707L239.712 52.3361L239.829 47.0838L239.945 46.9478L240.059 47.0216L240.176 48.4793L240.292 49.4521L240.408 49.068L240.523 50.6332L240.639 46.9667L240.755 46.5494L240.87 46.0742L240.986 44.9683L241.102 46.0082L241.217 47.9529L241.333 49.2377L241.449 47.0886L241.566 44.5732L241.682 44.9458L241.796 46.371L241.913 46.4813L242.029 47.5L242.145 47.943L242.26 44.5702L242.376 43.9186L242.492 42.5845L242.607 45.3525L242.723 44.8362L242.839 43.4111L242.954 42.9232L243.07 43.7365L243.186 42.2089L243.303 37.6046L243.417 33.0088L243.533 32.707L243.65 42.9888L243.766 41.187L243.882 36.3565L243.997 36.6413L244.113 34.5898L244.229 32.467L244.344 32.2619L244.46 35.3902L244.576 35.5547L244.691 35.0196L244.807 32.0617L244.923 32.6991L245.04 32.9083L245.154 32.4404L245.27 31.4902L245.387 31.6628L245.503 31.1267L245.618 36.2821L245.734 35.3544L245.85 33.1128L245.965 34.7837L246.081 32.6307L246.197 35.7398L246.312 32.061L246.428 32.1421L246.544 34.2536L246.661 34.558L246.775 36.0156L246.891 39.4521L247.008 36.7581L247.124 34.7644L247.24 35.6585L247.355 35.6912L247.471 41.0167L247.587 14.2139L247.702 34.8981L247.818 34.4161L247.934 37.6584L248.049 39.6591L248.165 37.1507L248.281 36.7379L248.398 37.3766L248.512 44.3062L248.628 45.2223L248.745 36.7562L248.861 36.3843L248.977 39.5253L249.092 39.1082L249.208 38.1798L249.324 40.6491L249.439 45.1415L249.555 40.9819L249.671 36.6524L249.786 37.748L249.902 35.9564L250.018 38.3397L250.133 44.3283L250.249 43.7918L250.365 38.1845L250.482 34.2926L250.598 36.8202L250.712 40.1035L250.829 38.236L250.945 40.6022L251.061 48.7664L251.176 41.1045L251.292 37.939L251.408 41.5506L251.523 41.0675L251.639 40.3493L251.755 42.2659L251.87 42.6848L251.986 41.5317L252.102 29.7072L252.219 32.3425L252.335 33.5696L252.449 31.7302L252.566 34.891L252.682 39.739L252.798 36.4695L252.913 38.5927L253.029 39.1395L253.145 37.6082L253.26 44.1767L253.376 41.9777L253.492 41.4562L253.607 41.7623L253.723 40.0868L253.839 40.0826L253.956 44.7851L254.07 43.7394L254.186 40.706L254.303 46.9083L254.419 37.5451L254.535 48.427L254.65 50.2497L254.766 43.408L254.882 42.6771L254.997 45.225L255.113 48.088L255.229 46.776L255.344 51.1948L255.46 47.6696L255.577 53.4286L255.693 52.2249L255.807 51.7363L255.923 51.995L256.04 53.2195L256.155 55.3028L256.272 50.5783L256.387 51.322L256.503 55.2263L256.618 54.9814L256.734 58.6323L256.849 52.5732L256.966 48.8152L257.082 49.4535L257.198 46.4307L257.314 45.4509L257.428 51.1527L257.544 51.3001L257.66 52.7661L257.776 57.7047L257.892 61.7458L258.008 60.4233L258.124 66.3758L258.24 66.7637L258.355 66.9575L258.471 63.1604L258.586 63.2276L258.703 63.7311L258.819 61.3091L258.935 68.6167L259.051 69.9855L259.165 68.3705L259.281 64.0967L259.397 56.4702L259.513 59.831L259.629 61.5666L259.745 56.698L259.861 55.6508L259.977 58.0938L260.092 58.9873L260.207 54.6494L260.323 56.5014L260.44 51.9036L260.556 51.6808L260.672 60.8528L260.786 59.1875L260.902 57.0317L261.018 59.3354L261.134 56.343L261.25 62.1203L261.366 60.6472L261.482 62.7848L261.598 64.0416L261.714 66.0635L261.829 67.0786L261.944 64.0552L262.06 65.6919L262.177 62.8749L262.293 63.5801L262.409 65.2248L262.523 66.0958L262.639 61.2045L262.755 61.7213L262.871 53.734L262.987 59.5819L263.103 59.6209L263.219 60.522L263.335 57.7759L263.451 53.8926L263.565 57.2364L263.681 55.8325L263.797 52.7985L263.914 57.9837L264.03 59.0136L264.145 55.9354L264.26 52.294L264.376 49.8659L264.492 53.0561L264.608 52.8875L264.724 54.7096L264.84 49.156L264.956 47.6098L265.072 42.95L265.188 41.2552L265.302 37.4267L265.418 38.6715L265.534 38.4315L265.651 41.4817L265.767 43.8543L265.882 39.8354L265.997 37.1256L266.113 37.9636L266.229 43.6989L266.345 46.0805L266.461 43.4037L266.577 42.3769L266.693 44.5953L266.809 42.8101L266.923 43.0995L267.039 40.3602L267.155 47.6619L267.272 47.9207L267.388 49.5091L267.503 46.2434L267.618 49.5976L267.734 46.5678L267.85 50.7679L267.966 52.7243L268.082 46.1685L268.198 55.1183L268.314 50.6441L268.43 44.1112L268.546 43.424L268.66 43.2683L268.776 52.5148L268.892 58.2182L269.009 55.389L269.125 51.7399L269.24 56.0963L269.355 48.0225L269.471 49.0666L269.587 47.5131L269.703 59.363L269.819 51.8421L269.935 54.3701L270.051 54.0869L270.167 53.7801L270.283 53.3164L270.397 58.1001L270.513 60.9624L270.629 57.1522L270.746 57.1946L270.861 54.1966L270.977 62.9384L271.092 60.0141L271.208 60.9337L271.324 57.8998L271.44 55.9192L271.556 56.7067L271.672 57.356L271.788 55.2052L271.904 49.1197L272.018 44.2529L272.134 54.884L272.25 56.4557L272.366 57.2019L272.483 53.8076L272.598 58.1002L272.714 56.6794L272.829 65.5071L272.945 66.0004L273.061 61.5692L273.177 63.6041L273.293 59.8286L273.409 60.0687L273.525 62.6919L273.641 67.1655L273.755 76.76L273.871 62.1968L273.987 60.545L274.103 62.3602L274.219 65.506L274.335 65.8963L274.451 69.8186L274.566 70.5924L274.682 65.2827L274.797 65.9035L274.914 64.6071L275.03 63.5164L275.146 57.2447L275.262 54.0724L275.376 64.9697L275.492 60.7409L275.608 67.3296L275.724 65.8793L275.841 69.6807L275.956 68.3211L276.072 72.0612L276.188 71.8579L276.303 70.3218L276.419 70.7962L276.534 71.1955L276.651 71.698L276.767 67.2045L276.883 67.6059L276.999 66.5128L277.113 63.9368L277.229 62.6095L277.345 59.6587L277.461 61.8589L277.577 58.4314L277.693 60.9723L277.809 63.6542L277.924 64.7876L278.04 62.4748L278.155 65.0629L278.272 64.3138L278.388 67.2327L278.504 69.9024L278.62 68.4173L278.734 71.1426L278.85 66.0801L278.966 68.3376L279.082 52.7933L279.198 67.2583L279.314 67.7852L279.43 66.6223L279.546 63.6566L279.661 60.0837L279.777 62.104L279.892 62.0573L280.009 60.7206L280.125 63.771L280.241 64.136L280.357 59.6285L280.471 56.3137L280.587 54.951L280.703 51.8767L280.819 61.2229L280.935 63.0411L281.051 63.5417L281.167 59.3139L281.283 57.557L281.398 53.2788L281.513 55.9388L281.629 57.6321L281.746 54.0937L281.862 60.1798L281.978 58.8908L282.092 59.7284L282.208 57.7809L282.324 58.4051L282.44 59.6365L282.556 58.2435L282.672 59.449L282.788 48.9664L282.904 48.6391L283.02 51.6104L283.135 54.4964L283.25 54.3444L283.366 52.361L283.483 57.9194L283.599 59.2904L283.715 60.2417L283.829 59.2126L283.945 65.6787L284.061 66.4997L284.177 63.8842L284.293 68.8712L284.409 60.0826L284.525 63.8158L284.641 65.3519L284.757 65.6237L284.871 63.8775L284.987 68.3816L285.103 64.2258L285.22 60.5666L285.336 65.9988L285.451 67.0418L285.566 66.2259L285.682 64.0302L285.798 66.9252L285.914 67.6219L286.03 62.9788L286.146 63.359L286.262 66.2488L286.378 63.1191L286.493 58.3026L286.608 58.4716L286.724 71.1021L286.841 69.3035L286.957 73.0488L287.073 66.0212L287.188 64.3863L287.303 68.6388L287.419 67.3768L287.535 57.5914L287.651 56.2538L287.767 55.3759L287.883 45.4447L287.999 45.7275L288.115 51.6495L288.229 53.1571L288.345 58.8819L288.461 61.6941L288.578 69.6394L288.694 65.0716L288.809 65.9198L288.924 71.0937L289.04 76.9793L289.156 76.91L289.272 68.6789L289.388 72.556L289.504 72.4691L289.62 73.4303L289.736 72.4751L289.852 72.6891L289.966 76.7639L290.082 74.8403L290.198 76.3242L290.315 74.5896L290.431 83.4229L290.546 82.4633L290.661 85.5928L290.777 86.1394L290.893 79.4514L291.009 77.1572L291.125 82.0802L291.241 82.1145L291.357 76.804L291.473 74.2126L291.587 70.3613L291.703 55.5993L291.819 62.1609L291.935 60.3691L292.052 68.6936L292.167 73.2062L292.283 66.1017L292.398 68.3769L292.514 67.6926L292.63 71.903L292.746 73.0158L292.862 74.4233L292.978 72.9611L293.094 78.5067L293.21 81.2795L293.324 78.9026L293.44 74.6961L293.556 74.3576L293.672 71.6347L293.789 65.6802L293.904 69.07L294.02 75.6745L294.135 70.8431L294.251 68.7771L294.367 69.3095L294.483 68.7277L294.599 69.825L294.715 70.8979L294.831 75.4033L294.945 66.56L295.061 67.0822L295.177 63.7084L295.293 66.3606L295.409 69.2999L295.525 57.194L295.641 74.0984L295.757 60.7521L295.872 55.6091L295.988 59.9957L296.103 63.1642L296.22 61.5575L296.336 67.9465L296.452 63.7047L296.568 63.9162L296.682 63.1773L296.798 58.2165L296.914 59.3068L297.03 58.1212L297.147 59.9662L297.262 62.0674L297.378 58.6806L297.493 58.0797L297.609 59.8619L297.725 65.5273L297.841 62.7671L297.957 65.3382L298.073 66.7134L298.189 60.6135L298.303 62.5956L298.419 62.871L298.535 61.6201L298.651 63.472L298.767 60.8498L298.883 60.2238L298.999 60.5972L299.115 63.8262L299.23 62.1632L299.346 66.3299L299.461 59.4436L299.578 67.5769L299.694 54.5415L299.81 65.0753L299.926 64.0552L300.04 58.6011L300.156 49.6852L300.272 59.5172L300.388 58.6243L300.504 67.6534L300.62 63.2575L300.736 61.2764L300.852 66.0057L300.967 62.695L301.083 64.1106L301.198 54.6806L301.315 71.5752L301.431 51.4478L301.547 55.936L301.663 62.6407L301.777 53.8303L301.893 65.0248L302.009 68.4656L302.125 66.0913L302.241 64.7357L302.357 54.3047L302.473 63.2109L302.589 56.7237L302.704 55.6263L302.819 58.8228L302.935 52.9398L303.052 43.9783L303.168 35.1634L303.284 46.5135L303.398 49.7925L303.514 48.2167L303.63 39.0399L303.746 48.0843L303.862 28.9319L303.978 42.8009L304.094 37.8378L304.21 39.4112L304.326 56.8249L304.441 55.2112L304.556 54.7479L304.672 61.8664L304.789 51.853L304.905 50.7761L305.021 50.9985L305.135 56.3121L305.251 63.8559L305.367 77.0273L305.483 57.4941L305.599 52.2079L305.715 59.9926L305.831 52.8205L305.947 56.3047L306.062 59.9975L306.177 56.4157L306.293 46.0594L306.409 51.3006L306.526 53.2191L306.642 46.2292L306.757 49.0992L306.872 61.1266L306.988 55.8985L307.104 51.946L307.22 49.2594L307.336 49.1444L307.452 48.9577L307.568 53.4787L307.684 46.565L307.799 52.2945L307.914 54.6505L308.03 51.3064L308.147 52.0865L308.263 52.4303L308.379 52.5927L308.493 47.1962L308.609 60.0454L308.725 42.8484L308.841 38.7226L308.957 30.4463L309.073 31.369L309.189 38.0791L309.305 52.2625L309.421 41.0457L309.535 38.7316L309.651 45.8721L309.767 50.9497L309.884 50.2601L310 55.1103L310.115 62.3451L310.23 48.9474L310.346 47.3966L310.462 47.9964L310.578 28.0776L310.694 46.9849L310.81 54.0889L310.926 51.8188L311.042 57.5763L311.158 48.991L311.272 49.1624L311.388 46.3624L311.504 51.6725L311.621 54.5852L311.737 60.5149L311.852 58.5113L311.967 53.8371L312.083 51.7849L312.199 55.1022L312.315 55.5083L312.431 51.9301L312.547 51.4319L312.663 56.3374L312.779 43.4292L312.893 38.1927L313.009 46.9815L313.125 44.8177L313.241 43.6183L313.358 51.2518L313.473 53.9152L313.589 48.9657L313.704 47.8495L313.82 50.5187L313.936 51.5619L314.052 54.0389L314.168 55.8923L314.284 61.1515L314.4 52.0214L314.516 54.216L314.63 54.7986L314.746 56.5342L314.862 56.2492L314.978 59.1701L315.095 61.4633L315.21 54.3527L315.326 52.995L315.441 45.1915L315.557 48.7622L315.672 45.5078L315.789 49.5556L315.905 57.5707L316.021 39.7557L316.137 41.1074L316.251 44.526L316.367 40.563L316.483 46.2272L316.599 37.2457L316.716 43.5653L316.831 38.1263L316.947 41.2341L317.062 30.9702" stroke="#CED4DA" stroke-width="0.6" stroke-linecap="round" stroke-linejoin="round"/>
</g>
</g>
</g>
<defs>
<clipPath id="clip0_190_6429">
<rect width="318" height="110" fill="white" transform="translate(0.0625 0.898438)"/>
</clipPath>
<clipPath id="clip1_190_6429">
<rect width="318" height="110" fill="white" transform="translate(0.0625 0.898438)"/>
</clipPath>
<clipPath id="clip2_190_6429">
<rect width="318" height="110" fill="white" transform="translate(0.0625 0.898438)"/>
</clipPath>
</defs>
</svg>
