<svg width="319" height="107" viewBox="0 0 319 107" fill="none" xmlns="http://www.w3.org/2000/svg">
<g opacity="0.5" clip-path="url(#clip0_190_28939)">
<g clip-path="url(#clip1_190_28939)">
<g clip-path="url(#clip2_190_28939)">
<path d="M1.0625 105.59H1.76162L1.86149 105.577L1.96136 105.561L2.06124 105.578L2.16111 105.575L2.26098 105.583L2.36086 105.573L2.46073 105.576L2.5606 105.578L2.66048 105.582L2.76035 105.583L2.86022 105.587H2.9601L3.05997 105.582L3.15985 105.576L3.25972 105.578L3.35959 105.583L3.45947 105.565L3.55934 105.587L3.65921 105.575L3.75909 105.573L3.85896 105.582L3.95883 105.576L4.15858 105.58L4.25845 105.578L4.35833 105.575L4.4582 105.576L4.55808 105.575L4.65795 105.574L4.75782 105.571L4.8577 105.578L4.95757 105.56L5.05744 105.583L5.15732 105.58L5.25719 105.585L5.35706 105.582L5.45694 105.574L5.55681 105.573L5.65668 105.576L5.75656 105.582L5.85643 105.58H5.95631L6.05618 105.563L6.15605 105.57L6.25593 105.566H6.3558L6.55555 105.576L6.65542 105.571H6.75529L6.85517 105.588L6.95504 105.579L7.05491 105.582L7.15479 105.581L7.25466 105.576L7.35454 105.583L7.45441 105.586H7.55428L7.65416 105.588L7.75403 105.57L7.8539 105.583L7.95378 105.582L8.05365 105.583L8.15352 105.585L8.2534 105.586L8.35327 105.585L8.45314 105.565L8.55302 105.57L8.65289 105.568L8.75277 105.561L8.85264 105.572L8.95251 105.567L9.05239 105.575L9.15226 105.569L9.25213 105.572L9.35201 105.581L9.45188 105.561L9.55175 105.543L9.65163 105.541L9.7515 105.531L9.85137 105.574L9.95125 105.553L10.0511 105.571L10.151 105.573L10.2509 105.552L10.3507 105.568L10.4506 105.58L10.5505 105.576L10.6504 105.573L10.7502 105.577L10.8501 105.568L10.95 105.569L11.0499 105.534L11.1497 105.561L11.2496 105.572L11.3495 105.555L11.4494 105.573L11.5492 105.577L11.6491 105.566L11.749 105.581L11.8488 105.578L11.9487 105.576L12.0486 105.578L12.1485 105.573L12.2483 105.574L12.3482 105.582L12.4481 105.574L12.548 105.578L12.6478 105.569L12.7477 105.573L12.8476 105.581L12.9475 105.584L13.0473 105.586L13.2471 105.581L13.3469 105.582L13.4468 105.573L13.5467 105.576L13.6466 105.577L13.7464 105.56L13.8463 105.567L13.9462 105.529L14.0461 105.57L14.1459 105.575H14.2458L14.3457 105.568L14.4456 105.569L14.5454 105.576L14.6453 105.554L14.7452 105.562L14.8451 105.576L14.9449 105.577L15.0448 105.549L15.1447 105.547L15.2445 105.586L15.3444 105.58L15.4443 105.566L15.5442 105.581L15.644 105.578L15.7439 105.584L15.8438 105.58L15.9437 105.574L16.0435 105.582L16.1434 105.568L16.2433 105.56L16.3432 105.568L16.443 105.57L16.5429 105.576L16.6428 105.579L16.7427 105.583L16.8425 105.568H16.9424L17.0423 105.56L17.1421 105.568L17.242 105.575L17.3419 105.547L17.4418 105.561L17.5416 105.568L17.6415 105.57L17.7414 105.574L17.8413 105.572L17.9411 105.568L18.041 105.57L18.1409 105.571L18.2408 105.573L18.3406 105.572L18.4405 105.563L18.5404 105.548L18.6402 105.549L18.7401 105.556L18.84 105.554L18.9399 105.558L19.0397 105.562L19.1396 105.548L19.2395 105.558H19.3394L19.4392 105.56L19.5391 105.552L19.639 105.555L19.7389 105.567L19.8387 105.564L19.9386 105.548L20.0385 105.544L20.1384 105.555L20.2382 105.573L20.3381 105.539L20.438 105.561L20.5378 105.565L20.6377 105.445L20.7376 105.548L20.8375 105.555L20.9373 105.566L21.0372 105.562L21.1371 105.551L21.237 105.552L21.3368 105.554L21.4367 105.345L21.5366 105.567L21.6365 105.531L21.7363 105.549L21.8362 105.536L21.9361 105.561L22.036 105.547L22.1358 105.318L22.2357 105.556L22.3356 105.544L22.4354 105.504L22.5353 105.542L22.6352 105.556L22.7351 105.553L22.8349 105.537L22.9348 105.524L23.0347 105.543L23.1346 105.55L23.2344 105.526L23.3343 105.516L23.4342 105.552L23.5341 105.555L23.6339 105.548L23.7338 105.543L23.8337 105.519L23.9335 105.526L24.0334 105.531L24.1333 105.552L24.2332 105.546L24.333 105.56L24.4329 105.53L24.5328 105.514L24.6327 105.54L24.7325 105.499L24.8324 105.492L24.9323 105.548L25.0322 105.543L25.132 105.555L25.2319 105.541L25.3318 105.509L25.4317 105.342L25.5315 105.252L25.6314 105.537L25.7313 105.507L25.8311 105.543L25.931 105.542L26.0309 105.534L26.1308 105.546L26.2306 105.531L26.3305 105.544L26.4304 105.559L26.5303 105.556L26.6301 105.546L26.73 105.554L26.8299 105.56H26.9298H27.0296L27.1295 105.565L27.2294 105.567L27.3293 105.563L27.4291 105.568L27.529 105.546L27.6289 105.198L27.7287 105.549L27.8286 105.554H27.9285L28.0284 105.543L28.1282 105.551L28.2281 105.556L28.328 105.549L28.4279 105.555L28.5277 105.535L28.6276 105.146L28.7275 105.548L28.8274 105.539L28.9272 105.524L29.0271 105.526L29.127 105.513L29.2268 105.539L29.3267 105.545L29.4266 105.53L29.5265 105.539L29.6263 105.457L29.7262 105.496L29.8261 105.429L29.926 105.542L30.0258 105.55L30.1257 105.475L30.2256 105.47L30.3255 105.471L30.4253 105.513L30.5252 105.474L30.6251 104.853L30.725 105.398L30.8248 105.521L30.9247 105.534L31.0246 105.516L31.1244 105.461L31.2243 105.399L31.3242 104.835L31.4241 105.27L31.5239 105.471L31.6238 105.48L31.7237 105.447L31.8236 105.479L31.9234 105.519L32.0233 105.517L32.1232 105.496L32.2231 105.397L32.3229 105.48L32.4228 105.442L32.5227 105.363L32.6225 105.254L32.7224 105.218L32.8223 105.237L32.9222 104.707L33.022 105.156L33.1219 105.421L33.2218 104.606L33.3217 102.932L33.4215 101.604L33.5214 104.413L33.6213 104.404L33.7212 104.943L33.821 104.582L33.9209 105.023L34.0208 104.877L34.1207 105.279L34.2205 105.233L34.3204 105.217L34.4203 105.15L34.5201 105.176L34.62 105.392L34.7199 105.079L34.8198 105.393L34.9196 105.132L35.0195 105.305L35.1194 105.105L35.2193 105.262L35.3191 105.288L35.419 105.227L35.5189 104.836L35.6188 105.181L35.7186 105.423L35.8185 105.045L35.9184 105.299L36.0182 105.213L36.1181 105.068L36.218 105.348L36.3179 105.48L36.4177 105.423L36.5176 105.259L36.6175 104.512L36.7174 105.25L36.8172 105.02L36.9171 105.188L37.017 105.498L37.1169 105.274L37.2167 105.281L37.3166 104.973L37.4165 105.358L37.5164 105.424L37.6162 105.501L37.7161 105.512L37.816 105.48L37.9158 105.462L38.0157 105.46L38.1156 105.477L38.2155 105.486L38.3153 105.532L38.4152 105.514L38.5151 105.367L38.615 105.414L38.7148 105.308L38.8147 105.442L38.9146 105.404L39.0145 105.488L39.1143 105.56L39.2142 105.541L39.3141 105.527L39.414 105.513L39.5138 105.521L39.6137 105.545L39.7136 105.541L39.8134 105.466L39.9133 105.514L40.0132 105.348L40.1131 105.521L40.2129 105.526L40.3128 105.555L40.4127 105.559L40.5126 105.571L40.6124 105.551L40.7123 105.533L40.8122 105.516L40.9121 105.446L41.0119 105.49L41.1118 105.541L41.2117 105.489L41.3116 105.468L41.4114 105.484L41.5113 105.517L41.6112 105.524L41.711 105.414L41.8109 105.47L41.9108 105.556L42.0107 105.249L42.1105 105.538L42.2104 105.494L42.3103 105.516L42.4102 105.494L42.51 105.557L42.6099 105.518L42.7098 105.569L42.8097 105.526L42.9095 105.477L43.0094 105.547L43.1093 105.576L43.2091 105.532L43.309 105.545L43.4089 105.555L43.5088 105.542L43.6086 105.53L43.7085 105.392L43.8084 105.476L43.9083 105.56L44.0081 105.503L44.108 105.336L44.2079 96.8693L44.3078 105.252L44.4076 105.224L44.5075 105.505L44.6074 105.357L44.7073 105.311L44.8071 105.114L44.907 104.003L45.0069 102.907L45.1067 99.882L45.2066 101.325L45.3065 104.731L45.4064 104.181L45.5062 104.294L45.6061 104.368L45.706 105.48L45.8059 105.547L45.9057 105.572L46.0056 105.488L46.1055 105.568L46.2054 105.542L46.3052 105.178L46.4051 105.448L46.505 105.509L46.6049 105.416L46.7047 105.561L46.8046 105.515L46.9045 105.531L47.0043 105.386L47.1042 105.554L47.2041 105.559L47.304 105.564L47.4038 105.555L47.5037 105.554L47.6036 105.561L47.7035 105.531L47.8033 105.521L47.9032 105.415L48.0031 105.531L48.103 105.549L48.2028 105.527L48.3027 105.468L48.4026 105.513L48.5024 105.474L48.6023 105.545L48.7022 105.502L48.8021 105.56L48.9019 105.5L49.0018 105.367L49.1017 105.544L49.2016 105.546L49.3014 105.385L49.4013 102.932L49.5012 104.99L49.6011 105.171L49.7009 105.545L49.8008 105.531L49.9007 105.537L50.0006 105.527L50.1004 105.326L50.2003 104.681L50.3002 104.606L50.4 104.399L50.4999 105.425L50.5998 105.504L50.6997 105.528L50.7995 105.477L50.8994 105.083L50.9993 105.443L51.0992 105.509L51.199 105.52L51.2989 105.531L51.3988 105.55L51.4987 105.546L51.5985 105.26L51.6984 105.518L51.7983 105.366L51.8982 105.497L51.998 105.52L52.0979 105.545L52.1978 105.552H52.2976L52.3975 105.565L52.4974 105.548L52.5973 105.484L52.6971 105.522L52.797 105.457L52.8969 105.487L52.9968 105.415L53.0966 105.519L53.1965 105.496L53.2964 105.526L53.3963 105.459L53.4961 105.51L53.596 105.442L53.6959 105.475L53.7957 105.499L53.8956 105.481L53.9955 105.506L54.0954 105.505L54.1952 105.293L54.2951 105.183L54.395 105.278L54.4949 105.493L54.5947 105.553L54.6946 105.505L54.7945 105.465L54.8944 105.519L54.9942 105.414L55.0941 105.548L55.194 105.547L55.2938 105.458L55.3937 105.514L55.4936 105.516L55.5935 105.39L55.6933 105.485L55.7932 105.407L55.8931 105.527L55.993 105.387L56.0928 105.551L56.1927 105.468L56.2926 105.499L56.3925 105.519L56.4923 105.463L56.5922 105.529L56.6921 105.533L56.792 105.443L56.8918 105.32L56.9917 105.527L57.0916 105.524L57.1914 105.49L57.2913 105.384L57.3912 105.489L57.4911 105.486L57.5909 105.46L57.6908 105.524L57.7907 105.497L57.8906 105.216L57.9904 105.496L58.0903 105.477L58.1902 105.198L58.2901 105.405L58.3899 105.463L58.4898 105.503L58.5897 105.546L58.6896 105.535L58.7894 105.5L58.8893 105.508L58.9892 105.122L59.089 105.433L59.1889 105.391L59.2888 105.546L59.3887 105.366L59.4885 105.544L59.5884 105.549L59.6883 105.529L59.7882 105.507L59.888 105.178L59.9879 105.53L60.0878 105.526L60.1877 105.389L60.2875 105.199L60.3874 105.171L60.4873 105.014L60.5872 105.424L60.687 105.497L60.7869 105.499L60.8868 105.433L60.9866 105.406L61.0865 105.321L61.1864 105.379L61.2863 105.191L61.3861 105.489L61.486 105.484L61.5859 104.386L61.6858 105.386L61.7856 105.444L61.8855 105.269H61.9854L62.0853 105.35L62.1851 105.375L62.285 105.249L62.3849 105.201L62.4847 104.982L62.5846 105.171L62.6845 105.233L62.7844 105.203L62.8842 105.316L62.9841 105.323L63.084 105.467L63.1839 104.317L63.2837 105.495L63.3836 105.293L63.4835 105.427L63.5834 105.47L63.6832 105.312L63.7831 105.131L63.883 105.194L63.9828 104.952L64.0827 103.646L64.1826 104.805L64.2825 105.357L64.3823 104.92L64.4822 105.185L64.5821 104.531L64.682 104.163L64.7818 105.135L64.8817 105.276L64.9816 105.115L65.0815 104.527L65.1813 104.329L65.2812 105.338L65.3811 104.64L65.481 105.141L65.5808 104.318L65.6807 103.763L65.7806 104.74L65.8804 103.762L65.9803 103.409L66.0802 104.08L66.1801 104.112L66.2799 104.124L66.3798 104.13L66.4797 103.614L66.5796 103.21L66.6794 103.593L66.7793 103.352L66.8792 103.003L66.9791 102.861L67.0789 103.248L67.1788 102.809L67.2787 100.778L67.3786 100.181L67.4784 101.754L67.5783 102.208L67.6782 102.632L67.7781 102.444L67.8779 102.521L67.9778 99.326L68.0777 102.567L68.1775 102.146L68.2774 99.8094L68.3773 102.067L68.4772 101.223L68.577 102.612L68.6769 101.452L68.7768 100.45L68.8767 102.145L68.9765 102.203L69.0764 102.717L69.1763 99.8264L69.2761 101.856L69.376 102.02L69.4759 102.084L69.5758 102.186L69.6756 102.11L69.7755 102.66L69.8754 101.288L69.9753 100.667L70.0751 103.662L70.175 104.38L70.2749 100.814L70.3748 101.15L70.4746 101.921L70.5745 100.129L70.6744 102.798L70.7743 103.482L70.8741 101.085L70.974 101.066L71.0739 99.9842L71.1738 102.471L71.2736 102.657L71.3735 99.522L71.4734 101.889L71.5732 100.69L71.6731 103.413L71.773 101.981L71.8729 100.585L71.9727 101.816L72.0726 104.153L72.1725 103.66L72.2724 102.865L72.3722 98.2182L72.4721 103.515L72.572 104.241L72.6719 103.784L72.7717 101.077L72.8716 98.0504L72.9715 103.21L73.0714 100.371L73.1712 100.96L73.2711 102.781L73.371 101.825L73.4708 101.797L73.5707 100.412L73.6706 101.399L73.7705 103.685L73.8703 103.845L73.9702 103.577L74.0701 101.581L74.17 101.716L74.2698 99.985L74.3697 101.623L74.4696 99.8496L74.5695 102.354L74.6693 102.455L74.7692 100.115L74.8691 98.8043L74.9689 100.098L75.0688 99.9256L75.1687 100.438L75.2686 99.6563L75.3684 98.1916L75.4683 96.9646L75.5682 94.6321L75.6681 93.4129L75.7679 102.498L75.8678 99.4352L75.9677 99.1739L76.0676 96.2396L76.1674 95.3822L76.2673 99.7145L76.3672 98.8506L76.467 98.8996L76.5669 102.181L76.6668 103.4L76.7667 101.982L76.8665 100.73L76.9664 101.394L77.0663 100.377L77.1662 100.248L77.266 99.7099L77.3659 100.015L77.4658 99.9889L77.5657 99.7801L77.6655 101.133L77.7654 100.705L77.8653 101.747L77.9652 99.4579L78.065 99.6451L78.1649 98.4385L78.2648 99.5281L78.3646 99.084L78.4645 102.755L78.5644 101.274L78.6643 102.684L78.7641 103.844L78.864 99.8418L78.9639 100.684L79.0638 102.089L79.1636 102.281L79.2635 93.8959L79.3634 94.4739L79.4633 102.831L79.5631 102.785L79.663 103.368L79.7629 102.352L79.8627 95.5354L79.9626 96.2728L80.0625 98.8915L80.1624 102.387L80.2622 101.007L80.3621 102.894L80.462 101.287L80.5619 100.368L80.6617 100.628L80.7616 104.776L80.8615 104.461L80.9614 103.253L81.0612 101.438L81.1611 99.3865L81.261 104.136L81.3609 103.123L81.4607 102.722L81.5606 104.31L81.6605 103.019L81.7603 100.597L81.8602 98.4582L81.9601 99.6211L82.06 101.633L82.1598 96.3248L82.2597 95.9787L82.3596 101.613L82.4595 98.403L82.5593 95.6002L82.6592 89.6779L82.7591 92.434L82.859 93.5259L82.9588 97.8644L83.0587 103.56L83.1586 103.824L83.2585 102.519L83.3583 95.5512L83.4582 94.9856L83.5581 95.4744L83.6579 99.6219L83.7578 99.1793L83.8577 99.9225L83.9576 98.7102L84.0574 102.381L84.1573 96.7817L84.2572 85.9116L84.3571 89.1415L84.4569 93.7814L84.5568 95.1665L84.6567 94.3871L84.7566 96.8303L84.8564 93.1254L84.9563 91.2421L85.0562 90.3986L85.1561 97.8389L85.2559 99.6034L85.3558 100.978L85.4557 100.221L85.5555 98.8151L85.6554 97.5225L85.7553 97.6514L85.8552 98.9069L85.955 98.1206L86.0549 101.276L86.1548 94.8559L86.2547 100.571L86.3545 101.879L86.4544 98.1978L86.5543 101.547L86.6542 102.34L86.754 100.409L86.8539 101.541L86.9538 99.8129L87.0536 92.0423L87.1535 102.278L87.2534 101.258L87.3533 99.2422L87.4531 102.148L87.553 102.604L87.7528 94.1873L87.8526 96.0741L87.9525 96.9125L88.0524 88.6642L88.1523 87.9547L88.2521 97.9539L88.352 96.8755L88.4519 98.0735L88.5518 94.7L88.6516 92.0446L88.7515 78.8448L88.8514 81.8324L88.9512 79.8353L89.0511 87.8351L89.151 91.2691L89.2509 91.8455L89.3507 94.5777L89.4506 85.4035L89.5505 79.9931L89.6504 93.9689L89.7502 99.2253L89.8501 101.941L89.95 102.697L90.0499 102.249L90.1497 100.317L90.2496 100.836L90.3495 100.885L90.4493 96.37L90.5492 99.3846L90.6491 97.5082L90.749 97.6066L90.8488 93.0494L90.9487 99.2781L91.0486 101.214L91.1485 101.353L91.2483 102.244L91.3482 102.13L91.4481 100.149L91.548 95.0886L91.6478 87.0167L91.7477 80.1409L91.8476 78.0805L91.9474 86.4653L92.0473 99.5907L92.2471 95.1252L92.3469 96.502L92.4468 93.6367L92.5467 96.2782L92.6466 100.865L92.7464 99.3383L92.8463 90.3211L92.9462 93.426L93.0461 92.8484L93.1459 97.2648L93.2458 96.7107L93.3457 93.8296L93.4455 95.4088L93.5454 95.3749L93.6453 95.1835L93.7452 97.3057L93.8451 96.3356L93.9449 95.322L94.0448 94.7012L94.1447 94.2243L94.2445 94.4778L94.3444 95.3583L94.4443 93.1385L94.5442 101.261L94.644 102.287L94.7439 101.396L94.8438 101.222L94.9437 102.81L95.0435 102.195L95.1434 99.5251L95.2433 98.4763L95.3432 100.731L95.443 100.878L95.5429 97.8987L95.6428 99.8052L95.7426 100.801L95.8425 100.045L95.9424 98.8448L96.0423 98.753L96.1421 99.6686L96.242 99.8372L96.3419 99.5092L96.4418 100.121L96.5416 102.745L96.6415 101.341L96.7414 100.043L96.8413 99.2449L96.9411 101.586L97.041 104.077L97.1409 104.008L97.2408 103.318L97.3406 99.7724L97.4405 94.8887L97.5404 91.7244L97.6403 91.9598L97.7401 94.6171L97.84 95.8553L97.9399 99.1496L98.0397 100.612L98.1396 103.423L98.2395 103.287L98.3394 101.166L98.4392 101.15L98.5391 94.5457L98.639 93.8736L98.7389 95.5138L98.8387 86.7894L98.9386 86.7408L99.0385 86.1836L99.1383 93.7759L99.2382 96.047L99.3381 100.074L99.438 98.2765L99.5378 96.6918L99.6377 99.9676L99.7376 97.0232L99.8375 96.625L99.9373 99.8307L100.037 95.2773L100.137 99.0952L100.237 95.3348L100.337 99.8615L100.437 101.241L100.536 88.322L100.737 96.0355L100.837 99.2461L100.937 101.67L101.035 102.773L101.135 101.479L101.235 104.233L101.336 103.498L101.436 102.873L101.535 102.516L101.635 103.101L101.735 103.227L101.835 103.977L101.935 103.353L102.035 99.6983L102.134 98.1904L102.234 100.75L102.335 103.617L102.435 104.129L102.535 101.922L102.633 103.918L102.733 103.433L102.834 102.954L102.934 103.892L103.034 103.29L103.133 103.985L103.233 102.648L103.334 104.501L103.433 104.108L103.533 104.023L103.632 104.411L103.732 103.785L103.832 103.087L103.933 103.802L104.033 104.578L104.132 104.633L104.231 104.145L104.331 104L104.432 104.241L104.532 104.426L104.632 104.524L104.731 104.624L104.831 104.288L104.932 103.476L105.031 104.18L105.131 104.339L105.23 104.202L105.33 103.957L105.43 104.11L105.531 99.8106L105.631 99.4101L105.73 99.2503L105.829 97.1772L105.929 102.401L106.03 104.196L106.13 101.767L106.229 104.446L106.329 102.045L106.429 101.948L106.529 102.837L106.629 100.286L106.729 103.644L106.828 102.82L106.928 103.121L107.029 104.167L107.129 103.52L107.229 104.044L107.327 104.073L107.427 103.73L107.527 104.855L107.628 104.997L107.728 105.174L107.827 105.01L107.927 104.921L108.027 104.596L108.127 104.971L108.227 104.9L108.326 104.836L108.426 104.659L108.526 103.918L108.627 104.654L108.727 104.564L108.826 104.332L108.925 104.764L109.025 104.008L109.126 101.795L109.226 99.0748L109.326 99.1481L109.425 98.8182L109.525 95.9679L109.626 91.5473L109.725 100.655L109.825 101.862L109.924 101.278L110.024 98.653L110.124 98.8205L110.225 102.086L110.325 98.5419L110.424 103.094L110.523 103.513L110.623 103.815L110.724 104.077L110.824 104.071L110.924 103.53L111.023 104.476L111.123 104.529L111.224 104.273L111.323 102.18L111.423 99.6323L111.522 99.6721L111.622 99.5737L111.723 103.913L111.823 104.093L111.923 103.249L112.022 103.271L112.121 103.685L112.221 103.535L112.322 102.84L112.422 103.449L112.521 101.553L112.621 102.72L112.721 103.057L112.822 103.599L112.921 103.872L113.021 103.711L113.12 101.983L113.22 102.188L113.321 104.215L113.421 103.624L113.521 103.081L113.62 104.035L113.719 102.947L113.82 101.447L113.92 100.888L114.02 98.8259L114.119 100.151L114.219 100.844L114.32 103.446L114.42 104.271L114.519 104.512L114.618 104.575L114.718 103.373L114.818 102.535L114.919 103.148L115.019 103.633L115.118 99.8874L115.218 93.6644L115.317 99.3364L115.418 93.2172L115.518 94.3817L115.618 99.4209L115.717 96.4059L115.817 103.411L115.918 101.288L116.017 101.47L116.117 103.578L116.216 103.781L116.316 104.333L116.416 103.87L116.517 101.821L116.617 98.8136L116.716 102.487L116.815 102.093L116.915 100.2L117.016 96.5054L117.116 97.3188L117.215 95.6384L117.315 92.0836L117.415 92.9109L117.516 95.7326L117.615 97.5194L117.715 102.092L117.814 101.561L117.914 100.875L118.015 96.1315L118.115 88.5149L118.215 95.5493L118.314 96.5131L118.413 97.9234L118.513 90.2532L118.614 98.2302L118.714 78.8383L118.913 88.9872L119.013 91.1283L119.114 92.6836L119.213 89.2168L119.312 90.1586L119.412 84.5137L119.512 74.3389L119.613 92.2268L119.713 86.2747L119.812 87.171L119.912 92.4046L120.011 98.219L120.112 93.7119L120.212 92.2742L120.312 97.8937L120.411 98.3463L120.511 96.8249L120.612 91.3625L120.712 86.5714L120.811 77.1066L120.91 80.1108L121.01 89.8002L121.11 84.5631L121.211 84.2023L121.311 79.2083L121.41 81.332L121.51 71.1966L121.609 77.602L121.71 87.2725L121.81 89.2608L121.91 87.3963L122.009 85.7878L122.109 87.4241L122.21 80.5877L122.31 82.0292L122.409 79.828L122.508 76.4777L122.608 86.1312L122.709 94.7583L122.809 95.682L122.909 79.7504L123.008 81.8787L123.108 91.0407L123.207 93.3889L123.308 92.7118L123.408 88.0843L123.507 81.9729L123.607 79.1334L123.707 85.3159L123.808 94.7525L124.007 75.5026L124.106 84.7907L124.206 85.0134L124.307 59.4348L124.407 62.2264L124.507 87.1891L124.606 90.5163L124.705 80.8713L124.805 74.4076L124.906 79.8928L125.006 62.6381L125.105 62.5995L125.205 76.1806L125.305 100.983L125.406 88.7221L125.505 87.2389L125.704 82.0551L125.804 94.8451L125.905 88.547L126.005 98.1943L126.104 99.1145L126.204 95.0272L126.303 95.5458L126.404 94.3003L126.504 92.8472L126.604 95.3317L126.703 96.2492L126.803 96.436L126.904 96.4437L127.004 88.7974L127.103 83.7995L127.202 91.7013L127.302 103.123L127.402 98.8622L127.503 94.8374L127.603 97.859L127.702 99.4236L127.802 100.547L127.901 96.032L128.002 100.638L128.102 103.388L128.202 99.1246L128.301 100.508L128.402 97.4021L128.501 82.3321L128.602 93.8153L128.701 97.21L128.801 99.2982L128.9 95.6913L129.001 102.766L129.1 99.2461L129.201 92.3857L129.301 92.3309L129.4 92.8179L129.499 90.9797L129.6 93.948L129.699 96.6929L129.799 100.49L129.9 100.278L129.999 102.134L130.1 101.756L130.199 100.128L130.298 102.656L130.398 101.595L130.499 101.888L130.598 100.019L130.699 99.9927L130.798 101.443L130.898 102.565L130.999 102.511L131.098 102.888L131.197 102.569L131.298 101.229L131.398 103.701L131.497 102.591L131.598 101.436L131.697 100.697L131.798 103.486L131.896 96.7173L131.997 84.7344L132.096 74.8833L132.197 92.3773L132.296 92.3387L132.396 93.9446L132.497 90.869L132.596 93.9812L132.695 88.9922L132.796 88.5801L132.895 87.7093L132.995 82.9186L133.096 89.9534L133.195 88.6901L133.296 93.7107L133.395 84.3536L133.495 81.0029L133.594 95.824L133.695 97.5997L133.794 96.5845L133.895 100.853L133.995 98.1758L134.094 96.0416L134.193 88.6997L134.294 93.5687L134.393 95.3641L134.493 95.6577L134.594 93.6787L134.693 99.0759L134.794 100.771L134.893 101.62L134.992 101.223L135.092 101.146L135.193 102.812L135.292 102.058L135.492 85.9741L135.592 88.3598L135.693 96.485L135.792 96.3106L135.891 93.5398L135.992 99.2488L136.092 99.8476L136.191 92.4162L136.292 92.5597L136.391 91.0823L136.492 96.6084L136.59 88.8842L136.691 84.1664L136.79 91.0141L136.891 95.1484L136.99 95.6353L137.09 90.3041L137.191 83.2717L137.29 79.5154L137.389 92.1311L137.49 87.0645L137.589 91.7437L137.689 94.396L137.79 95.8487L137.889 97.6441L137.99 97.5048L138.089 96.5305L138.189 98.0808L138.288 96.4792L138.389 95.2765L138.488 98.3976L138.589 98.4439L138.689 100.8L138.788 100.115L138.889 94.5855L138.988 95.1102L139.087 99.4271L139.188 100.076L139.288 99.9719L139.387 101.48L139.488 102.247L139.587 101.58L139.688 100.098L139.786 93.7231L139.887 101.365L139.986 95.6049L140.087 101.658L140.186 100.185L140.286 98.7842L140.387 97.6417L140.486 99.848L140.585 102.512L140.686 100.601L140.786 102.866L140.885 102.376L140.986 94.0619L141.085 96.3708L141.186 98.8247L141.286 98.1727L141.385 96.6536L141.484 97.4878L141.585 91.0036L141.684 93.299L141.785 98.5323L141.885 90.1814L141.984 98.7896L142.083 100.602L142.184 97.5225L142.283 96.076L142.383 100.751L142.484 101.757L142.583 100.201L142.684 93.3739L142.783 85.6554L142.883 99.7377L142.982 98.4188L143.083 92.2086L143.182 95.4524L143.283 96.147L143.383 93.8929L143.482 99.7373L143.583 99.7508L143.682 97.0036L143.781 99.8272L143.882 98.888L143.982 101.755L144.081 102.234L144.182 98.469L144.281 93.8446L144.382 92.5517L144.48 97.3929L144.581 89.8075L144.68 84.2305L144.781 95.349L144.88 97.6861L144.98 95.0033L145.081 98.8826L145.18 94.0904L145.279 91.2182L145.38 95.2576L145.48 88.0523L145.579 101.083L145.68 99.9591L145.779 96.4298L145.88 100.533L145.98 88.6662L146.079 84.1147L146.178 88.9235L146.279 89.0582L146.378 94.9644L146.479 94.7981L146.579 88.1711L146.678 94.6329L146.779 89.6624L146.878 94.4195L146.977 97.6664L147.077 96.6598L147.178 101.468L147.277 98.692L147.378 97.553L147.477 90.5175L147.577 98.1179L147.676 97.9234L147.777 98.4918L147.876 99.9595L147.977 97.3126L148.077 93.7223L148.176 88.9968L148.277 89.6856L148.376 96.5174L148.475 97.8605L148.576 96.4279L148.676 98.8514L148.775 96.0791L148.876 94.4288L148.975 101.721L149.076 102.688L149.176 101.391L149.275 102.118L149.374 102.319L149.475 98.5566L149.574 95.7858L149.674 101.849L149.775 102.195L149.874 102.799L149.973 101.464L150.074 103.225L150.173 101.644L150.273 100.787L150.374 103.015L150.473 102.963L150.574 103.381L150.673 103.014L150.773 102.928L150.872 103.329L150.973 103.354L151.072 103.312L151.173 103.325L151.273 103.574L151.372 103.258L151.473 102.779L151.572 103.05L151.671 103.127L151.771 103.413L151.872 103.464L151.971 102.792L152.072 103.38L152.171 102.451L152.271 102.854L152.37 102.104L152.471 103.236L152.57 103.374L152.671 102.587L152.77 102.453L152.87 102.436L152.971 103.672L153.07 102.558L153.169 98.5786L153.27 77.6946L153.37 79.3812L153.469 83.1104L153.57 89.1076L153.669 91.4894L153.77 60.629L153.87 90.5213L153.969 88.8703L154.068 95.0014L154.169 86.696L154.268 90.0934L154.368 91.1553L154.469 94.0974L154.568 86.2697L154.669 90.1802L154.768 91.7869L154.867 92.0292L154.967 93.2909L155.068 94.482L155.167 98.2325L155.268 98.6033L155.367 99.4197L155.467 99.4236L155.566 98.2722L155.667 96.838L155.766 94.7406L155.867 98.2537L155.967 96.2562L156.066 97.7421L156.167 99.1041L156.266 93.5869L156.365 94.0105L156.465 97.0865L156.566 99.5251L156.665 100.234L156.766 97.3998L156.865 94.9686L156.965 95.0423L157.066 101.706L157.165 102.073L157.264 100.444L157.365 102.404L157.464 101.756L157.564 101.355L157.665 101.125L157.764 103.376L157.865 102.51L157.964 103.264L158.064 102.077L158.163 98.2664L158.264 98.4536L158.363 98.3023L158.464 97.4778L158.564 91.7445L158.663 96.2635L158.762 93.1651L158.863 97.3103L158.962 101.976L159.062 96.6239L159.163 97.2949L159.262 91.0754L159.363 100.034L159.462 101.72L159.561 101.941L159.661 103.61L159.762 94.264L159.861 101.005L159.962 100.808L160.061 100.44L160.161 100.393L160.26 102.47L160.361 102.348L160.46 97.7525L160.561 100.081L160.661 100.894L160.76 98.4783L160.861 101.088L160.96 101.389L161.059 102.66L161.16 101.835L161.26 98.3806L161.359 83.1034L161.46 101.843L161.559 97.1324L161.66 96.8434L161.76 100.645L161.859 99.3815L161.958 89.3607L162.059 88.0997L162.158 71.8186L162.258 94.3127L162.359 95.4162L162.458 84.1155L162.559 95.2684L162.658 93.1482L162.758 94.2359L162.857 94.9177L162.958 94.5461L163.057 93.5738L163.158 96.3376L163.258 93.2211L163.357 80.5754L163.456 80.6448L163.557 92.1307L163.656 94.3389L163.757 93.4487L163.857 89.348L163.956 96.1053L164.057 96.0548L164.156 92.2789L164.255 96.5402L164.355 98.1754L164.456 84.5395L164.555 84.0792L164.656 98.4756L164.755 100.845L164.855 97.7019L164.956 97.8297L165.055 94.2112L165.154 97.0826L165.255 101.32L165.355 98.6291L165.454 99.7168L165.555 97.5283L165.654 97.0622L165.854 102.388L165.954 101.289L166.053 101.35L166.154 100.613L166.253 82.0717L166.354 98.2591L166.454 90.1582L166.553 98.7935L166.652 96.5672L166.753 91.5623L166.852 100.684L166.952 90.3064L167.053 99.8758L167.152 96.353L167.253 93.3959L167.352 92.4861L167.452 96.5749L167.551 92.7754L167.652 89.831L167.751 96.167L167.852 97.3643L167.952 97.5985L168.051 88.4671L168.15 89.3445L168.251 72.3966L168.35 92.6057L168.451 83.9561L168.551 90.9222L168.65 78.4208L168.751 91.1553L168.85 95.8553L168.949 86.1126L169.049 95.7256L169.15 90.7606L169.249 91.9127L169.35 89.3611L169.449 87.3435L169.549 101.291L169.65 91.44L169.749 42.3414L169.848 42.3796L169.949 65.6246L170.048 62.2368L170.148 71.9652L170.249 92.6624L170.348 70.5908L170.449 63.3025L170.548 88.6176L170.648 80.4033L170.747 88.986L170.848 84.3582L170.947 73.6413L171.048 83.6675L171.148 70.428L171.247 82.9163L171.346 91.1653L171.447 82.7214L171.546 86.6729L171.646 94.6468L171.747 94.2401L171.846 80.9739L171.947 83.8435L172.046 93.4121L172.145 92.4992L172.245 93.2396L172.346 79.9811L172.445 84.9381L172.546 65.4498L172.645 81.5072L172.745 87.4793L172.846 98.5022L172.945 94.9736L173.044 95.9197L173.145 92.1616L173.245 90.8562L173.344 92.1658L173.445 98.528L173.544 98.6866L173.645 97.3196L173.743 96.7003L173.844 98.3463L173.943 90.3365L174.143 97.1664L174.243 94.9015L174.344 99.8071L174.443 100.22L174.542 98.3872L174.643 89.5343L174.742 94.7842L174.842 99.0034L174.943 96.9885L175.042 98.6608L175.143 99.3202L175.242 99.0806L175.342 98.1117L175.441 98.944L175.542 96.5178L175.641 97.8358L175.742 98.6264L175.842 98.9127L175.941 99.2928L176.042 96.2527L176.141 98.0068L176.24 98.9351L176.34 99.0547L176.441 98.4293L176.54 99.5968L176.641 98.344L176.74 94.5982L176.839 96.4788L176.939 96.6694L177.04 97.4303L177.139 99.3727L177.24 98.8479L177.339 98.4262L177.439 97.3531L177.54 91.376L177.639 99.0362L177.738 98.7426L177.839 95.6874L177.939 87.0483L178.038 47.9211L178.139 78.7214L178.238 94.9636L178.339 97.2177L178.438 96.9426L178.538 96.2913L178.637 97.159L178.738 95.7974L178.837 87.0626L178.938 91.778L179.038 96.1539L179.137 98.3286L179.236 99.9885L179.337 99.39L179.436 93.9345L179.536 80.5152L179.637 85.251L179.736 99.4984L179.837 100.416L179.936 96.0154L180.036 85.8642L180.135 83.0405L180.236 88.9941L180.335 79.4784L180.436 90.6159L180.536 96.5058L180.635 94.0823L180.736 79.424L180.835 86.5077L180.934 73.1652L181.035 44.3663L181.135 78.3085L181.234 76.4082L181.335 91.354L181.434 91.1009L181.535 74.1078L181.633 61.6337L181.734 55.7986L181.833 92.4575L181.934 92.3888L182.033 99.9236L182.133 101.737L182.234 101.014L182.333 101.417L182.432 101.269L182.533 102.281L182.633 99.2716L182.732 101.955L182.833 98.6434L182.932 100.999L183.033 97.7895L183.133 90.2813L183.232 101.066L183.331 91.4933L183.432 97.5113L183.531 96.9981L183.632 91.8216L183.831 66.2631L183.932 82.2314L184.031 74.4539L184.13 78.4871L184.23 89.4618L184.331 93.1891L184.43 92.3244L184.531 92.2503L184.63 99.4344L184.73 99.3005L184.829 91.0642L184.93 77.6653L185.029 82.9039L185.13 53.1023L185.23 58.5354L185.329 68.7237L185.43 88.5705L185.529 90.4662L185.628 90.9052L185.729 99.1805L185.829 64.4713L185.928 45.8472L186.029 83.8882L186.128 72.586L186.229 73.4873L186.327 75.476L186.428 78.5253L186.527 80.9492L186.628 94.1521L186.727 100.407L186.827 102.629L186.928 103.3L187.027 103.037L187.126 90.5379L187.227 99.1778L187.327 59.4159L187.426 69.98L187.527 61.7892L187.727 102.779L187.827 100.874L187.926 80.8755L188.025 78.378L188.126 102.79L188.225 98.4223L188.326 91.4655L188.426 102.994L188.525 103.489L188.626 96.0277L188.725 92.9672L188.824 86.8465L188.924 94.2208L189.025 88.2483L189.124 80.2975L189.225 77.3616L189.324 61.5064L189.424 74.9578L189.523 93.7235L189.624 98.6565L189.723 98.8799L189.824 84.5558L189.923 76.1393L190.023 60.1135L190.124 78.9347L190.223 88.5601L190.322 93.3407L190.423 90.0595L190.523 86.9758L190.622 84.5133L190.723 73.8489L190.822 44.2459L190.923 75.6188L191.023 76.8415L191.122 76.1481L191.221 86.5382L191.322 66.6775L191.421 27.6032L191.521 17.0889L191.622 80.7366L191.822 99.2314L191.921 96.2797L192.02 82.8889L192.12 32.3649L192.221 36.3959L192.32 84.6028L192.421 84.4489L192.52 93.3411L192.62 96.4938L192.719 85.4968L192.82 73.0328L192.919 73.9484L193.02 95.4104L193.12 80.9816L193.219 57.5318L193.32 92.7893L193.419 93.6586L193.518 86.637L193.618 32.9291L193.719 74.1826L193.818 91.898L193.919 37.7247L194.018 52.3765L194.118 96.9214L194.219 60.1008L194.318 72.6369L194.417 91.4188L194.518 102.415L194.617 101.224L194.717 101.462L194.818 101.88L194.917 102.433L195.016 102.481L195.117 100.409L195.217 99.4915L195.316 99.946L195.417 95.0689L195.516 73.8535L195.617 8.10988L195.717 1.58984L195.816 98.1306L195.915 99.8743L196.016 98.9501L196.115 92.8765L196.215 98.7163L196.316 72.8542L196.415 71.6565L196.615 100.182L196.714 98.3324L196.814 99.2395L196.915 99.956L197.014 87.6722L197.115 78.2865L197.214 100.558L197.314 101.272L197.413 101.271L197.514 100.776L197.613 99.6748L197.714 99.4583L197.814 90.2744L197.913 100.088L198.014 99.3645L198.113 101.951L198.212 89.9017L198.312 100.388L198.413 100.381L198.512 99.6242L198.613 100.297L198.712 101.016L198.812 98.9984L198.913 99.1739L199.012 95.7353L199.111 93.3257L199.212 101.218L199.311 99.7033L199.411 100.467L199.512 99.5494L199.611 100.149L199.712 97.903L199.811 96.7805L199.911 93.1308L200.01 100.73L200.111 92.6388L200.21 91.6106L200.311 96.576L200.411 98.1997L200.51 96.3368L200.609 88.7437L200.71 96.0359L200.809 100.415L200.91 96.8558L201.01 100.484L201.109 99.9522L201.21 98.1931L201.309 99.265L201.408 100.491L201.508 94.0738L201.609 99.7292L201.708 95.0681L201.809 96.0768L201.908 86.6378L202.109 97.8586L202.208 99.0964L202.307 96.5332L202.408 97.0348L202.508 93.5147L202.607 73.0359L202.708 78.0924L202.807 86.3009L202.906 98.1187L203.007 96.8303L203.107 92.0362L203.206 95.7951L203.307 96.7188L203.406 87.8617L203.507 91.0326L203.607 95.2615L203.706 96.3071L203.805 97.7208L203.906 97.5476L204.005 97.0533L204.105 88.5902L204.206 97.9547L204.305 100.977L204.406 90.2111L204.505 84.4365L204.605 90.6209L204.704 95.4343L204.805 93.5549L204.904 92.8619L205.005 93.6629L205.105 97.8524L205.204 98.7893L205.303 98.4725L205.404 93.3453L205.503 99.2094L205.604 100.619L205.704 100.479L205.803 99.4899L205.904 98.9528L206.003 98.9382L206.102 98.447L206.202 98.2047L206.303 98.5967L206.402 97.8999L206.503 98.045L206.602 96.2315L206.702 96.2565L206.803 95.6087L206.902 86.4055L207.001 98.2059L207.102 97.3427L207.202 98.6434L207.301 94.0302L207.402 96.3993L207.501 87.7648L207.602 86.5564L207.701 95.1121L207.801 99.2137L207.9 99.0169L208.001 98.8626L208.1 97.9161L208.201 98.5153L208.301 83.813L208.4 88.0565L208.499 97.7849L208.6 92.5748L208.699 84.788L208.799 88.3999L208.9 75.6257L208.999 73.9886L209.1 87.2316L209.199 92.5131L209.298 96.2369L209.398 84.6333L209.499 97.788L209.598 97.0418L209.699 97.1147L209.798 96.2901L209.898 97.5445L209.999 94.45L210.098 94.2864L210.197 84.6758L210.298 27.0893L210.398 29.6108L210.497 85.9568L210.598 80.8304L210.697 89.2666L210.796 91.4624L210.896 83.8535L210.997 70.0992L211.096 67.2737L211.197 89.4707L211.296 95.5705L211.396 93.6031L211.497 94.516L211.596 94.386L211.695 96.2353L211.796 95.0847L211.895 97.4916L211.995 95.7685L212.096 96.4074L212.195 93.7956L212.296 95.8572L212.395 94.1614L212.495 92.3583L212.594 96.0343L212.695 96.0972L212.794 97.6167L212.895 94.5218L212.995 92.8958L213.193 59.3071L213.393 80.869L213.493 76.2886L213.594 69.2068L213.693 80.754L213.794 40.1085L213.893 64.2301L213.992 62.9823L214.092 76.7057L214.193 84.9547L214.292 88.2491L214.393 71.2413L214.492 14.2568L214.592 14.2637L214.693 75.1797L214.792 81.6638L214.891 72.8245L214.992 61.7244L215.092 70.9026L215.191 38.4428L215.292 62.0493L215.391 79.0817L215.492 79.8067L215.59 89.5829L215.691 86.8041L215.79 85.133L215.99 47.9643L216.09 87.5484L216.191 93.8041L216.29 87.323L216.389 77.4693L216.49 84.5569L216.589 53.9716L216.689 44.2625L216.79 86.5895L216.889 94.8363L216.99 94.4998L217.089 96.2558L217.189 78.3857L217.288 51.4817L217.389 53.6768L217.488 82.101L217.589 100.036L217.689 101.131L217.788 100.887L217.889 98.983L217.988 92.0026L218.087 75.2136L218.188 96.5946L218.288 100.239L218.387 99.0096L218.488 100.944L218.587 100.181L218.688 98.1846L218.786 95.6546L218.887 92.2094L218.986 98.5678L219.087 95.2148L219.186 98.7923L219.286 99.292L219.387 94.1618L219.486 96.7508L219.585 101.557L219.686 97.7104L219.786 100.85L219.885 98.9783L219.986 99.1662L220.085 96.4256L220.186 97.7486L220.286 97.5827L220.385 99.8225L220.484 100.009L220.585 101.993L220.684 102.093L220.785 102.17L220.885 101.775L220.984 101.526L221.083 101.428L221.184 101.89L221.283 101.894L221.383 101.853L221.484 102.065L221.583 101.913L221.684 101.922L221.783 102.059L221.883 102.164L221.982 101.94L222.083 101.569L222.182 101.36L222.283 101.3L222.383 101.82L222.482 101.482L222.583 101.22L222.682 101.262L222.781 101.113L222.882 100.736L222.982 101.071L223.081 101.005L223.182 101.512L223.281 100.961L223.382 101.027L223.48 101.666L223.581 101.507L223.68 101.396L223.781 101.33L223.88 101.596L223.98 101.062L224.081 100.1L224.18 99.4394L224.279 100.364L224.38 99.5432L224.48 99.8588L224.579 98.8637L224.68 100.152L224.779 101.187L224.88 102.1L224.98 100.528L225.079 98.91L225.178 102.248L225.279 101.505L225.378 101.294L225.479 101.444L225.579 101.607L225.678 100.076L225.779 102.459L225.878 100.313L225.977 101.73H226.077L226.178 102.147L226.277 102.379L226.378 100.903L226.477 101.185L226.577 102.371L226.676 102.458L226.777 102.794L226.876 101.981L226.977 101.444L227.077 101.358L227.176 101.612L227.277 102.54L227.376 101.788L227.475 101.711L227.576 101.713L227.676 102.072L227.775 99.8646L227.876 101.693L227.975 101.517L228.076 101.459L228.176 101.605L228.275 101.955L228.374 101.623L228.475 101.657L228.574 102.044L228.674 102.425L228.775 102.609L228.874 101.651L228.973 102.859L229.074 101.877L229.173 102.612L229.273 99.8295L229.374 102.181L229.473 101.953L229.574 101.319L229.673 99.7168L229.773 96.8839L229.872 99.9472L229.973 101.297L230.072 101.441L230.173 101.934L230.273 101.886L230.372 101.752L230.473 101.967L230.572 101.872L230.671 101.49L230.771 99.2959L230.872 101.192L230.971 100.122L231.072 101.981L231.171 101.666L231.271 98.3529L231.37 102.034L231.471 101.289L231.57 100.416L231.671 101.213L231.77 101.032L231.87 100.56L231.971 101.54L232.07 101.849L232.169 99.8307L232.27 100.349L232.37 99.9931L232.469 99.7743L232.57 100.617L232.669 100.734L232.77 96.1273L232.87 98.3876L232.969 98.3301L233.068 98.5909L233.169 100.159L233.268 98.7102L233.368 99.2094L233.469 99.4429L233.568 99.0319L233.669 96.4711L233.768 100.098L233.867 98.4551L233.967 100.189L234.068 99.0285L234.167 99.3071L234.268 98.5246L234.367 96.7292L234.467 98.5929L234.566 100.213L234.667 100.309L234.766 101.863L234.867 99.5054L234.967 100.697L235.066 100.817L235.167 101.4L235.266 100.178L235.365 100.558L235.465 100.719L235.566 100.525L235.665 99.975L235.766 99.1867L235.865 98.8309L235.965 101.417L236.066 100.235L236.165 99.8608L236.264 100.929L236.365 101.732L236.464 100.59L236.564 99.6192L236.665 100.245L236.764 100.416L236.863 99.7608L236.964 99.8484L237.064 100.021L237.163 99.1315L237.264 98.599L237.363 99.7766L237.464 101.103L237.564 100.746L237.663 99.5744L237.762 99.6547L237.863 98.7688L237.962 99.0289L238.062 99.341L238.163 99.5768L238.262 99.0215L238.363 99.0308L238.462 99.0377L238.561 100.171L238.661 99.7809L238.762 98.6785L238.861 99.1076L238.962 97.9944L239.061 95.7067L239.161 91.0939L239.26 96.9229L239.361 96.9495L239.46 96.3187L239.561 97.3682L239.661 98.4898L239.76 96.9075L239.861 94.1599L239.96 97.6244L240.059 99.6242L240.16 99.0316L240.26 100.556L240.359 99.8287L240.46 100.304L240.559 100.633L240.66 100.32L240.76 99.7334L240.859 100.583L240.958 96.9939L241.059 98.2012L241.158 98.8213L241.258 101.284L241.359 101.062L241.458 98.5439L241.559 99.5636L241.658 98.9941L241.758 98.3783L241.857 97.7945L241.958 97.928L242.057 96.9075L242.158 98.5824L242.258 97.3558L242.357 99.0034L242.456 97.7347L242.557 99.6292L242.656 99.4182L242.757 99.8403L242.857 100.147L242.956 100.635L243.057 101.812L243.156 100.486L243.255 100.081L243.355 101.075L243.456 101.059L243.555 99.7982L243.656 101.371L243.755 101.676L243.855 100.897L243.956 100.526L244.055 101.645L244.154 101.736L244.255 101.776L244.355 101.498L244.454 101.978L244.555 102.028L244.654 101.437L244.755 102.102L244.854 102.006L244.954 101.147L245.053 101.556L245.154 101.287L245.253 99.5602L245.354 100.443L245.454 101.23L245.553 101.544L245.652 101.632L245.753 100.941L245.852 100.462L245.952 99.1956L246.053 99.6771L246.152 101.353L246.253 101.617L246.352 102.204L246.452 101.973L246.551 100.738L246.652 100.719L246.751 100.661L246.852 102.161L246.952 101.452L247.051 101.387L247.15 101.381L247.251 101.743L247.35 101.578L247.451 101.808L247.551 102.256L247.65 101.426L247.751 100.653L247.85 100.637L247.949 99.9807L248.049 99.6458L248.15 99.517L248.249 102.152L248.35 102.428L248.449 102.573L248.549 102.365L248.65 100.394L248.749 99.831L248.848 98.7835L248.949 99.9703L249.048 101.514L249.148 100.513L249.249 100.796L249.348 101.259L249.449 100.019L249.548 100.705L249.648 101.184L249.747 100.865L249.947 102.523L250.048 102.287L250.148 98.6808L250.247 99.2955L250.346 102.404L250.447 102.572L250.546 102.737L250.646 102.578L250.747 102.536L250.846 102.654L250.947 102.424L251.046 102.478L251.145 102.371L251.245 102.903L251.346 102.601L251.445 102.87L251.546 101.872L251.645 100.365L251.745 103.09L251.846 102.663L251.945 103.321L252.044 102.583L252.145 102.695L252.245 102.192L252.344 102.599L252.445 102.02L252.544 102.893L252.645 103.165L252.743 103.275L252.844 103.36L252.943 103.326L253.044 103.406L253.143 102.822L253.243 103.744L253.344 103.62L253.443 103.145L253.542 100.682L253.643 98.7318L253.742 100.431L253.842 102.829L253.943 103.112L254.042 102.845L254.143 102.242L254.242 101.856L254.342 100.284L254.441 101.044L254.542 103.051L254.641 103.083L254.742 102.592L254.842 102.119L254.941 102.763L255.042 101.701L255.141 102.316L255.24 103.233L255.34 102.629L255.441 103.043L255.54 102.561L255.641 100.719L255.74 100.491L255.839 100.63L255.939 102.128L256.04 103.185L256.139 102.549L256.24 102.786L256.34 102.901L256.44 99.9862L256.539 101.436L256.638 102.264L256.738 102.796L256.839 101.551L256.939 102.779L257.039 102.937L257.138 100.62L257.238 101.012L257.339 102.849L257.438 103.102L257.538 102.901L257.638 102.542L257.737 102.691L257.837 101.829L257.938 101.376L258.038 101.7L258.138 101.512L258.237 101.581L258.336 102.015L258.436 103.082L258.536 101.488L258.637 98.3625L258.737 101.93L258.836 102.77L258.936 102.068L259.035 102.016L259.135 102.593L259.236 101.53L259.336 101.414L259.435 102.496L259.535 102.925L259.635 103.248L259.736 103.249L259.835 102.634L259.935 102.779L260.034 101.604L260.134 102.395L260.234 103.25L260.335 103.217L260.435 103.18L260.534 103.172L260.634 103.019L260.733 102.534L260.833 103.163L260.934 102.857L261.034 102.811L261.134 102.309L261.233 101.903L261.333 101.075L261.432 101.083L261.533 101.332L261.633 102.081L261.733 102.262L261.832 102.33L261.932 102.698L262.033 101.82L262.133 102.686L262.232 102.694L262.332 102.632L262.431 102.009L262.531 102.436L262.632 102.505L262.732 102.073L262.832 101.157L262.931 103.116L263.03 102.742L263.13 101.987L263.23 102.108L263.331 101.887L263.431 103.215L263.53 102.43L263.63 95.6276L263.729 97.8798L263.829 95.6037L263.93 99.9892L264.03 93.8693L264.129 86.7423L264.229 91.7313L264.329 99.4008L264.43 98.883L264.529 98.8471L264.629 102.289L264.728 101.119L264.828 77.7857L264.928 90.8493L265.029 88.5404L265.129 93.4642L265.228 99.3669L265.328 98.5114L265.427 97.4569L265.527 93.6803L265.628 86.0524L265.728 97.2864L265.828 97.3871L265.927 82.765L266.027 86.6185L266.126 84.3964L266.227 73.9291L266.327 77.947L266.427 94.0958L266.526 97.499L266.626 101.918L266.727 100.641L266.827 94.0233L266.926 81.2047L267.026 83.7883L267.125 98.2016L267.225 91.5226L267.326 84.1051L267.426 84.8799L267.526 75.1434L267.625 63.2072L267.724 72.9537L267.824 81.5438L267.924 83.8844L268.025 77.5056L268.125 57.8594L268.224 58.9409L268.324 59.0219L268.424 60.7972L268.523 76.7678L268.624 80.6691L268.724 86.066L268.823 76.4753L268.923 77.7992L269.023 68.1646L269.124 67.5989L269.224 75.7094L269.323 76.5919L269.422 73.9407L269.522 77.1054L269.622 88.8491L269.723 76.098L269.823 75.7206L270.022 97.4384L270.121 92.432L270.221 91.2378L270.322 95.2896L270.422 89.9765L270.522 83.9419L270.621 88.7472L270.721 95.6504L270.822 90.8354L270.921 85.4799L271.021 88.9633L271.121 78.5543L271.22 62.2577L271.32 81.4713L271.421 93.8161L271.521 90.1038L271.62 87.3238L271.72 79.0956L271.819 65.2295L271.919 56.4445L272.02 80.5877L272.12 80.1621L272.22 89.8816L272.319 93.4785L272.419 92.6257L272.518 80.5391L272.618 82.1832L272.719 97.9157L272.819 98.2896L272.918 99.3854L273.018 98.7264L273.118 97.9269L273.217 101.757L273.318 88.9845L273.418 97.5688L273.517 97.854L273.617 99.1739L273.717 94.4269L273.818 91.2394L273.918 88.6149L274.017 77.9362L274.116 83.8647L274.216 88.1086L274.316 88.4154L274.417 91.9856L274.517 92.6223L274.616 83.3689L274.716 86.7682L274.815 94.0935L274.915 96.2338L275.016 97.9925L275.116 100.296L275.216 102.153L275.315 100.417L275.415 96.4691L275.516 99.3055L275.615 102.775L275.715 102.496L275.815 102.398L275.914 101.241L276.014 88.8093L276.115 89.5721L276.215 98.1453L276.315 97.6526L276.414 103.403L276.513 102.995L276.613 103.183L276.714 102.278L276.814 102.743L276.914 102.665L277.013 103.415L277.113 103.303L277.212 103.021L277.312 102.453L277.413 97.4504L277.513 86.5915L277.612 95.3656L277.712 100.616L277.812 102.652L277.913 102.394L278.012 102.504L278.112 96.806L278.211 96.2897L278.311 101.203L278.411 102.835L278.512 102.436L278.612 102.213L278.711 103.239L278.81 102.993L278.91 99.7014L279.01 101.446L279.111 101.581L279.211 102.402L279.31 101.153L279.41 99.6381L279.51 93.5379L279.609 89.0266L279.71 99.412L279.81 98.4266L279.909 99.0485L280.009 98.7086L280.109 101.593L280.21 98.0751L280.31 96.9329L280.409 102.932L280.509 102.595L280.608 102.642L280.708 102.962L280.809 102.072L280.909 96.527L281.009 86.3553L281.108 96.6486L281.207 98.1391L281.307 100.21L281.408 98.7514L281.508 92.5544L281.608 79.3005L281.707 76.0957L281.807 82.858L281.906 91.1904L282.007 89.2673L282.107 99.8978L282.207 97.2227L282.406 54.6125L282.507 90.2972L282.607 97.7536L282.706 100.65L282.806 100.274L282.905 86.2515L283.005 65.5493L283.105 67.0676L283.206 75.0462L283.306 75.9984L283.405 77.8574L283.504 70.5321L283.604 80.0822L283.704 58.9108L283.805 86.8211L283.905 103.165L284.004 103.18L284.104 102.536L284.204 100.961L284.303 96.463L284.404 102.853L284.504 103.594L284.603 102.287L284.703 102.566L284.803 102.199L284.904 102.021L285.004 102.116L285.103 88.5099L285.203 93.3191L285.302 102.485L285.402 101.809L285.503 102.211L285.603 100.256L285.703 99.28L285.802 84.075L285.901 88.9691L286.001 101.926L286.102 102.26L286.202 102.044L286.302 100.824L286.401 100.753L286.501 88.2977L286.602 99.157L286.701 102.197L286.801 102.312L286.901 101.653L287 100.91L287.1 99.2253L287.201 86.3005L287.301 84.31L287.401 97.2517L287.5 96.4634L287.599 97.5318L287.699 91.5751L287.799 89.4413L287.9 84.1502L288 65.8962L288.099 81.8564L288.199 77.2686L288.298 90.1609L288.398 99.238L288.499 94.5785L288.698 64.9281L288.798 79.5914L288.898 90.7274L288.999 91.7028L289.098 89.5112L289.198 85.88L289.297 59.8835L289.397 67.2378L289.497 80.3033L289.598 91.758L289.698 98.6666L289.797 101.862L289.897 102.288L290.096 79.1439L290.197 92.0362L290.297 96.882L290.397 103.094L290.496 103.178L290.595 103.083L290.695 95.5061L290.796 92.7446L290.896 96.5648L290.996 100.72L291.095 100.336L291.195 102.38L291.296 100.334L291.395 88.6669L291.495 96.6956L291.595 102.115L291.694 102.574L291.794 102.587L291.895 102.09L291.995 102.152L292.095 100.558L292.194 99.0138L292.293 102.091L292.393 102.877L292.493 102.68L292.594 103.437L292.694 102.367L292.793 102.159L292.893 99.9942L292.992 99.64L293.092 102.135L293.193 101.026L293.293 99.2835L293.392 98.7815L293.492 95.6442L293.592 88.9274L293.693 99.2854L293.792 102.594L293.892 101.983L293.991 101.716L294.091 100.468L294.191 89.7365L294.292 83.5221L294.392 98.6399L294.491 102.74L294.591 103.222L294.69 103.188L294.79 102.711L294.891 98.5041L294.991 90.2362L295.091 100.447L295.19 102.539L295.29 102.641L295.389 102.189L295.49 102.662L295.69 85.488L295.789 101.318L295.889 103.073L295.99 102.398L296.09 101.593L296.189 99.069L296.289 88.1472L296.388 82.0439L296.488 96.7805L296.589 93.8408L296.689 98.9926L296.789 96.534L296.888 94.9262L296.987 84.3115L297.087 81.2753L297.188 93.8111L297.288 92.2225L297.388 98.8977L297.487 102.042L297.587 99.5424L297.688 86.5926L297.786 76.5965L297.887 92.4432L297.987 96.529L298.086 98.4563L298.186 96.6582L298.286 87.7617L298.387 63.1374L298.487 69.6308L298.586 93.2574L298.685 98.6145L298.785 98.0338L298.885 98.8726L298.986 93.0479L299.086 90.509L299.185 83.6459L299.285 99.2781L299.384 96.2191L299.484 94.2289L299.585 87.7837L299.685 88.1495L299.784 87.4268L299.884 81.758L299.984 92.8985L300.083 91.6638L300.184 98.6422L300.284 92.0852L300.384 87.1039L300.483 67.9686L300.583 75.7503L300.684 97.908L300.784 95.6824L300.883 99.309L300.983 97.1946L301.082 101.713L301.182 96.4456L301.283 94.161L301.383 102.083L301.483 101.692L301.582 102.612L301.681 102.274L301.781 102.515L301.882 100.98L301.982 100.535L302.082 102.631L302.181 100.748L302.281 102.978L302.382 102.045L302.48 102.55L302.581 102.58L302.681 103.158L302.78 103.224L302.88 102.492L302.98 103.37L303.081 102.982L303.181 102.551L303.28 102.937L303.379 103.274L303.479 103.011L303.579 102.725L303.68 102.538L303.78 102.277L303.879 102.969L303.979 102.86L304.078 102.717L304.178 102.016L304.279 101.874L304.379 102.199L304.478 101.226L304.578 102.398L304.678 101.83L304.779 103.908L304.878 102.729L304.978 102.541L305.078 102.28L305.177 102.655L305.277 102.147L305.378 103.33L305.478 103.297L305.578 102.982L305.677 102.628L305.776 103.026L305.876 102.49L305.977 102.264L306.077 102.298L306.177 102.538L306.276 100.765L306.376 102.729L306.475 103.034L306.576 102.377L306.676 103.717L306.776 103.412L306.875 103.777L306.975 103.371L307.076 102.591L307.176 103.401L307.275 101.418L307.375 102.631L307.474 102.941L307.574 101.849L307.674 103.425L307.775 102.37L307.875 102.836L307.974 101.999L308.073 102.745L308.173 102.815L308.273 102.239L308.374 100.523L308.474 102.263L308.573 102.822L308.673 101.803L308.772 102.368L308.872 102.749L308.973 103.599L309.073 102.11L309.172 102.815L309.272 103.131L309.372 101.534L309.473 102.332L309.572 102.439L309.672 102.743L309.772 101.898L309.871 102.484L309.971 102.196L310.072 102.146L310.172 101.674L310.272 102.301L310.371 99.2476L310.47 100.356L310.57 99.9591L310.671 100.956L310.771 101.727L310.871 102.26L310.97 102.349L311.07 101.24L311.169 100.997L311.27 102.475L311.37 102.417L311.47 102.35L311.569 101.99L311.669 102.979L311.77 101.403L311.87 101.918L311.969 102.84L312.069 103.015L312.168 102.637L312.268 103.118L312.368 101.491L312.469 101.333L312.569 102.246L312.668 102.204L312.767 102.842L312.867 103.024L312.967 102.323L313.068 103.165L313.168 103.224L313.267 103.009L313.367 102.871L313.467 102.916L313.566 103.355L313.667 102.657L313.767 103.167L313.866 102.874L313.966 103.17L314.066 102.562L314.167 103.497L314.267 102.763L314.366 102.742L314.466 103.258L314.565 103.007L314.665 102.511L314.766 102.783L314.866 103.019L314.966 102.516L315.065 103.133L315.164 103.475L315.264 103.206L315.365 102.759L315.465 102.723L315.565 103.425L315.664 101.982L315.764 101.774L315.865 103.06L315.964 103.688L316.064 103.834L316.164 102.916L316.263 102.778L316.363 101.947L316.464 102.148L316.564 103.755L316.663 103.492L316.763 103.615L316.862 102.807L316.962 103.471L317.062 103.519" stroke="#CED4DA" stroke-width="0.5" stroke-linecap="round" stroke-linejoin="round"/>
</g>
</g>
</g>
<defs>
<clipPath id="clip0_190_28939">
<rect width="318" height="106" fill="white" transform="translate(0.0625 0.589844)"/>
</clipPath>
<clipPath id="clip1_190_28939">
<rect width="318" height="106" fill="white" transform="translate(0.0625 0.589844)"/>
</clipPath>
<clipPath id="clip2_190_28939">
<rect width="318" height="106" fill="white" transform="translate(0.0625 0.589844)"/>
</clipPath>
</defs>
</svg>
