<svg width="318" height="107" viewBox="0 0 318 107" fill="none" xmlns="http://www.w3.org/2000/svg">
<g opacity="0.5" clip-path="url(#clip0_190_28933)">
<g clip-path="url(#clip1_190_28933)">
<g clip-path="url(#clip2_190_28933)">
<path d="M1.35938 105.59H1.47517H1.59096H1.70676H1.82255H1.93834H2.05414H2.16993H2.28572H2.40152H2.51731H2.6331H2.7489H2.86469H2.98048H3.09628H3.21207H3.32786H3.44366H3.55945H3.67524H3.79104H3.90683H4.02262H4.13842H4.25421H4.37H4.4858H4.60159H4.71738H4.83318H4.94897H5.06476H5.18056H5.29635H5.41214H5.52794H5.64373H5.75952H5.87532H5.99111H6.1069H6.2227H6.33849H6.45428H6.57008H6.68587H6.80166H6.91746H7.03325H7.14904H7.26484H7.38063H7.49642H7.61222H7.72801H7.8438H7.9596H8.07539H8.19118H8.30698H8.42277H8.53856H8.65436H8.77015H8.88594H9.00174H9.11753H9.23332H9.34912H9.46491H9.5807H9.6965H9.81229H9.92808H10.0439H10.1597H10.2755H10.3913H10.507H10.6228H10.7386H10.8544H10.9702H11.086H11.2018H11.3176H11.4333H11.5491H11.6649H11.7807H11.8965H12.0123H12.1281H12.2439H12.3597H12.4755H12.5913H12.7071H12.8229H12.9387H13.0545H13.1702H13.286H13.4018H13.5176H13.6334H13.7492H13.865H13.9808H14.0966H14.2124H14.3282H14.444H14.5598H14.6756H14.7914H14.9071H15.0229H15.1387H15.2545H15.3703H15.4861H15.6019H15.7177H15.8335H15.9493H16.0651H16.1809H16.2967H16.4125H16.5283H16.644H16.7598H16.8756H16.9914H17.1072H17.223H17.3388H17.4546H17.5704H17.6862H17.802H17.9178H18.0336H18.1494H18.2652H18.3809H18.4967H18.6125H18.7283H18.8441H18.9599H19.0757H19.1915H19.3073H19.4231H19.5389H19.6547H19.7705H19.8863H20.0021H20.1178H20.2336H20.3494H20.4652H20.581H20.6968H20.8126H20.9284H21.0442H21.16H21.2758H21.3916H21.5074H21.6232H21.739H21.8547H21.9705H22.0863H22.2021H22.3179H22.4337H22.5495H22.6653H22.7811H22.8969H23.0127H23.1285H23.2443H23.3601H23.4759H23.5916H23.7074H23.8232H23.939H24.0548H24.1706H24.2864H24.4022H24.518H24.6338H24.7496H24.8654H24.9812H25.097H25.2128H25.3285H25.4443H25.5601H25.6759H25.7917H25.9075H26.0233H26.1391H26.2549H26.3707H26.4865H26.6023H26.7181H26.8339H26.9497H27.0654H27.1812H27.297H27.4128H27.5286H27.6444H27.7602H27.876H27.9918H28.1076H28.2234H28.3392H28.455H28.5708H28.6866H28.8023L28.9181 105.015L29.0339 105.494L29.1497 105.351L29.2655 105.542H29.3813L29.4971 105.398L29.6129 105.351L29.7287 105.207L29.8445 105.446L29.9603 105.494H30.0761L30.1919 105.063L30.3077 104.92L30.4235 104.728L30.5392 105.159H30.655L30.7708 105.063L30.8866 105.351L31.0024 105.159L31.1182 105.303L31.234 105.446L31.3498 105.015L31.4656 105.542H31.5814H31.6972L31.813 105.446L31.9288 105.59L32.0446 105.398L32.1603 105.446L32.2761 105.494H32.3919L32.5077 105.351L32.6235 105.494H32.7393L32.8551 105.542L32.9709 105.207L33.0868 105.59L33.2025 105.542H33.3183L33.4342 105.446L33.5499 105.59H33.6657L33.7815 105.446L33.8974 105.542L34.0131 105.303H34.1288H34.2446L34.3605 105.494L34.4762 105.542L34.592 105.59L34.7078 105.542L34.8237 105.494L34.9394 105.542L35.0552 105.446L35.171 105.542L35.2868 105.446L35.4026 105.59L35.5184 105.446L35.6343 105.59H35.75H35.8657L35.9815 105.494L36.0973 105.446L36.2132 105.398L36.3289 105.542H36.4447H36.5606H36.6763L36.7921 105.446L36.9079 105.351L37.0238 105.494H37.1395L37.2553 105.59L37.3711 105.542L37.4869 105.494H37.6026H37.7184L37.8342 105.542H37.9501L38.0658 105.494L38.1816 105.542H38.2974L38.4132 105.351L38.529 105.542L38.6448 105.446H38.7607H38.8764L38.9922 105.542H39.108L39.2237 105.494L39.3396 105.59L39.4553 105.542L39.5711 105.59H39.687H39.8027L39.9185 105.542L40.0343 105.303L40.1502 105.494L40.2659 105.446L40.3817 105.542H40.4975L40.6133 105.59L40.7291 105.446L40.8448 105.494L40.9606 105.303L41.0765 105.542L41.1922 105.398L41.308 105.494L41.4238 105.59L41.5396 105.542H41.6554L41.7712 105.303L41.8871 105.063L42.0028 105.398L42.1186 105.542L42.2344 105.398L42.3503 105.446L42.466 105.494L42.5818 105.398H42.6975L42.8134 105.446L42.9291 105.59L43.0449 105.446L43.1607 105.303L43.2766 105.494L43.3923 105.446H43.5081L43.6239 105.494L43.7397 105.303L43.8555 105.542L43.9713 105.446L44.0872 105.542L44.2029 105.59L44.3186 103.866L44.4344 105.255L44.5502 104.393L44.666 105.59L44.7818 105.351L44.8976 105.446L45.0135 105.255L45.1292 105.398L45.245 105.542L45.3608 105.59H45.4767L45.5924 105.446H45.7082L45.8241 105.542L45.9398 105.494L46.0556 105.303L46.1713 105.542H46.2871L46.403 105.446L46.5187 105.542L46.6345 105.351L46.7503 105.111L46.8661 105.398L46.9819 105.59H47.0977H47.2136L47.3293 105.494L47.4451 105.398L47.5609 105.59L47.6768 105.542L47.7924 105.59L47.9082 105.398L48.024 105.494L48.1399 105.542H48.2556L48.3714 105.398L48.4872 105.542L48.6031 105.494L48.7188 105.59H48.8346L48.9505 105.542L49.0662 105.494L49.182 104.441L49.2978 105.303L49.4137 105.542L49.5294 105.494L49.6451 105.542L49.7609 105.255L49.8767 105.494L49.9925 105.446L50.1083 105.59L50.2241 105.542L50.34 105.59H50.4557H50.5715L50.6873 105.542H50.8032L50.9189 105.446L51.0347 105.494H51.1506L51.2663 105.542H51.382L51.4978 105.494L51.6136 105.542L51.7295 105.446L51.8452 105.59L51.961 105.542L52.0769 105.59H52.1926L52.3084 105.494L52.4242 105.542L52.5401 105.59H52.6558H52.7716H52.8874L53.0031 105.542L53.1189 104.872L53.2347 105.398L53.3505 105.59H53.4664H53.5821L53.6979 105.494L53.8137 105.351L53.9296 105.542H54.0453L54.1611 105.494H54.277L54.3927 105.59L54.5085 105.398H54.6243L54.7402 105.494L54.8559 105.542L54.9716 105.446L55.0874 105.59L55.2033 105.446L55.319 105.351L55.4348 105.303L55.5506 105.398L55.6665 105.494H55.7822L55.898 105.351L56.0138 105.542L56.1297 105.351L56.2454 105.59L56.3612 105.398L56.4769 105.446L56.5928 105.494H56.7085L56.8243 105.542H56.9401L57.056 105.494L57.1717 105.542L57.2875 105.207L57.4034 105.398L57.5191 105.542H57.6349L57.7507 105.494L57.8666 105.398H57.9823L58.0981 105.542H58.2138L58.3297 105.59H58.4454L58.5612 105.494L58.677 105.351L58.7929 105.494H58.9086L59.0244 105.542L59.1402 105.59L59.2561 104.776L59.3718 104.968L59.4876 105.446L59.6035 105.59L59.7192 105.207L59.835 105.59H59.9507H60.0665L60.1824 105.494L60.2981 105.542H60.4139L60.5298 105.494L60.6455 105.59H60.7613H60.8771H60.993L61.1087 105.351L61.2245 105.59H61.3403L61.4562 105.494L61.5719 105.398L61.6876 105.494H61.8034L61.9193 105.159L62.035 105.111L62.1508 105.59H62.2666H62.3825H62.4982L62.614 105.446L62.7299 105.255L62.8456 105.542L62.9614 105.494H63.0772L63.1931 105.59L63.3088 105.398L63.4246 105.351L63.5403 105.207L63.6562 105.59L63.7719 105.446L63.8877 105.159L64.0035 105.59L64.1194 105.111L64.2351 105.398L64.3509 105.111L64.4667 105.398H64.5826L64.6983 105.494L64.8141 105.398L64.9299 105.59L65.0457 105.542L65.1614 105.494L65.2773 105.59L65.3931 105.446L65.5089 105.159L65.6246 105.542L65.7404 105.015L65.8562 105.542L65.972 104.92L66.0879 105.111L66.2037 105.255L66.3195 105.494L66.4352 105.398L66.551 105.494L66.6668 105.207L66.7826 105.303L66.8983 105.351L67.0142 105.446L67.13 105.494L67.2458 105.542L67.3615 105.59L67.4773 105.494H67.5931L67.7089 105.111L67.8248 105.255L67.9406 105.398L68.0564 105.446L68.1721 105.59L68.2879 105.446L68.4037 105.351L68.5195 105.494H68.6352L68.751 105.303L68.8669 105.542L68.9827 105.59H69.0984L69.2142 105.111L69.33 105.398L69.4458 105.542L69.5616 105.398L69.6775 105.207L69.7933 105.494L69.909 105.303L70.0248 105.351L70.1406 105.303L70.2564 105.59L70.3721 105.494L70.4879 105.446L70.6038 105.494H70.7196L70.8354 105.303L70.9511 105.494L71.0669 105.351H71.1827L71.2985 105.446H71.4144L71.5302 105.494L71.646 105.015L71.7617 105.494L71.8775 105.111L71.9933 105.398H72.1091H72.2248L72.3407 105.494L72.4565 105.303L72.5723 105.015L72.688 104.872L72.8038 105.159L72.9196 105.351L73.0354 105.159L73.1513 105.398L73.2671 105.446L73.3829 105.351L73.4986 104.824L73.6144 104.92L73.7302 105.494L73.8459 105.59L73.9617 105.303L74.0776 104.249L74.1934 105.351L74.3092 105.398L74.4249 105.446L74.5407 105.351H74.6565L74.7723 104.968L74.8881 105.446L75.004 105.542H75.1198L75.2355 105.351L75.3513 105.398L75.4671 105.351L75.5828 105.494L75.6986 105.398L75.8144 105.207L75.9303 105.351L76.0461 105.494L76.1618 105.542L76.2776 105.446L76.3934 105.255L76.5092 105.351L76.625 105.063L76.7409 105.111L76.8567 104.872L76.9725 105.494L77.0882 105.446L77.204 105.063L77.3197 104.728L77.4355 103.579L77.5513 105.255L77.6672 105.111L77.783 105.494L77.8988 105.542L78.0145 105.351L78.1303 105.015L78.2461 105.351L78.3619 105.159L78.4778 105.015L78.5936 105.255L78.7094 105.351L78.8251 104.68L78.9409 104.92L79.0566 104.968L79.1724 105.207L79.2882 105.063L79.4041 105.398L79.5199 105.255L79.6357 105.446L79.7514 105.207L79.8672 105.255L79.983 105.207L80.0988 105.111H80.2146L80.3305 105.207L80.4463 104.537L80.562 104.92L80.6778 104.632L80.7935 105.159L80.9093 104.968L81.0251 105.255L81.1409 105.59L81.2568 104.058L81.3726 105.255L81.4883 104.728L81.6041 104.776L81.7199 104.68L81.8357 105.207L81.9515 105.063L82.0674 104.92L82.1832 104.824L82.299 104.68L82.4146 104.632L82.5304 105.159L82.6462 105.015L82.762 104.92L82.8778 103.818L82.9937 104.154L83.1095 105.207L83.2253 104.201L83.341 105.111L83.4568 105.255L83.5726 104.058L83.6884 104.728L83.8043 104.106L83.9201 104.201L84.0359 104.968L84.1516 104.776H84.2673L84.3831 104.92L84.4989 104.249L84.6147 103.866L84.7306 104.68L84.8464 104.345L84.9622 104.68L85.0779 104.393L85.1937 104.154L85.3095 104.01L85.4253 103.531L85.5411 104.393L85.657 104.728L85.7728 104.154L85.8885 104.489L86.0043 105.063L86.12 104.728L86.2358 103.962L86.3516 104.872L86.4674 104.441L86.5833 105.015L86.6991 104.776L86.8148 104.489L86.9306 104.01L87.0464 104.106L87.1622 103.866L87.278 104.01L87.3939 104.106L87.5097 104.441L87.6255 104.776L87.7411 104.106L87.8569 103.723L87.9727 104.393L88.0885 104.297L88.2043 104.632L88.3202 104.968L88.436 104.058L88.5518 104.201L88.6675 104.106L88.7833 104.01L88.8991 103.818L89.0149 103.34L89.1308 104.154L89.2466 103.627L89.3624 103.052L89.4781 104.249L89.5938 103.723L89.7096 102.621L89.8254 103.483L89.9412 104.058L90.0571 104.249L90.1729 104.489L90.2887 104.297L90.4044 103.962L90.5202 103.77L90.636 103.483L90.7518 103.627L90.8676 103.818L90.9835 104.297L91.0992 103.675L91.215 103.77L91.3307 103.34L91.4465 103.723L91.5623 103.962L91.6781 104.154L91.7939 103.531L91.9098 103.004L92.0256 103.627L92.1413 103.531L92.2571 104.249L92.3729 104.584L92.4887 104.297L92.6045 103.818L92.7204 104.345L92.8362 103.483L92.9519 103.387L93.0676 102.765L93.1834 103.866L93.2992 105.494L93.415 103.531L93.5308 102.669L93.6467 104.106L93.7625 103.818L93.8783 103.627L93.994 103.962L94.1098 103.77L94.2256 103.723L94.3414 103.579L94.4573 103.004L94.5731 104.01L94.6889 102.813L94.8046 103.818L94.9203 103.77L95.0361 103.866L95.1519 103.052L95.2677 103.723L95.3836 102.669L95.4994 103.196L95.6152 103.387L95.7309 104.058L95.8467 102.238L95.9625 103.244L96.0783 103.1L96.1942 102.717L96.31 102.238L96.4257 103.196L96.5415 102.909L96.6572 101.281L96.773 102.19L96.8888 101.999L97.0046 102.621L97.1204 102.956L97.2363 104.345L97.3521 103.914L97.4678 102.286L97.5836 102.095L97.6994 103.196L97.8152 103.292L97.931 102.382L98.0469 104.106L98.1626 102.909L98.2784 102.286L98.3941 101.376L98.5099 101.903L98.6257 101.376L98.7415 101.855L98.8573 103.675L98.9732 103.387L99.089 101.52L99.2048 101.712L99.3205 101.999L99.4363 101.903L99.5521 102.047L99.6679 102.956L99.7836 101.759L99.8995 102.669L100.015 102.095L100.131 101.233L100.247 101.185L100.363 101.807L100.478 102.717L100.594 103.1L100.71 102.956L100.826 102.909L100.942 104.106L101.058 103.387L101.173 103.292L101.289 104.393L101.405 102.238L101.521 101.376L101.637 102.813L101.752 101.233L101.868 101.137L101.984 102.047L102.1 103.579L102.216 102.047L102.331 102.095L102.447 101.616L102.563 103.1L102.679 102.047L102.795 103.196L102.91 103.148L103.026 103.004L103.142 101.712L103.258 102.286L103.374 100.562L103.489 101.712L103.605 102.382L103.721 102.526L103.837 102.909L103.953 103.292L104.068 103.387L104.184 102.813H104.3L104.416 102.43L104.531 103.052L104.647 102.286H104.763L104.879 101.951L104.995 102.669L105.11 103.196L105.226 101.137L105.342 101.424L105.458 100.61L105.574 102.286L105.689 101.233L105.805 101.041L105.921 100.85L106.037 99.8918L106.153 100.371L106.268 102.478L106.384 100.945L106.5 100.227L106.616 99.8918L106.732 100.658L106.847 100.227L106.963 101.281L107.079 101.807L107.195 99.7482L107.311 97.8808L107.426 99.0778L107.542 100.658L107.658 99.413L107.774 99.4609L107.889 99.0299L108.005 97.785L108.121 98.7427L108.237 98.9342L108.353 98.9821L108.468 98.6948L108.584 101.472L108.7 100.945L108.816 98.2638L108.932 98.7427L109.047 97.1147L109.163 98.9342L109.279 97.9287L109.395 101.281L109.511 100.466L109.626 99.6045L109.742 98.4075L109.858 99.4609L109.974 99.3651L110.09 99.9876L110.205 102.382L110.321 99.8439L110.437 95.6782L110.553 97.9765L110.669 97.4498L110.784 99.7003L110.9 100.466L111.016 100.754L111.132 99.6045L111.247 99.0299L111.363 98.3596L111.479 99.6524L111.595 99.5088L111.711 99.7003L111.826 100.131L111.942 100.754L112.058 98.5511L112.174 99.0299H112.29L112.405 99.6045L112.521 99.0299L112.637 100.562L112.753 101.999L112.869 98.9821L112.984 99.4609L113.1 100.036L113.216 100.227L113.332 98.7905L113.448 102.047L113.563 102.095L113.679 97.402L113.795 98.4075L113.911 97.3541L114.027 99.7003L114.142 99.9397L114.258 101.233L114.374 101.903L114.49 98.0723L114.606 96.7316L114.721 97.1147L114.837 99.5088L114.953 99.1257L115.069 100.61L115.184 99.7961L115.3 97.0668L115.416 96.588L115.532 99.6045L115.648 98.6948L115.763 100.61L115.879 100.419L115.995 99.3172L116.111 97.7371L116.227 98.6469L116.342 99.4609L116.458 98.7427L116.574 99.7482L116.69 102.095L116.806 102.047L116.921 98.1202L117.037 98.0244L117.153 99.5088L117.269 98.8863L117.385 99.3651L117.5 102.526L117.616 101.137L117.732 98.5032L117.848 99.1257L117.964 98.6469L118.079 99.413L118.195 99.8439L118.311 101.472L118.427 100.802L118.542 97.6892L118.658 98.6948L118.774 100.945L118.89 100.993L119.006 99.2215L119.121 101.568L119.237 102.095L119.353 98.7905L119.469 98.9342L119.585 100.083L119.7 98.5032L119.816 99.5567L119.932 100.754L120.048 100.371L120.164 97.2104L120.279 97.8329L120.395 96.4443L120.511 98.9342L120.627 98.6948L120.743 101.089L120.858 100.754L120.974 98.1202L121.09 99.8918L121.206 98.599L121.322 99.5088L121.437 98.1202L121.553 101.089L121.669 100.898L121.785 97.4498L121.9 98.0244L122.016 96.5401L122.132 96.0134L122.248 97.9765L122.364 99.7003L122.479 100.514L122.595 95.3909L122.711 93.1404L122.827 95.1036L122.943 94.4811L123.058 97.9765L123.174 100.371L123.29 101.281L123.406 98.2159L123.522 96.7316L123.637 95.6782L123.753 94.146L123.869 94.1938L123.985 99.7482L124.101 102.095L124.216 94.9121L124.332 94.7684L124.448 95.8697L124.564 97.5456L124.68 97.8329L124.795 102.43L124.911 101.807L125.027 100.371L125.143 96.7795L125.258 97.7371L125.374 92.9968L125.49 97.5935L125.606 100.514L125.722 99.413L125.837 93.715L125.953 96.7316L126.069 96.2049L126.185 97.9287L126.301 98.3596L126.416 102.909L126.532 103.148L126.648 91.5603L126.764 94.2417L126.88 98.2159L126.995 91.5603L127.111 93.7629L127.227 98.7427L127.343 100.562L127.459 98.0244L127.574 95.8697L127.69 96.0134L127.806 98.0723L127.922 99.3172L128.038 101.089L128.153 98.8384L128.269 97.6892H128.385L128.501 98.3596L128.616 99.8918L128.732 99.9876L128.848 100.514L128.964 101.328L129.08 99.2215L129.195 99.5567L129.311 102.095L129.427 100.514L129.543 99.7482L129.659 100.993L129.774 102.047L129.89 99.8439L130.006 100.61L130.122 100.419L130.238 99.8439L130.353 101.089L130.469 101.712L130.585 100.658L130.701 98.0244L130.817 98.7905L130.932 100.514L131.048 99.0778L131.164 100.036L131.28 101.233L131.396 102.909L131.511 100.036L131.627 98.8384L131.743 98.4075L131.859 98.5511L131.975 97.5456L132.09 101.472L132.206 101.185L132.322 98.1202L132.438 99.3172L132.553 99.7961L132.669 98.6948L132.785 99.3172L132.901 101.807L133.017 100.802L133.132 99.2215L133.248 99.3172L133.364 99.9876L133.48 100.323L133.596 100.754L133.711 102.382L133.827 102.669L133.943 99.7961L134.059 99.7482L134.175 100.036L134.29 99.3651L134.406 100.227L134.522 103.052L134.638 101.424L134.754 100.275L134.869 100.754L134.985 98.9821L135.101 100.036L135.217 99.7003L135.333 101.233L135.448 100.85L135.564 99.7003L135.68 100.227L135.796 100.85L135.911 100.706L136.027 101.328L136.143 102.573H136.259L136.375 100.179L136.49 99.8439L136.606 100.802L136.722 99.3651L136.838 101.137L136.954 102.19L137.069 102.478L137.185 99.0778L137.301 99.7003L137.417 100.658L137.533 100.945L137.648 100.754L137.764 102.813L137.88 102.573L137.996 99.0299L138.112 99.5567L138.227 99.2694L138.343 100.371L138.459 98.599L138.575 102.19L138.691 99.3651L138.806 98.9821L138.922 97.9765L139.038 99.6045L139.154 99.3651L139.269 99.1257L139.385 101.999L139.501 101.376L139.617 98.6948L139.733 96.7316L139.848 98.7905L139.964 98.5032L140.08 99.7961L140.196 102.047L140.312 102.621L140.427 99.6045L140.543 100.275L140.659 100.083L140.775 99.4609L140.891 99.413L141.006 101.712L141.122 102.095L141.238 100.993L141.354 101.52L141.47 100.514L141.585 101.472L141.701 102.334L141.817 103.723L141.933 103.052L142.049 100.371L142.164 99.8918L142.28 101.328L142.396 101.281L142.512 99.5567L142.627 101.903L142.743 102.669L142.859 100.179L142.975 99.4609L143.091 100.85L143.206 100.275L143.322 101.472L143.438 102.526L143.554 103.34L143.67 100.275L143.785 102.095L143.901 101.328H144.017L144.133 100.275L144.249 102.142H144.364L144.48 98.8863L144.596 99.6524L144.712 100.083L144.828 101.759L144.943 102.526L145.059 103.723L145.175 104.345L145.291 103.052L145.407 103.1L145.522 102.095L145.638 102.047L145.754 102.334L145.87 103.34L145.985 103.723L146.101 104.441L146.217 103.34L146.333 103.004L146.449 101.712L146.564 102.286L146.68 103.579L146.796 103.723L146.912 101.759H147.028L147.143 101.712L147.259 101.807L147.375 102.238L147.491 103.148L147.607 103.962L147.722 101.712L147.838 101.999L147.954 102.765L148.07 101.855L148.186 102.861L148.301 102.526L148.417 103.77L148.533 101.233L148.649 102.142L148.765 100.179L148.88 102.717L148.996 102.43L149.112 103.148L149.228 103.531L149.344 101.472L149.459 102.142L149.575 102.286L149.691 102.573L149.807 102.813L149.922 103.962L150.038 103.77L150.154 102.526L150.27 101.999L150.386 103.244L150.501 102.717L150.617 102.621L150.733 104.154L150.849 103.435L150.965 102.095L151.08 102.142L151.196 102.286L151.312 102.43L151.428 101.616L151.544 103.962L151.659 103.579L151.775 102.382L151.891 97.9765L152.007 102.621L152.123 100.466L152.238 100.658L152.354 103.435L152.47 101.855L152.586 101.472L152.702 101.807L152.817 103.531L152.933 102.334L153.049 100.802L153.165 103.818L153.28 103.483L153.396 102.095L153.512 101.903L153.628 101.951L153.744 102.669L153.859 103.196L153.975 103.627L154.091 103.004L154.207 101.424L154.323 102.861L154.438 101.568L154.554 101.951L154.67 101.712L154.786 103.387L154.902 103.77L155.017 101.137L155.133 102.861L155.249 101.376L155.365 101.185L155.481 101.664L155.596 103.387L155.712 103.579L155.828 101.903L155.944 102.334L156.06 101.664L156.175 101.52L156.291 101.951L156.407 104.489L156.523 103.052L156.638 100.61L156.754 102.142L156.87 102.286H156.986L157.102 101.951L157.217 104.489L157.333 103.914L157.449 101.52L157.565 103.1L157.681 102.478L157.796 101.185L157.912 102.19L158.028 103.34L158.144 104.249L158.26 100.993L158.375 101.568L158.491 101.376L158.607 101.759L158.723 102.334L158.839 103.34L158.954 104.01L159.07 101.807L159.186 101.137L159.302 102.573L159.418 101.999H159.533L159.649 103.962L159.765 104.249L159.881 101.807L159.996 101.281L160.112 103.34L160.228 100.898L160.344 102.669L160.46 104.058L160.575 103.531L160.691 102.334L160.807 101.041L160.923 102.286L161.039 100.083L161.154 102.43L161.27 103.866L161.386 104.632L161.502 102.238L161.618 102.956L161.733 102.142L161.849 102.909H161.965L162.081 103.675L162.197 103.866L162.312 101.041L162.428 102.19L162.544 102.334L162.66 101.137L162.776 102.334L162.891 103.004L163.007 104.154L163.123 102.382L163.239 102.286L163.354 101.472L163.47 102.286L163.586 101.568L163.702 104.201L163.818 104.106L163.933 103.148L164.049 99.0299L164.165 102.238L164.281 102.669L164.397 103.196L164.512 104.489L164.628 104.01L164.744 101.376L164.86 102.334L164.976 100.945L165.091 102.142L165.207 101.664L165.323 103.34L165.439 104.393L165.555 101.903L165.67 101.568L165.786 102.334L165.902 102.621L166.018 101.999L166.134 103.675L166.249 102.669L166.365 102.382L166.481 102.669L166.597 101.999L166.713 101.376L166.828 101.712L166.944 102.717L167.06 103.962L167.176 102.095L167.291 101.855L167.407 101.424L167.523 102.095L167.639 102.861L167.755 103.435L167.87 103.818L167.986 101.903L168.102 101.472L168.218 101.712L168.334 101.568L168.449 101.185L168.565 103.723L168.681 102.861L168.797 102.573L168.913 102.956L169.028 101.424L169.144 100.945L169.26 100.227L169.376 102.909L169.492 103.866L169.607 101.712L169.723 102.286L169.839 102.909L169.955 102.047L170.071 102.142L170.186 103.579L170.302 104.201L170.418 102.286L170.534 102.861L170.649 101.903L170.765 101.999L170.881 102.478L170.997 103.627L171.113 103.77L171.228 101.137L171.344 101.233L171.46 102.478L171.576 101.472L171.692 102.142L171.807 102.43L171.923 103.818L172.039 102.43L172.155 101.041L172.271 101.616L172.386 101.807L172.502 101.52L172.618 103.483L172.734 103.818L172.85 102.382L172.965 102.526L173.081 101.807L173.197 101.281L173.313 102.382L173.429 103.148L173.544 104.297L173.66 102.19L173.776 102.286L173.892 101.568L174.007 99.8918L174.123 103.292L174.239 103.818L174.355 104.249L174.471 102.717L174.586 101.52L174.702 102.334L174.818 102.142L174.934 101.759L175.05 103.675L175.165 103.962L175.281 102.334L175.397 102.956L175.513 102.334L175.629 103.675L175.744 103.483L175.86 104.106L175.976 104.297L176.092 102.573L176.208 102.621L176.323 101.855L176.439 103.292L176.555 102.717L176.671 103.052L176.787 103.579L176.902 102.478L177.018 102.19L177.134 103.004L177.25 101.472L177.365 102.095L177.481 104.01L177.597 103.435L177.713 102.765L177.829 102.573L177.944 102.19L178.06 102.621L178.176 102.813L178.292 103.196L178.408 103.387L178.523 102.286L178.639 101.568L178.755 102.095L178.871 101.999L178.987 101.951L179.102 102.142L179.218 102.956L179.334 100.993L179.45 99.1736L179.566 101.712L179.681 102.19L179.797 101.951L179.913 103.866L180.029 104.249L180.145 100.898L180.26 100.083L180.376 101.52L180.492 101.137L180.608 101.807L180.723 103.196L180.839 102.047L180.955 101.855L181.071 102.526L181.187 101.185L181.302 101.424L181.418 102.334L181.534 102.382L181.65 104.01L181.766 101.664L181.881 102.717L181.997 101.472H182.113L182.229 101.328L182.345 103.723L182.46 103.579L182.576 101.281L182.692 101.999L182.808 102.286L182.924 100.083L183.039 101.041L183.155 102.956L183.271 103.435L183.387 100.131L183.503 101.328L183.618 101.424L183.734 101.999L183.85 102.334L183.966 102.909L184.082 104.01L184.197 101.903L184.313 102.478L184.429 101.472L184.545 102.095L184.66 101.807L184.776 104.201L184.892 103.435L185.008 101.281L185.124 101.903L185.239 103.483L185.355 100.562L185.471 102.238L185.587 104.01L185.703 103.531L185.818 102.526L185.934 102.238L186.05 102.19L186.166 101.424L186.282 96.5401L186.397 99.9876L186.513 104.058L186.629 101.951L186.745 97.5935L186.861 101.616L186.976 101.233L187.092 103.196H187.208L187.324 104.249L187.44 101.759L187.555 103.435L187.671 104.058L187.787 102.621L187.903 102.286L188.018 104.058L188.134 104.537L188.25 103.483L188.366 103.435L188.482 104.201L188.597 102.717L188.713 103.052L188.829 103.818L188.945 104.824L189.061 103.723L189.176 101.664L189.292 101.376L189.408 102.813L189.524 103.148L189.64 104.058L189.755 104.872L189.871 101.185L189.987 102.142L190.103 101.376L190.219 102.047L190.334 103.387L190.45 104.297L190.566 104.201L190.682 101.951L190.798 102.286L190.913 101.472L191.029 103.004L191.145 103.675L191.261 103.531L191.376 103.435L191.492 103.196L191.608 102.047L191.724 102.813L191.84 101.376L191.955 103.531L192.071 103.1L192.187 103.196L192.303 103.148L192.419 100.802L192.534 102.382L192.65 102.478L192.766 101.855L192.882 103.866L192.998 104.297L193.113 101.185L193.229 101.951L193.345 102.142L193.461 101.903L193.577 102.286L193.692 103.627L193.808 103.387L193.924 101.328L194.04 102.238L194.156 101.233L194.271 100.754L194.387 103.531L194.503 103.77L194.619 104.393L194.734 101.616L194.85 101.807L194.966 101.52L195.082 102.142L195.198 103.292L195.313 103.196L195.429 102.765L195.545 102.478L195.661 102.095L195.777 101.855L195.892 102.238L196.008 102.956L196.124 103.483L196.24 102.765L196.356 102.813L196.471 101.281L196.587 102.669L196.703 104.68L196.819 103.483L196.935 102.669L197.05 103.77L197.166 101.759L197.282 102.238L197.398 102.621L197.514 102.238L197.629 102.669L197.745 104.058L197.861 102.382L197.977 102.526L198.092 102.573L198.208 102.047L198.324 101.807L198.44 101.472L198.556 101.281L198.671 103.004L198.787 101.281L198.903 100.371L199.019 101.712L199.135 101.424L199.25 102.19L199.366 103.962L199.482 104.058L199.598 102.238L199.714 100.945L199.829 100.323L199.945 102.142L200.061 103.004L200.177 103.77L200.293 103.675L200.408 102.526L200.524 101.472L200.64 102.765L200.756 102.286L200.872 100.658L200.987 102.19L201.103 102.142L201.219 103.292L201.335 100.514L201.451 101.52L201.566 102.382L201.682 101.759L201.798 103.531L201.914 102.909L202.029 100.371L202.145 99.7003L202.261 102.382L202.377 100.993L202.493 102.621L202.608 103.435L202.724 103.531L202.84 102.813L202.956 102.526L203.072 101.472L203.187 101.759L203.303 101.472L203.419 103.387L203.535 102.956L203.651 101.951H203.766L203.882 102.142L203.998 102.095L204.114 101.807L204.23 102.669L204.345 103.004L204.461 102.526L204.577 101.951L204.693 101.616L204.809 102.43L204.924 103.1L205.04 102.813L205.156 103.531L205.272 102.43L205.387 102.669L205.503 102.047L205.619 100.706L205.735 102.334L205.851 102.142L205.966 102.909L206.082 101.089L206.198 102.095L206.314 100.706L206.43 101.903L206.545 101.52L206.661 103.723L206.777 103.531L206.893 101.424L207.009 101.233L207.124 102.478L207.24 101.568L207.356 101.903L207.472 102.526L207.588 104.106L207.703 101.807L207.819 100.993L207.935 101.137L208.051 100.993L208.167 101.999L208.282 102.956L208.398 103.244L208.514 102.286L208.63 101.712L208.745 101.616L208.861 101.376L208.977 102.478L209.093 102.813L209.209 103.148L209.324 101.041L209.44 99.7961L209.556 100.466L209.672 100.706L209.788 102.334L209.903 101.807L210.019 102.095L210.135 100.802L210.251 101.376L210.367 101.472L210.482 100.754L210.598 101.424L210.714 102.047L210.83 102.238L210.946 101.712L211.061 100.466L211.177 102.669L211.293 101.472L211.409 100.466L211.525 103.387L211.64 102.573L211.756 101.041L211.872 102.142L211.988 101.472L212.103 101.185L212.219 101.089L212.335 102.909L212.451 102.573L212.567 100.419L212.682 100.371L212.798 101.137L212.914 100.419L213.03 98.6469L213.146 100.419L213.261 100.898L213.377 99.3651L213.493 99.4609L213.609 98.6469L213.725 97.5935L213.84 100.993L213.956 102.334L214.072 102.621L214.188 100.514L214.304 99.413L214.419 100.658L214.535 100.036L214.651 101.712L214.767 100.466L214.883 101.807L214.998 98.8384L215.114 99.5088L215.23 98.6469L215.346 99.413L215.461 99.5567L215.577 100.514L215.693 100.275L215.809 98.4075L215.925 97.402L216.04 96.2528L216.156 96.6358L216.272 97.4977L216.388 99.9397L216.504 101.185L216.619 96.5401L216.735 97.0668L216.851 95.6782L216.967 94.1938L217.083 93.4277L217.198 97.3541L217.314 97.1625L217.43 93.4756L217.546 93.715L217.662 91.6082L217.777 95.9655L217.893 93.8108L218.009 97.5456L218.125 97.8808L218.241 96.2528L218.356 93.9066L218.472 95.4388L218.588 100.706L218.704 94.6248L218.82 94.0023L218.935 96.7316L219.051 92.5659L219.167 93.5235L219.283 92.087L219.398 90.7942L219.514 93.6671L219.63 94.3854L219.746 96.7316L219.862 93.9066L219.977 93.7629L220.093 91.1294L220.209 91.9434L220.325 95.7261L220.441 94.2896L220.556 96.0134L220.672 94.8163L220.788 95.1515L220.904 93.1404L221.02 94.0502L221.135 92.901L221.251 96.3964L221.367 94.6727L221.483 92.8053L221.599 92.901L221.714 91.5603L221.83 91.3688L221.946 91.4167L222.062 92.901L222.178 94.3854L222.293 92.2307L222.409 88.5438L222.525 88.7832L222.641 88.0171L222.756 87.8734L222.872 90.2675L222.988 90.7942L223.104 88.6874L223.22 89.3099L223.335 92.3743L223.451 87.0594L223.567 92.7574L223.683 94.7684L223.799 92.5659L223.914 91.3688L224.03 89.4056L224.146 88.4959L224.262 91.3209L224.378 91.6561L224.493 98.1202L224.609 91.704L224.725 90.7942L224.841 90.5548L224.957 94.8642L225.072 88.9747L225.188 93.8587L225.304 93.8108L225.42 94.7206L225.536 92.9489L225.651 93.0447L225.767 91.4167L225.883 93.2841L225.999 95.774L226.114 98.2638L226.23 98.0244L226.346 95.7261L226.462 95.4867L226.578 94.6248L226.693 96.7316L226.809 93.8587L226.925 94.8163L227.041 95.4867L227.157 94.8642L227.272 91.7519L227.388 88.8789L227.504 93.332L227.62 94.6727L227.736 98.0244L227.851 96.3485L227.967 94.146L228.083 97.2583L228.199 96.8752L228.315 93.5714L228.43 94.6248L228.546 97.4498L228.662 97.402L228.778 94.1938L228.894 93.8587L229.009 87.8734L229.125 95.1036L229.241 92.7095L229.357 96.8752L229.472 96.3964L229.588 94.529L229.704 94.8642L229.82 96.2528L229.936 95.1994L230.051 99.2694L230.167 100.61L230.283 98.2159L230.399 98.3596L230.515 94.7684L230.63 97.5456L230.746 95.8697L230.862 102.047L230.978 100.036L231.094 100.466L231.209 99.9876L231.325 98.2638L231.441 98.9342L231.557 96.7795L231.673 99.0778L231.788 97.1625L231.904 98.5032L232.02 97.5456L232.136 96.2528L232.252 92.518L232.367 96.971L232.483 95.8697L232.599 98.0244L232.715 99.3651L232.83 97.8808L232.946 96.5401L233.062 96.1091L233.178 98.3117L233.294 95.6303L233.409 99.1257L233.525 98.599L233.641 98.7905L233.757 91.8955L233.873 95.5824L233.988 97.6414L234.104 97.7371L234.22 99.3651L234.336 100.036L234.452 98.5032L234.567 96.0134L234.683 98.7427L234.799 99.3172L234.915 98.6948L235.031 100.083L235.146 97.785L235.262 100.85L235.378 99.5088L235.494 100.802L235.61 99.8918L235.725 100.514L235.841 101.999L235.957 100.658L236.073 99.413L236.189 99.9397L236.304 99.7003L236.42 96.3007L236.536 98.7427L236.652 102.095L236.767 100.466L236.883 101.376L236.999 98.3117L237.115 96.0134L237.231 97.9287L237.346 98.3117L237.462 98.6469L237.578 100.945L237.694 99.6045L237.81 97.9287L237.925 97.8808L238.041 97.5935L238.157 100.85L238.273 101.472L238.389 100.85L238.504 95.1036L238.62 100.706L238.736 97.6414L238.852 99.3172L238.968 101.328L239.083 102.286L239.199 100.993L239.315 100.275L239.431 101.472L239.547 99.0778L239.662 98.2638L239.778 98.599L239.894 101.041L240.01 100.131L240.125 96.0134L240.241 96.6837L240.357 98.9342L240.473 95.6782L240.589 98.1202L240.704 99.7482L240.82 98.9821L240.936 98.7427L241.052 96.8752L241.168 97.2583L241.283 98.7427L241.399 97.6892L241.515 99.9397L241.631 99.7961L241.747 99.0778L241.862 97.2104L241.978 96.3007H242.094L242.21 96.8274L242.326 99.9397L242.441 99.8439L242.557 96.588L242.673 97.4977L242.789 96.8274L242.905 93.2362L243.02 97.7371L243.136 101.712L243.252 101.759L243.368 96.9231L243.483 97.3062L243.599 94.529L243.715 93.1404L243.831 93.1883L243.947 93.6671L244.062 95.1515L244.178 92.4701L244.294 91.2252L244.41 92.3743L244.526 93.6671L244.641 92.901L244.757 98.1681L244.873 98.0244L244.989 99.0778L245.105 94.4811L245.22 96.1091L245.336 97.5935L245.452 92.7574L245.568 101.855L245.684 101.041L245.799 98.4554L245.915 96.6837H246.031L246.147 94.4811L246.263 90.1717L246.378 90.89L246.494 92.4701L246.61 89.7408L246.726 88.6874L246.841 99.3172L246.957 94.0981L247.073 94.6727L247.189 95.8697L247.305 100.036L247.42 92.3264L247.536 88.7353L247.652 91.5125L247.768 90.3633L247.884 91.5603L247.999 96.2528L248.115 93.0447L248.231 89.9802L248.347 86.4848L248.463 89.9802H248.578L248.694 92.5659L248.81 93.0926L248.926 90.3154L249.042 88.3522L249.157 89.5972L249.273 84.8568L249.389 87.1552L249.505 89.8845L249.621 92.9968H249.736L249.852 89.8366L249.968 89.5493L250.084 90.3154L250.199 92.4222L250.315 92.8531L250.431 96.7316L250.547 96.2528L250.663 94.529L250.778 92.1828L250.894 88.8789L251.01 91.704L251.126 88.6395L251.242 94.8163L251.357 94.7206L251.473 86.2454L251.589 89.7887L251.705 89.9802L251.821 88.448L251.936 86.82L252.052 92.3264L252.168 92.7095L252.284 89.5972L252.4 92.518L252.515 90.9858L252.631 91.9913L252.747 92.9968L252.863 95.4388L252.979 97.3541L253.094 91.5125L253.21 95.0078L253.326 91.3688L253.442 95.2951L253.557 95.3909L253.673 97.4977L253.789 97.2583L253.905 93.715L254.021 94.7206L254.136 95.8218L254.252 96.1091L254.368 95.4388L254.484 98.2159L254.6 99.8918L254.715 96.4922L254.831 93.6671L254.947 95.6303L255.063 92.901L255.179 95.343L255.294 99.413L255.41 99.6045L255.526 95.0557L255.642 94.6727L255.758 93.2362L255.873 98.2638L255.989 96.4922L256.105 98.7427L256.221 97.6892L256.337 95.6782L256.452 94.9121L256.568 92.1828L256.684 92.6616L256.8 95.0557L256.915 99.4609L257.031 99.5088L257.147 96.8274L257.263 93.2841L257.379 95.3909L257.494 95.774L257.61 95.8697L257.726 98.6469L257.842 98.1202L257.958 95.2473L258.073 100.419L258.189 95.3909L258.305 94.8163L258.421 98.2638L258.537 98.1681L258.652 99.7003L258.768 97.5935L258.884 93.5235L259 95.9176L259.116 93.0447L259.231 93.6671L259.347 97.6892L259.463 95.9655L259.579 95.2951L259.695 91.1773L259.81 94.8642L259.926 93.8587L260.042 93.4756L260.158 97.0189L260.274 98.2638L260.389 95.5346L260.505 91.4167L260.621 92.518L260.737 95.7261L260.852 95.1515L260.968 97.9287L261.084 95.1515L261.2 96.4443L261.316 93.6671L261.431 92.6137L261.547 93.6193L261.663 92.6616L261.779 96.1091L261.895 96.9231L262.01 95.8218L262.126 94.3854L262.242 92.6616L262.358 94.0023L262.474 94.9121L262.589 94.96L262.705 96.6837L262.821 97.402L262.937 97.0668L263.053 97.4977L263.168 95.0078L263.284 94.2896L263.4 96.157L263.516 96.4443L263.632 94.0502L263.747 91.7997L263.863 95.2951L263.979 96.4922L264.095 91.4167L264.21 93.715L264.326 95.2473L264.442 90.8421L264.558 90.3633L264.674 90.8421L264.789 91.2252L264.905 93.0926L265.021 96.4443L265.137 98.3117L265.253 94.3375L265.368 91.8955L265.484 94.6248L265.6 92.3264L265.716 92.8053L265.832 90.7463L265.947 94.7206L266.063 91.273L266.179 94.3854L266.295 91.9434L266.411 94.0023L266.526 91.9913L266.642 95.1036L266.758 95.9176L266.874 93.7629L266.99 89.9323L267.105 93.9066L267.221 88.6395L267.337 87.4904L267.453 91.6082L267.568 93.715L267.684 90.3633L267.8 91.5603L267.916 91.7997L268.032 94.0502L268.147 91.7519L268.263 95.9176L268.379 96.0134L268.495 94.4333L268.611 93.6671L268.726 91.6082L268.842 92.8531L268.958 92.5659L269.074 94.8163L269.19 94.96L269.305 92.2307L269.421 91.9434L269.537 92.6137L269.653 93.8587L269.769 92.6616L269.884 98.5511L270 97.6892L270.116 93.6193L270.232 90.7942L270.348 92.6137L270.463 92.3264L270.579 90.89L270.695 96.2049L270.811 95.6782L270.926 91.273L271.042 89.6929L271.158 90.459L271.274 91.0336L271.39 89.645L271.505 96.0134L271.621 96.4922L271.737 87.1552L271.853 88.8789L271.969 86.4369L272.084 89.9323L272.2 94.2417L272.316 99.4609L272.432 97.3541L272.548 93.1404L272.663 94.7684L272.779 96.6358L272.895 91.7997L273.011 95.343L273.127 97.6414L273.242 98.9342L273.358 96.4443L273.474 96.3485L273.59 93.6671L273.706 95.3909L273.821 96.0134L273.937 97.7371L274.053 97.9287L274.169 97.7371L274.284 94.1938L274.4 92.901L274.516 94.2896L274.632 94.9121L274.748 94.0502L274.863 94.8642L274.979 93.332L275.095 91.1294L275.211 90.076L275.327 94.8642L275.442 94.7684L275.558 98.2159L275.674 94.9121L275.79 92.9968L275.906 89.5972L276.021 92.1828L276.137 92.9489L276.253 90.89L276.369 95.0078L276.485 93.6193L276.6 90.5069L276.716 93.3799L276.832 93.9066L276.948 88.9747L277.064 92.7574L277.179 92.8531L277.295 92.4222L277.411 90.89L277.527 89.645L277.642 89.3099L277.758 91.4167L277.874 87.1073L277.99 91.1773L278.106 90.89L278.221 87.0115L278.337 89.262L278.453 90.6027L278.569 92.7574L278.685 91.1294L278.8 94.0023L278.916 94.0981L279.032 91.5603L279.148 86.8679L279.264 87.1073L279.379 90.9858L279.495 91.4167L279.611 91.8955L279.727 91.5603L279.843 89.0226L279.958 87.3467L280.074 83.7555L280.19 88.6874L280.306 86.7242L280.422 91.2252L280.537 91.8476L280.653 88.2086L280.769 83.4204L280.885 86.9158L281 87.7776L281.116 85.3835L281.232 88.1128L281.348 89.5493L281.464 84.3301L281.579 83.4683L281.695 85.8624L281.811 87.0594L281.927 88.5438L282.043 86.3891L282.158 87.4425L282.274 83.6119L282.39 83.1331L282.506 86.6764L282.622 83.7555L282.737 85.3835L282.853 90.3154L282.969 92.2786L283.085 85.4793L283.201 84.809L283.316 80.5953L283.432 84.4738L283.548 88.0171L283.664 90.7942L283.78 90.2196L283.895 85.4314L284.011 85.5272L284.127 85.8624L284.243 86.2454L284.359 84.9526L284.474 87.7776L284.59 88.9747L284.706 85.8624L284.822 80.9305L284.937 80.9784L285.053 79.6377L285.169 80.4996L285.285 83.8992L285.401 83.4204L285.516 82.8937L285.632 81.3136L285.748 78.3449L285.864 83.8513L285.98 80.6911L286.095 89.1662L286.211 87.5382L286.327 86.6764L286.443 84.8568L286.559 82.2233L286.674 85.192L286.79 87.634L286.906 91.7519L287.022 95.774L287.138 93.1883L287.253 83.4683L287.369 85.0005L287.485 86.7721L287.601 85.4793L287.717 89.3099L287.832 89.4056L287.948 91.4646L288.064 86.006L288.18 97.0668L288.295 96.7316L288.411 90.89L288.527 91.0336L288.643 90.1239L288.759 85.9581L288.874 87.1552L288.99 84.5695L289.106 85.9102L289.222 86.4369L289.338 89.1183L289.453 90.1239L289.569 81.6008L289.685 77.5787L289.801 82.0318L289.917 86.6764L290.032 83.4683L290.148 84.8568L290.264 89.0705L290.38 80.7869L290.496 82.3191L290.611 85.0962L290.727 84.4259L290.843 85.0962L290.959 87.9692L291.075 86.4848L291.19 83.2767L291.306 83.7077L291.422 85.4314L291.538 77.3393L291.653 84.9047L291.769 87.2509L291.885 84.9047L292.001 91.4167L292.117 86.2933L292.232 89.5972L292.348 87.4904L292.464 85.3835L292.58 92.518L292.696 89.262L292.811 83.4204L292.927 82.9894L293.043 84.6174L293.159 90.3154L293.275 87.1552L293.39 93.1883L293.506 92.3743L293.622 89.9323L293.738 85.5272L293.854 86.5806L293.969 87.5861L294.085 85.0484L294.201 86.6285L294.317 90.1239L294.433 85.2399L294.548 82.4148L294.664 82.3191L294.78 82.5106L294.896 81.0263L295.011 85.4793L295.127 88.5916L295.243 82.8458L295.359 82.7021L295.475 82.1275L295.59 82.9416L295.706 82.2233L295.822 85.2399L295.938 88.3522L296.054 85.0962L296.169 81.0741L296.285 80.6911L296.401 78.1054L296.517 78.1533L296.633 83.2767L296.748 82.8458L296.864 80.9784L296.98 82.6064L297.096 79.7334L297.212 80.5953L297.327 79.0631L297.443 82.6543L297.559 82.7979L297.675 78.7279L297.791 77.7703L297.906 76.7648L298.022 80.2601L298.138 74.4664L298.254 80.0207L298.369 85.5751L298.485 78.4406L298.601 80.1644L298.717 82.9894L298.833 77.866L298.948 77.052L299.064 79.925L299.18 79.6377L299.296 78.3449L299.412 78.7279L299.527 79.111L299.643 80.0686L299.759 85.3835L299.875 87.1552L299.991 84.809L300.106 76.8605L300.222 75.855L300.338 74.5143L300.454 74.9452L300.57 77.6266L300.685 84.5695L300.801 83.8513L300.917 81.2657L301.033 79.111L301.149 81.8881L301.264 81.0741L301.38 77.2915L301.496 83.1331L301.612 85.2399L301.728 79.6377L301.843 81.0741L301.959 78.68L302.075 76.7648L302.191 79.494L302.306 83.6119L302.422 82.8937L302.538 77.5309L302.654 77.7703H302.77H302.885L303.001 80.5474L303.117 86.5806L303.233 87.7776L303.349 75.8071L303.464 75.855L303.58 76.1902L303.696 71.4498L303.812 76.2859L303.928 77.4351L304.043 74.9931L304.159 71.1147L304.275 68.6248L304.391 72.5511L304.507 67.4756L304.622 73.2694L304.738 75.9508L304.854 76.7169L304.97 79.925L305.086 70.3964L305.201 73.8918L305.317 65.0815L305.433 69.8697L305.549 79.8771L305.664 88.4959L305.78 82.6064L305.896 76.5732L306.012 72.9821L306.128 75.5677L306.243 77.1957L306.359 85.7666L306.475 76.1902L306.591 71.8808L306.707 63.5972L306.822 65.1294L306.938 69.4388L307.054 68.0502L307.17 77.483L307.286 70.5401L307.401 58.8568L307.517 63.645L307.633 65.4167L307.749 66.1828L307.865 65.704L307.98 73.1257L308.096 75.9508L308.212 68.2417L308.328 67.3799L308.444 68.4811L308.559 74.6101L308.675 77.6745L308.791 80.2601L308.907 83.181L309.022 75.7113L309.138 80.1644L309.254 88.1607L309.37 82.9894L309.486 79.1589L309.601 91.273L309.717 90.5069L309.833 83.0852L309.949 78.4885L310.065 75.9508L310.18 79.7813L310.296 75.9508L310.412 86.1975L310.528 83.4683L310.644 84.1865L310.759 76.5253L310.875 77.9139L310.991 80.1644L311.107 80.739L311.223 87.9692L311.338 82.1754L311.454 73.7482L311.57 73.5088L311.686 77.8182L311.802 75.3283L311.917 78.68L312.033 84.0907L312.149 84.2344L312.265 73.7003L312.38 75.6635L312.496 75.3283L312.612 74.4664L312.728 81.5051L312.844 84.3301L312.959 81.1699L313.075 68.0981L313.191 69.343L313.307 71.4977L313.423 73.1257L313.538 77.6745L313.654 81.8403L313.77 79.3504L313.886 72.4075L314.002 69.5824L314.117 70.2528L314.233 73.7003L314.349 72.599L314.465 79.3983L314.581 83.564L314.696 82.2233L314.812 76.238L314.928 67.0447L315.044 67.6193L315.16 66.3265L315.275 63.8845L315.391 47.0299L315.507 1.58984L315.623 67.1404L315.738 73.3651L315.854 72.0244L315.97 71.9765L316.086 81.8881L316.202 81.4093L316.317 73.8918L316.433 72.1202L316.549 70.157L316.665 72.599L316.781 79.0152L316.896 82.367L317.012 84.8568L317.128 75.1368L317.244 72.9342L317.36 72.3117" stroke="#CED4DA" stroke-width="0.6" stroke-linecap="round" stroke-linejoin="round"/>
</g>
</g>
</g>
<defs>
<clipPath id="clip0_190_28933">
<rect width="317" height="106" fill="white" transform="translate(0.691406 0.589844)"/>
</clipPath>
<clipPath id="clip1_190_28933">
<rect width="317" height="106" fill="white" transform="translate(0.691406 0.589844)"/>
</clipPath>
<clipPath id="clip2_190_28933">
<rect width="317" height="106" fill="white" transform="translate(0.691406 0.589844)"/>
</clipPath>
</defs>
</svg>
