<svg width="319" height="112" viewBox="0 0 319 112" fill="none" xmlns="http://www.w3.org/2000/svg">
<g opacity="0.5" clip-path="url(#clip0_190_6422)">
<g clip-path="url(#clip1_190_6422)">
<g clip-path="url(#clip2_190_6422)">
<path d="M1.19141 110.396L1.3072 110.898H1.423H1.53879H1.65458H1.77038H1.88617H2.00196L2.11776 110.782L2.23355 110.736L2.34934 110.823L2.46514 110.783L2.58093 110.618L2.69672 110.783L2.81252 110.738L2.92831 110.719L3.0441 110.769L3.1599 110.76L3.27569 110.756L3.39148 110.757L3.50728 110.715L3.62307 110.768L3.73886 110.677L3.85466 110.696L3.97045 110.662L4.08624 110.648L4.20204 110.645L4.31783 110.664L4.43362 110.583L4.54942 110.63L4.66521 110.665L4.781 110.64L4.8968 110.605L5.01259 110.607L5.12838 110.605L5.24418 110.629L5.35997 110.58L5.47576 110.587H5.59156L5.70735 110.576L5.82314 110.581L5.93894 110.582L6.05473 110.597L6.17052 110.534L6.28632 110.582L6.40211 110.556L6.5179 110.584L6.6337 110.593L6.74949 110.567L6.86528 110.595L6.98108 110.571L7.09687 110.604L7.21266 110.537L7.32846 110.542L7.44425 110.514L7.56004 110.48L7.67584 110.547L7.79163 110.568L7.90742 110.565L8.02322 110.573L8.13901 110.553L8.2548 110.574L8.3706 110.567L8.48639 110.536L8.60218 110.556L8.71798 110.553L8.83377 110.524L8.94956 110.544L9.06536 110.534L9.18115 110.496L9.29694 110.507L9.41274 110.517L9.52853 110.53L9.64432 110.558L9.76012 110.526L9.87591 110.513H9.9917L10.1075 110.531L10.2233 110.515L10.3391 110.528L10.4549 110.532L10.5707 110.526L10.6865 110.565L10.8022 110.549L10.918 110.561L11.0338 110.51L11.1496 110.539L11.2654 110.569L11.3812 110.563L11.497 110.515L11.6128 110.484L11.7286 110.456L11.8444 110.45L11.9602 110.472L12.076 110.508L12.1918 110.528L12.3076 110.481L12.4234 110.501L12.5391 110.475L12.6549 110.453L12.7707 110.278L12.8865 110.198L13.0023 110.464L13.1181 110.438L13.2339 110.322L13.3497 110.36L13.4655 110.453L13.5813 110.491L13.6971 110.494L13.8129 110.478L13.9287 110.495L14.0445 110.482L14.1603 110.397L14.276 110.54L14.3918 110.513L14.5076 110.499L14.6234 110.432L14.7392 110.495L14.855 110.498L14.9708 110.488L15.0866 110.524L15.2024 110.514L15.3182 110.512L15.434 110.391L15.5498 110.515L15.6656 110.531L15.7814 110.505L15.8972 110.509L16.0129 110.515L16.1287 110.385L16.2445 110.495L16.3603 110.52L16.4761 110.503L16.5919 110.478L16.7077 110.441L16.8235 110.435L16.9393 110.479L17.0551 110.021L17.1709 109.708L17.2867 110.317L17.4025 110.356L17.5183 110.389L17.6341 110.373L17.7498 110.341L17.8656 110.218L17.9814 109.712L18.0972 109.616L18.213 110.137L18.3288 110.361L18.4446 110.293L18.5604 109.665L18.6762 110.2L18.792 110.257L18.9078 109.67L19.0236 110.317L19.1394 110.434L19.2552 110.381L19.371 110.376L19.4867 110.364L19.6025 109.971L19.7183 109.935L19.8341 109.653L19.9499 110.282L20.0657 110.233L20.1815 110.316L20.2973 110.284L20.4131 110.285L20.5289 109.902L20.6447 110.297L20.7605 110.341L20.8763 110.297L20.9921 110.348L21.1079 110.17L21.2236 110.141L21.3394 110.3L21.4552 110.293L21.571 110.117L21.6868 110.276L21.8026 110.176L21.9184 109.932L22.0342 109.967L22.15 109.841L22.2658 109.952L22.3816 109.973L22.4974 110.071L22.6132 110.099L22.729 110.097L22.8448 110.092L22.9605 110.093L23.0763 110.088L23.1921 110.038L23.3079 109.126L23.4237 110.094L23.5395 110.068L23.6553 110.023L23.7711 109.931L23.8869 109.689L24.0027 109.877L24.1185 109.808L24.2343 109.96L24.3501 109.93L24.4659 109.908L24.5817 109.771L24.6974 109.941L24.8132 109.86L24.929 109.955L25.0448 109.933L25.1606 109.872L25.2764 109.856L25.3922 109.796L25.508 109.798L25.6238 109.71L25.7396 109.828L25.8554 109.823L25.9712 109.75L26.087 109.67L26.2028 109.569L26.3186 109.497L26.4343 109.528L26.5501 109.369L26.6659 109.338L26.7817 109.586L26.8975 109.539L27.0133 109.513L27.1291 109.499L27.2449 109.594L27.3607 109.325L27.4765 109.312L27.5923 109.289L27.7081 109.247L27.8239 109.342L27.9397 109.007L28.0555 109.103L28.1712 108.937L28.287 109.068L28.4028 109.064L28.5186 109.043L28.6344 109.105L28.7502 108.814L28.866 108.825L28.9818 108.831L29.0976 109.208L29.2134 109.002L29.3292 108.985L29.445 108.824L29.5608 109.079L29.6766 109.019L29.7924 109.242L29.9081 109.229L30.0239 108.929L30.1397 108.689L30.2555 109.089L30.3713 109.099L30.4871 108.98L30.6029 109.098L30.7187 109.08L30.8345 109.188L30.9503 108.943L31.0661 108.865L31.1819 108.936L31.2977 108.926L31.4135 109.179L31.5293 108.631L31.645 109.008L31.7608 109.058L31.8766 109.04L31.9924 108.801L32.1082 109.111L32.224 109.102L32.3398 108.978L32.4556 108.9L32.5714 109.06L32.6872 108.989L32.803 108.961L32.9188 108.793L33.0346 108.317L33.1504 108.666L33.2662 108.544L33.3819 108.765L33.4977 108.784L33.6135 108.715L33.7293 108.57L33.8451 108.875L33.9609 108.639L34.0767 108.723L34.1925 108.604L34.3083 108.596L34.4241 108.36L34.5399 108.206L34.6557 108.318L34.7715 108.469L34.8873 108.787L35.0031 108.625L35.1188 108.302L35.2346 108.387L35.3504 108.35L35.4662 108.438L35.582 108.704L35.6978 108.427L35.8136 108.478L35.9294 108.279L36.0452 108.013L36.161 108.134L36.2768 106.942L36.3926 108.31L36.5084 108.477L36.6242 108.395L36.74 108.517L36.8557 108.661L36.9715 108.651L37.0873 108.762L37.2031 108.761L37.3189 108.701L37.4347 108.296L37.5505 108.618L37.6663 108.65L37.7821 108.634L37.8979 108.817L38.0137 108.497L38.1295 108.293L38.2453 108.059L38.3611 108.459L38.4769 108.451L38.5926 107.144L38.7084 107.34L38.8242 108.02L38.94 108.241L39.0558 108.229L39.1716 108.156L39.2874 108.534L39.4032 108.341L39.519 108.829L39.6348 108.551L39.7506 108.661L39.8664 108.468L39.9822 108.084L40.098 107.291L40.2138 108.637L40.3295 108.684L40.4453 108.656L40.5611 108.645L40.6769 108.683L40.7927 108.761L40.9085 108.618L41.0243 108.501L41.1401 108.619L41.2559 108.678L41.3717 108.722L41.4875 108.596L41.6033 108.882L41.7191 108.484L41.8349 108.579L41.9507 108.751L42.0664 108.985L42.1822 108.687L42.298 108.406L42.4138 108.043L42.5296 108.367L42.6454 108.165L42.7612 108.36L42.877 107.615L42.9928 107.804L43.1086 107.405L43.2244 107.907L43.3402 108.16L43.456 108.234L43.5718 108.529L43.6876 108.149L43.8033 108.305L43.9191 108.132L44.0349 108.108L44.1507 108.261L44.2665 108.461L44.3823 108.558L44.4981 108.475L44.6139 108.474L44.7297 108.244L44.8455 108.287L44.9613 108.181L45.0771 108.394L45.1929 108.581L45.3087 108.61L45.4245 108.512L45.5402 108.137L45.656 108.368L45.7718 108.202L45.8876 108.476L46.0034 108.568L46.1192 108.499L46.235 108.402L46.3508 108.167L46.4666 108.257L46.5824 108.086L46.6982 108.231L46.814 108.194L46.9298 108.495L47.0456 108.331L47.1614 108.249L47.2771 108.312L47.3929 108.22L47.5087 107.773L47.6245 108.372L47.7403 108.184L47.8561 108.492L47.9719 108.129L48.0877 108.151L48.2035 107.741L48.3193 107.857L48.4351 108.48L48.5509 108.453L48.6667 108.353L48.7825 108.496L48.8983 107.86L49.014 107.93L49.1298 107.653L49.2456 108.254L49.3614 108.761L49.4772 108.614L49.593 107.849L49.7088 108.386L49.8246 107.928L49.9404 108.912L50.0562 108.449L50.172 108.715L50.2878 108.444L50.4036 108.258L50.5194 108.484L50.6352 108.619L50.7509 108.877L50.8667 107.905L50.9825 108.016L51.0983 108.209L51.2141 107.702L51.3299 108.545L51.4457 108.821L51.5615 108.433L51.6773 108.772L51.7931 108.42L51.9089 108.363L52.0247 108.583L52.1405 109.206L52.2563 109.08L52.3721 108.529L52.4878 109L52.6036 108.925L52.7194 108.747L52.8352 107.971L52.951 108.727L53.0668 108.448L53.1826 107.639L53.2984 108.768L53.4142 108.904L53.53 107.934L53.6458 108.213L53.7616 108.351L53.8774 108.397L53.9932 108.556L54.109 108.641L54.2247 108.674L54.3405 108.358L54.4563 108.133L54.5721 108.444L54.6879 108.51L54.8037 109.061L54.9195 108.772L55.0353 108.958L55.1511 108.533L55.2669 108.554L55.3827 108.613L55.4985 108.633L55.6143 108.582L55.7301 108.592L55.8459 108.435L55.9616 108.424L56.0774 108.341L56.1932 108.547L56.309 108.6L56.4248 108.429L56.5406 108.682L56.6564 108.522L56.7722 108.488L56.888 107.876L57.0038 107.272L57.1196 108.819L57.2354 107.623L57.3512 108.597L57.467 108.391L57.5828 108.169L57.6985 108.245L57.8143 108.688L57.9301 108.804L58.0459 108.549L58.1617 108.566L58.2775 108.662L58.3933 108.551L58.5091 108.18L58.6249 108.543L58.7407 108.665L58.8565 108.561L58.9723 108.61L59.0881 108.689L59.2039 108.713L59.3197 108.379L59.4354 108.231L59.5512 108.298L59.667 108.419L59.7828 108.674L59.8986 108.832L60.0144 108.326L60.1302 108.403L60.246 108.033L60.3618 107.786L60.4776 108.394L60.5934 108.769L60.7092 108.834L60.825 108.949L60.9408 108.508L61.0566 108.451L61.1724 108.273L61.2881 108.385L61.4039 108.573L61.5197 108.714L61.6355 108.662L61.7513 108.31L61.8671 108.04L61.9829 108.101L62.0987 108.428L62.2145 108.438L62.3303 108.488L62.4461 108.293L62.5619 108.181L62.6777 108.348L62.7935 108.045L62.9092 108.031L63.025 108.527L63.1408 108.544L63.2566 108.339L63.3724 108.266L63.4882 108.36L63.604 108.437L63.7198 108.316L63.8356 108.456L63.9514 108.223L64.0672 108.299L64.183 108.055L64.2988 108.289L64.4146 108.255L64.5304 108.265L64.6461 108.349L64.7619 108.501L64.8777 108.339L64.9935 108.436L65.1093 108.386L65.2251 108.433L65.3409 108.485L65.4567 108.337L65.5725 108.273L65.6883 108.23L65.8041 107.973L65.9199 108.017L66.0357 108.198L66.1515 107.953L66.2673 108.272L66.383 108.342L66.4988 107.74L66.6146 107.61L66.7304 107.778L66.8462 108.097L66.962 108.112H67.0778L67.1936 108.178L67.3094 108.07L67.4252 107.602L67.541 108.057L67.6568 108.213L67.7726 107.848L67.8884 107.895L68.0042 107.981L68.1199 107.929L68.2357 107.499L68.3515 107.527L68.4673 106.906L68.5831 107.272L68.6989 107.584L68.8147 107.682H68.9305L69.0463 107.368L69.1621 107.774L69.2779 107.274L69.3937 107.225L69.5095 107.243L69.6253 107.139L69.7411 106.289L69.8568 106.547L69.9726 106.318L70.0884 104.697L70.2042 104.884L70.32 105.827L70.4358 106.127L70.5516 106.371L70.6674 106.144L70.7832 106.453L70.899 106.249L71.0148 105.948L71.1306 106.138L71.2464 106.412L71.3622 105.564L71.478 106.141L71.5937 105.649L71.7095 105.472L71.8253 105.083L71.9411 106.354L72.0569 105.882L72.1727 105.246L72.2885 106.032L72.4043 105.968L72.5201 105.53L72.6359 105.662L72.7517 106.829L72.8675 106.693L72.9833 106.641L73.0991 106.618L73.2149 106.367L73.3307 106.154L73.4464 106.321L73.5622 106.678L73.678 106.914L73.7938 106.807L73.9096 106.2L74.0254 106.063L74.1412 106.079L74.257 106.314L74.3728 106.751L74.4886 106.551L74.6044 106.356L74.7202 105.651L74.836 105.842L74.9518 105.005L75.0675 104.909L75.1833 105.747L75.2991 105.529L75.4149 104.57L75.5307 104.674L75.6465 105.409L75.7623 104.419L75.8781 104.778L75.9939 105.539L76.1097 104.884L76.2255 104.271L76.3413 104.529L76.4571 104.713L76.5729 104.289L76.6887 104.85L76.8044 105.183L76.9202 105.182L77.036 103.973L77.1518 104.337L77.2676 102.995L77.3834 103.148L77.4992 101.786L77.615 103.515L77.7308 102.455L77.8466 100.958L77.9624 100.345L78.0782 100.336L78.194 100.577L78.3098 101.321L78.4256 102.469L78.5413 102.141L78.6571 101.956L78.7729 99.9788L78.8887 98.8222L79.0045 99.6663L79.1203 99.9059L79.2361 100.991L79.3519 100.739L79.4677 100.166L79.5835 99.5894L79.6993 99.214L79.8151 100.313L79.9309 98.7261L80.0467 98.8657L80.1625 97.3354L80.2782 94.3773L80.394 95.1041L80.5098 96.7759L80.6256 96.1439L80.7414 96.9117L80.8572 97.249L80.973 97.027L81.0888 94.7569L81.2046 93.5005L81.3204 98.4183L81.4362 94.8688L81.552 95.332L81.6678 96.7669L81.7836 97.863L81.8994 93.0324L82.0151 96.6301L82.1309 95.4319L82.2467 96.0213L82.3625 96.6495L82.4783 97.3368L82.5941 96.877L82.7099 93.8646L82.8257 95.0245L82.9415 95.5805L83.0573 96.3032L83.1731 94.2392L83.2889 96.9038L83.4047 98.1983L83.5205 93.8307L83.6363 94.4486L83.752 94.8912L83.8678 96.193L83.9836 96.8339L84.0994 97.8164L84.2152 96.8476L84.331 96.8852L84.4468 95.6116L84.5626 95.6642L84.6784 96.7954L84.7942 97.7826L84.91 99.3045L85.0258 96.2074L85.1416 96.0605L85.2574 97.1963L85.3732 98.3212L85.4889 98.1844L85.6047 96.9968L85.7205 99.6881L85.8363 99.2453L85.9521 96.794L86.0679 98.5709L86.1837 97.8667L86.2995 97.5697L86.4153 96.3952L86.5311 96.1561L86.6469 95.9459L86.7627 95.041L86.8785 92.9152L86.9943 95.0897L87.1101 91.8225L87.2258 90.7824L87.3416 91.7992L87.4574 92.1174L87.5732 87.772L87.689 87.5924L87.8048 87.5711L87.9206 86.7599L88.0364 85.8942L88.1522 89.613L88.268 93.4194L88.3838 88.741L88.4996 90.3287L88.6154 89.7656L88.7312 91.0203L88.847 91.0115L88.9627 93.6257L89.0785 92.6159L89.1943 90.3811L89.3101 88.6412L89.4259 88.327L89.5417 89.218L89.6575 88.8472L89.7733 92.1859L89.8891 93.8368L90.0049 85.9373L90.1207 85.8257L90.2365 82.904L90.3523 85.6128L90.4681 84.7486L90.5839 89.2613L90.6996 92.562L90.8154 90.2917L90.9312 88.0632L91.047 90.275L91.1628 89.4532L91.2786 85.9839L91.3944 89.8191L91.5102 94.5704L91.626 90.4394L91.7418 91.85L91.8576 92.5701L91.9734 93.0162L92.0892 95.5882L92.205 96.229L92.3208 95.0547L92.4365 93.6061L92.5523 93.6365L92.6681 93.4689L92.7839 92.3319L92.8997 92.4845L93.0155 94.2161L93.1313 94.8888L93.2471 93.6354L93.3629 92.4053L93.4787 93.5619L93.5945 93.144L93.7103 92.8579L93.8261 94.4816L93.9419 94.158L94.0577 92.3903L94.1734 91.1816L94.2892 91.4805L94.405 90.4029L94.5208 89.5161L94.6366 92.1649L94.7524 92.3481L94.8682 87.8715L94.984 82.3832L95.0998 84.3663L95.2156 83.0277L95.3314 80.0582L95.4472 84.7919L95.563 86.3377L95.6788 84.4949L95.7946 83.1346L95.9104 84.9319L96.0261 84.5943L96.1419 83.4809L96.2577 83.5708L96.3735 83.0281L96.4893 80.8596L96.6051 81.577L96.7209 81.1328L96.8367 81.0485L96.9525 83.5011L97.0683 88.4095L97.1841 87.3749L97.2999 82.0419L97.4157 84.368L97.5315 83.8043L97.6473 84.5511L97.763 85.1007L97.8788 88.6565L97.9946 86.4005L98.1104 85.9044L98.2262 84.0541L98.342 80.4103L98.4578 83.1801L98.5736 82.2152L98.6894 84.9737L98.8052 84.6982L98.921 80.9998L99.0368 81.3436L99.1526 80.0778L99.2684 80.6091L99.3842 81.2599L99.4999 79.2501L99.6157 80.3037L99.7315 76.5695L99.8473 74.861L99.9631 73.4742L100.079 73.9323L100.194 75.7786L100.31 75.4929L100.426 71.7694L100.542 71.3167L100.657 71.8099L100.773 66.2459L100.889 73.7286L101.005 67.6748L101.121 71.0128L101.236 70.4854L101.352 64.1506L101.468 61.7006L101.584 59.5975L101.7 57.7405L101.815 59.8956L101.931 60.1487L102.047 61.4618L102.163 55.4021L102.279 49.2992L102.394 55.2846L102.51 50.4028L102.626 48.6625L102.742 59.0758L102.858 68.1359L102.973 68.4671L103.089 65.0185L103.205 59.4215L103.321 57.3488L103.437 49.4144L103.552 46.7937L103.668 57.4911L103.784 59.6362L103.9 45.8193L104.015 41.0766L104.131 34.768L104.247 39.1847L104.363 41.7316L104.479 45.8878L104.594 42.3488L104.71 40.0496L104.826 44.48L104.942 44.6898L105.058 47.8033L105.173 44.3877L105.289 49.8993L105.405 42.8594L105.521 38.826L105.637 38.8742L105.752 42.9291L105.868 52.0613L105.984 55.3757L106.1 54.1327L106.216 56.0287L106.331 58.5337L106.447 59.3698L106.563 66.4281L106.679 57.1274L106.795 63.9762L106.91 60.7552L107.026 58.0627L107.142 59.7697L107.258 61.4218L107.373 54.0069L107.489 55.565L107.605 64.9635L107.721 65.731L107.837 61.5077L107.952 60.8051L108.068 64.73L108.184 72.4723L108.3 66.3553L108.416 63.0514L108.531 67.2752L108.647 64.1438L108.763 68.8359L108.879 68.8042L108.995 67.0596L109.11 71.1518L109.226 67.3551L109.342 68.2567L109.458 65.1384L109.574 60.8797L109.689 62.9321L109.805 67.9296L109.921 69.5543L110.037 69.5669L110.153 71.9513L110.268 69.3079L110.384 71.7257L110.5 70.2715L110.616 72.2998L110.731 68.9011L110.847 72.9167L110.963 74.6212L111.079 68.4449L111.195 70.7101L111.31 66.6965L111.426 71.9763L111.542 74.2368L111.658 77.5462L111.774 76.558L111.889 72.6661L112.005 71.4713L112.121 73.0445L112.237 73.9845L112.353 73.9815L112.468 77.4433L112.584 72.3172L112.7 71.2007L112.816 73.5751L112.932 71.5402L113.047 75.9628L113.163 72.7115L113.279 76.3153L113.395 81.2123L113.511 75.5589L113.626 77.9592L113.742 78.1959L113.858 77.9807L113.974 75.1641L114.089 77.9399L114.205 80.1538L114.321 77.1442L114.437 74.4669L114.553 75.4559L114.668 71.653L114.784 74.3539L114.9 80.677L115.016 77.3006L115.132 76.5073L115.247 78.6736L115.363 76.5466L115.479 71.8372L115.595 69.7089L115.711 76.4289L115.826 75.9328L115.942 73.4278L116.058 69.0051L116.174 71.2345L116.29 64.9729L116.405 63.9633L116.521 68.82L116.637 68.6647L116.753 65.6186L116.869 64.8579L116.984 65.836L117.1 66.126L117.216 67.7837L117.332 67.1723L117.448 68.2252L117.563 67.0137L117.679 70.6397L117.795 66.4729L117.911 63.5479L118.026 54.4713L118.142 66.3861L118.258 71.9124L118.374 66.3521L118.49 64.6469L118.605 64.0249L118.721 62.6883L118.837 64.3085L118.953 66.4297L119.069 67.8988L119.184 65.6796L119.3 66.9529L119.416 65.3712L119.532 63.7636L119.648 63.9852L119.763 63.1699L119.879 67.0616L119.995 65.6557L120.111 64.5166L120.227 63.898L120.342 65.1506L120.458 65.7332L120.574 67.9274L120.69 67.1326L120.806 62.3401L120.921 65.0933L121.037 64.8123L121.153 63.9282L121.269 68.1355L121.384 67.5842L121.5 65.2166L121.616 65.3763L121.732 66.8715L121.848 68.3708L121.963 67.1437L122.079 70.2913L122.195 67.5047L122.311 67.4002L122.427 67.5296L122.542 67.4611L122.658 65.9137L122.774 67.7027L122.89 67.8218L123.006 74.8167L123.121 74.3219L123.237 71.6597L123.353 66.978L123.469 65.6069L123.585 68.4855L123.7 67.4466L123.816 72.7783L123.932 72.9996L124.048 63.6788L124.164 69.6059L124.279 67.3631L124.395 68.8945L124.511 69.4411L124.627 75.1999L124.742 75.7835L124.858 83.2885L124.974 78.5526L125.09 85.6824L125.206 81.1439L125.321 85.0077L125.437 83.5961L125.553 75.2831L125.669 74.1314L125.785 71.8843L125.9 74.5829L126.016 78.9742L126.132 79.1287L126.248 82.1949L126.364 85.3105L126.479 71.1946L126.595 71.3473L126.711 68.8177L126.827 69.4631L126.943 73.0214L127.058 75.8962L127.174 72.81L127.29 68.1121L127.406 66.6315L127.522 66.4839L127.637 69.9747L127.753 66.4169L127.869 71.1961L127.985 70.4979L128.1 68.1654L128.216 68.8787L128.332 68.1628L128.448 66.9124L128.564 68.4204L128.679 70.2613L128.795 71.1805L128.911 71.4463L129.027 75.0103L129.143 78.9964L129.258 80.5267L129.374 76.2764L129.49 73.8277L129.606 74.6953L129.722 71.7055L129.837 71.9645L129.953 74.321L130.069 70.4765L130.185 76.6499L130.301 75.5078L130.416 77.0791L130.532 73.4635L130.648 76.7419L130.764 77.3465L130.88 77.0849L130.995 77.2727L131.111 78.3436L131.227 78.5222L131.343 74.4693L131.459 76.2791L131.574 80.0579L131.69 77.4633L131.806 78.3425L131.922 73.8873L132.037 75.9169L132.153 75.2874L132.269 77.6509L132.385 75.5396L132.501 77.6826L132.616 78.0647L132.732 80.2556L132.848 78.9982L132.964 79.225L133.08 79.4671L133.195 78.7139L133.311 79.5553L133.427 81.8879L133.543 83.8448L133.659 85.044L133.774 79.67L133.89 82.6707L134.006 82.2905L134.122 82.8042L134.238 80.1795L134.353 84.3742L134.469 84.469L134.585 83.8086L134.701 81.622L134.817 83.0659L134.932 82.4714L135.048 82.6767L135.164 86.4041L135.28 83.8642L135.395 84.0358L135.511 83.2489L135.627 79.3719L135.743 79.362L135.859 77.3215L135.974 77.2367L136.09 82.8256L136.206 80.2835L136.322 80.6114L136.438 81.7538L136.553 78.7222L136.669 79.1951L136.785 80.3424L136.901 82.0387L137.017 79.2024L137.132 78.4445L137.248 78.1679L137.364 78.9892L137.48 76.9968L137.596 80.7776L137.711 82.2477L137.827 78.3394L137.943 79.5284L138.059 80.855L138.175 80.5996L138.29 79.8111L138.406 82.7468L138.522 82.1435L138.638 76.2312L138.753 76.5863L138.869 77.866L138.985 77.6749L139.101 79.9625L139.217 82.4168L139.332 82.0879L139.448 78.0551L139.564 77.2197L139.68 79.0563L139.796 79.5757L139.911 80.0012L140.027 83.3133L140.143 81.1319L140.259 78.6863L140.375 79.6773L140.49 78.0649L140.606 79.1437L140.722 79.761L140.838 82.3849L140.954 83.5568L141.069 75.766L141.185 75.6076L141.301 78.2143L141.417 78.8142L141.533 79.3163L141.648 82.8637L141.764 81.062L141.88 79.4631L141.996 78.9873L142.111 75.7865L142.227 79.5645L142.343 77.1141L142.459 81.247L142.575 83.1277L142.69 79.9869L142.806 79.0224L142.922 77.2891L143.038 77.5718L143.154 78.6155L143.269 79.7303L143.385 82.2736L143.501 79.5764L143.617 80.669L143.733 80.7867L143.848 78.995L143.964 78.9038L144.08 79.7717L144.196 81.758L144.312 78.749L144.427 79.5234L144.543 77.1826L144.659 76.9229L144.775 76.6919L144.891 82.9506L145.006 80.2376L145.122 76.1829L145.238 80.7257L145.354 79.3132L145.47 79.9694L145.585 78.6284L145.701 80.2325L145.817 84.9333L145.933 81.4567L146.048 85.6229L146.164 77.6262L146.28 77.2505L146.396 79.9137L146.512 82.0686L146.627 83.4119L146.743 79.8254L146.859 79.6899L146.975 79.3808L147.091 78.0278L147.206 80.3401L147.322 85.3669L147.438 83.7516L147.554 78.3436L147.67 80.4496L147.785 82.2661L147.901 81.7363L148.017 80.5059L148.133 80.4931L148.249 80.5732L148.364 78.0327L148.48 76.7465L148.596 80.7924L148.712 81.5644L148.828 82.4231L148.943 84.7085L149.059 83.3305L149.175 78.8328L149.291 78.976L149.406 79.5782L149.522 81.7377L149.638 82.7642L149.754 85.5018L149.87 86.9646L149.985 87.4148L150.101 87.5039L150.217 86.7002L150.333 86.7222L150.449 84.2815L150.564 87.3734L150.68 89.4024L150.796 86.7035L150.912 86.19L151.028 83.1873L151.143 84.1219L151.259 84.4706L151.375 85.2765L151.491 85.6354L151.607 81.9972L151.722 80.8046L151.838 80.9926L151.954 80.1721L152.07 80.9604L152.186 84.0405L152.301 80.4324L152.417 78.54L152.533 79.6584L152.649 80.4711L152.764 80.3615L152.88 80.0139L152.996 81.1819L153.112 83.1293L153.228 75.9201L153.343 77.1679L153.459 78.2481L153.575 78.6004L153.691 79.1827L153.807 79.5496L153.922 83.5999L154.038 80.6461L154.154 79.073L154.27 78.5668L154.386 78.536L154.501 79.7099L154.617 82.4638L154.733 82.9889L154.849 78.5296L154.965 75.033L155.08 75.3503L155.196 76.0268L155.312 75.4413L155.428 79.2155L155.544 79.9321L155.659 74.3151L155.775 75.4238L155.891 75.5965L156.007 75.1217L156.122 74.7842L156.238 73.2267L156.354 74.4527L156.47 72.121L156.586 68.0984L156.701 68.7918L156.817 72.9136L156.933 75.8235L157.049 79.37L157.165 78.5891L157.28 73.2249L157.396 73.8501L157.512 72.8826L157.628 69.7828L157.744 71.7138L157.859 76.2539L157.975 79.8203L158.091 75.8159L158.207 73.8757L158.323 72.4412L158.438 71.5527L158.554 71.8046L158.67 72.1633L158.786 75.3009L158.902 70.3314L159.017 69.7695L159.133 73.1732L159.249 72.5023L159.365 73.6162L159.48 79.1643L159.596 77.4275L159.712 75.425L159.828 70.9819L159.944 71.2064L160.059 75.5762L160.175 73.0624L160.291 75.7405L160.407 74.947L160.523 71.0742L160.638 73.7806L160.754 72.1536L160.87 70.3802L160.986 69.3469L161.102 69.0325L161.217 70.5276L161.333 68.1099L161.449 64.0442L161.565 63.0956L161.681 59.6778L161.796 65.1984L161.912 69.4226L162.028 68.4632L162.144 62.3875L162.26 65.0586L162.375 61.6418L162.491 63.1453L162.607 59.9119L162.723 63.5274L162.838 67.8618L162.954 57.787L163.07 59.5465L163.186 57.4613L163.302 60.5971L163.417 61.7945L163.533 56.9401L163.649 60.6542L163.765 60.7573L163.881 60.5944L163.996 65.8147L164.112 64.3808L164.228 68.1235L164.344 54.9153L164.46 70.5324L164.575 56.5485L164.691 58.4466L164.807 62.3581L164.923 68.614L165.039 64.35L165.154 57.9439L165.27 60.7622L165.386 57.6539L165.502 62.9596L165.618 60.9272L165.733 55.3455L165.849 67.0422L165.965 68.1416L166.081 67.275L166.197 65.2369L166.312 58.325L166.428 63.0395L166.544 64.9842L166.66 54.2658L166.775 69.54L166.891 72.2121L167.007 57.2089L167.123 60.4196L167.239 68.4183L167.354 68.7405L167.47 63.0124L167.586 68.3725L167.702 78.0713L167.818 65.228L167.933 67.3621L168.049 69.3844L168.165 55.8946L168.281 69.9317L168.397 77.7771L168.512 76.2991L168.628 68.9785L168.744 54.3161L168.86 64.0869L168.976 73.232L169.091 64.9036L169.207 77.9575L169.323 81.4355L169.439 74.7665L169.555 76.6767L169.67 59.7339L169.786 57.3285L169.902 74.7894L170.018 78.3178L170.133 78.5997L170.249 72.7179L170.365 70.5301L170.481 72.3065L170.597 61.4016L170.712 67.5675L170.828 66.7114L170.944 78.8007L171.06 70.3803L171.176 69.6125L171.291 69.0246L171.407 71.8298L171.523 70.1928L171.639 75.3156L171.755 78.0465L171.87 70.6899L171.986 71.4951L172.102 69.3534L172.218 72.0363L172.334 70.3557L172.449 74.7416L172.565 75.5225L172.681 70.0406L172.797 69.5297L172.913 69.6437L173.028 69.3253L173.144 69.5432L173.26 72.3093L173.376 72.7027L173.491 68.5526L173.607 68.7042L173.723 70.1647L173.839 70.056L173.955 70.6761L174.07 72.5609L174.186 71.9709L174.302 68.1751L174.418 68.5313L174.534 70.6062L174.649 67.4796L174.765 67.5569L174.881 72.6922L174.997 72.8224L175.113 68.2333L175.228 71.893L175.344 71.1217L175.46 70.0821L175.576 75.7363L175.692 75.4544L175.807 75.1446L175.923 69.5585L176.039 72.4458L176.155 70.9271L176.271 71.8441L176.386 70.4542L176.502 77.2306L176.618 78.3817L176.734 74.8382L176.849 70.8832L176.965 72.6792L177.081 73.8071L177.197 75.7271L177.313 76.6168L177.428 77.5119L177.544 72.3268L177.66 74.5179L177.776 75.5295L177.892 76.2033L178.007 77.6128L178.123 77.3352L178.239 78.6521L178.355 75.4028L178.471 70.8352L178.586 68.5239L178.702 71.0746L178.818 71.2694L178.934 75.117L179.05 78.9298L179.165 74.2061L179.281 71.9445L179.397 71.7253L179.513 71.2113L179.629 69.5226L179.744 73.3845L179.86 76.3639L179.976 72.6311L180.092 69.9409L180.207 69.368L180.323 70.0149L180.439 69.0709L180.555 70.4715L180.671 74.6374L180.786 70.2169L180.902 70.9903L181.018 70.4266L181.134 68.932L181.25 71.1371L181.365 77.5688L181.481 78.6891L181.597 73.0679L181.713 69.2063L181.829 70.984L181.944 62.5448L182.06 71.4688L182.176 76.8339L182.292 76.5318L182.408 70.8475L182.523 70.9318L182.639 70.6559L182.755 72.576L182.871 72.3762L182.987 77.2482L183.102 77.0504L183.218 69.476L183.334 69.4163L183.45 71.9971L183.565 67.873L183.681 66.0766L183.797 75.2738L183.913 77.2359L184.029 67.8734L184.144 72.5632L184.26 72.8325L184.376 75.7583L184.492 73.0801L184.608 77.9132L184.723 76.2101L184.839 72.4799L184.955 76.4662L185.071 73.6194L185.187 76.0647L185.302 78.5451L185.418 83.3694L185.534 86.0456L185.65 75.06L185.766 75.2776L185.881 75.6303L185.997 75.05L186.113 75.8468L186.229 79.8153L186.345 81.1772L186.46 75.1039L186.576 74.4093L186.692 73.4902L186.808 75.9241L186.924 76.2513L187.039 80.1405L187.155 81.0114L187.271 75.2758L187.387 76.9012L187.502 79.0286L187.618 77.8131L187.734 78.1862L187.85 81.7726L187.966 83.8202L188.081 77.9383L188.197 79.6421L188.313 84.5875L188.429 82.3816L188.545 78.0953L188.66 79.368L188.776 81.3087L188.892 75.564L189.008 74.4387L189.124 74.024L189.239 75.8531L189.355 76.7726L189.471 79.9017L189.587 81.3489L189.703 79.0119L189.818 73.0135L189.934 71.5105L190.05 71.7784L190.166 72.7424L190.282 75.4689L190.397 76.1932L190.513 77.1013L190.629 79.3744L190.745 81.9232L190.86 79.7369L190.976 82.8612L191.092 86.3365L191.208 86.713L191.324 84.0227L191.439 81.2173L191.555 79.7936L191.671 78.9745L191.787 77.9985L191.903 80.1189L192.018 81.0024L192.134 75.8648L192.25 81.3193L192.366 76.452L192.482 76.6931L192.597 75.5794L192.713 73.5831L192.829 75.4452L192.945 73.182L193.061 70.8968L193.176 65.8841L193.292 67.7677L193.408 67.3693L193.524 71.4681L193.64 73.592L193.755 71.6815L193.871 69.5036L193.987 71.655L194.103 72.0067L194.218 73.0815L194.334 76.7295L194.45 76.7052L194.566 72.1137L194.682 73.0976L194.797 71.1422L194.913 70.6034L195.029 72.0578L195.145 75.9057L195.261 75.4526L195.376 72.4648L195.492 73.596L195.608 73.4524L195.724 70.2858L195.84 72.7286L195.955 75.3121L196.071 73.5314L196.187 66.678L196.303 68.0032L196.419 70.6833L196.534 67.9923L196.65 63.0763L196.766 72.4449L196.882 73.8084L196.998 66.6775L197.113 67.8615L197.229 67.5605L197.345 62.17L197.461 64.5308L197.577 62.5374L197.692 68.8149L197.808 65.7106L197.924 66.2373L198.04 67.7324L198.155 67.323L198.271 68.6693L198.387 73.2403L198.503 76.6096L198.619 70.0664L198.734 69.6296L198.85 72.3785L198.966 70.261L199.082 70.1406L199.198 75.5963L199.313 76.2703L199.429 67.399L199.545 66.7126L199.661 64.0759L199.777 69.8691L199.892 68.846L200.008 72.5186L200.124 72.631L200.24 68.9214L200.356 64.9924L200.471 66.223L200.587 66.3256L200.703 66.5903L200.819 66.7329L200.935 69.0698L201.05 64.1514L201.166 65.0493L201.282 66.3151L201.398 64.2917L201.513 63.1406L201.629 66.2147L201.745 65.6705L201.861 63.4572L201.977 63.6118L202.092 60.2602L202.208 60.1712L202.324 64.2499L202.44 67.6985L202.556 66.3619L202.671 67.2448L202.787 66.5972L202.903 63.8908L203.019 61.4305L203.135 60.8312L203.25 60.4575L203.366 61.3164L203.482 60.8426L203.598 61.2304L203.714 62.5679L203.829 64.6356L203.945 60.7785L204.061 61.5489L204.177 65.3031L204.293 62.5294L204.408 63.0712L204.524 62.6573L204.64 61.9621L204.756 59.2224L204.871 61.9214L204.987 64.3279L205.103 61.5164L205.219 59.1833L205.335 60.354L205.45 59.731L205.566 57.362L205.682 61.1587L205.798 62.9547L205.914 58.4559L206.029 55.578L206.145 60.2329L206.261 58.4258L206.377 60.0282L206.493 57.5353L206.608 57.6713L206.724 56.4068L206.84 58.8393L206.956 57.891L207.072 58.7121L207.187 60.7431L207.303 63.9043L207.419 66.6254L207.535 59.4481L207.651 59.8628L207.766 61.2835L207.882 59.3599L207.998 57.5497L208.114 57.805L208.229 55.2308L208.345 49.3077L208.461 47.7647L208.577 50.5045L208.693 52.1468L208.808 53.5137L208.924 53.5344L209.04 54.6289L209.156 51.332L209.272 48.2229L209.387 51.9947L209.503 52.2947L209.619 53.2547L209.735 57.5302L209.851 61.2644L209.966 53.3723L210.082 50.863L210.198 49.3005L210.314 50.5338L210.43 52.538L210.545 55.4636L210.661 54.616L210.777 45.9379L210.893 48.9367L211.009 48.2205L211.124 50.6309L211.24 50.0962L211.356 50.468L211.472 49.8511L211.587 46.3966L211.703 47.7279L211.819 46.7158L211.935 46.2024L212.051 46.251L212.166 44.6028L212.282 46.7241L212.398 39.7555L212.514 41.9608L212.63 45.2602L212.745 45.2247L212.861 42.159L212.977 44.825L213.093 47.4013L213.209 44.5303L213.324 45.24L213.44 44.1972L213.556 42.3256L213.672 40.4188L213.788 44.2137L213.903 41.5774L214.019 38.1468L214.135 40.1622L214.251 41.5738L214.367 42.706L214.482 43.1343L214.598 48.4194L214.714 45.9077L214.83 44.2379L214.945 41.5715L215.061 42.2688L215.177 44.1805L215.293 40.0208L215.409 48.7214L215.524 47.5909L215.64 45.3543L215.756 46.7069L215.872 45.1267L215.988 46.7984L216.103 47.0614L216.219 47.1133L216.335 46.4691L216.451 41.1993L216.567 40.644L216.682 44.281L216.798 46.0618L216.914 46.5372L217.03 52.1939L217.146 52.997L217.261 51.5976L217.377 52.9951L217.493 51.5343L217.609 47.6789L217.725 50.3042L217.84 52.5505L217.956 52.1296L218.072 50.0067L218.188 49.4344L218.304 52.5263L218.419 31.6027L218.535 40.6944L218.651 49.4251L218.767 49.1257L218.882 46.9627L218.998 49.9047L219.114 49.7579L219.23 49.5641L219.346 52.5389L219.461 55.3718L219.577 56.3914L219.693 49.9786L219.809 49.5248L219.925 50.0433L220.04 53.444L220.156 54.3804L220.272 56.9526L220.388 55.3214L220.504 52.9393L220.619 49.7916L220.735 52.5054L220.851 53.4042L220.967 51.7053L221.083 52.4508L221.198 54.2358L221.314 49.3032L221.43 47.3161L221.546 49.2037L221.662 40.4255L221.777 45.4133L221.893 51.5811L222.009 54.7428L222.125 47.2296L222.24 48.541L222.356 45.5138L222.472 43.8394L222.588 47.0093L222.704 53.8154L222.819 56.4632L222.935 49.6429L223.051 50.0757L223.167 46.6274L223.283 48.4185L223.398 48.2401L223.514 49.4485L223.63 51.6386L223.746 45.6539L223.862 47.7694L223.977 46.7562L224.093 47.2578L224.209 44.8022L224.325 47.0721L224.441 53.5723L224.556 46.1713L224.672 45.6209L224.788 49.054L224.904 48.9033L225.02 45.6817L225.135 50.7188L225.251 52.3901L225.367 48.5503L225.483 44.7435L225.598 47.6882L225.714 47.5783L225.83 45.3154L225.946 44.7902L226.062 46.1538L226.177 42.4526L226.293 40.9615L226.409 42.8873L226.525 44.7256L226.641 48.6983L226.756 54.9332L226.872 54.8433L226.988 44.1286L227.104 44.7802L227.22 50.4748L227.335 48.0616L227.451 46.9247L227.567 51.3584L227.683 52.5544L227.799 48.7201L227.914 46.0517L228.03 45.995L228.146 49.2882L228.262 47.6114L228.378 49.3088L228.493 46.4528L228.609 40.8757L228.725 42.3594L228.841 39.7379L228.956 35.1972L229.072 43.5626L229.188 45.3154L229.304 50.3103L229.42 46.2134L229.535 46.2048L229.651 40.1586L229.767 46.4506L229.883 46.5818L229.999 46.63L230.114 44.4976L230.23 40.019L230.346 42.8434L230.462 41.6619L230.578 45.2587L230.693 46.7907L230.809 44.866L230.925 41.2803L231.041 38.9821L231.157 39.9255L231.272 38.6852L231.388 37.6625L231.504 38.2047L231.62 41.4303L231.736 42.6235L231.851 38.6936L231.967 45.1667L232.083 47.3648L232.199 44.0897L232.314 41.6882L232.43 43.5971L232.546 46.9947L232.662 42.2089L232.778 40.2755L232.893 42.4358L233.009 44.4515L233.125 44.1918L233.241 46.5677L233.357 47.8605L233.472 42.8118L233.588 43.5263L233.704 46.55L233.82 43.7384L233.936 37.9222L234.051 42.1927L234.167 40.6878L234.283 37.5563L234.399 37.4186L234.515 36.741L234.63 37.0254L234.746 36.6284L234.862 41.652L234.978 41.4935L235.094 38.95L235.209 36.0283L235.325 36.4336L235.441 39.2442L235.557 38.1287L235.673 40.2682L235.788 42.8456L235.904 42.6293L236.02 42.211L236.136 39.922L236.251 37.6705L236.367 36.2497L236.483 35.4664L236.599 41.3311L236.715 36.8949L236.83 37.4192L236.946 38.4159L237.062 41.374L237.178 41.1775L237.294 43.0843L237.409 44.3573L237.525 44.0152L237.641 40.9553L237.757 41.2448L237.873 41.253L237.988 42.7342L238.104 45.4481L238.22 44.3435L238.336 42.2956L238.452 38.9721L238.567 40.0595L238.683 38.4408L238.799 36.1335L238.915 37.9566L239.031 38.8286L239.146 36.3755L239.262 37.0746L239.378 39.144L239.494 37.5952L239.609 38.0762L239.725 39.7074L239.841 42.8794L239.957 37.161L240.073 37.6404L240.188 37.0477L240.304 34.7808L240.42 39.5085L240.536 41.4864L240.652 42.5493L240.767 39.2792L240.883 37.5268L240.999 34.5022L241.115 33.7463L241.231 34.2757L241.346 37.9577L241.462 43.3413L241.578 37.7539L241.694 35.5627L241.81 37.9621L241.925 38.4587L242.041 37.532L242.157 36.7348L242.273 40.0122L242.389 34.8756L242.504 34.7355L242.62 32.7123L242.736 43.3715L242.852 30.4205L242.967 28.9529L243.083 32.1243L243.199 27.6083L243.315 23.1688L243.431 22.6163L243.546 21.9446L243.662 24.2099L243.778 32.5565L243.894 32.5426L244.01 29.2086L244.125 29.2183L244.241 25.3094L244.357 24.5698L244.473 29.6167L244.589 30.3872L244.704 30.9574L244.82 26.9336L244.936 24.2652L245.052 25.2376L245.168 24.4864L245.283 24.7293L245.399 14.409L245.515 14.0865L245.631 14.0928L245.747 14.1175L245.862 19.3046L245.978 21.3076L246.094 24.515L246.21 27.843L246.325 30.5255L246.441 29.3123L246.557 30.529L246.673 28.4919L246.789 28.6063L246.904 33.7808L247.02 38.5031L247.136 39.5977L247.252 36.8632L247.368 38.1769L247.483 36.091L247.599 38.0676L247.715 37.2953L247.831 37.9525L247.947 38.6937L248.062 37.7008L248.178 39.0281L248.294 36.7821L248.41 35.4549L248.526 37.48L248.641 44.5369L248.757 46.914L248.873 41.7805L248.989 42.0335L249.105 43.5443L249.22 43.8669L249.336 44.1641L249.452 47.069L249.568 47.4661L249.684 43.8669L249.799 41.8622L249.915 43.1589L250.031 42.1524L250.147 44.9031L250.262 51.6704L250.378 51.27L250.494 42.6819L250.61 37.7146L250.726 43.1101L250.841 42.826L250.957 41.68L251.073 46.0154L251.189 48.596L251.305 31.7107L251.42 39.594L251.536 42.5326L251.652 42.561L251.768 44.2606L251.884 47.5898L251.999 48.5599L252.115 46.16L252.231 34.4561L252.347 38.0905L252.463 39.6894L252.578 41.8853L252.694 46.6467L252.81 48.7616L252.926 43.7028L253.042 44.157L253.157 41.917L253.273 39.8392L253.389 43.2768L253.505 45.2166L253.62 44.9786L253.736 43.4911L253.852 43.6303L253.968 43.4938L254.084 43.061L254.199 43.0299L254.315 41.7828L254.431 47.2342L254.547 39.8027L254.663 36.5595L254.778 37.5657L254.894 39.8868L255.01 40.8337L255.126 42.5265L255.242 43.7506L255.357 39.3035L255.473 42.1125L255.589 41.8769L255.705 45.4963L255.821 42.5435L255.936 43.3098L256.052 44.1081L256.168 42.1728L256.284 42.5284L256.4 41.2809L256.515 43.4875L256.631 43.3878L256.747 45.4806L256.863 47.4346L256.978 40.1778L257.094 40.2796L257.21 43.1344L257.326 40.094L257.442 39.8345L257.557 43.9683L257.673 44.1298L257.789 40.6484L257.905 40.5679L258.021 44.0798L258.136 44.6278L258.252 47.7856L258.368 47.0722L258.484 46.202L258.6 43.2782L258.715 42.8653L258.831 41.8056L258.947 39.7666L259.063 43.2904L259.179 43.837L259.294 46.8045L259.41 42.8553L259.526 37.1265L259.642 44.4369L259.758 42.102L259.873 40.7001L259.989 40.4333L260.105 42.5826L260.221 39.4151L260.336 41.4596L260.452 42.7934L260.568 41.8477L260.684 43.922L260.8 46.4261L260.915 47.2693L261.031 44.6562L261.147 43.5996L261.263 44.6861L261.379 43.6132L261.494 45.8899L261.61 47.6724L261.726 49.5077L261.842 46.9491L261.958 48.4031L262.073 46.8383L262.189 47.95L262.305 42.8118L262.421 47.8517L262.537 47.1566L262.652 47.6479L262.768 41.2095L262.884 35.448L263 35.0836L263.116 38.3129L263.231 43.6807L263.347 46.7237L263.463 44.1528L263.579 43.0203L263.694 43.7936L263.81 41.6932L263.926 37.4129L264.042 44.2912L264.158 46.3693L264.273 43.3527L264.389 40.768L264.505 39.8441L264.621 38.8633L264.737 40.0607L264.852 41.238L264.968 39.7636L265.084 37.6102L265.2 35.0567L265.316 33.6054L265.431 25.7099L265.547 28.7649L265.663 33.1209L265.779 37.3457L265.895 35.2281L266.01 32.1869L266.126 30.9707L266.242 34.6385L266.358 35.3449L266.474 40.0676L266.589 38.8789L266.705 35.9452L266.821 35.656L266.937 32.4638L267.052 34.8947L267.168 35.0364L267.284 37.5555L267.4 38.9497L267.516 38.1662L267.631 37.0091L267.747 34.5803L267.863 38.47L267.979 40.0751L268.095 45.4701L268.21 39.7846L268.326 42.0084L268.442 39.5559L268.558 35.1853L268.674 37.4927L268.789 37.7213L268.905 42.4723L269.021 46.8505L269.137 40.532L269.253 38.6574L269.368 42.0008L269.484 39.5395L269.6 42.5735L269.716 41.2082L269.832 32.7038L269.947 40.6964L270.063 41.8244L270.179 37.79L270.295 40.3261L270.411 41.0933L270.526 43.2562L270.642 44.2423L270.758 40.7976L270.874 42.3811L270.989 39.9243L271.105 45.7336L271.221 39.2536L271.337 45.4845L271.453 46.7417L271.568 43.1516L271.684 43.0163L271.8 41.3426L271.916 40.6699L272.032 37.6759L272.147 37.6088L272.263 42.8299L272.379 40.2867L272.495 40.9073L272.611 40.2624L272.726 40.0808L272.842 42.3989L272.958 44.2936L273.074 45.5394L273.19 42.7041L273.305 42.0193L273.421 40.4225L273.537 42.5168L273.653 43.8706L273.769 44.131L273.884 48.3918L274 41.3493L274.116 38.8422L274.232 38.5209L274.347 38.5449L274.463 42.1803L274.579 44.6399L274.695 45.3107L274.811 43.2937L274.926 44.9401L275.042 41.9162L275.158 43.7844L275.274 43.7912L275.39 42.944L275.505 50.1085L275.621 46.2044L275.737 44.4825L275.853 46.2604L275.969 46.9615L276.084 46.743L276.2 46.2017L276.316 44.1323L276.432 44.4991L276.548 44.7329L276.663 45.891L276.779 48.2287L276.895 44.9701L277.011 41.2462L277.127 44.6943L277.242 45.2891L277.358 44.3054L277.474 42.8893L277.59 42.9013L277.705 44.1257L277.821 48.0351L277.937 47.9985L278.053 46.1811L278.169 43.6369L278.284 43.5207L278.4 46.4927L278.516 40.2463L278.632 46.0322L278.748 35.1076L278.863 46.924L278.979 47.2136L279.095 46.1749L279.211 44.2827L279.327 46.7238L279.442 45.0373L279.558 47.4476L279.674 48.4037L279.79 45.3891L279.906 43.7082L280.021 45.072L280.137 45.0572L280.253 50.103L280.369 47.5502L280.485 44.6557L280.6 43.4681L280.716 44.444L280.832 41.5526L280.948 47.7708L281.063 47.6979L281.179 52.142L281.295 48.9789L281.411 43.7737L281.527 41.1905L281.642 44.6578L281.758 39.5024L281.874 47.3042L281.99 47.7859L282.106 45.3178L282.221 42.0613L282.337 45.2271L282.453 45.9303L282.569 46.221L282.685 47.5145L282.8 47.5824L282.916 42.205L283.032 43.2271L283.148 45.9172L283.264 45.0757L283.379 45.5059L283.495 49.1619L283.611 51.0732L283.727 48.5696L283.843 49.5871L283.958 47.3286L284.074 47.2937L284.19 48.612L284.306 49.6846L284.422 48.6221L284.537 48.1131L284.653 48.1549L284.769 50.6669L284.885 47.8864L285 48.2412L285.116 51.1574L285.232 52.0617L285.348 48.6672L285.464 42.4039L285.579 40.879L285.695 47.7375L285.811 46.3333L285.927 51.5977L286.043 50.4528L286.158 46.0849L286.274 47.4371L286.39 45.3925L286.506 45.7303L286.622 45.0216L286.737 42.5632L286.853 45.7713L286.969 48.1808L287.085 50.1298L287.201 48.7341L287.316 43.9093L287.432 47.9271L287.548 51.5971L287.664 49.5832L287.78 45.571L287.895 43.056L288.011 42.6175L288.127 36.0164L288.243 35.1902L288.358 46.6174L288.474 49.4567L288.59 47.4878L288.706 46.8468L288.822 44.4671L288.937 49.2353L289.053 48.1387L289.169 49.1692L289.285 51.3628L289.401 49.6585L289.516 48.8209L289.632 49.1635L289.748 50.4866L289.864 49.2295L289.98 50.5643L290.095 50.8121L290.211 50.5351L290.327 46.0897L290.443 49.3541L290.559 49.2686L290.674 50.695L290.79 52.8586L290.906 54.1L291.022 52.0015L291.138 51.6256L291.253 52.09L291.369 53.2341L291.485 50.0203L291.601 52.7178L291.716 53.2808L291.832 48.3291L291.948 49.6081L292.064 49.0304L292.18 48.8436L292.295 48.2646L292.411 51.2109L292.527 53.4478L292.643 52.0901L292.759 53.7755L292.874 55.1392L292.99 56.3076L293.106 53.4028L293.222 57.9248L293.338 59.0285L293.453 54.8336L293.569 55.8219L293.685 54.1875L293.801 51.431L293.917 44.4272L294.032 43.8203L294.148 45.6436L294.264 45.9286L294.38 44.2082L294.496 45.3966L294.611 43.5412L294.727 43.6264L294.843 44.8712L294.959 46.1149L295.074 46.2461L295.19 46.8367L295.306 44.638L295.422 43.8098L295.538 42.2291L295.653 40.8808L295.769 40.6528L295.885 42.4564L296.001 44.6017L296.117 43.7035L296.232 42.9735L296.348 43.1256L296.464 46.3533L296.58 47.6034L296.696 38.9431L296.811 16.2032L296.927 43.3654L297.043 45.5799L297.159 43.654L297.275 44.3635L297.39 45.5551L297.506 35.2016L297.622 42.8726L297.738 40.3515L297.854 28.6364L297.969 42.8161L298.085 46.1414L298.201 45.0864L298.317 45.0761L298.432 47.4434L298.548 45.4559L298.664 48.9341L298.78 47.1214L298.896 48.5095L299.011 48.7277L299.127 48.6126L299.243 49.6332L299.359 48.9029L299.475 47.8535L299.59 49.2385L299.706 49.0818L299.822 50.1442L299.938 51.1205L300.054 50.2306L300.169 52.0296L300.285 50.2958L300.401 51.243L300.517 51.7967L300.633 53.0885L300.748 49.8086L300.864 51.5703L300.98 52.5194L301.096 49.6981L301.212 49.8075L301.327 52.494L301.443 48.1213L301.559 49.349L301.675 50.1623L301.791 50.6492L301.906 50.0631L302.022 49.2015L302.138 54.6048L302.254 53.1202L302.369 50.6113L302.485 49.2444L302.601 48.3439L302.717 39.5195L302.833 36.9134L302.948 36.3366L303.064 45.6526L303.18 46.7062L303.296 46.096L303.412 48.8539L303.527 47.8293L303.643 47.7392L303.759 48.342L303.875 48.4542L303.991 46.5366L304.106 42.4153L304.222 48.3138L304.338 47.1942L304.454 41.7615L304.57 45.588L304.685 45.2587L304.801 37.1789L304.917 44.0522L305.033 44.9497L305.149 43.071L305.264 44.3292L305.38 44.3447L305.496 50.636L305.612 47.5421L305.727 47.1518L305.843 50.316L305.959 47.5004L306.075 50.4462L306.191 52.3652L306.306 55.5906L306.422 50.3804L306.538 50.9726L306.654 49.504L306.77 45.7261L306.885 47.9125L307.001 56.7897L307.117 53.9499L307.233 52.2879L307.349 51.7937L307.464 48.5948L307.58 48.1965L307.696 51.1378L307.812 52.3127L307.928 52.613L308.043 50.9339L308.159 50.4411L308.275 53.6017L308.391 49.2009L308.507 53.7038L308.622 57.2042L308.738 56.5964L308.854 48.4827L308.97 47.0538L309.085 42.1133L309.201 44.0882L309.317 47.7915L309.433 52.6151L309.549 46.9751L309.664 43.6262L309.78 46.7795L309.896 49.7751L310.012 48.6694L310.128 54.0224L310.243 59.4701L310.359 58.6048L310.475 56.5338L310.591 56.5919L310.707 56.0481L310.822 55.0535L310.938 54.5504L311.054 58.1674L311.17 61.1933L311.286 49.5537L311.401 51.8284L311.517 53.0059L311.633 55.3955L311.749 52.6425L311.865 56.5447L311.98 56.6343L312.096 54.0382L312.212 51.7337L312.328 56.0732L312.443 58.7935L312.559 1.89844L312.675 48.6808L312.791 50.6607L312.907 44.2365L313.022 45.9828L313.138 49.1364L313.254 49.9792L313.37 45.8568L313.486 52.2102L313.601 59.1922L313.717 54.7972L313.833 54.9256L313.949 52.861L314.065 55.0894L314.18 51.9759L314.296 59.4917L314.412 63.7262L314.528 58.0171L314.644 53.0755L314.759 55.7761L314.875 57.5674L314.991 57.6157L315.107 62.0691L315.223 69.0072L315.338 58.9972L315.454 57.4271L315.57 51.8847L315.686 46.4464L315.801 52.9144L315.917 56.8918L316.033 44.1174L316.149 49.2179L316.265 51.0576L316.38 49.8099L316.496 49.6754L316.612 50.1962L316.728 48.4211L316.844 54.4571L316.959 51.2703L317.075 53.4659L317.191 47.8333" stroke="#CED4DA" stroke-width="0.6" stroke-linecap="round" stroke-linejoin="round"/>
</g>
</g>
</g>
<defs>
<clipPath id="clip0_190_6422">
<rect width="318" height="111" fill="white" transform="translate(0.191406 0.898438)"/>
</clipPath>
<clipPath id="clip1_190_6422">
<rect width="318" height="111" fill="white" transform="translate(0.191406 0.898438)"/>
</clipPath>
<clipPath id="clip2_190_6422">
<rect width="318" height="111" fill="white" transform="translate(0.191406 0.898438)"/>
</clipPath>
</defs>
</svg>
