<svg width="17" height="14" viewBox="0 0 17 14" fill="none" xmlns="http://www.w3.org/2000/svg">
<path d="M14.5843 1.82812H1.89683C1.61363 1.84701 1.46259 1.99805 1.44371 2.28125V11.3438C1.46259 11.627 1.61363 11.778 1.89683 11.7969H14.5843C14.8675 11.778 15.0186 11.627 15.0375 11.3438V2.28125C15.0186 1.99805 14.8675 1.84701 14.5843 1.82812ZM1.89683 0.46875H14.5843C15.0941 0.48763 15.5189 0.666992 15.8587 1.00684C16.1986 1.34668 16.378 1.77148 16.3968 2.28125V11.3438C16.378 11.8535 16.1986 12.2783 15.8587 12.6182C15.5189 12.958 15.0941 13.1374 14.5843 13.1562H1.89683C1.38706 13.1374 0.96226 12.958 0.622416 12.6182C0.282573 12.2783 0.103211 11.8535 0.0843306 11.3438V2.28125C0.103211 1.77148 0.282573 1.34668 0.622416 1.00684C0.96226 0.666992 1.38706 0.48763 1.89683 0.46875ZM5.97496 6.8125C5.29527 6.79362 4.77606 6.49154 4.41734 5.90625C4.07749 5.30208 4.07749 4.69792 4.41734 4.09375C4.77606 3.50846 5.29527 3.20638 5.97496 3.1875C6.65464 3.20638 7.17385 3.50846 7.53257 4.09375C7.87242 4.69792 7.87242 5.30208 7.53257 5.90625C7.17385 6.49154 6.65464 6.79362 5.97496 6.8125ZM5.06871 7.71875H6.88121C7.52313 7.73763 8.06122 7.95475 8.49546 8.37012C8.91083 8.80436 9.12795 9.34245 9.14683 9.98438C9.12795 10.2676 8.97691 10.4186 8.69371 10.4375H3.25621C2.973 10.4186 2.82196 10.2676 2.80308 9.98438C2.82196 9.34245 3.03908 8.80436 3.45445 8.37012C3.88869 7.95475 4.42678 7.73763 5.06871 7.71875ZM10.7328 3.64062H12.9984C13.4138 3.67839 13.6403 3.90495 13.6781 4.32031C13.6403 4.73568 13.4138 4.96224 12.9984 5H10.7328C10.3174 4.96224 10.0908 4.73568 10.0531 4.32031C10.0908 3.90495 10.3174 3.67839 10.7328 3.64062ZM10.7328 6.35938H12.9984C13.4138 6.39714 13.6403 6.6237 13.6781 7.03906C13.6403 7.45443 13.4138 7.68099 12.9984 7.71875H10.7328C10.3174 7.68099 10.0908 7.45443 10.0531 7.03906C10.0908 6.6237 10.3174 6.39714 10.7328 6.35938Z" fill="#BBBBBB"/>
</svg>
