<svg width="15" height="12" viewBox="0 0 15 12" fill="none" xmlns="http://www.w3.org/2000/svg">
<path d="M7.63211 1.64297C6.8282 1.65937 6.09812 1.82344 5.44187 2.13516C4.78562 2.43047 4.2032 2.82422 3.69461 3.31641C3.21882 3.75937 2.81687 4.21875 2.48875 4.69453C2.17703 5.17031 1.93093 5.59687 1.75046 5.97422C1.93093 6.35156 2.17703 6.77812 2.48875 7.25391C2.81687 7.72969 3.21882 8.18906 3.69461 8.63203C4.2032 9.12422 4.78562 9.51797 5.44187 9.81328C6.09812 10.125 6.8282 10.2891 7.63211 10.3055C8.43601 10.2891 9.16609 10.125 9.82234 9.81328C10.4786 9.51797 11.061 9.12422 11.5696 8.63203C12.0454 8.18906 12.4473 7.72969 12.7755 7.25391C13.0872 6.77812 13.3333 6.35156 13.5137 5.97422C13.3333 5.59687 13.0872 5.17031 12.7755 4.69453C12.4473 4.21875 12.0454 3.75937 11.5696 3.31641C11.061 2.82422 10.4786 2.43047 9.82234 2.13516C9.16609 1.82344 8.43601 1.65937 7.63211 1.64297ZM2.8825 2.45508C3.47312 1.89727 4.16218 1.42969 4.94968 1.05234C5.73718 0.675 6.63132 0.478125 7.63211 0.461718C8.63289 0.478125 9.52703 0.675 10.3145 1.05234C11.102 1.42969 11.7911 1.89727 12.3817 2.45508C12.9559 2.99648 13.4317 3.5543 13.8091 4.12852C14.1864 4.70273 14.4735 5.21953 14.6704 5.67891C14.7524 5.87578 14.7524 6.07266 14.6704 6.26953C14.4735 6.72891 14.1864 7.2457 13.8091 7.81992C13.4317 8.39414 12.9559 8.95195 12.3817 9.49336C11.7911 10.0512 11.102 10.5187 10.3145 10.8961C9.52703 11.2734 8.63289 11.4703 7.63211 11.4867C6.63132 11.4703 5.73718 11.2734 4.94968 10.8961C4.16218 10.5187 3.47312 10.0512 2.8825 9.49336C2.30828 8.95195 1.8325 8.39414 1.45515 7.81992C1.07781 7.2457 0.798902 6.72891 0.618433 6.26953C0.536402 6.07266 0.536402 5.87578 0.618433 5.67891C0.798902 5.21953 1.07781 4.70273 1.45515 4.12852C1.8325 3.5543 2.30828 2.99648 2.8825 2.45508ZM7.63211 7.94297C8.18992 7.92656 8.6575 7.73789 9.03484 7.37695C9.39578 6.99961 9.58445 6.53203 9.60086 5.97422C9.58445 5.41641 9.39578 4.94883 9.03484 4.57148C8.6575 4.21055 8.18992 4.02187 7.63211 4.00547C7.6157 4.00547 7.6075 4.00547 7.6075 4.00547C7.6075 4.00547 7.59929 4.00547 7.58289 4.00547C7.6157 4.13672 7.63211 4.26797 7.63211 4.39922C7.6157 4.84219 7.45984 5.21133 7.16453 5.50664C6.86921 5.80195 6.50007 5.95781 6.05711 5.97422C5.92586 5.97422 5.79461 5.95781 5.66336 5.925C5.66336 5.94141 5.66336 5.94961 5.66336 5.94961C5.66336 5.94961 5.66336 5.95781 5.66336 5.97422C5.67976 6.53203 5.86843 6.99961 6.22937 7.37695C6.60671 7.73789 7.07429 7.92656 7.63211 7.94297ZM7.63211 2.82422C8.20632 2.82422 8.73132 2.96367 9.20711 3.24258C9.68289 3.52148 10.0684 3.90703 10.3637 4.39922C10.6427 4.89141 10.7821 5.41641 10.7821 5.97422C10.7821 6.53203 10.6427 7.05703 10.3637 7.54922C10.0684 8.04141 9.68289 8.42695 9.20711 8.70586C8.73132 8.98477 8.20632 9.12422 7.63211 9.12422C7.05789 9.12422 6.53289 8.98477 6.05711 8.70586C5.58132 8.42695 5.19578 8.04141 4.90046 7.54922C4.62156 7.05703 4.48211 6.53203 4.48211 5.97422C4.48211 5.41641 4.62156 4.89141 4.90046 4.39922C5.19578 3.90703 5.58132 3.52148 6.05711 3.24258C6.53289 2.96367 7.05789 2.82422 7.63211 2.82422Z" fill="#FAFAFA"/>
</svg>
