<svg width="14" height="11" viewBox="0 0 14 11" fill="none" xmlns="http://www.w3.org/2000/svg">
<path d="M1.04095 7.98055L3.10262 10.0439C3.34601 10.2445 3.5894 10.2445 3.8328 10.0439L5.89446 7.98055C6.0949 7.73696 6.0949 7.49338 5.89446 7.24979C5.65107 7.04919 5.40768 7.04919 5.16429 7.24979L3.98313 8.43191V1.08128C3.95449 0.766048 3.78269 0.594104 3.46771 0.565447C3.15273 0.594104 2.98093 0.766048 2.95229 1.08128V8.43191L1.77113 7.24979C1.52774 7.04919 1.28435 7.04919 1.04095 7.24979C0.840515 7.49338 0.840515 7.73696 1.04095 7.98055ZM7.41924 10.1943H8.45007C8.76505 10.1657 8.93685 9.99373 8.96549 9.6785C8.93685 9.36327 8.76505 9.19133 8.45007 9.16267H7.41924C7.10426 9.19133 6.93245 9.36327 6.90382 9.6785C6.93245 9.99373 7.10426 10.1657 7.41924 10.1943ZM7.41924 7.44322H9.82451C10.1395 7.41457 10.3113 7.24262 10.3399 6.92739C10.3113 6.61216 10.1395 6.44022 9.82451 6.41156H7.41924C7.10426 6.44022 6.93245 6.61216 6.90382 6.92739C6.93245 7.24262 7.10426 7.41457 7.41924 7.44322ZM7.41924 4.69211H11.199C11.5139 4.66346 11.6857 4.49151 11.7144 4.17628C11.6857 3.86105 11.5139 3.6891 11.199 3.66045H7.41924C7.10426 3.6891 6.93245 3.86105 6.90382 4.17628C6.93245 4.49151 7.10426 4.66346 7.41924 4.69211ZM7.41924 1.941H12.5734C12.8884 1.91234 13.0602 1.7404 13.0888 1.42517C13.0602 1.10994 12.8884 0.937993 12.5734 0.909335H7.41924C7.10426 0.937993 6.93245 1.10994 6.90382 1.42517C6.93245 1.7404 7.10426 1.91234 7.41924 1.941Z" fill="#ADB5BD"/>
</svg>
