<svg width="16" height="14" viewBox="0 0 16 14" fill="none" xmlns="http://www.w3.org/2000/svg">
<g id="Icon" clip-path="url(#clip0_40_8803)">
<path id="Vector" d="M5.9903 1.20682C5.69798 1.20682 5.45438 1.3042 5.25949 1.49896C5.06461 1.69371 4.96717 1.93716 4.96717 2.22929C4.96717 2.45651 5.04025 2.66749 5.18641 2.86225L8.47502 7.04952V8.60757C8.47502 8.91593 8.59682 9.17561 8.84043 9.3866L11.1059 11.1637C11.382 11.3423 11.6581 11.3666 11.9342 11.2368C12.2102 11.1069 12.3564 10.8716 12.3726 10.5308V7.04952L15.6612 2.86225C15.8074 2.66749 15.8805 2.45651 15.8805 2.22929C15.8805 1.93716 15.783 1.69371 15.5882 1.49896C15.3933 1.3042 15.1497 1.20682 14.8574 1.20682H5.9903ZM9.52251 6.48959L6.30698 2.37536H14.565L11.3252 6.48959C11.244 6.6032 11.2034 6.72492 11.2034 6.85476V9.75176L9.64431 8.51019V6.85476C9.64431 6.72492 9.60371 6.6032 9.52251 6.48959ZM4.26073 2.76487H1.31316C1.02084 2.76487 0.777241 2.86225 0.58236 3.05701C0.387479 3.25176 0.290039 3.49521 0.290039 3.78734C0.290039 4.01456 0.363119 4.22555 0.50928 4.4203L3.79789 8.60757V9.3866C3.79789 9.69496 3.91969 9.95464 4.16329 10.1656L6.42878 11.9428C6.70486 12.1213 6.98094 12.1456 7.25702 12.0158C7.5331 11.886 7.67926 11.6506 7.6955 11.3098V8.60757V7.31731L7.4519 7.02517L6.64802 8.04764C6.56682 8.16125 6.52622 8.28297 6.52622 8.41281V10.5308L4.96717 9.28922V8.41281C4.96717 8.28297 4.92657 8.16125 4.84537 8.04764L1.62984 3.93341H5.04025L4.57741 3.3248C4.43125 3.1625 4.32569 2.97586 4.26073 2.76487Z" fill="#FAFAFA"/>
</g>
<defs>
<clipPath id="clip0_40_8803">
<rect width="15.71" height="13" fill="white" transform="matrix(1 0 0 -1 0.230469 13.16)"/>
</clipPath>
</defs>
</svg>
