<svg width="16" height="12" viewBox="0 0 16 12" fill="none" xmlns="http://www.w3.org/2000/svg">
<g clip-path="url(#clip0_62_9162)">
<mask id="mask0_62_9162" style="mask-type:luminance" maskUnits="userSpaceOnUse" x="0" y="0" width="16" height="13">
<path d="M0.575195 0.72998H15.6153V12.01H0.575195V0.72998Z" fill="white"/>
</mask>
<g mask="url(#mask0_62_9162)">
<path d="M-3.18481 0.72998H19.3756V12.0102H-3.18481V0.72998Z" fill="#000066"/>
<path d="M-3.18481 0.72998V1.99114L16.8534 12.0102H19.3756V10.7491L-0.662567 0.72998H-3.18481ZM19.3756 0.72998V1.99112L-0.662567 12.0102H-3.18481V10.7491L16.8534 0.72998H19.3756Z" fill="white"/>
<path d="M6.21537 0.72998V12.0102H9.97544V0.72998H6.21537ZM-3.18481 4.49005V8.25013H19.3756V4.49005H-3.18481Z" fill="white"/>
<path d="M-3.18481 5.24207V7.49811H19.3756V5.24207H-3.18481ZM6.96741 0.72998V12.0102H9.2234V0.72998H6.96741ZM-3.18481 12.0102L4.33533 8.25013H6.01685L-1.5033 12.0102H-3.18481ZM-3.18481 0.72998L4.33533 4.49005H2.65382L-3.18481 1.57078V0.72998ZM10.174 4.49005L17.6941 0.72998H19.3756L11.8555 4.49005H10.174ZM19.3756 12.0102L11.8555 8.25013H13.537L19.3756 11.1694V12.0102Z" fill="#CC0000"/>
</g>
</g>
<defs>
<clipPath id="clip0_62_9162">
<rect width="15" height="11.25" fill="white" transform="translate(0.580078 0.72998)"/>
</clipPath>
</defs>
</svg>
