<svg width="121" height="21" viewBox="0 0 121 21" fill="none" xmlns="http://www.w3.org/2000/svg">
<path d="M0.300781 18.9399H120.301" stroke="#CCD6EB"/>
<mask id="mask0_64_24335" style="mask-type:luminance" maskUnits="userSpaceOnUse" x="0" y="2" width="121" height="17">
<path d="M120.301 2.43994H0.300781V18.4399H120.301V2.43994Z" fill="white"/>
</mask>
<g mask="url(#mask0_64_24335)">
<path d="M1.47656 18.4386L9.87992 17.3414L18.2833 16.2978L26.6866 14.9995L35.09 13.7937L43.4934 12.5093L51.8967 11.3384L60.3001 9.47849L68.7035 8.16819L77.1068 7.11145L85.5102 5.97473L93.9135 5.26308L102.317 4.22643L110.72 3.3592L119.124 3.20166V18.4398H110.72H102.317H93.9135H85.5102H77.1068H68.7035H60.3001H51.8967H43.4934H35.09H26.6866H18.2833H9.87992H1.47656V18.4386Z" fill="#7CB5EC" fill-opacity="0.25"/>
<path d="M1.47656 18.4386L9.87992 17.3414L18.2833 16.2978L26.6866 14.9995L35.09 13.7937L43.4934 12.5093L51.8967 11.3384L60.3001 9.47849L68.7035 8.16819L77.1068 7.11145L85.5102 5.97473L93.9135 5.26308L102.317 4.22643L110.72 3.3592L119.124 3.20166" stroke="#7CB5EC" stroke-linecap="round" stroke-linejoin="round"/>
</g>
<path d="M1.30078 19.4399C1.03561 19.4399 0.781292 19.3346 0.593763 19.1471C0.406234 18.9597 0.300848 18.7054 0.300781 18.4402C0.300715 18.175 0.405974 17.9207 0.593409 17.7331C0.780845 17.5455 1.03511 17.4401 1.30028 17.4399C1.56545 17.4398 1.81982 17.545 2.00745 17.7324C2.19507 17.9198 2.30058 18.174 2.30078 18.4392C2.30098 18.7044 2.19585 18.9588 2.00851 19.1464C1.82116 19.3341 1.56695 19.4397 1.30178 19.4399H1.30078Z" fill="#7CB5EC"/>
<path d="M9.30078 18.4399C9.03561 18.4399 8.78129 18.3346 8.59376 18.1471C8.40623 17.9597 8.30085 17.7054 8.30078 17.4402C8.30071 17.175 8.40597 16.9207 8.59341 16.7331C8.78084 16.5455 9.03511 16.4401 9.30028 16.4399C9.56545 16.4398 9.81982 16.545 10.0074 16.7324C10.1951 16.9198 10.3006 17.174 10.3008 17.4392C10.301 17.7044 10.1958 17.9588 10.0085 18.1464C9.82117 18.3341 9.56695 18.4397 9.30178 18.4399L9.30078 18.4399Z" fill="#7CB5EC"/>
<path d="M17.3008 17.4399C17.0356 17.4399 16.7813 17.3346 16.5938 17.1471C16.4062 16.9597 16.3008 16.7054 16.3008 16.4402C16.3007 16.175 16.406 15.9207 16.5934 15.7331C16.7808 15.5455 17.0351 15.4401 17.3003 15.4399C17.5655 15.4398 17.8198 15.545 18.0074 15.7324C18.1951 15.9198 18.3006 16.174 18.3008 16.4392C18.301 16.7044 18.1958 16.9588 18.0085 17.1464C17.8212 17.3341 17.566 17.4397 17.3008 17.4399Z" fill="#7CB5EC"/>
<path d="M26.3008 16.4399C26.0356 16.4399 25.7813 16.3346 25.5938 16.1471C25.4062 15.9597 25.3008 15.7054 25.3008 15.4402C25.3007 15.175 25.406 14.9207 25.5934 14.7331C25.7808 14.5455 26.0351 14.4401 26.3003 14.4399C26.5655 14.4398 26.8198 14.545 27.0074 14.7324C27.1951 14.9198 27.3006 15.174 27.3008 15.4392C27.301 15.7044 27.1958 15.9588 27.0085 16.1464C26.8212 16.3341 26.566 16.4397 26.3008 16.4399Z" fill="#7CB5EC"/>
<path d="M34.3008 14.4399C34.0356 14.4399 33.7813 14.3346 33.5938 14.1471C33.4062 13.9597 33.3008 13.7054 33.3008 13.4402C33.3007 13.175 33.406 12.9207 33.5934 12.7331C33.7808 12.5455 34.0351 12.4401 34.3003 12.4399C34.5655 12.4398 34.8198 12.545 35.0074 12.7324C35.1951 12.9198 35.3006 13.174 35.3008 13.4392C35.301 13.7044 35.1958 13.9588 35.0085 14.1464C34.8212 14.3341 34.566 14.4397 34.3008 14.4399Z" fill="#7CB5EC"/>
<path d="M43.3008 13.4399C43.0356 13.4399 42.7813 13.3346 42.5938 13.1471C42.4062 12.9597 42.3008 12.7054 42.3008 12.4402C42.3007 12.175 42.406 11.9207 42.5934 11.7331C42.7808 11.5455 43.0351 11.4401 43.3003 11.4399C43.5655 11.4398 43.8198 11.545 44.0074 11.7324C44.1951 11.9198 44.3006 12.174 44.3008 12.4392C44.301 12.7044 44.1958 12.9588 44.0085 13.1464C43.8212 13.3341 43.566 13.4397 43.3008 13.4399Z" fill="#7CB5EC"/>
<path d="M51.3008 12.4399C51.0356 12.4399 50.7813 12.3346 50.5938 12.1471C50.4062 11.9597 50.3008 11.7054 50.3008 11.4402C50.3007 11.175 50.406 10.9207 50.5934 10.7331C50.7808 10.5455 51.0351 10.4401 51.3003 10.4399C51.5655 10.4398 51.8198 10.545 52.0074 10.7324C52.1951 10.9198 52.3006 11.174 52.3008 11.4392C52.301 11.7044 52.1958 11.9588 52.0085 12.1464C51.8212 12.3341 51.566 12.4397 51.3008 12.4399Z" fill="#7CB5EC"/>
<path d="M60.3008 10.4399C60.0356 10.4399 59.7813 10.3346 59.5938 10.1471C59.4062 9.95965 59.3008 9.70536 59.3008 9.44019C59.3007 9.17502 59.406 8.92068 59.5934 8.7331C59.7808 8.54552 60.0351 8.44007 60.3003 8.43994C60.5655 8.43981 60.8198 8.545 61.0074 8.73239C61.1951 8.91978 61.3006 9.17402 61.3008 9.43919C61.301 9.70436 61.1958 9.95876 61.0085 10.1464C60.8212 10.3341 60.566 10.4397 60.3008 10.4399Z" fill="#7CB5EC"/>
<path d="M68.3008 9.43994C68.0356 9.43994 67.7813 9.33462 67.5938 9.14714C67.4062 8.95965 67.3008 8.70536 67.3008 8.44019C67.3007 8.17502 67.406 7.92068 67.5934 7.7331C67.7808 7.54552 68.0351 7.44007 68.3003 7.43994C68.5655 7.43981 68.8198 7.545 69.0074 7.73239C69.1951 7.91978 69.3006 8.17402 69.3008 8.43919C69.301 8.70436 69.1958 8.95876 69.0085 9.14643C68.8212 9.3341 68.566 9.43968 68.3008 9.43994Z" fill="#7CB5EC"/>
<path d="M76.3008 8.43994C76.0356 8.43994 75.7813 8.33462 75.5938 8.14714C75.4062 7.95965 75.3008 7.70536 75.3008 7.44019C75.3007 7.17502 75.406 6.92068 75.5934 6.7331C75.7808 6.54552 76.0351 6.44007 76.3003 6.43994C76.5655 6.43981 76.8198 6.545 77.0074 6.73239C77.1951 6.91978 77.3006 7.17402 77.3008 7.43919C77.301 7.70436 77.1958 7.95876 77.0085 8.14643C76.8212 8.3341 76.566 8.43968 76.3008 8.43994Z" fill="#7CB5EC"/>
<path d="M85.3008 7.43994C85.0356 7.43994 84.7813 7.33462 84.5938 7.14714C84.4062 6.95965 84.3008 6.70536 84.3008 6.44019C84.3007 6.17502 84.406 5.92068 84.5934 5.7331C84.7808 5.54552 85.0351 5.44007 85.3003 5.43994C85.5655 5.43981 85.8198 5.545 86.0074 5.73239C86.1951 5.91978 86.3006 6.17402 86.3008 6.43919C86.301 6.70436 86.1958 6.95876 86.0085 7.14643C85.8212 7.3341 85.566 7.43968 85.3008 7.43994Z" fill="#7CB5EC"/>
<path d="M93.3008 6.43994C93.0356 6.43994 92.7813 6.33462 92.5938 6.14714C92.4062 5.95965 92.3008 5.70536 92.3008 5.44019C92.3007 5.17502 92.406 4.92068 92.5934 4.7331C92.7808 4.54552 93.0351 4.44007 93.3003 4.43994C93.5655 4.43981 93.8198 4.545 94.0074 4.73239C94.1951 4.91978 94.3006 5.17402 94.3008 5.43919C94.301 5.70436 94.1958 5.95876 94.0085 6.14643C93.8212 6.3341 93.566 6.43968 93.3008 6.43994Z" fill="#7CB5EC"/>
<path d="M102.301 5.43994C102.036 5.43994 101.781 5.33462 101.594 5.14714C101.406 4.95965 101.301 4.70536 101.301 4.44019C101.301 4.17502 101.406 3.92068 101.593 3.7331C101.781 3.54552 102.035 3.44007 102.3 3.43994C102.565 3.43981 102.82 3.545 103.007 3.73239C103.195 3.91978 103.301 4.17402 103.301 4.43919C103.301 4.70436 103.196 4.95876 103.009 5.14643C102.821 5.3341 102.566 5.43968 102.301 5.43994Z" fill="#7CB5EC"/>
<path d="M110.301 4.43994C110.036 4.43994 109.781 4.33462 109.594 4.14714C109.406 3.95965 109.301 3.70536 109.301 3.44019C109.301 3.17502 109.406 2.92068 109.593 2.7331C109.781 2.54552 110.035 2.44007 110.3 2.43994C110.565 2.43981 110.82 2.545 111.007 2.73239C111.195 2.91978 111.301 3.17402 111.301 3.43919C111.301 3.70436 111.196 3.95876 111.009 4.14643C110.821 4.3341 110.566 4.43968 110.301 4.43994Z" fill="#7CB5EC"/>
<path d="M118.301 4.43994C118.036 4.43994 117.781 4.33462 117.594 4.14714C117.406 3.95965 117.301 3.70536 117.301 3.44019C117.301 3.17502 117.406 2.92068 117.593 2.7331C117.781 2.54552 118.035 2.44007 118.3 2.43994C118.565 2.43981 118.82 2.545 119.007 2.73239C119.195 2.91978 119.301 3.17402 119.301 3.43919C119.301 3.70436 119.196 3.95876 119.009 4.14643C118.821 4.3341 118.566 4.43968 118.301 4.43994Z" fill="#7CB5EC"/>
</svg>
