<svg width="13" height="16" viewBox="0 0 13 16" fill="none" xmlns="http://www.w3.org/2000/svg">
<g id="Icon" clip-path="url(#clip0_40_8720)">
<path id="Vector" d="M4.20705 3.30619V6.00282H1.51042V3.30619H4.20705ZM1.51042 1.95787C1.13589 1.9766 0.81754 2.10769 0.555368 2.35113C0.311922 2.61331 0.180836 2.93166 0.162109 3.30619V6.00282C0.180836 6.37735 0.311922 6.6957 0.555368 6.95787C0.81754 7.20132 1.13589 7.33241 1.51042 7.35113H4.20705C4.58159 7.33241 4.89994 7.20132 5.16211 6.95787C5.40556 6.6957 5.53664 6.37735 5.55537 6.00282V3.30619C5.53664 2.93166 5.40556 2.61331 5.16211 2.35113C4.89994 2.10769 4.58159 1.9766 4.20705 1.95787H1.51042ZM4.20705 10.4972V13.1938H1.51042V10.4972H4.20705ZM1.51042 9.14889C1.13589 9.16761 0.81754 9.2987 0.555368 9.54214C0.311922 9.80432 0.180836 10.1227 0.162109 10.4972V13.1938C0.180836 13.5684 0.311922 13.8867 0.555368 14.1489C0.81754 14.3923 1.13589 14.5234 1.51042 14.5421H4.20705C4.58159 14.5234 4.89994 14.3923 5.16211 14.1489C5.40556 13.8867 5.53664 13.5684 5.55537 13.1938V10.4972C5.53664 10.1227 5.40556 9.80432 5.16211 9.54214C4.89994 9.2987 4.58159 9.16761 4.20705 9.14889H1.51042ZM8.70144 3.30619H11.3981V6.00282H8.70144V3.30619ZM7.35312 3.30619V6.00282C7.37185 6.37735 7.50293 6.6957 7.74638 6.95787C8.00855 7.20132 8.3269 7.33241 8.70144 7.35113H11.3981C11.7726 7.33241 12.0909 7.20132 12.3531 6.95787C12.5966 6.6957 12.7277 6.37735 12.7464 6.00282V3.30619C12.7277 2.93166 12.5966 2.61331 12.3531 2.35113C12.0909 2.10769 11.7726 1.9766 11.3981 1.95787H8.70144C8.3269 1.9766 8.00855 2.10769 7.74638 2.35113C7.50293 2.61331 7.37185 2.93166 7.35312 3.30619ZM2.18458 4.42978V4.87922C2.20331 5.16012 2.35312 5.30993 2.63402 5.32866H3.08346C3.36436 5.30993 3.51417 5.16012 3.5329 4.87922V4.42978C3.51417 4.14889 3.36436 3.99907 3.08346 3.98035H2.63402C2.35312 3.99907 2.20331 4.14889 2.18458 4.42978ZM2.63402 11.1714C2.35312 11.1901 2.20331 11.3399 2.18458 11.6208V12.0702C2.20331 12.3511 2.35312 12.5009 2.63402 12.5197H3.08346C3.36436 12.5009 3.51417 12.3511 3.5329 12.0702V11.6208C3.51417 11.3399 3.36436 11.1901 3.08346 11.1714H2.63402ZM9.37559 4.42978V4.87922C9.39432 5.16012 9.54413 5.30993 9.82503 5.32866H10.2745C10.5554 5.30993 10.7052 5.16012 10.7239 4.87922V4.42978C10.7052 4.14889 10.5554 3.99907 10.2745 3.98035H9.82503C9.54413 3.99907 9.39432 4.14889 9.37559 4.42978ZM7.35312 9.59832V14.0927C7.37185 14.3736 7.52166 14.5234 7.80256 14.5421H8.70144C8.98234 14.5234 9.13215 14.3736 9.15087 14.0927V12.295C9.1696 12.0141 9.31941 11.8642 9.60031 11.8455C9.88121 11.8642 10.031 12.0141 10.0498 12.295C10.0685 12.5759 10.2183 12.7257 10.4992 12.7444H12.2969C12.5778 12.7257 12.7277 12.5759 12.7464 12.295V9.59832C12.7277 9.31743 12.5778 9.16761 12.2969 9.14889C12.016 9.16761 11.8662 9.31743 11.8475 9.59832C11.8288 9.87922 11.679 10.029 11.3981 10.0478H10.4992C10.2183 10.029 10.0685 9.87922 10.0498 9.59832C10.031 9.31743 9.88121 9.16761 9.60031 9.14889H7.80256C7.52166 9.16761 7.37185 9.31743 7.35312 9.59832ZM10.4992 13.6433C10.2183 13.662 10.0685 13.8118 10.0498 14.0927C10.0685 14.3736 10.2183 14.5234 10.4992 14.5421C10.7801 14.5234 10.9299 14.3736 10.9486 14.0927C10.9299 13.8118 10.7801 13.662 10.4992 13.6433ZM12.2969 13.6433C12.016 13.662 11.8662 13.8118 11.8475 14.0927C11.8662 14.3736 12.016 14.5234 12.2969 14.5421C12.5778 14.5234 12.7277 14.3736 12.7464 14.0927C12.7277 13.8118 12.5778 13.662 12.2969 13.6433Z" fill="#888888"/>
</g>
<defs>
<clipPath id="clip0_40_8720">
<rect width="12.69" height="15" fill="white" transform="matrix(1 0 0 -1 0.109375 15.75)"/>
</clipPath>
</defs>
</svg>
