<svg width="16" height="14" viewBox="0 0 16 14" fill="none" xmlns="http://www.w3.org/2000/svg">
<path d="M7.38475 12.8164L7.29979 12.7598L7.38475 12.8164L7.29979 12.7598L2.34374 8.14355C1.45637 7.29395 1.00324 6.25553 0.984363 5.02832V4.94336C1.00324 3.92383 1.32421 3.03646 1.94725 2.28125C2.55142 1.54492 3.35383 1.07292 4.35448 0.865234C5.52505 0.657552 6.58234 0.884115 7.52635 1.54492C7.79068 1.71484 8.02668 1.92253 8.23436 2.16797C8.34764 2.03581 8.47981 1.91309 8.63085 1.7998C8.72525 1.7054 8.82909 1.62044 8.94237 1.54492C9.88638 0.884115 10.9437 0.648112 12.1142 0.836914C13.1149 1.0446 13.9173 1.52604 14.5215 2.28125C15.1445 3.03646 15.4655 3.92383 15.4844 4.94336V5.02832C15.4655 6.25553 15.0124 7.29395 14.125 8.14355L9.16893 12.7598L9.08397 12.8164C8.83853 13.043 8.55533 13.1562 8.23436 13.1562C7.9134 13.1562 7.6302 13.043 7.38475 12.8164ZM7.75292 3.66895C7.75292 3.66895 7.74348 3.65951 7.7246 3.64062L7.21483 3.07422C6.87499 2.69661 6.4785 2.43229 6.02538 2.28125C5.57225 2.13021 5.10025 2.10189 4.60936 2.19629C3.94856 2.32845 3.41047 2.64941 2.9951 3.15918C2.57974 3.65007 2.36262 4.24479 2.34374 4.94336V5.02832C2.36262 5.85905 2.67414 6.56706 3.27831 7.15234L8.23436 11.7686L13.1904 7.15234C13.7946 6.56706 14.1061 5.85905 14.125 5.02832V4.94336C14.1061 4.24479 13.889 3.65007 13.4736 3.15918C13.0583 2.64941 12.5202 2.32845 11.8594 2.19629C11.3685 2.10189 10.8965 2.13021 10.4433 2.28125C9.99022 2.43229 9.59374 2.69661 9.25389 3.07422L8.74413 3.64062C8.74413 3.64062 8.73469 3.65007 8.71581 3.66895C8.58365 3.80111 8.42316 3.86719 8.23436 3.86719C8.04556 3.86719 7.88508 3.80111 7.75292 3.66895Z" fill="#BBBBBB"/>
</svg>
