<svg width="43" height="43" viewBox="0 0 43 43" fill="none" xmlns="http://www.w3.org/2000/svg">
<g clip-path="url(#clip0_190_32875)">
<g clip-path="url(#clip1_190_32875)">
<g clip-path="url(#clip2_190_32875)">
<path opacity="0.5" d="M12.3841 23.1823C17.5086 23.1823 21.6628 19.0281 21.6628 13.9037C21.6628 8.7792 17.5086 4.625 12.3841 4.625C7.25967 4.625 3.10547 8.7792 3.10547 13.9037C3.10547 19.0281 7.25967 23.1823 12.3841 23.1823Z" fill="#BDC5D1"/>
<path d="M9.64201 19.3504C14.6306 19.3504 18.6746 15.3064 18.6746 10.3178C18.6746 5.32921 14.6306 1.28516 9.64201 1.28516C4.65342 1.28516 0.609375 5.32921 0.609375 10.3178C0.609375 15.3064 4.65342 19.3504 9.64201 19.3504Z" fill="white" stroke="#3498DB" stroke-width="1.05439" stroke-miterlimit="10" stroke-linecap="round" stroke-linejoin="round"/>
<path d="M9.64272 16.8206C13.2337 16.8206 16.1448 13.9095 16.1448 10.3185C16.1448 6.72749 13.2337 3.81641 9.64272 3.81641C6.05171 3.81641 3.14062 6.72749 3.14062 10.3185C3.14062 13.9095 6.05171 16.8206 9.64272 16.8206Z" fill="#3498DB"/>
<path opacity="0.5" d="M32.8021 42.7585C37.9266 42.7585 42.0808 38.6043 42.0808 33.4798C42.0808 28.3554 37.9266 24.2012 32.8021 24.2012C27.6776 24.2012 23.5234 28.3554 23.5234 33.4798C23.5234 38.6043 27.6776 42.7585 32.8021 42.7585Z" fill="#BDC5D1"/>
<path d="M29.9233 39.6297C34.9118 39.6297 38.9559 35.5857 38.9559 30.5971C38.9559 25.6085 34.9118 21.5645 29.9233 21.5645C24.9347 21.5645 20.8906 25.6085 20.8906 30.5971C20.8906 35.5857 24.9347 39.6297 29.9233 39.6297Z" fill="white" stroke="#3498DB" stroke-width="1.05439" stroke-miterlimit="10" stroke-linecap="round" stroke-linejoin="round"/>
<path d="M29.9201 37.0999C33.5111 37.0999 36.4222 34.1888 36.4222 30.5978C36.4222 27.0068 33.5111 24.0957 29.9201 24.0957C26.3291 24.0957 23.418 27.0068 23.418 30.5978C23.418 34.1888 26.3291 37.0999 29.9201 37.0999Z" fill="#3498DB"/>
<path d="M29.9565 33.9357H29.8862C29.6367 33.9367 29.3894 33.8883 29.1587 33.7933C28.928 33.6983 28.7183 33.5585 28.5419 33.3821C28.3655 33.2056 28.2257 32.996 28.1307 32.7653C28.0357 32.5346 27.9873 32.2873 27.9883 32.0378V31.5809H29.0075V32.0378C29.0064 32.1535 29.0284 32.2682 29.0721 32.3754C29.1159 32.4825 29.1806 32.5798 29.2624 32.6616C29.3442 32.7434 29.4415 32.8081 29.5486 32.8518C29.6557 32.8956 29.7705 32.9176 29.8862 32.9164H29.9565C30.1895 32.9164 30.413 32.8239 30.5778 32.6591C30.7426 32.4943 30.8352 32.2708 30.8352 32.0378C30.8352 31.8047 30.7426 31.5812 30.5778 31.4165C30.413 31.2517 30.1895 31.1591 29.9565 31.1591H29.8862C29.3828 31.1591 28.9001 30.9592 28.5442 30.6032C28.1883 30.2473 27.9883 29.7646 27.9883 29.2612C27.9883 28.7578 28.1883 28.2751 28.5442 27.9192C28.9001 27.5633 29.3828 27.3633 29.8862 27.3633H29.9565C30.206 27.3623 30.4533 27.4107 30.684 27.5057C30.9147 27.6007 31.1244 27.7405 31.3008 27.9169C31.4772 28.0933 31.617 28.303 31.712 28.5337C31.807 28.7644 31.8554 29.0117 31.8544 29.2612V29.7181H30.8352V29.2612C30.8363 29.1455 30.8143 29.0307 30.7706 28.9236C30.7268 28.8165 30.6621 28.7192 30.5803 28.6374C30.4985 28.5556 30.4012 28.4909 30.2941 28.4471C30.187 28.4034 30.0722 28.3814 29.9565 28.3825H29.8862C29.6532 28.3825 29.4297 28.4751 29.2649 28.6399C29.1001 28.8047 29.0075 29.0282 29.0075 29.2612C29.0075 29.4942 29.1001 29.7177 29.2649 29.8825C29.4297 30.0473 29.6532 30.1399 29.8862 30.1399H29.9565C30.4599 30.1399 30.9426 30.3398 31.2985 30.6958C31.6544 31.0517 31.8544 31.5344 31.8544 32.0378C31.8544 32.5411 31.6544 33.0239 31.2985 33.3798C30.9426 33.7357 30.4599 33.9357 29.9565 33.9357Z" fill="white"/>
<path d="M30.4138 33.4082H29.3945V34.322H30.4138V33.4082Z" fill="white"/>
<path d="M30.4138 26.8711H29.3945V27.7849H30.4138V26.8711Z" fill="white"/>
<path d="M9.80467 5.19741V5.14258L9.73438 12.51L9.80467 12.5803L13.0856 10.6409L9.80467 5.19741Z" fill="white"/>
<path d="M9.63248 5.19727L6.35156 10.6407L9.63248 12.5801V5.19727Z" fill="white"/>
<path d="M9.80604 12.6903L9.76562 12.7395V15.257L9.80604 15.3751L13.0887 10.752L9.80604 12.6903Z" fill="white"/>
<path d="M9.63248 15.3771V12.6922L6.35156 10.7539L9.63248 15.3771Z" fill="white"/>
<path d="M9.76562 12.5791L13.0866 10.6397L9.76562 9.14844V12.5791Z" fill="#EEEEEE"/>
<path d="M6.35156 10.6397L9.63213 12.5791V9.14844L6.35156 10.6397Z" fill="#BBBBBB"/>
<path d="M21.9766 3.74609C22.51 3.81763 23.0383 3.92328 23.5582 4.06241" stroke="#BDC5D1" stroke-width="1.05439" stroke-miterlimit="10" stroke-linecap="round" stroke-linejoin="round"/>
<path d="M31.4648 8.0332C33.3678 9.65188 34.9427 11.6205 36.1042 13.8324" stroke="#BDC5D1" stroke-width="1.05439" stroke-miterlimit="10" stroke-linecap="round" stroke-linejoin="round"/>
<path d="M25.5625 4.625C27.0743 5.16121 28.5143 5.88126 29.8504 6.76893" stroke="#BDC5D1" stroke-width="1.05439" stroke-miterlimit="10" stroke-linecap="round" stroke-linejoin="round"/>
<path d="M34.2773 15.941L36.9133 17.3469C37.0025 17.3953 37.1069 17.4077 37.2049 17.3816C37.303 17.3554 37.3873 17.2927 37.4405 17.2063L38.9167 14.6406" stroke="#BDC5D1" stroke-width="1.05439" stroke-miterlimit="10" stroke-linecap="round" stroke-linejoin="round"/>
<path d="M20.0113 39.5956C19.4779 39.5241 18.9496 39.4184 18.4297 39.2793" stroke="#BDC5D1" stroke-width="1.05439" stroke-miterlimit="10" stroke-linecap="round" stroke-linejoin="round"/>
<path d="M10.5221 35.307C8.61917 33.6883 7.04428 31.7197 5.88281 29.5078" stroke="#BDC5D1" stroke-width="1.05439" stroke-miterlimit="10" stroke-linecap="round" stroke-linejoin="round"/>
<path d="M16.4246 38.7162C14.9128 38.18 13.4727 37.4599 12.1367 36.5723" stroke="#BDC5D1" stroke-width="1.05439" stroke-miterlimit="10" stroke-linecap="round" stroke-linejoin="round"/>
<path d="M7.70964 27.3993L5.07366 25.9934C4.98447 25.945 4.88012 25.9326 4.78206 25.9587C4.68401 25.9849 4.59969 26.0476 4.54646 26.134L3.07031 28.6997" stroke="#BDC5D1" stroke-width="1.05439" stroke-miterlimit="10" stroke-linecap="round" stroke-linejoin="round"/>
</g>
</g>
</g>
<defs>
<clipPath id="clip0_190_32875">
<rect width="42" height="42" fill="white" transform="translate(0.0820312 0.757812)"/>
</clipPath>
<clipPath id="clip1_190_32875">
<rect width="42" height="42" fill="white" transform="translate(0.0820312 0.757812)"/>
</clipPath>
<clipPath id="clip2_190_32875">
<rect width="42" height="42" fill="white" transform="translate(0.0820312 0.757812)"/>
</clipPath>
</defs>
</svg>
