<svg width="43" height="43" viewBox="0 0 43 43" fill="none" xmlns="http://www.w3.org/2000/svg">
<g clip-path="url(#clip0_190_33101)">
<g clip-path="url(#clip1_190_33101)">
<g clip-path="url(#clip2_190_33101)">
<path opacity="0.4" d="M33.5891 41.8149L22.8876 28.1059C22.8312 28.0385 22.7602 27.985 22.6799 27.9493C22.5996 27.9137 22.5122 27.8969 22.4244 27.9003C22.3366 27.9037 22.2508 27.9271 22.1735 27.9688C22.0961 28.0105 22.0294 28.0694 21.9784 28.1408L19.8451 31.1484C19.7939 31.2198 19.7271 31.2785 19.6498 31.3202C19.5725 31.3618 19.4867 31.3852 19.399 31.3885C19.3112 31.3919 19.2239 31.3752 19.1436 31.3396C19.0633 31.3041 18.9923 31.2506 18.9358 31.1834L14.3894 25.413C14.3333 25.3472 14.2637 25.2944 14.1852 25.2581C14.1067 25.2219 14.0212 25.2031 13.9348 25.2031C13.8483 25.2031 13.7629 25.2219 13.6844 25.2581C13.6059 25.2944 13.5362 25.3472 13.4801 25.413L0.540496 41.8499C0.468392 41.9421 0.422488 42.052 0.407618 42.1681C0.392747 42.2842 0.409462 42.4022 0.456001 42.5096C0.50254 42.617 0.577181 42.7098 0.672062 42.7784C0.766942 42.8469 0.878551 42.8886 0.995132 42.899H33.1344C33.2555 42.8895 33.3716 42.8467 33.4699 42.7756C33.5683 42.7044 33.6452 42.6075 33.6921 42.4955C33.7391 42.3835 33.7543 42.2608 33.7361 42.1407C33.718 42.0207 33.6671 41.908 33.5891 41.8149Z" fill="#BDC5D1"/>
<path d="M42.2254 36.9546L31.3141 21.7418C31.2587 21.667 31.1859 21.6068 31.1021 21.5665C31.0182 21.5261 30.9257 21.5068 30.8327 21.5103C30.7397 21.5137 30.649 21.5398 30.5683 21.5862C30.4876 21.6327 30.4195 21.6981 30.3698 21.7768L28.1666 25.1341C28.1223 25.2193 28.0563 25.2913 27.9751 25.3427C27.894 25.3941 27.8006 25.423 27.7047 25.4266C27.6087 25.4302 27.5135 25.4082 27.4287 25.3629C27.344 25.3177 27.2728 25.2508 27.2223 25.1691L22.641 18.7342C22.5897 18.6612 22.5217 18.6017 22.4425 18.5606C22.3634 18.5195 22.2755 18.498 22.1864 18.498C22.0972 18.498 22.0094 18.5195 21.9302 18.5606C21.8511 18.6017 21.783 18.6612 21.7317 18.7342L8.54729 36.9896C8.23254 37.4442 8.51231 38.1437 9.00192 38.1437H41.8057C42.3303 38.1087 42.5751 37.4093 42.2254 36.9546Z" fill="#3498DB"/>
<path d="M2.49913 21.5302L1.34506 20.516C1.25833 20.4378 1.20331 20.3306 1.19042 20.2145C1.17752 20.0985 1.20766 19.9818 1.27511 19.8865L13.0257 6.2474C13.1039 6.16068 13.2111 6.10565 13.3272 6.09276C13.4432 6.07987 13.5599 6.11001 13.6552 6.17746L14.8443 7.19165C14.931 7.2698 14.986 7.37707 14.9989 7.4931C15.0118 7.60913 14.9817 7.72586 14.9142 7.82114L3.1636 21.4602C3.1282 21.5133 3.08155 21.5579 3.02697 21.5909C2.97238 21.6239 2.91121 21.6444 2.84778 21.6511C2.78435 21.6578 2.72023 21.6504 2.65998 21.6295C2.59972 21.6086 2.54481 21.5747 2.49913 21.5302Z" fill="#3498DB"/>
<path d="M16.0347 6.49335L14.1462 4.84966C14.0413 4.77972 14.0413 4.60486 14.1112 4.46497L15.685 2.64642C15.7432 2.59884 15.8145 2.57003 15.8894 2.56378C15.9643 2.55754 16.0394 2.57416 16.1047 2.61145L17.9582 4.25514C18.0064 4.31301 18.0357 4.38435 18.0419 4.45945C18.0482 4.53454 18.0312 4.60974 17.9931 4.6748L16.4194 6.49335C16.3942 6.51868 16.3642 6.53879 16.3312 6.5525C16.2982 6.56622 16.2628 6.57328 16.2271 6.57328C16.1913 6.57328 16.1559 6.56622 16.1229 6.5525C16.0899 6.53879 16.0599 6.51868 16.0347 6.49335Z" fill="#3498DB"/>
<path d="M14.4956 2.61128L13.8661 3.38067C13.811 3.43268 13.7417 3.46711 13.6669 3.47956C13.5922 3.49202 13.5154 3.48194 13.4464 3.45061C12.712 2.92603 10.5088 1.45721 8.41047 2.26156C8.27058 2.26156 8.13069 2.26156 8.06075 2.15665C8.02743 2.11908 8.00259 2.07479 7.98792 2.02677C7.97325 1.97875 7.96909 1.92813 7.97572 1.87836C7.98236 1.82859 7.99964 1.78083 8.02638 1.73833C8.05312 1.69583 8.0887 1.65959 8.1307 1.63207C9.07494 1.10749 11.6279 0.163242 14.4606 2.19162C14.4958 2.21291 14.5254 2.24221 14.547 2.27713C14.5686 2.31205 14.5817 2.3516 14.5851 2.39254C14.5885 2.43347 14.5822 2.47464 14.5666 2.51266C14.5511 2.55068 14.5267 2.58448 14.4956 2.61128Z" fill="#BDC5D1"/>
<path d="M18.2003 5.79292L17.5708 6.56231C17.5201 6.62046 17.4922 6.69499 17.4922 6.77214C17.4922 6.84929 17.5201 6.92382 17.5708 6.98197C18.2003 7.61147 19.9489 9.60488 19.5293 11.8081C19.5112 11.8649 19.5116 11.926 19.5305 11.9826C19.5493 12.0391 19.5856 12.0882 19.6342 12.1229C19.6728 12.1575 19.7191 12.1826 19.7691 12.1963C19.8192 12.2099 19.8718 12.2117 19.9227 12.2016C19.9736 12.1914 20.0214 12.1695 20.0624 12.1376C20.1034 12.1058 20.1364 12.0648 20.1587 12.0179C20.5085 11.0038 21.103 8.34588 18.6899 5.8279C18.6606 5.79261 18.6245 5.76361 18.5837 5.74266C18.5429 5.7217 18.4983 5.70921 18.4526 5.70594C18.4068 5.70267 18.3609 5.7087 18.3176 5.72364C18.2742 5.73859 18.2343 5.76216 18.2003 5.79292Z" fill="#BDC5D1"/>
<path d="M32.3997 16.3195C32.3104 16.234 32.2572 16.1177 32.2507 15.9942C32.2442 15.8708 32.2849 15.7495 32.3647 15.6551L32.7844 15.2004C32.8699 15.1112 32.9862 15.058 33.1097 15.0515C33.2331 15.045 33.3544 15.0857 33.4488 15.1655C33.538 15.251 33.5913 15.3673 33.5978 15.4908C33.6043 15.6142 33.5635 15.7355 33.4838 15.8299L33.0641 16.2846C32.9782 16.373 32.8619 16.4258 32.7387 16.4323C32.6156 16.4388 32.4944 16.3985 32.3997 16.3195Z" fill="#BDC5D1"/>
<path d="M34.4289 13.9759C34.3305 13.9167 34.258 13.8228 34.2256 13.7127C34.1933 13.6026 34.2034 13.4843 34.254 13.3813C34.3498 13.2135 34.4317 13.038 34.4988 12.8568C34.5418 12.7511 34.6243 12.6664 34.7288 12.6207C34.8333 12.575 34.9516 12.5718 35.0583 12.612C35.1199 12.6324 35.1765 12.6654 35.2245 12.709C35.2726 12.7525 35.311 12.8056 35.3373 12.8649C35.3637 12.9242 35.3773 12.9883 35.3775 13.0531C35.3776 13.1179 35.3642 13.1821 35.3381 13.2415C35.2662 13.449 35.1724 13.6483 35.0583 13.836C35.0269 13.8873 34.9854 13.9317 34.9365 13.9666C34.8875 14.0016 34.832 14.0263 34.7732 14.0393C34.7145 14.0524 34.6538 14.0535 34.5946 14.0426C34.5354 14.0317 34.4791 14.009 34.4289 13.9759Z" fill="#BDC5D1"/>
<path d="M35.6516 11.214C35.5388 11.2078 35.4318 11.1625 35.3488 11.0859C35.2658 11.0093 35.2121 10.9062 35.1969 10.7944C35.1909 10.5945 35.1675 10.3956 35.127 10.1998C35.1084 10.0844 35.1341 9.96623 35.199 9.86896C35.2638 9.77169 35.363 9.7025 35.4767 9.67525C35.5391 9.65736 35.6047 9.65349 35.6687 9.66393C35.7328 9.67437 35.7937 9.69885 35.8472 9.73562C35.9007 9.77238 35.9454 9.82053 35.9781 9.8766C36.0107 9.93267 36.0306 9.99528 36.0363 10.0599C36.0768 10.2793 36.1002 10.5014 36.1062 10.7244C36.1173 10.7881 36.1135 10.8536 36.0951 10.9156C36.0768 10.9776 36.0443 11.0345 36.0003 11.0819C35.9563 11.1293 35.9019 11.1659 35.8414 11.1888C35.7809 11.2117 35.7159 11.2204 35.6516 11.214Z" fill="#BDC5D1"/>
<path d="M34.1859 8.2067C34.081 8.03184 33.9761 7.85698 33.8712 7.7171C33.8048 7.62145 33.7752 7.50497 33.7881 7.38923C33.801 7.27349 33.8553 7.16633 33.9411 7.0876C33.9883 7.04619 34.0435 7.01499 34.1033 6.99598C34.1631 6.97696 34.2263 6.97054 34.2887 6.97711C34.3511 6.98368 34.4115 7.0031 34.466 7.03416C34.5206 7.06521 34.5681 7.10722 34.6056 7.15754C34.7423 7.33073 34.8595 7.51836 34.9553 7.7171C34.9868 7.77415 35.0064 7.837 35.0129 7.90185C35.0193 7.9667 35.0125 8.03219 34.9929 8.09433C34.9733 8.15647 34.9412 8.21398 34.8987 8.26336C34.8562 8.31273 34.804 8.35295 34.7455 8.38156C34.648 8.43204 34.5345 8.44199 34.4297 8.40924C34.325 8.3765 34.2373 8.30371 34.1859 8.2067Z" fill="#BDC5D1"/>
<path d="M32.2264 5.96703L31.7717 5.51239C31.6875 5.42228 31.6406 5.30352 31.6406 5.18015C31.6406 5.05679 31.6875 4.93803 31.7717 4.84792C31.8619 4.76367 31.9806 4.7168 32.104 4.7168C32.2273 4.7168 32.3461 4.76367 32.4362 4.84792L32.8909 5.30256C32.9751 5.39267 33.022 5.51143 33.022 5.63479C33.022 5.75816 32.9751 5.87691 32.8909 5.96703C32.8007 6.05128 32.682 6.09815 32.5586 6.09815C32.4353 6.09815 32.3165 6.05128 32.2264 5.96703Z" fill="#BDC5D1"/>
<path d="M30.4055 3.90447L29.9159 3.51978C29.8659 3.48198 29.8243 3.43434 29.7935 3.3798C29.7627 3.32526 29.7434 3.26499 29.7369 3.2027C29.7303 3.14042 29.7366 3.07746 29.7554 3.0177C29.7741 2.95795 29.8049 2.90268 29.8459 2.85531C29.8837 2.80538 29.9314 2.76373 29.9859 2.73295C30.0404 2.70217 30.1007 2.6829 30.163 2.67634C30.2253 2.66979 30.2882 2.67608 30.348 2.69483C30.4077 2.71359 30.463 2.7444 30.5104 2.78537L31 3.17006C31.0499 3.20786 31.0916 3.2555 31.1224 3.31004C31.1531 3.36458 31.1724 3.42486 31.179 3.48714C31.1855 3.54942 31.1792 3.61239 31.1605 3.67214C31.1417 3.73189 31.1109 3.78716 31.0699 3.83453C30.9841 3.92083 30.8712 3.9749 30.7501 3.98764C30.6291 4.00038 30.5074 3.97101 30.4055 3.90447Z" fill="#BDC5D1"/>
<path d="M21.5593 4.14997C21.5097 4.11196 21.4683 4.06422 21.4377 4.00969C21.4071 3.95515 21.388 3.89496 21.3814 3.83278C21.3749 3.7706 21.3811 3.70774 21.3996 3.64803C21.4182 3.58833 21.4487 3.53303 21.4893 3.48551C21.6292 3.31065 21.8041 3.17076 21.944 2.9959C21.9887 2.95223 22.042 2.9183 22.1005 2.89626C22.159 2.87421 22.2214 2.86453 22.2839 2.86781C22.3463 2.8711 22.4074 2.88728 22.4632 2.91535C22.5191 2.94341 22.5685 2.98275 22.6084 3.03087C22.6795 3.12239 22.7151 3.23648 22.7086 3.35216C22.7022 3.46783 22.6542 3.57728 22.5735 3.66037L22.1538 4.08003C22.0837 4.16739 21.9821 4.22368 21.8709 4.23677C21.7596 4.24985 21.6477 4.21868 21.5593 4.14997Z" fill="#BDC5D1"/>
<path d="M23.938 2.26085C23.8923 2.14023 23.8961 2.00645 23.9484 1.88858C24.0008 1.77071 24.0976 1.67827 24.2178 1.63136C24.4228 1.55692 24.6332 1.49846 24.8473 1.4565C24.9097 1.43861 24.9752 1.43474 25.0393 1.44518C25.1033 1.45562 25.1643 1.4801 25.2178 1.51687C25.2713 1.55363 25.3159 1.60178 25.3486 1.65785C25.3813 1.71392 25.4012 1.77653 25.4068 1.84119C25.4254 1.95661 25.3997 2.07478 25.3348 2.17205C25.27 2.26932 25.1708 2.33851 25.0571 2.36577C24.8659 2.40802 24.6787 2.46652 24.4975 2.54063C24.3868 2.5578 24.2734 2.54009 24.1732 2.48996C24.0729 2.43983 23.9907 2.35977 23.938 2.26085Z" fill="#BDC5D1"/>
<path d="M27.8873 2.47069C27.7053 2.40769 27.5181 2.36088 27.3278 2.3308C27.2168 2.31161 27.1179 2.24945 27.0524 2.1578C26.9869 2.06615 26.9602 1.95239 26.9781 1.84119C26.9837 1.77653 27.0036 1.71392 27.0363 1.65785C27.0689 1.60178 27.1136 1.55363 27.1671 1.51687C27.2206 1.4801 27.2815 1.45562 27.3456 1.44518C27.4097 1.43474 27.4752 1.43861 27.5376 1.4565C27.7516 1.49846 27.9621 1.55692 28.1671 1.63136C28.2276 1.65329 28.283 1.68721 28.33 1.73106C28.3771 1.77492 28.4148 1.82782 28.4409 1.88659C28.467 1.94536 28.481 2.0088 28.482 2.07311C28.4831 2.13742 28.4711 2.20127 28.4469 2.26085C28.389 2.35174 28.3031 2.42135 28.2021 2.45919C28.1012 2.49704 27.9907 2.50107 27.8873 2.47069Z" fill="#BDC5D1"/>
<path d="M23.5387 25.627L23.4688 25.8644V32.756L23.5387 32.8259L26.7376 30.935L23.5387 25.627Z" fill="white"/>
<path d="M23.5387 25.627L20.3398 30.9347L23.5387 32.8256V25.627Z" fill="white"/>
<path d="M23.5395 33.4309L23.5 33.4788V35.9338L23.5395 36.0489L26.7405 31.541L23.5395 33.4309Z" fill="white"/>
<path d="M23.5387 36.0489V33.4309L20.3398 31.541L23.5387 36.0489Z" fill="white"/>
<path d="M23.5391 32.8255L26.738 30.9346L23.5391 29.4805V32.8255Z" fill="#E4E7EC"/>
<path d="M20.3398 30.9343L23.5387 32.8252V29.4805L20.3398 30.9343Z" fill="#BDC5D1"/>
</g>
</g>
</g>
<defs>
<clipPath id="clip0_190_33101">
<rect width="42" height="41.95" fill="white" transform="translate(0.398438 0.949219)"/>
</clipPath>
<clipPath id="clip1_190_33101">
<rect width="42" height="41.95" fill="white" transform="translate(0.398438 0.949219)"/>
</clipPath>
<clipPath id="clip2_190_33101">
<rect width="41.9832" height="41.95" fill="white" transform="translate(0.40625 0.949219)"/>
</clipPath>
</defs>
</svg>
