<svg width="43" height="43" viewBox="0 0 43 43" fill="none" xmlns="http://www.w3.org/2000/svg">
<g clip-path="url(#clip0_190_33017)">
<g clip-path="url(#clip1_190_33017)">
<g clip-path="url(#clip2_190_33017)">
<path opacity="0.5" d="M42.3975 31.5548V10.1348H3.6875V38.7998H35.1525L42.3975 31.5548Z" fill="#BDC5D1"/>
<path d="M39.8077 27.9495V6.56445H1.09766V35.2295H32.5627" fill="white"/>
<path d="M39.8077 27.9495V6.56445H1.09766V35.2295H32.5627" stroke="#BDC5D1" stroke-width="1.05" stroke-miterlimit="10" stroke-linecap="round" stroke-linejoin="round"/>
<path d="M35.6797 30.3998H5.57969C5.29969 30.3998 5.05469 30.1548 5.05469 29.8748V16.7848C5.05469 16.5048 5.29969 16.2598 5.57969 16.2598H35.6797C35.9597 16.2598 36.2047 16.5048 36.2047 16.7848V29.9098C36.2047 30.1898 35.9597 30.3998 35.6797 30.3998Z" fill="#3498DB"/>
<path d="M32.5625 27.9492H39.8075L32.5625 35.2292V27.9492Z" fill="white" stroke="#BDC5D1" stroke-width="1.05" stroke-miterlimit="10" stroke-linecap="round" stroke-linejoin="round"/>
<path d="M6.38281 4.63867V8.59367" stroke="#BDC5D1" stroke-width="1.05" stroke-miterlimit="10" stroke-linecap="round" stroke-linejoin="round"/>
<path d="M5.57812 9.39875C5.57812 8.94375 5.92813 8.59375 6.38313 8.59375C6.83813 8.59375 7.18812 8.94375 7.18812 9.39875C7.18812 9.85375 6.83813 10.2038 6.38313 10.2038C5.92813 10.2038 5.57812 9.85375 5.57812 9.39875Z" stroke="#3498DB" stroke-width="1.05" stroke-miterlimit="10" stroke-linecap="round" stroke-linejoin="round"/>
<path d="M13.418 4.63867V8.59367" stroke="#BDC5D1" stroke-width="1.05" stroke-miterlimit="10" stroke-linecap="round" stroke-linejoin="round"/>
<path d="M12.6133 9.39875C12.6133 8.94375 12.9633 8.59375 13.4183 8.59375C13.8733 8.59375 14.2233 8.94375 14.2233 9.39875C14.2233 9.85375 13.8733 10.2038 13.4183 10.2038C12.9983 10.2038 12.6133 9.85375 12.6133 9.39875Z" stroke="#3498DB" stroke-width="1.05" stroke-miterlimit="10" stroke-linecap="round" stroke-linejoin="round"/>
<path d="M20.4531 4.63867V8.59367" stroke="#BDC5D1" stroke-width="1.05" stroke-miterlimit="10" stroke-linecap="round" stroke-linejoin="round"/>
<path d="M19.6484 9.39875C19.6484 8.94375 19.9984 8.59375 20.4534 8.59375C20.9084 8.59375 21.2584 8.94375 21.2584 9.39875C21.2584 9.85375 20.9084 10.2038 20.4534 10.2038C20.0334 10.2038 19.6484 9.85375 19.6484 9.39875Z" stroke="#3498DB" stroke-width="1.05" stroke-miterlimit="10" stroke-linecap="round" stroke-linejoin="round"/>
<path d="M27.4883 4.63867V8.59367" stroke="#BDC5D1" stroke-width="1.05" stroke-miterlimit="10" stroke-linecap="round" stroke-linejoin="round"/>
<path d="M26.6836 9.39875C26.6836 8.94375 27.0336 8.59375 27.4886 8.59375C27.9436 8.59375 28.2936 8.94375 28.2936 9.39875C28.2936 9.85375 27.9436 10.2038 27.4886 10.2038C27.0686 10.2038 26.6836 9.85375 26.6836 9.39875Z" stroke="#3498DB" stroke-width="1.05" stroke-miterlimit="10" stroke-linecap="round" stroke-linejoin="round"/>
<path d="M34.5234 4.63867V8.59367" stroke="#BDC5D1" stroke-width="1.05" stroke-miterlimit="10" stroke-linecap="round" stroke-linejoin="round"/>
<path d="M33.7188 9.39875C33.7188 8.94375 34.0688 8.59375 34.5238 8.59375C34.9788 8.59375 35.3288 8.94375 35.3288 9.39875C35.3288 9.85375 34.9788 10.2038 34.5238 10.2038C34.1038 10.2038 33.7188 9.85375 33.7188 9.39875Z" stroke="#3498DB" stroke-width="1.05" stroke-miterlimit="10" stroke-linecap="round" stroke-linejoin="round"/>
<path d="M39.808 12.375H1.16797" stroke="#BDC5D1" stroke-width="1.05" stroke-miterlimit="10" stroke-linecap="round" stroke-linejoin="round"/>
<path opacity="0.5" d="M35.6084 21.1953H5.64844" stroke="white" stroke-width="1.05" stroke-miterlimit="10" stroke-linecap="round" stroke-linejoin="round"/>
<path opacity="0.5" d="M35.6084 25.5H5.64844" stroke="white" stroke-width="1.05" stroke-miterlimit="10" stroke-linecap="round" stroke-linejoin="round"/>
<path opacity="0.5" d="M11.6328 16.8535V29.8385" stroke="white" stroke-width="1.05" stroke-miterlimit="10" stroke-linecap="round" stroke-linejoin="round"/>
<path opacity="0.5" d="M17.6172 16.8535V29.8385" stroke="white" stroke-width="1.05" stroke-miterlimit="10" stroke-linecap="round" stroke-linejoin="round"/>
<path opacity="0.5" d="M23.6367 16.8535V29.8385" stroke="white" stroke-width="1.05" stroke-miterlimit="10" stroke-linecap="round" stroke-linejoin="round"/>
<path opacity="0.5" d="M29.625 16.8535V29.8385" stroke="white" stroke-width="1.05" stroke-miterlimit="10" stroke-linecap="round" stroke-linejoin="round"/>
<path d="M31.2695 23.2593L32.2495 24.4493L33.9645 22.2793" stroke="white" stroke-width="1.05" stroke-miterlimit="10" stroke-linecap="round" stroke-linejoin="round"/>
<path d="M25.3516 23.2593L26.2966 24.4493L28.0466 22.2793" stroke="white" stroke-width="1.05" stroke-miterlimit="10" stroke-linecap="round" stroke-linejoin="round"/>
<path d="M13.5234 27.564L14.5034 28.754L16.2184 26.584" stroke="white" stroke-width="1.05" stroke-miterlimit="10" stroke-linecap="round" stroke-linejoin="round"/>
<path d="M19.2617 27.564L20.2417 28.754L21.9567 26.584" stroke="white" stroke-width="1.05" stroke-miterlimit="10" stroke-linecap="round" stroke-linejoin="round"/>
<path d="M7.60938 27.564L8.55437 28.754L10.3044 26.584" stroke="white" stroke-width="1.05" stroke-miterlimit="10" stroke-linecap="round" stroke-linejoin="round"/>
</g>
</g>
</g>
<defs>
<clipPath id="clip0_190_33017">
<rect width="42" height="42" fill="white" transform="translate(0.398438 0.859375)"/>
</clipPath>
<clipPath id="clip1_190_33017">
<rect width="42" height="42" fill="white" transform="translate(0.398438 0.859375)"/>
</clipPath>
<clipPath id="clip2_190_33017">
<rect width="42" height="42" fill="white" transform="translate(0.398438 0.859375)"/>
</clipPath>
</defs>
</svg>
