<svg width="43" height="43" viewBox="0 0 43 43" fill="none" xmlns="http://www.w3.org/2000/svg">
<g clip-path="url(#clip0_190_33061)">
<g clip-path="url(#clip1_190_33061)">
<g clip-path="url(#clip2_190_33061)">
<path opacity="0.5" d="M39.825 6.10938H36.5V42.8594H39.825V6.10938Z" fill="#BDC5D1"/>
<path d="M7.55469 39.4998V5.12977C7.55469 3.06477 9.23469 1.38477 11.2997 1.38477H35.9397V36.6298H10.3897C8.81469 36.6298 7.55469 37.9248 7.55469 39.4998ZM7.55469 39.4998C7.55469 41.0748 8.81469 42.3348 10.3897 42.3348H35.9047" stroke="#BDC5D1" stroke-width="1.05" stroke-miterlimit="10" stroke-linecap="round" stroke-linejoin="round"/>
<path d="M35.9045 38.5195H11.0195" stroke="#BDC5D1" stroke-width="1.05" stroke-miterlimit="10" stroke-linecap="round" stroke-linejoin="round"/>
<path d="M35.9045 40.4453H11.0195" stroke="#BDC5D1" stroke-width="1.05" stroke-miterlimit="10" stroke-linecap="round" stroke-linejoin="round"/>
<path d="M31.9852 5.19922H12.9102V32.8142H31.9852V5.19922Z" fill="#3498DB"/>
<path d="M20.9258 14.2988H24.3908" stroke="white" stroke-width="1.05" stroke-miterlimit="10" stroke-linecap="round" stroke-linejoin="round"/>
<path d="M17.8438 17.0996H27.4687" stroke="white" stroke-width="1.05" stroke-miterlimit="10" stroke-linecap="round" stroke-linejoin="round"/>
<path d="M17.8438 19.9336H27.4687" stroke="white" stroke-width="1.05" stroke-miterlimit="10" stroke-linecap="round" stroke-linejoin="round"/>
<path d="M17.8438 22.7695H27.4687" stroke="white" stroke-width="1.05" stroke-miterlimit="10" stroke-linecap="round" stroke-linejoin="round"/>
</g>
</g>
</g>
<defs>
<clipPath id="clip0_190_33061">
<rect width="42" height="42" fill="white" transform="translate(0.730469 0.859375)"/>
</clipPath>
<clipPath id="clip1_190_33061">
<rect width="42" height="42" fill="white" transform="translate(0.730469 0.859375)"/>
</clipPath>
<clipPath id="clip2_190_33061">
<rect width="42" height="42" fill="white" transform="translate(0.730469 0.859375)"/>
</clipPath>
</defs>
</svg>
