<svg width="43" height="43" viewBox="0 0 43 43" fill="none" xmlns="http://www.w3.org/2000/svg">
<g clip-path="url(#clip0_190_33082)">
<g clip-path="url(#clip1_190_33082)">
<g clip-path="url(#clip2_190_33082)">
<path opacity="0.5" d="M20.8378 32.7651C19.2278 34.3751 16.4629 33.3601 16.2529 31.0851C16.1129 29.6151 14.8179 28.5301 13.3479 28.6351C11.0729 28.8101 9.60285 26.2901 10.8979 24.4001C11.7379 23.1751 11.4578 21.5301 10.2329 20.6551C8.37785 19.3251 8.86785 16.4551 11.0729 15.8601C12.5078 15.4751 13.3478 14.0051 12.9628 12.5701C12.3678 10.3651 14.6428 8.47508 16.7078 9.45508C18.0378 10.0851 19.6479 9.49008 20.2779 8.16008C21.2578 6.09508 24.1978 6.09508 25.1428 8.16008C25.7728 9.49008 27.3829 10.0851 28.7129 9.45508C30.7779 8.51008 33.0178 10.4001 32.4578 12.5701C32.0728 14.0051 32.9128 15.4751 34.3479 15.8601C36.5529 16.4551 37.0429 19.3601 35.1879 20.6551C33.9629 21.4951 33.6828 23.1751 34.5229 24.4001C35.8179 26.2551 34.3479 28.8101 32.0728 28.6351C30.6028 28.4951 29.3078 29.6151 29.1678 31.0851C28.9578 33.3601 26.1929 34.3401 24.5828 32.7651C23.5678 31.7151 21.8878 31.7151 20.8378 32.7651Z" fill="#BDC5D1"/>
<path d="M19.1933 28.8784C17.5833 30.4884 14.8183 29.4734 14.6083 27.1984C14.4683 25.7284 13.1733 24.6434 11.7033 24.7484C9.42832 24.9234 7.95832 22.4034 9.25332 20.5134C10.0933 19.2884 9.81332 17.6434 8.58832 16.7684C6.73332 15.4384 7.22332 12.5684 9.42832 11.9734C10.8633 11.5884 11.7033 10.1184 11.3183 8.68336C10.7233 6.47836 12.9983 4.58836 15.0633 5.56836C16.3933 6.19836 18.0033 5.60336 18.6333 4.27336C19.6133 2.20836 22.5533 2.20836 23.4983 4.27336C24.1283 5.60336 25.7033 6.19836 27.0683 5.56836C29.1333 4.62336 31.3733 6.51336 30.8133 8.68336C30.4283 10.1184 31.2683 11.5884 32.7033 11.9734C34.9083 12.5684 35.3983 15.4734 33.5433 16.7684C32.3183 17.6084 32.0383 19.2884 32.8783 20.5134C34.1733 22.3684 32.7033 24.9234 30.4283 24.7484C28.9583 24.6084 27.6633 25.7284 27.5233 27.1984C27.3133 29.4734 24.5483 30.4534 22.9383 28.8784C21.9233 27.8284 20.2433 27.8284 19.1933 28.8784Z" fill="#3498DB"/>
<path d="M21.0819 21.4938C24.0007 21.4938 26.3669 19.1277 26.3669 16.2088C26.3669 13.29 24.0007 10.9238 21.0819 10.9238C18.163 10.9238 15.7969 13.29 15.7969 16.2088C15.7969 19.1277 18.163 21.4938 21.0819 21.4938Z" fill="white"/>
<path d="M27.9062 33.4645L32.0012 41.1295L35.3963 36.0545L41.4863 36.0895L36.0963 25.9395" stroke="#BDC5D1" stroke-width="1.05" stroke-miterlimit="10" stroke-linecap="round" stroke-linejoin="round"/>
<path d="M14.2558 33.4645L10.1608 41.1295L6.76578 36.0545L0.675781 36.0895L6.06578 25.9395" stroke="#BDC5D1" stroke-width="1.05" stroke-miterlimit="10" stroke-linecap="round" stroke-linejoin="round"/>
</g>
</g>
</g>
<defs>
<clipPath id="clip0_190_33082">
<rect width="42" height="42" fill="white" transform="translate(0.0820312 0.949219)"/>
</clipPath>
<clipPath id="clip1_190_33082">
<rect width="42" height="42" fill="white" transform="translate(0.0820312 0.949219)"/>
</clipPath>
<clipPath id="clip2_190_33082">
<rect width="42" height="42" fill="white" transform="translate(0.0820312 0.949219)"/>
</clipPath>
</defs>
</svg>
