<svg width="43" height="43" viewBox="0 0 43 43" fill="none" xmlns="http://www.w3.org/2000/svg">
<g clip-path="url(#clip0_190_32987)">
<g clip-path="url(#clip1_190_32987)">
<g clip-path="url(#clip2_190_32987)">
<path d="M5.36719 27.3201V4.71008L6.90719 3.20508L8.41219 4.71008L9.91719 3.20508L11.4222 4.71008L12.9272 3.20508L14.4322 4.71008L15.9372 3.20508L17.4422 4.71008L18.9472 3.20508L20.4522 4.71008L21.9572 3.20508L23.4622 4.71008L24.9672 3.20508L26.4722 4.71008L27.9772 3.20508L29.4822 4.71008L31.2322 3.20508L32.7722 4.71008V38.4851C32.7722 39.6051 33.6822 40.5151 34.8022 40.5151C35.9222 40.5151 36.8322 39.6051 36.8322 38.4851V5.48008H34.8022V38.0651" stroke="#BDC5D1" stroke-width="1.05" stroke-miterlimit="10" stroke-linecap="round" stroke-linejoin="round"/>
<path d="M34.7687 40.5137H9.21875" stroke="#BDC5D1" stroke-width="1.05" stroke-miterlimit="10" stroke-linecap="round" stroke-linejoin="round"/>
<g opacity="0.5">
<path d="M27.4161 16.4342H13.8011C12.3661 16.4342 11.2461 15.2792 11.2461 13.8792C11.2461 12.4442 12.4011 11.3242 13.8011 11.3242H27.4161C28.8511 11.3242 29.9711 12.4792 29.9711 13.8792C30.0061 15.2792 28.8511 16.4342 27.4161 16.4342Z" fill="#BDC5D1"/>
</g>
<path d="M25.6661 14.1588H12.0511C10.6161 14.1588 9.49609 13.0038 9.49609 11.6038C9.49609 10.1688 10.6511 9.04883 12.0511 9.04883H25.6661C27.1011 9.04883 28.2211 10.2038 28.2211 11.6038C28.2561 13.0038 27.1011 14.1588 25.6661 14.1588Z" fill="#3498DB"/>
<path d="M22.9725 12.1649H14.7475C14.4325 12.1649 14.1875 11.9199 14.1875 11.6049C14.1875 11.2899 14.4325 11.0449 14.7475 11.0449H22.9725C23.2875 11.0449 23.5325 11.2899 23.5325 11.6049C23.5325 11.8849 23.2875 12.1649 22.9725 12.1649Z" fill="white"/>
<g opacity="0.5">
<path d="M1.41016 30.959H11.6652" stroke="#BDC5D1" stroke-width="1.05" stroke-miterlimit="10" stroke-linecap="round" stroke-linejoin="round"/>
<path d="M1.41016 33.584H11.6652" stroke="#BDC5D1" stroke-width="1.05" stroke-miterlimit="10" stroke-linecap="round" stroke-linejoin="round"/>
<path d="M1.41016 36.2441H6.48516" stroke="#BDC5D1" stroke-width="1.05" stroke-miterlimit="10" stroke-linecap="round" stroke-linejoin="round"/>
<path d="M9.63672 36.2441H11.6667" stroke="#BDC5D1" stroke-width="1.05" stroke-miterlimit="10" stroke-linecap="round" stroke-linejoin="round"/>
</g>
<path opacity="0.5" d="M19.1211 32.5703V36.8403" stroke="#BDC5D1" stroke-width="1.05" stroke-miterlimit="10" stroke-linecap="round" stroke-linejoin="round"/>
<path opacity="0.5" d="M21.8867 31.3438V36.8388" stroke="#BDC5D1" stroke-width="1.05" stroke-miterlimit="10" stroke-linecap="round" stroke-linejoin="round"/>
<path opacity="0.5" d="M24.6875 32.2539V36.8389" stroke="#BDC5D1" stroke-width="1.05" stroke-miterlimit="10" stroke-linecap="round" stroke-linejoin="round"/>
<path opacity="0.5" d="M27.4883 29.4902V36.8402" stroke="#BDC5D1" stroke-width="1.05" stroke-miterlimit="10" stroke-linecap="round" stroke-linejoin="round"/>
<path d="M17.793 30.9593L22.553 27.3193L24.233 29.3143L28.398 25.7793" stroke="#3498DB" stroke-width="1.05" stroke-miterlimit="10" stroke-linecap="round" stroke-linejoin="round"/>
</g>
</g>
</g>
<defs>
<clipPath id="clip0_190_32987">
<rect width="42" height="42" fill="white" transform="translate(0.0820312 0.859375)"/>
</clipPath>
<clipPath id="clip1_190_32987">
<rect width="42" height="42" fill="white" transform="translate(0.0820312 0.859375)"/>
</clipPath>
<clipPath id="clip2_190_32987">
<rect width="42" height="42" fill="white" transform="translate(0.0820312 0.859375)"/>
</clipPath>
</defs>
</svg>
