<svg width="43" height="43" viewBox="0 0 43 43" fill="none" xmlns="http://www.w3.org/2000/svg">
<g clip-path="url(#clip0_190_32947)">
<g clip-path="url(#clip1_190_32947)">
<g clip-path="url(#clip2_190_32947)">
<path d="M3.07359 36.0371L1.18359 37.9271" stroke="#3498DB" stroke-width="1.05" stroke-miterlimit="10" stroke-linecap="round" stroke-linejoin="round"/>
<path d="M4.01969 39.6777L3.17969 40.4827" stroke="#3498DB" stroke-width="1.05" stroke-miterlimit="10" stroke-linecap="round" stroke-linejoin="round"/>
<path opacity="0.5" d="M30.8991 21.3743C34.2045 21.3743 36.8841 18.6947 36.8841 15.3893C36.8841 12.0839 34.2045 9.4043 30.8991 9.4043C27.5936 9.4043 24.9141 12.0839 24.9141 15.3893C24.9141 18.6947 27.5936 21.3743 30.8991 21.3743Z" fill="#BDC5D1"/>
<path d="M30.2702 19.4134C33.5756 19.4134 36.2552 16.7338 36.2552 13.4284C36.2552 10.1229 33.5756 7.44336 30.2702 7.44336C26.9647 7.44336 24.2852 10.1229 24.2852 13.4284C24.2852 16.7338 26.9647 19.4134 30.2702 19.4134Z" fill="#3498DB"/>
<path d="M29.3242 9.54369C30.0242 9.36869 30.7592 9.40369 31.4592 9.61369" stroke="white" stroke-width="1.05" stroke-miterlimit="10" stroke-linecap="round" stroke-linejoin="round"/>
<path d="M27.4352 16.2637C25.8602 14.6887 25.8602 12.1687 27.4352 10.5938" stroke="white" stroke-width="1.05" stroke-miterlimit="10" stroke-linecap="round" stroke-linejoin="round"/>
<path d="M15.6022 15.5269C12.1722 14.9669 8.53219 16.0169 5.87219 18.6769C4.82219 19.7269 4.05219 20.9169 3.49219 22.1769C5.94219 21.7219 8.77719 21.6519 11.8222 22.0369C12.8022 19.7969 14.0622 17.5919 15.6022 15.5269Z" stroke="#BDC5D1" stroke-width="1.05" stroke-miterlimit="10" stroke-linecap="round" stroke-linejoin="round"/>
<path d="M21.8656 37.9968C21.8306 38.1718 21.6556 39.3968 21.6206 39.5368C21.5856 39.7468 21.5506 39.9918 21.5156 40.2018C22.7756 39.6418 24.0006 38.8718 25.0156 37.8218C27.6756 35.1618 28.7256 31.5568 28.1656 28.0918C26.0656 29.6318 23.8956 30.8918 21.6556 31.8368C21.8656 33.4818 21.9356 35.0568 21.9006 36.5618" stroke="#BDC5D1" stroke-width="1.05" stroke-miterlimit="10" stroke-linecap="round" stroke-linejoin="round"/>
<path d="M18.9609 26.5859C20.6409 28.1259 22.4259 29.3859 24.3509 30.4709" stroke="#BDC5D1" stroke-width="1.05" stroke-miterlimit="10" stroke-linecap="round" stroke-linejoin="round"/>
<path d="M13.2227 19.3066C14.2727 21.1966 15.5677 23.0166 17.1077 24.6966" stroke="#BDC5D1" stroke-width="1.05" stroke-miterlimit="10" stroke-linecap="round" stroke-linejoin="round"/>
<path d="M12.6281 31.067C12.1031 30.542 12.1031 29.702 12.6281 29.177L19.6281 22.177C20.1531 21.652 20.9931 21.652 21.5181 22.177C22.0431 22.702 22.0431 23.542 21.5181 24.067L14.5181 31.067C13.9931 31.592 13.1531 31.592 12.6281 31.067Z" stroke="#BDC5D1" stroke-width="1.05" stroke-miterlimit="10" stroke-linecap="round" stroke-linejoin="round"/>
<path d="M17.0741 28.4774C18.5091 29.7724 20.0141 30.8924 21.5891 31.8724C25.4041 30.2274 29.1141 27.7424 32.4041 24.4524C39.1591 17.6974 42.5541 9.08743 42.2391 1.42243C34.5741 1.10743 25.9991 4.50243 19.2091 11.2574C15.9191 14.5474 13.4691 18.2574 11.7891 22.0724C12.7691 23.6474 13.8891 25.1874 15.1841 26.5874" stroke="#BDC5D1" stroke-width="1.05" stroke-miterlimit="10" stroke-linecap="round" stroke-linejoin="round"/>
<path d="M33.9102 2.47266C34.8202 3.97766 35.8702 5.34266 37.1302 6.56766C38.3902 7.82766 39.7552 8.87766 41.2252 9.75266" stroke="#BDC5D1" stroke-width="1.05" stroke-miterlimit="10" stroke-linecap="round" stroke-linejoin="round"/>
<path d="M20.2587 33.6222C19.0687 32.8872 17.8787 32.0122 16.7237 31.0322L15.5688 32.1872C14.4838 33.2722 12.6988 33.2722 11.6138 32.1872C10.5288 31.1022 10.5288 29.3172 11.6138 28.2322L12.7688 27.0772C11.7538 25.8872 10.8437 24.6272 10.0387 23.3672C9.02375 23.9272 8.00875 24.6622 7.09875 25.6072C4.47375 28.2322 3.24875 31.5572 3.73875 34.0422C4.26375 34.1472 4.82375 34.1822 5.41875 34.1472C4.92875 35.7222 4.82375 37.2272 5.10375 38.5572C6.43375 38.8372 7.97375 38.6972 9.51375 38.2422C9.47875 38.8372 9.47875 39.3972 9.61875 39.9222C12.1037 40.4472 15.4287 39.2222 18.0537 36.5622C18.9637 35.6872 19.6987 34.6722 20.2587 33.6222Z" stroke="#3498DB" stroke-width="1.05" stroke-miterlimit="10" stroke-linecap="round" stroke-linejoin="round"/>
<path d="M7.52062 20.0078L4.26562 23.2628" stroke="#3498DB" stroke-width="1.05" stroke-miterlimit="10" stroke-linecap="round" stroke-linejoin="round"/>
<path d="M6.43453 23.7871L4.01953 26.2021" stroke="#BDC5D1" stroke-width="1.05" stroke-miterlimit="10" stroke-linecap="round" stroke-linejoin="round"/>
<path d="M2.65391 24.873L2.12891 25.398" stroke="#BDC5D1" stroke-width="1.05" stroke-miterlimit="10" stroke-linecap="round" stroke-linejoin="round"/>
<path d="M23.6527 36.1777L18.4727 41.3927" stroke="#3498DB" stroke-width="1.05" stroke-miterlimit="10" stroke-linecap="round" stroke-linejoin="round"/>
<path d="M19.907 37.2637L17.457 39.6787" stroke="#BDC5D1" stroke-width="1.05" stroke-miterlimit="10" stroke-linecap="round" stroke-linejoin="round"/>
<path d="M15.848 41.2871L15.043 42.1271" stroke="#BDC5D1" stroke-width="1.05" stroke-miterlimit="10" stroke-linecap="round" stroke-linejoin="round"/>
</g>
</g>
</g>
<defs>
<clipPath id="clip0_190_32947">
<rect width="42" height="42" fill="white" transform="translate(0.730469 0.757812)"/>
</clipPath>
<clipPath id="clip1_190_32947">
<rect width="42" height="42" fill="white" transform="translate(0.730469 0.757812)"/>
</clipPath>
<clipPath id="clip2_190_32947">
<rect width="42" height="42" fill="white" transform="translate(0.730469 0.757812)"/>
</clipPath>
</defs>
</svg>
