<svg width="43" height="41" viewBox="0 0 43 41" fill="none" xmlns="http://www.w3.org/2000/svg">
<g clip-path="url(#clip0_190_32916)">
<g clip-path="url(#clip1_190_32916)">
<g clip-path="url(#clip2_190_32916)">
<path opacity="0.5" d="M7.09466 13.9668H6.60677C6.21767 13.9665 5.83233 14.0429 5.47279 14.1916C5.11325 14.3404 4.78657 14.5586 4.51144 14.8337C4.2363 15.1088 4.01812 15.4355 3.86937 15.7951C3.72061 16.1546 3.64421 16.5399 3.64453 16.929V34.1448C3.64421 34.5339 3.72061 34.9193 3.86937 35.2788C4.01812 35.6384 4.2363 35.965 4.51144 36.2402C4.78657 36.5153 5.11325 36.7335 5.47279 36.8822C5.83233 37.031 6.21767 37.1074 6.60677 37.1071H39.1913C39.5804 37.1074 39.9658 37.031 40.3253 36.8822C40.6849 36.7335 41.0115 36.5153 41.2867 36.2402C41.5618 35.965 41.78 35.6384 41.9288 35.2788C42.0775 34.9193 42.1539 34.5339 42.1536 34.1448V16.9639C42.1539 16.5748 42.0775 16.1894 41.9288 15.8299C41.78 15.4704 41.5618 15.1437 41.2867 14.8686C41.0115 14.5934 40.6849 14.3752 40.3253 14.2265C39.9658 14.0777 39.5804 14.0013 39.1913 14.0016H37.0307" fill="#BDC5D1"/>
<path d="M4.44623 10.2031H3.95833C3.56923 10.2028 3.18389 10.2792 2.82435 10.428C2.46481 10.5767 2.13813 10.7949 1.863 11.07C1.58786 11.3452 1.36968 11.6718 1.22093 12.0314C1.07218 12.3909 0.995774 12.7763 0.996095 13.1654V30.3812C0.995774 30.7703 1.07218 31.1556 1.22093 31.5152C1.36968 31.8747 1.58786 32.2014 1.863 32.4765C2.13813 32.7516 2.46481 32.9698 2.82435 33.1186C3.18389 33.2673 3.56923 33.3437 3.95833 33.3434H36.5429C36.932 33.3437 37.3174 33.2673 37.6769 33.1186C38.0364 32.9698 38.3631 32.7516 38.6382 32.4765C38.9134 32.2014 39.1316 31.8747 39.2803 31.5152C39.4291 31.1556 39.5055 30.7703 39.5051 30.3812V13.1654C39.5055 12.7763 39.4291 12.3909 39.2803 12.0314C39.1316 11.6718 38.9134 11.3452 38.6382 11.07C38.3631 10.7949 38.0364 10.5767 37.6769 10.428C37.3174 10.2792 36.932 10.2028 36.5429 10.2031H34.3822" fill="white"/>
<path d="M4.44623 10.2031H3.95833C3.56923 10.2028 3.18389 10.2792 2.82435 10.428C2.46481 10.5767 2.13813 10.7949 1.863 11.07C1.58786 11.3452 1.36968 11.6718 1.22093 12.0314C1.07218 12.3909 0.995774 12.7763 0.996095 13.1654V30.3812C0.995774 30.7703 1.07218 31.1556 1.22093 31.5152C1.36968 31.8747 1.58786 32.2014 1.863 32.4765C2.13813 32.7516 2.46481 32.9698 2.82435 33.1186C3.18389 33.2673 3.56923 33.3437 3.95833 33.3434H36.5429C36.932 33.3437 37.3174 33.2673 37.6769 33.1186C38.0364 32.9698 38.3631 32.7516 38.6382 32.4765C38.9134 32.2014 39.1316 31.8747 39.2803 31.5152C39.4291 31.1556 39.5055 30.7703 39.5051 30.3812V13.1654C39.5055 12.7763 39.4291 12.3909 39.2803 12.0314C39.1316 11.6718 38.9134 11.3452 38.6382 11.07C38.3631 10.7949 38.0364 10.5767 37.6769 10.428C37.3174 10.2792 36.932 10.2028 36.5429 10.2031H34.3822" stroke="#BDC5D1" stroke-width="1.04549" stroke-miterlimit="10" stroke-linecap="round" stroke-linejoin="round"/>
<path d="M5.0383 12.8165L4.0625 4.97533L32.1166 1.28125L32.7788 6.33447" fill="white"/>
<path d="M5.0383 12.8165L4.0625 4.97533L32.1166 1.28125L32.7788 6.33447" stroke="#BDC5D1" stroke-width="1.04549" stroke-miterlimit="10" stroke-linecap="round" stroke-linejoin="round"/>
<path d="M6.08203 14.2449V6.33398H34.3801V14.2449" stroke="#3498DB" stroke-width="1.04549" stroke-miterlimit="10" stroke-linecap="round" stroke-linejoin="round"/>
<path opacity="0.5" d="M33.2674 13.7923V9.99364C33.0083 9.98834 32.7529 9.93166 32.5159 9.82691C32.2789 9.72215 32.0651 9.57139 31.8868 9.38338C31.7085 9.19536 31.5693 8.97382 31.4772 8.73161C31.3852 8.48939 31.3422 8.23132 31.3506 7.97235V7.9375H11.8347V7.97235C11.8457 8.49377 11.6506 8.99848 11.2917 9.37691C10.9329 9.75535 10.4392 9.97696 9.91797 9.99364V13.7923" fill="#BDC5D1"/>
<path d="M31.9431 14.7339V11.0746C31.6912 11.0754 31.4416 11.0263 31.2088 10.9302C30.9759 10.8342 30.7643 10.693 30.5862 10.5149C30.408 10.3367 30.2669 10.1252 30.1708 9.89227C30.0747 9.65939 30.0257 9.40981 30.0264 9.1579V9.12305H10.5105V9.1579C10.5112 9.40981 10.4622 9.65939 10.3661 9.89227C10.27 10.1252 10.1289 10.3367 9.95073 10.5149C9.7726 10.693 9.56101 10.8342 9.32812 10.9302C9.09524 11.0263 8.84567 11.0754 8.59375 11.0746V14.7339" fill="#3498DB"/>
<path d="M24.1345 14.7332C23.8637 13.9118 23.3406 13.1967 22.6398 12.6899C21.939 12.183 21.0962 11.9102 20.2313 11.9102C19.3664 11.9102 18.5236 12.183 17.8228 12.6899C17.122 13.1967 16.5989 13.9118 16.3281 14.7332" stroke="white" stroke-width="1.04549" stroke-miterlimit="10" stroke-linecap="round" stroke-linejoin="round"/>
<path d="M36.2653 14.2461H4.23828" stroke="#BDC5D1" stroke-width="1.04549" stroke-miterlimit="10" stroke-linecap="round" stroke-linejoin="round"/>
<path d="M14.8657 33.3785V28.0813L0.925785 22.8887V30.4162C0.925143 30.8008 1.00042 31.1818 1.14731 31.5373C1.2942 31.8927 1.5098 32.2157 1.78176 32.4876C2.05372 32.7596 2.37669 32.9752 2.73215 33.1221C3.08761 33.269 3.46856 33.3443 3.85317 33.3436H14.8657V33.3785Z" fill="white" stroke="#BDC5D1" stroke-width="1.04549" stroke-miterlimit="10" stroke-linecap="round" stroke-linejoin="round"/>
<path opacity="0.5" d="M29.9546 37.7001C35.0165 37.7001 39.1201 33.5966 39.1201 28.5346C39.1201 23.4727 35.0165 19.3691 29.9546 19.3691C24.8926 19.3691 20.7891 23.4727 20.7891 28.5346C20.7891 33.5966 24.8926 37.7001 29.9546 37.7001Z" fill="#BDC5D1"/>
<path d="M32.7085 39.6865C37.7704 39.6865 41.874 35.5829 41.874 30.521C41.874 25.459 37.7704 21.3555 32.7085 21.3555C27.6465 21.3555 23.543 25.459 23.543 30.521C23.543 35.5829 27.6465 39.6865 32.7085 39.6865Z" fill="#3498DB" stroke="white" stroke-width="1.04549" stroke-miterlimit="10"/>
<path d="M32.9422 23.9935V23.9238L32.8516 33.2381L32.9422 33.3288L37.0893 30.8771L32.9422 23.9935Z" fill="white"/>
<path d="M32.7213 23.9941L28.5742 30.8763L32.7213 33.328V23.9941Z" fill="white"/>
<path d="M32.9415 33.4679L32.8906 33.5303V36.7134L32.9415 36.8626L37.0918 31.0176L32.9415 33.4679Z" fill="white"/>
<path d="M32.7213 36.8626V33.4682L28.5742 31.0176L32.7213 36.8626Z" fill="white"/>
<path d="M32.8906 33.3234L37.0893 30.8717L32.8906 28.9863V33.3234Z" fill="#EEEEEE"/>
<path d="M28.5742 30.8737L32.7213 33.3243V28.9883L28.5742 30.8737Z" fill="#BBBBBB"/>
</g>
</g>
</g>
<defs>
<clipPath id="clip0_190_32916">
<rect width="42" height="39.45" fill="white" transform="translate(0.398438 0.757812)"/>
</clipPath>
<clipPath id="clip1_190_32916">
<rect width="42" height="39.45" fill="white" transform="translate(0.398438 0.757812)"/>
</clipPath>
<clipPath id="clip2_190_32916">
<rect width="41.994" height="39.45" fill="white" transform="translate(0.402344 0.757812)"/>
</clipPath>
</defs>
</svg>
