<svg width="43" height="43" viewBox="0 0 43 43" fill="none" xmlns="http://www.w3.org/2000/svg">
<g clip-path="url(#clip0_190_33137)">
<g clip-path="url(#clip1_190_33137)">
<g clip-path="url(#clip2_190_33137)">
<path opacity="0.5" d="M41.9603 42.9491H26.8403C26.4203 42.9491 26.0703 42.5991 26.0703 42.1791V27.0591C26.0703 26.6391 26.4203 26.2891 26.8403 26.2891H41.9603C42.3803 26.2891 42.7303 26.6391 42.7303 27.0591V42.1791C42.7303 42.5991 42.3803 42.9491 41.9603 42.9491Z" fill="#BDC5D1"/>
<path d="M38.3536 39.7993H24.2486C23.5836 39.7993 23.0586 39.2743 23.0586 38.6093V24.4693C23.0586 23.8043 23.5836 23.2793 24.2486 23.2793H38.3536C39.0186 23.2793 39.5436 23.8043 39.5436 24.4693V38.5743C39.5436 39.2743 39.0186 39.7993 38.3536 39.7993Z" fill="#3498DB"/>
<path opacity="0.5" d="M34.1552 35.0041H30.1302C29.8152 35.0041 29.5352 34.7241 29.5352 34.4091V30.3841C29.5352 30.0691 29.8152 29.7891 30.1302 29.7891H34.1552C34.4702 29.7891 34.7502 30.0691 34.7502 30.3841V34.4091C34.7502 34.7241 34.5052 35.0041 34.1552 35.0041Z" fill="white"/>
<path d="M32.4405 33.2892H28.4505C28.1355 33.2892 27.8555 33.0092 27.8555 32.6942V28.6692C27.8555 28.3542 28.1355 28.0742 28.4505 28.0742H32.4755C32.7905 28.0742 33.0705 28.3542 33.0705 28.6692V32.6942C33.0355 33.0092 32.7905 33.2892 32.4405 33.2892Z" fill="white"/>
<path d="M10.8097 42.3186C15.9901 42.3186 20.1897 38.119 20.1897 32.9386C20.1897 27.7582 15.9901 23.5586 10.8097 23.5586C5.62926 23.5586 1.42969 27.7582 1.42969 32.9386C1.42969 38.119 5.62926 42.3186 10.8097 42.3186Z" stroke="#BDC5D1" stroke-width="1.05" stroke-miterlimit="10" stroke-linecap="round" stroke-linejoin="round"/>
<path opacity="0.5" d="M11.6859 37.8738C13.8122 37.8738 15.5359 36.1501 15.5359 34.0238C15.5359 31.8975 13.8122 30.1738 11.6859 30.1738C9.55964 30.1738 7.83594 31.8975 7.83594 34.0238C7.83594 36.1501 9.55964 37.8738 11.6859 37.8738Z" fill="#BDC5D1"/>
<path d="M9.93594 35.7039C12.0622 35.7039 13.7859 33.9802 13.7859 31.8539C13.7859 29.7276 12.0622 28.0039 9.93594 28.0039C7.80964 28.0039 6.08594 29.7276 6.08594 31.8539C6.08594 33.9802 7.80964 35.7039 9.93594 35.7039Z" fill="#3498DB"/>
<path d="M22.1137 18.1698L31.5987 1.71977C31.7737 1.43977 32.1937 1.43977 32.3687 1.71977L41.8537 18.1698C42.0287 18.4498 41.8187 18.8348 41.4687 18.8348H22.4987C22.1487 18.8348 21.9387 18.4498 22.1137 18.1698Z" stroke="#BDC5D1" stroke-width="1.05" stroke-miterlimit="10" stroke-linecap="round" stroke-linejoin="round"/>
<path opacity="0.5" d="M30.8654 15.3691L33.7004 10.4691C33.8054 10.2941 34.0504 10.2941 34.1554 10.4691L36.9904 15.3691C37.0954 15.5441 36.9554 15.7541 36.7804 15.7541H31.0754C30.8654 15.7541 30.7604 15.5441 30.8654 15.3691Z" fill="#BDC5D1"/>
<path d="M28.4864 13.7246L31.3214 8.82461C31.4264 8.64961 31.6714 8.64961 31.7764 8.82461L34.6114 13.7246C34.7164 13.8996 34.5764 14.1096 34.4014 14.1096H28.7314C28.5214 14.1096 28.4164 13.8996 28.4864 13.7246Z" fill="#3498DB"/>
</g>
</g>
</g>
<defs>
<clipPath id="clip0_190_33137">
<rect width="42" height="42" fill="white" transform="translate(0.730469 0.949219)"/>
</clipPath>
<clipPath id="clip1_190_33137">
<rect width="42" height="42" fill="white" transform="translate(0.730469 0.949219)"/>
</clipPath>
<clipPath id="clip2_190_33137">
<rect width="42" height="42" fill="white" transform="translate(0.730469 0.949219)"/>
</clipPath>
</defs>
</svg>
