<svg width="17" height="14" viewBox="0 0 17 14" fill="none" xmlns="http://www.w3.org/2000/svg">
<path d="M1.12664 1.09805L3.88289 3.26367C4.4243 2.8207 5.03953 2.45977 5.72859 2.18086C6.43406 1.91836 7.20516 1.77891 8.04188 1.7625C9.04266 1.77891 9.9368 1.97578 10.7243 2.35312C11.5118 2.73047 12.2009 3.19805 12.7915 3.75586C13.3657 4.29727 13.8415 4.85508 14.2188 5.4293C14.5962 6.00352 14.8833 6.52031 15.0802 6.97969C15.1458 7.17656 15.1458 7.37344 15.0802 7.57031C14.8997 7.98047 14.6454 8.43984 14.3173 8.94844C13.9891 9.47344 13.5872 9.99023 13.1114 10.4988L15.6954 12.5168C15.9579 12.7629 15.9907 13.0418 15.7938 13.3535C15.5477 13.616 15.2688 13.6488 14.9571 13.452L0.388359 2.0332C0.125859 1.78711 0.0930468 1.5082 0.289922 1.19648C0.536016 0.933984 0.814922 0.901172 1.12664 1.09805ZM4.84266 4.00195L5.97469 4.88789C6.54891 4.3957 7.23797 4.14141 8.04188 4.125C8.92781 4.14141 9.6743 4.44492 10.2813 5.03555C10.872 5.64258 11.1755 6.38906 11.1919 7.275C11.1919 7.8 11.077 8.28398 10.8473 8.72695L12.1763 9.76055C12.5864 9.33398 12.9391 8.89922 13.2345 8.45625C13.5298 8.01328 13.7595 7.61953 13.9235 7.275C13.743 6.89766 13.497 6.47109 13.1852 5.99531C12.8571 5.51953 12.4552 5.06016 11.9794 4.61719C11.4708 4.125 10.8884 3.73125 10.2321 3.43594C9.57586 3.12422 8.84578 2.96016 8.04188 2.94375C6.795 2.97656 5.72859 3.3293 4.84266 4.00195ZM9.88758 7.96406C9.96961 7.75078 10.0106 7.52109 10.0106 7.275C9.99422 6.71719 9.80555 6.24961 9.44461 5.87227C9.06727 5.51133 8.59969 5.32266 8.04188 5.30625C8.02547 5.30625 8.00906 5.30625 7.99266 5.30625C8.02547 5.4375 8.04188 5.56875 8.04188 5.7C8.04188 5.94609 7.98445 6.17578 7.86961 6.38906L9.88758 7.96406L7.86961 6.38906L9.88758 7.96406ZM11.1427 12C10.2567 12.4922 9.22313 12.7547 8.04188 12.7875C7.04109 12.7711 6.14695 12.5742 5.35945 12.1969C4.57195 11.8195 3.89109 11.352 3.31687 10.7941C2.72625 10.2527 2.24227 9.69492 1.86492 9.1207C1.48758 8.54648 1.20867 8.02969 1.0282 7.57031C0.946172 7.37344 0.946172 7.17656 1.0282 6.97969C1.25789 6.38906 1.65164 5.71641 2.20945 4.96172L3.14461 5.67539C2.70164 6.26602 2.37352 6.79922 2.16023 7.275C2.3407 7.65234 2.5868 8.07891 2.89852 8.55469C3.22664 9.03047 3.62859 9.48984 4.10438 9.93281C4.61297 10.425 5.19539 10.8187 5.85164 11.1141C6.50789 11.4258 7.23797 11.5898 8.04188 11.6062C8.79656 11.5898 9.48563 11.4504 10.1091 11.1879L11.1427 12L10.1091 11.1879L11.1427 12ZM8.97703 10.2773C8.68172 10.3758 8.37 10.425 8.04188 10.425C7.15594 10.4086 6.40945 10.1051 5.80242 9.51445C5.2118 8.90742 4.90828 8.16094 4.89188 7.275C4.89188 7.20937 4.89188 7.14375 4.89188 7.07812L6.27 8.16094C6.54891 8.70234 6.99188 9.04687 7.59891 9.19453L8.97703 10.2773L7.59891 9.19453L8.97703 10.2773Z" fill="#BBBBBB"/>
</svg>
