<svg width="131" height="22" viewBox="0 0 131 22" fill="none" xmlns="http://www.w3.org/2000/svg">
<g clip-path="url(#clip0_190_33609)">
<g clip-path="url(#clip1_190_33609)">
<g clip-path="url(#clip2_190_33609)">
<mask id="mask0_190_33609" style="mask-type:luminance" maskUnits="userSpaceOnUse" x="0" y="0" width="131" height="22">
<path d="M130.368 0.0078125H0.476562V21.4578H130.368V0.0078125Z" fill="white"/>
</mask>
<g mask="url(#mask0_190_33609)">
<path d="M29.5306 0.894611C30.4912 13.9074 22.1275 20.0579 14.6297 20.7138C7.65894 21.3236 1.09744 17.0398 0.521801 10.4581C0.0469631 5.02048 3.40726 2.70552 6.0474 2.47476C8.76284 2.23671 11.0447 4.10956 11.2427 6.37714C11.4334 8.55729 10.0732 9.54959 9.12717 9.63218C8.37909 9.69776 7.43791 9.24352 7.35291 8.26822C7.28004 7.43017 7.59821 7.31601 7.52049 6.42573C7.38206 4.84073 6.00004 4.65611 5.24346 4.7217C4.32779 4.80186 2.66646 5.87067 2.89964 8.533C3.13402 11.2184 5.70859 13.3403 9.08345 13.0451C12.7255 12.7269 15.2612 9.89088 15.4519 5.91318C15.4501 5.7025 15.4945 5.494 15.5818 5.30226L15.583 5.2974C15.6223 5.21409 15.6682 5.13407 15.7202 5.05813C15.7979 4.94153 15.8976 4.81279 16.0263 4.6719C16.0275 4.66826 16.0275 4.66826 16.03 4.66826C16.1234 4.56259 16.2364 4.44842 16.3639 4.32575C17.9547 2.82455 23.6844 -0.715899 29.1031 0.405142C29.2177 0.429694 29.3212 0.490626 29.3982 0.57884C29.4753 0.667056 29.5217 0.777824 29.5306 0.894611Z" fill="url(#paint0_linear_190_33609)"/>
<path d="M42.9023 6.59136V19.4426C42.9023 19.4602 42.8952 19.4773 42.8827 19.4898C42.8703 19.5023 42.8532 19.5093 42.8355 19.5093H40.0981C40.0805 19.5093 40.0633 19.5023 40.0509 19.4898C40.0384 19.4773 40.0312 19.4602 40.0312 19.4426V6.59136C40.0312 6.57543 40.0377 6.56014 40.0489 6.54885C40.0602 6.5376 40.0756 6.53125 40.0914 6.53125H42.8422C42.8582 6.53125 42.8734 6.5376 42.8847 6.54885C42.8959 6.56014 42.9023 6.57543 42.9023 6.59136Z" fill="white"/>
<path d="M64.3775 1.96484C64.3634 1.96484 64.3498 1.97048 64.3398 1.98049C64.3298 1.99051 64.3242 2.00411 64.3242 2.01829V4.32268C64.3242 4.33861 64.3304 4.35391 64.3419 4.36518C64.3529 4.37646 64.3683 4.38279 64.3842 4.38279H69.8723V19.4582C69.8723 19.4759 69.8794 19.4929 69.8919 19.5054C69.9043 19.5179 69.9212 19.525 69.9391 19.525H72.7898C72.8077 19.525 72.8246 19.5179 72.8371 19.5054C72.8495 19.4929 72.8567 19.4759 72.8567 19.4582V4.38279H77.9042C77.9235 4.38279 77.9422 4.37506 77.956 4.36126C77.9699 4.34749 77.9777 4.32881 77.9777 4.30931V2.01829C77.9777 2.00411 77.9719 1.99051 77.9619 1.98049C77.9519 1.97048 77.9383 1.96484 77.9242 1.96484H64.3775Z" fill="white"/>
<path d="M65.3691 19.4389C65.3691 19.4583 65.3616 19.4771 65.3478 19.4909C65.3339 19.5046 65.3152 19.5123 65.2958 19.5123H62.6253C62.6057 19.5123 62.587 19.5046 62.5732 19.4909C62.5596 19.4771 62.5517 19.4583 62.5517 19.4389V11.9513C62.5491 11.5867 62.5202 11.2229 62.4649 10.8625C62.2779 9.57341 61.7972 8.7051 60.0749 8.7051H60.0013C59.4787 8.72425 58.9681 8.86858 58.5125 9.12592C57.9187 9.4384 57.4152 9.89843 57.0503 10.4618C57.1039 10.8782 57.1307 11.2976 57.1305 11.7175V19.6059C57.1305 19.6236 57.1233 19.6406 57.1108 19.6531C57.0984 19.6656 57.0815 19.6727 57.0636 19.6727H54.4332C54.4136 19.6727 54.3949 19.6649 54.3813 19.6512C54.3675 19.6373 54.3596 19.6187 54.3596 19.5992V12.7195C54.3596 11.4971 54.4332 10.1879 53.8257 9.45988C53.5737 9.18725 53.2609 8.97801 52.913 8.84915C52.5648 8.72033 52.1913 8.67555 51.8226 8.71846C51.3104 8.74118 50.8082 8.86846 50.3471 9.0925C50.0345 9.22322 49.7493 9.41127 49.5059 9.6469C49.2182 9.91969 49.0066 10.2627 48.8916 10.6421V19.4389C48.8916 19.4583 48.8838 19.4771 48.8702 19.4909C48.8564 19.5046 48.8377 19.5123 48.818 19.5123H46.1475C46.1282 19.5123 46.1095 19.5046 46.0957 19.4909C46.0818 19.4771 46.0742 19.4583 46.0742 19.4389V6.68124C46.0742 6.66352 46.0811 6.64653 46.0936 6.63401C46.1062 6.62149 46.1233 6.61444 46.1408 6.61444H47.2827C47.5052 6.6137 47.7222 6.68387 47.9022 6.81477C48.0822 6.94567 48.2161 7.13051 48.284 7.34252C48.3376 7.52954 48.4042 7.68983 48.4309 7.76998C49.5607 6.78787 51.0139 6.25957 52.5103 6.28716C53.0873 6.24697 53.6663 6.33047 54.2087 6.53204C54.7509 6.7336 55.2441 7.04862 55.655 7.45605C55.8472 7.6856 56.0193 7.93144 56.1689 8.19078C56.7395 7.5846 57.4319 7.1063 58.2007 6.78738C58.9694 6.46848 59.797 6.3162 60.6289 6.34059C62.0442 6.34059 65.336 6.8215 65.336 11.29L65.3691 19.4389Z" fill="white"/>
<path d="M104.535 19.5983H101.604C101.59 19.5992 101.576 19.5966 101.563 19.5907C101.55 19.5849 101.539 19.5761 101.53 19.565C100.916 18.71 99.6076 16.6661 99.4672 16.5125L99.4073 16.4123C98.9466 15.8044 97.8583 14.4085 96.4029 14.0945L95.3012 15.2367V19.5115C95.3012 19.5185 95.2998 19.5255 95.2971 19.532C95.2945 19.5385 95.2905 19.5444 95.2856 19.5494C95.2807 19.5543 95.2746 19.5582 95.2682 19.5609C95.2617 19.5635 95.2548 19.565 95.2479 19.565H92.5239C92.5054 19.5633 92.4885 19.5548 92.4762 19.5413C92.4637 19.5276 92.457 19.5099 92.457 19.4914V1.77773C92.457 1.76001 92.4639 1.74303 92.4767 1.7305C92.4891 1.71798 92.506 1.71094 92.5239 1.71094H95.3012C95.3154 1.71094 95.329 1.71657 95.339 1.72658C95.3491 1.73661 95.3546 1.7502 95.3546 1.76438V11.7835L100.696 6.30636H100.742H103.794C103.88 6.30636 103.921 6.30636 103.954 6.36647C103.987 6.42659 103.954 6.48004 103.954 6.54014L98.3324 12.251C99.5811 12.9163 100.654 13.8686 101.464 15.0296L101.524 15.1098C101.711 15.3503 103.807 18.3427 104.602 19.4581C104.62 19.4669 104.635 19.4829 104.641 19.5023C104.648 19.5217 104.647 19.543 104.638 19.5616C104.629 19.5802 104.614 19.5945 104.594 19.6014C104.575 19.6084 104.554 19.6073 104.535 19.5983Z" fill="white"/>
<path d="M43.1907 3.14704C43.1974 3.48893 43.1023 3.82505 42.9173 4.11266C42.7324 4.40027 42.4662 4.62632 42.1525 4.76208C41.8386 4.89784 41.4918 4.93715 41.1556 4.87502C40.8197 4.81287 40.5095 4.6521 40.2648 4.41315C40.0205 4.1742 39.8525 3.86789 39.7825 3.53317C39.7126 3.19846 39.7438 2.85048 39.872 2.53354C40.0004 2.21658 40.2201 1.945 40.503 1.75332C40.7862 1.56164 41.1197 1.45856 41.4617 1.45715C41.686 1.45449 41.9088 1.49611 42.1174 1.57962C42.3257 1.66312 42.5155 1.78686 42.676 1.94377C42.8367 2.1007 42.9648 2.28772 43.0531 2.49418C43.1415 2.70063 43.1883 2.9225 43.1907 3.14704Z" fill="white"/>
<path d="M83.6505 6.02539C79.7181 6.02539 77.2812 8.63702 77.2812 12.845C77.2812 17.053 79.7181 19.6647 83.6505 19.6647C87.5829 19.6647 90.0601 17.0464 90.0601 12.8384C90.0601 8.63036 87.5829 6.02539 83.6505 6.02539ZM86.1943 16.3718C85.8528 16.6864 85.4517 16.9295 85.0148 17.0866C84.5779 17.2438 84.1142 17.3119 83.6505 17.2868C80.6395 17.2868 80.0186 14.7888 80.0186 12.7048C80.0186 9.79924 81.2003 8.3832 83.6505 8.3832C86.1007 8.3832 87.2692 9.87271 87.2692 12.825C87.2826 14.4347 86.9154 15.6303 86.1943 16.3651V16.3718Z" fill="white"/>
<path d="M116.849 15.5828C116.789 15.5094 116.662 15.5828 116.602 15.5828L114.245 15.9368C114.205 15.9376 114.166 15.95 114.133 15.9726C114.1 15.9951 114.074 16.0268 114.058 16.0637C113.802 16.4875 113.446 16.8421 113.021 17.097C112.596 17.3519 112.116 17.4994 111.621 17.5265C110.979 17.6173 110.324 17.5286 109.73 17.2705C109.135 17.0124 108.622 16.5947 108.25 16.0637C107.835 15.5278 107.576 14.8875 107.502 14.2135V14.1668L114.305 13.2317C114.725 13.1829 115.128 13.0366 115.481 12.8047C115.835 12.5728 116.13 12.2616 116.342 11.8958C116.539 11.5184 116.644 11.0999 116.65 10.6741C116.656 10.2483 116.562 9.82713 116.375 9.44446C115.742 8.07074 114.603 6.99417 113.197 6.43872C112.206 6.06094 111.136 5.9394 110.086 6.08534C109.035 6.23129 108.039 6.64 107.188 7.27366C106.41 7.89497 105.783 8.68484 105.353 9.58383C104.925 10.4828 104.705 11.4674 104.711 12.4636C104.678 13.1111 104.714 13.7605 104.818 14.4006C105.292 17.1391 107.288 19.9043 110.78 19.9043C114.946 19.9043 116.542 17.3395 116.836 15.8032C116.876 15.7565 116.922 15.6363 116.849 15.5828ZM108.17 9.75172C108.485 9.35901 108.878 9.035 109.324 8.79952C109.769 8.56407 110.258 8.42214 110.76 8.38244C111.222 8.29175 111.7 8.31362 112.152 8.44612C112.604 8.57864 113.017 8.81795 113.357 9.1439C113.625 9.39571 113.85 9.6889 114.025 10.0122C114.075 10.1164 114.101 10.2305 114.101 10.3462C114.101 10.4618 114.075 10.576 114.025 10.6801C113.979 10.7871 113.907 10.8803 113.814 10.9506C113.722 11.0209 113.612 11.0658 113.497 11.0809L107.282 11.9492C107.377 11.1461 107.694 10.3854 108.196 9.75172H108.17Z" fill="white"/>
<path d="M130.314 11.4833V19.4385C130.314 19.4579 130.306 19.4767 130.292 19.4905C130.279 19.5042 130.26 19.5119 130.241 19.5119H127.569C127.553 19.5119 127.535 19.5049 127.523 19.4924C127.51 19.4799 127.504 19.4628 127.504 19.4452V12.8258C127.504 12.8258 127.504 11.7305 127.45 10.7352C127.439 10.4018 127.364 10.0736 127.227 9.76979C127.089 9.46593 126.892 9.19243 126.648 8.9652C126.397 8.76554 126.105 8.62131 125.792 8.5419C125.481 8.46249 125.156 8.4497 124.839 8.50432C123.577 8.66714 122.424 9.30482 121.614 10.2877V19.4385C121.614 19.4579 121.606 19.4767 121.593 19.4905C121.579 19.5042 121.561 19.5119 121.541 19.5119H118.87C118.851 19.5119 118.832 19.5042 118.818 19.4905C118.805 19.4767 118.797 19.4579 118.797 19.4385V6.44038C118.797 6.4209 118.805 6.4022 118.818 6.38843C118.832 6.37465 118.851 6.36692 118.87 6.36692H121.107C121.127 6.36692 121.145 6.37465 121.159 6.38843C121.172 6.4022 121.181 6.4209 121.181 6.44038V7.70948C122.309 6.68604 123.764 6.09462 125.286 6.03961C126.568 5.95946 130.314 6.03293 130.314 11.4833Z" fill="white"/>
</g>
</g>
</g>
</g>
<defs>
<linearGradient id="paint0_linear_190_33609" x1="28.7919" y1="0.764927" x2="9.93432" y2="27.454" gradientUnits="userSpaceOnUse">
<stop stop-color="#11C4D1"/>
<stop offset="1" stop-color="#0062AD"/>
</linearGradient>
<clipPath id="clip0_190_33609">
<rect width="130" height="21.45" fill="white" transform="translate(0.421875 0.0078125)"/>
</clipPath>
<clipPath id="clip1_190_33609">
<rect width="130" height="21.45" fill="white" transform="translate(0.421875 0.0078125)"/>
</clipPath>
<clipPath id="clip2_190_33609">
<rect width="129.892" height="21.45" fill="white" transform="translate(0.476562 0.0078125)"/>
</clipPath>
</defs>
</svg>
