<svg width="15" height="16" viewBox="0 0 15 16" fill="none" xmlns="http://www.w3.org/2000/svg">
<path d="M7.64062 2.3418C6.56445 2.3418 5.58268 2.60612 4.69531 3.13477C3.80794 3.64453 3.09049 4.36198 2.54297 5.28711C2.01432 6.21224 1.75 7.19401 1.75 8.23242C1.75 9.27083 2.01432 10.2526 2.54297 11.1777C3.09049 12.1029 3.80794 12.8203 4.69531 13.3301C5.58268 13.8587 6.56445 14.123 7.64062 14.123C8.7168 14.123 9.69857 13.8587 10.5859 13.3301C11.4733 12.8203 12.1908 12.1029 12.7383 11.1777C13.2669 10.2526 13.5312 9.27083 13.5312 8.23242C13.5312 7.19401 13.2669 6.21224 12.7383 5.28711C12.1908 4.36198 11.4733 3.64453 10.5859 3.13477C9.69857 2.60612 8.7168 2.3418 7.64062 2.3418ZM7.64062 15.4824C6.31901 15.4635 5.11068 15.1426 4.01562 14.5195C2.92057 13.8776 2.0332 12.9902 1.35352 11.8574C0.711589 10.7057 0.390625 9.4974 0.390625 8.23242C0.390625 6.96745 0.711589 5.75911 1.35352 4.60742C2.0332 3.47461 2.92057 2.58724 4.01562 1.94531C5.11068 1.32227 6.31901 1.0013 7.64062 0.982422C8.96224 1.0013 10.1706 1.32227 11.2656 1.94531C12.3607 2.58724 13.248 3.47461 13.9277 4.60742C14.5697 5.75911 14.8906 6.96745 14.8906 8.23242C14.8906 9.4974 14.5697 10.7057 13.9277 11.8574C13.248 12.9902 12.3607 13.8776 11.2656 14.5195C10.1706 15.1426 8.96224 15.4635 7.64062 15.4824ZM6.50781 10.498H7.1875V8.68555H6.50781C6.09245 8.64779 5.86589 8.42122 5.82812 8.00586C5.86589 7.59049 6.09245 7.36393 6.50781 7.32617H7.86719C8.28255 7.36393 8.50911 7.59049 8.54688 8.00586V10.498H8.77344C9.1888 10.5358 9.41536 10.7624 9.45312 11.1777C9.41536 11.5931 9.1888 11.8197 8.77344 11.8574H6.50781C6.09245 11.8197 5.86589 11.5931 5.82812 11.1777C5.86589 10.7624 6.09245 10.5358 6.50781 10.498ZM7.64062 6.41992C7.3763 6.41992 7.15918 6.33496 6.98926 6.16504C6.81934 5.99512 6.73438 5.77799 6.73438 5.51367C6.73438 5.24935 6.81934 5.03223 6.98926 4.8623C7.15918 4.69238 7.3763 4.60742 7.64062 4.60742C7.90495 4.60742 8.12207 4.69238 8.29199 4.8623C8.46191 5.03223 8.54688 5.24935 8.54688 5.51367C8.54688 5.77799 8.46191 5.99512 8.29199 6.16504C8.12207 6.33496 7.90495 6.41992 7.64062 6.41992Z" fill="#F5F5F5"/>
</svg>
