<svg width="14" height="16" viewBox="0 0 14 16" fill="none" xmlns="http://www.w3.org/2000/svg">
<path d="M12.2024 3.24805H12.1741C12.042 3.09701 11.7304 2.93652 11.2396 2.7666C10.2389 2.389 8.89841 2.19076 7.21807 2.17188C5.53774 2.19076 4.19724 2.389 3.19659 2.7666C2.70571 2.93652 2.39418 3.09701 2.26202 3.24805H2.2337V5.76855C2.6113 5.97624 3.13051 6.16504 3.79132 6.33496C4.77309 6.5804 5.91534 6.70312 7.21807 6.70312C8.52081 6.70312 9.66306 6.5804 10.6448 6.33496C11.3056 6.16504 11.8248 5.97624 12.2024 5.76855V3.24805V5.76855V3.24805ZM12.2024 7.26953C11.8248 7.42057 11.4189 7.54329 10.9847 7.6377C9.87074 7.9209 8.61521 8.0625 7.21807 8.0625C5.82094 8.0625 4.56541 7.9209 3.45147 7.6377C3.01723 7.54329 2.6113 7.42057 2.2337 7.26953V9.39355C2.6113 9.60124 3.13051 9.79004 3.79132 9.95996C4.77309 10.2054 5.91534 10.3281 7.21807 10.3281C8.52081 10.3281 9.66306 10.2054 10.6448 9.95996C11.3056 9.79004 11.8248 9.60124 12.2024 9.39355V7.26953V9.39355V7.26953ZM2.2337 12.877L2.26202 12.9053C2.39418 13.0374 2.70571 13.1885 3.19659 13.3584C4.19724 13.736 5.53774 13.9342 7.21807 13.9531C8.89841 13.9342 10.2389 13.736 11.2396 13.3584C11.7304 13.1885 12.042 13.0374 12.1741 12.9053L12.2024 12.877V10.8945C11.8248 11.0456 11.4189 11.1683 10.9847 11.2627C9.87074 11.5459 8.61521 11.6875 7.21807 11.6875C5.82094 11.6875 4.56541 11.5459 3.45147 11.2627C3.01723 11.1683 2.6113 11.0456 2.2337 10.8945V12.877V10.8945V12.877ZM2.17706 12.8203C2.17706 12.8014 2.1865 12.8014 2.20538 12.8203C2.20538 12.8203 2.19594 12.8203 2.17706 12.8203ZM2.17706 3.30469C2.17706 3.30469 2.1865 3.30469 2.20538 3.30469C2.20538 3.32357 2.19594 3.33301 2.17706 3.33301C2.17706 3.33301 2.17706 3.32357 2.17706 3.30469ZM12.2591 3.30469C12.2591 3.32357 12.2591 3.33301 12.2591 3.33301C12.2591 3.31413 12.2591 3.30469 12.2591 3.30469ZM13.5618 13.0469C13.5241 13.6888 12.901 14.2269 11.6927 14.6611C10.5032 15.0765 9.01169 15.2936 7.21807 15.3125C5.42446 15.2936 3.93292 15.0765 2.74347 14.6611C1.53513 14.2269 0.912085 13.6888 0.874325 13.0469V3.07812C0.912085 2.4362 1.53513 1.89811 2.74347 1.46387C3.93292 1.0485 5.42446 0.83138 7.21807 0.8125C9.01169 0.83138 10.5032 1.0485 11.6927 1.46387C12.901 1.89811 13.5241 2.4362 13.5618 3.07812V13.0469V3.07812V13.0469Z" fill="#BBBBBB"/>
</svg>
