<svg width="16" height="16" viewBox="0 0 16 16" fill="none" xmlns="http://www.w3.org/2000/svg">
<g id="Icon" clip-path="url(#clip0_40_8723)">
<path id="Vector" d="M6.7011 12.7444C6.68237 12.3699 6.55128 12.0515 6.30784 11.7893C6.04566 11.5459 5.72731 11.4148 5.35278 11.3961H2.65615C2.37525 11.3774 2.22544 11.2275 2.20671 10.9466V2.85676C2.22544 2.57586 2.37525 2.42604 2.65615 2.40732H13.4427C13.7236 2.42604 13.8734 2.57586 13.8921 2.85676V10.9466C13.8734 11.2275 13.7236 11.3774 13.4427 11.3961H9.53817C9.23855 11.3961 8.97638 11.4897 8.75166 11.677L6.7011 13.1938V12.7444ZM6.7011 14.8792L9.53817 12.7444H13.4427C13.9483 12.7257 14.3696 12.5478 14.7067 12.2107C15.0438 11.8736 15.2217 11.4523 15.2404 10.9466V2.85676C15.2217 2.35114 15.0438 1.92979 14.7067 1.59271C14.3696 1.25563 13.9483 1.07773 13.4427 1.059H2.65615C2.15053 1.07773 1.72918 1.25563 1.39211 1.59271C1.05503 1.92979 0.877125 2.35114 0.858398 2.85676V10.9466C0.877125 11.4523 1.05503 11.8736 1.39211 12.2107C1.72918 12.5478 2.15053 12.7257 2.65615 12.7444H4.00447H5.35278V14.0927V14.2051V14.4017V14.9916C5.35278 15.1789 5.43705 15.3099 5.60559 15.3848C5.77413 15.4598 5.9333 15.4504 6.08312 15.3568L6.56065 14.9916L6.7011 14.8792ZM5.12806 5.10395C4.71608 5.1414 4.49136 5.36612 4.4539 5.7781C4.49136 6.19009 4.71608 6.41481 5.12806 6.45226H10.9708C11.3827 6.41481 11.6075 6.19009 11.6449 5.7781C11.6075 5.36612 11.3827 5.1414 10.9708 5.10395H5.12806ZM5.12806 7.80058C4.71608 7.83803 4.49136 8.06275 4.4539 8.47473C4.49136 8.88672 4.71608 9.11144 5.12806 9.14889H8.27413C8.68611 9.11144 8.91083 8.88672 8.94829 8.47473C8.91083 8.06275 8.68611 7.83803 8.27413 7.80058H5.12806Z" fill="#888888"/>
</g>
<defs>
<clipPath id="clip0_40_8723">
<rect width="14.5" height="15" fill="white" transform="matrix(1 0 0 -1 0.799805 15.75)"/>
</clipPath>
</defs>
</svg>
