<svg width="16" height="14" viewBox="0 0 16 14" fill="none" xmlns="http://www.w3.org/2000/svg">
<g clip-path="url(#clip0_40_3030)">
<path d="M1.73947 1.27505C1.4311 1.11275 1.16331 1.16956 0.936097 1.44546C0.75757 1.75383 0.814374 2.02162 1.10651 2.24883L2.27505 3.02786C2.58341 3.20638 2.8512 3.14958 3.07842 2.85745C3.25695 2.54908 3.20014 2.28129 2.90801 2.05408L1.73947 1.27505ZM14.5934 2.24883C14.8693 2.02162 14.9261 1.75383 14.7638 1.44546C14.5366 1.16956 14.2688 1.11275 13.9604 1.27505L12.7919 2.05408C12.516 2.28129 12.4592 2.54908 12.6215 2.85745C12.8487 3.13335 13.1165 3.19016 13.4249 3.02786L14.5934 2.24883ZM0.643962 5.0728C0.286908 5.10526 0.0921518 5.30002 0.0596924 5.65707C0.0921518 6.01412 0.286908 6.20888 0.643962 6.24134H2.20201C2.55907 6.20888 2.75382 6.01412 2.78628 5.65707C2.75382 5.30002 2.55907 5.10526 2.20201 5.0728H0.643962ZM13.4979 5.0728C13.1408 5.10526 12.9461 5.30002 12.9136 5.65707C12.9461 6.01412 13.1408 6.20888 13.4979 6.24134H15.0559C15.413 6.20888 15.6078 6.01412 15.6402 5.65707C15.6078 5.30002 15.413 5.10526 15.0559 5.0728H13.4979ZM2.90801 9.26007C3.18391 9.03285 3.24072 8.76506 3.07842 8.4567C2.8512 8.18079 2.58341 8.12399 2.27505 8.28628L1.10651 9.06531C0.830604 9.29253 0.7738 9.56032 0.936097 9.86868C1.16331 10.1446 1.4311 10.2014 1.73947 10.0391L2.90801 9.26007ZM13.4249 8.28628C13.1165 8.12399 12.8487 8.18079 12.6215 8.4567C12.443 8.76506 12.4998 9.03285 12.7919 9.26007L13.9604 10.0391C14.2688 10.2176 14.5366 10.1608 14.7638 9.86868C14.9423 9.56032 14.8855 9.29253 14.5934 9.06531L13.4249 8.28628ZM10.9661 5.46231C10.9498 6.12773 10.7632 6.72012 10.4061 7.23947C10.325 7.36931 10.2276 7.51537 10.114 7.67767C9.77318 8.11587 9.44858 8.59465 9.14022 9.114C8.89677 9.58466 8.74259 10.0553 8.67767 10.526H9.87055C9.91924 10.2339 10.0166 9.94983 10.1627 9.67393C10.4061 9.25195 10.682 8.83809 10.9904 8.43235C11.1202 8.25383 11.2501 8.0753 11.3799 7.89677C11.8668 7.19889 12.1184 6.38741 12.1346 5.46231C12.1021 4.24509 11.6802 3.23884 10.8687 2.44359C10.0734 1.6321 9.06718 1.21013 7.84995 1.17767C6.63273 1.21013 5.62648 1.6321 4.83123 2.44359C4.01974 3.23884 3.59777 4.24509 3.56531 5.46231C3.58154 6.38741 3.8331 7.19889 4.31999 7.89677C4.44983 8.0753 4.57967 8.25383 4.70951 8.43235C5.01787 8.83809 5.29377 9.25195 5.53722 9.67393C5.68329 9.94983 5.78067 10.2339 5.82936 10.526H7.02224C6.95732 10.0553 6.80314 9.58466 6.55969 9.114C6.26756 8.59465 5.95108 8.11587 5.61025 7.67767C5.49665 7.51537 5.39115 7.36931 5.29377 7.23947C4.93672 6.72012 4.75008 6.12773 4.73385 5.46231C4.75008 4.58591 5.05033 3.84746 5.6346 3.24696C6.2351 2.66269 6.97355 2.36244 7.84995 2.34621C8.72636 2.36244 9.46481 2.66269 10.0653 3.24696C10.6496 3.84746 10.9498 4.58591 10.9661 5.46231ZM6.68142 5.46231C6.69764 5.13772 6.81125 4.86182 7.02224 4.6346C7.24945 4.42361 7.52536 4.31001 7.84995 4.29378C8.0934 4.27755 8.22324 4.14771 8.23947 3.90426C8.22324 3.66082 8.0934 3.53098 7.84995 3.51475C7.29814 3.53098 6.8356 3.71762 6.46231 4.07467C6.10526 4.44796 5.91862 4.9105 5.90239 5.46231C5.91862 5.70576 6.04846 5.8356 6.2919 5.85183C6.53535 5.8356 6.66519 5.70576 6.68142 5.46231ZM9.79752 11.6945V11.305H5.90239V11.6945C5.91862 12.2463 6.10526 12.7089 6.46231 13.0822C6.8356 13.4392 7.29814 13.6259 7.84995 13.6421C8.40176 13.6259 8.86431 13.4392 9.23759 13.0822C9.59465 12.7089 9.78129 12.2463 9.79752 11.6945Z" fill="#BBBBBB"/>
</g>
<defs>
<clipPath id="clip0_40_3030">
<rect width="15.7" height="13" fill="white" transform="matrix(1 0 0 -1 0 13.9099)"/>
</clipPath>
</defs>
</svg>
