<svg width="15" height="13" viewBox="0 0 15 13" fill="none" xmlns="http://www.w3.org/2000/svg">
<path d="M0.732812 0.472656H2.09219C2.50755 0.510417 2.73411 0.736979 2.77187 1.15234V2.51172C2.73411 2.92708 2.50755 3.15365 2.09219 3.19141H0.732812C0.317448 3.15365 0.0908853 2.92708 0.0531249 2.51172V1.15234C0.0908853 0.736979 0.317448 0.510417 0.732812 0.472656ZM4.81094 1.15234H13.4203C13.8357 1.1901 14.0622 1.41667 14.1 1.83203C14.0622 2.2474 13.8357 2.47396 13.4203 2.51172H4.81094C4.39557 2.47396 4.16901 2.2474 4.13125 1.83203C4.16901 1.41667 4.39557 1.1901 4.81094 1.15234ZM4.81094 5.68359H13.4203C13.8357 5.72135 14.0622 5.94792 14.1 6.36328C14.0622 6.77865 13.8357 7.00521 13.4203 7.04297H4.81094C4.39557 7.00521 4.16901 6.77865 4.13125 6.36328C4.16901 5.94792 4.39557 5.72135 4.81094 5.68359ZM4.81094 10.2148H13.4203C13.8357 10.2526 14.0622 10.4792 14.1 10.8945C14.0622 11.3099 13.8357 11.5365 13.4203 11.5742H4.81094C4.39557 11.5365 4.16901 11.3099 4.13125 10.8945C4.16901 10.4792 4.39557 10.2526 4.81094 10.2148ZM0.0531249 5.68359C0.0908853 5.26823 0.317448 5.04167 0.732812 5.00391H2.09219C2.50755 5.04167 2.73411 5.26823 2.77187 5.68359V7.04297C2.73411 7.45833 2.50755 7.6849 2.09219 7.72266H0.732812C0.317448 7.6849 0.0908853 7.45833 0.0531249 7.04297V5.68359V7.04297V5.68359ZM0.732812 9.53516H2.09219C2.50755 9.57292 2.73411 9.79948 2.77187 10.2148V11.5742C2.73411 11.9896 2.50755 12.2161 2.09219 12.2539H0.732812C0.317448 12.2161 0.0908853 11.9896 0.0531249 11.5742V10.2148C0.0908853 9.79948 0.317448 9.57292 0.732812 9.53516Z" fill="white"/>
</svg>
