<svg width="12" height="16" viewBox="0 0 12 16" fill="none" xmlns="http://www.w3.org/2000/svg">
<g id="Icon" clip-path="url(#clip0_40_3413)">
<path id="Vector" d="M2.11286 2.3773C1.83222 2.39603 1.68254 2.54584 1.66383 2.82674V13.6133C1.68254 13.8942 1.83222 14.044 2.11286 14.0627H9.29726C9.5779 14.044 9.72758 13.8942 9.74628 13.6133V2.82674C9.72758 2.54584 9.5779 2.39603 9.29726 2.3773H2.11286ZM0.316757 2.82674C0.335467 2.32112 0.513206 1.89977 0.849975 1.5627C1.18674 1.22562 1.6077 1.04771 2.11286 1.02899H9.29726C9.80241 1.04771 10.2234 1.22562 10.5601 1.5627C10.8969 1.89977 11.0747 2.32112 11.0934 2.82674V13.6133C11.0747 14.1189 10.8969 14.5402 10.5601 14.8773C10.2234 15.2144 9.80241 15.3923 9.29726 15.411H2.11286C1.6077 15.3923 1.18674 15.2144 0.849975 14.8773C0.513206 14.5402 0.335467 14.1189 0.316757 13.6133V2.82674ZM3.68445 4.62449H7.72567C8.13728 4.66195 8.36179 4.88667 8.39921 5.29865C8.36179 5.71064 8.13728 5.93536 7.72567 5.97281H3.68445C3.27284 5.93536 3.04833 5.71064 3.01091 5.29865C3.04833 4.88667 3.27284 4.66195 3.68445 4.62449ZM3.68445 7.32112H7.72567C8.13728 7.35858 8.36179 7.5833 8.39921 7.99528C8.36179 8.40727 8.13728 8.63198 7.72567 8.66944H3.68445C3.27284 8.63198 3.04833 8.40727 3.01091 7.99528C3.04833 7.5833 3.27284 7.35858 3.68445 7.32112ZM3.68445 10.0178H5.03152C5.44313 10.0552 5.66764 10.2799 5.70506 10.6919C5.66764 11.1039 5.44313 11.3286 5.03152 11.3661H3.68445C3.27284 11.3286 3.04833 11.1039 3.01091 10.6919C3.04833 10.2799 3.27284 10.0552 3.68445 10.0178Z" fill="#ADB5BD"/>
</g>
<defs>
<clipPath id="clip0_40_3413">
<rect width="10.87" height="15" fill="white" transform="matrix(1 0 0 -1 0.27002 15.72)"/>
</clipPath>
</defs>
</svg>
