<svg width="14" height="16" viewBox="0 0 14 16" fill="none" xmlns="http://www.w3.org/2000/svg">
<path d="M7.21801 2.05273C6.57609 2.07161 6.038 2.28874 5.60376 2.7041C5.18839 3.13835 4.97127 3.67643 4.95239 4.31836V6.13086H9.48364V4.31836C9.46476 3.67643 9.24764 3.13835 8.83227 2.7041C8.39803 2.28874 7.85994 2.07161 7.21801 2.05273ZM3.59301 4.31836C3.61189 3.29883 3.96118 2.43978 4.64087 1.74121C5.33943 1.06152 6.19848 0.71224 7.21801 0.693359C8.23755 0.71224 9.09659 1.06152 9.79516 1.74121C10.4748 2.43978 10.8241 3.29883 10.843 4.31836V6.13086H11.7493C12.259 6.14974 12.6838 6.3291 13.0237 6.66895C13.3635 7.00879 13.5429 7.43359 13.5618 7.94336V13.3809C13.5429 13.8906 13.3635 14.3154 13.0237 14.6553C12.6838 14.9951 12.259 15.1745 11.7493 15.1934H2.68676C2.177 15.1745 1.75219 14.9951 1.41235 14.6553C1.07251 14.3154 0.893144 13.8906 0.874264 13.3809V7.94336C0.893144 7.43359 1.07251 7.00879 1.41235 6.66895C1.75219 6.3291 2.177 6.14974 2.68676 6.13086H3.59301V4.31836V6.13086V4.31836ZM2.68676 7.49023C2.40356 7.50911 2.25252 7.66016 2.23364 7.94336V13.3809C2.25252 13.6641 2.40356 13.8151 2.68676 13.834H11.7493C12.0325 13.8151 12.1835 13.6641 12.2024 13.3809V7.94336C12.1835 7.66016 12.0325 7.50911 11.7493 7.49023H2.68676H11.7493H2.68676ZM7.8977 9.75586V11.5684C7.85994 11.9837 7.63338 12.2103 7.21801 12.248C6.80265 12.2103 6.57609 11.9837 6.53833 11.5684V9.75586C6.57609 9.34049 6.80265 9.11393 7.21801 9.07617C7.63338 9.11393 7.85994 9.34049 7.8977 9.75586Z" fill="#BBBBBB"/>
</svg>
