<svg width="16" height="14" viewBox="0 0 16 14" fill="none" xmlns="http://www.w3.org/2000/svg">
<path d="M7.12987 10.9189C6.80891 11.1833 6.48794 11.1833 6.16698 10.9189C5.90266 10.598 5.90266 10.277 6.16698 9.95605L8.63085 7.49219H1.66405C1.24869 7.45443 1.02212 7.22786 0.984363 6.8125C1.02212 6.39714 1.24869 6.17057 1.66405 6.13281H8.63085L6.16698 3.66895C5.90266 3.34798 5.90266 3.02702 6.16698 2.70605C6.48794 2.44173 6.80891 2.44173 7.12987 2.70605L10.7549 6.33105C11.0192 6.65202 11.0192 6.97298 10.7549 7.29395L7.12987 10.9189L10.7549 7.29395L7.12987 10.9189ZM10.7266 1.82812C10.3112 1.79036 10.0846 1.5638 10.0469 1.14844C10.0846 0.733073 10.3112 0.50651 10.7266 0.46875H12.9922C13.6907 0.48763 14.276 0.733073 14.748 1.20508C15.22 1.67708 15.4655 2.26237 15.4844 2.96094V10.6641C15.4655 11.3626 15.22 11.9479 14.748 12.4199C14.276 12.8919 13.6907 13.1374 12.9922 13.1562H10.7266C10.3112 13.1185 10.0846 12.8919 10.0469 12.4766C10.0846 12.0612 10.3112 11.8346 10.7266 11.7969H12.9922C13.3131 11.7969 13.5775 11.6836 13.7851 11.457C14.0117 11.2493 14.125 10.985 14.125 10.6641V2.96094C14.125 2.63997 14.0117 2.37565 13.7851 2.16797C13.5775 1.94141 13.3131 1.82812 12.9922 1.82812H10.7266H12.9922H10.7266Z" fill="#BBBBBB"/>
</svg>
