<svg width="101" height="24" viewBox="0 0 101 24" fill="none" xmlns="http://www.w3.org/2000/svg">
<g opacity="0.5" clip-path="url(#clip0_62_9426)">
<g clip-path="url(#clip1_62_9426)">
<g clip-path="url(#clip2_62_9426)">
<mask id="mask0_62_9426" style="mask-type:luminance" maskUnits="userSpaceOnUse" x="0" y="0" width="101" height="24">
<path d="M100.475 0.529785H0.524414V23.2798H100.475V0.529785Z" fill="white"/>
</mask>
<g mask="url(#mask0_62_9426)">
<mask id="mask1_62_9426" style="mask-type:luminance" maskUnits="userSpaceOnUse" x="0" y="0" width="101" height="24">
<path d="M100.292 0.529785H0.524414V23.2125H100.292V0.529785Z" fill="white"/>
</mask>
<g mask="url(#mask1_62_9426)">
<path d="M30.0334 7.88537V11.017H33.8375V12.3048H30.0334V15.5098H34.2774V16.8711H28.3652V6.54033H34.2765V7.88668L30.0334 7.88537ZM39.9554 15.4212V16.8699H38.9309C38.0724 16.8699 37.4212 16.6626 36.9772 16.248C36.5332 15.8334 36.3113 15.1434 36.3115 14.178V10.2268H35.1554V8.80731H36.3115V6.80251H37.9945V8.80731H39.9407V10.2268H37.9945V14.2073C37.9945 14.6657 38.0799 14.9827 38.2505 15.1583C38.4211 15.3338 38.7211 15.4215 39.1504 15.4212H39.9554ZM46.0286 8.67566C46.9652 8.67566 47.7163 8.97812 48.2821 9.58305C48.8479 10.188 49.1308 11.0514 49.131 12.1732V16.8707H47.4627V12.3488C47.4627 11.6269 47.2774 11.0684 46.9067 10.6732C46.7096 10.4721 46.4718 10.3153 46.2094 10.2131C45.9471 10.111 45.6659 10.0658 45.3847 10.0806C45.0889 10.0675 44.7937 10.1176 44.5187 10.2273C44.2436 10.3371 43.995 10.5041 43.7895 10.7172C43.3896 11.1416 43.1895 11.7636 43.1895 12.5831V16.8707H41.5213V6.0415H43.1895V10.5781C43.3823 10.0014 43.7638 9.50648 44.2723 9.17317C44.7954 8.83686 45.4068 8.66368 46.0286 8.67566ZM58.57 12.4512C58.5728 12.6915 58.5532 12.9315 58.5114 13.1682H52.3064C52.3357 13.9975 52.5649 14.6122 52.9942 15.0121C53.4266 15.4134 53.9995 15.6289 54.5893 15.6122C55.0937 15.628 55.5893 15.479 56.0014 15.1878C56.377 14.9201 56.6321 14.5152 56.7112 14.0609H58.4965C58.3965 14.6101 58.1657 15.1272 57.8233 15.5682C57.4707 16.016 57.0135 16.3703 56.4917 16.5999C55.916 16.8548 55.2919 16.982 54.6624 16.9729C53.9413 16.9871 53.2284 16.8158 52.5925 16.4754C51.9928 16.1441 51.5024 15.6458 51.1803 15.0412C50.8253 14.3599 50.649 13.5995 50.6681 12.8314C50.65 12.0681 50.8264 11.3128 51.1803 10.6363C51.5024 10.0316 51.9928 9.53337 52.5925 9.20208C53.2284 8.86161 53.9413 8.69029 54.6624 8.70456C55.3829 8.68794 56.0956 8.85676 56.7322 9.1948C57.3053 9.50439 57.7776 9.97159 58.0935 10.5412C58.4144 11.1261 58.5785 11.7841 58.5698 12.4512H58.57ZM56.887 12.4074C56.9211 11.9495 56.8273 11.4912 56.6163 11.0834C56.4313 10.7417 56.1449 10.4656 55.7967 10.2931C55.4437 10.1209 55.0553 10.0332 54.6626 10.0371C54.0593 10.0185 53.4723 10.2335 53.0236 10.6372C52.5847 11.0372 52.3456 11.6277 52.3066 12.4087L56.887 12.4074ZM61.8473 10.3879C62.1126 9.86938 62.5182 9.43584 63.018 9.13662C63.5492 8.8229 64.1571 8.66327 64.774 8.67566V10.4902H64.2765C63.5448 10.4902 62.957 10.6683 62.5132 11.0243C62.0694 11.3804 61.8478 11.9682 61.8488 12.7878V16.8716H60.1806V8.80731H61.8488L61.8473 10.3879ZM68.6667 8.70493C69.613 8.70493 70.3712 8.94642 70.9417 9.42939C71.5188 9.92377 71.8918 10.6149 71.988 11.3687H70.408C70.355 10.9584 70.1549 10.5813 69.8446 10.3077C69.5011 10.0269 69.0657 9.88349 68.6227 9.90527C68.2725 9.88286 67.9262 9.9896 67.6494 10.2053C67.5351 10.3064 67.4451 10.4319 67.3854 10.5724C67.3259 10.7129 67.2987 10.865 67.3056 11.0174C67.3009 11.1318 67.3207 11.2458 67.3636 11.3519C67.4065 11.458 67.4716 11.5538 67.5543 11.6328C67.7337 11.7969 67.9456 11.9216 68.1762 11.9986C68.5248 12.1144 68.8789 12.2121 69.2373 12.2914C69.737 12.3973 70.2286 12.5391 70.708 12.7158C71.0836 12.8622 71.4159 13.1014 71.6738 13.411C71.9593 13.7803 72.1021 14.24 72.0762 14.7061C72.0846 15.0202 72.0195 15.332 71.886 15.6165C71.7527 15.901 71.5548 16.1505 71.3079 16.345C70.7957 16.7646 70.1057 16.9744 69.238 16.9744C68.2331 16.9744 67.421 16.7402 66.8015 16.2719C66.4931 16.0368 66.235 15.742 66.0428 15.4051C65.8505 15.0683 65.7282 14.6961 65.6827 14.3109H67.3071C67.3265 14.5196 67.3884 14.722 67.4891 14.9057C67.5898 15.0895 67.727 15.2506 67.8924 15.3793C68.2803 15.6675 68.756 15.8125 69.2388 15.7895C69.5821 15.8091 69.9198 15.6965 70.1827 15.4749C70.2946 15.3746 70.3832 15.2511 70.4425 15.113C70.5018 14.9749 70.5301 14.8255 70.5258 14.6753C70.532 14.5509 70.5117 14.4265 70.4664 14.3105C70.4208 14.1944 70.3513 14.0894 70.2623 14.0021C70.0727 13.8279 69.8482 13.6957 69.6039 13.6143C69.249 13.4971 68.8875 13.4019 68.521 13.329C68.0375 13.2218 67.5611 13.0848 67.0943 12.9187C66.7292 12.7826 66.4062 12.553 66.1576 12.2528C65.8828 11.8956 65.745 11.4516 65.7698 11.0016C65.7608 10.6842 65.8255 10.369 65.9587 10.0808C66.092 9.79263 66.2904 9.53926 66.5381 9.34063C67.0503 8.91682 67.76 8.70493 68.6672 8.70493H68.6667ZM77.33 8.70493C78.3742 8.70493 79.2376 8.98054 79.9201 9.53176C80.6101 10.0952 81.0643 10.8965 81.1932 11.778H79.4216C79.3448 11.3047 79.0912 10.8782 78.7119 10.5846C78.303 10.2862 77.8056 10.1342 77.2997 10.1529C76.9986 10.1457 76.6993 10.2026 76.4216 10.3199C76.1442 10.4373 75.8948 10.6123 75.6901 10.8334C75.2608 11.287 75.0462 11.9528 75.0462 12.8309C75.0462 13.7089 75.2608 14.3772 75.6901 14.8357C75.8937 15.0586 76.1427 15.2354 76.4203 15.354C76.698 15.4726 76.9978 15.5304 77.2997 15.5234C77.8071 15.5428 78.306 15.3883 78.7136 15.0856C79.092 14.7884 79.3452 14.3603 79.4233 13.8856H81.1948C81.0649 14.7687 80.6112 15.572 79.9218 16.1391C79.2389 16.6952 78.3755 16.9733 77.3316 16.9733C76.6105 16.9875 75.8976 16.8162 75.2618 16.4757C74.662 16.1444 74.1716 15.6462 73.8496 15.0416C73.4938 14.3603 73.317 13.5999 73.3356 12.8316C73.3176 12.0683 73.494 11.3129 73.8479 10.6364C74.1699 10.0318 74.6604 9.53355 75.2601 9.20226C75.8963 8.86174 76.6092 8.69048 77.3307 8.70493H77.33ZM86.0372 8.70493C86.7028 8.68528 87.3577 8.87438 87.9104 9.24571C88.4189 9.59546 88.8032 10.0977 89.008 10.6799V8.80731H90.6762V16.8707H89.008V14.9975C88.8032 15.5798 88.4189 16.082 87.9104 16.4317C87.3577 16.8031 86.7028 16.9921 86.0372 16.9725C85.3766 16.9836 84.7256 16.8114 84.1568 16.475C83.5955 16.1322 83.1457 15.634 82.8617 15.0408C82.5352 14.3509 82.3749 13.5941 82.3935 12.8311C82.3758 12.0728 82.5362 11.3209 82.8617 10.6359C83.1457 10.0426 83.5955 9.54446 84.1568 9.2017C84.7259 8.86539 85.3771 8.69343 86.038 8.70493H86.0372ZM86.5495 10.1684C86.2196 10.1535 85.8905 10.2091 85.5839 10.3315C85.2773 10.4539 85.0002 10.6402 84.7714 10.8781C84.3274 11.3513 84.1055 12.0025 84.1055 12.8318C84.1055 13.6611 84.3276 14.3123 84.772 14.7853C85.0008 15.0234 85.2777 15.2098 85.5845 15.3324C85.891 15.4549 86.2202 15.5106 86.55 15.4958C86.9918 15.5028 87.4268 15.3889 87.8086 15.1665C88.1819 14.9443 88.486 14.6226 88.6867 14.2373C88.9095 13.8031 89.0201 13.3202 89.0087 12.8324C89.0184 12.3471 88.9078 11.8669 88.6867 11.4347C88.4875 11.0464 88.1834 10.7218 87.8086 10.4981C87.427 10.2754 86.9918 10.1614 86.55 10.1682L86.5495 10.1684ZM97.1885 8.67659C98.1251 8.67659 98.8763 8.97905 99.442 9.58398C100.008 10.1889 100.291 11.0523 100.291 12.1741V16.8707H98.6226V12.3488C98.6226 11.6269 98.4373 11.0684 98.0666 10.6732C97.8695 10.4721 97.6317 10.3153 97.3693 10.2132C97.107 10.111 96.8258 10.0658 96.5446 10.0806C96.2488 10.0675 95.9536 10.1176 95.6786 10.2273C95.4035 10.3371 95.1549 10.5041 94.9495 10.7172C94.5495 11.1416 94.3494 11.7636 94.3494 12.5831V16.8707H92.6812V8.80731H94.3494V10.5788C94.5422 10.0021 94.9237 9.50722 95.4322 9.17392C95.9555 8.83724 96.5669 8.6638 97.189 8.67566L97.1885 8.67659Z" fill="white"/>
<path d="M5.24038 11.3292C5.2404 11.2026 5.26544 11.0772 5.31405 10.9602C5.36267 10.8433 5.4339 10.7371 5.52367 10.6478C5.61346 10.5584 5.71997 10.4877 5.83715 10.4396C5.95434 10.3916 6.07985 10.3672 6.20651 10.3677L7.80833 10.373C8.06371 10.373 8.30864 10.4744 8.48923 10.655C8.66983 10.8356 8.77129 11.0805 8.77129 11.3359V17.3926C8.95161 17.3391 9.18321 17.2821 9.43663 17.2224C9.61267 17.1811 9.76955 17.0814 9.88184 16.9397C9.99412 16.798 10.0552 16.6224 10.0552 16.4416V8.92853C10.0552 8.67311 10.1566 8.42818 10.3372 8.24756C10.5178 8.06694 10.7627 7.96544 11.0181 7.96538H12.6231C12.8785 7.96544 13.1235 8.06694 13.304 8.24756C13.4846 8.42818 13.5861 8.67311 13.5861 8.92853V15.9014C13.5861 15.9014 13.9879 15.7388 14.3794 15.5736C14.5247 15.5121 14.6488 15.4091 14.7361 15.2776C14.8234 15.146 14.87 14.9917 14.8702 14.8338V6.52113C14.8702 6.26577 14.9716 6.02087 15.1521 5.84029C15.3327 5.65969 15.5775 5.55823 15.8329 5.55817H17.4379C17.6933 5.55817 17.9382 5.65963 18.1188 5.84022C18.2994 6.0208 18.4009 6.26574 18.4009 6.52113V13.3665C19.7924 12.358 21.2025 11.1452 22.3215 9.68674C22.4839 9.47505 22.5914 9.22648 22.6342 8.96318C22.6771 8.69989 22.6542 8.43006 22.5675 8.17778C22.0495 6.68743 21.2262 5.32161 20.15 4.16776C19.0739 3.01388 17.7687 2.09737 16.318 1.47687C14.8674 0.856367 13.3031 0.545539 11.7255 0.564276C10.1478 0.583013 8.59136 0.930902 7.15585 1.58568C5.72033 2.24046 4.4373 3.1877 3.38888 4.3668C2.34046 5.5459 1.54973 6.93087 1.0673 8.43312C0.584871 9.93535 0.421359 11.5217 0.587229 13.0908C0.753098 14.6599 1.2447 16.177 2.03057 17.5452C2.16747 17.7812 2.36888 17.9732 2.61113 18.0988C2.85338 18.2243 3.12642 18.2781 3.39819 18.2538C3.70177 18.2271 4.07975 18.1893 4.52916 18.1365C4.72479 18.1143 4.90541 18.0209 5.0366 17.8741C5.1678 17.7273 5.2404 17.5373 5.24056 17.3404L5.24038 11.3292Z" fill="white"/>
<path d="M5.20557 21.0436C6.89733 22.2744 8.89662 23.0132 10.9822 23.1782C13.0678 23.343 15.1584 22.928 17.0227 21.9784C18.887 21.0289 20.4522 19.5822 21.5453 17.7984C22.6382 16.0145 23.2165 13.963 23.2159 11.8709C23.2159 11.6098 23.2038 11.3515 23.1864 11.0947C19.0431 17.2741 11.393 20.1631 5.20592 21.0427" fill="#8B8B8B"/>
</g>
</g>
</g>
</g>
</g>
<defs>
<clipPath id="clip0_62_9426">
<rect width="100" height="22.75" fill="white" transform="translate(0.5 0.529785)"/>
</clipPath>
<clipPath id="clip1_62_9426">
<rect width="100" height="22.75" fill="white" transform="translate(0.5 0.529785)"/>
</clipPath>
<clipPath id="clip2_62_9426">
<rect width="99.9508" height="22.75" fill="white" transform="translate(0.524414 0.529785)"/>
</clipPath>
</defs>
</svg>
