<svg width="46" height="53" viewBox="0 0 46 53" fill="none" xmlns="http://www.w3.org/2000/svg">
<path d="M15.201 29.6193L15.1965 29.6092C14.9269 29.0263 14.8127 28.3795 14.8665 27.7395L15.2212 23.5178C15.276 22.8688 15.5009 22.2444 15.8724 21.7096C16.2439 21.1747 16.7519 20.7462 17.3404 20.4687L21.1739 18.665C21.7624 18.3875 22.417 18.27 23.0649 18.3248C23.7138 18.3796 24.3382 18.6045 24.873 18.976L24.8764 18.9783L24.8798 18.9805L30.3614 22.3037C30.414 22.3407 30.4554 22.391 30.4822 22.4481C30.5091 22.5051 30.5203 22.5689 30.5158 22.6316L29.5793 28.9703V28.9737V28.977C29.5244 29.626 29.2995 30.2504 28.9281 30.7852C28.4592 31.4599 27.8707 31.8325 27.4589 32.0261C26.7842 32.3506 26.0983 32.6773 25.4213 32.9951C24.8272 33.2737 24.2229 33.5546 23.6266 33.8298C23.038 34.1073 22.3834 34.2248 21.7356 34.17C21.0866 34.1152 20.4622 33.8903 19.9274 33.5188L16.4486 31.1008C15.9104 30.727 15.4796 30.2157 15.2033 29.6215M15.1003 29.6674C15.3812 30.2694 15.8187 30.7986 16.3826 31.1903L19.8614 33.6083C20.9836 34.3882 22.436 34.5101 23.6724 33.9283C24.2722 33.653 24.8708 33.3744 25.4672 33.0936C26.1486 32.7736 26.8278 32.4502 27.5059 32.1246C27.8147 31.9791 28.485 31.6132 29.0176 30.8468C29.3946 30.3052 29.6307 29.6652 29.6878 28.9849L30.6244 22.6428C30.6311 22.5577 30.6154 22.4749 30.5807 22.4C30.546 22.325 30.4912 22.2579 30.4196 22.2086L24.9346 18.8843C23.8123 18.1044 22.3599 17.9824 21.1235 18.5643L17.2901 20.368C16.0536 20.9498 15.2223 22.146 15.107 23.5077L14.7523 27.7294C14.6953 28.4019 14.8183 29.0632 15.0925 29.6551C15.0947 29.6585 15.0958 29.6618 15.0981 29.6663L15.1003 29.6674Z" fill="url(#paint0_linear_1297_9827)"/>
<path d="M14.4252 28.996L14.4207 28.9848C14.1991 28.3426 14.1466 27.6511 14.2719 26.9831L15.0921 22.579C15.2185 21.902 15.5217 21.2687 15.9682 20.7462C16.4157 20.2236 16.9954 19.8264 17.6443 19.597L21.8683 18.1055C22.5173 17.8761 23.2177 17.8224 23.8936 17.9477C24.5705 18.0742 25.2038 18.3774 25.7264 18.8238L25.7286 18.8261L25.732 18.8283L31.1465 22.9046C31.1968 22.9493 31.236 23.0064 31.2584 23.0702C31.2807 23.134 31.2863 23.2011 31.274 23.266L29.618 29.8352V29.8386L29.6169 29.8419C29.4904 30.5189 29.1872 31.1522 28.7408 31.6748C28.1757 32.3349 27.5178 32.6639 27.0646 32.8239C26.3205 33.0936 25.5652 33.3643 24.8178 33.6273C24.1632 33.8578 23.4986 34.0894 22.8406 34.3143C22.1917 34.5437 21.4912 34.5974 20.8154 34.4721C20.1384 34.3456 19.5051 34.0424 18.9826 33.596L15.5788 30.6834C15.0529 30.2336 14.6534 29.6495 14.4252 28.996ZM14.3133 29.0352C14.5449 29.6987 14.9488 30.3007 15.5016 30.774L18.9054 33.6866C20.003 34.6254 21.5181 34.9085 22.8798 34.4273C23.54 34.2013 24.199 33.9719 24.857 33.7403C25.6078 33.4762 26.3563 33.2077 27.1049 32.9369C27.445 32.8172 28.1891 32.5028 28.8303 31.7531C29.2846 31.2227 29.6012 30.5748 29.7333 29.8654L31.3904 23.2928C31.4072 23.2044 31.3993 23.1149 31.3702 23.0333C31.3412 22.9516 31.2908 22.8744 31.2214 22.8151L25.8036 18.7366C24.7059 17.7978 23.1909 17.5147 21.8291 17.9958L17.6052 19.4874C16.2434 19.9685 15.2409 21.1389 14.9768 22.5588L14.1566 26.9629C14.0257 27.6645 14.085 28.3739 14.3099 29.0251C14.311 29.0296 14.3122 29.033 14.3144 29.0374L14.3133 29.0352Z" fill="url(#paint1_linear_1297_9827)"/>
<path d="M13.6733 28.2574L13.67 28.2451C13.5044 27.5458 13.5234 26.8129 13.7248 26.1236L15.0541 21.5774C15.2589 20.8792 15.6449 20.2448 16.1708 19.7424C16.6967 19.24 17.3479 18.883 18.0551 18.7107L22.6561 17.5895C23.3633 17.4172 24.1051 17.434 24.8033 17.6388C25.5015 17.8435 26.136 18.2296 26.6384 18.7555L26.6406 18.7588L26.644 18.7611L31.9074 23.6228C31.9567 23.6743 31.9913 23.7392 32.007 23.8086C32.0227 23.8779 32.0215 23.9484 32.0025 24.0167L29.5644 30.7515V30.7549L29.5621 30.7582C29.3574 31.4564 28.9713 32.0909 28.4454 32.5933C27.7808 33.2277 27.0535 33.5041 26.56 33.6249C25.7488 33.8297 24.9253 34.0345 24.1118 34.2325C23.3991 34.4059 22.6751 34.5783 21.9601 34.7461C21.253 34.9184 20.5111 34.9016 19.8129 34.6969C19.1147 34.4921 18.4803 34.1061 17.9779 33.5802L14.7061 30.1562C14.2003 29.627 13.8423 28.9702 13.6711 28.2585M13.5525 28.2865C13.7259 29.0082 14.0873 29.6852 14.6177 30.2413L17.8895 33.6652C18.9446 34.7696 20.5078 35.2272 21.9926 34.8658C22.7109 34.698 23.4282 34.5268 24.1443 34.3522C24.9622 34.1531 25.7779 33.9505 26.5936 33.7447C26.9651 33.654 27.7808 33.4034 28.535 32.6828C29.0687 32.1726 29.4704 31.5247 29.6852 30.7918L32.1245 24.0536C32.1513 23.9618 32.1525 23.8679 32.1312 23.7783C32.1099 23.6888 32.0641 23.6027 31.9981 23.5333L26.7312 18.6693C25.6761 17.5649 24.1129 17.1073 22.6281 17.4687L18.0271 18.5899C16.5434 18.9513 15.3651 20.0769 14.9366 21.5427L13.6073 26.0889C13.3958 26.8129 13.3824 27.5648 13.5502 28.2742C13.5502 28.2787 13.5525 28.2832 13.5536 28.2876L13.5525 28.2865Z" fill="url(#paint2_linear_1297_9827)"/>
<path d="M12.9642 27.4013L12.962 27.3878C12.8624 26.6348 12.9597 25.865 13.2451 25.1612L15.1249 20.5199C15.4136 19.8071 15.8869 19.1805 16.4933 18.7072C17.0998 18.2339 17.8226 17.9284 18.5846 17.8221L23.5437 17.1306C24.3057 17.0243 25.0845 17.1205 25.7972 17.4092C26.51 17.6979 27.1366 18.1712 27.6099 18.7777L27.6121 18.781L27.6144 18.7844L32.6361 24.4562C32.682 24.5167 32.7111 24.5872 32.7223 24.6621C32.7335 24.7371 32.7223 24.8109 32.6954 24.8803L29.417 31.7058L29.4147 31.7092V31.7125C29.1238 32.4253 28.6516 33.0519 28.044 33.5252C27.2776 34.1227 26.4831 34.3364 25.9516 34.4103C25.0766 34.54 24.1882 34.6676 23.3121 34.7896C22.5434 34.8959 21.7635 35.001 20.9937 35.1018C20.2317 35.208 19.4529 35.1118 18.7401 34.8231C18.0274 34.5345 17.4008 34.0611 16.9275 33.4547L13.8482 29.506C13.3726 28.895 13.0649 28.1677 12.9609 27.4002M12.8333 27.4181C12.9396 28.1957 13.2473 28.9465 13.7475 29.5865L16.8268 33.5352C17.8193 34.8086 19.416 35.4553 21.0149 35.2327C21.7881 35.132 22.5613 35.0279 23.3333 34.9205C24.2139 34.7985 25.0945 34.6721 25.974 34.5412C26.3735 34.4852 27.2586 34.3073 28.128 33.6292C28.7434 33.1492 29.2346 32.5103 29.5378 31.7629L32.8185 24.9329C32.8566 24.84 32.8677 24.7405 32.8543 24.6442C32.8409 24.548 32.8029 24.4529 32.7402 24.3723L27.7151 18.6982C26.7226 17.4249 25.1259 16.7781 23.5269 17.0008L18.5678 17.6923C16.9689 17.915 15.6105 18.9746 15.004 20.4706L13.1242 25.1119C12.8243 25.8504 12.7315 26.6415 12.8333 27.4046C12.8333 27.4091 12.8344 27.4136 12.8355 27.4192L12.8333 27.4181Z" fill="url(#paint3_linear_1297_9827)"/>
<path d="M12.3073 26.4243V26.4097C12.2815 25.6075 12.4662 24.8074 12.8399 24.098L15.3094 19.4153C15.6887 18.6958 16.2526 18.0871 16.9408 17.6541C17.6289 17.2211 18.4222 16.9749 19.2346 16.9447L24.5249 16.7422C25.3372 16.7108 26.1473 16.8955 26.8668 17.2748C27.5863 17.6541 28.195 18.218 28.628 18.9062L28.6302 18.9095L28.6325 18.9129L33.3152 25.4105C33.3566 25.4788 33.3812 25.556 33.3834 25.6366C33.3857 25.7171 33.3689 25.7932 33.332 25.8637L29.1606 32.697L29.1584 32.7004L29.1561 32.7037C28.7768 33.4232 28.2129 34.0319 27.5247 34.4649C26.6553 35.0121 25.7971 35.1531 25.2298 35.1743C24.2955 35.218 23.3478 35.2582 22.4123 35.294C21.5922 35.3254 20.7608 35.3533 19.9406 35.3768C19.1283 35.4082 18.3182 35.2235 17.5987 34.8442C16.8792 34.4649 16.2705 33.901 15.8375 33.2128L13.0167 28.7326C12.5803 28.04 12.3352 27.2411 12.3062 26.4232M12.1685 26.4299C12.1976 27.259 12.4427 28.0814 12.9003 28.8087L15.7211 33.2889C16.6308 34.7335 18.2421 35.5827 19.9473 35.5178C20.7709 35.4932 21.5955 35.4664 22.419 35.435C23.3589 35.3992 24.2977 35.3601 25.2376 35.3153C25.6639 35.2985 26.6139 35.2056 27.6008 34.5846C28.299 34.1449 28.8831 33.525 29.2814 32.7697L33.4562 25.9331C33.5054 25.8391 33.5289 25.735 33.5244 25.6332C33.52 25.5314 33.4897 25.4262 33.4327 25.3356L28.7477 18.8335C27.838 17.3889 26.2268 16.5396 24.5215 16.6045L19.2312 16.8071C17.526 16.872 15.9841 17.8432 15.1874 19.3526L12.7179 24.0354C12.3252 24.7806 12.1428 25.6019 12.1685 26.4164C12.1685 26.4209 12.1685 26.4265 12.1685 26.431V26.4299Z" fill="url(#paint4_linear_1297_9827)"/>
<path d="M11.7184 25.3281V25.3124C11.7777 24.4654 12.0563 23.6441 12.5251 22.9369L15.619 18.2721C16.0945 17.556 16.7524 16.9742 17.5223 16.5915C18.2921 16.2088 19.1525 16.0343 20.0108 16.088L25.5976 16.4348C26.4558 16.4886 27.2883 16.7672 28.0044 17.2427C28.7205 17.7183 29.3024 18.3762 29.685 19.146L29.6873 19.1505L29.6895 19.155L33.9269 26.4862C33.9638 26.5623 33.9806 26.6462 33.975 26.7301C33.9694 26.814 33.9426 26.8935 33.8978 26.964L28.7854 33.71L28.7832 33.7134L28.7809 33.7167C28.3054 34.4328 27.6475 35.0147 26.8776 35.3974C25.9053 35.8807 24.9878 35.9378 24.388 35.9009C23.4 35.8483 22.3997 35.7901 21.4117 35.7286C20.5456 35.6737 19.6684 35.6155 18.8023 35.554C17.9441 35.5003 17.1116 35.2217 16.3955 34.7461C15.6794 34.2706 15.0975 33.6127 14.7149 32.8428L12.2219 27.8311C11.837 27.0568 11.6624 26.1908 11.7195 25.327M11.5707 25.3191C11.5136 26.1953 11.6837 27.0859 12.0887 27.8983L14.5817 32.91C15.3851 34.5257 16.9897 35.5898 18.7911 35.7028C19.6605 35.7644 20.5299 35.8226 21.4005 35.8774C22.393 35.94 23.3855 35.9971 24.3779 36.0497C24.8278 36.0777 25.837 36.0799 26.9414 35.5305C27.7224 35.1422 28.4027 34.5514 28.9018 33.7995L34.0175 27.049C34.0802 26.955 34.1149 26.8487 34.1216 26.7402C34.1283 26.6305 34.107 26.5186 34.0567 26.4168L29.8171 19.0811C29.0137 17.4654 27.4091 16.4013 25.6077 16.2883L20.0208 15.9414C18.2194 15.8295 16.4951 16.6866 15.4981 18.1904L12.4043 22.8553C11.9119 23.5982 11.6333 24.443 11.574 25.3024C11.574 25.308 11.574 25.3124 11.574 25.318L11.5707 25.3191Z" fill="url(#paint5_linear_1297_9827)"/>
<path d="M11.2163 24.113L11.2186 24.0973C11.3696 23.2122 11.75 22.3786 12.3185 21.6838L16.0669 17.1051C16.6431 16.4013 17.3962 15.8597 18.2466 15.5386C19.0969 15.2175 20.0201 15.1257 20.9174 15.2723L26.7571 16.229C27.6545 16.3755 28.5004 16.7582 29.2031 17.3334C29.9069 17.9096 30.4485 18.6626 30.7696 19.513L30.7719 19.5175L30.7741 19.522L34.4543 27.6835C34.4845 27.7674 34.4934 27.858 34.4789 27.9453C34.4643 28.0326 34.4274 28.1142 34.3726 28.1825L28.28 34.7372L28.2766 34.7406L28.2733 34.7439C27.697 35.4477 26.944 35.9893 26.0936 36.3104C25.0194 36.7166 24.0482 36.6797 23.4216 36.5767C22.3888 36.4167 21.3415 36.25 20.3099 36.0799C19.4046 35.9311 18.4882 35.7767 17.5841 35.62C16.6868 35.4735 15.8409 35.0908 15.1382 34.5156C14.4344 33.9394 13.8928 33.1864 13.5717 32.336L11.4804 26.8006C11.157 25.9446 11.0664 25.0148 11.2174 24.113M11.063 24.0872C10.9097 25.0025 10.9948 25.9569 11.3349 26.8554L13.4262 32.3908C14.1009 34.1755 15.6753 35.4656 17.5584 35.7744C18.4659 35.9311 19.3756 36.0844 20.2841 36.2343C21.3214 36.4044 22.3597 36.5711 23.3981 36.7311C23.8692 36.8083 24.9299 36.9169 26.1496 36.457C27.0123 36.1314 27.791 35.582 28.3953 34.8435L34.4912 28.2843C34.5662 28.1926 34.6143 28.084 34.6333 27.971C34.6523 27.858 34.6422 27.736 34.5997 27.6242L30.9173 19.4582C30.2426 17.6735 28.6683 16.3834 26.7851 16.0746L20.9454 15.1179C19.0623 14.809 17.1578 15.5285 15.9494 17.0055L12.201 21.5842C11.6046 22.3137 11.2219 23.1719 11.0686 24.0704C11.0686 24.076 11.0664 24.0816 11.0664 24.0872H11.063Z" fill="url(#paint6_linear_1297_9827)"/>
<path d="M10.8137 22.78L10.8181 22.7633C11.071 21.8491 11.5589 21.011 12.2302 20.3408L16.6589 15.921C17.3393 15.2418 18.1896 14.7528 19.1184 14.5044C20.0471 14.2572 21.0284 14.2572 21.956 14.5078L27.9971 16.1336C28.9247 16.3831 29.7739 16.8743 30.4531 17.5546C31.1323 18.2349 31.6213 19.0853 31.8697 20.014V20.0185L31.873 20.023L34.8807 28.9979C34.9042 29.0897 34.9031 29.1859 34.8785 29.2766C34.8539 29.3672 34.8069 29.4489 34.7409 29.5149L27.6379 35.7652L27.6345 35.7686L27.6312 35.7719C26.9509 36.4511 26.1005 36.9401 25.1718 37.1885C23.9991 37.5018 22.9809 37.3597 22.333 37.1852C21.2633 36.9077 20.1791 36.6201 19.1116 36.3325C18.1751 36.0797 17.2274 35.8201 16.2931 35.5605C15.3655 35.3109 14.5162 34.8197 13.837 34.1394C13.1578 33.4591 12.6688 32.6087 12.4204 31.68L10.8069 25.6356C10.5574 24.7012 10.5597 23.7132 10.8148 22.78M10.6559 22.7375C10.3974 23.6841 10.3862 24.6979 10.648 25.6781L12.2615 31.7225C12.7818 33.6717 14.3025 35.1957 16.2505 35.7194C17.1893 35.9812 18.1292 36.2385 19.0691 36.4914C20.1422 36.7812 21.2163 37.0654 22.2916 37.344C22.7784 37.475 23.8828 37.7021 25.2143 37.3474C26.1564 37.0956 27.0337 36.6011 27.7475 35.8883L34.855 29.6346C34.9434 29.5462 35.006 29.4366 35.0374 29.3202C35.0687 29.2038 35.0709 29.074 35.0374 28.9521L32.0286 19.9726C31.5083 18.0235 29.9876 16.4995 28.0396 15.9758L21.9985 14.35C20.0504 13.8264 17.9703 14.3814 16.5426 15.8058L12.1138 20.2255C11.4089 20.9293 10.9155 21.792 10.6592 22.7207C10.6581 22.7263 10.6559 22.7319 10.6548 22.7375H10.6559Z" fill="url(#paint7_linear_1297_9827)"/>
<path d="M10.5366 21.3371L10.5433 21.3203C10.9059 20.3848 11.5079 19.5557 12.2855 18.9213L17.4125 14.741C18.2002 14.0987 19.1468 13.6735 20.1494 13.5113C21.1519 13.349 22.1847 13.4542 23.1347 13.8145L29.3179 16.1642C30.2678 16.5257 31.1093 17.1321 31.7516 17.9198C32.3938 18.7076 32.819 19.6542 32.9813 20.6567V20.6623L32.9835 20.6679L35.1967 30.4272C35.2113 30.5257 35.2012 30.6264 35.1654 30.7204C35.1296 30.8122 35.0714 30.8938 34.9964 30.9565L26.8618 36.7783L26.8573 36.7816L26.8529 36.785C26.0651 37.4273 25.1185 37.8525 24.116 38.0147C22.8493 38.2195 21.7931 37.9632 21.1295 37.7104C20.033 37.3053 18.9241 36.8879 17.8309 36.4728C16.8731 36.1081 15.903 35.7343 14.9475 35.3617C13.9975 35.0003 13.156 34.3939 12.5138 33.6061C11.8715 32.8184 11.4463 31.8718 11.2841 30.8692L10.2278 24.3391C10.0644 23.3299 10.1719 22.2915 10.5377 21.3371M10.3744 21.2755C10.0029 22.2434 9.88317 23.3086 10.0544 24.3682L11.1106 30.8983C11.4508 33.0041 12.8897 34.7676 14.8837 35.5251C15.8437 35.8999 16.8049 36.2703 17.7672 36.6362C18.8648 37.0547 19.9647 37.4676 21.0669 37.8748C21.5648 38.0639 22.7028 38.4198 24.1417 38.187C25.1588 38.0225 26.1345 37.5951 26.9603 36.9204L35.0994 31.0952C35.2023 31.0113 35.2795 30.9028 35.3254 30.7831C35.3724 30.6622 35.387 30.5279 35.3657 30.3959L33.1513 20.631C32.8112 18.5252 31.3722 16.7617 29.3783 16.0042L23.1951 13.6545C21.2012 12.897 18.9543 13.2606 17.3017 14.6078L12.1747 18.7881C11.3579 19.4539 10.7481 20.3099 10.38 21.2587C10.3777 21.2643 10.3755 21.2699 10.3733 21.2766L10.3744 21.2755Z" fill="url(#paint8_linear_1297_9827)"/>
<path d="M10.3954 19.7894L10.4043 19.7726C10.8844 18.8271 11.6061 18.0181 12.4911 17.434L18.3264 13.5804C19.2226 12.9885 20.2632 12.6416 21.3352 12.5767C22.4071 12.5119 23.4824 12.7323 24.4424 13.2123L30.6984 16.3386C31.6595 16.8186 32.4797 17.547 33.0716 18.4433C33.6635 19.3396 34.0104 20.3802 34.0753 21.4521V21.4577V21.4633L35.3688 31.9645C35.3744 32.0696 35.352 32.1748 35.305 32.2688C35.258 32.3628 35.1875 32.4411 35.1014 32.4993L25.9284 37.7616L25.9239 37.765L25.9194 37.7684C25.0232 38.3603 23.9826 38.7071 22.9106 38.772C21.5556 38.8537 20.4725 38.471 19.8011 38.1354C18.6911 37.5927 17.5677 37.0366 16.4622 36.4838C15.4932 35.9982 14.513 35.5025 13.5463 35.0091C12.5851 34.529 11.765 33.8006 11.173 32.9044C10.5811 32.0081 10.2343 30.9675 10.1694 29.8956L9.74976 22.9145C9.68486 21.8348 9.90753 20.7539 10.3943 19.7894M10.2309 19.7066C9.73745 20.6856 9.49912 21.7934 9.56738 22.9257L9.98698 29.9067C10.1224 32.158 11.4483 34.1654 13.4657 35.1736C14.4358 35.6692 15.4071 36.1604 16.3817 36.6483C17.4928 37.2044 18.6061 37.7549 19.7217 38.301C20.2263 38.5527 21.3855 39.0484 22.9229 38.9555C24.0105 38.8906 25.0813 38.5438 26.0224 37.9216L35.201 32.656C35.3184 32.5788 35.4102 32.4736 35.4717 32.3516C35.5333 32.2296 35.5635 32.0898 35.5545 31.9477L34.2599 21.4409C34.1245 19.1896 32.7986 17.1823 30.7812 16.1741L24.5252 13.0478C22.5078 12.0397 20.1066 12.184 18.2245 13.4271L12.3893 17.2807C11.4606 17.8939 10.7277 18.7297 10.2399 19.6898C10.2365 19.6954 10.2343 19.7021 10.2309 19.7077V19.7066Z" fill="url(#paint9_linear_1297_9827)"/>
<path d="M10.4121 18.1457L10.4233 18.1289C11.0286 17.1857 11.8734 16.4114 12.8659 15.8899L19.4128 12.4537C20.4187 11.9256 21.5499 11.6716 22.6845 11.7175C23.8191 11.7633 24.9269 12.108 25.8869 12.7155L32.1361 16.6676C33.0962 17.2752 33.8828 18.1267 34.4098 19.1326C34.9379 20.1385 35.1919 21.2698 35.146 22.4044V22.41V22.4156L35.3944 33.5981C35.3889 33.7089 35.3542 33.8175 35.2949 33.9114C35.2356 34.0054 35.1539 34.0804 35.0565 34.133L24.8496 38.6971L24.8441 38.6993L24.8385 38.7027C23.8325 39.2308 22.7013 39.4848 21.5667 39.439C20.1334 39.3808 19.0346 38.8649 18.3632 38.4398C17.2532 37.7516 16.1298 37.0478 15.0266 36.3485C14.0587 35.7353 13.0796 35.1098 12.1162 34.4888C11.1562 33.8812 10.3696 33.0297 9.84255 32.0238C9.31442 31.0179 9.06042 29.8866 9.1063 28.7521L9.40393 21.3638C9.44981 20.2213 9.79891 19.108 10.4132 18.1435M10.2476 18.0417C9.62436 19.0196 9.25623 20.1598 9.20812 21.3582L8.91048 28.7465C8.81426 31.1287 9.99696 33.3811 12.011 34.6555C12.9789 35.2799 13.949 35.8998 14.9214 36.5152C16.0314 37.2179 17.1436 37.915 18.2603 38.6076C18.7638 38.9265 19.9308 39.5699 21.5578 39.6348C22.7091 39.6806 23.8717 39.43 24.928 38.8761L35.1416 34.3087C35.2736 34.2393 35.381 34.1386 35.4582 34.0177C35.5354 33.8969 35.5824 33.7526 35.588 33.6015L35.3396 22.4122C35.4358 20.03 34.2531 17.7776 32.2391 16.5031L25.9898 12.5511C23.9746 11.2766 21.4336 11.1748 19.3221 12.2825L12.7753 15.7188C11.7324 16.2659 10.8731 17.0671 10.2588 18.0249C10.2554 18.0305 10.251 18.0372 10.2476 18.0428V18.0417Z" fill="url(#paint10_linear_1297_9827)"/>
<path d="M10.6015 16.4177L10.615 16.4009C11.3512 15.4722 12.3225 14.7471 13.4213 14.3041L20.6719 11.3836C21.7853 10.935 23.0027 10.7873 24.1921 10.9551C25.3815 11.1229 26.5094 11.6041 27.4549 12.3437L33.6101 17.1629C34.5556 17.9037 35.2919 18.8827 35.7406 19.9972C36.1892 21.1105 36.3369 22.3279 36.1691 23.5173V23.524L36.168 23.5308L35.2449 35.3209C35.227 35.4373 35.18 35.5481 35.1061 35.6398C35.0323 35.7316 34.9394 35.8032 34.832 35.8468L23.6114 39.5673L23.6058 39.5695L23.6002 39.5717C22.4868 40.0204 21.2694 40.1681 20.08 40.0003C18.5784 39.7877 17.4774 39.1275 16.8161 38.6106C15.7207 37.7691 14.6152 36.9098 13.5276 36.0572C12.5742 35.3097 11.6108 34.5477 10.6631 33.7925C9.71759 33.0517 8.98134 32.0727 8.53265 30.9582C8.08396 29.8449 7.93626 28.6275 8.1041 27.4381L9.19953 19.6984C9.36849 18.5023 9.8541 17.3677 10.6027 16.4188M10.4404 16.2913C9.68179 17.2536 9.17379 18.4139 8.99588 19.6693L7.90045 27.409C7.54687 29.9042 8.55167 32.3994 10.5367 33.9536C11.4889 34.7122 12.4433 35.4675 13.4011 36.2183C14.4943 37.0754 15.5909 37.9269 16.6908 38.7728C17.1865 39.1611 18.3468 39.9622 20.0509 40.2028C21.2571 40.374 22.507 40.2319 23.6762 39.762L34.9036 36.0393C35.0491 35.9811 35.1733 35.886 35.2672 35.7663C35.3612 35.6465 35.4261 35.5 35.4485 35.3433L36.3716 23.5464C36.7252 21.0512 35.7204 18.556 33.7354 17.0018L27.5802 12.1826C25.5952 10.6284 22.9322 10.2513 20.5947 11.1934L13.344 14.1138C12.1893 14.5793 11.2013 15.3312 10.4527 16.2734C10.4483 16.279 10.4438 16.2846 10.4393 16.2913H10.4404Z" fill="url(#paint11_linear_1297_9827)"/>
<path d="M10.9862 14.6219L11.0019 14.6051C11.8758 13.7066 12.9734 13.0465 14.1763 12.6973L22.1129 10.3935C23.3325 10.0399 24.6282 10.013 25.8613 10.3151C27.0943 10.6184 28.2301 11.2427 29.1465 12.1222L35.1104 17.8433C36.0268 18.7217 36.6981 19.8305 37.0517 21.0502C37.4053 22.2698 37.4321 23.5655 37.13 24.7986V24.8053L37.1267 24.812L34.9067 37.1169C34.8754 37.2377 34.8138 37.3485 34.7277 37.438C34.6415 37.5275 34.5352 37.5913 34.4177 37.6271L22.2203 40.3517H22.2136L22.2069 40.3551C20.9872 40.7086 19.6915 40.7355 18.4584 40.4334C16.9009 40.0507 15.8122 39.2395 15.1721 38.6252C14.1092 37.6238 13.0361 36.6033 11.9832 35.5907C11.059 34.7033 10.1269 33.8004 9.20936 32.9041C8.29296 32.0257 7.6216 30.9169 7.26802 29.6973C6.91443 28.4776 6.88758 27.1819 7.18969 25.9488L9.16237 17.9227C9.46783 16.6819 10.0978 15.5405 10.9851 14.6208M10.8296 14.4708C9.92883 15.4029 9.27202 16.57 8.95201 17.8713L6.97933 25.8974C6.34266 28.4855 7.13598 31.2156 9.05942 33.0608C9.9803 33.9593 10.9045 34.8555 11.8333 35.7462C12.8918 36.7633 13.9559 37.7748 15.0233 38.7819C15.5045 39.2428 16.6391 40.2085 18.407 40.6426C19.6579 40.9503 20.9872 40.9336 22.2673 40.5621L34.4726 37.8352C34.6315 37.7894 34.7736 37.7021 34.8843 37.5868C34.9974 37.4705 35.079 37.3239 35.1193 37.1605L37.3404 24.8489C37.9759 22.2608 37.1837 19.5307 35.2603 17.6855L29.2964 11.9644C27.373 10.1193 24.6126 9.44126 22.0524 10.1842L14.1159 12.4881C12.8526 12.8551 11.7325 13.541 10.8464 14.4529C10.8408 14.4585 10.8352 14.4641 10.8296 14.4697V14.4708Z" fill="url(#paint12_linear_1297_9827)"/>
<path d="M11.5785 12.7729L11.5965 12.7573C12.6102 11.9046 13.8354 11.3261 15.1379 11.0867L23.7313 9.50341C25.0516 9.2606 26.4178 9.36914 27.6822 9.81895C28.9466 10.2688 30.0756 11.0453 30.9461 12.0669L36.6135 18.7167C37.484 19.7383 38.0726 20.9758 38.3165 22.2961C38.5593 23.6165 38.4508 24.9827 38.001 26.2471L37.9987 26.2538L37.9965 26.2605L34.3577 38.9693C34.313 39.0924 34.2358 39.2032 34.1351 39.2882C34.0344 39.3733 33.9158 39.4292 33.7882 39.4538L20.6687 41.0282H20.662L20.6553 41.0304C19.335 41.2732 17.9688 41.1647 16.7044 40.7149C15.1065 40.1476 14.0469 39.1786 13.4393 38.4647C12.4278 37.2988 11.4074 36.1105 10.4059 34.9356C9.52867 33.905 8.64247 32.8555 7.77307 31.816C6.90254 30.7944 6.31398 29.5569 6.07005 28.2365C5.82725 26.9162 5.93578 25.55 6.38559 24.2856L9.31048 16.0525C9.76252 14.7792 10.5469 13.6457 11.5774 12.7718M11.4308 12.5973C10.3846 13.4823 9.57007 14.6404 9.09564 15.9753L6.17076 24.2095C5.2275 26.8647 5.77242 29.8209 7.59963 31.9648C8.47352 33.0077 9.35076 34.0483 10.2325 35.0844C11.2384 36.266 12.2499 37.4431 13.267 38.6157C13.7235 39.1517 14.8156 40.2874 16.6294 40.9319C17.9128 41.3873 19.3137 41.5115 20.699 41.2564L33.8262 39.681C33.9986 39.6496 34.1563 39.5724 34.2861 39.4628C34.417 39.352 34.5189 39.2065 34.5793 39.0398L38.2203 26.3243C39.1635 23.6691 38.6186 20.7129 36.7914 18.569L31.124 11.9192C29.2968 9.77531 26.4637 8.76827 23.6932 9.2785L15.0998 10.8618C13.7314 11.1136 12.4815 11.7167 11.4521 12.5827C11.4454 12.5883 11.4398 12.5939 11.4331 12.5984L11.4308 12.5973Z" fill="url(#paint13_linear_1297_9827)"/>
<path d="M12.4002 10.8895L12.4215 10.8749C13.5784 10.085 14.9279 9.6072 16.3243 9.49307L25.532 8.73779C26.9463 8.62142 28.3718 8.88102 29.6541 9.48748C30.9364 10.0939 32.0419 11.0316 32.8498 12.1986L38.1076 19.7951C38.9155 20.9621 39.4034 22.3261 39.5197 23.7404C39.6361 25.1547 39.3765 26.5803 38.77 27.8626L38.7667 27.8693L38.7633 27.876L33.5894 40.8589C33.529 40.9842 33.4361 41.0917 33.322 41.1711C33.2078 41.2506 33.0769 41.2964 32.9404 41.3087L18.9728 41.575H18.965H18.9571C17.5428 41.6914 16.1173 41.4318 14.835 40.8254C13.2148 40.0589 12.2033 38.9277 11.6382 38.1131C10.6972 36.7793 9.74946 35.422 8.82186 34.0793C8.00728 32.9022 7.18711 31.705 6.3826 30.5189C5.57473 29.3518 5.08687 27.9879 4.97051 26.5735C4.85414 25.1592 5.11373 23.7337 5.72019 22.4514L9.67001 14.0997C10.2809 12.8085 11.2253 11.6985 12.4024 10.8895M12.2626 10.6903C11.0687 11.5105 10.0885 12.6417 9.44847 13.9968L5.49864 22.3485C4.2253 25.0417 4.48489 28.2094 6.18007 30.6588C6.98794 31.8493 7.8014 33.0354 8.61934 34.2192C9.55253 35.5686 10.4913 36.9147 11.4379 38.2552C11.862 38.8672 12.8903 40.1775 14.7287 41.0469C16.03 41.6623 17.4902 41.9409 18.975 41.819L32.9516 41.5527C33.1362 41.537 33.3108 41.4743 33.4585 41.3725C33.6062 41.2707 33.7315 41.1275 33.8109 40.9585L38.9882 27.9677C40.2616 25.2745 40.002 22.1068 38.3068 19.6574L33.0489 12.061C31.3538 9.61168 28.4804 8.2533 25.5118 8.4961L16.3042 9.25138C14.8384 9.37111 13.4587 9.87351 12.285 10.6758C12.2782 10.6803 12.2704 10.6859 12.2637 10.6903H12.2626Z" fill="url(#paint14_linear_1297_9827)"/>
<path d="M13.4616 8.99604L13.4851 8.98261C14.7853 8.27433 16.2556 7.91403 17.737 7.942L27.5031 8.12327C29.0036 8.15124 30.4749 8.57532 31.7606 9.3485C33.0463 10.1228 34.1092 11.2261 34.8343 12.5386L39.5607 21.0861C40.2868 22.3986 40.6561 23.8856 40.6281 25.3861C40.6002 26.8866 40.1761 28.358 39.4029 29.6437L39.3984 29.6504L39.3951 29.6571L32.5774 42.7665C32.5002 42.8918 32.3917 42.9959 32.263 43.0663C32.1343 43.1368 31.9922 43.1726 31.8468 43.1704L17.125 41.9709H17.1172H17.1093C15.6088 41.9429 14.1374 41.5189 12.8518 40.7457C11.2282 39.7677 10.2839 38.4709 9.77697 37.5534C8.92883 36.0507 8.07508 34.5222 7.24148 33.0116C6.5097 31.6868 5.77344 30.3408 5.05173 29.0081C4.32555 27.6956 3.9563 26.2085 3.98427 24.7081C4.01225 23.2076 4.43632 21.7362 5.2095 20.4505L10.2492 12.0843C11.0279 10.7908 12.1402 9.72334 13.4639 8.99716M13.3385 8.77113C11.9958 9.50739 10.8456 10.5939 10.0276 11.9511L4.98795 20.3174C3.36327 23.0151 3.30061 26.3753 4.82459 29.1312C5.54854 30.4683 6.27808 31.8032 7.01322 33.1347C7.8513 34.6531 8.69721 36.1681 9.54983 37.6787C9.93027 38.368 10.8735 39.855 12.7164 40.965C14.02 41.7505 15.5272 42.1981 17.1015 42.2271L31.8322 43.4278C32.028 43.4311 32.2182 43.383 32.3838 43.2913C32.5517 43.1984 32.696 43.063 32.799 42.8929L39.6211 29.7757C41.2458 27.0779 41.3084 23.7178 39.7845 20.9619L35.0581 12.4144C33.5341 9.65844 30.6562 7.9241 27.5064 7.86592L17.7404 7.68465C16.1851 7.65556 14.6812 8.03823 13.3609 8.75659C13.3531 8.76106 13.3452 8.76554 13.3363 8.77001L13.3385 8.77113Z" fill="url(#paint15_linear_1297_9827)"/>
<path d="M14.7813 7.11718L14.807 7.10599C16.2504 6.49841 17.8349 6.27574 19.3902 6.46149L29.644 7.68671C31.2195 7.87469 32.7222 8.47668 33.9922 9.42665C35.2622 10.3766 36.2636 11.65 36.888 13.1079L40.9542 22.5998C41.5786 24.0578 41.8091 25.6612 41.6211 27.2355C41.4331 28.811 40.8311 30.3137 39.8811 31.5837L39.8755 31.5904L39.8711 31.5971L31.3101 44.6651C31.2161 44.7893 31.0908 44.8867 30.9476 44.9471C30.8044 45.0075 30.6511 45.0299 30.4989 45.0131L15.1393 42.1912H15.1315L15.1226 42.1889C13.5471 42.001 12.0444 41.399 10.7744 40.449C9.16986 39.2484 8.31387 37.7837 7.87749 36.7655C7.14459 35.0949 6.40834 33.3964 5.6911 31.7191C5.06226 30.2477 4.43007 28.7539 3.81242 27.2758C3.18805 25.8179 2.95755 24.2144 3.14554 22.6401C3.33352 21.0646 3.9355 19.5619 4.88547 18.2919L11.0732 10.0242C12.0298 8.74634 13.3121 7.74042 14.7813 7.11718ZM14.675 6.86766C13.1846 7.49985 11.8586 8.52144 10.855 9.86192L4.66728 18.1297C2.67223 20.795 2.25039 24.323 3.56178 27.3832C4.18166 28.8669 4.80827 30.3484 5.44046 31.8265C6.16217 33.5127 6.8906 35.1956 7.62797 36.8751C7.95582 37.6405 8.78942 39.3043 10.611 40.6672C11.8989 41.6317 13.4375 42.2617 15.0901 42.4597L30.4586 45.2828C30.6645 45.3074 30.8693 45.2761 31.0539 45.1977C31.2385 45.1194 31.4064 44.9907 31.5328 44.8229L40.0982 31.7471C42.0933 29.0818 42.5151 25.5538 41.2037 22.4935L37.1375 13.0016C35.8261 9.94136 32.9818 7.81204 29.6754 7.41705L19.4215 6.19182C17.789 5.99713 16.1665 6.23882 14.7018 6.85535C14.6929 6.85871 14.6839 6.86318 14.675 6.86654V6.86766Z" fill="url(#paint16_linear_1297_9827)"/>
<path d="M16.3648 5.28043L16.3939 5.27148C17.9761 4.78586 19.6668 4.71873 21.2825 5.07902L31.9392 7.45339C33.5762 7.81816 35.0946 8.61036 36.3288 9.74496C37.5641 10.8796 38.4827 12.3241 38.9851 13.9242L42.2569 24.3403C42.7593 25.9404 42.832 27.6512 42.4672 29.2882C42.1024 30.9252 41.3102 32.4436 40.1756 33.6778L40.17 33.6845L40.1645 33.6912L29.7752 46.5309C29.6633 46.6506 29.5212 46.7402 29.3634 46.7894C29.2056 46.8386 29.0423 46.8453 28.8845 46.8106L13.027 42.2152L13.0181 42.213L13.0091 42.2107C11.3721 41.846 9.85374 41.0538 8.61956 39.9192C7.05865 38.4858 6.31345 36.8555 5.9621 35.7377C5.36795 33.9027 4.7738 32.0385 4.19643 30.1979C3.69067 28.5833 3.1838 26.9452 2.69035 25.3249C2.18795 23.7249 2.11522 22.014 2.47999 20.377C2.84476 18.74 3.63696 17.2217 4.77156 15.9875L12.1565 7.94572C13.2978 6.70259 14.7535 5.78059 16.3659 5.28043M16.2798 5.00629C14.645 5.51428 13.1423 6.44747 11.9439 7.75215L4.55896 15.7939C2.17788 18.3865 1.36106 22.0532 2.41621 25.4111C2.9119 27.0369 3.41318 28.6616 3.92229 30.284C4.5019 32.1348 5.09157 33.9821 5.68796 35.8272C5.95203 36.6664 6.65248 38.5059 8.42375 40.1318C9.67695 41.282 11.2278 42.1089 12.9453 42.4916L28.8129 47.0893C29.0266 47.1374 29.2459 47.1262 29.4473 47.0635C29.6521 46.9997 29.8401 46.8834 29.9911 46.7189L40.3871 33.8713C42.7682 31.2788 43.585 27.612 42.5299 24.2541L39.2581 13.838C38.203 10.479 35.437 7.93901 32.0007 7.17366L21.344 4.79929C19.6477 4.42109 17.9145 4.50389 16.3089 4.99734C16.2988 5.0007 16.2887 5.00293 16.2798 5.00629Z" fill="url(#paint17_linear_1297_9827)"/>
<path d="M18.2288 3.51551L18.2601 3.5088C19.9766 3.16529 21.7613 3.27382 23.424 3.82434L34.3817 7.45079C36.0646 8.00802 37.5774 9.00163 38.7567 10.3264C39.9361 11.6501 40.7495 13.2681 41.1087 15.0047L43.4473 26.3081C43.8064 28.0447 43.7024 29.8518 43.1452 31.5347C42.5879 33.2175 41.5943 34.7303 40.2695 35.9097L40.2628 35.9164L40.2561 35.9231L27.9669 48.3298C27.836 48.4439 27.6771 48.5234 27.507 48.5581C27.3391 48.5927 27.1635 48.5827 27.0001 48.5301L10.8058 42.0168L10.7969 42.0134L10.7879 42.0101C9.10506 41.4529 7.59226 40.4592 6.41291 39.1344C4.92361 37.4616 4.31156 35.6669 4.06092 34.4539C3.63013 32.46 3.2027 30.437 2.79093 28.4386C2.42952 26.6863 2.07034 24.9095 1.72347 23.1527C1.3643 21.4162 1.46836 19.6091 2.02559 17.9262C2.58281 16.2433 3.57642 14.7306 4.90124 13.5512L13.5181 5.8731C14.8508 4.68591 16.4799 3.87133 18.2288 3.51551ZM18.1684 3.21788C16.3949 3.57929 14.7154 4.40171 13.3167 5.64707L4.69759 13.3241C1.91817 15.7991 0.670561 19.5699 1.42472 23.2143C1.77383 24.9777 2.12965 26.7389 2.49218 28.5001C2.90618 30.5086 3.33026 32.5137 3.76328 34.5177C3.95126 35.4285 4.49506 37.437 6.18577 39.3358C7.3819 40.6786 8.92603 41.7124 10.6928 42.2976L26.8972 48.8154C27.1176 48.8881 27.3481 48.9005 27.5674 48.8557C27.7901 48.8109 28.0004 48.7069 28.1761 48.5513L40.4731 36.1379C43.2526 33.6629 44.5002 29.8921 43.746 26.2477L41.4075 14.9443C40.6533 11.2999 38.0126 8.33363 34.479 7.16434L23.5214 3.53789C21.7769 2.96052 19.9453 2.86429 18.2031 3.2134C18.1919 3.21564 18.1818 3.21788 18.1706 3.22011L18.1684 3.21788Z" fill="url(#paint18_linear_1297_9827)"/>
<path d="M20.3753 1.85641L20.4089 1.85306C22.2507 1.67291 24.117 1.97726 25.8066 2.73142L36.9501 7.7073C38.662 8.47153 40.148 9.67774 41.2479 11.195C42.3478 12.7123 43.0326 14.5003 43.2261 16.3645L44.4883 28.5026C44.6819 30.3668 44.3809 32.2578 43.6166 33.9686C42.8524 35.6806 41.6462 37.1665 40.1289 38.2664L40.1211 38.272L40.1133 38.2787L25.8715 50.0275C25.7216 50.1338 25.5459 50.1998 25.3635 50.2188C25.1834 50.2367 24.9999 50.2088 24.8331 50.136L8.48669 41.5684L8.47774 41.5639L8.46879 41.5594C6.75683 40.7952 5.27089 39.589 4.17098 38.0717C2.78127 36.1539 2.3281 34.2025 2.19271 32.8989C1.95102 30.7561 1.71605 28.5821 1.49338 26.4371C1.29868 24.5562 1.10958 22.6484 0.930556 20.7641C0.736981 18.9 1.03797 17.009 1.8022 15.2981C2.56643 13.5862 3.77264 12.1002 5.28991 11.0003L15.1712 3.83804C16.6985 2.7303 18.4989 2.04551 20.3753 1.85641ZM20.344 1.53752C18.4396 1.72886 16.5866 2.417 14.9832 3.57845L5.10193 10.7407C1.91633 13.0502 0.20437 16.8848 0.611661 20.7977C0.791808 22.6898 0.979789 24.5808 1.17448 26.4706C1.39715 28.6268 1.63101 30.7819 1.87381 32.9358C1.97564 33.9138 2.33369 36.0845 3.91139 38.2608C5.02696 39.8005 6.54199 41.0514 8.33788 41.8537L24.6933 50.4258C24.9171 50.5254 25.1588 50.5623 25.3949 50.5388C25.6332 50.5153 25.8659 50.4292 26.0673 50.2826L40.318 38.5271C43.5036 36.2177 45.2156 32.3842 44.8083 28.4702L43.5462 16.332C43.1389 12.418 40.675 9.01869 37.0821 7.41414L25.9387 2.43826C24.164 1.64605 22.2484 1.35066 20.3787 1.53304C20.3675 1.53304 20.3563 1.53528 20.344 1.5364V1.53752Z" fill="url(#paint19_linear_1297_9827)"/>
<path d="M22.8082 0.339036H22.844C24.7999 0.345749 26.7323 0.862695 28.4297 1.83505L39.6246 8.24987C41.3444 9.23565 42.78 10.6612 43.7758 12.3743C44.7728 14.0873 45.3021 16.0399 45.3088 18.0226L45.3513 30.925C45.358 32.9066 44.8399 34.8636 43.8553 36.5823C42.8695 38.3021 41.444 39.7377 39.7309 40.7335L39.722 40.7391L39.713 40.7447L23.4874 51.595C23.3184 51.6912 23.1271 51.7416 22.9324 51.7416C22.7377 51.7416 22.5508 51.6923 22.3841 51.5984L6.09698 40.8544L6.08802 40.8488L6.07907 40.8432C4.35928 39.8574 2.92369 38.4319 1.92784 36.7188C0.669044 34.5548 0.399382 32.4523 0.394906 31.0682C0.366933 28.789 0.350149 26.4773 0.344554 24.1969C0.338959 22.1973 0.342316 20.171 0.353505 18.1692C0.346792 16.1876 0.864857 14.2306 1.84952 12.5119C2.83529 10.7921 4.26081 9.3565 5.97389 8.36065L17.1263 1.87309C18.8505 0.870528 20.8165 0.340155 22.8116 0.340155M22.8082 0C20.7852 0 18.7621 0.527016 16.9528 1.57881L5.80046 8.06637C2.20422 10.1588 -0.00231452 14.0101 0.0111126 18.1703C-7.66575e-05 20.1799 -0.00231452 22.1884 0.0021612 24.198C0.00887479 26.4896 0.0256587 28.7811 0.0525131 31.0727C0.0558699 32.1133 0.20245 34.434 1.63132 36.89C2.64172 38.6277 4.10304 40.1047 5.90788 41.1386L22.2051 51.8893C22.43 52.018 22.6806 52.0829 22.9313 52.0829C23.1819 52.0829 23.4382 52.0168 23.6653 51.8848L39.901 41.0278C43.4972 38.9354 45.7038 35.0841 45.6903 30.9239L45.6478 18.0215C45.6344 13.8613 43.4021 10.0245 39.7924 7.9556L28.5975 1.54077C26.8151 0.520303 24.8301 0.00671358 22.8451 0C22.8328 0 22.8205 0 22.8082 0Z" fill="url(#paint20_linear_1297_9827)"/>
<path d="M15.201 29.6193L15.1965 29.6092C14.9269 29.0263 14.8127 28.3795 14.8665 27.7395L15.2212 23.5178C15.276 22.8688 15.5009 22.2444 15.8724 21.7096C16.2439 21.1747 16.7519 20.7462 17.3404 20.4687L21.1739 18.665C21.7624 18.3875 22.417 18.27 23.0649 18.3248C23.7138 18.3796 24.3382 18.6045 24.873 18.976L24.8764 18.9783L24.8798 18.9805L30.3614 22.3037C30.414 22.3407 30.4554 22.391 30.4822 22.4481C30.5091 22.5051 30.5203 22.5689 30.5158 22.6316L29.5793 28.9703V28.9737V28.977C29.5244 29.626 29.2995 30.2504 28.9281 30.7852C28.4592 31.4599 27.8707 31.8325 27.4589 32.0261C26.7842 32.3506 26.0983 32.6773 25.4213 32.9951C24.8272 33.2737 24.2229 33.5546 23.6266 33.8298C23.038 34.1073 22.3834 34.2248 21.7356 34.17C21.0866 34.1152 20.4622 33.8903 19.9274 33.5188L16.4486 31.1008C15.9104 30.727 15.4796 30.2157 15.2033 29.6215M15.1003 29.6674C15.3812 30.2694 15.8187 30.7986 16.3826 31.1903L19.8614 33.6083C20.9836 34.3882 22.436 34.5101 23.6724 33.9283C24.2722 33.653 24.8708 33.3744 25.4672 33.0936C26.1486 32.7736 26.8278 32.4502 27.5059 32.1246C27.8147 31.9791 28.485 31.6132 29.0176 30.8468C29.3946 30.3052 29.6307 29.6652 29.6878 28.9849L30.6244 22.6428C30.6311 22.5577 30.6154 22.4749 30.5807 22.4C30.546 22.325 30.4912 22.2579 30.4196 22.2086L24.9346 18.8843C23.8123 18.1044 22.3599 17.9824 21.1235 18.5643L17.2901 20.368C16.0536 20.9498 15.2223 22.146 15.107 23.5077L14.7523 27.7294C14.6953 28.4019 14.8183 29.0632 15.0925 29.6551C15.0947 29.6585 15.0958 29.6618 15.0981 29.6663L15.1003 29.6674Z" fill="url(#paint21_radial_1297_9827)"/>
<path d="M14.4252 28.996L14.4207 28.9848C14.1991 28.3426 14.1466 27.6511 14.2719 26.9831L15.0921 22.579C15.2185 21.902 15.5217 21.2687 15.9682 20.7462C16.4157 20.2236 16.9954 19.8264 17.6443 19.597L21.8683 18.1055C22.5173 17.8761 23.2177 17.8224 23.8936 17.9477C24.5705 18.0742 25.2038 18.3774 25.7264 18.8238L25.7286 18.8261L25.732 18.8283L31.1465 22.9046C31.1968 22.9493 31.236 23.0064 31.2584 23.0702C31.2807 23.134 31.2863 23.2011 31.274 23.266L29.618 29.8352V29.8386L29.6169 29.8419C29.4904 30.5189 29.1872 31.1522 28.7408 31.6748C28.1757 32.3349 27.5178 32.6639 27.0646 32.8239C26.3205 33.0936 25.5652 33.3643 24.8178 33.6273C24.1632 33.8578 23.4986 34.0894 22.8406 34.3143C22.1917 34.5437 21.4912 34.5974 20.8154 34.4721C20.1384 34.3456 19.5051 34.0424 18.9826 33.596L15.5788 30.6834C15.0529 30.2336 14.6534 29.6495 14.4252 28.996ZM14.3133 29.0352C14.5449 29.6987 14.9488 30.3007 15.5016 30.774L18.9054 33.6866C20.003 34.6254 21.5181 34.9085 22.8798 34.4273C23.54 34.2013 24.199 33.9719 24.857 33.7403C25.6078 33.4762 26.3563 33.2077 27.1049 32.9369C27.445 32.8172 28.1891 32.5028 28.8303 31.7531C29.2846 31.2227 29.6012 30.5748 29.7333 29.8654L31.3904 23.2928C31.4072 23.2044 31.3993 23.1149 31.3702 23.0333C31.3412 22.9516 31.2908 22.8744 31.2214 22.8151L25.8036 18.7366C24.7059 17.7978 23.1909 17.5147 21.8291 17.9958L17.6052 19.4874C16.2434 19.9685 15.2409 21.1389 14.9768 22.5588L14.1566 26.9629C14.0257 27.6645 14.085 28.3739 14.3099 29.0251C14.311 29.0296 14.3122 29.033 14.3144 29.0374L14.3133 29.0352Z" fill="url(#paint22_radial_1297_9827)"/>
<path d="M13.6733 28.2574L13.67 28.2451C13.5044 27.5458 13.5234 26.8129 13.7248 26.1236L15.0541 21.5774C15.2589 20.8792 15.6449 20.2448 16.1708 19.7424C16.6967 19.24 17.3479 18.883 18.0551 18.7107L22.6561 17.5895C23.3633 17.4172 24.1051 17.434 24.8033 17.6388C25.5015 17.8435 26.136 18.2296 26.6384 18.7555L26.6406 18.7588L26.644 18.7611L31.9074 23.6228C31.9567 23.6743 31.9913 23.7392 32.007 23.8086C32.0227 23.8779 32.0215 23.9484 32.0025 24.0167L29.5644 30.7515V30.7549L29.5621 30.7582C29.3574 31.4564 28.9713 32.0909 28.4454 32.5933C27.7808 33.2277 27.0535 33.5041 26.56 33.6249C25.7488 33.8297 24.9253 34.0345 24.1118 34.2325C23.3991 34.4059 22.6751 34.5783 21.9601 34.7461C21.253 34.9184 20.5111 34.9016 19.8129 34.6969C19.1147 34.4921 18.4803 34.1061 17.9779 33.5802L14.7061 30.1562C14.2003 29.627 13.8423 28.9702 13.6711 28.2585M13.5525 28.2865C13.7259 29.0082 14.0873 29.6852 14.6177 30.2413L17.8895 33.6652C18.9446 34.7696 20.5078 35.2272 21.9926 34.8658C22.7109 34.698 23.4282 34.5268 24.1443 34.3522C24.9622 34.1531 25.7779 33.9505 26.5936 33.7447C26.9651 33.654 27.7808 33.4034 28.535 32.6828C29.0687 32.1726 29.4704 31.5247 29.6852 30.7918L32.1245 24.0536C32.1513 23.9618 32.1525 23.8679 32.1312 23.7783C32.1099 23.6888 32.0641 23.6027 31.9981 23.5333L26.7312 18.6693C25.6761 17.5649 24.1129 17.1073 22.6281 17.4687L18.0271 18.5899C16.5434 18.9513 15.3651 20.0769 14.9366 21.5427L13.6073 26.0889C13.3958 26.8129 13.3824 27.5648 13.5502 28.2742C13.5502 28.2787 13.5525 28.2832 13.5536 28.2876L13.5525 28.2865Z" fill="url(#paint23_radial_1297_9827)"/>
<path d="M12.9642 27.4013L12.962 27.3878C12.8624 26.6348 12.9597 25.865 13.2451 25.1612L15.1249 20.5199C15.4136 19.8071 15.8869 19.1805 16.4933 18.7072C17.0998 18.2339 17.8226 17.9284 18.5846 17.8221L23.5437 17.1306C24.3057 17.0243 25.0845 17.1205 25.7972 17.4092C26.51 17.6979 27.1366 18.1712 27.6099 18.7777L27.6121 18.781L27.6144 18.7844L32.6361 24.4562C32.682 24.5167 32.7111 24.5872 32.7223 24.6621C32.7335 24.7371 32.7223 24.8109 32.6954 24.8803L29.417 31.7058L29.4147 31.7092V31.7125C29.1238 32.4253 28.6516 33.0519 28.044 33.5252C27.2776 34.1227 26.4831 34.3364 25.9516 34.4103C25.0766 34.54 24.1882 34.6676 23.3121 34.7896C22.5434 34.8959 21.7635 35.001 20.9937 35.1018C20.2317 35.208 19.4529 35.1118 18.7401 34.8231C18.0274 34.5345 17.4008 34.0611 16.9275 33.4547L13.8482 29.506C13.3726 28.895 13.0649 28.1677 12.9609 27.4002M12.8333 27.4181C12.9396 28.1957 13.2473 28.9465 13.7475 29.5865L16.8268 33.5352C17.8193 34.8086 19.416 35.4553 21.0149 35.2327C21.7881 35.132 22.5613 35.0279 23.3333 34.9205C24.2139 34.7985 25.0945 34.6721 25.974 34.5412C26.3735 34.4852 27.2586 34.3073 28.128 33.6292C28.7434 33.1492 29.2346 32.5103 29.5378 31.7629L32.8185 24.9329C32.8566 24.84 32.8677 24.7405 32.8543 24.6442C32.8409 24.548 32.8029 24.4529 32.7402 24.3723L27.7151 18.6982C26.7226 17.4249 25.1259 16.7781 23.5269 17.0008L18.5678 17.6923C16.9689 17.915 15.6105 18.9746 15.004 20.4706L13.1242 25.1119C12.8243 25.8504 12.7315 26.6415 12.8333 27.4046C12.8333 27.4091 12.8344 27.4136 12.8355 27.4192L12.8333 27.4181Z" fill="url(#paint24_radial_1297_9827)"/>
<path d="M12.3073 26.4243V26.4097C12.2815 25.6075 12.4662 24.8074 12.8399 24.098L15.3094 19.4153C15.6887 18.6958 16.2526 18.0871 16.9408 17.6541C17.6289 17.2211 18.4222 16.9749 19.2346 16.9447L24.5249 16.7422C25.3372 16.7108 26.1473 16.8955 26.8668 17.2748C27.5863 17.6541 28.195 18.218 28.628 18.9062L28.6302 18.9095L28.6325 18.9129L33.3152 25.4105C33.3566 25.4788 33.3812 25.556 33.3834 25.6366C33.3857 25.7171 33.3689 25.7932 33.332 25.8637L29.1606 32.697L29.1584 32.7004L29.1561 32.7037C28.7768 33.4232 28.2129 34.0319 27.5247 34.4649C26.6553 35.0121 25.7971 35.1531 25.2298 35.1743C24.2955 35.218 23.3478 35.2582 22.4123 35.294C21.5922 35.3254 20.7608 35.3533 19.9406 35.3768C19.1283 35.4082 18.3182 35.2235 17.5987 34.8442C16.8792 34.4649 16.2705 33.901 15.8375 33.2128L13.0167 28.7326C12.5803 28.04 12.3352 27.2411 12.3062 26.4232M12.1685 26.4299C12.1976 27.259 12.4427 28.0814 12.9003 28.8087L15.7211 33.2889C16.6308 34.7335 18.2421 35.5827 19.9473 35.5178C20.7709 35.4932 21.5955 35.4664 22.419 35.435C23.3589 35.3992 24.2977 35.3601 25.2376 35.3153C25.6639 35.2985 26.6139 35.2056 27.6008 34.5846C28.299 34.1449 28.8831 33.525 29.2814 32.7697L33.4562 25.9331C33.5054 25.8391 33.5289 25.735 33.5244 25.6332C33.52 25.5314 33.4897 25.4262 33.4327 25.3356L28.7477 18.8335C27.838 17.3889 26.2268 16.5396 24.5215 16.6045L19.2312 16.8071C17.526 16.872 15.9841 17.8432 15.1874 19.3526L12.7179 24.0354C12.3252 24.7806 12.1428 25.6019 12.1685 26.4164C12.1685 26.4209 12.1685 26.4265 12.1685 26.431V26.4299Z" fill="url(#paint25_radial_1297_9827)"/>
<path d="M11.7184 25.3281V25.3124C11.7777 24.4654 12.0563 23.6441 12.5251 22.9369L15.619 18.2721C16.0945 17.556 16.7524 16.9742 17.5223 16.5915C18.2921 16.2088 19.1525 16.0343 20.0108 16.088L25.5976 16.4348C26.4558 16.4886 27.2883 16.7672 28.0044 17.2427C28.7205 17.7183 29.3024 18.3762 29.685 19.146L29.6873 19.1505L29.6895 19.155L33.9269 26.4862C33.9638 26.5623 33.9806 26.6462 33.975 26.7301C33.9694 26.814 33.9426 26.8935 33.8978 26.964L28.7854 33.71L28.7832 33.7134L28.7809 33.7167C28.3054 34.4328 27.6475 35.0147 26.8776 35.3974C25.9053 35.8807 24.9878 35.9378 24.388 35.9009C23.4 35.8483 22.3997 35.7901 21.4117 35.7286C20.5456 35.6737 19.6684 35.6155 18.8023 35.554C17.9441 35.5003 17.1116 35.2217 16.3955 34.7461C15.6794 34.2706 15.0975 33.6127 14.7149 32.8428L12.2219 27.8311C11.837 27.0568 11.6624 26.1908 11.7195 25.327M11.5707 25.3191C11.5136 26.1953 11.6837 27.0859 12.0887 27.8983L14.5817 32.91C15.3851 34.5257 16.9897 35.5898 18.7911 35.7028C19.6605 35.7644 20.5299 35.8226 21.4005 35.8774C22.393 35.94 23.3855 35.9971 24.3779 36.0497C24.8278 36.0777 25.837 36.0799 26.9414 35.5305C27.7224 35.1422 28.4027 34.5514 28.9018 33.7995L34.0175 27.049C34.0802 26.955 34.1149 26.8487 34.1216 26.7402C34.1283 26.6305 34.107 26.5186 34.0567 26.4168L29.8171 19.0811C29.0137 17.4654 27.4091 16.4013 25.6077 16.2883L20.0208 15.9414C18.2194 15.8295 16.4951 16.6866 15.4981 18.1904L12.4043 22.8553C11.9119 23.5982 11.6333 24.443 11.574 25.3024C11.574 25.308 11.574 25.3124 11.574 25.318L11.5707 25.3191Z" fill="url(#paint26_radial_1297_9827)"/>
<path d="M11.2163 24.113L11.2186 24.0973C11.3696 23.2122 11.75 22.3786 12.3185 21.6838L16.0669 17.1051C16.6431 16.4013 17.3962 15.8597 18.2466 15.5386C19.0969 15.2175 20.0201 15.1257 20.9174 15.2723L26.7571 16.229C27.6545 16.3755 28.5004 16.7582 29.2031 17.3334C29.9069 17.9096 30.4485 18.6626 30.7696 19.513L30.7719 19.5175L30.7741 19.522L34.4543 27.6835C34.4845 27.7674 34.4934 27.858 34.4789 27.9453C34.4643 28.0326 34.4274 28.1142 34.3726 28.1825L28.28 34.7372L28.2766 34.7406L28.2733 34.7439C27.697 35.4477 26.944 35.9893 26.0936 36.3104C25.0194 36.7166 24.0482 36.6797 23.4216 36.5767C22.3888 36.4167 21.3415 36.25 20.3099 36.0799C19.4046 35.9311 18.4882 35.7767 17.5841 35.62C16.6868 35.4735 15.8409 35.0908 15.1382 34.5156C14.4344 33.9394 13.8928 33.1864 13.5717 32.336L11.4804 26.8006C11.157 25.9446 11.0664 25.0148 11.2174 24.113M11.063 24.0872C10.9097 25.0025 10.9948 25.9569 11.3349 26.8554L13.4262 32.3908C14.1009 34.1755 15.6753 35.4656 17.5584 35.7744C18.4659 35.9311 19.3756 36.0844 20.2841 36.2343C21.3214 36.4044 22.3597 36.5711 23.3981 36.7311C23.8692 36.8083 24.9299 36.9169 26.1496 36.457C27.0123 36.1314 27.791 35.582 28.3953 34.8435L34.4912 28.2843C34.5662 28.1926 34.6143 28.084 34.6333 27.971C34.6523 27.858 34.6422 27.736 34.5997 27.6242L30.9173 19.4582C30.2426 17.6735 28.6683 16.3834 26.7851 16.0746L20.9454 15.1179C19.0623 14.809 17.1578 15.5285 15.9494 17.0055L12.201 21.5842C11.6046 22.3137 11.2219 23.1719 11.0686 24.0704C11.0686 24.076 11.0664 24.0816 11.0664 24.0872H11.063Z" fill="url(#paint27_radial_1297_9827)"/>
<path d="M10.8137 22.78L10.8181 22.7633C11.071 21.8491 11.5589 21.011 12.2302 20.3408L16.6589 15.921C17.3393 15.2418 18.1896 14.7528 19.1184 14.5044C20.0471 14.2572 21.0284 14.2572 21.956 14.5078L27.9971 16.1336C28.9247 16.3831 29.7739 16.8743 30.4531 17.5546C31.1323 18.2349 31.6213 19.0853 31.8697 20.014V20.0185L31.873 20.023L34.8807 28.9979C34.9042 29.0897 34.9031 29.1859 34.8785 29.2766C34.8539 29.3672 34.8069 29.4489 34.7409 29.5149L27.6379 35.7652L27.6345 35.7686L27.6312 35.7719C26.9509 36.4511 26.1005 36.9401 25.1718 37.1885C23.9991 37.5018 22.9809 37.3597 22.333 37.1852C21.2633 36.9077 20.1791 36.6201 19.1116 36.3325C18.1751 36.0797 17.2274 35.8201 16.2931 35.5605C15.3655 35.3109 14.5162 34.8197 13.837 34.1394C13.1578 33.4591 12.6688 32.6087 12.4204 31.68L10.8069 25.6356C10.5574 24.7012 10.5597 23.7132 10.8148 22.78M10.6559 22.7375C10.3974 23.6841 10.3862 24.6979 10.648 25.6781L12.2615 31.7225C12.7818 33.6717 14.3025 35.1957 16.2505 35.7194C17.1893 35.9812 18.1292 36.2385 19.0691 36.4914C20.1422 36.7812 21.2163 37.0654 22.2916 37.344C22.7784 37.475 23.8828 37.7021 25.2143 37.3474C26.1564 37.0956 27.0337 36.6011 27.7475 35.8883L34.855 29.6346C34.9434 29.5462 35.006 29.4366 35.0374 29.3202C35.0687 29.2038 35.0709 29.074 35.0374 28.9521L32.0286 19.9726C31.5083 18.0235 29.9876 16.4995 28.0396 15.9758L21.9985 14.35C20.0504 13.8264 17.9703 14.3814 16.5426 15.8058L12.1138 20.2255C11.4089 20.9293 10.9155 21.792 10.6592 22.7207C10.6581 22.7263 10.6559 22.7319 10.6548 22.7375H10.6559Z" fill="url(#paint28_radial_1297_9827)"/>
<path d="M10.5366 21.3371L10.5433 21.3203C10.9059 20.3848 11.5079 19.5557 12.2855 18.9213L17.4125 14.741C18.2002 14.0987 19.1468 13.6735 20.1494 13.5113C21.1519 13.349 22.1847 13.4542 23.1347 13.8145L29.3179 16.1642C30.2678 16.5257 31.1093 17.1321 31.7516 17.9198C32.3938 18.7076 32.819 19.6542 32.9813 20.6567V20.6623L32.9835 20.6679L35.1967 30.4272C35.2113 30.5257 35.2012 30.6264 35.1654 30.7204C35.1296 30.8122 35.0714 30.8938 34.9964 30.9565L26.8618 36.7783L26.8573 36.7816L26.8529 36.785C26.0651 37.4273 25.1185 37.8525 24.116 38.0147C22.8493 38.2195 21.7931 37.9632 21.1295 37.7104C20.033 37.3053 18.9241 36.8879 17.8309 36.4728C16.8731 36.1081 15.903 35.7343 14.9475 35.3617C13.9975 35.0003 13.156 34.3939 12.5138 33.6061C11.8715 32.8184 11.4463 31.8718 11.2841 30.8692L10.2278 24.3391C10.0644 23.3299 10.1719 22.2915 10.5377 21.3371M10.3744 21.2755C10.0029 22.2434 9.88317 23.3086 10.0544 24.3682L11.1106 30.8983C11.4508 33.0041 12.8897 34.7676 14.8837 35.5251C15.8437 35.8999 16.8049 36.2703 17.7672 36.6362C18.8648 37.0547 19.9647 37.4676 21.0669 37.8748C21.5648 38.0639 22.7028 38.4198 24.1417 38.187C25.1588 38.0225 26.1345 37.5951 26.9603 36.9204L35.0994 31.0952C35.2023 31.0113 35.2795 30.9028 35.3254 30.7831C35.3724 30.6622 35.387 30.5279 35.3657 30.3959L33.1513 20.631C32.8112 18.5252 31.3722 16.7617 29.3783 16.0042L23.1951 13.6545C21.2012 12.897 18.9543 13.2606 17.3017 14.6078L12.1747 18.7881C11.3579 19.4539 10.7481 20.3099 10.38 21.2587C10.3777 21.2643 10.3755 21.2699 10.3733 21.2766L10.3744 21.2755Z" fill="url(#paint29_radial_1297_9827)"/>
<path d="M10.3954 19.7894L10.4043 19.7726C10.8844 18.8271 11.6061 18.0181 12.4911 17.434L18.3264 13.5804C19.2226 12.9885 20.2632 12.6416 21.3352 12.5767C22.4071 12.5119 23.4824 12.7323 24.4424 13.2123L30.6984 16.3386C31.6595 16.8186 32.4797 17.547 33.0716 18.4433C33.6635 19.3396 34.0104 20.3802 34.0753 21.4521V21.4577V21.4633L35.3688 31.9645C35.3744 32.0696 35.352 32.1748 35.305 32.2688C35.258 32.3628 35.1875 32.4411 35.1014 32.4993L25.9284 37.7616L25.9239 37.765L25.9194 37.7684C25.0232 38.3603 23.9826 38.7071 22.9106 38.772C21.5556 38.8537 20.4725 38.471 19.8011 38.1354C18.6911 37.5927 17.5677 37.0366 16.4622 36.4838C15.4932 35.9982 14.513 35.5025 13.5463 35.0091C12.5851 34.529 11.765 33.8006 11.173 32.9044C10.5811 32.0081 10.2343 30.9675 10.1694 29.8956L9.74976 22.9145C9.68486 21.8348 9.90753 20.7539 10.3943 19.7894M10.2309 19.7066C9.73745 20.6856 9.49912 21.7934 9.56738 22.9257L9.98698 29.9067C10.1224 32.158 11.4483 34.1654 13.4657 35.1736C14.4358 35.6692 15.4071 36.1604 16.3817 36.6483C17.4928 37.2044 18.6061 37.7549 19.7217 38.301C20.2263 38.5527 21.3855 39.0484 22.9229 38.9555C24.0105 38.8906 25.0813 38.5438 26.0224 37.9216L35.201 32.656C35.3184 32.5788 35.4102 32.4736 35.4717 32.3516C35.5333 32.2296 35.5635 32.0898 35.5545 31.9477L34.2599 21.4409C34.1245 19.1896 32.7986 17.1823 30.7812 16.1741L24.5252 13.0478C22.5078 12.0397 20.1066 12.184 18.2245 13.4271L12.3893 17.2807C11.4606 17.8939 10.7277 18.7297 10.2399 19.6898C10.2365 19.6954 10.2343 19.7021 10.2309 19.7077V19.7066Z" fill="url(#paint30_radial_1297_9827)"/>
<path d="M10.4121 18.1457L10.4233 18.1289C11.0286 17.1857 11.8734 16.4114 12.8659 15.8899L19.4128 12.4537C20.4187 11.9256 21.5499 11.6716 22.6845 11.7175C23.8191 11.7633 24.9269 12.108 25.8869 12.7155L32.1361 16.6676C33.0962 17.2752 33.8828 18.1267 34.4098 19.1326C34.9379 20.1385 35.1919 21.2698 35.146 22.4044V22.41V22.4156L35.3944 33.5981C35.3889 33.7089 35.3542 33.8175 35.2949 33.9114C35.2356 34.0054 35.1539 34.0804 35.0565 34.133L24.8496 38.6971L24.8441 38.6993L24.8385 38.7027C23.8325 39.2308 22.7013 39.4848 21.5667 39.439C20.1334 39.3808 19.0346 38.8649 18.3632 38.4398C17.2532 37.7516 16.1298 37.0478 15.0266 36.3485C14.0587 35.7353 13.0796 35.1098 12.1162 34.4888C11.1562 33.8812 10.3696 33.0297 9.84255 32.0238C9.31442 31.0179 9.06042 29.8866 9.1063 28.7521L9.40393 21.3638C9.44981 20.2213 9.79891 19.108 10.4132 18.1435M10.2476 18.0417C9.62436 19.0196 9.25623 20.1598 9.20812 21.3582L8.91048 28.7465C8.81426 31.1287 9.99696 33.3811 12.011 34.6555C12.9789 35.2799 13.949 35.8998 14.9214 36.5152C16.0314 37.2179 17.1436 37.915 18.2603 38.6076C18.7638 38.9265 19.9308 39.5699 21.5578 39.6348C22.7091 39.6806 23.8717 39.43 24.928 38.8761L35.1416 34.3087C35.2736 34.2393 35.381 34.1386 35.4582 34.0177C35.5354 33.8969 35.5824 33.7526 35.588 33.6015L35.3396 22.4122C35.4358 20.03 34.2531 17.7776 32.2391 16.5031L25.9898 12.5511C23.9746 11.2766 21.4336 11.1748 19.3221 12.2825L12.7753 15.7188C11.7324 16.2659 10.8731 17.0671 10.2588 18.0249C10.2554 18.0305 10.251 18.0372 10.2476 18.0428V18.0417Z" fill="url(#paint31_radial_1297_9827)"/>
<path d="M10.6015 16.4177L10.615 16.4009C11.3512 15.4722 12.3225 14.7471 13.4213 14.3041L20.6719 11.3836C21.7853 10.935 23.0027 10.7873 24.1921 10.9551C25.3815 11.1229 26.5094 11.6041 27.4549 12.3437L33.6101 17.1629C34.5556 17.9037 35.2919 18.8827 35.7406 19.9972C36.1892 21.1105 36.3369 22.3279 36.1691 23.5173V23.524L36.168 23.5308L35.2449 35.3209C35.227 35.4373 35.18 35.5481 35.1061 35.6398C35.0323 35.7316 34.9394 35.8032 34.832 35.8468L23.6114 39.5673L23.6058 39.5695L23.6002 39.5717C22.4868 40.0204 21.2694 40.1681 20.08 40.0003C18.5784 39.7877 17.4774 39.1275 16.8161 38.6106C15.7207 37.7691 14.6152 36.9098 13.5276 36.0572C12.5742 35.3097 11.6108 34.5477 10.6631 33.7925C9.71759 33.0517 8.98134 32.0727 8.53265 30.9582C8.08396 29.8449 7.93626 28.6275 8.1041 27.4381L9.19953 19.6984C9.36849 18.5023 9.8541 17.3677 10.6027 16.4188M10.4404 16.2913C9.68179 17.2536 9.17379 18.4139 8.99588 19.6693L7.90045 27.409C7.54687 29.9042 8.55167 32.3994 10.5367 33.9536C11.4889 34.7122 12.4433 35.4675 13.4011 36.2183C14.4943 37.0754 15.5909 37.9269 16.6908 38.7728C17.1865 39.1611 18.3468 39.9622 20.0509 40.2028C21.2571 40.374 22.507 40.2319 23.6762 39.762L34.9036 36.0393C35.0491 35.9811 35.1733 35.886 35.2672 35.7663C35.3612 35.6465 35.4261 35.5 35.4485 35.3433L36.3716 23.5464C36.7252 21.0512 35.7204 18.556 33.7354 17.0018L27.5802 12.1826C25.5952 10.6284 22.9322 10.2513 20.5947 11.1934L13.344 14.1138C12.1893 14.5793 11.2013 15.3312 10.4527 16.2734C10.4483 16.279 10.4438 16.2846 10.4393 16.2913H10.4404Z" fill="url(#paint32_radial_1297_9827)"/>
<path d="M10.9862 14.6219L11.0019 14.6051C11.8758 13.7066 12.9734 13.0465 14.1763 12.6973L22.1129 10.3935C23.3325 10.0399 24.6282 10.013 25.8613 10.3151C27.0943 10.6184 28.2301 11.2427 29.1465 12.1222L35.1104 17.8433C36.0268 18.7217 36.6981 19.8305 37.0517 21.0502C37.4053 22.2698 37.4321 23.5655 37.13 24.7986V24.8053L37.1267 24.812L34.9067 37.1169C34.8754 37.2377 34.8138 37.3485 34.7277 37.438C34.6415 37.5275 34.5352 37.5913 34.4177 37.6271L22.2203 40.3517H22.2136L22.2069 40.3551C20.9872 40.7086 19.6915 40.7355 18.4584 40.4334C16.9009 40.0507 15.8122 39.2395 15.1721 38.6252C14.1092 37.6238 13.0361 36.6033 11.9832 35.5907C11.059 34.7033 10.1269 33.8004 9.20936 32.9041C8.29296 32.0257 7.6216 30.9169 7.26802 29.6973C6.91443 28.4776 6.88758 27.1819 7.18969 25.9488L9.16237 17.9227C9.46783 16.6819 10.0978 15.5405 10.9851 14.6208M10.8296 14.4708C9.92883 15.4029 9.27202 16.57 8.95201 17.8713L6.97933 25.8974C6.34266 28.4855 7.13598 31.2156 9.05942 33.0608C9.9803 33.9593 10.9045 34.8555 11.8333 35.7462C12.8918 36.7633 13.9559 37.7748 15.0233 38.7819C15.5045 39.2428 16.6391 40.2085 18.407 40.6426C19.6579 40.9503 20.9872 40.9336 22.2673 40.5621L34.4726 37.8352C34.6315 37.7894 34.7736 37.7021 34.8843 37.5868C34.9974 37.4705 35.079 37.3239 35.1193 37.1605L37.3404 24.8489C37.9759 22.2608 37.1837 19.5307 35.2603 17.6855L29.2964 11.9644C27.373 10.1193 24.6126 9.44126 22.0524 10.1842L14.1159 12.4881C12.8526 12.8551 11.7325 13.541 10.8464 14.4529C10.8408 14.4585 10.8352 14.4641 10.8296 14.4697V14.4708Z" fill="url(#paint33_radial_1297_9827)"/>
<path d="M11.5785 12.7729L11.5965 12.7573C12.6102 11.9046 13.8354 11.3261 15.1379 11.0867L23.7313 9.50341C25.0516 9.2606 26.4178 9.36914 27.6822 9.81895C28.9466 10.2688 30.0756 11.0453 30.9461 12.0669L36.6135 18.7167C37.484 19.7383 38.0726 20.9758 38.3165 22.2961C38.5593 23.6165 38.4508 24.9827 38.001 26.2471L37.9987 26.2538L37.9965 26.2605L34.3577 38.9693C34.313 39.0924 34.2358 39.2032 34.1351 39.2882C34.0344 39.3733 33.9158 39.4292 33.7882 39.4538L20.6687 41.0282H20.662L20.6553 41.0304C19.335 41.2732 17.9688 41.1647 16.7044 40.7149C15.1065 40.1476 14.0469 39.1786 13.4393 38.4647C12.4278 37.2988 11.4074 36.1105 10.4059 34.9356C9.52867 33.905 8.64247 32.8555 7.77307 31.816C6.90254 30.7944 6.31398 29.5569 6.07005 28.2365C5.82725 26.9162 5.93578 25.55 6.38559 24.2856L9.31048 16.0525C9.76252 14.7792 10.5469 13.6457 11.5774 12.7718M11.4308 12.5973C10.3846 13.4823 9.57007 14.6404 9.09564 15.9753L6.17076 24.2095C5.2275 26.8647 5.77242 29.8209 7.59963 31.9648C8.47352 33.0077 9.35076 34.0483 10.2325 35.0844C11.2384 36.266 12.2499 37.4431 13.267 38.6157C13.7235 39.1517 14.8156 40.2874 16.6294 40.9319C17.9128 41.3873 19.3137 41.5115 20.699 41.2564L33.8262 39.681C33.9986 39.6496 34.1563 39.5724 34.2861 39.4628C34.417 39.352 34.5189 39.2065 34.5793 39.0398L38.2203 26.3243C39.1635 23.6691 38.6186 20.7129 36.7914 18.569L31.124 11.9192C29.2968 9.77531 26.4637 8.76827 23.6932 9.2785L15.0998 10.8618C13.7314 11.1136 12.4815 11.7167 11.4521 12.5827C11.4454 12.5883 11.4398 12.5939 11.4331 12.5984L11.4308 12.5973Z" fill="url(#paint34_radial_1297_9827)"/>
<path d="M12.4002 10.8895L12.4215 10.8749C13.5784 10.085 14.9279 9.6072 16.3243 9.49307L25.532 8.73779C26.9463 8.62142 28.3718 8.88102 29.6541 9.48748C30.9364 10.0939 32.0419 11.0316 32.8498 12.1986L38.1076 19.7951C38.9155 20.9621 39.4034 22.3261 39.5197 23.7404C39.6361 25.1547 39.3765 26.5803 38.77 27.8626L38.7667 27.8693L38.7633 27.876L33.5894 40.8589C33.529 40.9842 33.4361 41.0917 33.322 41.1711C33.2078 41.2506 33.0769 41.2964 32.9404 41.3087L18.9728 41.575H18.965H18.9571C17.5428 41.6914 16.1173 41.4318 14.835 40.8254C13.2148 40.0589 12.2033 38.9277 11.6382 38.1131C10.6972 36.7793 9.74946 35.422 8.82186 34.0793C8.00728 32.9022 7.18711 31.705 6.3826 30.5189C5.57473 29.3518 5.08687 27.9879 4.97051 26.5735C4.85414 25.1592 5.11373 23.7337 5.72019 22.4514L9.67001 14.0997C10.2809 12.8085 11.2253 11.6985 12.4024 10.8895M12.2626 10.6903C11.0687 11.5105 10.0885 12.6417 9.44847 13.9968L5.49864 22.3485C4.2253 25.0417 4.48489 28.2094 6.18007 30.6588C6.98794 31.8493 7.8014 33.0354 8.61934 34.2192C9.55253 35.5686 10.4913 36.9147 11.4379 38.2552C11.862 38.8672 12.8903 40.1775 14.7287 41.0469C16.03 41.6623 17.4902 41.9409 18.975 41.819L32.9516 41.5527C33.1362 41.537 33.3108 41.4743 33.4585 41.3725C33.6062 41.2707 33.7315 41.1275 33.8109 40.9585L38.9882 27.9677C40.2616 25.2745 40.002 22.1068 38.3068 19.6574L33.0489 12.061C31.3538 9.61168 28.4804 8.2533 25.5118 8.4961L16.3042 9.25138C14.8384 9.37111 13.4587 9.87351 12.285 10.6758C12.2782 10.6803 12.2704 10.6859 12.2637 10.6903H12.2626Z" fill="url(#paint35_radial_1297_9827)"/>
<path d="M13.4616 8.99604L13.4851 8.98261C14.7853 8.27433 16.2556 7.91403 17.737 7.942L27.5031 8.12327C29.0036 8.15124 30.4749 8.57532 31.7606 9.3485C33.0463 10.1228 34.1092 11.2261 34.8343 12.5386L39.5607 21.0861C40.2868 22.3986 40.6561 23.8856 40.6281 25.3861C40.6002 26.8866 40.1761 28.358 39.4029 29.6437L39.3984 29.6504L39.3951 29.6571L32.5774 42.7665C32.5002 42.8918 32.3917 42.9959 32.263 43.0663C32.1343 43.1368 31.9922 43.1726 31.8468 43.1704L17.125 41.9709H17.1172H17.1093C15.6088 41.9429 14.1374 41.5189 12.8518 40.7457C11.2282 39.7677 10.2839 38.4709 9.77697 37.5534C8.92883 36.0507 8.07508 34.5222 7.24148 33.0116C6.5097 31.6868 5.77344 30.3408 5.05173 29.0081C4.32555 27.6956 3.9563 26.2085 3.98427 24.7081C4.01225 23.2076 4.43632 21.7362 5.2095 20.4505L10.2492 12.0843C11.0279 10.7908 12.1402 9.72334 13.4639 8.99716M13.3385 8.77113C11.9958 9.50739 10.8456 10.5939 10.0276 11.9511L4.98795 20.3174C3.36327 23.0151 3.30061 26.3753 4.82459 29.1312C5.54854 30.4683 6.27808 31.8032 7.01322 33.1347C7.8513 34.6531 8.69721 36.1681 9.54983 37.6787C9.93027 38.368 10.8735 39.855 12.7164 40.965C14.02 41.7505 15.5272 42.1981 17.1015 42.2271L31.8322 43.4278C32.028 43.4311 32.2182 43.383 32.3838 43.2913C32.5517 43.1984 32.696 43.063 32.799 42.8929L39.6211 29.7757C41.2458 27.0779 41.3084 23.7178 39.7845 20.9619L35.0581 12.4144C33.5341 9.65844 30.6562 7.9241 27.5064 7.86592L17.7404 7.68465C16.1851 7.65556 14.6812 8.03823 13.3609 8.75659C13.3531 8.76106 13.3452 8.76554 13.3363 8.77001L13.3385 8.77113Z" fill="url(#paint36_radial_1297_9827)"/>
<path d="M14.7813 7.11718L14.807 7.10599C16.2504 6.49841 17.8349 6.27574 19.3902 6.46149L29.644 7.68671C31.2195 7.87469 32.7222 8.47668 33.9922 9.42665C35.2622 10.3766 36.2636 11.65 36.888 13.1079L40.9542 22.5998C41.5786 24.0578 41.8091 25.6612 41.6211 27.2355C41.4331 28.811 40.8311 30.3137 39.8811 31.5837L39.8755 31.5904L39.8711 31.5971L31.3101 44.6651C31.2161 44.7893 31.0908 44.8867 30.9476 44.9471C30.8044 45.0075 30.6511 45.0299 30.4989 45.0131L15.1393 42.1912H15.1315L15.1226 42.1889C13.5471 42.001 12.0444 41.399 10.7744 40.449C9.16986 39.2484 8.31387 37.7837 7.87749 36.7655C7.14459 35.0949 6.40834 33.3964 5.6911 31.7191C5.06226 30.2477 4.43007 28.7539 3.81242 27.2758C3.18805 25.8179 2.95755 24.2144 3.14554 22.6401C3.33352 21.0646 3.9355 19.5619 4.88547 18.2919L11.0732 10.0242C12.0298 8.74634 13.3121 7.74042 14.7813 7.11718ZM14.675 6.86766C13.1846 7.49985 11.8586 8.52144 10.855 9.86192L4.66728 18.1297C2.67223 20.795 2.25039 24.323 3.56178 27.3832C4.18166 28.8669 4.80827 30.3484 5.44046 31.8265C6.16217 33.5127 6.8906 35.1956 7.62797 36.8751C7.95582 37.6405 8.78942 39.3043 10.611 40.6672C11.8989 41.6317 13.4375 42.2617 15.0901 42.4597L30.4586 45.2828C30.6645 45.3074 30.8693 45.2761 31.0539 45.1977C31.2385 45.1194 31.4064 44.9907 31.5328 44.8229L40.0982 31.7471C42.0933 29.0818 42.5151 25.5538 41.2037 22.4935L37.1375 13.0016C35.8261 9.94136 32.9818 7.81204 29.6754 7.41705L19.4215 6.19182C17.789 5.99713 16.1665 6.23882 14.7018 6.85535C14.6929 6.85871 14.6839 6.86318 14.675 6.86654V6.86766Z" fill="url(#paint37_radial_1297_9827)"/>
<path d="M16.3648 5.28043L16.3939 5.27148C17.9761 4.78586 19.6668 4.71873 21.2825 5.07902L31.9392 7.45339C33.5762 7.81816 35.0946 8.61036 36.3288 9.74496C37.5641 10.8796 38.4827 12.3241 38.9851 13.9242L42.2569 24.3403C42.7593 25.9404 42.832 27.6512 42.4672 29.2882C42.1024 30.9252 41.3102 32.4436 40.1756 33.6778L40.17 33.6845L40.1645 33.6912L29.7752 46.5309C29.6633 46.6506 29.5212 46.7402 29.3634 46.7894C29.2056 46.8386 29.0423 46.8453 28.8845 46.8106L13.027 42.2152L13.0181 42.213L13.0091 42.2107C11.3721 41.846 9.85374 41.0538 8.61956 39.9192C7.05865 38.4858 6.31345 36.8555 5.9621 35.7377C5.36795 33.9027 4.7738 32.0385 4.19643 30.1979C3.69067 28.5833 3.1838 26.9452 2.69035 25.3249C2.18795 23.7249 2.11522 22.014 2.47999 20.377C2.84476 18.74 3.63696 17.2217 4.77156 15.9875L12.1565 7.94572C13.2978 6.70259 14.7535 5.78059 16.3659 5.28043M16.2798 5.00629C14.645 5.51428 13.1423 6.44747 11.9439 7.75215L4.55896 15.7939C2.17788 18.3865 1.36106 22.0532 2.41621 25.4111C2.9119 27.0369 3.41318 28.6616 3.92229 30.284C4.5019 32.1348 5.09157 33.9821 5.68796 35.8272C5.95203 36.6664 6.65248 38.5059 8.42375 40.1318C9.67695 41.282 11.2278 42.1089 12.9453 42.4916L28.8129 47.0893C29.0266 47.1374 29.2459 47.1262 29.4473 47.0635C29.6521 46.9997 29.8401 46.8834 29.9911 46.7189L40.3871 33.8713C42.7682 31.2788 43.585 27.612 42.5299 24.2541L39.2581 13.838C38.203 10.479 35.437 7.93901 32.0007 7.17366L21.344 4.79929C19.6477 4.42109 17.9145 4.50389 16.3089 4.99734C16.2988 5.0007 16.2887 5.00293 16.2798 5.00629Z" fill="url(#paint38_radial_1297_9827)"/>
<path d="M18.2288 3.51551L18.2601 3.5088C19.9766 3.16529 21.7613 3.27382 23.424 3.82434L34.3817 7.45079C36.0646 8.00802 37.5774 9.00163 38.7567 10.3264C39.9361 11.6501 40.7495 13.2681 41.1087 15.0047L43.4473 26.3081C43.8064 28.0447 43.7024 29.8518 43.1452 31.5347C42.5879 33.2175 41.5943 34.7303 40.2695 35.9097L40.2628 35.9164L40.2561 35.9231L27.9669 48.3298C27.836 48.4439 27.6771 48.5234 27.507 48.5581C27.3391 48.5927 27.1635 48.5827 27.0001 48.5301L10.8058 42.0168L10.7969 42.0134L10.7879 42.0101C9.10506 41.4529 7.59226 40.4592 6.41291 39.1344C4.92361 37.4616 4.31156 35.6669 4.06092 34.4539C3.63013 32.46 3.2027 30.437 2.79093 28.4386C2.42952 26.6863 2.07034 24.9095 1.72347 23.1527C1.3643 21.4162 1.46836 19.6091 2.02559 17.9262C2.58281 16.2433 3.57642 14.7306 4.90124 13.5512L13.5181 5.8731C14.8508 4.68591 16.4799 3.87133 18.2288 3.51551ZM18.1684 3.21788C16.3949 3.57929 14.7154 4.40171 13.3167 5.64707L4.69759 13.3241C1.91817 15.7991 0.670561 19.5699 1.42472 23.2143C1.77383 24.9777 2.12965 26.7389 2.49218 28.5001C2.90618 30.5086 3.33026 32.5137 3.76328 34.5177C3.95126 35.4285 4.49506 37.437 6.18577 39.3358C7.3819 40.6786 8.92603 41.7124 10.6928 42.2976L26.8972 48.8154C27.1176 48.8881 27.3481 48.9005 27.5674 48.8557C27.7901 48.8109 28.0004 48.7069 28.1761 48.5513L40.4731 36.1379C43.2526 33.6629 44.5002 29.8921 43.746 26.2477L41.4075 14.9443C40.6533 11.2999 38.0126 8.33363 34.479 7.16434L23.5214 3.53789C21.7769 2.96052 19.9453 2.86429 18.2031 3.2134C18.1919 3.21564 18.1818 3.21788 18.1706 3.22011L18.1684 3.21788Z" fill="url(#paint39_radial_1297_9827)"/>
<path d="M20.3753 1.85641L20.4089 1.85306C22.2507 1.67291 24.117 1.97726 25.8066 2.73142L36.9501 7.7073C38.662 8.47153 40.148 9.67774 41.2479 11.195C42.3478 12.7123 43.0326 14.5003 43.2261 16.3645L44.4883 28.5026C44.6819 30.3668 44.3809 32.2578 43.6166 33.9686C42.8524 35.6806 41.6462 37.1665 40.1289 38.2664L40.1211 38.272L40.1133 38.2787L25.8715 50.0275C25.7216 50.1338 25.5459 50.1998 25.3635 50.2188C25.1834 50.2367 24.9999 50.2088 24.8331 50.136L8.48669 41.5684L8.47774 41.5639L8.46879 41.5594C6.75683 40.7952 5.27089 39.589 4.17098 38.0717C2.78127 36.1539 2.3281 34.2025 2.19271 32.8989C1.95102 30.7561 1.71605 28.5821 1.49338 26.4371C1.29868 24.5562 1.10958 22.6484 0.930556 20.7641C0.736981 18.9 1.03797 17.009 1.8022 15.2981C2.56643 13.5862 3.77264 12.1002 5.28991 11.0003L15.1712 3.83804C16.6985 2.7303 18.4989 2.04551 20.3753 1.85641ZM20.344 1.53752C18.4396 1.72886 16.5866 2.417 14.9832 3.57845L5.10193 10.7407C1.91633 13.0502 0.20437 16.8848 0.611661 20.7977C0.791808 22.6898 0.979789 24.5808 1.17448 26.4706C1.39715 28.6268 1.63101 30.7819 1.87381 32.9358C1.97564 33.9138 2.33369 36.0845 3.91139 38.2608C5.02696 39.8005 6.54199 41.0514 8.33788 41.8537L24.6933 50.4258C24.9171 50.5254 25.1588 50.5623 25.3949 50.5388C25.6332 50.5153 25.8659 50.4292 26.0673 50.2826L40.318 38.5271C43.5036 36.2177 45.2156 32.3842 44.8083 28.4702L43.5462 16.332C43.1389 12.418 40.675 9.01869 37.0821 7.41414L25.9387 2.43826C24.164 1.64605 22.2484 1.35066 20.3787 1.53304C20.3675 1.53304 20.3563 1.53528 20.344 1.5364V1.53752Z" fill="url(#paint40_radial_1297_9827)"/>
<path d="M22.8082 0.339036H22.844C24.7999 0.345749 26.7323 0.862695 28.4297 1.83505L39.6246 8.24987C41.3444 9.23565 42.78 10.6612 43.7758 12.3743C44.7728 14.0873 45.3021 16.0399 45.3088 18.0226L45.3513 30.925C45.358 32.9066 44.8399 34.8636 43.8553 36.5823C42.8695 38.3021 41.444 39.7377 39.7309 40.7335L39.722 40.7391L39.713 40.7447L23.4874 51.595C23.3184 51.6912 23.1271 51.7416 22.9324 51.7416C22.7377 51.7416 22.5508 51.6923 22.3841 51.5984L6.09698 40.8544L6.08802 40.8488L6.07907 40.8432C4.35928 39.8574 2.92369 38.4319 1.92784 36.7188C0.669044 34.5548 0.399382 32.4523 0.394906 31.0682C0.366933 28.789 0.350149 26.4773 0.344554 24.1969C0.338959 22.1973 0.342316 20.171 0.353505 18.1692C0.346792 16.1876 0.864857 14.2306 1.84952 12.5119C2.83529 10.7921 4.26081 9.3565 5.97389 8.36065L17.1263 1.87309C18.8505 0.870528 20.8165 0.340155 22.8116 0.340155M22.8082 0C20.7852 0 18.7621 0.527016 16.9528 1.57881L5.80046 8.06637C2.20422 10.1588 -0.00231452 14.0101 0.0111126 18.1703C-7.66575e-05 20.1799 -0.00231452 22.1884 0.0021612 24.198C0.00887479 26.4896 0.0256587 28.7811 0.0525131 31.0727C0.0558699 32.1133 0.20245 34.434 1.63132 36.89C2.64172 38.6277 4.10304 40.1047 5.90788 41.1386L22.2051 51.8893C22.43 52.018 22.6806 52.0829 22.9313 52.0829C23.1819 52.0829 23.4382 52.0168 23.6653 51.8848L39.901 41.0278C43.4972 38.9354 45.7038 35.0841 45.6903 30.9239L45.6478 18.0215C45.6344 13.8613 43.4021 10.0245 39.7924 7.9556L28.5975 1.54077C26.8151 0.520303 24.8301 0.00671358 22.8451 0C22.8328 0 22.8205 0 22.8082 0Z" fill="url(#paint41_radial_1297_9827)"/>
<defs>
<linearGradient id="paint0_linear_1297_9827" x1="31.3449" y1="23.3827" x2="15.7933" y2="30.6998" gradientUnits="userSpaceOnUse">
<stop/>
<stop offset="0.96" stop-color="#FF0000"/>
<stop offset="1" stop-color="#333333"/>
</linearGradient>
<linearGradient id="paint1_linear_1297_9827" x1="32.574" y1="24.672" x2="15.3852" y2="30.741" gradientUnits="userSpaceOnUse">
<stop/>
<stop offset="0.96" stop-color="#313131"/>
<stop offset="1" stop-color="#333333"/>
</linearGradient>
<linearGradient id="paint2_linear_1297_9827" x1="33.2658" y1="25.4071" x2="14.5435" y2="29.9701" gradientUnits="userSpaceOnUse">
<stop/>
<stop offset="0.96" stop-color="#313131"/>
<stop offset="1" stop-color="#333333"/>
</linearGradient>
<linearGradient id="paint3_linear_1297_9827" x1="33.5236" y1="25.6492" x2="13.4066" y2="28.4575" gradientUnits="userSpaceOnUse">
<stop/>
<stop offset="0.96" stop-color="#313131"/>
<stop offset="1" stop-color="#333333"/>
</linearGradient>
<linearGradient id="paint4_linear_1297_9827" x1="33.4407" y1="25.4646" x2="12.1028" y2="26.2832" gradientUnits="userSpaceOnUse">
<stop/>
<stop offset="0.96" stop-color="#313131"/>
<stop offset="1" stop-color="#333333"/>
</linearGradient>
<linearGradient id="paint5_linear_1297_9827" x1="33.1011" y1="24.9318" x2="10.7493" y2="23.544" gradientUnits="userSpaceOnUse">
<stop/>
<stop offset="0.96" stop-color="#313131"/>
<stop offset="1" stop-color="#333333"/>
</linearGradient>
<linearGradient id="paint6_linear_1297_9827" x1="34.971" y1="28.5648" x2="11.3284" y2="24.692" gradientUnits="userSpaceOnUse">
<stop/>
<stop offset="0.96" stop-color="#313131"/>
<stop offset="1" stop-color="#333333"/>
</linearGradient>
<linearGradient id="paint7_linear_1297_9827" x1="34.0024" y1="27.3001" x2="9.862" y2="20.8032" gradientUnits="userSpaceOnUse">
<stop/>
<stop offset="0.96" stop-color="#313131"/>
<stop offset="1" stop-color="#333333"/>
</linearGradient>
<linearGradient id="paint8_linear_1297_9827" x1="34.831" y1="29.766" x2="10.0025" y2="20.3281" gradientUnits="userSpaceOnUse">
<stop/>
<stop offset="0.96" stop-color="#313131"/>
<stop offset="1" stop-color="#333333"/>
</linearGradient>
<linearGradient id="paint9_linear_1297_9827" x1="35.1458" y1="31.6429" x2="9.99021" y2="19.0663" gradientUnits="userSpaceOnUse">
<stop/>
<stop offset="0.96" stop-color="#313131"/>
<stop offset="1" stop-color="#333333"/>
</linearGradient>
<linearGradient id="paint10_linear_1297_9827" x1="35.0514" y1="33.032" x2="9.96188" y2="17.1632" gradientUnits="userSpaceOnUse">
<stop/>
<stop offset="0.96" stop-color="#313131"/>
<stop offset="1" stop-color="#333333"/>
</linearGradient>
<linearGradient id="paint11_linear_1297_9827" x1="35.699" y1="36.9882" x2="10.6854" y2="17.4012" gradientUnits="userSpaceOnUse">
<stop/>
<stop offset="0.96" stop-color="#313131"/>
<stop offset="1" stop-color="#333333"/>
</linearGradient>
<linearGradient id="paint12_linear_1297_9827" x1="34.8236" y1="37.4448" x2="10.7708" y2="14.3685" gradientUnits="userSpaceOnUse">
<stop/>
<stop offset="0.96" stop-color="#313131"/>
<stop offset="1" stop-color="#333333"/>
</linearGradient>
<linearGradient id="paint13_linear_1297_9827" x1="34.4746" y1="40.1181" x2="11.5035" y2="13.1625" gradientUnits="userSpaceOnUse">
<stop/>
<stop offset="0.96" stop-color="#313131"/>
<stop offset="1" stop-color="#333333"/>
</linearGradient>
<linearGradient id="paint14_linear_1297_9827" x1="33.6811" y1="42.1995" x2="12.3406" y2="11.3651" gradientUnits="userSpaceOnUse">
<stop/>
<stop offset="0.96" stop-color="#313131"/>
<stop offset="1" stop-color="#333333"/>
</linearGradient>
<linearGradient id="paint15_linear_1297_9827" x1="32.5168" y1="43.8294" x2="13.3649" y2="9.1889" gradientUnits="userSpaceOnUse">
<stop/>
<stop offset="0.96" stop-color="#313131"/>
<stop offset="1" stop-color="#333333"/>
</linearGradient>
<linearGradient id="paint16_linear_1297_9827" x1="31.0332" y1="45.1473" x2="14.6283" y2="6.84807" gradientUnits="userSpaceOnUse">
<stop/>
<stop offset="0.96" stop-color="#313131"/>
<stop offset="1" stop-color="#333333"/>
</linearGradient>
<linearGradient id="paint17_linear_1297_9827" x1="29.5596" y1="47.542" x2="16.2941" y2="5.30759" gradientUnits="userSpaceOnUse">
<stop/>
<stop offset="0.96" stop-color="#313131"/>
<stop offset="1" stop-color="#333333"/>
</linearGradient>
<linearGradient id="paint18_linear_1297_9827" x1="27.4398" y1="48.3966" x2="18.0504" y2="3.00556" gradientUnits="userSpaceOnUse">
<stop/>
<stop offset="0.96" stop-color="#313131"/>
<stop offset="1" stop-color="#333333"/>
</linearGradient>
<linearGradient id="paint19_linear_1297_9827" x1="25.4878" y1="50.8525" x2="20.37" y2="1.63998" gradientUnits="userSpaceOnUse">
<stop/>
<stop offset="0.96" stop-color="#313131"/>
<stop offset="1" stop-color="#333333"/>
</linearGradient>
<linearGradient id="paint20_linear_1297_9827" x1="22.9268" y1="52.0817" x2="22.7567" y2="-2.2299e-06" gradientUnits="userSpaceOnUse">
<stop/>
<stop offset="0.96" stop-color="#313131"/>
<stop offset="1" stop-color="#333333"/>
</linearGradient>
<radialGradient id="paint21_radial_1297_9827" cx="0" cy="0" r="1" gradientUnits="userSpaceOnUse" gradientTransform="translate(22.8455 26.041) scale(24.4956)">
<stop stop-color="#CCCCCC"/>
<stop offset="1" stop-color="white"/>
</radialGradient>
<radialGradient id="paint22_radial_1297_9827" cx="0" cy="0" r="1" gradientUnits="userSpaceOnUse" gradientTransform="translate(22.8451 26.0409) scale(24.4956)">
<stop stop-color="#CCCCCC"/>
<stop offset="1" stop-color="white"/>
</radialGradient>
<radialGradient id="paint23_radial_1297_9827" cx="0" cy="0" r="1" gradientUnits="userSpaceOnUse" gradientTransform="translate(22.8441 26.0408) scale(24.4956 24.4956)">
<stop stop-color="#CCCCCC"/>
<stop offset="1" stop-color="white"/>
</radialGradient>
<radialGradient id="paint24_radial_1297_9827" cx="0" cy="0" r="1" gradientUnits="userSpaceOnUse" gradientTransform="translate(22.8455 26.0407) scale(24.4956 24.4956)">
<stop stop-color="#CCCCCC"/>
<stop offset="1" stop-color="white"/>
</radialGradient>
<radialGradient id="paint25_radial_1297_9827" cx="0" cy="0" r="1" gradientUnits="userSpaceOnUse" gradientTransform="translate(22.8465 26.0405) scale(24.4956)">
<stop stop-color="#CCCCCC"/>
<stop offset="1" stop-color="white"/>
</radialGradient>
<radialGradient id="paint26_radial_1297_9827" cx="0" cy="0" r="1" gradientUnits="userSpaceOnUse" gradientTransform="translate(22.845 26.0409) scale(24.4956 24.4956)">
<stop stop-color="#CCCCCC"/>
<stop offset="1" stop-color="white"/>
</radialGradient>
<radialGradient id="paint27_radial_1297_9827" cx="0" cy="0" r="1" gradientUnits="userSpaceOnUse" gradientTransform="translate(22.8454 26.0409) scale(24.4956)">
<stop stop-color="#CCCCCC"/>
<stop offset="1" stop-color="white"/>
</radialGradient>
<radialGradient id="paint28_radial_1297_9827" cx="0" cy="0" r="1" gradientUnits="userSpaceOnUse" gradientTransform="translate(22.8433 26.0406) scale(24.4956 24.4956)">
<stop stop-color="#CCCCCC"/>
<stop offset="1" stop-color="white"/>
</radialGradient>
<radialGradient id="paint29_radial_1297_9827" cx="0" cy="0" r="1" gradientUnits="userSpaceOnUse" gradientTransform="translate(22.8449 26.041) scale(24.4956 24.4956)">
<stop stop-color="#CCCCCC"/>
<stop offset="1" stop-color="white"/>
</radialGradient>
<radialGradient id="paint30_radial_1297_9827" cx="0" cy="0" r="1" gradientUnits="userSpaceOnUse" gradientTransform="translate(22.8446 26.0408) scale(24.4956 24.4956)">
<stop stop-color="#CCCCCC"/>
<stop offset="1" stop-color="white"/>
</radialGradient>
<radialGradient id="paint31_radial_1297_9827" cx="0" cy="0" r="1" gradientUnits="userSpaceOnUse" gradientTransform="translate(22.8456 26.0409) scale(24.4956 24.4956)">
<stop stop-color="#CCCCCC"/>
<stop offset="1" stop-color="white"/>
</radialGradient>
<radialGradient id="paint32_radial_1297_9827" cx="0" cy="0" r="1" gradientUnits="userSpaceOnUse" gradientTransform="translate(22.8449 26.0405) scale(24.4956 24.4956)">
<stop stop-color="#CCCCCC"/>
<stop offset="1" stop-color="white"/>
</radialGradient>
<radialGradient id="paint33_radial_1297_9827" cx="0" cy="0" r="1" gradientUnits="userSpaceOnUse" gradientTransform="translate(22.8458 26.0406) scale(24.4956)">
<stop stop-color="#CCCCCC"/>
<stop offset="1" stop-color="white"/>
</radialGradient>
<radialGradient id="paint34_radial_1297_9827" cx="0" cy="0" r="1" gradientUnits="userSpaceOnUse" gradientTransform="translate(22.8451 26.0412) scale(24.4956 24.4956)">
<stop stop-color="#CCCCCC"/>
<stop offset="1" stop-color="white"/>
</radialGradient>
<radialGradient id="paint35_radial_1297_9827" cx="0" cy="0" r="1" gradientUnits="userSpaceOnUse" gradientTransform="translate(22.8454 26.0409) scale(24.4956)">
<stop stop-color="#CCCCCC"/>
<stop offset="1" stop-color="white"/>
</radialGradient>
<radialGradient id="paint36_radial_1297_9827" cx="0" cy="0" r="1" gradientUnits="userSpaceOnUse" gradientTransform="translate(22.845 26.0407) scale(24.4956 24.4956)">
<stop stop-color="#CCCCCC"/>
<stop offset="1" stop-color="white"/>
</radialGradient>
<radialGradient id="paint37_radial_1297_9827" cx="0" cy="0" r="1" gradientUnits="userSpaceOnUse" gradientTransform="translate(22.8465 26.0405) scale(24.4956 24.4956)">
<stop stop-color="#CCCCCC"/>
<stop offset="1" stop-color="white"/>
</radialGradient>
<radialGradient id="paint38_radial_1297_9827" cx="0" cy="0" r="1" gradientUnits="userSpaceOnUse" gradientTransform="translate(22.8445 26.0411) scale(24.4956 24.4956)">
<stop stop-color="#CCCCCC"/>
<stop offset="1" stop-color="white"/>
</radialGradient>
<radialGradient id="paint39_radial_1297_9827" cx="0" cy="0" r="1" gradientUnits="userSpaceOnUse" gradientTransform="translate(22.8455 26.0407) scale(24.4956 24.4956)">
<stop stop-color="#CCCCCC"/>
<stop offset="1" stop-color="white"/>
</radialGradient>
<radialGradient id="paint40_radial_1297_9827" cx="0" cy="0" r="1" gradientUnits="userSpaceOnUse" gradientTransform="translate(22.8459 26.041) scale(24.4956 24.4956)">
<stop stop-color="#CCCCCC"/>
<stop offset="1" stop-color="white"/>
</radialGradient>
<radialGradient id="paint41_radial_1297_9827" cx="0" cy="0" r="1" gradientUnits="userSpaceOnUse" gradientTransform="translate(22.8451 26.0409) scale(24.4956)">
<stop stop-color="#CCCCCC"/>
<stop offset="1" stop-color="white"/>
</radialGradient>
</defs>
</svg>
