<svg width="12" height="12" viewBox="0 0 12 12" fill="none" xmlns="http://www.w3.org/2000/svg">
<path d="M0.689409 0.48247H11.7144V11.5075H0.689409V0.48247ZM9.8441 3.11567V2.99263H7.80152L6.32496 6.6102L4.67613 2.96802H2.53511V3.11567L3.22417 3.92778C3.27339 4.00161 3.32261 4.10005 3.298 4.17388V7.44692C3.32261 7.56997 3.298 7.69302 3.19957 7.76685L2.43667 8.72661V8.84966H4.65152V8.72661L3.86402 7.76685C3.79019 7.69302 3.74097 7.56997 3.76558 7.44692V4.61685L5.68511 8.84966H5.9066L7.58003 4.61685V7.98833C7.58003 8.08677 7.58003 8.08677 7.53082 8.1606L6.91558 8.72661V8.84966H9.81949V8.72661L9.25347 8.1606C9.20425 8.13599 9.17964 8.06216 9.17964 8.01294V3.82935C9.17964 3.78013 9.20425 3.7063 9.25347 3.68169L9.8441 3.11567Z" fill="#FAFAFA"/>
</svg>
