<svg width="24" height="24" viewBox="0 0 24 24" fill="none" xmlns="http://www.w3.org/2000/svg">
<path d="M3.61856 4.83984H6.56289H3.61856H6.56289C7.4125 4.86914 8.04238 5.26465 8.45254 6.02637L9.2875 7.65234H14.9125L15.7475 6.02637C16.1576 5.26465 16.7875 4.86914 17.6371 4.83984H20.5814L18.8236 2.73047H5.33242L3.57461 4.83984H3.61856ZM2.95938 6.94922V11.168V6.94922V11.168H21.2406V6.94922H17.6371L16.8021 8.61914C16.392 9.35156 15.7621 9.73242 14.9125 9.76172H9.2875C8.43789 9.73242 7.80801 9.35156 7.39785 8.61914L6.56289 6.94922H2.95938ZM0.85 6.94922V5.58691V6.94922V5.58691C0.85 5.08887 1.01113 4.64941 1.3334 4.26855L3.75039 1.36816C4.16055 0.870117 4.70254 0.621094 5.37637 0.621094H18.8676C19.5121 0.621094 20.0395 0.870117 20.4496 1.36816L22.8666 4.26855C23.1889 4.64941 23.35 5.08887 23.35 5.58691V6.94922V11.168C23.3207 11.7539 23.1156 12.252 22.7348 12.6621C22.3246 13.043 21.8266 13.248 21.2406 13.2773H2.95938C2.37344 13.248 1.87539 13.043 1.46523 12.6621C1.08438 12.252 0.879297 11.7539 0.85 11.168V6.94922ZM14.473 19.6055H9.72695H14.473H9.72695C8.58438 19.5762 7.74941 19.0635 7.22207 18.0674L6.56289 16.793H2.95938V21.0117H21.2406V16.793H17.6371L16.9779 18.0674L15.1322 17.1006L16.9779 18.0674C16.4506 19.0635 15.6156 19.5762 14.473 19.6055ZM2.95938 14.6836H6.56289H2.95938H6.56289C7.4125 14.7129 8.04238 15.1084 8.45254 15.8701L9.11172 17.1006C9.22891 17.3643 9.43398 17.4961 9.72695 17.4961H14.473C14.766 17.4961 14.9711 17.3643 15.0883 17.1006L15.7475 15.8701C16.1576 15.1084 16.7875 14.7129 17.6371 14.6836H21.2406C21.8266 14.7129 22.3246 14.918 22.7348 15.2988C23.1156 15.709 23.3207 16.207 23.35 16.793V21.0117C23.3207 21.5977 23.1156 22.0957 22.7348 22.5059C22.3246 22.8867 21.8266 23.0918 21.2406 23.1211H2.95938C2.37344 23.0918 1.87539 22.8867 1.46523 22.5059C1.08438 22.0957 0.879297 21.5977 0.85 21.0117V16.793C0.879297 16.207 1.08438 15.709 1.46523 15.2988C1.87539 14.918 2.37344 14.7129 2.95938 14.6836Z" fill="#CC9A06"/>
</svg>
