<svg width="151" height="47" viewBox="0 0 151 47" fill="none" xmlns="http://www.w3.org/2000/svg">
<g clip-path="url(#clip0_190_33569)">
<g clip-path="url(#clip1_190_33569)">
<path d="M124.01 23.8117C123.352 23.3767 122.626 23.0673 121.938 22.6806C121.493 22.4292 121.018 22.2068 120.631 21.8878C119.973 21.3464 120.109 20.2829 120.796 19.8189C121.783 19.1614 123.419 19.5288 123.594 20.8727C123.594 20.9017 123.623 20.921 123.652 20.921H125.143C125.181 20.921 125.21 20.892 125.201 20.8533C125.123 19.9252 124.765 19.1517 124.107 18.6587C123.477 18.1849 122.761 17.9336 121.996 17.9336C118.056 17.9336 117.698 22.1005 119.818 23.4153C120.06 23.57 122.142 24.6142 122.878 25.0685C123.613 25.5229 123.845 26.3544 123.526 27.0118C123.236 27.6112 122.48 28.027 121.725 27.9786C120.903 27.9303 120.263 27.4855 120.041 26.7895C120.002 26.6638 119.982 26.422 119.982 26.3157C119.982 26.2867 119.954 26.2577 119.925 26.2577H118.308C118.279 26.2577 118.25 26.2867 118.25 26.3157C118.25 27.4855 118.54 28.1333 119.334 28.723C120.08 29.2838 120.893 29.5158 121.735 29.5158C123.942 29.5158 125.085 28.2686 125.317 26.9732C125.52 25.7066 125.143 24.5658 124.01 23.8117Z" fill="white"/>
<path d="M53.8146 18.1465H53.0984H52.3142C52.2851 18.1465 52.2659 18.1658 52.256 18.1852L50.9299 22.5551C50.9103 22.6131 50.8329 22.6131 50.8137 22.5551L49.4871 18.1852C49.4777 18.1562 49.4581 18.1465 49.429 18.1465H48.6448H47.9285H46.9604C46.9314 18.1465 46.9023 18.1755 46.9023 18.2045V29.3614C46.9023 29.3903 46.9314 29.4194 46.9604 29.4194H48.5773C48.6063 29.4194 48.6354 29.3903 48.6354 29.3614V20.8825C48.6354 20.8148 48.732 20.8052 48.7517 20.8632L50.0876 25.2621L50.1842 25.5715C50.194 25.6005 50.2132 25.6102 50.2423 25.6102H51.4817C51.5107 25.6102 51.5299 25.5908 51.5398 25.5715L51.6363 25.2621L52.9723 20.8632C52.992 20.7955 53.0885 20.8148 53.0885 20.8825V29.3614C53.0885 29.3903 53.1176 29.4194 53.1467 29.4194H54.7634C54.7924 29.4194 54.8215 29.3903 54.8215 29.3614V18.2045C54.8215 18.1755 54.7924 18.1465 54.7634 18.1465H53.8146Z" fill="white"/>
<path d="M99.2573 18.1465C99.2283 18.1465 99.2091 18.1658 99.1992 18.1852L97.8731 22.5551C97.8534 22.6131 97.7761 22.6131 97.7569 22.5551L96.4303 18.1852C96.4209 18.1562 96.4012 18.1465 96.3722 18.1465H93.9136C93.8845 18.1465 93.8555 18.1755 93.8555 18.2045V29.3614C93.8555 29.3903 93.8845 29.4194 93.9136 29.4194H95.5303C95.5594 29.4194 95.5884 29.3903 95.5884 29.3614V20.8825C95.5884 20.8148 95.685 20.8052 95.7042 20.8632L97.0406 25.2621L97.1372 25.5715C97.147 25.6005 97.1662 25.6102 97.1953 25.6102H98.4347C98.4637 25.6102 98.483 25.5908 98.4923 25.5715L98.5894 25.2621L99.9253 20.8632C99.9445 20.7955 100.042 20.8148 100.042 20.8825V29.3614C100.042 29.3903 100.071 29.4194 100.1 29.4194H101.716C101.745 29.4194 101.775 29.3903 101.775 29.3614V18.2045C101.775 18.1755 101.745 18.1465 101.716 18.1465H99.2573Z" fill="white"/>
<path d="M78.4034 18.1465H75.3927H73.7759H70.7652C70.7361 18.1465 70.707 18.1755 70.707 18.2045V19.5967C70.707 19.6257 70.7361 19.6547 70.7652 19.6547H73.7178V29.3614C73.7178 29.3903 73.7469 29.4194 73.7759 29.4194H75.3927C75.4217 29.4194 75.4508 29.3903 75.4508 29.3614V19.6547H78.4034C78.4325 19.6547 78.4616 19.6257 78.4616 19.5967V18.2045C78.4616 18.1755 78.4423 18.1465 78.4034 18.1465Z" fill="white"/>
<path d="M87.9391 29.419H89.4105C89.449 29.419 89.478 29.3803 89.4686 29.3416L86.4288 18.1461C86.419 18.1171 86.3997 18.1074 86.3707 18.1074H85.8091H84.8215H84.2599C84.2308 18.1074 84.2116 18.1268 84.2018 18.1461L81.1619 29.3416C81.1526 29.3803 81.1816 29.419 81.2201 29.419H82.6919C82.721 29.419 82.7402 29.3996 82.7496 29.3803L83.6308 26.1222C83.6407 26.0932 83.6599 26.0835 83.689 26.0835H86.9416C86.9707 26.0835 86.9904 26.1028 86.9997 26.1222L87.881 29.3803C87.8904 29.3996 87.9194 29.419 87.9391 29.419ZM84.0762 24.4883L85.2574 20.1281C85.2766 20.07 85.354 20.07 85.3732 20.1281L86.5544 24.4883C86.5643 24.527 86.5352 24.5656 86.4963 24.5656H84.1343C84.0954 24.5656 84.0663 24.527 84.0762 24.4883Z" fill="white"/>
<path d="M113.033 29.419H114.504C114.543 29.419 114.572 29.3803 114.562 29.3416L111.523 18.1461C111.513 18.1171 111.493 18.1074 111.464 18.1074H110.903H109.915H109.354C109.325 18.1074 109.305 18.1268 109.296 18.1461L106.256 29.3416C106.246 29.3803 106.275 29.419 106.314 29.419H107.786C107.814 29.419 107.834 29.3996 107.843 29.3803L108.725 26.1222C108.734 26.0932 108.754 26.0835 108.783 26.0835H112.035C112.064 26.0835 112.084 26.1028 112.093 26.1222L112.975 29.3803C112.984 29.3996 113.004 29.419 113.033 29.419ZM109.17 24.4883L110.351 20.1281C110.37 20.07 110.448 20.07 110.467 20.1281L111.648 24.4883C111.658 24.527 111.629 24.5656 111.59 24.5656H109.228C109.189 24.5656 109.16 24.527 109.17 24.4883Z" fill="white"/>
<path d="M61.3853 27.7662V24.3051C61.3853 24.2761 61.4144 24.247 61.4434 24.247H65.7517C65.7803 24.247 65.8094 24.218 65.8094 24.1891V22.7969C65.8094 22.7679 65.7803 22.7388 65.7517 22.7388H61.4434C61.4144 22.7388 61.3853 22.7098 61.3853 22.6809V19.7224C61.3853 19.6934 61.4144 19.6645 61.4434 19.6645H66.3419C66.3709 19.6645 66.4 19.6354 66.4 19.6064V18.2142C66.4 18.1852 66.3709 18.1562 66.3419 18.1562H61.3853H59.7105C59.6814 18.1562 59.6523 18.1852 59.6523 18.2142V19.6645V22.7485V24.2567V27.8339V29.3614C59.6523 29.3904 59.6814 29.4194 59.7105 29.4194H61.3853H66.5453C66.5744 29.4194 66.6034 29.3904 66.6034 29.3614V27.8919C66.6034 27.8629 66.5744 27.8339 66.5453 27.8339H61.4336C61.4045 27.8242 61.3853 27.8049 61.3853 27.7662Z" fill="white"/>
<path d="M138.785 29.3227L133.189 23.551C133.17 23.5316 133.17 23.493 133.189 23.4736L138.223 18.2529C138.262 18.2142 138.233 18.1562 138.184 18.1562H136.122C136.103 18.1562 136.093 18.1659 136.084 18.1756L131.814 22.6035C131.775 22.6422 131.717 22.6132 131.717 22.5648V18.2142C131.717 18.1852 131.688 18.1562 131.659 18.1562H130.042C130.013 18.1562 129.984 18.1852 129.984 18.2142V29.3711C129.984 29.4001 130.013 29.4291 130.042 29.4291H131.659C131.688 29.4291 131.717 29.4001 131.717 29.3711V24.4598C131.717 24.4114 131.785 24.3824 131.814 24.4211L136.655 29.4098C136.665 29.4194 136.684 29.4291 136.694 29.4291H138.756C138.795 29.4194 138.824 29.3517 138.785 29.3227Z" fill="white"/>
<path d="M35.854 12.1426L26.0664 19.3935L27.8865 15.1203L35.854 12.1426Z" fill="#E17726" stroke="#E17726" stroke-width="0.46875" stroke-linecap="round" stroke-linejoin="round"/>
<path d="M13.2773 12.1426L22.9779 19.4612L21.2449 15.1203L13.2773 12.1426Z" fill="#E27625" stroke="#E27625" stroke-width="0.46875" stroke-linecap="round" stroke-linejoin="round"/>
<path d="M32.3308 28.9551L29.7266 32.9383L35.3029 34.4755L36.9003 29.0421L32.3308 28.9551Z" fill="#E27625" stroke="#E27625" stroke-width="0.46875" stroke-linecap="round" stroke-linejoin="round"/>
<path d="M12.2422 29.0421L13.8299 34.4755L19.3966 32.9383L16.802 28.9551L12.2422 29.0421Z" fill="#E27625" stroke="#E27625" stroke-width="0.46875" stroke-linecap="round" stroke-linejoin="round"/>
<path d="M19.0959 22.2259L17.5469 24.5655L23.0651 24.8169L22.8812 18.8711L19.0959 22.2259Z" fill="#E27625" stroke="#E27625" stroke-width="0.46875" stroke-linecap="round" stroke-linejoin="round"/>
<path d="M30.0357 22.2271L26.1923 18.8047L26.0664 24.8181L31.5847 24.5668L30.0357 22.2271Z" fill="#E27625" stroke="#E27625" stroke-width="0.46875" stroke-linecap="round" stroke-linejoin="round"/>
<path d="M19.3984 32.9376L22.7384 31.323L19.8631 29.0801L19.3984 32.9376Z" fill="#E27625" stroke="#E27625" stroke-width="0.46875" stroke-linecap="round" stroke-linejoin="round"/>
<path d="M26.3945 31.323L29.7249 32.9376L29.2698 29.0801L26.3945 31.323Z" fill="#E27625" stroke="#E27625" stroke-width="0.46875" stroke-linecap="round" stroke-linejoin="round"/>
<path d="M29.7249 32.9388L26.3945 31.3242L26.6656 33.4898L26.6365 34.4083L29.7249 32.9388Z" fill="#D5BFB2" stroke="#D5BFB2" stroke-width="0.46875" stroke-linecap="round" stroke-linejoin="round"/>
<path d="M19.3984 32.9388L22.4964 34.4083L22.477 33.4898L22.7384 31.3242L19.3984 32.9388Z" fill="#D5BFB2" stroke="#D5BFB2" stroke-width="0.46875" stroke-linecap="round" stroke-linejoin="round"/>
<path d="M22.554 27.6507L19.7852 26.8386L21.7407 25.9395L22.554 27.6507Z" fill="#233447" stroke="#233447" stroke-width="0.46875" stroke-linecap="round" stroke-linejoin="round"/>
<path d="M26.582 27.6507L27.3953 25.9395L29.3605 26.8386L26.582 27.6507Z" fill="#233447" stroke="#233447" stroke-width="0.46875" stroke-linecap="round" stroke-linejoin="round"/>
<path d="M19.3954 32.9383L19.8794 28.9551L16.8008 29.0421L19.3954 32.9383Z" fill="#CC6228" stroke="#CC6228" stroke-width="0.46875" stroke-linecap="round" stroke-linejoin="round"/>
<path d="M29.2539 28.9551L29.7283 32.9383L32.3325 29.0421L29.2539 28.9551Z" fill="#CC6228" stroke="#CC6228" stroke-width="0.46875" stroke-linecap="round" stroke-linejoin="round"/>
<path d="M31.5847 24.5664L26.0664 24.8177L26.5795 27.6505L27.3927 25.9392L29.358 26.8383L31.5847 24.5664Z" fill="#CC6228" stroke="#CC6228" stroke-width="0.46875" stroke-linecap="round" stroke-linejoin="round"/>
<path d="M19.7832 26.8383L21.7388 25.9392L22.552 27.6505L23.0651 24.8177L17.5469 24.5664L19.7832 26.8383Z" fill="#CC6228" stroke="#CC6228" stroke-width="0.46875" stroke-linecap="round" stroke-linejoin="round"/>
<path d="M17.5469 24.5664L19.8607 29.0814L19.7832 26.8383L17.5469 24.5664Z" fill="#E27525" stroke="#E27525" stroke-width="0.46875" stroke-linecap="round" stroke-linejoin="round"/>
<path d="M29.3606 26.8383L29.2734 29.0814L31.5872 24.5664L29.3606 26.8383Z" fill="#E27525" stroke="#E27525" stroke-width="0.46875" stroke-linecap="round" stroke-linejoin="round"/>
<path d="M23.0678 24.8164L22.5547 27.6491L23.2033 30.9942L23.3486 26.5857L23.0678 24.8164Z" fill="#E27525" stroke="#E27525" stroke-width="0.46875" stroke-linecap="round" stroke-linejoin="round"/>
<path d="M26.068 24.8164L25.7969 26.576L25.9324 30.9942L26.581 27.6491L26.068 24.8164Z" fill="#E27525" stroke="#E27525" stroke-width="0.46875" stroke-linecap="round" stroke-linejoin="round"/>
<path d="M26.5822 27.65L25.9336 30.9951L26.3983 31.3238L29.2736 29.0809L29.3607 26.8379L26.5822 27.65Z" fill="#F5841F" stroke="#F5841F" stroke-width="0.46875" stroke-linecap="round" stroke-linejoin="round"/>
<path d="M19.7852 26.8379L19.8626 29.0809L22.7379 31.3238L23.2026 30.9951L22.554 27.65L19.7852 26.8379Z" fill="#F5841F" stroke="#F5841F" stroke-width="0.46875" stroke-linecap="round" stroke-linejoin="round"/>
<path d="M26.64 34.407L26.669 33.4886L26.4173 33.2758H22.7191L22.477 33.4886L22.4964 34.407L19.3984 32.9375L20.4827 33.827L22.6803 35.3448H26.4463L28.6536 33.827L29.7282 32.9375L26.64 34.407Z" fill="#C0AC9D" stroke="#C0AC9D" stroke-width="0.46875" stroke-linecap="round" stroke-linejoin="round"/>
<path d="M26.3974 31.3248L25.9327 30.9961H23.2027L22.7379 31.3248L22.4766 33.4904L22.7186 33.2777H26.4168L26.6685 33.4904L26.3974 31.3248Z" fill="#161616" stroke="#161616" stroke-width="0.46875" stroke-linecap="round" stroke-linejoin="round"/>
<path d="M36.2693 19.8673L37.0922 15.8647L35.853 12.1426L26.3945 19.1518L30.0347 22.2263L35.1753 23.7248L36.3081 22.4003L35.8143 22.0426L36.5985 21.3271L35.9982 20.8631L36.7825 20.2637L36.2693 19.8673Z" fill="#763E1A" stroke="#763E1A" stroke-width="0.46875" stroke-linecap="round" stroke-linejoin="round"/>
<path d="M12.0391 15.8647L12.8717 19.8673L12.3392 20.2637L13.133 20.8631L12.5328 21.3271L13.317 22.0426L12.8232 22.4003L13.9559 23.7248L19.0966 22.2263L22.7367 19.1518L13.2783 12.1426L12.0391 15.8647Z" fill="#763E1A" stroke="#763E1A" stroke-width="0.46875" stroke-linecap="round" stroke-linejoin="round"/>
<path d="M35.1789 23.7251L30.0383 22.2266L31.5872 24.5662L29.2734 29.0811L32.3327 29.0425H36.9022L35.1789 23.7251Z" fill="#F5841F" stroke="#F5841F" stroke-width="0.46875" stroke-linecap="round" stroke-linejoin="round"/>
<path d="M19.0964 22.2266L13.9557 23.7251L12.2422 29.0425H16.802L19.8612 29.0811L17.5475 24.5662L19.0964 22.2266Z" fill="#F5841F" stroke="#F5841F" stroke-width="0.46875" stroke-linecap="round" stroke-linejoin="round"/>
<path d="M26.0673 24.8181L26.3965 19.1527L27.8874 15.1211H21.2461L22.737 19.1527L23.0662 24.8181L23.192 26.597L23.2017 30.9959H25.9318L25.9415 26.597L26.0673 24.8181Z" fill="#F5841F" stroke="#F5841F" stroke-width="0.46875" stroke-linecap="round" stroke-linejoin="round"/>
</g>
</g>
<defs>
<clipPath id="clip0_190_33569">
<rect width="150" height="46.41" fill="white" transform="translate(0.421875 0.539062)"/>
</clipPath>
<clipPath id="clip1_190_33569">
<rect width="150" height="46.41" fill="white" transform="translate(0.421875 0.539062)"/>
</clipPath>
</defs>
</svg>
