<svg width="12" height="15" viewBox="0 0 12 15" fill="none" xmlns="http://www.w3.org/2000/svg">
<path d="M8.02436 1.76172V2.21484V1.76172V2.21484C8.02436 2.47917 7.9394 2.69629 7.76947 2.86621C7.59955 3.03613 7.38243 3.12109 7.11811 3.12109H5.30561C5.04128 3.12109 4.82416 3.03613 4.65424 2.86621C4.48432 2.69629 4.39936 2.47917 4.39936 2.21484V1.76172H2.58686C2.30365 1.7806 2.15261 1.93164 2.13373 2.21484V13.0898C2.15261 13.373 2.30365 13.5241 2.58686 13.543H9.83686C10.1201 13.5241 10.2711 13.373 10.29 13.0898V2.21484C10.2711 1.93164 10.1201 1.7806 9.83686 1.76172H8.02436ZM0.774357 2.21484C0.793238 1.70508 0.9726 1.28027 1.31244 0.94043C1.65229 0.600586 2.07709 0.421224 2.58686 0.402344H9.83686C10.3466 0.421224 10.7714 0.600586 11.1113 0.94043C11.4511 1.28027 11.6305 1.70508 11.6494 2.21484V13.0898C11.6305 13.5996 11.4511 14.0244 11.1113 14.3643C10.7714 14.7041 10.3466 14.8835 9.83686 14.9023H2.58686C2.07709 14.8835 1.65229 14.7041 1.31244 14.3643C0.9726 14.0244 0.793238 13.5996 0.774357 13.0898V2.21484ZM5.30561 9.46484H7.11811H5.30561H7.11811C7.76003 9.48372 8.29812 9.70085 8.73237 10.1162C9.14773 10.5505 9.36485 11.0885 9.38373 11.7305C9.36485 12.0137 9.21381 12.1647 8.93061 12.1836H3.49311C3.2099 12.1647 3.05886 12.0137 3.03998 11.7305C3.05886 11.0885 3.27598 10.5505 3.69135 10.1162C4.12559 9.70085 4.66368 9.48372 5.30561 9.46484ZM4.39936 6.74609C4.41824 6.06641 4.72032 5.5472 5.30561 5.18848C5.90977 4.84863 6.51394 4.84863 7.11811 5.18848C7.70339 5.5472 8.00548 6.06641 8.02436 6.74609C8.00548 7.42578 7.70339 7.94499 7.11811 8.30371C6.51394 8.64355 5.90977 8.64355 5.30561 8.30371C4.72032 7.94499 4.41824 7.42578 4.39936 6.74609Z" fill="#BBBBBB"/>
</svg>
