<svg width="17" height="12" viewBox="0 0 17 12" fill="none" xmlns="http://www.w3.org/2000/svg">
<path d="M1.44383 4.42383V9.4082C1.46271 9.69141 1.61375 9.84245 1.89695 9.86133H6.88133V4.42383C6.86245 3.64974 6.59812 3.00781 6.08836 2.49805C5.57859 1.98828 4.93667 1.72396 4.16258 1.70508C3.38849 1.72396 2.74656 1.98828 2.2368 2.49805C1.72703 3.00781 1.46271 3.64974 1.44383 4.42383ZM6.88133 11.2207H1.89695C1.38719 11.2018 0.962382 11.0225 0.622539 10.6826C0.282695 10.3428 0.103333 9.91797 0.0844526 9.4082V4.42383C0.122213 3.27214 0.518697 2.30924 1.27391 1.53516C2.04799 0.779948 3.01088 0.383464 4.16258 0.345703H12.3188C13.4705 0.383464 14.4334 0.779948 15.2075 1.53516C15.9627 2.30924 16.3592 3.27214 16.397 4.42383V9.4082C16.3781 9.91797 16.1987 10.3428 15.8589 10.6826C15.519 11.0225 15.0942 11.2018 14.5845 11.2207H6.88133H8.2407H6.88133ZM8.2407 4.42383V9.86133H14.5845C14.8677 9.84245 15.0187 9.69141 15.0376 9.4082V4.42383C15.0187 3.64974 14.7544 3.00781 14.2446 2.49805C13.7348 1.98828 13.0929 1.72396 12.3188 1.70508H7.19285C7.87254 2.44141 8.22182 3.34766 8.2407 4.42383ZM3.02977 3.9707H5.29539C5.71075 4.00846 5.93732 4.23503 5.97508 4.65039C5.93732 5.06576 5.71075 5.29232 5.29539 5.33008H3.02977C2.6144 5.29232 2.38784 5.06576 2.35008 4.65039C2.38784 4.23503 2.6144 4.00846 3.02977 3.9707ZM10.2798 3.9707H12.5454H12.9985C13.4139 4.00846 13.6404 4.23503 13.6782 4.65039V6.00977C13.6404 6.42513 13.4139 6.65169 12.9985 6.68945H12.5454C12.13 6.65169 11.9035 6.42513 11.8657 6.00977V5.33008H10.2798C9.8644 5.29232 9.63784 5.06576 9.60008 4.65039C9.63784 4.23503 9.8644 4.00846 10.2798 3.9707Z" fill="#BBBBBB"/>
</svg>
