<svg width="25" height="25" viewBox="0 0 25 25" fill="none" xmlns="http://www.w3.org/2000/svg">
<g clip-path="url(#clip0_46_14248)">
<g clip-path="url(#clip1_46_14248)">
<path d="M14.0633 1.58811L21.6587 5.97324C22.3845 6.3923 22.8316 7.16675 22.8316 8.00485V16.7751C22.8316 17.6132 22.3845 18.3877 21.6587 18.8067L14.0633 23.1919C13.3375 23.6109 12.4433 23.6109 11.7175 23.1919L4.12215 18.8067C3.39634 18.3877 2.94922 17.6132 2.94922 16.7751V8.00485C2.94922 7.16675 3.39634 6.3923 4.12215 5.97324L11.7175 1.58811C12.4433 1.16906 13.3375 1.16906 14.0633 1.58811Z" stroke="#96A0AB" stroke-width="0.902256"/>
<path d="M5.51866 17.1719C5.23018 17.1719 5.08594 17.0728 5.08594 16.8745V7.95063C5.08594 7.75231 5.23018 7.65315 5.51866 7.65315H5.79195C5.90582 7.65315 5.99695 7.67571 6.06525 7.72078C6.13359 7.75682 6.19052 7.8244 6.23604 7.92356L8.87794 13.9675C8.98422 14.2018 9.08289 14.4858 9.17401 14.8193L9.23094 14.7923C9.17018 14.4768 9.13982 14.1793 9.13982 13.8999V7.95063C9.13982 7.75231 9.28409 7.65315 9.57254 7.65315H9.70919C9.99768 7.65315 10.1419 7.75231 10.1419 7.95063V16.8745C10.1419 17.0728 9.99768 17.1719 9.70919 17.1719H9.47009C9.25752 17.1719 9.12087 17.1043 9.0601 16.9691L6.34995 10.7224C6.24367 10.488 6.14496 10.2041 6.05388 9.87058L5.99695 9.89765C6.05767 10.2131 6.08803 10.5106 6.08803 10.79V16.8745C6.08803 17.0728 5.9438 17.1719 5.65531 17.1719H5.51866Z" fill="#96A0AB"/>
<path d="M12.2921 17.172C12.0036 17.172 11.8594 17.0728 11.8594 16.8745V8.08583C11.8594 7.9416 11.8822 7.83794 11.9277 7.77482C11.9809 7.71176 12.0606 7.68018 12.1669 7.68018H15.1276C15.2718 7.68018 15.3439 7.81542 15.3439 8.08583V8.30215C15.3439 8.5726 15.2718 8.7078 15.1276 8.7078H12.8842V12.061H14.9339C15.0782 12.061 15.1503 12.1962 15.1503 12.4666V12.683C15.1503 12.9534 15.0782 13.0886 14.9339 13.0886H12.8842V16.8745C12.8842 17.0728 12.74 17.172 12.4515 17.172H12.2921Z" fill="#96A0AB"/>
<path d="M18.3045 17.172C18.016 17.172 17.8717 17.0728 17.8717 16.8745V8.7078H16.232C16.0878 8.7078 16.0156 8.5726 16.0156 8.30215V8.08583C16.0156 7.81542 16.0878 7.68018 16.232 7.68018H20.5136C20.5971 7.68018 20.6541 7.71176 20.6844 7.77482C20.7224 7.83794 20.7414 7.9416 20.7414 8.08583V8.30215C20.7414 8.44637 20.7224 8.55004 20.6844 8.61315C20.6541 8.67627 20.5971 8.7078 20.5136 8.7078H18.8966V16.8745C18.8966 17.0728 18.7524 17.172 18.4639 17.172H18.3045Z" fill="#96A0AB"/>
</g>
</g>
<defs>
<clipPath id="clip0_46_14248">
<rect width="24" height="24" fill="white" transform="translate(0.890625 0.389999)"/>
</clipPath>
<clipPath id="clip1_46_14248">
<rect width="24" height="24" fill="white" transform="translate(0.890625 0.389999)"/>
</clipPath>
</defs>
</svg>
