<svg width="10" height="13" viewBox="0 0 10 13" fill="none" xmlns="http://www.w3.org/2000/svg">
<path d="M8.15264 11.5539C8.39873 11.5375 8.52998 11.4063 8.54639 11.1602V4.07266H6.57764C6.34795 4.07266 6.15928 3.99883 6.01162 3.85117C5.86397 3.70352 5.79014 3.51484 5.79014 3.28516V1.31641H1.85264C1.60655 1.33281 1.4753 1.46406 1.45889 1.71016V11.1602C1.4753 11.4063 1.60655 11.5375 1.85264 11.5539H8.15264ZM0.277639 1.71016C0.294046 1.26719 0.449905 0.898047 0.745218 0.602734C1.04053 0.307422 1.40967 0.151562 1.85264 0.135156H5.9378C6.36436 0.135156 6.7335 0.291015 7.04522 0.602734L9.26006 2.81758C9.57178 3.1293 9.72764 3.50664 9.72764 3.94961V11.1602C9.71123 11.6031 9.55537 11.9723 9.26006 12.2676C8.96475 12.5629 8.59561 12.7188 8.15264 12.7352H1.85264C1.40967 12.7188 1.04053 12.5629 0.745218 12.2676C0.449905 11.9723 0.294046 11.6031 0.277639 11.1602V1.71016Z" fill="#BBBBBB"/>
</svg>
