<svg width="17" height="16" viewBox="0 0 17 16" fill="none" xmlns="http://www.w3.org/2000/svg">
<g id="Oldest First" clip-path="url(#clip0_40_8810)">
<path id="Vector" d="M0.486668 11.4489L3.1833 14.1455C3.50165 14.4077 3.82 14.4077 4.13835 14.1455L6.83498 11.4489C7.09716 11.1305 7.09716 10.8122 6.83498 10.4938C6.51663 10.2316 6.19828 10.2316 5.87993 10.4938L4.33498 12.0388V2.43202C4.29753 2.02003 4.07281 1.79531 3.66083 1.75786C3.24884 1.79531 3.02412 2.02003 2.98667 2.43202V12.0388L1.44172 10.4938C1.12337 10.2316 0.80502 10.2316 0.486668 10.4938C0.224496 10.8122 0.224496 11.1305 0.486668 11.4489ZM8.82936 14.3421H10.1777C10.5897 14.3047 10.8144 14.08 10.8518 13.668C10.8144 13.256 10.5897 13.0313 10.1777 12.9938H8.82936C8.41738 13.0313 8.19266 13.256 8.15521 13.668C8.19266 14.08 8.41738 14.3047 8.82936 14.3421ZM8.82936 10.7466H11.9754C12.3874 10.7092 12.6121 10.4845 12.6496 10.0725C12.6121 9.66048 12.3874 9.43577 11.9754 9.39831H8.82936C8.41738 9.43577 8.19266 9.66048 8.15521 10.0725C8.19266 10.4845 8.41738 10.7092 8.82936 10.7466ZM8.82936 7.15112H13.7732C14.1852 7.11367 14.4099 6.88895 14.4473 6.47696C14.4099 6.06498 14.1852 5.84026 13.7732 5.80281H8.82936C8.41738 5.84026 8.19266 6.06498 8.15521 6.47696C8.19266 6.88895 8.41738 7.11367 8.82936 7.15112ZM8.82936 3.55561H15.5709C15.9829 3.51816 16.2076 3.29344 16.2451 2.88146C16.2076 2.46947 15.9829 2.24475 15.5709 2.2073H8.82936C8.41738 2.24475 8.19266 2.46947 8.15521 2.88146C8.19266 3.29344 8.41738 3.51816 8.82936 3.55561Z" fill="#F5F5F5"/>
</g>
<defs>
<clipPath id="clip0_40_8810">
<rect width="16.31" height="15" fill="white" transform="matrix(1 0 0 -1 0 15.55)"/>
</clipPath>
</defs>
</svg>
