<svg width="25" height="25" viewBox="0 0 25 25" fill="none" xmlns="http://www.w3.org/2000/svg">
<rect x="1.37891" y="1.14" width="23" height="23" rx="11.5" fill="#151515"/>
<rect x="1.37891" y="1.14" width="23" height="23" rx="11.5" stroke="#222222"/>
<g clip-path="url(#clip0_46_11044)">
<path d="M15.5366 7.71625C15.664 7.39041 15.5932 7.11416 15.3244 6.8875C15.0272 6.70333 14.7441 6.7175 14.4752 6.93L9.04096 11.69C8.81453 11.9025 8.75085 12.1504 8.84991 12.4337C8.97728 12.7171 9.18955 12.8658 9.48674 12.88H11.8642L10.2297 16.6837C10.1023 17.0096 10.1731 17.2858 10.442 17.5125C10.7392 17.6967 11.0222 17.6825 11.2911 17.47L16.7254 12.71C16.9518 12.4975 17.0155 12.2496 16.9164 11.9662C16.8032 11.6829 16.5909 11.5342 16.2796 11.52H13.9233L15.5366 7.71625Z" fill="#BBBBBB"/>
</g>
<defs>
<clipPath id="clip0_46_11044">
<rect width="9.51" height="12" fill="white" transform="matrix(1 0 0 -1 8.12891 18.2)"/>
</clipPath>
</defs>
</svg>
