<svg width="64" height="65" viewBox="0 0 64 65" fill="none" xmlns="http://www.w3.org/2000/svg">
<rect y="0.339996" width="64" height="64" rx="32" fill="#FFC107" fill-opacity="0.1"/>
<rect x="0.5" y="0.839996" width="63" height="63" rx="31.5" stroke="#FFC107" stroke-opacity="0.25"/>
<g clip-path="url(#clip0_40_10232)">
<path d="M22.4988 28.8601L22.4128 28.9891C22.3842 29.075 22.3698 29.1754 22.3698 29.29V32.2993C22.4272 32.7292 22.6564 32.9585 23.0577 32.9872H40.9418C41.3717 32.9585 41.601 32.7292 41.6297 32.2993V29.29C41.6297 29.1754 41.6153 29.075 41.5867 28.9891L41.5007 28.8601H38.3624C38.0758 28.8601 37.8751 28.9891 37.7605 29.247L37.1156 30.4507C36.7144 31.1959 36.0982 31.5828 35.267 31.6115H28.7325C27.9013 31.5828 27.2851 31.2102 26.8839 30.4937L26.282 29.247C26.1387 28.9891 25.9237 28.8601 25.6371 28.8601H22.4988ZM23.0577 27.4844H25.6371C26.4683 27.513 27.0845 27.9 27.4857 28.6451L28.0876 29.8489C28.2309 30.1068 28.4459 30.2358 28.7325 30.2358H35.267C35.5536 30.2358 35.7686 30.1068 35.9119 29.8489L36.5138 28.6451C36.915 27.9 37.5312 27.513 38.3624 27.4844H40.9418L38.8353 22.4115C38.692 22.1249 38.477 21.9816 38.1904 21.9816H25.8091C25.5225 21.9816 25.3075 22.1249 25.1642 22.4115L23.0577 27.4844ZM21.1661 28.4732L23.9175 21.8956C24.2901 21.0644 24.9206 20.6345 25.8091 20.6059H38.1904C39.0789 20.6345 39.7094 21.0644 40.082 21.8956L42.8334 28.4732C42.948 28.7311 43.0054 29.0034 43.0054 29.29V32.2993C42.9767 32.8725 42.7761 33.3598 42.4035 33.761C42.0022 34.1336 41.515 34.3342 40.9418 34.3629H23.0577C22.4845 34.3342 21.9973 34.1336 21.596 33.761C21.2234 33.3598 21.0228 32.8725 20.9941 32.2993V29.29C20.9941 29.0034 21.0515 28.7311 21.1661 28.4732ZM25.8951 37.1143H23.0577C22.6278 37.143 22.3985 37.3722 22.3698 37.8021V40.5535C22.3985 40.9835 22.6278 41.2127 23.0577 41.2414H40.9418C41.3717 41.2127 41.601 40.9835 41.6297 40.5535V37.8021C41.601 37.3722 41.3717 37.143 40.9418 37.1143H38.1044C37.8178 37.1143 37.6029 37.2433 37.4596 37.5012L36.8577 38.7479L35.611 38.1031L36.2558 36.8993C36.6571 36.1542 37.2733 35.7673 38.1044 35.7386H40.9418C41.515 35.7673 42.0022 35.9679 42.4035 36.3405C42.7761 36.7417 42.9767 37.2289 43.0054 37.8021V40.5535C42.9767 41.1268 42.7761 41.614 42.4035 42.0152C42.0022 42.4165 41.515 42.6171 40.9418 42.6171H23.0577C22.4845 42.6171 21.9973 42.4165 21.596 42.0152C21.2234 41.614 21.0228 41.1268 20.9941 40.5535V37.8021C21.0228 37.2289 21.2234 36.7417 21.596 36.3405C21.9973 35.9679 22.4845 35.7673 23.0577 35.7386H25.8951C26.7262 35.7673 27.3424 36.1542 27.7437 36.8993L28.3885 38.1031C28.5032 38.361 28.7038 38.49 28.9904 38.49H35.0091C35.2957 38.49 35.4963 38.361 35.611 38.1031L36.8577 38.7479C36.4564 39.4644 35.8402 39.837 35.0091 39.8657H28.9904C28.1592 39.837 27.5431 39.4644 27.1418 38.7479L26.5399 37.5012C26.3966 37.2433 26.1817 37.1143 25.8951 37.1143Z" fill="#CC9A06"/>
</g>
<defs>
<clipPath id="clip0_40_10232">
<rect width="22.5" height="23" fill="white" transform="matrix(1 0 0 -1 20.75 43.09)"/>
</clipPath>
</defs>
</svg>
