<svg width="15" height="13" viewBox="0 0 15 13" fill="none" xmlns="http://www.w3.org/2000/svg">
<path d="M12.267 4.97002C12.0865 4.06768 11.6846 3.31299 11.0612 2.70596C10.4541 2.08252 9.69944 1.68057 8.7971 1.5001V4.97002H12.267H8.7971H12.267ZM8.7971 6.15127H7.61585V4.97002V0.663379C7.63225 0.417285 7.7635 0.277832 8.0096 0.245019C9.04319 0.261425 9.97014 0.515722 10.7905 1.00791C11.6272 1.48369 12.2834 2.13994 12.7592 2.97666C13.2514 3.79697 13.5057 4.72393 13.5221 5.75752C13.4893 6.00361 13.3498 6.13486 13.1037 6.15127H8.7971H13.1037H8.7971ZM5.59788 8.16924C5.36819 7.93955 5.25335 7.66064 5.25335 7.33252V2.48447C4.31819 2.829 3.5635 3.39502 2.98928 4.18252C2.41506 4.97002 2.11975 5.88877 2.10335 6.93877C2.13616 8.28408 2.59553 9.39971 3.48147 10.2856C4.36741 11.1716 5.48303 11.631 6.82835 11.6638C7.501 11.6638 8.12444 11.5325 8.69866 11.27L5.59788 8.16924L8.69866 11.27L5.59788 8.16924ZM6.01624 1.08174C6.26233 1.08174 6.40178 1.21299 6.4346 1.47549V7.33252L10.2983 11.1962C10.4623 11.3931 10.4459 11.5817 10.249 11.7622C9.26467 12.4677 8.12444 12.8286 6.82835 12.845C5.72913 12.8286 4.73655 12.5579 3.85061 12.0329C2.96467 11.5079 2.25921 10.8024 1.73421 9.9165C1.20921 9.03057 0.938502 8.03799 0.922096 6.93877C0.954908 5.41299 1.4471 4.11689 2.39866 3.05049C3.33381 1.96768 4.53967 1.31143 6.01624 1.08174ZM13.8666 7.33252C14.1291 7.36533 14.2604 7.50479 14.2604 7.75088C14.0471 9.16182 13.4401 10.3267 12.4393 11.2454C12.2588 11.3931 12.0865 11.3931 11.9225 11.2454L8.0096 7.33252H13.8666H8.0096H13.8666Z" fill="#FAFAFA"/>
</svg>
