<svg width="317" height="119" viewBox="0 0 317 119" fill="none" xmlns="http://www.w3.org/2000/svg">
<g opacity="0.5" clip-path="url(#clip0_190_6400)">
<g clip-path="url(#clip1_190_6400)">
<g clip-path="url(#clip2_190_6400)">
<path d="M158.941 118.119C191.526 118.119 217.941 91.7039 217.941 59.1191C217.941 26.5343 191.526 0.119141 158.941 0.119141C126.357 0.119141 99.9414 26.5343 99.9414 59.1191C99.9414 91.7039 126.357 118.119 158.941 118.119Z" fill="#F8F9FA"/>
<path d="M158.941 0.119141C171.401 0.119141 183.54 4.06358 193.62 11.3871C203.7 18.7107 211.203 29.0373 215.053 40.8871L158.941 59.1191V0.119141Z" fill="#495057"/>
<path d="M215.055 40.8867C218.418 51.2351 218.853 62.3117 216.313 72.892C213.773 83.4722 208.356 93.144 200.662 100.838C192.968 108.532 183.297 113.949 172.716 116.489C162.136 119.029 151.059 118.594 140.711 115.231L158.943 59.1187L215.055 40.8867Z" fill="#ADB5BD"/>
<path d="M140.711 115.231C128.861 111.381 118.535 103.878 111.211 93.7984L158.943 59.1191L140.711 115.231Z" fill="#CED4DA"/>
<path d="M111.21 93.7986C102.389 81.6581 98.526 66.6128 100.407 51.7246L158.942 59.1193L111.21 93.7986Z" fill="#DEE2E6"/>
<path d="M100.383 51.9284C101.747 40.8159 106.245 30.3211 113.352 21.6696C120.458 13.0181 129.879 6.56718 140.515 3.07031L158.943 59.1187L100.383 51.9284Z" fill="#E9ECEF"/>
<path d="M140.219 3.16804C146.385 1.10488 152.85 0.0751821 159.352 0.120579L158.94 59.1191L140.219 3.16804Z" fill="#F8F9FA"/>
</g>
</g>
</g>
<defs>
<clipPath id="clip0_190_6400">
<rect width="316" height="118" fill="white" transform="translate(0.941406 0.119141)"/>
</clipPath>
<clipPath id="clip1_190_6400">
<rect width="316" height="118" fill="white" transform="translate(0.941406 0.119141)"/>
</clipPath>
<clipPath id="clip2_190_6400">
<rect width="316" height="118" fill="white" transform="translate(0.941406 0.119141)"/>
</clipPath>
</defs>
</svg>
