<svg width="12" height="15" viewBox="0 0 12 15" fill="none" xmlns="http://www.w3.org/2000/svg">
<path d="M9.83674 13.4531C10.1199 13.4342 10.271 13.2832 10.2899 13V4.84375H8.02424C7.75991 4.84375 7.54279 4.75879 7.37287 4.58887C7.20295 4.41895 7.11799 4.20182 7.11799 3.9375V1.67188H2.58674C2.30353 1.69076 2.15249 1.8418 2.13361 2.125V13C2.15249 13.2832 2.30353 13.4342 2.58674 13.4531H9.83674ZM0.774235 2.125C0.793115 1.61523 0.972477 1.19043 1.31232 0.850586C1.65216 0.510742 2.07697 0.33138 2.58674 0.3125H7.28791C7.77879 0.3125 8.2036 0.491862 8.56232 0.850586L11.1111 3.39941C11.4699 3.75814 11.6492 4.19238 11.6492 4.70215V13C11.6304 13.5098 11.451 13.9346 11.1111 14.2744C10.7713 14.6143 10.3465 14.7936 9.83674 14.8125H2.58674C2.07697 14.7936 1.65216 14.6143 1.31232 14.2744C0.972477 13.9346 0.793115 13.5098 0.774235 13V2.125Z" fill="#BBBBBB"/>
</svg>
