<svg width="14" height="14" viewBox="0 0 14 14" fill="none" xmlns="http://www.w3.org/2000/svg">
<path d="M0.736918 6.47305H1.91817H0.736918H1.91817C2.0002 7.37539 2.32012 8.15469 2.87793 8.81094C3.23887 9.2375 3.43575 9.7625 3.46856 10.3859V12.5762C3.43575 12.9371 3.23887 13.134 2.87793 13.1668C2.517 13.134 2.32012 12.9371 2.28731 12.5762V10.3859C2.28731 10.107 2.17246 9.83633 1.94278 9.57383C1.23731 8.68789 0.835355 7.6543 0.736918 6.47305ZM3.73926 2.53555H6.05254H3.73926H6.05254C6.49551 2.02695 7.07793 1.76445 7.79981 1.74805H6.86465H6.22481C5.28965 1.76445 4.46114 2.02695 3.73926 2.53555ZM2.28731 2.53555H1.992H2.28731H1.992C2.517 1.92852 3.14043 1.45273 3.86231 1.1082C4.58418 0.747265 5.37168 0.566797 6.22481 0.566797H6.81543C8.0459 0.599609 9.12051 0.993359 10.0393 1.74805H10.1623H12.1311C12.4592 1.76445 12.7381 1.8793 12.9678 2.09258C13.1811 2.32227 13.2959 2.60117 13.3123 2.9293V5.2918C13.2959 5.61992 13.1811 5.89883 12.9678 6.12852C12.7381 6.3418 12.4592 6.45664 12.1311 6.47305H11.3436H7.79981C7.07793 6.45664 6.48731 6.19414 6.02793 5.68555H2.28731C1.84434 5.66914 1.4752 5.51328 1.17989 5.21797C0.884574 4.92266 0.728715 4.55352 0.712308 4.11055C0.728715 3.66758 0.884574 3.29844 1.17989 3.00312C1.4752 2.70781 1.84434 2.55195 2.28731 2.53555ZM12.1311 7.26055H13.3123C13.2959 7.70352 13.14 8.07266 12.8447 8.36797C12.5494 8.66328 12.1803 8.81914 11.7373 8.83555V10.0168C11.7209 10.4598 11.565 10.8289 11.2697 11.1242C10.9744 11.4195 10.6053 11.5754 10.1623 11.5918H8.58731V12.5762C8.5545 12.9371 8.35762 13.134 7.99668 13.1668C7.63575 13.134 7.43887 12.9371 7.40606 12.5762V11.0012C7.43887 10.6402 7.63575 10.4434 7.99668 10.4105H10.1623C10.4084 10.3941 10.5397 10.2629 10.5561 10.0168V8.24492C10.5889 7.88398 10.7857 7.68711 11.1467 7.6543H11.7373C11.9834 7.63789 12.1147 7.50664 12.1311 7.26055ZM2.28731 3.7168C2.04121 3.7332 1.90996 3.86445 1.89356 4.11055C1.90996 4.35664 2.04121 4.48789 2.28731 4.5043H5.46192C5.44551 4.37305 5.43731 4.2418 5.43731 4.11055C5.43731 3.9793 5.44551 3.84805 5.46192 3.7168H2.28731ZM10.1623 2.9293H7.79981H10.1623H7.79981C7.47168 2.9457 7.19278 3.06055 6.96309 3.27383C6.74981 3.50352 6.63496 3.78242 6.61856 4.11055C6.63496 4.43867 6.74981 4.71758 6.96309 4.94727C7.19278 5.16055 7.47168 5.27539 7.79981 5.2918H10.1623V2.9293ZM11.3436 2.9293V5.2918V2.9293V5.2918H12.1311V2.9293H11.3436Z" fill="#BBBBBB"/>
</svg>
