<svg width="14" height="14" viewBox="0 0 14 14" fill="none" xmlns="http://www.w3.org/2000/svg">
<path d="M12.2024 10.3145H2.23364V11.6738C2.25252 11.957 2.40356 12.1081 2.68676 12.127H11.7493C12.0325 12.1081 12.1835 11.957 12.2024 11.6738V10.3145V11.6738V10.3145ZM2.99829 8.95508L4.64087 6.74609C4.77303 6.55729 4.95239 6.46289 5.17895 6.46289C5.40551 6.46289 5.58488 6.55729 5.71704 6.74609L6.19848 7.39746L7.78442 4.96191C7.91658 4.75423 8.10538 4.65039 8.35083 4.65039C8.59627 4.65039 8.78507 4.75423 8.91723 4.96191L11.5227 8.95508H12.2024V2.61133C12.1835 2.32812 12.0325 2.17708 11.7493 2.1582H2.68676C2.40356 2.17708 2.25252 2.32812 2.23364 2.61133V8.95508H2.99829H2.23364H2.99829ZM13.5618 8.95508V9.63477V10.3145V11.6738C13.5429 12.1836 13.3635 12.6084 13.0237 12.9482C12.6838 13.2881 12.259 13.4674 11.7493 13.4863H2.68676C2.177 13.4674 1.75219 13.2881 1.41235 12.9482C1.07251 12.6084 0.893144 12.1836 0.874264 11.6738V10.3145V9.63477V8.95508V2.61133C0.893144 2.10156 1.07251 1.67676 1.41235 1.33691C1.75219 0.99707 2.177 0.817708 2.68676 0.798828H11.7493C12.259 0.817708 12.6838 0.99707 13.0237 1.33691C13.3635 1.67676 13.5429 2.10156 13.5618 2.61133V8.95508V2.61133V8.95508ZM4.95239 3.9707C4.95239 4.23503 4.86743 4.45215 4.69751 4.62207C4.52758 4.79199 4.31046 4.87695 4.04614 4.87695C3.78182 4.87695 3.56469 4.79199 3.39477 4.62207C3.22485 4.45215 3.13989 4.23503 3.13989 3.9707C3.13989 3.70638 3.22485 3.48926 3.39477 3.31934C3.56469 3.14941 3.78182 3.06445 4.04614 3.06445C4.31046 3.06445 4.52758 3.14941 4.69751 3.31934C4.86743 3.48926 4.95239 3.70638 4.95239 3.9707Z" fill="#BBBBBB"/>
</svg>
