<svg width="14" height="12" viewBox="0 0 14 12" fill="none" xmlns="http://www.w3.org/2000/svg">
<path d="M11.7003 4.71528C13.0539 4.71528 13.5214 6.53638 12.291 7.17622C12.3402 7.3731 12.3648 7.56997 12.3648 7.79145C12.3648 9.85864 10.0269 11.5075 7.17222 11.5075C4.31753 11.5075 2.00425 9.85864 2.00425 7.79145C2.00425 7.56997 2.00425 7.3731 2.05347 7.17622C0.798392 6.56099 1.26597 4.71528 2.61949 4.71528C2.98863 4.71528 3.33316 4.86294 3.57925 5.10903C4.44058 4.51841 5.62183 4.12466 6.92613 4.05083L7.66441 0.679345C7.71363 0.556299 7.81206 0.457861 7.93511 0.50708L10.3468 1.02388C10.4945 0.728564 10.839 0.48247 11.2082 0.48247C11.7496 0.48247 12.1925 0.925439 12.1925 1.46685C12.1925 2.00825 11.7496 2.45122 11.2082 2.45122C10.6668 2.45122 10.2484 2.00825 10.2484 1.49145L8.08277 0.999267L7.39371 4.07544C8.698 4.10005 9.87925 4.4938 10.7652 5.10903C11.0113 4.86294 11.3312 4.71528 11.7003 4.71528ZM4.04683 7.29927C4.04683 7.84067 4.4898 8.28364 5.03121 8.28364C5.548 8.28364 5.99097 7.84067 5.99097 7.29927C5.99097 6.75786 5.548 6.3395 5.03121 6.3395C4.4898 6.3395 4.04683 6.75786 4.04683 7.29927ZM9.31324 9.61255C9.41167 9.51411 9.41167 9.36646 9.31324 9.26802C9.23941 9.19419 9.06714 9.19419 8.99331 9.26802C8.27964 9.98169 6.01558 9.98169 5.32652 9.26802C5.22808 9.19419 5.08042 9.19419 5.0066 9.26802C4.90816 9.36646 4.90816 9.51411 5.0066 9.61255C5.89253 10.4985 8.4273 10.4985 9.31324 9.61255ZM9.28863 8.28364C9.83003 8.28364 10.273 7.84067 10.273 7.29927C10.273 6.75786 9.83003 6.3395 9.28863 6.3395C8.77183 6.3395 8.32886 6.75786 8.32886 7.29927C8.32886 7.84067 8.77183 8.28364 9.28863 8.28364Z" fill="#FAFAFA"/>
</svg>
