<svg width="21" height="21" viewBox="0 0 21 21" fill="none" xmlns="http://www.w3.org/2000/svg">
<g clip-path="url(#clip0_190_30781)">
<g clip-path="url(#clip1_190_30781)">
<path opacity="0.994" fill-rule="evenodd" clip-rule="evenodd" d="M8.94234 0.394531H11.2317C14.6326 0.888281 17.2028 2.61661 18.9423 5.57953C19.5473 6.73161 19.9403 7.9437 20.1211 9.21578V11.5052C19.6273 14.906 17.899 17.4762 14.9361 19.2158C13.784 19.8208 12.5719 20.2137 11.2998 20.3945H9.01047C5.60964 19.9008 3.03943 18.1724 1.29984 15.2095C0.694844 14.0574 0.301927 12.8454 0.121094 11.5733V9.28391C0.614844 5.88266 2.34297 3.31245 5.30547 1.57328C6.45755 0.968281 7.67026 0.575365 8.94234 0.394531Z" fill="#FAEAEA"/>
<path fill-rule="evenodd" clip-rule="evenodd" d="M6.51641 4.50258C8.89641 4.48008 11.2758 4.50258 13.6545 4.57008C14.8132 6.4945 15.9805 8.41369 17.1564 10.3276C15.9805 12.2415 14.8132 14.1607 13.6545 16.0851C11.2985 16.1637 8.94062 16.1749 6.58391 16.1188C5.39097 14.1927 4.22357 12.2509 3.08203 10.2938C4.22736 8.36373 5.37215 6.43331 6.51641 4.50258Z" fill="#AF1125"/>
<path fill-rule="evenodd" clip-rule="evenodd" d="M7.59375 5.44369C9.25366 5.36524 10.9161 5.35398 12.5769 5.40994C12.3214 5.79741 12.0745 6.19042 11.8363 6.58869C10.6707 6.67848 9.49994 6.67848 8.33437 6.58869C8.11314 6.19103 7.86572 5.80852 7.59375 5.44369Z" fill="#FAE7E8"/>
<path fill-rule="evenodd" clip-rule="evenodd" d="M6.78375 5.78188C7.05369 6.15542 7.31194 6.53727 7.55813 6.92688C7.56729 7.14646 7.5 7.34854 7.35625 7.53313C6.88216 8.31263 6.39943 9.08685 5.90812 9.85563C5.3926 9.91165 4.87197 9.90031 4.35938 9.82188C5.16813 8.47312 5.97625 7.12625 6.78375 5.78125" fill="#F9E6E7"/>
<path fill-rule="evenodd" clip-rule="evenodd" d="M13.3155 5.78188C13.3801 5.81229 13.4361 5.85708 13.4836 5.91625C14.2718 7.23461 15.0687 8.54777 15.8742 9.85562C15.3355 9.90062 14.7967 9.90062 14.258 9.85562C13.6963 8.93437 13.1351 8.01396 12.5742 7.09438C12.8296 6.66153 13.0765 6.22374 13.3148 5.78125" fill="#F9E6E6"/>
<path fill-rule="evenodd" clip-rule="evenodd" d="M8.335 7.53156C9.5025 7.52031 10.6698 7.53156 11.8369 7.56531C12.4014 8.45898 12.9403 9.36851 13.4531 10.2928C12.9403 11.2171 12.4014 12.1266 11.8369 13.0203C10.6586 13.076 9.4782 13.0647 8.30125 12.9866C7.75667 12.0988 7.22907 11.2007 6.71875 10.2928C7.24003 9.36228 7.77887 8.4417 8.335 7.53156Z" fill="#FAEAEA"/>
<path fill-rule="evenodd" clip-rule="evenodd" d="M5.97672 10.7638C5.42547 10.7417 4.88672 10.7642 4.36047 10.8313C4.3238 10.8272 4.3013 10.8047 4.29297 10.7638C4.86464 10.6751 5.42589 10.6751 5.97672 10.7638Z" fill="#DD919C"/>
<path fill-rule="evenodd" clip-rule="evenodd" d="M14.2617 10.7638C14.7901 10.6751 15.3288 10.6751 15.878 10.7638C15.8696 10.8047 15.8471 10.8272 15.8105 10.8313C15.3067 10.7647 14.7905 10.7422 14.2617 10.7638Z" fill="#DE969F"/>
<path fill-rule="evenodd" clip-rule="evenodd" d="M5.97562 10.7638C6.53174 11.674 7.07058 12.5946 7.59188 13.5251C7.36854 13.9717 7.10957 14.3995 6.8175 14.8045C5.96407 13.5015 5.14442 12.1766 4.35938 10.8313C4.88563 10.7647 5.42437 10.7422 5.97562 10.7638Z" fill="#FAE8E8"/>
<path fill-rule="evenodd" clip-rule="evenodd" d="M14.258 10.7641C14.7867 10.742 15.303 10.7645 15.8067 10.8316C15.0044 12.1888 14.185 13.5357 13.3486 14.8722C13.0767 14.4313 12.8184 13.9821 12.5742 13.5253C13.1174 12.594 13.6788 11.6734 14.258 10.7641Z" fill="#FAE8E8"/>
<path fill-rule="evenodd" clip-rule="evenodd" d="M8.33437 13.9302C9.5021 13.9079 10.6703 13.9304 11.8363 13.9977L12.5769 15.2096C10.917 15.2881 9.25457 15.2994 7.59375 15.2434C7.8563 14.8147 8.10334 14.3767 8.33437 13.9302Z" fill="#FAE7E8"/>
</g>
</g>
<defs>
<clipPath id="clip0_190_30781">
<rect width="20" height="20" fill="white" transform="translate(0.152344 0.427734)"/>
</clipPath>
<clipPath id="clip1_190_30781">
<rect width="20" height="20" fill="white" transform="translate(0.152344 0.427734)"/>
</clipPath>
</defs>
</svg>
