<svg width="18" height="16" viewBox="0 0 18 16" fill="none" xmlns="http://www.w3.org/2000/svg">
<path d="M2.70797 14.2188H10.208H2.70797H10.208C10.5009 14.1992 10.6572 14.043 10.6767 13.75V13.5449L11.8486 13.252C11.9267 13.2324 12.0048 13.2129 12.083 13.1934V13.75C12.0634 14.2773 11.8779 14.7168 11.5263 15.0684C11.1748 15.4199 10.7353 15.6055 10.208 15.625H2.70797C2.18062 15.6055 1.74117 15.4199 1.38961 15.0684C1.03805 14.7168 0.8525 14.2773 0.832969 13.75V2.5C0.8525 1.97266 1.03805 1.5332 1.38961 1.18164C1.74117 0.830078 2.18062 0.644531 2.70797 0.625H7.57125C8.07906 0.625 8.51852 0.810547 8.88961 1.18164L11.5263 3.81836C11.8974 4.18945 12.083 4.63867 12.083 5.16602V6.60156L10.6767 8.00781V5.3125H8.33297C8.05953 5.3125 7.83492 5.22461 7.65914 5.04883C7.48336 4.87305 7.39547 4.64844 7.39547 4.375V2.03125H2.70797C2.415 2.05078 2.25875 2.20703 2.23922 2.5V13.75C2.25875 14.043 2.415 14.1992 2.70797 14.2188ZM5.52047 10.8496L5.2275 11.8164L5.52047 10.8496L5.2275 11.8164C5.01266 12.4414 4.56344 12.7734 3.87984 12.8125H3.64547C3.3525 12.793 3.19625 12.6367 3.17672 12.3438C3.19625 12.0508 3.3525 11.8945 3.64547 11.875H3.87984C4.11422 11.8555 4.27047 11.748 4.34859 11.5527L4.75875 10.0879C4.89547 9.73633 5.14937 9.55078 5.52047 9.53125C5.89156 9.55078 6.14547 9.73633 6.28219 10.0879L6.60445 11.2305C6.83883 11.0352 7.1025 10.9375 7.39547 10.9375C7.88375 10.957 8.25484 11.1816 8.50875 11.6113L8.62594 11.875H9.38766L9.73922 10.4688C9.77828 10.293 9.85641 10.1465 9.97359 10.0293L13.7529 6.25L15.833 8.33008L12.0537 12.1094C11.9365 12.2266 11.79 12.3047 11.6142 12.3438L9.85641 12.7832C9.81734 12.8027 9.78805 12.8125 9.76852 12.8125C9.76852 12.8125 9.75875 12.8125 9.73922 12.8125C9.71969 12.8125 9.70016 12.8125 9.68062 12.8125H8.33297C8.13766 12.8125 8.00094 12.7246 7.92281 12.5488L7.65914 12.0508C7.60055 11.9336 7.51266 11.875 7.39547 11.875C7.27828 11.875 7.19039 11.9336 7.1318 12.0508L6.86812 12.5488C6.77047 12.7246 6.62398 12.8125 6.42867 12.8125C6.21383 12.793 6.07711 12.6855 6.01852 12.4902L5.52047 10.8496ZM16.9462 4.72656L17.3564 5.13672L16.9462 4.72656L17.3564 5.13672C17.5908 5.37109 17.708 5.64453 17.708 5.95703C17.708 6.26953 17.5908 6.55273 17.3564 6.80664L16.5068 7.65625L14.4267 5.57617L15.2763 4.72656C15.5302 4.49219 15.8037 4.375 16.0966 4.375C16.4091 4.375 16.6923 4.49219 16.9462 4.72656Z" fill="#FAFAFA"/>
</svg>
