<svg width="31" height="31" viewBox="0 0 31 31" fill="none" xmlns="http://www.w3.org/2000/svg">
<path d="M3.79141 6.125H7.71719H3.79141H7.71719C8.85 6.16406 9.68984 6.69141 10.2367 7.70703L11.35 9.875H18.85L19.9633 7.70703C20.5102 6.69141 21.35 6.16406 22.4828 6.125H26.4086L24.0648 3.3125H6.07656L3.73281 6.125H3.79141ZM2.9125 8.9375V14.5625V8.9375V14.5625H27.2875V8.9375H22.4828L21.3695 11.1641C20.8227 12.1406 19.9828 12.6484 18.85 12.6875H11.35C10.2172 12.6484 9.37734 12.1406 8.83047 11.1641L7.71719 8.9375H2.9125ZM0.1 8.9375V7.12109V8.9375V7.12109C0.1 6.45703 0.314844 5.87109 0.744532 5.36328L3.96719 1.49609C4.51406 0.832031 5.23672 0.5 6.13516 0.5H24.1234C24.9828 0.5 25.6859 0.832031 26.2328 1.49609L29.4555 5.36328C29.8852 5.87109 30.1 6.45703 30.1 7.12109V8.9375V14.5625C30.0609 15.3438 29.7875 16.0078 29.2797 16.5547C28.7328 17.0625 28.0688 17.3359 27.2875 17.375H2.9125C2.13125 17.3359 1.46719 17.0625 0.920313 16.5547C0.4125 16.0078 0.139063 15.3438 0.1 14.5625V8.9375ZM18.2641 25.8125H11.9359H18.2641H11.9359C10.4125 25.7734 9.29922 25.0898 8.59609 23.7617L7.71719 22.0625H2.9125V27.6875H27.2875V22.0625H22.4828L21.6039 23.7617L19.143 22.4727L21.6039 23.7617C20.9008 25.0898 19.7875 25.7734 18.2641 25.8125ZM2.9125 19.25H7.71719H2.9125H7.71719C8.85 19.2891 9.68984 19.8164 10.2367 20.832L11.1156 22.4727C11.2719 22.8242 11.5453 23 11.9359 23H18.2641C18.6547 23 18.9281 22.8242 19.0844 22.4727L19.9633 20.832C20.5102 19.8164 21.35 19.2891 22.4828 19.25H27.2875C28.0688 19.2891 28.7328 19.5625 29.2797 20.0703C29.7875 20.6172 30.0609 21.2812 30.1 22.0625V27.6875C30.0609 28.4688 29.7875 29.1328 29.2797 29.6797C28.7328 30.1875 28.0688 30.4609 27.2875 30.5H2.9125C2.13125 30.4609 1.46719 30.1875 0.920313 29.6797C0.4125 29.1328 0.139063 28.4688 0.1 27.6875V22.0625C0.139063 21.2812 0.4125 20.6172 0.920313 20.0703C1.46719 19.5625 2.13125 19.2891 2.9125 19.25Z" fill="#F5F5F5"/>
</svg>
