<svg width="12" height="12" viewBox="0 0 12 12" fill="none" xmlns="http://www.w3.org/2000/svg">
<path d="M2.06497 1.2543C1.81887 1.2707 1.68762 1.40195 1.67122 1.64805V9.52305C1.68762 9.76914 1.81887 9.90039 2.06497 9.9168H7.57747V7.94805C7.57747 7.71836 7.65129 7.52969 7.79895 7.38203C7.94661 7.23437 8.13528 7.16055 8.36497 7.16055H10.3337V1.64805C10.3173 1.40195 10.1861 1.2707 9.93997 1.2543H2.06497ZM7.57747 11.098H2.06497H7.57747H2.06497C1.622 11.0816 1.25286 10.9258 0.957544 10.6305C0.662231 10.3352 0.506372 9.96602 0.489965 9.52305V1.64805C0.506372 1.20508 0.662231 0.835937 0.957544 0.540625C1.25286 0.245312 1.622 0.0894528 2.06497 0.0730466H9.93997C10.3829 0.0894528 10.7521 0.245312 11.0474 0.540625C11.3427 0.835937 11.4986 1.20508 11.515 1.64805V7.16055V7.3082C11.515 7.73477 11.3591 8.10391 11.0474 8.41562L8.83254 10.6305C8.52083 10.9422 8.15168 11.098 7.72512 11.098H7.57747Z" fill="#BBBBBB"/>
</svg>
