<svg width="25" height="22" viewBox="0 0 25 22" fill="none" xmlns="http://www.w3.org/2000/svg">
<path fill-rule="evenodd" clip-rule="evenodd" d="M4.69634 0.467871L0.318214 9.97881C0.285402 10.0491 0.299464 10.1382 0.355714 10.1897L12.1729 21.9038C12.2432 21.9741 12.3557 21.9741 12.426 21.9038L24.2432 10.1944C24.2995 10.1382 24.3135 10.0491 24.2807 9.97881L19.9026 0.472559C19.8745 0.406934 19.8135 0.364746 19.7432 0.364746H4.85571C4.7854 0.364746 4.72446 0.402246 4.69634 0.467871Z" fill="#50AF95"/>
<path fill-rule="evenodd" clip-rule="evenodd" d="M13.818 10.9539C13.7336 10.9586 13.293 10.9867 12.318 10.9867C11.5398 10.9867 10.9867 10.9633 10.7945 10.9539C7.78516 10.818 5.54453 10.2742 5.54453 9.62734C5.54453 8.98047 7.78516 8.43672 10.7945 8.30078V10.4148C10.9867 10.4289 11.5539 10.4617 12.332 10.4617C13.2648 10.4617 13.7289 10.4242 13.8133 10.4148V8.30078C16.8133 8.44141 19.0539 8.98047 19.0539 9.62734C19.0539 10.2742 16.8133 10.8133 13.8133 10.9539H13.818ZM13.818 8.08047V6.19141H18.0039V3.30859H6.60859V6.19141H10.7945V8.08047C7.39141 8.24453 4.83203 8.93828 4.83203 9.77734C4.83203 10.6117 7.39141 11.3055 10.7945 11.4695V17.5305H13.818V11.4648C17.2117 11.3055 19.7664 10.607 19.7664 9.77266C19.7664 8.93828 17.2117 8.24453 13.818 8.08047Z" fill="white"/>
</svg>
