<svg width="21" height="19" viewBox="0 0 21 19" fill="none" xmlns="http://www.w3.org/2000/svg">
<g clip-path="url(#clip0_190_29192)">
<g clip-path="url(#clip1_190_29192)">
<g clip-path="url(#clip2_190_29192)">
<path fill-rule="evenodd" clip-rule="evenodd" d="M4.08484 0.617188L0.436403 8.54297C0.409059 8.60156 0.420778 8.67578 0.467653 8.71875L10.3153 18.4805C10.3739 18.5391 10.4677 18.5391 10.5262 18.4805L20.3739 8.72266C20.4208 8.67578 20.4325 8.60156 20.4052 8.54297L16.7567 0.621094C16.7333 0.566406 16.6825 0.53125 16.6239 0.53125H4.21765C4.15906 0.53125 4.10828 0.5625 4.08484 0.617188Z" fill="#50AF95"/>
<path fill-rule="evenodd" clip-rule="evenodd" d="M11.6875 9.35547C11.6172 9.35937 11.25 9.38281 10.4375 9.38281C9.78906 9.38281 9.32812 9.36328 9.16797 9.35547C6.66016 9.24219 4.79297 8.78906 4.79297 8.25C4.79297 7.71094 6.66016 7.25781 9.16797 7.14453V8.90625C9.32812 8.91797 9.80078 8.94531 10.4492 8.94531C11.2266 8.94531 11.6133 8.91406 11.6836 8.90625V7.14453C14.1836 7.26172 16.0508 7.71094 16.0508 8.25C16.0508 8.78906 14.1836 9.23828 11.6836 9.35547H11.6875ZM11.6875 6.96094V5.38672H15.1758V2.98438H5.67969V5.38672H9.16797V6.96094C6.33203 7.09766 4.19922 7.67578 4.19922 8.375C4.19922 9.07031 6.33203 9.64844 9.16797 9.78516V14.8359H11.6875V9.78125C14.5156 9.64844 16.6445 9.06641 16.6445 8.37109C16.6445 7.67578 14.5156 7.09766 11.6875 6.96094Z" fill="white"/>
</g>
</g>
</g>
<defs>
<clipPath id="clip0_190_29192">
<rect width="20" height="18" fill="white" transform="translate(0.421875 0.527344)"/>
</clipPath>
<clipPath id="clip1_190_29192">
<rect width="20" height="18" fill="white" transform="translate(0.421875 0.527344)"/>
</clipPath>
<clipPath id="clip2_190_29192">
<rect width="20" height="18" fill="white" transform="translate(0.421875 0.527344)"/>
</clipPath>
</defs>
</svg>
