<svg width="16" height="16" viewBox="0 0 16 16" fill="none" xmlns="http://www.w3.org/2000/svg">
<path d="M13.8007 7.8125C13.8007 6.73633 13.5363 5.75456 13.0077 4.86719C12.4979 3.97982 11.7805 3.26237 10.8553 2.71484C9.93022 2.1862 8.94845 1.92188 7.91003 1.92188C6.87162 1.92188 5.88985 2.1862 4.96472 2.71484C4.03959 3.26237 3.32214 3.97982 2.81238 4.86719C2.28373 5.75456 2.01941 6.73633 2.01941 7.8125C2.01941 8.88867 2.28373 9.87044 2.81238 10.7578C3.32214 11.6452 4.03959 12.3626 4.96472 12.9102C5.88985 13.4388 6.87162 13.7031 7.91003 13.7031C8.94845 13.7031 9.93022 13.4388 10.8553 12.9102C11.7805 12.3626 12.4979 11.6452 13.0077 10.7578C13.5363 9.87044 13.8007 8.88867 13.8007 7.8125ZM0.660034 7.8125C0.678914 6.49089 0.999878 5.28255 1.62292 4.1875C2.26485 3.09245 3.15222 2.20508 4.28503 1.52539C5.43673 0.883464 6.64506 0.5625 7.91003 0.5625C9.17501 0.5625 10.3833 0.883464 11.535 1.52539C12.6678 2.20508 13.5552 3.09245 14.1971 4.1875C14.8202 5.28255 15.1412 6.49089 15.16 7.8125C15.1412 9.13411 14.8202 10.3424 14.1971 11.4375C13.5552 12.5326 12.6678 13.4199 11.535 14.0996C10.3833 14.7415 9.17501 15.0625 7.91003 15.0625C6.64506 15.0625 5.43673 14.7415 4.28503 14.0996C3.15222 13.4199 2.26485 12.5326 1.62292 11.4375C0.999878 10.3424 0.678914 9.13411 0.660034 7.8125ZM7.23035 3.96094C7.26811 3.54557 7.49467 3.31901 7.91003 3.28125C8.3254 3.31901 8.55196 3.54557 8.58972 3.96094V7.44434L10.9969 9.05859C11.3368 9.32292 11.4029 9.63444 11.1952 9.99316C10.9309 10.333 10.6193 10.3991 10.2606 10.1914L7.54187 8.37891C7.33419 8.24674 7.23035 8.05794 7.23035 7.8125V3.96094V7.8125V3.96094Z" fill="#F5F5F5"/>
</svg>
