<svg width="14" height="14" viewBox="0 0 14 14" fill="none" xmlns="http://www.w3.org/2000/svg">
<g id="Icon" clip-path="url(#clip0_40_4877)">
<path id="Vector" d="M11.9087 7.44C11.9087 8.36509 11.6815 9.20904 11.227 9.97184C10.7888 10.7346 10.1721 11.3514 9.37684 11.822C8.58158 12.2765 7.73764 12.5037 6.845 12.5037C5.95237 12.5037 5.10842 12.2765 4.31317 11.822C3.51791 11.3514 2.90118 10.7346 2.46298 9.97184C2.00855 9.20904 1.78133 8.36509 1.78133 7.44C1.78133 6.51491 2.00855 5.67096 2.46298 4.90817C2.90118 4.14537 3.51791 3.52864 4.31317 3.05798C5.10842 2.60355 5.95237 2.37633 6.845 2.37633C7.73764 2.37633 8.58158 2.60355 9.37684 3.05798C10.1721 3.52864 10.7888 4.14537 11.227 4.90817C11.6815 5.67096 11.9087 6.51491 11.9087 7.44ZM0.612793 7.44C0.629023 8.57608 0.904928 9.61478 1.44051 10.5561C1.99232 11.4974 2.75512 12.2602 3.7289 12.8445C4.71891 13.3963 5.75761 13.6722 6.845 13.6722C7.93239 13.6722 8.9711 13.3963 9.96111 12.8445C10.9349 12.2602 11.6977 11.4974 12.2495 10.5561C12.7851 9.61478 13.061 8.57608 13.0772 7.44C13.061 6.30392 12.7851 5.26522 12.2495 4.3239C11.6977 3.38257 10.9349 2.61978 9.96111 2.03551C8.9711 1.4837 7.93239 1.20779 6.845 1.20779C5.75761 1.20779 4.71891 1.4837 3.7289 2.03551C2.75512 2.61978 1.99232 3.38257 1.44051 4.3239C0.904928 5.26522 0.629023 6.30392 0.612793 7.44ZM6.26073 4.12914V7.44C6.26073 7.65099 6.35 7.81328 6.52852 7.92689L8.8656 9.48494C9.17397 9.66347 9.44176 9.60667 9.66897 9.31453C9.8475 9.00617 9.7907 8.73838 9.49856 8.51116L7.42927 7.12352V4.12914C7.39681 3.77209 7.20206 3.57733 6.845 3.54487C6.48795 3.57733 6.29319 3.77209 6.26073 4.12914Z" fill="#F5F5F5"/>
</g>
<defs>
<clipPath id="clip0_40_4877">
<rect width="12.69" height="13" fill="white" transform="matrix(1 0 0 -1 0.5 13.94)"/>
</clipPath>
</defs>
</svg>
