<svg width="12" height="16" viewBox="0 0 12 16" fill="none" xmlns="http://www.w3.org/2000/svg">
<g id="Icon" clip-path="url(#clip0_35_62)">
<path id="Vector" d="M0.890939 1.92794C0.478954 1.96539 0.254235 2.19011 0.216782 2.60209C0.254235 3.01408 0.478954 3.2388 0.890939 3.27625H10.3291C10.7411 3.2388 10.9658 3.01408 11.0033 2.60209C10.9658 2.19011 10.7411 1.96539 10.3291 1.92794H0.890939ZM6.11566 5.74816C5.96585 5.59835 5.79731 5.52344 5.61004 5.52344C5.42277 5.52344 5.2636 5.59835 5.13251 5.74816L1.53701 9.56839C1.27483 9.88674 1.2842 10.2051 1.5651 10.5234C1.88345 10.7669 2.19244 10.7575 2.49206 10.4954L4.93588 7.91108V10.2425V13.838C4.97334 14.25 5.19806 14.4748 5.61004 14.5122C6.02203 14.4748 6.24674 14.25 6.2842 13.838V10.2425V7.91108L8.72802 10.4673C9.02764 10.7482 9.33663 10.7575 9.65498 10.4954C9.93588 10.1957 9.94525 9.88674 9.68307 9.56839L6.08757 5.74816H6.11566Z" fill="#F5F5F5"/>
</g>
<defs>
<clipPath id="clip0_35_62">
<rect width="10.88" height="15" fill="white" transform="matrix(1 0 0 -1 0.170044 15.72)"/>
</clipPath>
</defs>
</svg>
