<svg width="13" height="14" viewBox="0 0 13 14" fill="none" xmlns="http://www.w3.org/2000/svg">
<g id="Icon" clip-path="url(#clip0_40_5478)">
<path id="Vector" d="M1.21639 1.88109C1.18393 1.52404 0.989175 1.32928 0.632121 1.29682C0.275068 1.32928 0.080311 1.52404 0.0478516 1.88109V10.4504C0.0640813 10.9535 0.234493 11.3674 0.559088 11.692C0.883682 12.0165 1.29754 12.187 1.80066 12.2032H11.928C12.2851 12.1707 12.4798 11.976 12.5123 11.6189C12.4798 11.2619 12.2851 11.0671 11.928 11.0346H1.80066C1.44361 11.0022 1.24885 10.8074 1.21639 10.4504V1.88109ZM7.0104 6.01967C7.23761 6.24688 7.51352 6.36049 7.83811 6.36049C8.16271 6.36049 8.43861 6.24688 8.66583 6.01967L9.32313 5.36236L10.5647 6.79869V8.69757H3.55347V6.45787L5.50104 4.5103L7.0104 6.01967ZM7.83811 5.19195L7.0104 4.36423L6.06096 3.4148C5.89866 3.2525 5.71202 3.17135 5.50104 3.17135C5.29005 3.17135 5.10341 3.2525 4.94111 3.4148L2.72575 5.63015C2.49854 5.85737 2.38493 6.13327 2.38493 6.45787V9.08708C2.38493 9.3143 2.45796 9.50094 2.60403 9.64701C2.7501 9.79307 2.93674 9.86611 3.16396 9.86611H10.9542C11.1814 9.86611 11.3681 9.79307 11.5141 9.64701C11.6602 9.50094 11.7332 9.3143 11.7332 9.08708V6.79869C11.7332 6.50656 11.6359 6.255 11.4411 6.04401L9.93175 4.26686C9.78568 4.10456 9.59904 4.0153 9.37182 3.99907C9.16084 3.99907 8.97419 4.0721 8.8119 4.21817L8.66583 4.36423L7.83811 5.19195Z" fill="#BBBBBB"/>
</g>
<defs>
<clipPath id="clip0_40_5478">
<rect width="12.56" height="13" fill="white" transform="matrix(1 0 0 -1 0 13.25)"/>
</clipPath>
</defs>
</svg>
