<svg width="23" height="23" viewBox="0 0 23 23" fill="none" xmlns="http://www.w3.org/2000/svg">
<g id="Group 15">
<path id="Vector" d="M19.9038 0.75H2.59615C1.90761 0.75 1.24727 1.02352 0.760396 1.5104C0.273523 1.99727 0 2.65761 0 3.34615V19.7885C0 20.477 0.273523 21.1373 0.760396 21.6242C1.24727 22.1111 1.90761 22.3846 2.59615 22.3846H19.9038C20.5924 22.3846 21.2527 22.1111 21.7396 21.6242C22.2265 21.1373 22.5 20.477 22.5 19.7885V3.34615C22.5 2.65761 22.2265 1.99727 21.7396 1.5104C21.2527 1.02352 20.5924 0.75 19.9038 0.75ZM4.39183 9.73702C4.32664 9.5786 4.30993 9.4044 4.34382 9.23648C4.37771 9.06856 4.46068 8.91448 4.58221 8.79375L7.17837 6.1976C7.34391 6.05582 7.55687 5.98174 7.77466 5.99015C7.99246 5.99857 8.19906 6.08885 8.35318 6.24297C8.5073 6.39709 8.59759 6.6037 8.606 6.82149C8.61441 7.03929 8.54033 7.25224 8.39856 7.41779L7.28221 8.53846H16.875C17.1045 8.53846 17.3246 8.62964 17.4869 8.79193C17.6492 8.95422 17.7404 9.17433 17.7404 9.40385C17.7404 9.63336 17.6492 9.85347 17.4869 10.0158C17.3246 10.1781 17.1045 10.2692 16.875 10.2692H5.19231C5.02121 10.2696 4.85385 10.2192 4.71138 10.1245C4.5689 10.0298 4.4577 9.89493 4.39183 9.73702ZM18.3505 14.7736L15.7543 17.3697C15.6767 17.4603 15.5813 17.5339 15.4739 17.5858C15.3666 17.6378 15.2496 17.667 15.1304 17.6716C15.0113 17.6762 14.8924 17.6561 14.7814 17.6126C14.6703 17.5691 14.5694 17.5031 14.4851 17.4187C14.4008 17.3344 14.3348 17.2335 14.2913 17.1225C14.2478 17.0114 14.2277 16.8926 14.2323 16.7734C14.2369 16.6542 14.2661 16.5373 14.318 16.4299C14.37 16.3226 14.4435 16.2271 14.5341 16.1495L15.6505 15.0288H6.05769C5.82818 15.0288 5.60806 14.9377 5.44577 14.7754C5.28348 14.6131 5.19231 14.393 5.19231 14.1635C5.19231 13.9339 5.28348 13.7138 5.44577 13.5515C5.60806 13.3892 5.82818 13.2981 6.05769 13.2981H17.7404C17.9115 13.2977 18.0788 13.3481 18.2213 13.4428C18.3638 13.5375 18.475 13.6724 18.5409 13.8303C18.6061 13.9887 18.6228 14.1629 18.5889 14.3308C18.555 14.4987 18.472 14.6528 18.3505 14.7736Z" fill="#EBEBEB"/>
</g>
</svg>
