<svg width="16" height="12" viewBox="0 0 16 12" fill="none" xmlns="http://www.w3.org/2000/svg">
<g clip-path="url(#clip0_62_9099)">
<g clip-path="url(#clip1_62_9099)">
<path fill-rule="evenodd" clip-rule="evenodd" d="M0.580078 0.47998H21.9553V1.34537H0.580078V0.47998ZM0.580078 2.21077H21.9553V3.07616H0.580078V2.21077ZM0.580078 3.94155H21.9553V4.80695H0.580078V3.94155ZM0.580078 5.67234H21.9553V6.53773H0.580078V5.67234ZM0.580078 7.40313H21.9553V8.26852H0.580078V7.40313ZM0.580078 9.13391H21.9553V9.9993H0.580078V9.13391ZM0.580078 10.8647H21.9553V11.7301H0.580078V10.8647Z" fill="#BD3D44"/>
<path fill-rule="evenodd" clip-rule="evenodd" d="M0.580078 1.34521H21.9553V2.21061H0.580078V1.34521ZM0.580078 3.076H21.9553V3.94139H0.580078V3.076ZM0.580078 4.80679H21.9553V5.67218H0.580078V4.80679ZM0.580078 6.53757H21.9553V7.40297H0.580078V6.53757ZM0.580078 8.26836H21.9553V9.13375H0.580078V8.26836ZM0.580078 9.99914H21.9553V10.8645H0.580078V9.99914Z" fill="white"/>
<path fill-rule="evenodd" clip-rule="evenodd" d="M0.580078 0.47998H9.13008V6.53762H0.580078V0.47998Z" fill="#192F5D"/>
<path fill-rule="evenodd" clip-rule="evenodd" d="M1.29268 0.739258L1.37046 0.978672H1.62223L1.41854 1.12666L1.49635 1.36607L1.29266 1.21811L1.08902 1.36607L1.1668 1.12666L0.963135 0.978672H1.21488L1.29268 0.739258ZM2.71767 0.739258L2.79548 0.978672H3.04724L2.84355 1.12666L2.92136 1.36607L2.71767 1.21811L2.51403 1.36607L2.59181 1.12666L2.38815 0.978672H2.63989L2.71767 0.739258ZM4.14273 0.739258L4.22052 0.978672H4.47228L4.26859 1.12666L4.3464 1.36607L4.14273 1.21811L3.93907 1.36607L4.01685 1.12666L3.81319 0.978672H4.06495L4.14273 0.739258ZM5.5677 0.739258L5.64549 0.978672H5.89723L5.69356 1.12666L5.77135 1.36607L5.5677 1.21811L5.36402 1.36607L5.44182 1.12666L5.23813 0.978672H5.4899L5.5677 0.739258ZM6.99274 0.739258L7.07052 0.978672H7.32228L7.1186 1.12666L7.1964 1.36607L6.99272 1.21811L6.78907 1.36607L6.86686 1.12666L6.66319 0.978672H6.91493L6.99274 0.739258ZM8.41778 0.739258L8.49556 0.978672H8.74732L8.54364 1.12666L8.62144 1.36607L8.41778 1.21811L8.21409 1.36607L8.29192 1.12666L8.08823 0.978672H8.33999L8.41778 0.739258ZM2.00521 1.34504L2.08299 1.58446H2.33476L2.13107 1.73242L2.2089 1.97186L2.00521 1.82389L1.80155 1.97186L1.87933 1.73242L1.67566 1.58446H1.92743L2.00521 1.34504ZM3.43018 1.34504L3.50796 1.58446H3.7597L3.55604 1.73242L3.63382 1.97186L3.43018 1.82389L3.22649 1.97186L3.3043 1.73242L3.10061 1.58446H3.35238L3.43018 1.34504ZM4.85522 1.34504L4.933 1.58446H5.18476L4.98108 1.73242L5.05888 1.97186L4.8552 1.82389L4.65155 1.97186L4.72934 1.73242L4.52567 1.58446H4.77741L4.85522 1.34504ZM6.28025 1.34504L6.35804 1.58446H6.6098L6.40611 1.73242L6.48392 1.97186L6.28025 1.82389L6.07657 1.97186L6.15442 1.73242L5.95073 1.58446H6.20249L6.28025 1.34504ZM7.70522 1.34504L7.78301 1.58446H8.03475L7.83108 1.73242L7.90887 1.97186L7.70522 1.82389L7.50154 1.97186L7.57934 1.73242L7.37566 1.58446H7.62742L7.70522 1.34504ZM1.29268 1.95081L1.37046 2.19022H1.62223L1.41854 2.33821L1.49635 2.57762L1.29266 2.42966L1.08902 2.57762L1.1668 2.33821L0.963135 2.19022H1.21488L1.29268 1.95081ZM2.71767 1.95081L2.79548 2.19022H3.04724L2.84355 2.33821L2.92136 2.57762L2.71767 2.42966L2.51403 2.57762L2.59181 2.33821L2.38815 2.19022H2.63989L2.71767 1.95081ZM4.14273 1.95081L4.22052 2.19022H4.47228L4.26859 2.33821L4.3464 2.57762L4.14273 2.42966L3.93907 2.57762L4.01685 2.33821L3.81319 2.19022H4.06495L4.14273 1.95081ZM5.5677 1.95081L5.64549 2.19022H5.89723L5.69356 2.33821L5.77135 2.57762L5.5677 2.42966L5.36402 2.57762L5.44182 2.33821L5.23813 2.19022H5.4899L5.5677 1.95081ZM6.99274 1.95081L7.07052 2.19022H7.32228L7.1186 2.33821L7.1964 2.57762L6.99272 2.42966L6.78907 2.57762L6.86686 2.33821L6.66319 2.19022H6.91493L6.99274 1.95081ZM8.41778 1.95081L8.49556 2.19022H8.74732L8.54364 2.33821L8.62144 2.57762L8.41778 2.42966L8.21409 2.57762L8.29192 2.33821L8.08823 2.19022H8.33999L8.41778 1.95081ZM2.00521 2.55657L2.08299 2.79601H2.33476L2.13107 2.94397L2.2089 3.18341L2.00521 3.03544L1.80155 3.18341L1.87933 2.94397L1.67566 2.79601H1.92743L2.00521 2.55657ZM3.43018 2.55657L3.50796 2.79601H3.7597L3.55604 2.94397L3.63382 3.18341L3.43018 3.03544L3.22649 3.18341L3.3043 2.94397L3.10061 2.79601H3.35238L3.43018 2.55657ZM4.85522 2.55657L4.933 2.79601H5.18476L4.98108 2.94397L5.05888 3.18341L4.8552 3.03544L4.65155 3.18341L4.72934 2.94397L4.52567 2.79601H4.77741L4.85522 2.55657ZM6.28025 2.55657L6.35804 2.79601H6.6098L6.40611 2.94397L6.48392 3.18341L6.28025 3.03544L6.07657 3.18341L6.15439 2.94397L5.95071 2.79601H6.20247L6.28025 2.55657ZM7.70522 2.55657L7.78301 2.79601H8.03475L7.83108 2.94397L7.90887 3.18341L7.70522 3.03544L7.50154 3.18341L7.57934 2.94397L7.37566 2.79601H7.62742L7.70522 2.55657ZM1.29268 3.16236L1.37046 3.40177H1.62223L1.41854 3.54976L1.49635 3.78917L1.29266 3.64121L1.08902 3.78917L1.1668 3.54976L0.963135 3.40177H1.21488L1.29268 3.16236ZM2.71767 3.16236L2.79548 3.40177H3.04724L2.84355 3.54976L2.92136 3.78917L2.71767 3.64121L2.51403 3.78917L2.59181 3.54976L2.38815 3.40177H2.63989L2.71767 3.16236ZM4.14273 3.16236L4.22052 3.40177H4.47228L4.26859 3.54976L4.3464 3.78917L4.14273 3.64121L3.93907 3.78917L4.01685 3.54976L3.81319 3.40177H4.06495L4.14273 3.16236ZM5.5677 3.16236L5.64549 3.40177H5.89723L5.69356 3.54976L5.77135 3.78917L5.5677 3.64121L5.36402 3.78917L5.44182 3.54976L5.23813 3.40177H5.4899L5.5677 3.16236ZM6.99274 3.16236L7.07052 3.40177H7.32228L7.1186 3.54976L7.1964 3.78917L6.99272 3.64121L6.78907 3.78917L6.86686 3.54976L6.66319 3.40177H6.91493L6.99274 3.16236ZM8.41778 3.16236L8.49556 3.40177H8.74732L8.54364 3.54976L8.62144 3.78917L8.41778 3.64121L8.21409 3.78917L8.29192 3.54976L8.08823 3.40177H8.33999L8.41778 3.16236ZM2.00521 3.76812L2.08299 4.00756H2.33476L2.13107 4.15552L2.2089 4.39496L2.00521 4.24699L1.80155 4.39496L1.87933 4.15552L1.67566 4.00756H1.92743L2.00521 3.76812ZM3.43018 3.76812L3.50796 4.00756H3.7597L3.55604 4.15552L3.63382 4.39496L3.43018 4.24699L3.22649 4.39496L3.3043 4.15552L3.10061 4.00756H3.35238L3.43018 3.76812ZM4.85522 3.76812L4.933 4.00756H5.18476L4.98108 4.15552L5.05888 4.39496L4.8552 4.24699L4.65155 4.39496L4.72934 4.15552L4.52567 4.00756H4.77741L4.85522 3.76812ZM6.28025 3.76812L6.35804 4.00756H6.6098L6.40611 4.15552L6.48392 4.39496L6.28025 4.24699L6.07657 4.39496L6.15439 4.15552L5.95071 4.00756H6.20247L6.28025 3.76812ZM7.70522 3.76812L7.78301 4.00756H8.03475L7.83108 4.15552L7.90887 4.39496L7.70522 4.24699L7.50154 4.39496L7.57934 4.15552L7.37566 4.00756H7.62742L7.70522 3.76812ZM1.29268 4.37391L1.37046 4.61332H1.62223L1.41854 4.76131L1.49635 5.00072L1.29266 4.85276L1.08902 5.00072L1.1668 4.76131L0.963135 4.61332H1.21488L1.29268 4.37391ZM2.71767 4.37391L2.79548 4.61332H3.04724L2.84355 4.76131L2.92136 5.00072L2.71767 4.85276L2.51403 5.00072L2.59181 4.76131L2.38815 4.61332H2.63989L2.71767 4.37391ZM4.14273 4.37391L4.22052 4.61332H4.47228L4.26859 4.76131L4.3464 5.00072L4.14273 4.85276L3.93907 5.00072L4.01685 4.76131L3.81319 4.61332H4.06495L4.14273 4.37391ZM5.5677 4.37391L5.64549 4.61332H5.89723L5.69356 4.76131L5.77135 5.00072L5.5677 4.85276L5.36402 5.00072L5.44182 4.76131L5.23813 4.61332H5.4899L5.5677 4.37391ZM6.99274 4.37391L7.07052 4.61332H7.32228L7.1186 4.76131L7.1964 5.00072L6.99272 4.85276L6.78907 5.00072L6.86686 4.76131L6.66319 4.61332H6.91493L6.99274 4.37391ZM8.41778 4.37391L8.49556 4.61332H8.74732L8.54364 4.76131L8.62144 5.00072L8.41778 4.85276L8.21409 5.00072L8.29192 4.76131L8.08823 4.61332H8.33999L8.41778 4.37391ZM2.00521 4.97967L2.08299 5.21911H2.33476L2.13107 5.36707L2.2089 5.60651L2.00521 5.45854L1.80155 5.60651L1.87933 5.36707L1.67566 5.21911H1.92743L2.00521 4.97967ZM3.43018 4.97967L3.50796 5.21911H3.7597L3.55604 5.36707L3.63382 5.60651L3.43018 5.45854L3.22649 5.60651L3.3043 5.36707L3.10061 5.21911H3.35238L3.43018 4.97967ZM4.85522 4.97967L4.933 5.21911H5.18476L4.98108 5.36707L5.05888 5.60651L4.8552 5.45854L4.65155 5.60651L4.72934 5.36707L4.52567 5.21911H4.77741L4.85522 4.97967ZM6.28025 4.97967L6.35804 5.21911H6.6098L6.40611 5.36707L6.48392 5.60651L6.28025 5.45854L6.07657 5.60651L6.15439 5.36707L5.95071 5.21911H6.20247L6.28025 4.97967ZM7.70522 4.97967L7.78301 5.21911H8.03475L7.83108 5.36707L7.90887 5.60651L7.70522 5.45854L7.50154 5.60651L7.57934 5.36707L7.37566 5.21911H7.62742L7.70522 4.97967ZM1.29268 5.58546L1.37046 5.82487H1.62223L1.41854 5.97286L1.49635 6.21227L1.29266 6.06431L1.08902 6.21227L1.1668 5.97286L0.963135 5.82487H1.21488L1.29268 5.58546ZM2.71767 5.58546L2.79548 5.82487H3.04724L2.84355 5.97286L2.92136 6.21227L2.71767 6.06431L2.51403 6.21227L2.59181 5.97286L2.38815 5.82487H2.63989L2.71767 5.58546ZM4.14273 5.58546L4.22052 5.82487H4.47228L4.26859 5.97286L4.3464 6.21227L4.14273 6.06431L3.93907 6.21227L4.01685 5.97286L3.81319 5.82487H4.06495L4.14273 5.58546ZM5.5677 5.58546L5.64549 5.82487H5.89723L5.69356 5.97286L5.77135 6.21227L5.5677 6.06431L5.36402 6.21227L5.44182 5.97286L5.23813 5.82487H5.4899L5.5677 5.58546ZM6.99274 5.58546L7.07052 5.82487H7.32228L7.1186 5.97286L7.1964 6.21227L6.99272 6.06431L6.78907 6.21227L6.86686 5.97286L6.66319 5.82487H6.91493L6.99274 5.58546ZM8.41778 5.58546L8.49556 5.82487H8.74732L8.54364 5.97286L8.62144 6.21227L8.41778 6.06431L8.21409 6.21227L8.29192 5.97286L8.08823 5.82487H8.33999L8.41778 5.58546Z" fill="white"/>
</g>
</g>
<defs>
<clipPath id="clip0_62_9099">
<rect width="15" height="11.25" fill="white" transform="translate(0.580078 0.47998)"/>
</clipPath>
<clipPath id="clip1_62_9099">
<rect width="15" height="11.25" fill="white" transform="translate(0.580078 0.47998)"/>
</clipPath>
</defs>
</svg>
