<svg width="28" height="27" viewBox="0 0 28 27" fill="none" xmlns="http://www.w3.org/2000/svg">
<path d="M4.10435 5.21985H7.53251H4.10435H7.53251C8.52173 5.25396 9.25512 5.71446 9.73267 6.60135L10.7048 8.49451H17.2542L18.2263 6.60135C18.7039 5.71446 19.4373 5.25396 20.4265 5.21985H23.8546L21.808 2.76385H6.09985L4.05318 5.21985H4.10435ZM3.33685 7.67584V12.5878V7.67584V12.5878H24.6221V7.67584H20.4265L19.4543 9.62017C18.9768 10.4729 18.2434 10.9164 17.2542 10.9505H10.7048C9.71561 10.9164 8.98223 10.4729 8.50467 9.62017L7.53251 7.67584H3.33685ZM0.880859 7.67584V6.08968V7.67584V6.08968C0.880859 5.50979 1.06847 4.99813 1.44369 4.55468L4.25785 1.17769C4.7354 0.597805 5.36646 0.307861 6.15101 0.307861H21.8591C22.6096 0.307861 23.2236 0.597805 23.7011 1.17769L26.5153 4.55468C26.8905 4.99813 27.0781 5.50979 27.0781 6.08968V7.67584V12.5878C27.044 13.2701 26.8052 13.8499 26.3618 14.3275C25.8842 14.7709 25.3044 15.0097 24.6221 15.0438H3.33685C2.65463 15.0097 2.07475 14.7709 1.59719 14.3275C1.15375 13.8499 0.91497 13.2701 0.880859 12.5878V7.67584ZM16.7425 22.4118H11.2165H16.7425H11.2165C9.88617 22.3777 8.91401 21.7808 8.30001 20.621L7.53251 19.1371H3.33685V24.0491H24.6221V19.1371H20.4265L19.659 20.621L17.51 19.4953L19.659 20.621C19.045 21.7808 18.0728 22.3777 16.7425 22.4118ZM3.33685 16.6812H7.53251H3.33685H7.53251C8.52173 16.7153 9.25512 17.1758 9.73267 18.0626L10.5002 19.4953C10.6366 19.8023 10.8754 19.9558 11.2165 19.9558H16.7425C17.0836 19.9558 17.3224 19.8023 17.4588 19.4953L18.2263 18.0626C18.7039 17.1758 19.4373 16.7153 20.4265 16.6812H24.6221C25.3044 16.7153 25.8842 16.954 26.3618 17.3975C26.8052 17.875 27.044 18.4549 27.0781 19.1371V24.0491C27.044 24.7314 26.8052 25.3112 26.3618 25.7888C25.8842 26.2322 25.3044 26.471 24.6221 26.5051H3.33685C2.65463 26.471 2.07475 26.2322 1.59719 25.7888C1.15375 25.3112 0.91497 24.7314 0.880859 24.0491V19.1371C0.91497 18.4549 1.15375 17.875 1.59719 17.3975C2.07475 16.954 2.65463 16.7153 3.33685 16.6812Z" fill="#BBBBBB"/>
</svg>
