<svg width="21" height="21" viewBox="0 0 21 21" fill="none" xmlns="http://www.w3.org/2000/svg">
<g clip-path="url(#clip0_190_30744)">
<g clip-path="url(#clip1_190_30744)">
<g clip-path="url(#clip2_190_30744)">
<path d="M10.1523 20.8672C15.6943 20.8672 20.1523 16.4092 20.1523 10.8672C20.1523 5.32519 15.6943 0.867188 10.1523 0.867188C4.61035 0.867188 0.152344 5.32519 0.152344 10.8672C0.152344 16.4092 4.61035 20.8672 10.1523 20.8672Z" fill="#2775CA"/>
<path d="M12.8999 12.4507C12.8999 10.9907 12.0259 10.4902 10.2754 10.2827C9.02539 10.1167 8.77637 9.78223 8.77637 9.19873C8.77637 8.61524 9.19141 8.2417 10.0264 8.2417C10.7759 8.2417 11.1934 8.49072 11.4009 9.11572C11.4424 9.24024 11.5669 9.32568 11.6914 9.32568H12.3604C12.5264 9.32568 12.6509 9.19873 12.6509 9.03272V8.99121C12.4849 8.07568 11.7354 7.36524 10.7759 7.28223V6.28369C10.7759 6.11524 10.6514 5.99072 10.4414 5.94922H9.81641C9.65039 5.94922 9.52588 6.07373 9.48438 6.28369V7.24072C8.23438 7.40674 7.44336 8.2417 7.44336 9.28174C7.44336 10.6587 8.27588 11.2007 10.0264 11.4082C11.1934 11.6157 11.5669 11.8672 11.5669 12.5337C11.5669 13.2002 10.9834 13.6567 10.1924 13.6567C9.1084 13.6567 8.73486 13.2002 8.61035 12.5752C8.56641 12.4067 8.44189 12.3237 8.31738 12.3237H7.60938C7.44336 12.3237 7.31641 12.4507 7.31641 12.6167V12.6582C7.48486 13.7007 8.15137 14.4502 9.52588 14.6577V15.6587C9.52588 15.8247 9.65039 15.9492 9.86035 15.9907H10.4854C10.6514 15.9907 10.7759 15.8662 10.8174 15.6587V14.6577C12.0674 14.4502 12.8999 13.5737 12.8999 12.4507Z" fill="white"/>
<path d="M8.02808 16.8271C4.77613 15.6602 3.11109 12.0347 4.31958 8.82666C4.94458 7.07617 6.31909 5.74316 8.02808 5.11816C8.19409 5.03516 8.2771 4.9082 8.2771 4.70068V4.11719C8.2771 3.95117 8.19409 3.82666 8.02808 3.78516C7.98657 3.78516 7.90113 3.78516 7.85962 3.82666C3.9021 5.07666 1.73657 9.2832 2.98657 13.2432C3.73609 15.5771 5.52808 17.3667 7.85962 18.1187C8.02808 18.2017 8.19409 18.1187 8.2356 17.9502C8.2771 17.9087 8.2771 17.8672 8.2771 17.7842V17.2007C8.2771 17.0762 8.15259 16.9102 8.02808 16.8271ZM12.4446 3.82666C12.2761 3.74365 12.1101 3.82666 12.0686 3.99268C12.0271 4.03418 12.0271 4.07568 12.0271 4.15869V4.74219C12.0271 4.9082 12.1516 5.07666 12.2761 5.15967C15.5281 6.32666 17.1931 9.95215 15.9846 13.1602C15.3596 14.9082 13.9851 16.2437 12.2761 16.8687C12.1101 16.9517 12.0271 17.0762 12.0271 17.2837V17.8672C12.0271 18.0332 12.1101 18.1602 12.2761 18.2017C12.3176 18.2017 12.4031 18.2017 12.4446 18.1602C16.4021 16.9102 18.5676 12.7012 17.3176 8.74365C16.5681 6.36816 14.7346 4.57617 12.4446 3.82666Z" fill="white"/>
</g>
</g>
</g>
<defs>
<clipPath id="clip0_190_30744">
<rect width="20" height="20" fill="white" transform="translate(0.152344 0.867188)"/>
</clipPath>
<clipPath id="clip1_190_30744">
<rect width="20" height="20" fill="white" transform="translate(0.152344 0.867188)"/>
</clipPath>
<clipPath id="clip2_190_30744">
<rect width="20" height="20" fill="white" transform="translate(0.152344 0.867188)"/>
</clipPath>
</defs>
</svg>
