<svg width="19" height="19" viewBox="0 0 19 19" fill="none" xmlns="http://www.w3.org/2000/svg">
<g clip-path="url(#clip0_64_25564)">
<g clip-path="url(#clip1_64_25564)">
<path d="M9.32812 18.9399C14.3159 18.9399 18.3281 14.9277 18.3281 9.93994C18.3281 4.95215 14.3159 0.939941 9.32812 0.939941C4.34033 0.939941 0.328125 4.95215 0.328125 9.93994C0.328125 14.9277 4.34033 18.9399 9.32812 18.9399Z" fill="#2775CA"/>
<path d="M11.8025 11.366C11.8025 10.052 11.0159 9.60156 9.44043 9.4148C8.31543 9.26538 8.09131 8.96436 8.09131 8.43921C8.09131 7.91406 8.46484 7.57788 9.21631 7.57788C9.89087 7.57788 10.2666 7.802 10.4534 8.3645C10.4907 8.47656 10.6028 8.55347 10.7148 8.55347H11.3169C11.4663 8.55347 11.5784 8.43921 11.5784 8.2898V8.25244C11.429 7.42847 10.7544 6.78906 9.89087 6.71436V5.81567C9.89087 5.66406 9.77881 5.552 9.58984 5.51465H9.02734C8.87793 5.51465 8.76587 5.62671 8.72852 5.81567V6.677C7.60352 6.82642 6.8916 7.57788 6.8916 8.51392C6.8916 9.75317 7.64087 10.241 9.21631 10.4277C10.2666 10.6145 10.6028 10.8408 10.6028 11.4407C10.6028 12.0405 10.0776 12.4514 9.36572 12.4514C8.39014 12.4514 8.05396 12.0405 7.94189 11.478C7.90234 11.3264 7.79028 11.2517 7.67822 11.2517H7.04102C6.8916 11.2517 6.77734 11.366 6.77734 11.5154V11.5527C6.92895 12.491 7.52881 13.1655 8.76587 13.3523V14.2532C8.76587 14.4026 8.87793 14.5146 9.06689 14.552H9.62939C9.77881 14.552 9.89087 14.4399 9.92822 14.2532V13.3523C11.0532 13.1655 11.8025 12.3767 11.8025 11.366Z" fill="white"/>
<path d="M7.41824 15.3037C4.49148 14.2534 2.99295 10.9905 4.08059 8.10327C4.64309 6.52783 5.88015 5.32812 7.41824 4.76562C7.56765 4.69092 7.64236 4.57666 7.64236 4.38989V3.86475C7.64236 3.71533 7.56765 3.60327 7.41824 3.56592C7.38089 3.56592 7.30398 3.56592 7.26663 3.60327C3.70486 4.72827 1.75589 8.51416 2.88089 12.0781C3.55545 14.1787 5.16824 15.7893 7.26663 16.4661C7.41824 16.5408 7.56765 16.4661 7.60501 16.3145C7.64236 16.2771 7.64236 16.2397 7.64236 16.165V15.6399C7.64236 15.5278 7.5303 15.3784 7.41824 15.3037ZM11.3931 3.60327C11.2415 3.52856 11.0921 3.60327 11.0547 3.75269C11.0174 3.79004 11.0174 3.82739 11.0174 3.9021V4.42725C11.0174 4.57666 11.1294 4.72827 11.2415 4.80298C14.1682 5.85327 15.6668 9.11621 14.5791 12.0034C14.0166 13.5767 12.7796 14.7786 11.2415 15.3411C11.0921 15.4158 11.0174 15.5278 11.0174 15.7146V16.2397C11.0174 16.3892 11.0921 16.5034 11.2415 16.5408C11.2788 16.5408 11.3557 16.5408 11.3931 16.5034C14.9549 15.3784 16.9038 11.5903 15.7788 8.02856C15.1043 5.89062 13.4541 4.27783 11.3931 3.60327Z" fill="white"/>
</g>
</g>
<defs>
<clipPath id="clip0_64_25564">
<rect width="18" height="18" fill="white" transform="translate(0.328125 0.939941)"/>
</clipPath>
<clipPath id="clip1_64_25564">
<rect width="18" height="18" fill="white" transform="translate(0.328125 0.939941)"/>
</clipPath>
</defs>
</svg>
