<svg width="16" height="15" viewBox="0 0 16 15" fill="none" xmlns="http://www.w3.org/2000/svg">
<path d="M12.5107 11.3906C13.5491 10.2956 14.0872 8.9362 14.125 7.3125C14.0872 5.65104 13.5114 4.26335 12.3974 3.14941C11.2835 2.03548 9.89582 1.45964 8.23436 1.42188C6.5729 1.45964 5.18521 2.03548 4.07128 3.14941C2.95734 4.26335 2.3815 5.65104 2.34374 7.3125C2.3815 8.9362 2.92902 10.2956 3.98632 11.3906C4.25064 10.7109 4.68488 10.1634 5.28905 9.74805C5.87434 9.35156 6.55402 9.14388 7.32811 9.125H9.14061C9.9147 9.14388 10.5944 9.35156 11.1797 9.74805C11.7838 10.1634 12.2275 10.7109 12.5107 11.3906ZM11.3496 12.2969H11.3779C11.2458 11.7682 10.9814 11.334 10.5849 10.9941C10.1885 10.6732 9.70702 10.5033 9.14061 10.4844H7.32811C6.76171 10.5033 6.28026 10.6732 5.88378 10.9941C5.48729 11.334 5.23241 11.7682 5.11913 12.2969C6.02538 12.8822 7.06379 13.1842 8.23436 13.2031C9.40494 13.1842 10.4433 12.8822 11.3496 12.2969ZM8.23436 14.5625C6.91275 14.5436 5.70441 14.2227 4.60936 13.5996C3.51431 12.9577 2.62694 12.0703 1.94725 10.9375C1.30533 9.78581 0.984363 8.57747 0.984363 7.3125C0.984363 6.04753 1.30533 4.83919 1.94725 3.6875C2.62694 2.55469 3.51431 1.66732 4.60936 1.02539C5.70441 0.402344 6.91275 0.0813802 8.23436 0.0625C9.55598 0.0813802 10.7643 0.402344 11.8594 1.02539C12.9544 1.66732 13.8418 2.55469 14.5215 3.6875C15.1634 4.83919 15.4844 6.04753 15.4844 7.3125C15.4844 8.57747 15.1634 9.78581 14.5215 10.9375C13.8418 12.0703 12.9544 12.9577 11.8594 13.5996C10.7643 14.2227 9.55598 14.5436 8.23436 14.5625ZM8.23436 6.85938C8.66861 6.84049 8.99901 6.65169 9.22557 6.29297C9.41438 5.91536 9.41438 5.53776 9.22557 5.16016C8.99901 4.80143 8.66861 4.61263 8.23436 4.59375C7.80012 4.61263 7.46971 4.80143 7.24315 5.16016C7.05435 5.53776 7.05435 5.91536 7.24315 6.29297C7.46971 6.65169 7.80012 6.84049 8.23436 6.85938ZM5.74218 5.72656C5.77994 4.78255 6.1953 4.0651 6.98827 3.57422C7.819 3.12109 8.64973 3.12109 9.48046 3.57422C10.2734 4.0651 10.6888 4.78255 10.7266 5.72656C10.6888 6.67057 10.2734 7.38802 9.48046 7.87891C8.64973 8.33203 7.819 8.33203 6.98827 7.87891C6.1953 7.38802 5.77994 6.67057 5.74218 5.72656Z" fill="#BBBBBB"/>
</svg>
