<svg width="12" height="16" viewBox="0 0 12 16" fill="none" xmlns="http://www.w3.org/2000/svg">
<path d="M2.25625 14.2188H9.75625C10.0492 14.1992 10.2055 14.043 10.225 13.75V5.3125H7.88125C7.60781 5.3125 7.3832 5.22461 7.20742 5.04883C7.03164 4.87305 6.94375 4.64844 6.94375 4.375V2.03125H2.25625C1.96328 2.05078 1.80703 2.20703 1.7875 2.5V13.75C1.80703 14.043 1.96328 14.1992 2.25625 14.2188ZM2.25625 0.625H7.11953C7.62734 0.625 8.0668 0.810547 8.43789 1.18164L11.0746 3.81836C11.4457 4.18945 11.6312 4.63867 11.6312 5.16602V13.75C11.6117 14.2773 11.4262 14.7168 11.0746 15.0684C10.723 15.4199 10.2836 15.6055 9.75625 15.625H2.25625C1.72891 15.6055 1.28945 15.4199 0.937891 15.0684C0.586328 14.7168 0.400781 14.2773 0.38125 13.75V2.5C0.400781 1.97266 0.586328 1.5332 0.937891 1.18164C1.28945 0.830078 1.72891 0.644531 2.25625 0.625ZM8.84805 8.47656L5.71328 11.582C5.38125 11.8555 5.04922 11.8555 4.71719 11.582L3.16445 10.0293C2.89102 9.69727 2.89102 9.36523 3.16445 9.0332C3.49648 8.75977 3.82852 8.75977 4.16055 9.0332L5.21523 10.0879L7.85195 7.48047C8.18398 7.20703 8.51602 7.20703 8.84805 7.48047C9.12148 7.8125 9.12148 8.14453 8.84805 8.47656Z" fill="#FAFAFA"/>
</svg>
