<svg width="14" height="14" viewBox="0 0 14 14" fill="none" xmlns="http://www.w3.org/2000/svg">
<path d="M5.63418 2.55352C5.47012 2.81602 5.24043 2.90625 4.94512 2.82422C4.3709 2.66016 3.85411 2.79141 3.39473 3.21797C2.96817 3.67734 2.83692 4.19414 3.00098 4.76836C3.08301 5.06367 2.99278 5.29336 2.73028 5.45742C2.20528 5.75273 1.92637 6.21211 1.89356 6.83555C1.92637 7.45898 2.20528 7.91836 2.73028 8.21367C2.99278 8.37773 3.08301 8.60742 3.00098 8.90273C2.83692 9.47695 2.96817 9.99375 3.39473 10.4531C3.85411 10.8797 4.3709 11.0109 4.94512 10.8469C5.24043 10.7648 5.47012 10.8551 5.63418 11.1176C5.9295 11.6426 6.38887 11.9215 7.01231 11.9543C7.63575 11.9215 8.09512 11.6426 8.39043 11.1176C8.5545 10.8551 8.78418 10.7648 9.0795 10.8469C9.65371 10.9945 10.1705 10.8633 10.6299 10.4531C11.0564 9.99375 11.1877 9.47695 11.0236 8.90273C10.9416 8.60742 11.04 8.37773 11.3189 8.21367C11.8275 7.91836 12.0982 7.45898 12.1311 6.83555C12.0982 6.21211 11.8275 5.75273 11.3189 5.45742C11.04 5.29336 10.9416 5.06367 11.0236 4.76836C11.1877 4.19414 11.0564 3.67734 10.6299 3.21797C10.1705 2.79141 9.65371 2.66016 9.0795 2.82422C8.78418 2.90625 8.5545 2.81602 8.39043 2.55352C8.09512 2.02852 7.63575 1.74961 7.01231 1.7168C6.38887 1.74961 5.9295 2.02852 5.63418 2.55352ZM7.01231 0.535547C7.93106 0.568359 8.65293 0.921093 9.17793 1.59375C10.0311 1.49531 10.7939 1.75781 11.4666 2.38125C12.09 3.05391 12.3525 3.8168 12.2541 4.66992C12.9268 5.19492 13.2795 5.9168 13.3123 6.83555C13.2795 7.7543 12.9268 8.47617 12.2541 9.00117C12.3525 9.8543 12.09 10.6172 11.4666 11.2898C10.7939 11.9133 10.0311 12.1758 9.17793 12.0773C8.65293 12.75 7.93106 13.1027 7.01231 13.1355C6.09356 13.1027 5.37168 12.75 4.84668 12.0773C3.99356 12.1758 3.23067 11.9133 2.55801 11.2898C1.93457 10.6172 1.67207 9.8543 1.77051 9.00117C1.09786 8.47617 0.745121 7.7543 0.712308 6.83555C0.745121 5.9168 1.09786 5.19492 1.77051 4.66992C1.67207 3.8168 1.93457 3.05391 2.55801 2.38125C3.23067 1.75781 3.99356 1.49531 4.84668 1.59375C5.37168 0.921093 6.09356 0.568359 7.01231 0.535547ZM9.79317 5.67891L6.64317 8.82891C6.36426 9.05859 6.08536 9.05859 5.80645 8.82891L4.23145 7.25391C4.00176 6.975 4.00176 6.69609 4.23145 6.41719C4.51036 6.1875 4.78926 6.1875 5.06817 6.41719L6.22481 7.57383L8.95645 4.84219C9.23536 4.6125 9.51426 4.6125 9.79317 4.84219C10.0229 5.12109 10.0229 5.4 9.79317 5.67891Z" fill="#BBBBBB"/>
</svg>
