<svg width="16" height="16" viewBox="0 0 16 16" fill="none" xmlns="http://www.w3.org/2000/svg">
<path d="M6.64843 2.88477C6.45962 3.18685 6.1953 3.29069 5.85546 3.19629C5.19465 3.00749 4.59992 3.15853 4.07128 3.64941C3.58039 4.17806 3.42935 4.77279 3.61815 5.43359C3.71255 5.77344 3.60871 6.03776 3.30663 6.22656C2.70246 6.56641 2.3815 7.09505 2.34374 7.8125C2.3815 8.52995 2.70246 9.05859 3.30663 9.39844C3.60871 9.58724 3.71255 9.85156 3.61815 10.1914C3.42935 10.8522 3.58039 11.4469 4.07128 11.9756C4.59992 12.4665 5.19465 12.6175 5.85546 12.4287C6.1953 12.3343 6.45962 12.4382 6.64843 12.7402C6.98827 13.3444 7.51691 13.6654 8.23436 13.7031C8.95181 13.6654 9.48046 13.3444 9.8203 12.7402C10.0091 12.4382 10.2734 12.3343 10.6133 12.4287C11.2741 12.5986 11.8688 12.4476 12.3974 11.9756C12.8883 11.4469 13.0394 10.8522 12.8506 10.1914C12.7562 9.85156 12.8695 9.58724 13.1904 9.39844C13.7757 9.05859 14.0872 8.52995 14.125 7.8125C14.0872 7.09505 13.7757 6.56641 13.1904 6.22656C12.8695 6.03776 12.7562 5.77344 12.8506 5.43359C13.0394 4.77279 12.8883 4.17806 12.3974 3.64941C11.8688 3.15853 11.2741 3.00749 10.6133 3.19629C10.2734 3.29069 10.0091 3.18685 9.8203 2.88477C9.48046 2.2806 8.95181 1.95964 8.23436 1.92188C7.51691 1.95964 6.98827 2.2806 6.64843 2.88477ZM8.23436 0.5625C9.29165 0.60026 10.1224 1.00618 10.7266 1.78027C11.7083 1.66699 12.5863 1.96908 13.3603 2.68652C14.0778 3.46061 14.3799 4.33854 14.2666 5.32031C15.0407 5.92448 15.4466 6.75521 15.4844 7.8125C15.4466 8.86979 15.0407 9.70052 14.2666 10.3047C14.3799 11.2865 14.0778 12.1644 13.3603 12.9385C12.5863 13.6559 11.7083 13.958 10.7266 13.8447C10.1224 14.6188 9.29165 15.0247 8.23436 15.0625C7.17707 15.0247 6.34634 14.6188 5.74218 13.8447C4.7604 13.958 3.88247 13.6559 3.10839 12.9385C2.39094 12.1644 2.08885 11.2865 2.20214 10.3047C1.42805 9.70052 1.02212 8.86979 0.984363 7.8125C1.02212 6.75521 1.42805 5.92448 2.20214 5.32031C2.08885 4.33854 2.39094 3.46061 3.10839 2.68652C3.88247 1.96908 4.7604 1.66699 5.74218 1.78027C6.34634 1.00618 7.17707 0.60026 8.23436 0.5625ZM11.4346 6.48145L7.80956 10.1064C7.48859 10.3708 7.16763 10.3708 6.84667 10.1064L5.03417 8.29395C4.76984 7.97298 4.76984 7.65202 5.03417 7.33105C5.35513 7.06673 5.67609 7.06673 5.99706 7.33105L7.32811 8.66211L10.4717 5.51855C10.7926 5.25423 11.1136 5.25423 11.4346 5.51855C11.6989 5.83952 11.6989 6.16048 11.4346 6.48145Z" fill="#BBBBBB"/>
</svg>
