<svg width="11" height="14" viewBox="0 0 11 14" fill="none" xmlns="http://www.w3.org/2000/svg">
<g clip-path="url(#clip0_40_4866)">
<path d="M1.36484 0.427793C1.13763 0.427793 0.950984 0.500826 0.804917 0.646894C0.658849 0.792961 0.585815 0.979603 0.585815 1.20682C0.585815 1.43403 0.658849 1.62068 0.804917 1.76674C0.950984 1.91281 1.13763 1.98584 1.36484 1.98584V2.25364C1.38107 3.3248 1.76247 4.24177 2.50904 5.00457L4.16447 6.66L2.50904 8.31543C1.76247 9.07823 1.38107 9.99521 1.36484 11.0664V11.3342C1.13763 11.3342 0.950984 11.4072 0.804917 11.5533C0.658849 11.6993 0.585815 11.886 0.585815 12.1132C0.585815 12.3404 0.658849 12.527 0.804917 12.6731C0.950984 12.8192 1.13763 12.8922 1.36484 12.8922H2.14387H9.1551C9.38232 12.8922 9.56896 12.8192 9.71503 12.6731C9.8611 12.527 9.93413 12.3404 9.93413 12.1132C9.93413 11.886 9.8611 11.6993 9.71503 11.5533C9.56896 11.4072 9.38232 11.3342 9.1551 11.3342V11.0664C9.13887 9.99521 8.75748 9.07823 8.01091 8.31543L6.35548 6.66L8.01091 5.00457C8.75748 4.24177 9.13887 3.3248 9.1551 2.25364V1.98584C9.38232 1.98584 9.56896 1.91281 9.71503 1.76674C9.8611 1.62068 9.93413 1.43403 9.93413 1.20682C9.93413 0.979603 9.8611 0.792961 9.71503 0.646894C9.56896 0.500826 9.38232 0.427793 9.1551 0.427793H8.37608H1.36484ZM7.59705 11.0664V11.3342H2.92289V11.0664C2.93912 10.4172 3.16634 9.86537 3.60454 9.41094L5.25997 7.75551L6.9154 9.41094C7.35361 9.8816 7.58082 10.4334 7.59705 11.0664Z" fill="#ADB5BD"/>
</g>
<defs>
<clipPath id="clip0_40_4866">
<rect width="9.52" height="13" fill="white" transform="matrix(1 0 0 -1 0.5 13.16)"/>
</clipPath>
</defs>
</svg>
