<svg width="16" height="14" viewBox="0 0 16 14" fill="none" xmlns="http://www.w3.org/2000/svg">
<path d="M3.47655 0.96875H13.8984C14.3138 1.00651 14.5404 1.23307 14.5781 1.64844C14.5404 2.0638 14.3138 2.29036 13.8984 2.32812H3.47655C3.15559 2.32812 2.89126 2.44141 2.68358 2.66797C2.45702 2.87565 2.34374 3.13997 2.34374 3.46094V11.1641C2.34374 11.485 2.45702 11.7493 2.68358 11.957C2.89126 12.1836 3.15559 12.2969 3.47655 12.2969H12.9922C13.3131 12.2969 13.5775 12.1836 13.7851 11.957C14.0117 11.7493 14.125 11.485 14.125 11.1641V6.17969C14.125 5.85872 14.0117 5.5944 13.7851 5.38672C13.5775 5.16016 13.3131 5.04688 12.9922 5.04688H4.3828C3.96744 5.00911 3.74087 4.78255 3.70311 4.36719C3.74087 3.95182 3.96744 3.72526 4.3828 3.6875H12.9922C13.6907 3.70638 14.276 3.95182 14.748 4.42383C15.22 4.89583 15.4655 5.48112 15.4844 6.17969V11.1641C15.4655 11.8626 15.22 12.4479 14.748 12.9199C14.276 13.3919 13.6907 13.6374 12.9922 13.6562H3.47655C2.77798 13.6374 2.1927 13.3919 1.72069 12.9199C1.24869 12.4479 1.00324 11.8626 0.984363 11.1641V3.46094C1.00324 2.76237 1.24869 2.17708 1.72069 1.70508C2.1927 1.23307 2.77798 0.98763 3.47655 0.96875ZM11.8594 9.57812C11.595 9.57812 11.3779 9.49316 11.208 9.32324C11.0381 9.15332 10.9531 8.9362 10.9531 8.67188C10.9531 8.40755 11.0381 8.19043 11.208 8.02051C11.3779 7.85059 11.595 7.76562 11.8594 7.76562C12.1237 7.76562 12.3408 7.85059 12.5107 8.02051C12.6807 8.19043 12.7656 8.40755 12.7656 8.67188C12.7656 8.9362 12.6807 9.15332 12.5107 9.32324C12.3408 9.49316 12.1237 9.57812 11.8594 9.57812Z" fill="#BBBBBB"/>
</svg>
