<svg width="16" height="16" viewBox="0 0 16 16" fill="none" xmlns="http://www.w3.org/2000/svg">
<g id="Icon" clip-path="url(#clip0_40_8956)">
<path id="Vector" d="M3.36058 1.61787C2.6677 1.63659 2.08717 1.88004 1.61901 2.3482C1.15084 2.81637 0.907398 3.39689 0.888672 4.08978V11.7302C0.907398 12.4231 1.15084 13.0036 1.61901 13.4718C2.08717 13.94 2.6677 14.1834 3.36058 14.2021H12.7988C13.4917 14.1834 14.0722 13.94 14.5404 13.4718C15.0085 13.0036 15.252 12.4231 15.2707 11.7302V6.78641C15.252 6.09352 15.0085 5.513 14.5404 5.04483C14.0722 4.57667 13.4917 4.33322 12.7988 4.3145H4.25946C3.84747 4.35195 3.62275 4.57667 3.5853 4.98865C3.62275 5.40064 3.84747 5.62536 4.25946 5.66281H12.7988C13.1171 5.66281 13.3793 5.77517 13.5853 5.99989C13.81 6.20588 13.9224 6.46805 13.9224 6.78641V11.7302C13.9224 12.0486 13.81 12.3108 13.5853 12.5167C13.3793 12.7415 13.1171 12.8538 12.7988 12.8538H3.36058C3.04223 12.8538 2.78006 12.7415 2.57407 12.5167C2.34935 12.3108 2.23699 12.0486 2.23699 11.7302V4.08978C2.23699 3.77142 2.34935 3.50925 2.57407 3.30326C2.78006 3.07854 3.04223 2.96618 3.36058 2.96618H13.6977C14.1096 2.92873 14.3344 2.70401 14.3718 2.29202C14.3344 1.88004 14.1096 1.65532 13.6977 1.61787H3.36058ZM11.6752 10.1572C11.9374 10.1572 12.1527 10.0729 12.3213 9.90438C12.4898 9.73584 12.5741 9.52049 12.5741 9.25832C12.5741 8.99614 12.4898 8.78079 12.3213 8.61225C12.1527 8.44371 11.9374 8.35944 11.6752 8.35944C11.413 8.35944 11.1977 8.44371 11.0291 8.61225C10.8606 8.78079 10.7763 8.99614 10.7763 9.25832C10.7763 9.52049 10.8606 9.73584 11.0291 9.90438C11.1977 10.0729 11.413 10.1572 11.6752 10.1572Z" fill="#FAFAFA"/>
</g>
<defs>
<clipPath id="clip0_40_8956">
<rect width="14.5" height="15" fill="white" transform="matrix(1 0 0 -1 0.830078 15.41)"/>
</clipPath>
</defs>
</svg>
