<svg width="14" height="12" viewBox="0 0 14 12" fill="none" xmlns="http://www.w3.org/2000/svg">
<path d="M6.27403 10.9629L6.2002 10.9137L6.27403 10.9629L6.2002 10.9137L1.89356 6.90234C1.12246 6.16406 0.728715 5.26172 0.712308 4.19531V4.12148C0.728715 3.23555 1.00762 2.46445 1.54903 1.8082C2.07403 1.16836 2.77129 0.758203 3.64082 0.577734C4.65801 0.397265 5.57676 0.59414 6.39707 1.16836C6.62676 1.31602 6.83184 1.49648 7.01231 1.70977C7.11075 1.59492 7.22559 1.48828 7.35684 1.38984C7.43887 1.30781 7.52911 1.23398 7.62754 1.16836C8.44786 0.59414 9.36661 0.389062 10.3838 0.553125C11.2533 0.733593 11.9506 1.15195 12.4756 1.8082C13.017 2.46445 13.2959 3.23555 13.3123 4.12148V4.19531C13.2959 5.26172 12.9022 6.16406 12.1311 6.90234L7.82442 10.9137L7.75059 10.9629C7.53731 11.1598 7.29121 11.2582 7.01231 11.2582C6.7334 11.2582 6.48731 11.1598 6.27403 10.9629ZM6.59395 3.01406C6.59395 3.01406 6.58575 3.00586 6.56934 2.98945L6.12637 2.49727C5.83106 2.16914 5.48653 1.93945 5.09278 1.8082C4.69903 1.67695 4.28887 1.65234 3.86231 1.73437C3.28809 1.84922 2.82051 2.12812 2.45957 2.57109C2.09864 2.99766 1.90996 3.51445 1.89356 4.12148V4.19531C1.90996 4.91719 2.18067 5.53242 2.70567 6.04102L7.01231 10.0523L11.3189 6.04102C11.8439 5.53242 12.1147 4.91719 12.1311 4.19531V4.12148C12.1147 3.51445 11.926 2.99766 11.565 2.57109C11.2041 2.12812 10.7365 1.84922 10.1623 1.73437C9.73575 1.65234 9.32559 1.67695 8.93184 1.8082C8.53809 1.93945 8.19356 2.16914 7.89825 2.49727L7.45528 2.98945C7.45528 2.98945 7.44707 2.99766 7.43067 3.01406C7.31582 3.12891 7.17637 3.18633 7.01231 3.18633C6.84825 3.18633 6.70879 3.12891 6.59395 3.01406Z" fill="#BBBBBB"/>
</svg>
