<svg width="16" height="15" viewBox="0 0 16 15" fill="none" xmlns="http://www.w3.org/2000/svg">
<path d="M8.23442 13.2637C8.3477 13.2826 8.52707 13.1976 8.77251 13.0088C9.01795 12.8389 9.29172 12.4707 9.5938 11.9043C9.83924 11.3945 10.0469 10.7904 10.2168 10.0918H6.252C6.42192 10.7904 6.62961 11.3945 6.87505 11.9043C7.17713 12.4707 7.45089 12.8389 7.69634 13.0088C7.94178 13.1976 8.12114 13.2826 8.23442 13.2637ZM6.05376 8.73242H10.4434H6.05376H10.4434C10.4812 8.29818 10.5 7.84505 10.5 7.37305C10.5 6.90104 10.4812 6.44792 10.4434 6.01367H6.05376C5.99712 6.44792 5.9688 6.90104 5.9688 7.37305C5.9688 7.84505 5.99712 8.29818 6.05376 8.73242ZM6.252 4.6543H10.2168H6.252H10.2168C10.0469 3.95573 9.83924 3.35156 9.5938 2.8418C9.29172 2.27539 9.01795 1.90723 8.77251 1.7373C8.52707 1.5485 8.3477 1.46354 8.23442 1.48242C8.12114 1.46354 7.94178 1.5485 7.69634 1.7373C7.45089 1.90723 7.17713 2.27539 6.87505 2.8418C6.62961 3.35156 6.42192 3.95573 6.252 4.6543ZM11.8028 6.01367C11.8405 6.44792 11.8594 6.90104 11.8594 7.37305C11.8594 7.84505 11.8405 8.29818 11.8028 8.73242H13.9551C14.0684 8.29818 14.125 7.84505 14.125 7.37305C14.125 6.90104 14.0684 6.44792 13.9551 6.01367H11.8028ZM13.4737 4.6543C12.8318 3.46484 11.8972 2.58691 10.67 2.02051C11.0665 2.75684 11.378 3.63477 11.6045 4.6543H13.4737ZM4.86431 4.6543C5.07199 3.63477 5.38351 2.75684 5.79888 2.02051C4.57166 2.58691 3.63709 3.46484 2.99517 4.6543H4.86431ZM2.51372 6.01367C2.40044 6.44792 2.3438 6.90104 2.3438 7.37305C2.3438 7.84505 2.40044 8.29818 2.51372 8.73242H4.66606C4.6283 8.29818 4.60942 7.84505 4.60942 7.37305C4.60942 6.90104 4.6283 6.44792 4.66606 6.01367H2.51372ZM10.67 12.7256C11.8972 12.1592 12.8318 11.2812 13.4737 10.0918H11.6045C11.3969 11.1113 11.0853 11.9893 10.67 12.7256ZM5.79888 12.7256C5.40239 11.9893 5.09087 11.1113 4.86431 10.0918H2.99517C3.63709 11.2812 4.57166 12.1592 5.79888 12.7256ZM8.23442 14.623C6.91281 14.6042 5.70448 14.2832 4.60942 13.6602C3.51437 13.0182 2.627 12.1309 1.94731 10.998C1.30539 9.84635 0.984424 8.63802 0.984424 7.37305C0.984424 6.10807 1.30539 4.89974 1.94731 3.74805C2.627 2.61523 3.51437 1.72786 4.60942 1.08594C5.70448 0.462891 6.91281 0.141927 8.23442 0.123047C9.55604 0.141927 10.7644 0.462891 11.8594 1.08594C12.9545 1.72786 13.8418 2.61523 14.5215 3.74805C15.1635 4.89974 15.4844 6.10807 15.4844 7.37305C15.4844 8.63802 15.1635 9.84635 14.5215 10.998C13.8418 12.1309 12.9545 13.0182 11.8594 13.6602C10.7644 14.2832 9.55604 14.6042 8.23442 14.623Z" fill="#BBBBBB"/>
</svg>
